<?xml version="1.0" encoding="utf-8"?>
<!-- Generator: Adobe Illustrator 24.1.1, SVG Export Plug-In . SVG Version: 6.00 Build 0)  -->
<svg version="1.1" id="logo_3" xmlns="http://www.w3.org/2000/svg" xmlns:xlink="http://www.w3.org/1999/xlink" x="0px" y="0px"
	 viewBox="0 0 14.4 12.8" style="enable-background:new 0 0 14.4 12.8;" xml:space="preserve">
<style type="text/css">
	.st0{fill:#4C4C4C;}
	.st1{fill:#996699;}
	.st2{fill:#3399CC;}
	.st3{fill:#336699;}
</style>
<path class="st0" d="M2.8,11.4V9.9C1,8.1,0.4,5.4,1.2,3C-0.2,5.9,0.4,9.3,2.8,11.4z"/>
<path class="st0" d="M12,11.4V9.9c1.8-1.8,2.5-4.5,1.6-6.9C15,5.9,14.4,9.3,12,11.4z"/>
<path id="M" class="st0" d="M3.5,5.6h1.3l2.5,3.8L10,5.6h1.3v6.3c-0.6,0.4-1.1,0.7-1.8,0.9V9.2l-1.6,2.5h-1L5.3,9.2v3.6
	c-0.6-0.2-1.2-0.5-1.8-0.9L3.5,5.6z"/>
<path class="st0" d="M13.3,6.3c0-3.2-2.6-5.8-5.8-5.8S1.6,3,1.6,6.2c0,0.9,0.2,1.7,0.5,2.5C2,8.2,1.9,7.6,1.9,7.1
	c0-3,2.5-5.5,5.5-5.5c3,0,5.5,2.5,5.5,5.5c0,0.6-0.1,1.1-0.2,1.6C13.1,7.9,13.3,7.1,13.3,6.3z"/>
<path class="st1" d="M2.4,11V9.5C0.5,7.7-0.1,5,0.8,2.6C-0.7,5.4,0,8.9,2.4,11z"/>
<path class="st1" d="M11.5,11V9.5C13.4,7.7,14,5,13.1,2.6C14.6,5.5,13.9,8.9,11.5,11z"/>
<path id="M-2" class="st2" d="M3.1,5.2h1.4L7,9l2.5-3.8h1.3v6.3c-0.6,0.4-1.1,0.7-1.8,0.9V8.8l-1.6,2.5h-1L4.9,8.8v3.6
	c-0.6-0.2-1.3-0.5-1.8-0.9L3.1,5.2z"/>
<path class="st3" d="M12.8,5.8C12.7,2.6,10,0.1,6.7,0.2c-3,0.1-5.5,2.6-5.6,5.6c0,0.9,0.2,1.7,0.5,2.5C1.5,7.8,1.4,7.2,1.4,6.7
	c0.1-3,2.6-5.5,5.6-5.4c3,0.1,5.5,2.6,5.4,5.6c0,0.5-0.1,0.9-0.2,1.4C12.6,7.5,12.8,6.6,12.8,5.8z"/>
</svg>
