<?xml version="1.0" encoding="utf-8"?>
<!-- Generator: Adobe Illustrator 24.1.1, SVG Export Plug-In . SVG Version: 6.00 Build 0)  -->
<svg version="1.1" xmlns="http://www.w3.org/2000/svg" xmlns:xlink="http://www.w3.org/1999/xlink" x="0px" y="0px"
	 viewBox="0 0 3023.2 2759.1" style="enable-background:new 0 0 3023.2 2759.1;" xml:space="preserve">
<style type="text/css">
	.st0{fill:#C9C9C9;}
	.st1{fill:#F8F8FB;}
	.st2{fill:#6B96CB;}
	.st3{fill:#996699;}
	.st4{fill:#F29984;}
	.st5{fill:#4C4C4C;}
	.st6{fill:#EFBDB3;}
	.st7{fill:#F19984;}
	.st8{fill:#F29985;}
	.st9{fill:#3D4463;}
	.st10{fill:#3E4563;}
	.st11{fill:#3E4564;}
	.st12{fill:#E79C8C;}
	.st13{fill:#E89B8C;}
	.st14{fill:#F7F7FA;}
	.st15{fill:#777777;}
	.st16{fill:#3399CC;}
	.st17{fill:#336699;}
	.st18{fill:#FFFFFF;}
	.st19{fill:#FEFEFE;}
	.st20{fill:#F6F6F6;}
	.st21{fill:#EEEEEE;}
	.st22{fill:#E7E7E7;}
	.st23{fill:#DBDBDB;}
	.st24{fill:#FDFEFD;}
	.st25{fill:#4DAE4D;}
	.st26{fill:#3198CB;}
	.st27{font-family:'TimesNewRomanPSMT';}
	.st28{font-size:100.458px;}
	.st29{fill:#454444;}
	.st30{fill:#6F6F6E;}
	.st31{fill:#F4A46A;}
	.st32{fill:#848383;}
	.st33{fill:#B64B2A;}
	.st34{fill:#79CAE8;}
	.st35{fill:#F29222;}
	.st36{fill:#2A2624;}
	.st37{fill:#FADCA1;}
	.st38{fill:#BB8C51;}
	.st39{fill:#9F9F9F;}
	.st40{fill:#A62938;}
	.st41{fill:#1F76BB;}
	.st42{fill:#B4B8C3;}
	.st43{fill:#7F8185;}
	.st44{fill:#202020;}
	.st45{fill:#414141;}
	.st46{fill:#3C94D0;}
	.st47{fill:#4D4C4C;}
	.st48{fill:#996798;}
	.st49{fill:#346699;}
	.st50{fill:none;}
	.st51{font-size:73px;}
	.st52{display:none;}
</style>
<g id="editable">
	<g>
		<path class="st0" d="M2434.8,2195.1c156-25.8,311.1-27.6,463.4,21.9c95.5,31.1,121.6,114.8,70.2,201.1
			c-47.1,79-123.7,117.2-200.4,153.8c-140.8,67.1-291.3,105.9-444.9,128.9c-92.1,13.8-185.2,21.9-278.4,28.7
			c-114.1,8.4-227.9,8.2-341.4,4.6c-166.6-5.3-333.1-15.5-499.5-28.8c-106.3-8.5-212.9-16.6-318.8-27.8
			c-123-12.9-245.6-30.2-367.5-52.9c-123.6-23-246.4-47.4-362.6-97.5c-38.6-16.6-74-36.9-102.7-68c-31.1-33.7-29.9-53.9,7-81.6
			c77.3-58.1,165.8-92.4,258.3-115.9c119-30.2,240-48.8,362.6-59.3c41.4-3.5,82.5-5.6,123.9-7.1c16.3-0.6,32.7-3.2,36.5-23.9
			c14.4-3.1,18.1,9.1,23.3,17.5c22.2,35.1,49.4,66.4,72.6,100.8c8.7,13.5,16.7,27.3,16.9,44c-6.5,39.2-28.5,62.3-69.1,65.9
			c-20.5,1.8-39.1,9.1-56,20.6c-8.1,5.5-14.5,12.6-10.8,23.5c3.5,10.3,12.6,15,22.1,14c56.1-5.9,110.6-19.9,164.6-35.3
			c14.1-4,10-16.8,5.1-27c-8.7-18.1-17.9-36-25.9-54.4c-11.6-17.8-19.5-37.5-29.7-56.1c-12.8-33-44.2-60.6-29.9-101.6
			c18.2-9,37.4-6.9,56.5-4.6c29.1,7.6,38.2,34.7,53.4,55.6c13.2,18.1,25.5,37,37.8,55.8c5.2,8.9,9,18.3,11.9,28.1
			c20.8,75.4,10.2,103.1,116,103.5c27.5,0.1,55.7,5.2,83.6,6.8c10.6,0.6,22.8,1.9,25.9-12.2c2.6-11.8-4.2-20.4-13.2-27.1
			c-9.9-7.4-21.4-10.7-33.5-12.2c-14.6-1.8-29.8-3.6-43.9-0.8c-48,9.4-79.9-10.2-101.1-51.9c-11.6-14.5-19.3-31.1-27.2-47.7
			c-12.9-22.1-23.4-45.4-32.3-69.2c-4.5-12.1-10.8-26.6,9.5-32.3c207.6-5,414.3,8.4,620.6,30.3c62.4,6.6,126-2.9,187.6,13.5
			c18.8,5.8,14.5,17.6,9.5,31.6c-12,33.4-3.5,46.4,32.3,46.4c49.5-0.1,89.7-23.1,124.9-56.2c11.4-10.7,19.6-26.4,38.9-24.8
			c84.2-5.2,168.5-8.1,252.4-17.7c13.3-1.5,26.5-5,39.8-0.4c16.4,9.4,9.8,23.5,5.5,35.2c-16.6,45-31.5,90.8-55.1,132.9
			c-18,20.8-26.9,45.9-34.9,77.7c29.2-9.6,43.3,11.2,60.9,26c37.9,31.9,79.9,48.7,129.7,31.6c8.5-2.9,19.9-6.4,20.1-17.2
			c0.3-11.4-11.8-13.3-20-16.6c-34.9-14-68.9-29.7-100.1-50.8c-16.6-11.2-33.6-22.6-38.2-44.4c15.3-62.2,50.2-115.2,80.2-170.6
			C2423.7,2196.3,2429.1,2194.6,2434.8,2195.1z"/>
		<path class="st1" d="M485.7,929.8c31.8-50.1,75.5-88.8,122.2-124.1c13.1-9.9,26.2-23.9,45.9-20.8c1.3,0.1,2.8-0.1,3.9,0.4
			c49.1,26.2,49,26.2,85.1-16.3c73.4-0.8,74-1,97,67c10.1,29.8,28,55.3,47.7,77.7c18.1,20.6,13.3,34,0.5,51.1
			c-12.5,17.7-24.8,35.7-48.5,39.7c-23.3-9-19.7,7.9-20,20.9c-1.2,45.6,7,90.5,12.3,135.5c10.9,92.9,27.6,184.9,46.4,276.5
			c4.7,22.8,13.3,47.4-7.6,67.9c-91,4.6-182.2-3.8-273.1,5.1c-15.1-20-9.2-44.9-9.7-65.8c-1.8-86.2-22.4-171.5-7.5-258.8
			c7.3-43,2-88.1,2.3-132.2c0-4,0.6-8.1-0.1-12c-4.5-25.8,18.3-58.1,5.4-73.3c-20.2-23.8-35.4,29.5-62.5,17.9
			C505.6,971.9,498.6,948.8,485.7,929.8z"/>
		<path class="st2" d="M597.3,1510.4c0.8-11,6.1-16.5,17.7-16.4c79.9,0.3,159.8,0.1,239.7,0.8c5.8,0,11.6,5.6,17.4,8.5
			c16,17.2,14.3,40,17.8,60.6c33,194.1,85.1,382.7,158,565.6c6.3,15.8,16.8,31.2,10.4,49.9c8.7,35.2,28.7,65.7,42.2,98.9
			c-1.2,28.6-18.1,22.4-35.1,15.9c-31.3-31.9-48.8-73.5-76.8-107.8c-32.1-23.1-44.6-60-60.7-92.9c-68.6-140-125.1-284.9-163.5-436.4
			c-4.6-18.1-3.5-37.5-12.1-54.7c-1.6-15.6-4.5-31-8-46.3c-1.2-5.8,0.6-12-2.4-17.6c2.1,11.2,2,22.7,5.6,33.7
			c3.4,15.4,2.8,31.6,9.6,46.3c28.9,158.8,80.8,310.8,134.1,462.5c12.2,34.8,35,66.8,31.3,106.4c12.7,31.6,25.4,63.3,38.2,94.9
			c-6.4,12.6-15.9,17.2-29.4,11.3c-36.9-35.8-60.6-81.5-90.9-122.3C726.3,1963.1,655,1739.2,597.3,1510.4z"/>
		<path class="st3" d="M2250.9,955.3c-56.1-49.3-74.1-115.3-71.5-185.3c2.5-69.4-8.2-128.6-47.5-190.3
			c-69.1-108.7-34.8-206,81.3-261.9c49-23.6,97.6-50.6,155.4-50.9c57.5-0.3,100.7,22.4,132.5,69.6c29.9,44.4,43.8,94.7,53.6,146.3
			c6.8,35.9-26.8,33.7-45.3,45.5c-49.3,31.5-92.4,4.6-135.5-15.5c-25.4-11.8-43-34.9-69.8-56.1c-3.4,63.1-25.4,114.1-52.8,163
			c-8.5,15.1-7.3,27.7,5.2,39.6c17.5,16.7,30.3,37.4,46.6,55.2c7.6,9.1,13.8,19.2,20.6,28.8c26.3,40,42.3,83.9,49.5,131.1
			c-3.7,44-12.1,85.8-55,110.3C2289.6,988.9,2267.5,978.4,2250.9,955.3z"/>
		<path class="st1" d="M2612.6,1222.2c-7.4-8.9-14.9-8-24-1.7c-54,37.5-111.4,55.5-176.4,29.9c-6.3-2.5-7.9,4.7-9.3,9.7
			c-19.2-2-15.2-18.7-18.7-30.2c-22.7-76-38.2-154.3-74-226c-2.5-8.9-1.9-17.3,4.4-24.6c37.3-25.6,43.8-65.4,49.1-105.8
			c22.1-6.5,47.9-4.8,62.2-28.5c24.7,0.6,37.1-13.2,46.1-34.9c7.9-19,4.9-42.1,21.7-57.6c5.5,0.2,11,0.5,16.5,0.7
			c32.2,35.4,31.7,82.9,46.3,124.9c3,8.5-0.3,18.9,7.7,26c-9.7,38,6.2,73.5,11.7,109.7C2586.5,1083.6,2600.2,1152.8,2612.6,1222.2z"
			/>
		<path class="st4" d="M742.8,769c-2.7,24.5-14.2,43.2-39.4,47.7c-24.8,4.5-38-13.5-49.6-31.9c11.7-41.8,1.2-67.3-41.5-90
			c-69.5-36.9-89-105.8-86.5-181.2c0.6-17.3,2.1-34.7,3.2-52c13.2-12.4,29.8-10.4,45.5-10.1c75.3,1.5,149.3-4.1,219.4-34.8
			c17.4-7.6,31.7-3.1,30.8,16.2c-2.2,48.7,17,93.8,21,141.2c-1.3,62.4-40.6,100.7-89.8,126.6C716.7,721.3,715.8,740.2,742.8,769z"/>
		<path class="st5" d="M845.7,574.2c-27.4-47.3-37.8-98-28.1-156.4c-94.4,46.7-190.9,49.4-288.6,43.9c-40.4-13.6-80.9-27-105.8-70.6
			c30.6-4.1,60.1,2.5,88.2-7.6c32.9-11.7,57.7-31.9,78.7-59.5c29.8-39.2,64.7-70.8,118.8-73.4c69.5-3.3,108,19.6,134.1,84.4
			c2,5,2.2,11.7,5.7,14.9c71.1,63.5,34.7,131.2,8.2,198.5C853.5,557.1,849.4,565.6,845.7,574.2z"/>
		<path class="st6" d="M2483.2,1736.3c39.1-13.3,77.6-27.8,113.6-48.4c-11.7,120.6-52.4,233.1-95.9,344.8
			c-21.2,54.5-44.1,108.3-66.2,162.5c-33.2,57.7-62.6,117.2-88.7,178.4c-12.7,3.3-23.7,1.6-30.9-10.8
			c21.1-53.1,42.2-106.2,63.3-159.3c-8.7-14.8-1.6-28.6,3-42.4c40.8-122.5,76.8-246,85.2-375.9
			C2467.7,1767.6,2471.3,1750.4,2483.2,1736.3z"/>
		<path class="st6" d="M2427.7,848c-8.6,40.3-34.4,37.6-63.9,25.5c-8.2-45.4-24.4-87.8-48.6-127.1c3.9-14.5-4.8-20.8-16.4-25.1
			c-21.1-22.4-42-44.9-63.3-67c-7.6-7.9-9.4-14.8-2.8-24.6c38.1-56.4,61.6-117.9,60.9-198.7c63.9,66.6,126.3,115.5,215.7,97.3
			c4,54.8-21.1,99.3-49.8,142.6c-3.6,15.8-16.1,23.1-28.5,31.1c-46.4,29.7-52.2,57.3-23.6,105.2C2415,820.2,2431.4,829.2,2427.7,848
			z"/>
		<path class="st6" d="M2564.2,904.1c-9.9,0.4-13-5.4-15.4-14.2c-12.5-45.7-25.7-91.1-38.6-136.6c65.3-52.3,86.7-127.8,101-204.1
			c16.9-89.8,15.6-180.9,3.3-271.8c-3-22.4-12.8-40.9-23.4-59.2c-14.8-25.5-10-42.8,16.8-54.5c18.7-7.9,30.9,5,32.1,18.3
			c2.2,25.6,14.5,50.6,6.3,76.9c50.6,215.1,23.3,421.1-72,619.2C2570.4,886.5,2567.6,895.4,2564.2,904.1z"/>
		<path class="st7" d="M485.7,929.8c24.6,10.8,32.2,33.4,39.5,56.3c-7.2,6-14.1,12.3-21.6,17.8c-51.6,38.1-94,29.6-127-25.7
			c-32-53.6-51.8-112.8-57.6-173.8c-5.5-57.8-25.6-105-66.7-143.7c-31.9-30-37.4-64.3-24.9-104.8c3.5-11.4,12.2-12.8,18.9-18.5
			c57-4.6,70.6,10.9,57,64.6c-3,12-14.5,28.1,3.5,34.4c16.7,5.9,30.1-3.6,35.2-22.8c5.4-20.6,16.8-33.3,40.5-22.9
			c28.6,6.7,26.4,27.7,19.1,47.3c-5.5,14.7-13.8,31.3-25.9,40c-36.8,26.4-32.6,58.8-21.7,95.4c12.6,42.2,20,86.1,34.2,127.7
			C407.1,956.4,436.4,963.7,485.7,929.8z"/>
		<path class="st6" d="M2314.7,979.3c0.4,7.8,0.8,15.6,1.2,23.4c2.5,4.7,5.8,9.6,5.6,14.9c-4.7,101.6-51.8,221.6-159.9,263.5
			c-50.2,19.4-100.7,35.1-149.4,60c-37.9,19.4-88.1,27.2-124.7-15.9c-16.8-22.4,7.8-23.3,16.8-32.3c27-12.6,67.4-14.1,46.3-63.6
			c-5.9-13.9,6.2-18.2,18.9-12.5c10.9,5,21.4,11.1,32.2,16.3c80.8,38.4,166.2,10.2,212.1-67.9c38.7-65.8,39.3-137.4,37-210
			C2271.7,964.5,2291.1,977.5,2314.7,979.3z"/>
		<path class="st8" d="M847.3,1002.5c2.9-24,26.1-26.2,40.6-37.7c10.5,10.3,19.9,22.1,31.7,30.5c27.9,19.9,55.4,15.8,71.2-14.5
			c33.1-63.2,53.9-130.7,59-202.5c1.1-15.8-4.7-28.9-13.3-41c-14.1-19.8-15.4-39.5-1-59.4c6.7-9.2,6.8-28.4,20.9-25.9
			c19.3,3.4,1.2,23.3,10.5,35.3c26.8-11.3,48.6-30.5,71.3-48.6c13.3,6,26.7,12,40,18l-0.1-0.5c6.4,32.8-31.2,33.8-40.2,55.5
			c-0.2,1.3,0.1,3.2-0.7,3.9c-46.7,43.1-44.4,102.1-52.8,158.1c-8.5,57.3-22.1,113.3-57.3,161.3c-37.6,51.1-64,58.1-119,26.4
			C883.6,1047.3,853,1037.2,847.3,1002.5z"/>
		<path class="st9" d="M382.5,590.8c-17.7,6.5-37.7,5.4-31.2,38.6c2.8,14.5-33.8,25.4-52.7,22.5c-13.1-2-17.9-24.7-12.3-41.7
			c1.1-3.5,5.9-5.7,7.6-9.2c17.7-35.4,12.4-47.1-24.8-56.2c-7.7-1.9-15.1-4.9-22.6-7.4c-13.5-36-27.1-71.9-41.1-109.1
			c-3.9-10.3,2.5-21.7,13.4-23.7c33.2-6.1,64.8-11.7,96.1-18.8c16.5-3.7,23.7-1.9,27.4,16.6C354.5,465.4,368.9,528,382.5,590.8z"/>
		<path class="st10" d="M2646.4,259c-3-23.8-21.1-44.1-11.6-71.7c3.9-11.3-12.8-21-26.8-23.5c-6.1-28.7-12.6-57.4-18-86.2
			c-1.8-9.5-7.1-23.1,10-24.7c27.9-2.5,56-4.6,84-5.1c14.4-0.3,10.6,13,10.8,21.3c1.8,53.5,3.4,106.9,4.3,160.4
			C2700,271.2,2663.8,248.6,2646.4,259z"/>
		<path class="st3" d="M2427.7,848c-7-7.8-14.4-15.4-21.1-23.5c-42.5-51.6-35.4-97.3,20.1-131.4c11.2-6.9,21.8-14.8,32.7-22.2
			c20.2,23.5,30.1,51.4,34.4,81.7c-1.3,29.5-10.2,56.6-22.7,83.4C2460.3,859.2,2446.7,860.5,2427.7,848z"/>
		<path class="st9" d="M2315.1,2362.7c11.8-0.6,22.2,2.6,30.9,10.8c39.8,46.4,96,65.6,149.2,89.8c10.1,4.6,27.7,4.7,26.8,19.2
			c-0.7,12.2-16.1,16.4-26.6,21.9c-51.7,26.5-108.7,15.7-160.1-35c-20.4-20.1-35.7-32.8-61.2-4.5
			C2286.1,2428,2284.5,2389.1,2315.1,2362.7z"/>
		<path class="st9" d="M1120.2,2314.2c11.7,3.8,14.3,15.4,19.6,24.2c14,22.8,30.8,32.7,59.7,27.6c31.2-5.4,64.2-7.2,94.8,7
			c21.1,9.8,36.9,26,31.1,50.1c-6.1,25.4-28.6,17.7-46.9,16c-41.3-3.8-82.6-9.2-123.9-10.5c-37.2-1.2-59.8-15.3-66.5-53.5
			c-3.4-19.5-13.6-37.7-13-58.2C1089.3,2302.6,1104.6,2307.1,1120.2,2314.2z"/>
		<path class="st9" d="M990.3,2331.3c15.3,30.9,30.6,61.7,47.4,95.6c-66.4,14.8-128.7,29-191.1,42.6c-20.4,4.4-39.3-1.1-46.4-21.4
			c-7.2-20.5,10.1-31.6,25-40.6c16-9.6,33-20.4,52-19c42,3,60.8-19.7,69.1-56.5C960.7,2319,975.5,2325.9,990.3,2331.3z"/>
		<path class="st11" d="M2083.5,2204.2c-3.3,5.2-6.7,10.4-10,15.6c-34.5,37.8-69.8,74.5-123.8,83.2c-4,0.6-7.8,2.3-11.8,2.5
			c-26.8,1.3-58.4,5.1-73.6-19.3c-14.5-23.3,15.6-38.7,25.5-57.9c21.5-18.9,43.2-29,75-23.5c33.9,5.9,68.6-4.7,100.9-18.2
			C2083.3,2180.8,2086.9,2188.9,2083.5,2204.2z"/>
		<path class="st12" d="M990.3,2331.3c-14.7,0.2-29.4,0.5-44,0.7c-5-12.9-9.9-25.7-14.9-38.6c9.8-3.7,19.6-7.5,29.4-11.2
			C970.6,2298.6,980.4,2315,990.3,2331.3z"/>
		<path class="st13" d="M1120.2,2314.2c-15.1,0.9-30.1,1.9-45.2,2.8c-3.2-7.6-6.4-15.3-9.6-22.9c12.2-4.3,29.3,2.3,35.1-15.9
			C1107.1,2290.2,1113.6,2302.2,1120.2,2314.2z"/>
		<path class="st14" d="M1541.5,1631c-21.4,0-42.9,1-64.2-0.3c-18.9-1.2-32.8-8.7-32.7-31.9c0.1-23.3,14.4-31,33.1-31.4
			c42.8-1.1,85.6-1,128.3,0c18.9,0.4,36,10,36.9,29.9c1,22.6-17,32.2-37.3,33.5C1584.3,1632.1,1562.9,1631,1541.5,1631z"/>
		<path class="st2" d="M758.6,1599.5c-2.6,5.8-5.2,11.7-7.8,17.6c-11-15.3-5.5-33.4-8.5-50c-2.5-7.9-5.9-16.2,8.3-14.6
			C753.2,1568.1,755.9,1583.8,758.6,1599.5z"/>
		<path class="st2" d="M750.5,1552.4c-2.8,4.9-5.5,9.7-8.3,14.6c-10-13-7.4-27.1-4.3-42.2C749.3,1531.5,751.4,1541.3,750.5,1552.4z"
			/>
		<path class="st6" d="M2083.5,2204.2c-1.1-10.8-8.5-15.2-17.8-17.7c167.6-100,252.1-251.8,275.3-441.8c0.6-5.2,3.2-10.2,4.8-15.3
			c35.2,8.1,71.1,6.5,106.8,8.7c-42.4,128.2-98.9,249.3-190.5,350.1C2213.5,2141.8,2158.2,2188.9,2083.5,2204.2z"/>
		<path class="st6" d="M2298.7,721.3c9.7,0.8,22.2-5.1,28.2,4.7c5.9,9.7-4.5,15.3-11.8,20.4C2309.7,738.1,2304.2,729.7,2298.7,721.3
			z"/>
		<path class="st2" d="M2612.6,1222.2c14.9,112.2,29.4,224.3,37.9,337.4c4.3,56.9-3.8,98.8-53.7,128.2
			c-28.7,38.3-74.1,42.9-114.8,57c-10.8,1.9-21.7,2.1-32.6,2.1c-33.5,0.2-67.1,2.9-99.9-7c-29.6-8.5-59.5-16.8-86.7-31.5
			c-36.2-19.5-40.8-39.5-12.7-69.8c36.7-39.6,68.1-82.5,96-128.6c47.1-77.6,65-160.7,51.2-250.5c2-19.7,15-19,29.3-15.5
			c52.3,13,100.5,3.6,146.1-24.8C2584.8,1211.8,2600.9,1198.7,2612.6,1222.2z"/>
	</g>
	<path class="st15" d="M1803.4,1692.8l-503.5-6.8c-37-0.5-67.8-28.6-71.7-65.3c-14-418.4-62.5-853.7-138.9-1302.7
		c-3.2-29.8,20.2-55.7,50.1-55.7h825.1c29.9,0,53.2,25.9,50.1,55.6c-63.1,441.7-110.5,878.7-137.5,1309.5
		C1873.1,1664.9,1841.2,1693.3,1803.4,1692.8z"/>
	<g>
		<path class="st5" d="M279.1,531.5l-2.5-8.7c-13.5-7.5-21.5-22.2-20.9-37.5C252.4,504.5,261.6,523.3,279.1,531.5z"/>
		<path class="st5" d="M332.7,516.1l-2.5-8.7c7.5-13.5,7-30.4-2.2-42.9C341,479,343.2,499.9,332.7,516.1z"/>
		<path id="M" class="st5" d="M273.5,496.5l7.6-2.2l20.9,18l9.4-26.7l7.6-2.2l10.5,36.7c-2.8,3.3-5.2,5.9-9,8.3l-6-21l-5.1,17.2
			l-5.8,1.7L290,514.5l6,21c-3.8-0.2-7.8-0.9-12-2.2L273.5,496.5z"/>
		<path class="st5" d="M331.7,484.2c-5.3-18.6-24.8-29.5-43.5-24.1s-30.2,24.4-24.9,43.1c1.5,5.2,4,9.6,7.1,13.7
			c-1.4-2.7-3-6.1-3.8-9c-5-17.5,5.4-36.2,22.9-41.2c17.5-5,36.2,5.4,41.2,22.9c1,3.5,1.3,6.6,1.5,9.7
			C333.2,493.9,333.1,488.9,331.7,484.2z"/>
		<path class="st3" d="M276.1,529.8l-2.5-8.7c-14.1-7.3-22.1-22-20.9-37.5C248.6,502.4,258.6,521.6,276.1,529.8z"/>
		<path class="st3" d="M329.1,514.6l-2.5-8.7c8.1-13.7,7-30.4-2.2-42.9C338,477.4,339.6,498.4,329.1,514.6z"/>
		<path id="M-2" class="st16" d="M270.5,494.9l8.2-2.3l20.9,18l8.2-26.3l7.6-2.2l10.5,36.7c-2.8,3.3-5.2,5.9-9,8.3l-6-21l-5.1,17.2
			l-5.8,1.7L287,512.8l6,21c-3.8-0.2-8.4-0.7-12-2.2L270.5,494.9z"/>
		<path class="st17" d="M328,482.1c-5.9-18.5-25.8-28.5-44.9-22.4c-17.3,5.6-27.7,24.3-23.3,42c1.5,5.2,4,9.6,7.1,13.7
			c-1.4-2.7-3-6.1-3.8-9c-4.4-17.7,6-36.4,23.6-40.8s36.4,6,40.8,23.6c0.8,2.9,0.9,5.4,1.2,8.5C329.7,492.4,329.3,486.8,328,482.1z"
			/>
	</g>
	<path class="st14" d="M1547.5,1633c-21.4,0-42.9,1-64.2-0.3c-18.9-1.2-32.8-8.7-32.7-31.9c0.1-23.3,14.4-31,33.1-31.4
		c42.8-1.1,85.6-1,128.3,0c18.9,0.4,36,10,36.9,29.9c1,22.6-17,32.2-37.3,33.5C1590.3,1634.1,1568.8,1633,1547.5,1633z"/>
	<g>
		<path class="st5" d="M2628.6,161.4l-0.7-7.9c-10.3-8.7-14.7-22.7-11.5-35.8C2610.3,133.6,2615,151.3,2628.6,161.4z"/>
		<path class="st5" d="M2677.3,157.3l-0.7-7.9c8.7-10.3,11.2-24.9,5.4-37.2C2690.7,126.9,2689.1,145.1,2677.3,157.3z"/>
		<path id="M_1_" class="st5" d="M2629.7,130.4l6.9-0.6l14.9,19l12.6-21.3l6.9-0.6l2.8,33.3c-3,2.4-5.5,4.2-9.1,5.6l-1.6-19
			l-7.4,13.9l-5.3,0.4l-9.6-12.5l1.6,19c-3.3-0.8-6.6-2.1-9.9-4L2629.7,130.4z"/>
		<path class="st5" d="M2681.9,129.7c-1.4-16.9-16.3-29.5-33.3-28.1c-16.9,1.4-30.1,15.8-28.7,32.8c0.4,4.8,1.8,8.9,3.8,13
			c-0.8-2.6-1.5-5.7-1.8-8.4c-1.3-15.9,10.8-30.2,26.7-31.5c15.9-1.3,30.2,10.8,31.5,26.7c0.3,3.2,0,5.9-0.3,8.6
			C2681.6,138.3,2682.3,134,2681.9,129.7z"/>
		<path class="st3" d="M2626.3,159.4l-0.7-7.9c-10.9-8.7-15.2-22.7-11.5-35.8C2607.4,131.2,2612.7,149.4,2626.3,159.4z"/>
		<path class="st3" d="M2674.5,155.4l-0.7-7.9c9.3-10.4,11.2-24.9,5.4-37.2C2688.4,124.9,2686.2,143.2,2674.5,155.4z"/>
		<path id="M-2_1_" class="st16" d="M2627.4,128.4l7.4-0.6l14.9,19l11.5-21.2l6.9-0.6l2.8,33.3c-3,2.4-5.5,4.2-9.1,5.6l-1.6-19
			l-7.4,13.9l-5.3,0.4l-9-12.6l1.6,19c-3.3-0.8-7.1-2.1-9.9-4L2627.4,128.4z"/>
		<path class="st17" d="M2679,127.3c-1.9-16.9-17.3-28.9-34.8-26.9c-15.8,1.9-27.9,16.2-27.1,32.1c0.4,4.8,1.8,8.9,3.8,13
			c-0.8-2.6-1.5-5.7-1.8-8.4c-0.8-15.9,11.3-30.3,27.2-31.1c15.9-0.8,30.3,11.3,31.1,27.2c0.2,2.6-0.1,4.8-0.4,7.5
			C2678.7,136.4,2679.4,131.5,2679,127.3z"/>
	</g>
	<path class="st18" d="M1773.2,1524.8l-447.3-5.6c-32.9-0.4-60.2-23.6-63.7-54c-12.4-345.9-55.5-705.8-123.4-1077
		c-2.8-24.6,17.9-46.1,44.5-46.1h733c26.6,0,47.3,21.4,44.5,46c-56.1,365.2-98.1,726.4-122.1,1082.6
		C1835.2,1501.8,1806.8,1525.2,1773.2,1524.8z"/>
	<g>
		<path class="st16" d="M1882.5,378.2c11.7,0.2,22.1,4,30.6,12.1c1.8,1.7,3.8,3.5,1,6.3c-2.5,2.5-4,1-5.9-0.7
			c-15-13.4-37.8-13.5-51.1-0.1c-1.7,1.7-4,3.7-6.4,0.9c-2.2-2.6-1.1-5,1.2-6.9C1860.9,382.5,1870.7,377.7,1882.5,378.2z"/>
		<path class="st16" d="M1885,394.3c4.3,0.2,10.3,2.2,15.6,6.1c2.6,1.9,4.6,4.4,2,7.5c-2.5,3.1-4.8,0.6-6.7-1.1
			c-7.3-6.2-17.5-6.7-25.6-1c-1,0.7-1.9,1.7-2.9,2.3c-1.6,1-3.3,1.9-5,0c-1.7-1.9-1.3-3.6,0.3-5.4
			C1866.9,397.7,1874.8,394.3,1885,394.3z"/>
		<path class="st16" d="M1882.7,414.1c4.4,0.1,6.7,2.5,6.7,6.7c0,4.1-3.2,7.4-7,7.4c-3.1,0-7.3-4.6-7.1-7.7
			C1875.5,417,1879,414,1882.7,414.1z"/>
	</g>
	
		<image style="overflow:visible;" width="490" height="152" xlink:href="7F14F2AF.png"  transform="matrix(1 0 0 1 1301.7527 1273.7273)">
	</image>
	<g>
		<path class="st19" d="M1365.1,632.6c0,22.4,0,44.8,0,67.2c0,0.7-0.1,0.9-0.9,0.9c-44.7,0-89.3,0-134,0c-0.7,0-0.9-0.1-0.9-0.9
			c0-44.8,0-89.6,0-134.4c0-0.7,0.1-0.9,0.9-0.9c44.7,0,89.3,0,134,0c0.7,0,0.9,0.1,0.9,0.9C1365.1,587.8,1365.1,610.2,1365.1,632.6
			z M1297.4,570.9c-2.5,0.1-5.4,0.3-8.2,0.6c-3.8,0.5-7.6,1.4-11.2,2.7c-3.4,1.2-6.8,2.6-10,4.5c-1.9,1.2-3.9,2.3-5.7,3.6
			c-4.4,3.2-8.3,6.8-11.7,11c-3.5,4.4-6.5,9-8.7,14.2c-1.5,3.5-2.8,7-3.6,10.7c-1,4.6-1.6,9.2-1.6,14c0,3.3,0.3,6.5,0.8,9.7
			c0.9,5.7,2.6,11.1,5,16.4c0.9,1.9,1,3.8,0.6,5.7c-1.4,5.6-3,11.2-4.5,16.8c-0.6,2.3-1.4,4.6-1.3,7c0.1,3.2,3.1,5.8,6.2,5.4
			c2.3-0.3,4.5-0.9,6.8-1.4c4.9-1.3,9.8-2.6,14.8-3.9c2.5-0.7,5-1.2,7.5-0.1c1.9,0.9,3.9,1.5,5.9,2.2c6.5,2.3,13.1,3.2,19.9,3.2
			c2.4,0,4.8-0.3,7.2-0.6c3.3-0.4,6.4-1.1,9.5-2c4.4-1.3,8.6-3,12.6-5.4c4-2.4,7.8-4.9,11.1-8.1c1.8-1.7,3.5-3.5,5.2-5.3
			c1.8-2,3.3-4.2,4.8-6.4c1.7-2.6,3.2-5.3,4.4-8.1c1.3-2.9,2.4-5.8,3.2-8.8c0.8-2.9,1.4-5.9,1.8-9c0.3-2.7,0.6-5.3,0.5-8
			c-0.1-2.4-0.1-4.8-0.5-7.2c-0.6-3.7-1.3-7.5-2.5-11.1c-1.3-4-3.1-7.7-5.1-11.4c-1.5-2.7-3.2-5.1-5.1-7.5c-2.2-2.8-4.6-5.4-7.3-7.7
			c-1.5-1.3-2.9-2.7-4.5-3.8c-4-2.7-8.1-5.2-12.7-7.1C1313.5,572.5,1305.8,571,1297.4,570.9z"/>
		<path class="st20" d="M1297.4,570.9c8.4,0.1,16.2,1.6,23.7,4.7c4.5,1.9,8.6,4.4,12.7,7.1c1.6,1.1,3.1,2.5,4.5,3.8
			c2.7,2.4,5.1,4.9,7.3,7.7c1.8,2.4,3.6,4.8,5.1,7.5c2,3.7,3.8,7.4,5.1,11.4c1.2,3.6,1.9,7.3,2.5,11.1c0.4,2.4,0.5,4.8,0.5,7.2
			c0.1,2.6-0.2,5.3-0.5,8c-0.3,3-0.9,6-1.8,9c-0.8,3-1.9,5.9-3.2,8.8c-1.3,2.8-2.8,5.5-4.4,8.1c-1.5,2.2-3,4.4-4.8,6.4
			c-1.6,1.8-3.4,3.6-5.2,5.3c-3.3,3.2-7.2,5.8-11.1,8.1c-4,2.4-8.2,4-12.6,5.4c-3.1,1-6.3,1.7-9.5,2c-2.4,0.3-4.8,0.6-7.2,0.6
			c-6.8,0-13.5-0.9-19.9-3.2c-2-0.7-4-1.3-5.9-2.2c-2.5-1.2-5-0.6-7.5,0.1c-4.9,1.3-9.8,2.6-14.8,3.9c-2.2,0.6-4.5,1.1-6.8,1.4
			c-3.1,0.4-6-2.2-6.2-5.4c-0.1-2.4,0.6-4.7,1.3-7c1.5-5.6,3.1-11.2,4.5-16.8c0.5-1.9,0.3-3.8-0.6-5.7c-2.4-5.2-4.1-10.7-5-16.4
			c-0.5-3.2-0.8-6.5-0.8-9.7c0-4.7,0.6-9.4,1.6-14c0.8-3.7,2.1-7.2,3.6-10.7c2.2-5.2,5.2-9.8,8.7-14.2c3.4-4.2,7.4-7.8,11.7-11
			c1.8-1.3,3.8-2.4,5.7-3.6c3.2-1.9,6.5-3.3,10-4.5c3.6-1.3,7.4-2.2,11.2-2.7C1292,571.1,1294.8,570.9,1297.4,570.9z M1239.8,689.2
			c0,0.4,0.1,0.7,0.4,0.9c1,0.7,2.1,1.2,3.3,1.2c2.8,0,5.4-1,8.1-1.7c4.9-1.2,9.8-2.6,14.7-3.8c1.3-0.3,2.7-0.6,4.2-0.3
			c2.2,0.4,4.1,1.3,6.2,2.1c6.4,2.5,13.2,3.7,20,3.9c1.6,0.1,3.3,0,5-0.1c2.6-0.2,5.1-0.5,7.6-1c4.3-0.8,8.4-2.2,12.4-3.9
			c6.7-2.9,12.6-7.1,17.8-12.2c3.6-3.6,6.7-7.5,9.3-11.9c1.7-2.8,3.2-5.8,4.4-8.9c1.4-3.7,2.6-7.5,3.2-11.4c0.4-2.7,0.7-5.4,0.9-8.1
			c0.2-2.6-0.1-5.2-0.3-7.8c-0.3-3.8-1.1-7.6-2.1-11.2c-1.1-3.8-2.7-7.5-4.6-11.1c-2.4-4.6-5.5-8.7-9-12.5c-2.8-3.1-5.9-5.7-9.3-8.1
			c-3.6-2.6-7.5-4.7-11.7-6.4c-3.4-1.4-6.8-2.5-10.5-3.2c-3.5-0.7-7-1.2-10.6-1.3c-2.7,0-5.4,0.1-8.1,0.4c-2.9,0.3-5.8,0.9-8.7,1.6
			c-3.2,0.8-6.2,1.9-9.2,3.3c-3.2,1.4-6.3,3.2-9.2,5.2c-4.3,2.9-8.1,6.5-11.6,10.4c-2.7,3-4.9,6.3-6.9,9.8
			c-2.4,4.3-4.3,8.9-5.6,13.7c-1,3.7-1.7,7.5-1.9,11.4c-0.2,3.5-0.1,7,0.3,10.5c0.5,4.2,1.4,8.3,2.7,12.3c0.9,2.6,2,5.1,3,7.7
			c0.6,1.6,0.6,3.3,0.3,5c-0.3,2-1,3.8-1.4,5.7c-1.3,5.6-3.4,11-4.2,16.7c-0.1,1-0.2,2.2,0.9,3
			C1239.8,689.1,1239.8,689.2,1239.8,689.2z"/>
		<path class="st19" d="M1239.8,689.2c0-0.1,0-0.1,0-0.2c0-0.8,0.5-1.5,0.4-2.3c0.4-0.5,0.5-1,0.6-1.6c2.3-8.3,4.5-16.5,6.8-24.8
			c0.1-0.3,0.2-0.6,0-1c-2.3-3.9-4-8-5.2-12.3c-1.1-3.7-1.9-7.4-2.1-11.2c-0.2-4.5-0.2-9.1,0.5-13.6c0.9-5.1,2.3-10,4.5-14.6
			c2.3-4.9,5.1-9.4,8.7-13.4c2.7-3.1,5.7-6,9.1-8.5c3.6-2.7,7.4-4.8,11.5-6.6c6.2-2.7,12.8-4.2,19.6-4.6c4.6-0.3,9.2,0.1,13.7,1
			c11.1,2.2,20.8,7.2,28.9,15.1c0.2,0.2,0.4,0.6,0.9,0.6c0.1,0.1,0.2,0.3,0.2,0.4c0.1,0.3,0.3,0.5,0.6,0.6c0.2,0.3,0.4,0.6,0.8,0.6
			l0,0c0,0.3,0.2,0.5,0.4,0.7c1.8,2.1,3.6,4.4,5.1,6.7c3.1,4.8,5.4,9.9,7,15.4c1.2,4,1.9,8.1,2.1,12.2c0.2,4.4,0,8.8-0.8,13.2
			c-1,5.6-2.7,11-5.3,16c-3.1,6-7.1,11.3-12.1,15.9c-3.8,3.5-7.9,6.4-12.4,8.8c-6.8,3.6-14.1,5.7-21.7,6.2
			c-5.1,0.4-10.3,0.2-15.3-0.9c-5.5-1.1-10.7-2.9-15.7-5.5c-0.5-0.3-0.9-0.4-1.5-0.2c-2.2,0.6-4.4,1.2-6.6,1.8
			c-6.5,1.7-13,3.4-19.5,5.1c-0.7,0.1-1.2,0.5-1.9,0.4C1240.6,688.9,1240.2,689.1,1239.8,689.2z M1251.8,645.2c0,0.3,0,0.6,0.2,0.8
			c0.9,3.4,2.3,6.5,4.3,9.4c1.3,2,1.9,3.9,0.9,6.1c-1.2,4.4-2.4,8.9-3.7,13.3c-0.3,1.1,0,0.9,0.8,0.7c5.2-1.4,10.5-2.7,15.7-4.1
			c0.9-0.2,1.6-0.1,2.4,0.3c6.5,4,13.5,6.3,21.1,6.8c4.9,0.4,9.8,0,14.7-1.2c10.4-2.6,19-8,25.7-16.3c1.4-1.6,2.6-3.3,3.7-5.1
			c1.7-2.8,3.2-5.7,4.1-8.9c1.6-3.9,2.2-7.9,2.5-12c0.2-0.3,0.2-0.7,0.2-1.1c0-0.7,0-1.4,0-2.1c0-0.3,0-0.6,0-0.9c0-0.7,0-1.4,0-2.1
			c-0.1-1.9-0.3-3.8-0.6-5.7c-0.1-0.7-0.2-1.4-0.4-2.1c-0.9-3.9-2.1-7.6-4-11.1c-0.6-1-1.1-2.1-1.7-3.1c-2.3-4-5.3-7.4-8.7-10.5
			c-0.5-0.4-0.9-0.9-1.4-1.3c-7.2-6-15.3-9.6-24.6-10.8c-4.3-0.5-8.6-0.5-12.8,0.1c-4.6,0.7-9,2-13.2,4c-4.5,2.2-8.6,4.8-12.2,8.4
			c-5.8,5.2-9.8,11.6-12.4,18.9c-1.5,4.2-2.3,8.5-2.6,12.9c-0.1,2.7-0.1,5.3,0.2,8c0.3,2.7,0.8,5.5,1.7,8.1
			C1251.6,645,1251.6,645.1,1251.8,645.2z"/>
		<path class="st21" d="M1239.8,689.2c0.4-0.1,0.8-0.3,1.3-0.4c0.2,1,1.9,1.9,3.1,1.6c1.8-0.3,3.7-0.6,5.5-1.1
			c5.1-1.3,10.2-2.7,15.4-4.1c2.5-0.7,5-1.1,7.5-0.1c1.4,0.5,2.7,1.2,4.1,1.7c3.6,1.2,7.2,2.4,11.1,3c2.8,0.4,5.6,0.8,8.5,0.9
			c2.6,0.1,5.1-0.1,7.7-0.4c2.2-0.3,4.5-0.5,6.6-1c5.2-1.2,10.1-3,14.8-5.6c4.7-2.5,8.9-5.7,12.8-9.3c2.8-2.6,5.1-5.6,7.2-8.6
			c3.6-5.1,6.3-10.6,8.2-16.5c1.5-4.6,2.3-9.3,2.6-14c0.3-3.7,0-7.4-0.4-11.1c-0.5-3.7-1.3-7.4-2.5-10.9c-1.1-3.3-2.6-6.4-4.3-9.4
			c-2.5-4.6-5.7-8.8-9.3-12.6c-1.7-1.8-3.6-3.4-5.6-5c-4.9-4-10.4-7.1-16.3-9.3c-3.2-1.1-6.4-2-9.7-2.6c-2.8-0.5-5.6-0.7-8.3-0.9
			c-2.7-0.2-5.3,0.1-8,0.4c-4.8,0.4-9.3,1.5-13.8,3.2c-2.6,1-5.2,2.1-7.7,3.4c-4.9,2.5-9.2,5.9-13.1,9.6c-1.7,1.6-3.2,3.5-4.8,5.3
			c-3.4,4-6,8.5-8.1,13.2c-1.7,3.8-3,7.7-3.7,11.7c-0.6,3.5-1.2,7-1.2,10.5c0,1.9,0.1,3.7,0.1,5.6c0.1,2.9,0.7,5.7,1.2,8.4
			c0.8,4,2.1,7.9,3.9,11.7c0.8,1.6,1.4,3.3,1.4,5c0,1.7-0.5,3.4-1,5c-1.7,6-3.5,12-4.8,18.1c-0.1,0.7-0.3,1.4,0.1,2
			c0,0.8-0.4,1.5-0.4,2.3c-1.2-0.7-1-1.9-0.9-3c0.7-5.7,2.9-11.1,4.2-16.7c0.5-1.9,1.1-3.8,1.4-5.7c0.3-1.7,0.3-3.4-0.3-5
			c-1-2.6-2.1-5.1-3-7.7c-1.4-4-2.3-8.1-2.7-12.3c-0.4-3.5-0.5-7-0.3-10.5c0.2-3.8,0.9-7.6,1.9-11.4c1.3-4.8,3.2-9.4,5.6-13.7
			c1.9-3.5,4.2-6.8,6.9-9.8c3.5-3.9,7.2-7.5,11.6-10.4c2.9-2,6-3.7,9.2-5.2c3-1.3,6-2.5,9.2-3.3c2.9-0.7,5.7-1.3,8.7-1.6
			c2.7-0.3,5.4-0.4,8.1-0.4c3.6,0,7.1,0.6,10.6,1.3c3.6,0.7,7.1,1.8,10.5,3.2c4.1,1.7,8,3.8,11.7,6.4c3.4,2.4,6.5,5.1,9.3,8.1
			c3.5,3.8,6.6,7.9,9,12.5c1.9,3.5,3.4,7.2,4.6,11.1c1.1,3.7,1.8,7.4,2.1,11.2c0.2,2.6,0.5,5.2,0.3,7.8c-0.2,2.7-0.5,5.4-0.9,8.1
			c-0.6,3.9-1.8,7.7-3.2,11.4c-1.2,3.1-2.7,6-4.4,8.9c-2.6,4.4-5.7,8.3-9.3,11.9c-5.2,5.1-11.1,9.2-17.8,12.2
			c-4,1.7-8.1,3.1-12.4,3.9c-2.5,0.5-5.1,0.7-7.6,1c-1.7,0.1-3.3,0.2-5,0.1c-6.9-0.2-13.6-1.3-20-3.9c-2-0.8-4-1.7-6.2-2.1
			c-1.5-0.3-2.8,0-4.2,0.3c-4.9,1.2-9.8,2.6-14.7,3.8c-2.7,0.7-5.3,1.6-8.1,1.7c-1.3,0-2.3-0.5-3.3-1.2
			C1239.9,689.9,1239.7,689.6,1239.8,689.2z"/>
		<path class="st22" d="M1240.2,686.7c-0.4-0.7-0.3-1.4-0.1-2c1.4-6.1,3.1-12.1,4.8-18.1c0.5-1.7,0.9-3.3,1-5c0-1.8-0.6-3.4-1.4-5
			c-1.8-3.7-3.1-7.6-3.9-11.7c-0.6-2.8-1.1-5.5-1.2-8.4c-0.1-1.9-0.2-3.7-0.1-5.6c0-3.6,0.6-7,1.2-10.5c0.7-4.1,2-8,3.7-11.7
			c2.1-4.8,4.7-9.2,8.1-13.2c1.5-1.8,3-3.7,4.8-5.3c4-3.7,8.3-7.1,13.1-9.6c2.5-1.3,5-2.4,7.7-3.4c4.5-1.7,9.1-2.7,13.8-3.2
			c2.7-0.2,5.3-0.6,8-0.4c2.8,0.2,5.6,0.4,8.3,0.9c3.3,0.7,6.6,1.5,9.7,2.6c6,2.1,11.4,5.2,16.3,9.3c1.9,1.6,3.9,3.2,5.6,5
			c3.6,3.8,6.8,8,9.3,12.6c1.7,3,3.2,6.1,4.3,9.4c1.2,3.6,2.1,7.2,2.5,10.9c0.5,3.7,0.7,7.4,0.4,11.1c-0.3,4.8-1.1,9.4-2.6,14
			c-1.9,6-4.6,11.5-8.2,16.5c-2.2,3.1-4.5,6-7.2,8.6c-3.9,3.6-8.2,6.8-12.8,9.3c-4.7,2.5-9.6,4.4-14.8,5.6c-2.2,0.5-4.4,0.8-6.6,1
			c-2.6,0.3-5.1,0.4-7.7,0.4c-2.8-0.1-5.6-0.5-8.5-0.9c-3.8-0.6-7.4-1.8-11.1-3c-1.4-0.5-2.7-1.1-4.1-1.7c-2.5-1-5-0.6-7.5,0.1
			c-5.1,1.4-10.2,2.7-15.4,4.1c-1.8,0.5-3.6,0.8-5.5,1.1c-1.3,0.2-2.9-0.7-3.1-1.6c0.7,0.1,1.3-0.3,1.9-0.4c0,0.3,0,0.5,0.4,0.6
			c0.9,0.2,1.9,0.4,2.8,0.1c1.9-0.7,3.8-0.8,5.7-1.3c0.7-0.2,1.2-0.5,1.8-0.7c3.3-0.8,6.7-1.7,10-2.6c3.1-0.8,6.2-1.6,9.3-0.3
			c2.1,0.9,4.3,1.7,6.5,2.4c4.5,1.4,8.9,2.6,13.7,2.6c3.3,0.1,6.6,0.3,9.9-0.1c3.7-0.4,7.4-0.6,10.9-2.1c2.1-0.9,4.6-0.9,6.5-2.5
			c0.1-0.1,0.2-0.1,0.3-0.1c1.4-0.2,2.7-1,3.9-1.6c2.4-1.2,4.6-2.8,6.9-4.2c3.1-2.1,5.5-4.9,8.2-7.5c3-2.8,5.3-6.3,7.5-9.7
			c3.1-4.9,5.2-10.2,6.6-15.8c0.5-2,0.7-4.1,1-6.2c0.4-2.6,0.7-5.2,0.6-7.8c0-2.3-0.3-4.6-0.5-6.9c-0.5-4.3-1.5-8.5-3-12.6
			c-1-2.7-2.1-5.5-3.7-7.9c-2-3.1-3.9-6.2-6.4-9c-0.7-0.8-1.2-2-2.4-2.4c0,0,0,0,0,0c0-0.5-0.1-0.8-0.6-1c-0.2-0.1-0.2,0.2-0.3,0.3
			c-0.3-0.1-0.5-0.3-0.6-0.6c0.1,0,0.4,0,0.3-0.3c-0.1-0.2-0.3-0.1-0.5-0.1c-0.4,0-0.6-0.3-0.9-0.6c-8.1-8-17.7-13-28.9-15.1
			c-4.5-0.9-9.1-1.3-13.7-1c-6.8,0.4-13.3,1.9-19.6,4.6c-4.1,1.8-7.9,4-11.5,6.6c-3.3,2.5-6.3,5.4-9.1,8.5
			c-3.6,4.1-6.4,8.6-8.7,13.4c-2.2,4.7-3.7,9.5-4.5,14.6c-0.8,4.5-0.7,9.1-0.5,13.6c0.2,3.8,1,7.6,2.1,11.2
			c1.3,4.3,2.9,8.4,5.2,12.3c0.2,0.4,0.1,0.7,0,1c-2.3,8.3-4.5,16.5-6.8,24.8C1240.6,685.7,1240.6,686.2,1240.2,686.7z"/>
		<path class="st23" d="M1339.3,592.9c1.2,0.4,1.7,1.5,2.4,2.4c2.4,2.8,4.4,5.9,6.4,9c1.6,2.4,2.7,5.2,3.7,7.9
			c1.5,4.1,2.5,8.3,3,12.6c0.3,2.3,0.5,4.6,0.5,6.9c0,2.6-0.2,5.2-0.6,7.8c-0.3,2.1-0.5,4.2-1,6.2c-1.4,5.6-3.5,10.9-6.6,15.8
			c-2.2,3.5-4.5,6.9-7.5,9.7c-2.7,2.5-5.1,5.4-8.2,7.5c-2.3,1.5-4.5,3-6.9,4.2c-1.2,0.6-2.4,1.4-3.9,1.6c-0.1,0-0.2,0-0.3,0.1
			c-1.9,1.5-4.3,1.6-6.5,2.5c-3.5,1.4-7.2,1.6-10.9,2.1c-3.3,0.4-6.6,0.2-9.9,0.1c-4.7-0.1-9.2-1.2-13.7-2.6
			c-2.2-0.7-4.3-1.6-6.5-2.4c-3.1-1.3-6.2-0.6-9.3,0.3c-3.3,0.9-6.6,1.7-10,2.6c-0.6,0.2-1.2,0.5-1.8,0.7c-1.9,0.5-3.9,0.6-5.7,1.3
			c-0.9,0.3-1.9,0.2-2.8-0.1c-0.4-0.1-0.4-0.3-0.4-0.6c6.5-1.7,13-3.4,19.5-5.1c2.2-0.6,4.4-1.1,6.6-1.8c0.6-0.2,1-0.1,1.5,0.2
			c4.9,2.6,10.2,4.4,15.7,5.5c5.1,1.1,10.2,1.2,15.3,0.9c7.6-0.5,14.9-2.6,21.7-6.2c4.5-2.4,8.7-5.3,12.4-8.8c5-4.6,9-9.9,12.1-15.9
			c2.6-5.1,4.3-10.4,5.3-16c0.8-4.4,1-8.8,0.8-13.2c-0.2-4.1-0.9-8.2-2.1-12.2c-1.6-5.5-3.9-10.6-7-15.4c-1.5-2.3-3.3-4.6-5.1-6.7
			C1339.5,593.4,1339.3,593.2,1339.3,592.9z"/>
		<path class="st23" d="M1338.4,592.3c0-0.2,0-0.4,0.3-0.3c0.5,0.1,0.6,0.5,0.6,1C1338.8,592.9,1338.6,592.6,1338.4,592.3z"/>
		<path class="st23" d="M1337.5,591.2c0.2,0,0.4-0.1,0.5,0.1c0.1,0.2-0.1,0.2-0.3,0.3C1337.7,591.5,1337.6,591.3,1337.5,591.2z"/>
		<path class="st24" d="M1271.3,629.5c-1-2.1-2-4.1-2.6-6.3c-0.6-2.3-1-4.6-0.5-7c0.6-3.7,2.3-6.8,4.9-9.5c1.1-1.1,2.5-1.7,4.1-1.7
			c0.6,0,1.3,0.1,1.9,0.1c1.9-0.2,3,0.9,3.7,2.5c0.4,1,0.9,2,1.4,3.1c0.9,2.2,1.6,4.5,2.7,6.6c1,1.9,0.6,3.4-0.5,5
			c-0.2,0.3-0.5,0.7-0.7,1c-0.8,0.9-1.6,1.7-2.3,2.6c-0.6,0.7-0.7,1.5-0.2,2.3c1.2,2.1,2.6,4.1,4.2,5.9c3.6,4.5,8,7.8,13.2,10.1
			c0.6,0.3,1.2,0.6,1.9,0.9c1.9,0.8,2.5,0.7,3.7-1c1.5-1.4,2.5-3.1,3.8-4.7c0.9-1.2,1.6-1.6,3-1c4.1,1.7,8.1,3.7,12.1,5.8
			c0.6,0.3,0.9,0.8,0.9,1.4c0,0.5,0,1.1,0,1.6c-0.2,1-0.4,2-0.6,3c-0.4,1.9-1.4,3.3-2.9,4.6c-4,3.5-8.7,4.6-13.8,3.4
			c-8.8-2.1-16.9-5.5-23.6-11.8c-0.3-0.3-0.6-0.5-1-0.8c-2.8-2.8-5.5-5.7-7.8-9C1274.5,634.3,1272.9,632,1271.3,629.5z"/>
		<path class="st25" d="M1344.3,634c0-0.7,0-1.4,0-2.1c0-0.3,0-0.6,0-0.9c0-0.7,0-1.4,0-2.1c-0.1-1.9-0.3-3.8-0.6-5.7
			c-0.1-0.7-0.2-1.4-0.4-2.1c-0.9-3.9-2.1-7.6-4-11.1c-0.6-1-1.1-2.1-1.7-3.1c-2.3-4-5.3-7.4-8.7-10.5c-0.5-0.4-0.9-0.9-1.4-1.3
			c-7.2-6-15.3-9.6-24.6-10.8c-4.3-0.5-8.6-0.5-12.8,0.1c-4.6,0.7-9,2-13.2,4c-4.5,2.2-8.6,4.8-12.2,8.4
			c-5.8,5.2-9.8,11.6-12.4,18.9c-1.5,4.2-2.3,8.5-2.6,12.9c-0.1,2.7-0.1,5.3,0.2,8c0.3,2.7,0.8,5.5,1.7,8.1c0,0.2-0.1,0.4,0.2,0.5
			c0,0.3,0,0.6,0.2,0.8c0.9,3.4,2.3,6.5,4.3,9.4c1.3,2,1.9,3.9,0.9,6.1c-1.2,4.4-2.4,8.9-3.7,13.3c-0.3,1.1,0,0.9,0.8,0.7
			c5.2-1.4,10.5-2.7,15.7-4.1c0.9-0.2,1.6-0.1,2.4,0.3c6.5,4,13.5,6.3,21.1,6.8c4.9,0.4,9.8,0,14.7-1.2c10.4-2.6,19-8,25.7-16.3
			c1.4-1.6,2.6-3.3,3.7-5.1c1.7-2.8,3.2-5.7,4.1-8.9c1.6-3.9,2.2-7.9,2.5-12C1344.4,634.7,1344.3,634.3,1344.3,634z M1287.3,634.2
			c3.6,4.5,8,7.8,13.2,10.1c0.6,0.3,1.2,0.6,1.9,0.9c1.9,0.8,2.5,0.7,3.7-1c1.5-1.4,2.5-3.1,3.8-4.7c0.9-1.2,1.6-1.6,3-1
			c4.1,1.7,8.1,3.7,12.1,5.8c0.6,0.3,0.9,0.8,0.9,1.4c0,0.5,0,1.1,0,1.6c-0.2,1-0.4,2-0.6,3c-0.4,1.9-1.4,3.3-2.9,4.6
			c-4,3.5-8.7,4.6-13.8,3.4c-8.8-2.1-16.9-5.5-23.6-11.8c-0.3-0.3-0.6-0.5-1-0.8c-2.8-2.8-5.5-5.7-7.8-9c-1.7-2.3-3.3-4.7-4.9-7.1
			c-1-2.1-2-4.1-2.6-6.3c-0.6-2.3-1-4.6-0.5-7c0,0,0,0,0,0c0.6-3.7,2.3-6.8,4.9-9.5c1.1-1.1,2.5-1.7,4.1-1.7c0.6,0,1.3,0.1,1.9,0.1
			c1.9-0.2,3,0.9,3.7,2.5c0.4,1,0.9,2,1.4,3.1c0.9,2.2,1.6,4.5,2.7,6.6c1,1.9,0.6,3.4-0.5,5c-0.2,0.3-0.5,0.7-0.7,1 M1285.6,623.3
			c-0.8,0.9-1.6,1.7-2.3,2.6c-0.6,0.7-0.7,1.5-0.2,2.3c1.2,2.1,2.6,4.1,4.2,5.9"/>
	</g>
	<g>
		<text transform="matrix(1 0 0 1 1391.4088 666.4023)" class="st26 st27 st28">1138941181</text>
	</g>
	<g>
		<path class="st29" d="M1490.1,1165.7c-0.1-0.6-0.3-1.2-0.4-1.8c0.4-1.8,0.1-3.3-1.5-4.3c-1.1-11.1,0.7-21.7,5.5-31.8
			c1.4-3,4-5.5,4.1-9.1c4.8,2.4,10,3.1,15.3,2.8c13.9-0.8,22.6-14.6,17-27.3c-0.7-1.5-1.6-2.8-1.1-4.5c1.5-0.8,2.5-2.4,4.3-2.6
			c4.3-0.8,3.2-4.2,3.2-6.8c0.1-81.1-0.1-162.2,0.9-243.2c0-1,0-1.9,0-2.9c0.4-6.5,3.5-11.6,8.4-15.6c1-0.8,2.4-3.2,3.9-1.2
			c1,1.3-0.9,2.6-2,3.4c-7.2,5.5-9.4,12.9-9.4,21.6c-0.4,90.9,0.9,181.8-0.9,272.7c-0.1,2.8,0.1,5.5-2.9,7c-2.8,0.6-5,1.9-5.8,4.9
			c-1.3,1.3-2.6,2.6-3.8,3.9c-1.9,0.2-2.9,1.2-2.6,3.2c-0.4,0.5-0.8,1.1-1.3,1.6c-3.6,1.6-4,5.2-5,8.3c-3.3,9.6-0.5,22.3,5.9,27.6
			c0.4,0.6,0.8,1.2,1.2,1.8c-0.2,1.3,0.4,2,1.7,2.1c0.8,0.9,1.5,1.7,2.3,2.6c-0.1,2,0.9,3,2.9,3c1.4,1.1,2.4,2.9,4.7,2.1
			c8.6,0,15.5,3.7,20.6,10.5c3.2,4.2,4.7,9.6,4,14.5c-1.2,9.3-5.8,16.8-15.5,20c-1.4,0.5-3.1,1.5-1.7,3.1c3.6,4.4,7.8,8.7,13.7,8.8
			c21.4,0.4,42.8,0,64.2,1c6.4,0.3,12.8-0.6,19.2,0c9.4,0.9,18.9-0.3,28.3-0.1c25.3,0.5,50.6,0.3,75.9,0.1c2.9,0,6.6,0.3,8.3-3.4
			c7.2-3.1,10.4-9.1,11.7-16.5c2.4-1.1,1.6-3.3,1.6-5.1c0.1-18.6,0.1-37.3,0.1-55.9c0-5.3,0.5-10.6-0.4-15.9c0.1-1,0.2-1.9,0.2-2.9
			c0.1-100.4,0.1-200.8,0.2-301.3c0-3.6-0.3-7-2.1-10.2c0-2.8-0.5-5.2-3.7-5.9c-1-1-1.9-2-2.9-2.9c-0.1-1.3-0.8-1.9-2.1-1.7
			c-0.3-0.1-0.5-0.1-0.8-0.3c0.2-2.3-3.3-1.3-3.2-4.2c7.5-0.6,14.7-0.6,21.3,4.3c4.1,3.1,5.4,8.1,8.8,11.6c0.1,0.6,0.2,1.2,0.3,1.8
			c-0.9,0.7-0.9,1.6-0.9,2.6c0,11.7,0,23.4,0,35.1c0,1.1,0,2.3,1.1,3c0,8.4,0,16.8,0,25.1c-1.2,0.9-1,2.2-1,3.5
			c0,14.2,0,28.5,0,42.7c0,1.1-0.1,2.3,0.8,3.1c0,11.3,0.1,22.5,0.1,33.8c0,36.4-0.1,72.8,0,109.2c0,1.7-1.6,4.5,2,4.9
			c0,0-0.2,0.4-0.2,0.4c0.4,1.5,1.3,1.9,2.7,1.1c1.4,0.3,2.7,0.7,4.1,1c1.2,2,2.8,2.8,5,1.5c0.9,0.1,1.9,0.3,2.8,0.4
			c0.5,1.7,1.5,2.1,2.9,0.9c1-0.1,2-0.2,3-0.4c0.3,0.2,0.6,0.4,0.8,0.6c1.4,1.8,2.7,1.7,4.1,0c0.7-0.1,1.4-0.2,2.2-0.3
			c1.3,0.8,2.2,0.5,2.7-1c4.1-1.4,6.8-4.3,8.9-7.9c1.2-0.2,2-0.7,0.9-2c-0.1-0.7-0.1-1.3-0.2-2c0.2,0.1,0.3,0.1,0.5,0.2
			c1.1-0.4,1.7-1,0.6-2.1c0-1.9,0-3.9,0-5.8c1.1-1.2,1-2.2-0.5-3c-0.1-0.6-0.3-1.2-0.4-1.8c1.2-1.6,1.3-3-0.8-3.9
			c-0.1-0.6-0.2-1.2-0.3-1.8c1.2-2.2,0.5-3.8-1.6-4.9c-0.1-0.6-0.3-1.2-0.4-1.8c1.6-2.4,0.4-3.4-1.9-3.9c0,0,0,0,0,0
			c0-1.6-0.9-2-2.3-1.6c-0.5,0.1-1.1,0.1-1.6,0.2c-5.3-2.3-9.3-6-11.9-11.2c0-0.5,0-1.1,0-1.6c0.5-1.3,0.2-2.2-1.2-2.5
			c-0.2-0.3-0.3-0.5-0.5-0.8c0.1-0.7,0.2-1.3,0.3-2c1.2-2,1.4-3.9-0.1-5.8c0.1-0.9,0.3-1.9,0.4-2.8c1.5-0.4,1.7-1.4,1-2.6
			c2.6-7.1,7.7-11.3,15.1-12.8c5.3,0.8,10.6,1.6,15.9,2.4c5.2,2.4,8.3,6.7,10.3,11.9c0.1,1.8,0.2,3.6,0.3,5.4
			c-0.5,1.1-0.7,2.3,0.2,3.3c0.1,1,0.2,1.9,0.2,2.9c-0.4,1-0.8,1.9-1.2,2.9c-2.4,1.7-2.4,3.4,0.1,5c0.3,1.1,0.5,2.1,0.8,3.2
			c-0.7,1.3-0.4,2.2,1,2.6c0.1,0.6,0.2,1.2,0.4,1.8c-0.8,2.4-0.7,4.5,1.7,5.9c0.3,0.9,0.7,1.8,1,2.7c-0.1,0.6-0.3,1.2-0.4,1.8
			c-0.3,1.7-1,3.4,1.3,4.3c0.1,0.9,0.2,1.9,0.3,2.8c-1.4,1.5-1.4,2.9,0.4,4.1c0.2-0.1,0.4-0.1,0.5-0.2c-0.1,1.3-0.2,2.6-0.4,3.9
			c-1.2,3.7-0.7,7.4-0.2,11c-0.1,0.5-0.1,1-0.2,1.5c-1.4,0.8-1.4,1.8-0.3,2.9c0.1,0.7,0.1,1.4,0.2,2c0,0-0.4-0.2-0.4-0.2
			c-2.9,2.1-3.1,5.2-3.3,8.4c-1,3-3.4,5-5.2,7.3c-1.7,0.1-2.6,1.2-3.3,2.6c-0.3,0-0.5,0.2-0.6,0.4c-4.2,1.6-8.4,3.1-12.6,4.7
			c-0.6,0.1-1.2,0.1-1.9,0.2c-6.2,0-12.4,0-18.6,0.1c-0.6-0.1-1.2-0.2-1.9-0.2c-3.1-1.3-6.4-1.9-9.8-1.7c-0.6-0.1-1.2-0.2-1.8-0.3
			c-1.7-1.3-3.7-2-5.9-1.7c-3.5-0.8-2.7,1.8-2.7,3.5c-0.1,11.1-0.1,22.2-0.1,33.3c0,20.6,0,41.1,0,61.7c-1.2,4.3-0.9,8.8-2.8,13
			c-3.5,7.7-9.8,11.8-17.6,14.2c-16.3,0-32.7-0.1-49,0c-1.7,0-4.7-1.1-3.9,2.8c0.4,6.3,1.2,12.5,3.6,18.5c0.1,0.6,0.2,1.2,0.2,1.9
			c-0.5,3.1,0.2,6,1.7,8.8c0.1,0.9,0.2,1.9,0.4,2.8c-0.5,2.8,0.1,5.4,1.6,7.8c0.1,0.9,0.2,1.9,0.3,2.8c-0.4,2.8,0.3,5.4,1.7,7.8
			c0.1,0.9,0.2,1.9,0.3,2.8c0.8,5.9,0.9,12,3.6,17.5c0.1,0.9,0.2,1.9,0.2,2.8c-0.1,3.2-0.3,6.5,2.2,9.1c0,0,0.1,0.1,0.1,0.1
			c0.6,1.9,1.9,1.5,3.3,1.2c0.6,0.1,1.2,0.2,1.8,0.3c5.3,2,10.8,3.2,16.5,3.6c0.2,0.2,0.5,0.3,0.8,0.3c0.8,2.6,1.9,5.1,2.2,7.8
			c0.3,2.9-0.5,4-3.6,4c-12.8-0.2-25.7-0.3-38.5-0.3c-3.3,0-4.1-1.4-4.8-4.5c-1.4-5.9-0.8-12.2-3.6-17.8c-0.1-0.9-0.2-1.9-0.3-2.8
			c0.5-2.8-0.4-5.4-1.6-7.8c-0.1-0.6-0.1-1.2-0.2-1.9c-0.6-6.6-1.4-13.2-3.7-19.4c-0.1-0.6-0.1-1.2-0.2-1.9c0.5-3.1-0.3-6-1.7-8.8
			c-0.1-0.6-0.1-1.2-0.2-1.9c-0.3-6.3-1.5-12.5-3.6-18.5c-0.1-0.9-0.2-1.9-0.3-2.8c0.5-2.8-0.3-5.4-1.6-7.8
			c-0.1-0.6-0.1-1.2-0.2-1.9c-0.1-2,1.5-5-2.7-4.8c-5.8,0-11.6-0.1-17.4-0.1c-11.3-1.4-22.7-0.6-34.1-0.6c-0.8,0-1.5,0.6-1.4,1.6
			c-0.5,13.2-0.4,26.3,0,39.5c-0.1,1.9-0.4,3.8-0.4,5.7c0.1,16.9,0.2,33.9,0.4,50.8c0.1,3.5-1.1,4.7-4.7,4.7
			c-11.4,0-22.9,0.4-34.3,0.6c-8,0.1-8.3-0.4-7.7-8.4c0.4-4.7,4.8-2.9,6.7-4.9c0.6-0.1,1.2-0.2,1.8-0.3c2.5,0.4,4.7-0.4,6.9-1.7
			c0.6-0.1,1.2-0.2,1.8-0.3c2.3,0.1,5,0.9,5.6-2.6c0.4-4.8,0.4-9.6,0-14.3c0.1-0.3,0.3-0.6,0.3-0.9c0-21.9-0.1-43.9-0.1-65.8
			c0-3.6-2.2-3.7-4.8-3.7c-10,0-20,0-30-0.1c-8.2,0-16.4,0.5-24.1-3.2c-0.4-0.3-0.7-0.6-1.1-0.9c-1.2-2-2.8-3.6-4.8-4.9l0,0
			c-0.6-2.1-1.3-4-3.2-5.2c0,0-0.2-0.2-0.2-0.2c-3.3-2.4-7.5-2.5-11-4.3c-1.6-1.6-3.3-3.2-4.9-4.7c-2.8-5.6-4.9-11.4-4-17.8
			c0.1-1,0.2-1.9-0.8-2.5c-5.5-5.8-11.2-11.3-16.1-17.7c-0.1-1.1-0.7-1.8-1.7-2.3c-1-2.2-1.9-4.4-3.6-6.1c0.2-1.2-0.2-2.1-1.3-2.6
			c-0.3-0.7-0.5-1.5-0.8-2.2C1492,1168,1491.4,1166.7,1490.1,1165.7z"/>
		<path class="st30" d="M1751.5,1237.7c-1.7,3.7-5.4,3.4-8.3,3.4c-25.3,0.2-50.6,0.4-75.9-0.1c-9.5-0.2-18.9,1-28.3,0.1
			c-6.4-0.6-12.8,0.3-19.2,0c-21.4-1-42.8-0.6-64.2-1c-5.9-0.1-10.1-4.4-13.7-8.8c-1.3-1.6,0.3-2.7,1.7-3.1
			c9.7-3.2,14.3-10.7,15.5-20c0.7-4.9-0.8-10.3-4-14.5c-5.1-6.7-12-10.4-20.6-10.5c0-19.7,0-39.4,0-59c0-0.7,0-1.3,0-2
			c3-1.5,2.9-4.2,2.9-7c1.8-90.9,0.5-181.8,0.9-272.7c0-8.7,2.2-16.1,9.4-21.6c1.1-0.8,2.9-2.2,2-3.4c-1.5-1.9-2.9,0.4-3.9,1.2
			c-4.9,4-8,9.1-8.4,15.6c-0.1,1,0,1.9,0,2.9c-1.1,81.1-0.8,162.2-0.9,243.2c0,2.6,1.1,6.1-3.2,6.8c1.3-2,1.1-4.3,1.1-6.6
			c0-35.5,0-71,0.1-106.4c0.1-45.3,0.4-90.6,0.6-135.9c0.1-13.4,9.3-26,25.8-25.9c66.3,0.3,132.5,0.6,198.8,0.9
			c9.9,0.1,18.6,7.7,20.5,17.7c-3.4-3.5-4.6-8.5-8.8-11.6c-6.6-4.9-13.7-4.9-21.3-4.3c-0.1,2.9,3.3,1.9,3.2,4.2
			c-6.1-1.8-12.3-2-18.6-2c-13.1,0.1-26.1,0-39.2,0c-26.1,0-52.2,0.1-78.3-0.1c-4.8,0-6.1,1.7-5.3,5.9c0.7,4.1,1.7,8.1,2.4,12.2
			c1.9,11,4.5,22,5.2,33.2c-2.1,1-4.4,0.9-6.6,0.9c-19.1,0.1-38.2,0.1-57.4,0.2c-2.9,1.1-1.7,3.6-1.7,5.4
			c-0.1,57.2-0.1,114.5-0.1,171.7c0,1.8,0.2,3.5,0.4,5.3c0,45,0,90,0,135.1c-0.4,1.6,0.3,2.2,1.9,1.9c37.6,0,75.3,0.1,112.9,0.1
			c2.2,0,4.5,0.3,6.7,0.4c2.6,15.8,5.3,31.6,7.9,47.4c0.4,2.6,2.3,2.8,4.3,2.8c5.2,0,10.3,0.2,15.5,0
			C1719.4,1238.6,1735.5,1241.1,1751.5,1237.7z M1658.2,815.2c0-0.2,0-0.4,0-0.6c-0.6-0.1-1.2-0.2-1.9-0.2c-33,0-66-0.1-99.1-0.1
			c-1,0-1.9,0-2.9,0.2c-1.1,0.2-2.5,0.6-2.1,2c0.3,1.1,1.7,0.8,2.5,0.1c2-1.7,4.3-1.2,6.5-1.2c30.8-0.1,61.5-0.1,92.3-0.1
			C1655.1,815.2,1656.7,815.2,1658.2,815.2z"/>
		<path class="st31" d="M1369,1111c0.9-0.8,1.8-1.6,3.2-2.9c-22-8.7-30.2-27.7-37-47.8c3.3-3.1,1.5-5.7-0.9-8.2
			c-0.1-1.8-0.3-3.7-0.4-5.5c0.1-1.9,0.1-3.8,0.1-5.8c0.2-10-1.6-20.1,1-30c1.3-4.8,2.7-9.5,2.7-14.5c0.4-0.3,0.8-0.6,1.2-0.9
			c9.4-0.1,18.8-0.2,28.1-0.3c0.1,2-2.3,3-2,5.1c-2.1,1.3-4.9,2.4-1.2,5c0.8,1.9,1.1,3.5-0.2,5.7c-4.8,8.7-6.1,17.6-0.9,26.8
			c1.7,3.1,3.6,5.7,7.1,5.5c3.2-0.2,5.5-3,6.4-5.8c3.4-9.8,4.2-19.4-3.4-27.9c-0.8-0.9-1.7-1.8-0.9-2.9c1-1.3,2,0,3,0.3
			c1.7,0.5,3.8,2.2,4.2-1.3c0.8-3.3-2.2-3.8-3.8-5.3c0.3-2.1-2.1-3.2-2-5.2c5.1,0,10.3,0,15.4-0.2c23.4-0.8,46.8-1.9,70.2-1.4
			c0.2,5.1,3,9.5,3.7,14.4c2.2,15.1,1.8,30.4,0,45.5c-0.5,4.1-2.3,8-1.7,12.3c-4.6,18.3-13.8,33.1-31.8,41.1
			c-1.7,0.8-3.8,1.1-4.9,2.9c-2.8-0.1-6.2-1-7.9,2.1c-2.4,4.6-6.7,7.7-9.2,12.1c-1.9,0.3-2.8,1.6-3.7,3.1c-1.6,0-3.1,0-4.7,0
			c-1.2-0.1-2.4-0.2-3.6-0.3c-2.7-5.4-9.1-8-10.8-14.4c-0.2-0.8-2.4-1.3-3.8-1.7C1376.9,1109.6,1373,1111.1,1369,1111z
			 M1430.1,1000.4c-0.7,0.3-1.3,0.6-2,0.8c-1.5-0.1-3-0.1-2.8,2.1c0,0.5,0,1,0,1.4c0.4,4.2,3,8.2,0.7,12.6
			c-4.5,8.9-0.7,16.5,4.2,23.8c2.2,3.3,5,3.1,7.3-0.4l0,0c3.4,0.6,5.4-1.1,5.6-4.3c0.2-2.9,1.2-5.6,2-8.3c0.8-2.8,0.5-5.2-0.8-8.1
			c-2-4.5-5.1-9.2-2.8-14.7c0.5-0.2,1-0.3,1.5-0.5c3.4-0.4,2.5-2.9,1.1-3.9c-2.9-2-5.5-4.6-9.6-4.5
			C1431.7,996.4,1430.2,997.4,1430.1,1000.4z M1395.2,1065.4c-2.2,0.1-4.3,0.2-6.6,0.3c-3.4-2.2-7-1.2-10.5-0.8
			c-0.9,0.1-2.8,0.5-1.4,2.4c0,0.7-0.1,1.3-0.1,2.1c-1.3,1.3-0.9,2.2,0.7,2.9c0.6,6.7,0.9,13.3,4.4,19.5c5,8.7,12.9,11.2,21.9,11.2
			c8.5-0.1,15.7-6.2,18.6-14.3c2.2-6.2,3.8-12.6,4.3-19.2c2-1.1,2-2.2-0.2-3.1c-1.5-1.4-3.3-0.9-5-0.9c-7.1,0-14.3,0-21.4,0.1
			C1398.3,1064.1,1396.8,1064,1395.2,1065.4z M1413.7,1039.1c0-0.1,0-0.1,0-0.2c-2.9,0-5.8,0-8.7,0c-1.3,0-2.8,0-3,1.7
			c-0.1,1.8,1.4,1.9,2.7,2c4,0.3,8,0.6,12,0.9c2,0.2,4.7-0.8,5.6,1.6c0.9,2.5-0.2,5.1-1.8,7.1c-1.3,1.6-2.9,2.8-5,3.6
			c-3.9,1.5-7.9,1.4-11.9,1.5c-1.4,0-2.6,0.4-2.8,2.1c-0.1,1,0.6,1.3,1.4,1.6c7,2.4,17.9-1.1,22.1-7.3c2.6-3.8,2.9-8.4,1.3-12.5
			c-1.4-3.6-5.4-1.7-8.2-2.1C1416.3,1039,1415,1039.1,1413.7,1039.1z"/>
		<path class="st32" d="M1363.9,1247.9c0.6-2.7,0-4.3-3-5.4c-5.4-1.8-7.9-6.3-8.6-11.7c-0.5-3.9-1-7.9,0.1-11.9
			c31.5,0,63.1,0,94.6,0.1c0,3.2,0.1,6.4,0.1,9.6c-1.5,2.4-2,5.1-2.8,7.7c-9.9,5.4-9.9,14.7-10.4,24.5c-1.1,21.7-2.6,43.3-4.6,64.9
			c-0.6,6.9,1.1,10.9,7.8,12.9c1.6,0.5,4,0.7,4.4,3.2c-2.3,0.1-3.8-1.5-5.8-2.2c-3.6-1.3-6.8-4-10.7-4.3c-6.7-0.4-13.5-0.1-20.2-0.1
			c0-2.9,0-5.9,0-8.8c1.5-2.2,0.9-4.6,0.6-6.9c0-0.6,0.1-1.2,0.1-1.8c1.8-2.8,1-5.8,0.8-8.8c0-1.9,0.1-3.8,0.1-5.7
			c2.2-8.6,2.3-17.4,1.8-26.2c0-1.3,0.1-2.5,0.1-3.8c2-7.3,1.8-14.8,2.1-22.3c0.2-3.8-1.5-5.1-4.8-4.6c-5,0.8-9.9,0.8-14.9,0.6
			c-2.8-0.1-3.6,1.3-3.9,3.7c-2.4,16.2-4.9,32.3-7.4,48.4c-1.8,12.2-3.6,24.4-5.5,36.5c-7.7-0.8-15.5-0.3-23.2-0.2
			c1.2-2.6,2.3-5.2,1.3-8.2c0.1-1.2,0.2-2.5,0.3-3.7c1.5-2.8,2.3-5.7,1.7-8.8c0.1-1.3,0.2-2.5,0.3-3.8c1.9-3.4,2.2-7,1.7-10.8
			c0.1-0.6,0.2-1.2,0.3-1.8c1.5-3.4,2.2-7,1.6-10.8c0.1-0.9,0.2-1.8,0.2-2.8c1.4-3.1,1.9-6.4,1.7-9.8c0.2-2.2,0.4-4.4,0.5-6.6
			c0.7-0.6,0.8-1.3,0.4-2.1c0.2-0.9,0.3-1.8,0.5-2.8c0.8-0.6,0.8-1.3,0.4-2.1c0.5-3.8,1-7.6,1.5-11.5
			C1364.1,1249.4,1364.2,1248.7,1363.9,1247.9z"/>
		<path class="st32" d="M1369,1111c3.9,0,7.9-1.4,11.8-0.4c1.4,0.4,3.6,0.8,3.8,1.7c1.6,6.3,8.1,8.9,10.8,14.4
			c-0.1,11.2-0.1,22.4-0.3,33.6c-0.4,14.5,0.9,29-0.8,43.4c-0.4,3.7-1.9,4.6-5.2,4.5c-9.4-0.1-18.7,0-28.1-0.1
			c-3.4-0.1-6.7-0.7-9.9,0.9c-0.1-14.6-0.3-29.3-0.4-43.9c0-6.6,0-6.6-5.8-3.8c-14.4,7-29.5,2.7-40.4-11.6
			c-2.9-3.8-6.2-7.4-7.4-12.3c0.5-0.6,1-1.2,1.5-1.9c1.1-1.6,4.2-2.6,2.7-4.9c-1.2-2-3.5,0.4-5.3,0.2c-2.9-0.2-6.1,2.8-8.8-0.7
			c9.5-0.2,18.4-1.8,23.9-10.8c0.1-0.1,0.3-0.1,0.5-0.1c2.1,3.6,4,7.3,6.4,10.7c4.2,5.9,9.4,10.6,17.3,8.9
			c7.5-1.6,13.6-6.3,15.8-13.4C1354.1,1115.9,1360.4,1112.4,1369,1111z M1362.2,1191.9c1.6-0.2,3.4,0.4,4.7-0.7
			c4-3.5,9.4-3.9,13.7-6.9c1.8-1.3,4.6-1.8,3.4-4.7c-1.1-2.8-3.7-2.9-6.1-1.9c-5.3,2-10.4,4.9-15.9,6.5c-1.5,0.4-2.7,1.7-4.1,2.5
			c-1.1,0.6-1.6,1.6-1.3,2.8c0.2,1.2,1.1,2,2.3,2.1C1359.9,1191.8,1361,1191.8,1362.2,1191.9z"/>
		<path class="st32" d="M1407.4,1124c2.5-4.4,6.8-7.5,9.2-12.1c1.6-3.1,5-2.1,7.9-2.1c3.5,2.2,7.7,1.8,11.5,3.2
			c5.2,2,8.7,5.3,11,10.1c3.6,7.3,9.2,12.6,16.5,16.1c5.3,2.6,10,1.3,14.3-2.3c6.2-5.1,9.4-12.1,12.2-19.3c0.6-1.5,0.5-3.2,1.8-4.4
			c2.9,0.8,4.7,2.9,6,5.5c-0.1,3.6-2.7,6.1-4.1,9.1c-4.9,10.1-6.6,20.7-5.5,31.8c-1,0.4-2.1,0.7-2.3,2.1c-0.2,0.1-0.5,0.2-0.7,0.3
			c-11.4,4.7-22.2,3.8-32.6-3c-1.3-0.9-2.7-2.4-4.3-1.5c-1.7,0.9-0.9,2.9-0.9,4.4c-0.1,15.5-0.1,31-0.1,46.5
			c-11.6,0-23.2-0.2-34.8,0c-4.4,0.1-6-1.3-5.9-5.8c0.2-13.9,0.2-27.7,0.1-41.6C1406.5,1148.7,1406.9,1136.3,1407.4,1124z
			 M1420.7,1177.3c-1.9,0-3.6,0.1-4.1,2.1c-0.4,1.4-0.4,2.9,1.1,3.8c6.4,3.6,12.9,7.1,20,9.1c2,0.5,3.6-0.3,4.4-2
			c0.9-1.9,0-3.2-1.7-4.4c-5.7-3.8-12.3-5.8-18.5-8.4C1421.4,1177.3,1420.9,1177.3,1420.7,1177.3z"/>
		<path class="st33" d="M1367.2,995.2c-9.4,0.1-18.8,0.2-28.1,0.3c-4.3-2.8-9.1-2.8-11.6,0c-0.7,0-1.5,0-2.2,0.1
			c-0.8-1.3-1.4-0.8-1.9,0.2c-1.3-0.2-2.7-0.4-4-0.6c0.1-1.1,0.4-2.3-1.2-2.5c-0.7-3.6-0.5-7.1-0.3-10.7c0.5-0.1,1.1-0.2,1.6-0.4
			c27.4,0.1,54.8,0.1,82.2,0.2c5.5,0,11-0.3,16.4,0.1c21.7,1.5,43.4,0.7,65.2,0.5c2.8,6.7,1.5,9.2-5.3,10.1
			c-0.8,0.1-1.5,0.5-2.2,0.8c-2-1-3.9-0.7-5.9,0.2c-3.6,0-7.1,0-10.7,0.1c-23.4-0.5-46.8,0.6-70.2,1.4c-5.1,0.2-10.3,0.1-15.4,0.2
			C1371.4,995.2,1369.3,995.2,1367.2,995.2z"/>
		<path class="st31" d="M1497.8,1118.7c-1.3-2.6-3.1-4.7-6-5.5c0.6-3.7-1.3-7.2-0.7-11c2.4-16,18.7-23.4,33.1-14.9
			c1.5,0.9,3.1,1.6,4.7,2.4c-0.4,1.7,0.5,3,1.1,4.5c5.6,12.7-3,26.5-17,27.3C1507.7,1121.8,1502.6,1121,1497.8,1118.7z"/>
		<path class="st34" d="M1681.7,784.4c1.5-4.8,3.2-10.4,4.9-16.1c2-6.4,4.2-12.8,6-19.2c1-3.7,3.2-4.4,6.1-2.9
			c6.9,3.7,13.8,7.6,20.4,11.7c3.5,2.2,1.9,5-0.2,7.4c-3.1,3.5-6.4,6.7-9.4,10.3c-4.5,5.4-9.6,10.4-14.3,15.6
			c-2.2,2.4-4.4,3.4-7.6,1.7C1682.4,790.3,1681.6,789.5,1681.7,784.4z"/>
		<path class="st35" d="M1399,1127c1.6,0,3.1,0,4.7,0c0.6,23.5-1,46.9-0.9,70.4c0,12.4,0,11.9,12.1,13.1c11.1,1,22.2,0.3,33.2,0.7
			c0.3,0,0.7,0,1,0c-0.1,1.3-0.2,2.6-0.3,3.9c-1.2,0.2-1.5,1-1.3,2c0,0,0,0,0,0c-9.1-0.1-18.2-0.2-27.3-0.2c-8.5,0-17-0.3-25.5-0.7
			c-11.7-0.6-23.4-0.2-35.2-0.1c-3.1,0-6-0.3-8.7-2c0-0.9,0-1.8,0.1-2.7c3.4-1,7-1,10.5-1c10,0.1,20,0.1,30,0c5.6,0,6.5-1,6.5-6.5
			C1398.4,1178.2,1397.4,1152.6,1399,1127z"/>
		<path class="st36" d="M1374.1,1335.5c0,0.2,0.1,0.3,0.1,0.5c-0.2,15.6-0.2,15.6-15.5,15.6c-8.1,0-16.1,0-24.2,0
			c-5.8,0-5.8,0-3.8-5.4c0.3-0.7,0.2-1.6,0.3-2.3c0.7-0.7,1.4-1.4,2-2.1c1.8-0.2,3.6-0.3,4.9-1.8c4-1.5,7.9-2.9,11.9-4.4
			c0.3-0.1,0.7-0.1,1-0.2C1358.6,1335.2,1366.4,1334.7,1374.1,1335.5z"/>
		<path class="st23" d="M1837.8,976.9c-0.7,5.4-2.8,9.1-4.8,12.5c-2,3.3-7.3,3-8.8-0.6c-2.3-5.3-8.4-10.2-2.7-16.9
			c0.6-0.7,0.3-1.6-0.5-2.1c-1.8-1.1-4.1-1.4-5.5-0.1c-4.5,3.8-5.4,1.7-7.6-2.7c-2.9-5.8-5.4-12-10-16.9c-2.6-2.7-2.7-5.6,0.1-8.9
			c4.7-5.4,7.6-12.1,10.4-18.6c1.4-3.1,3.7-3.9,5.7-1.2c2,2.8,4.4,5.4,5.1,9.1c0.7,3.8,3.6,6.7,6.1,9.5c3,3.4,3.1,7,0.5,10
			c-2.6,2.9-3.3,6.6-5.7,9.4c-1.6,1.9-1,4,0.4,5.7c1.5,1.9,3.1,0.6,4.8,0c4.7-1.8,8-0.4,9,4.6C1835,972.8,1838.8,974.5,1837.8,976.9
			z M1824.7,946.1c-0.3-0.6-0.4-1.1-0.6-1.5c-4.5-6.1-8-12.7-11.1-19.6c-1.2-2.8-2.7-0.5-3.1,0.9c-1.9,6.6-5.3,12.3-9.9,17.3
			c-1.3,1.4-1.5,3-0.3,4.3c4.9,5.4,8.3,11.8,10.7,18.6c0.3,0.8,0.8,1.5,1.7,1.5c1.1,0,1-1.1,1.2-1.8c2.2-6.3,5.4-12,9.8-16.9
			C1823.8,948.1,1824.2,947,1824.7,946.1z M1829,989c0.2-0.3,0.7-1.1,1.2-2c0.9-1.7,1.7-3.4,2.8-5c2.7-4.1,1.7-8.9-2.4-11.5
			c-1.2-0.7-2.8-1.1-3.6-0.3c-2.1,2.1-5,4.3-4.7,7.5c0.4,4.2,3.9,7.2,5.4,11C1827.6,988.9,1827.9,988.9,1829,989z"/>
		<path class="st34" d="M1523.1,1039.6c-0.3,0.7-0.7,2.2-1.5,3.3c-2.9,3.9-5.5,7.9-6.8,12.6c-0.5,1.8-1.4,3.3-3.6,3.3
			c-2.1,0-2.7-1.7-3.1-3.2c-1.4-4.9-4.3-8.9-7.3-12.8c-2.1-2.7-2-5.1,0-7.9c2.7-3.7,5.8-7.1,6.5-12c0.3-1.8,1.4-3.7,3.8-3.9
			c2.3-0.2,3.2,1.7,3.5,3.3c1.2,5.2,4.4,9.2,7.7,13.1C1523.1,1036.5,1523.6,1037.6,1523.1,1039.6z"/>
		<path class="st31" d="M1319.5,981.6c-0.5,0.1-1.1,0.2-1.6,0.4c-0.1-2-0.2-4-0.3-5.9c2.8-4.8,1.8-10.6,3.9-15.6
			c0.1-0.2,0.2-0.5,0.3-0.7c12.7-0.1,25.4-0.1,38.1-0.2c2.5,0,6,1.2,6.1-3.2c0.1-4.5-3.4-3.4-5.9-3.4c-9.8-0.1-19.6-0.1-29.4-0.1
			c-2.1,0-4.3,0.2-5.5-2.1c0.1-0.6,0.1-1.2,0.2-1.8c3.9-6.1,7.8-12.3,11.7-18.4c0.9-1,1.9-2,2.8-3c6.3-5.3,12.5-10.6,18.8-16
			c0.5-0.2,1.1-0.3,1.6-0.5c6.7-2.5,12.9-6.2,20-7.9c3.7-0.8,7.6-0.8,11-2.9c7.4,0,14.8,0,22.2,0c2.1,1.7,4.9,1.2,7.2,2.1
			c5.1,2,11,2,15.2,6.3c-1.7,0.7-3.1-0.4-4.6-0.9c-8.2-2.6-16.2-5.7-25-5.6c-7.7,0.1-15.2,0.9-22.8,2.5c-8.9,1.8-16.9,5-24,9.8
			c-11.4,7.8-21.8,16.8-28.7,29.2c-0.9,1.5-2.2,3.1-1.4,4.9c0.9,2.1,3.1,1.2,4.7,1.3c9.3,0.1,18.7,0,28,0.1c3.2,0,6.3,1,6.5,5
			c0.2,4.9-1.5,6.5-6.6,6.5c-11.6,0-23.2,0.1-34.8-0.1c-3.2,0-5.1,1-5.3,4.1C1321.6,970.9,1319.3,976,1319.5,981.6z"/>
		<path class="st36" d="M1442.5,1351.9c-0.3,0-0.7,0.1-1,0.1c-1-1-1.9-1-2.9,0c-1,0-2,0-2.9,0c-8.4-1.2-16.8-1.3-25.1,0
			c-1.6,0-3.3,0-4.9,0c-2-1.3-2.2-3.2-1.6-5.3c0.5-2.1,1.2-4.2,0-6.3c0.3-1.6,0.6-3.2,0.8-4.8c6.7,0,13.5-0.3,20.2,0.1
			c3.9,0.2,7.1,3,10.7,4.3c1.9,0.7,3.5,2.4,5.8,2.2c0.5,0.2,0.9,0.3,1.4,0.5c0.1,0.5,0.2,1,0.2,1.6c-0.8,1.4-0.9,2.7,0.3,3.9
			c0,1,0,2.1,0,3.1C1443.2,1351.4,1442.9,1351.7,1442.5,1351.9z"/>
		<path class="st23" d="M1633.2,784.3c-0.1,5.3-6.8,12.7-11.6,12.3c-3.1-0.2-5.4-2.8-7.8-4.5c-8.6-6.3-16.6-13.4-24.1-21
			c-4.3-4.4-3.9-10.9,1.6-13.7c6.6-3.4,12.8-7.1,18-12.5c2.3-2.5,6.3-1.4,7,2.4c0.9,5.2,4.2,9.1,5.7,14c1.1,3.5,4.7,6.6,5.7,10.5
			C1628.9,776.5,1633.3,779.4,1633.2,784.3z M1610.9,748.5c-0.9,0.5-2.3,1.1-3.4,1.9c-5,3.8-9.9,7.7-14.9,11.5
			c-5.4,4.1-3.9,4.9-0.1,8.1c8.1,6.8,16.5,13.3,24.6,20.2c3.3,2.8,6.2,3.7,9.8,0.8c3.6-2.9,4.3-5.8,1.2-9.4c-0.5-0.6-0.6-1.5-1-2.2
			c-4.2-9.1-8.3-18.1-12.5-27.1C1614.1,750.7,1613.6,748.8,1610.9,748.5z"/>
		<path class="st23" d="M1652.9,735.9c4,0,8.1-0.3,12.1,0.1c6.2,0.5,9.9,3.3,7.6,8.9c-1.3,3.3,0,6.6-1.8,9.8
			c-4.4,7.9-6.3,16.9-6.5,25.9c-0.1,4.9-4.8,6.6-14.2,5.4c-3.8-0.5-5.8-3-5-7.3c0.6-3.2,0.3-6.5-1.1-9.5c-4.3-8.8-3.3-18.8-5.7-28.1
			c-0.9-3.4-0.6-5.4,3.1-5.3C1645.1,736,1649,735.9,1652.9,735.9C1652.9,735.9,1652.9,735.9,1652.9,735.9z M1655.8,739.7
			C1655.8,739.6,1655.8,739.6,1655.8,739.7c-3.7-0.1-7.4,0-11.1-0.1c-3.3-0.1-4.5,1-2.3,6.6c3.9,10,5.8,20.5,6.2,31.2
			c0.1,3.8,1.7,5.1,4.2,5.7c5.7,1.4,8.5-0.4,9.5-6.1c0.4-2.3,0.9-4.7,1.5-7c2-8.2,4.2-16.3,6.1-24.4c1.1-4.9,0.2-5.9-4.4-6
			C1662.2,739.6,1659,739.7,1655.8,739.7z"/>
		<path class="st32" d="M1459.2,993.6c3.6,0,7.1,0,10.7-0.1c1.5,11.4,0.8,22.8,0.3,34.2c-0.1,1.5-0.7,2.9,1.3,3.5
			c-0.9,5-3.8,9.7-2.7,15.1c-4.6,0.9-2.9,5.1-3.8,7.7c-0.4,1,1.5,0,2.3,0.2c-1.8,4-3.5,8.1-6.2,11.5c-0.6-4.3,1.3-8.2,1.7-12.3
			c1.8-15.2,2.1-30.4,0-45.5C1462.2,1003.1,1459.4,998.7,1459.2,993.6z"/>
		<path class="st37" d="M1480.2,954c0,1.7,0.8,2.8,1.7,4.2c4.6,6.9,6,14.5,4,22.6c-1.4-3.6-1.5-7.4-1.8-11.2
			c-0.6-8.2-2.6-10.1-10.5-10.1c-10.8,0-21.5,0-32.3,0c-6,0-6.8-1.5-3.7-6.8c0.6,0,1.3-0.1,1.9-0.1c11.6,0,23.1,0.1,34.7,0.1
			c1.3,0,3.3,0.6,3.8-1.2c0.5-1.7-0.5-3.1-2.1-3.9c-0.2-0.6-0.3-1.1-0.5-1.7c0.1-1.4-0.5-2.4-1.9-3l0,0c-0.7-1.9-1.4-3.8-2.1-5.7
			l0.3-0.3"/>
		<path class="st38" d="M1399,1127c-1.7,25.6-0.6,51.2-1,76.8c-0.1,5.5-1,6.5-6.5,6.5c-10,0-20,0-30,0c-3.5,0-7.1,0-10.5,1
			c-0.4-0.8-0.3-1.5,0.2-2.2c3.2-1.6,6.5-0.9,9.9-0.9c9.4,0.2,18.7,0,28.1,0.1c3.3,0,4.7-0.8,5.2-4.5c1.7-14.5,0.4-29,0.8-43.4
			c0.3-11.2,0.2-22.4,0.3-33.6C1396.6,1126.8,1397.8,1126.9,1399,1127z"/>
		<path class="st37" d="M1325.1,950.7c1.2,2.3,3.4,2.1,5.5,2.1c9.8,0,19.6,0,29.4,0.1c2.5,0,6-1,5.9,3.4c-0.1,4.4-3.7,3.2-6.1,3.2
			c-12.7,0.2-25.4,0.2-38.1,0.2C1322.6,956.6,1322.4,953.1,1325.1,950.7z"/>
		<path class="st31" d="M1468.9,1046.4c-1.2-5.4,1.8-10.1,2.7-15.1c2-8.6,4-17.1,4.6-25.9c0.5,10.2,7.4,19.5,4,30.3
			c-1.7,5.3-4,9.8-10,11.1C1469.7,1046.6,1469.3,1046.5,1468.9,1046.4z"/>
		<path class="st31" d="M1329,1047.6c-11.7-4-15.4-24.5-5.8-34c0.5,0.9,0.6,2,1.7,2.5c0.1,0.5,0.1,1.1,0.2,1.6
			c-0.3,4.6,0.2,9,3.1,12.9c1,5.3,1.9,10.6,2.9,16C1330.1,1046.4,1329.5,1046.9,1329,1047.6z"/>
		<path class="st34" d="M1523.9,876.4c-2.6,3.6-3.3,8.2-6.6,11.2c-1.7,1.5-3,0.6-4-0.8c-1.4-1.9-2.7-4-4-6c-1.7-2.7-3-5.1,0.3-7.9
			c1.7-1.5,2-4.3,3.3-6.4c2-3.3,3.9-3.2,5.4,0.3C1519.5,870.1,1521.8,873,1523.9,876.4z"/>
		<path class="st38" d="M1350.9,1214c2.7,1.7,5.6,2,8.7,2c11.7-0.1,23.5-0.5,35.2,0.1c8.5,0.4,17,0.7,25.5,0.7
			c9.1,0,18.2,0.2,27.3,0.2c-0.2,0.6-0.3,1.2-0.5,1.9c-31.5,0-63.1,0-94.6-0.1C1351.7,1217.4,1350.4,1216,1350.9,1214z"/>
		<path class="st31" d="M1437.7,952.7c-3.1,5.3-2.3,6.8,3.7,6.8c10.8,0,21.5,0,32.3,0c8,0,9.9,1.9,10.5,10.1
			c0.3,3.8,0.5,7.6,1.8,11.2c0.1,1.4,0.2,2.9,0.2,4.3c0.1,9.3-0.5,9.8-9.9,9c-0.3-0.2-0.4-0.4-0.5-0.8c0.7-0.3,1.5-0.7,2.2-0.8
			c6.8-1,8.1-3.4,5.3-10.1c0.4-5-1.9-9.6-1.9-14.5c0-5.2-1-6.5-6.3-6.5c-10.3,0-20.6,0-30.9,0c-2.3,0-4.6,0.3-6.7-0.2
			c-3.8-0.8-3.7-4.1-3.4-7C1434.2,952.2,1435.5,951,1437.7,952.7z"/>
		<path class="st29" d="M1475.7,993.4c0.1,0.3,0.3,0.6,0.5,0.8c0,3.7,0,7.5-0.1,11.2c-0.6,8.8-2.6,17.4-4.6,26
			c-2-0.6-1.4-1.9-1.3-3.5c0.5-11.4,1.1-22.8-0.3-34.2C1471.8,992.6,1473.8,992.4,1475.7,993.4z"/>
		<path class="st30" d="M1781.2,947.9l-0.4,0c0,0-0.4,0-0.4,0c-0.9-0.9-0.8-2-0.8-3.1c0-14.2,0-28.5,0-42.7c0-1.3-0.2-2.6,1-3.5
			c1.2,1.5,0.2,3.4,1,4.9C1781.5,918.2,1781.3,933.1,1781.2,947.9z"/>
		<path class="st30" d="M1781.6,872.3c-0.3,0.4-0.7,0.7-1,1.1c-1.1-0.8-1.1-1.9-1.1-3c0-11.7,0-23.4,0-35.1c0-1,0.1-1.9,0.9-2.6
			c0.4,0.9,0.7,1.9,1.1,2.8c-0.6,10.7-0.7,21.4,0,32.1C1781.6,869.2,1781.6,870.7,1781.6,872.3z"/>
		<path class="st29" d="M1325.1,1017.6c-0.1-0.5-0.1-1.1-0.2-1.6c0.5-1.5,0.8-2.8-1.3-3.3c-0.5-2.6-0.3-5.1,0.1-7.6
			c3-2.8,0.9-6.4,1.5-9.6c0.7,0,1.5,0,2.2-0.1c0.1,5.8,0.2,11.6,0.3,17.4c0,1.2,0,2.4,0,3.6c-0.2,1.4-0.4,2.7-0.6,4.2
			C1325.8,1019.9,1326.6,1018,1325.1,1017.6z"/>
		<path class="st37" d="M1321.4,960.4c-2.1,5-1.2,10.7-3.9,15.6"/>
		<path class="st30" d="M1329,1047.6c0.5-0.7,1.1-1.1,2-1.1c1,0.1,2,0.1,2.9,0.2c0.1,1.8,0.3,3.7,0.4,5.5c-0.4,0.8-0.9,1.6-1.3,2.4
			C1330.7,1052.8,1329.6,1050.3,1329,1047.6z"/>
		<path class="st30" d="M1832.1,1018.2c-5.3-0.8-10.6-1.6-15.9-2.4C1822,1013.4,1827.3,1014.5,1832.1,1018.2z"/>
		<path class="st30" d="M1468.9,1046.4c0.4,0.1,0.9,0.2,1.3,0.3c0.8,3.2-1.1,5.4-2.8,7.7c-0.8-0.2-2.6,0.8-2.3-0.2
			C1466,1051.4,1464.3,1047.2,1468.9,1046.4z"/>
		<path class="st30" d="M1848.2,1093.5c-0.6-3.7-1-7.4,0.2-11c0.3,0,0.5,0,0.8,0c0.9,5.6,0.7,4.4,1.6,10.1
			C1849.9,1092.9,1849,1093.2,1848.2,1093.5z"/>
		<path class="st30" d="M1325.2,995.5c-0.6,3.2,1.5,6.8-1.5,9.6c-0.1-3.1-0.3-6.2-0.4-9.3C1323.9,994.7,1324.4,994.2,1325.2,995.5z"
			/>
		<path class="st31" d="M1451.2,915.9c0.7,1,1.3,1.9,2,2.9c-3.8-0.6-6.7-2.5-8.7-5.8c1.3,0.3,2.6,0.6,3.9,0.9
			C1449.3,914.6,1449.9,915.8,1451.2,915.9z"/>
		<path class="st32" d="M1333.1,1054.5c0.4-0.8,0.9-1.6,1.3-2.4c2.4,2.5,4.2,5.1,0.9,8.2c-0.2-0.7-0.4-1.4-0.6-2.2
			c0.3-1,0-1.6-1.1-1.6C1333.4,1055.9,1333.2,1055.2,1333.1,1054.5z"/>
		<path class="st30" d="M1844.7,1108.1c0.2-3.1,0.4-6.3,3.3-8.4C1848.2,1103.1,1846.8,1105.8,1844.7,1108.1z"/>
		<path class="st30" d="M1799.6,1034c1.6,1.9,1.3,3.9,0.1,5.8c-0.3-0.1-0.6-0.1-0.9,0C1798.9,1037.9,1798,1035.8,1799.6,1034z"/>
		<path class="st30" d="M1846,1063.1c-2.4-1.4-2.5-3.5-1.7-5.9C1845.8,1058.9,1846.4,1060.9,1846,1063.1z"/>
		<path class="st30" d="M1842.1,1049.6c-2.5-1.6-2.5-3.3-0.1-5C1842,1046.3,1842,1047.9,1842.1,1049.6z"/>
		<path class="st30" d="M1819.3,1064.9c2.1,1.1,2.8,2.7,1.6,4.9C1819.8,1068.4,1819.1,1066.8,1819.3,1064.9z"/>
		<path class="st30" d="M1793.9,1099.7c-2.2,1.3-3.8,0.5-5-1.5c0.7,0,1.3-0.1,2-0.1c0.5,0.7,1.2,0.9,2,0.6
			C1793.3,1099.1,1793.6,1099.4,1793.9,1099.7z"/>
		<path class="st30" d="M1821.3,1071.7c2.1,0.9,2,2.3,0.8,3.9C1820.6,1074.6,1820.9,1073.1,1821.3,1071.7z"/>
		<path class="st30" d="M1848.6,1078.7c-1.8-1.2-1.8-2.6-0.4-4.1C1849.3,1075.9,1849.3,1077.3,1848.6,1078.7z"/>
		<path class="st30" d="M1807.5,1101.4c-1.3,1.8-2.7,1.9-4.1,0C1804.8,1100.5,1806.2,1100.4,1807.5,1101.4z"/>
		<path class="st30" d="M1817.1,1059.3c2.2,0.5,3.5,1.5,1.9,3.9c0,0-0.4,0.1-0.4,0.1l-0.4-0.1c0.1-0.8-0.1-1.5-0.8-2
			C1817.2,1060.5,1817.1,1059.9,1817.1,1059.3z"/>
		<path class="st30" d="M1847.9,1071.8c-2.3-0.9-1.6-2.6-1.3-4.3c0.4,0.1,0.9,0.3,1.3,0.4
			C1847.9,1069.3,1847.9,1070.6,1847.9,1071.8z"/>
		<path class="st30" d="M1823,1080.5l-0.5,0c0,0-0.5,0-0.5,0c0.1-1,0.3-2,0.4-3C1824.1,1078.2,1824.2,1079.3,1823,1080.5z"/>
		<path class="st30" d="M1318.1,992.6c1.6,0.2,1.4,1.4,1.2,2.5C1317.6,995,1317.7,993.9,1318.1,992.6z"/>
		<path class="st30" d="M1799.7,1100c0,0.4,0,0.7-0.1,1.1c-1.4,1.1-2.4,0.7-2.9-0.9C1797.7,1100.1,1798.7,1100.1,1799.7,1100z"/>
		<path class="st30" d="M1323.6,1012.7c2,0.5,1.8,1.8,1.3,3.3c-1.1-0.4-1.2-1.6-1.7-2.5C1323.2,1013.2,1323.4,1012.9,1323.6,1012.7z
			"/>
		<path class="st30" d="M1842.7,1035.6c0.4,0.1,0.9,0.3,1.3,0.4c0,0.9,0,1.9,0,2.8c-0.4,0-0.8,0-1.1,0
			C1842,1037.8,1842.2,1036.7,1842.7,1035.6z"/>
		<path class="st30" d="M1784.9,1097.3c-1.4,0.7-2.3,0.4-2.7-1.1C1783.4,1095.8,1784.3,1096.1,1784.9,1097.3z"/>
		<path class="st30" d="M1843.9,1055.4c-1.5-0.4-1.7-1.4-1-2.6C1844,1053.4,1844.3,1054.2,1843.9,1055.4z"/>
		<path class="st38" d="M1447.5,1217.2c-0.1-1.1,0.1-1.9,1.3-2C1449.3,1216.4,1448.7,1217,1447.5,1217.2z"/>
		<path class="st30" d="M1801.2,1045.2c-0.5-0.2-0.9-0.3-1.4-0.5c0.1-0.7,0.1-1.3,0.2-2C1801.4,1043,1801.7,1043.9,1801.2,1045.2z"
			/>
		<path class="st30" d="M1812.4,1100.1c-0.5,1.5-1.4,1.8-2.7,1C1810.3,1100,1811.2,1099.7,1812.4,1100.1z"/>
		<path class="st30" d="M1801.1,1028.6c0.6,1.3,0.4,2.2-1,2.6C1799.6,1030,1799.9,1029.1,1801.1,1028.6z"/>
		<path class="st30" d="M1822.1,1086.3c0.3,0,0.6,0,0.9,0c1.1,1.1,0.5,1.7-0.6,2.1C1822.3,1087.7,1822.2,1087,1822.1,1086.3z"/>
		<path class="st30" d="M1821.1,1090.2c0.4,0,0.7,0,1.1,0c1.1,1.3,0.3,1.7-0.9,2C1821.2,1091.5,1821.1,1090.9,1821.1,1090.2z"/>
		<path class="st30" d="M1815.2,1059.1c-0.2-0.5-0.3-0.9-0.5-1.4c1.4-0.5,2.3-0.1,2.3,1.6
			C1816.5,1059.2,1815.8,1059.2,1815.2,1059.1z"/>
		<path class="st31" d="M1333.6,1056.5c1.1,0.1,1.3,0.7,1.1,1.6C1333.8,1057.9,1333.3,1057.5,1333.6,1056.5z"/>
		<path class="st39" d="M1751.5,1237.7c-15.9,3.4-32.1,0.9-48.1,1.6c-5.2,0.2-10.3,0-15.5,0c-2,0-3.9-0.1-4.3-2.8
			c-2.6-15.8-5.2-31.6-7.9-47.4c1.1-0.2,2.1-0.4,3.2-0.6c22.2,0,44.4,0,66.6,0c1.5,0.3,2.1-0.3,1.9-1.8c0.1-1.4,0.2-2.9,0.2-4.3
			c0-76.9,0-153.9,0.1-230.8c1.1-1,0.8-2.4,0.8-3.6c0-24.6,0-49.2,0-73.8c0-1.5,0.5-3.3-1.5-4.1l-0.1-0.2c-1.1-2.4-3.3-1.5-5.1-1.5
			c-23.5-0.1-47,0-70.5-0.1c-17.2,0-34.4-0.2-51.6-0.3c-0.6-11.2-3.2-22.2-5.2-33.2c-0.7-4.1-1.7-8.1-2.4-12.2
			c-0.7-4.2,0.6-5.9,5.3-5.9c26.1,0.2,52.2,0.1,78.3,0.1c13.1,0,26.1,0.1,39.2,0c6.3-0.1,12.5,0.2,18.6,2c0.2,0.1,0.5,0.2,0.8,0.2
			c0.3,1.1,0.9,1.8,2.1,1.7c1,1,1.9,2,2.9,2.9c0.8,2.2,1.4,4.6,3.7,5.9c1.7,3.2,2.1,6.7,2.1,10.2c-0.1,100.4-0.1,200.8-0.2,301.3
			c0,1-0.1,1.9-0.2,2.9c-1.3,0.5-1.5,1.5-1.5,2.7c0.1,24.7,0.1,49.4,0.2,74.2C1761.9,1228.5,1758.7,1234.5,1751.5,1237.7z
			 M1652.9,852.7C1652.9,852.8,1652.9,852.8,1652.9,852.7c6,0,11.9,0.1,17.9,0c2.8,0,5.1-0.8,5.4-4.2c0.4-3.5-1.7-5-4.6-5.7
			c-1.4-0.3-2.9-0.3-4.3-0.3c-10.5,0-21,0.1-31.4-0.1c-3.9-0.1-7.3,1.2-7.6,5c-0.3,4.4,3.8,5.1,7.2,5.2
			C1641.3,852.9,1647.1,852.7,1652.9,852.7z"/>
		<path class="st32" d="M1763.2,1221.1c-0.1-24.7-0.1-49.4-0.2-74.2c0-1.2,0.2-2.2,1.5-2.7c0.9,5.3,0.3,10.6,0.4,15.9
			c0.1,18.6,0,37.3-0.1,55.9C1764.7,1217.8,1765.5,1220,1763.2,1221.1z"/>
		<path class="st32" d="M1520.9,1135.7c-1.3,3.1-2.8,6.1-3.8,9.3c-2.5,8.3-0.8,16.1,3.4,23.5c0.5,0.9,0.8,2.1,1.2,3.1
			c-6.4-5.2-9.2-17.9-5.9-27.6C1516.9,1140.9,1517.4,1137.3,1520.9,1135.7z"/>
		<path class="st32" d="M1534.5,1124.1c-2.7-0.6-3.4,2.9-5.8,2.9c0.8-3,3-4.3,5.8-4.9C1534.5,1122.7,1534.5,1123.4,1534.5,1124.1z"
			/>
		<path class="st30" d="M1762.8,829.9c-2.3-1.3-2.9-3.7-3.7-5.9C1762.3,824.7,1762.8,827.1,1762.8,829.9z"/>
		<path class="st32" d="M1526.9,1178c1.6,0.3,2.5,1.4,2.9,3C1527.8,1181,1526.9,1180,1526.9,1178z"/>
		<path class="st32" d="M1524.8,1130.8c-0.1,1.7-1.2,2.6-2.6,3.2C1521.9,1132.1,1522.9,1131.1,1524.8,1130.8z"/>
		<path class="st30" d="M1848.4,1095c0.8,1.1,0.6,2-0.3,2.9C1847,1096.8,1847.1,1095.8,1848.4,1095z"/>
		<path class="st30" d="M1756.2,821c-1.2,0.1-1.9-0.6-2.1-1.7C1755.4,819.1,1756.1,819.7,1756.2,821z"/>
		<path class="st32" d="M1523,1173.3c1.2,0.2,1.8,0.9,1.7,2.1C1523.4,1175.3,1522.8,1174.6,1523,1173.3z"/>
		<path class="st23" d="M1678.8,1188.6c-1.1,0.2-2.1,0.4-3.2,0.6c-2.2-0.1-4.5-0.4-6.7-0.4c-37.6-0.1-75.3-0.1-112.9-0.1
			c-0.3-1-0.9-1.6-1.9-1.9c0-45,0-90,0-135.1c2.4-1.4,1.4-3.7,1.4-5.7c0.1-33.5,0.1-67,0.1-100.4c0-25.4-0.1-50.9-0.1-76.3
			c19.1-0.1,38.2-0.1,57.4-0.2c2.3,0,4.5,0.1,6.6-0.9c17.2,0.1,34.4,0.2,51.6,0.3c23.5,0.1,47,0,70.5,0.1c1.8,0,4-0.9,5.1,1.5
			c-1.9,0.1-3.9,0.3-5.8,0.3c-38.2,0-76.4,0-114.6,0c-1.3,0-2.6,0-3.9,0c-2.5-0.1-3.3,1.5-2.6,3.4c1.4,4,1,8.4,2.2,12.2
			c2.6,8.4,3.2,17.2,5,25.7c0.8,3.8,1.7,7.7,2.3,11.6c1.5,10.1,3.2,20.2,5,30.3c1.5,8.3,3.6,16.6,4.6,25c1.1,9.2,3.1,18.3,4.6,27.4
			c1.6,9.1,3.2,18.2,4.9,27.3c2,11,3.4,22.1,5.6,33.1c3,14.9,4.8,30,7.9,44.8c0.8,4,2.7,7.9,2.2,12.2c-0.5,5.4,1.4,10.5,2.5,15.5
			c2.8,12.8,4.5,25.8,6.9,38.7C1674.5,1182.1,1674.8,1186,1678.8,1188.6z"/>
		<path class="st39" d="M1555.5,869.3c0.1,25.4,0.1,50.9,0.1,76.3c0,33.5,0,67-0.1,100.4c0,1.9,1,4.3-1.4,5.7
			c-0.1-1.8-0.4-3.5-0.4-5.3c0-57.2,0-114.5,0.1-171.7C1553.9,872.9,1552.6,870.4,1555.5,869.3z"/>
		<path class="st29" d="M1658.2,815.2c-1.5,0-3.1,0-4.6,0c-30.8,0-61.5,0.1-92.3,0.1c-2.2,0-4.5-0.5-6.5,1.2c-0.8,0.6-2.1,1-2.5-0.1
			c-0.5-1.4,1-1.8,2.1-2c0.9-0.1,1.9-0.2,2.9-0.2c33,0,66,0.1,99.1,0.1c0.6,0,1.2,0.1,1.9,0.2C1658.2,814.8,1658.2,815,1658.2,815.2
			z"/>
		<path class="st39" d="M1554.1,1186.8c1,0.3,1.6,0.9,1.9,1.9C1554.4,1188.9,1553.8,1188.3,1554.1,1186.8z"/>
		<path class="st40" d="M1376.6,1068.9c0-0.7,0-1.4,0-2c3.6-2.2,7.9,0.3,11.6-1.8c2.3,0,4.6,0,6.9,0c1.6,1.2,3.1,1.2,4.7,0
			c7.1,0,14.3-0.1,21.4-0.1c1.7,0,3.5-0.5,5,0.9c0.1,1,0.1,2,0.2,3.1c-0.4,6.6-2.1,13-4.3,19.2c-2.9,8.1-10.1,14.3-18.6,14.3
			c-9,0.1-16.9-2.5-21.9-11.2c-3.5-6.2-3.8-12.8-4.4-19.5C1377.6,1070.8,1377.8,1069.7,1376.6,1068.9z"/>
		<path class="st38" d="M1447.3,1208.4c0.5,0.9,1.1,1.7,0.8,2.8c-11.1-0.4-22.1,0.3-33.2-0.7c-12-1.1-12-0.6-12.1-13.1
			c0-23.5,1.6-46.9,0.9-70.4c0.9-1.5,1.9-2.8,3.7-3.1c-0.5,12.4-0.9,24.7-0.8,37.1c0.1,13.9,0.2,27.7-0.1,41.6
			c-0.1,4.5,1.5,5.9,5.9,5.8C1424,1208.2,1435.7,1208.3,1447.3,1208.4z"/>
		<path class="st31" d="M1441.6,1005.3c-2.3,5.5,0.8,10.2,2.8,14.7c1.3,2.9,1.5,5.3,0.8,8.1c-0.8,2.8-1.7,5.4-2,8.3
			c-0.3,3.1-2.2,4.9-5.6,4.3c6-8.5,6-17.6,2.3-27c-0.8-2.1-2.4-3.5-4.6-3.8c-2.4-0.4-4.1,1.3-4.9,3.2c-3.8,8.2-3.9,16.5,0.1,24.6
			c1.3,2.7,3.7,4.5,7.1,3c-2.3,3.5-5.1,3.7-7.3,0.4c-4.9-7.3-8.7-14.8-4.2-23.8c2.2-4.4-0.3-8.4-0.8-12.6c1.3,0.9,2.5,1.1,4,0.3
			C1433.4,1002.9,1437.5,1003.5,1441.6,1005.3z"/>
		<path class="st32" d="M1334,1046.6c-1-0.1-2-0.1-2.9-0.2c-1-5.3-1.9-10.6-2.9-16c1.4-4.7,2.5-9.4-0.5-14c0-1.2,0-2.4,0-3.6
			c1.8-0.7,1.5-2.2,1.6-3.6c0-2.7,0.2-5.5,0-8.2c-0.2-3.6,1.3-5.1,4.8-4.7c1.3,0.1,2.6,0.1,3.9,0.1c-0.1,5-1.5,9.7-2.7,14.5
			c-2.7,9.9-0.9,20-1,30C1334.1,1042.8,1334,1044.7,1334,1046.6z"/>
		<path class="st33" d="M1413.7,1039.1c1.3,0,2.6-0.1,3.9,0c2.9,0.4,6.9-1.5,8.2,2.1c1.5,4.1,1.3,8.6-1.3,12.5
			c-4.2,6.2-15.1,9.6-22.1,7.3c-0.8-0.3-1.5-0.6-1.4-1.6c0.2-1.6,1.4-2,2.8-2.1c4-0.1,8,0,11.9-1.5c2.1-0.8,3.7-1.9,5-3.6
			c1.6-2.1,2.6-4.7,1.8-7.1c-0.9-2.4-3.6-1.5-5.6-1.6c-4-0.3-8-0.6-12-0.9c-1.3-0.1-2.8-0.2-2.7-2c0.1-1.7,1.7-1.7,3-1.7
			c2.9,0,5.8,0,8.7,0C1413.7,1039,1413.7,1039,1413.7,1039.1z"/>
		<path class="st31" d="M1379.4,1005.7c-0.4,3.5-2.5,1.9-4.2,1.3c-1-0.3-2-1.6-3-0.3c-0.8,1.1,0.1,2.1,0.9,2.9
			c7.6,8.5,6.8,18.2,3.4,27.9c-1,2.8-3.2,5.7-6.4,5.8c-3.5,0.2-5.4-2.5-7.1-5.5c-5.2-9.2-3.9-18.2,0.9-26.8c1.2-2.2,1-3.8,0.2-5.7
			c4.4-1.9,8.8-3.9,13.1,0.3C1377.5,1006,1378.6,1005.7,1379.4,1005.7z M1376.6,1025.3c0.1-3.6-0.6-7.1-1.9-10.4
			c-0.9-2.3-2.3-4.4-5.2-4.4c-2.8-0.1-4.3,2-5.3,4.3c-3,7.3-3,14.8,0,22.1c0.9,2.1,2.4,4.2,4.7,4.4c2.7,0.2,4.4-2,5.4-4.2
			C1376.2,1033.4,1376.5,1029.4,1376.6,1025.3z"/>
		<path class="st29" d="M1441.6,1005.3c-4.1-1.7-8.2-2.4-12.3-0.1c-1.5,0.8-2.7,0.5-4-0.3c0-0.5,0-1,0-1.4c1.4,0,2.2-1,2.8-2.1
			c0.7-0.3,1.3-0.6,2-0.8c1.4-0.3,2.8-1.1,4.1-0.9c3.6,0.6,8.2-0.3,9,5.3C1442.6,1004.9,1442.1,1005.1,1441.6,1005.3z"/>
		<path class="st29" d="M1379.4,1005.7c-0.8,0-1.9,0.3-2.3-0.1c-4.3-4.2-8.7-2.2-13.1-0.3c-3.7-2.6-0.9-3.7,1.2-5
			c3.5-1.2,6.9-1.5,10.4,0C1377.2,1001.9,1380.2,1002.4,1379.4,1005.7z"/>
		<path class="st30" d="M1337.9,996.4c-1.3,0-2.6,0-3.9-0.1c-3.5-0.4-5,1.2-4.8,4.7c0.2,2.7,0,5.5,0,8.2c0,1.4,0.3,3-1.6,3.6
			c-0.1-5.8-0.2-11.6-0.3-17.4c2.6-2.7,7.3-2.7,11.6,0C1338.7,995.8,1338.3,996.1,1337.9,996.4z"/>
		<path class="st31" d="M1443.1,1004.8c-0.7-5.5-5.4-4.7-9-5.3c-1.3-0.2-2.7,0.6-4.1,0.9c0-3,1.6-4,4.6-4.1c4.1-0.1,6.7,2.6,9.6,4.5
			C1445.7,1001.8,1446.6,1004.3,1443.1,1004.8z"/>
		<path class="st31" d="M1375.6,1000.4c-3.4-1.5-6.9-1.2-10.4,0c-0.3-2.1,2.1-3.1,2-5.1c2.1,0,4.2,0,6.3,0
			C1373.5,997.2,1375.9,998.2,1375.6,1000.4z"/>
		<path class="st38" d="M1388.2,1065.1c-3.6,2.1-8-0.4-11.6,1.8c-1.4-1.9,0.5-2.3,1.5-2.4C1381.5,1064.2,1385,1063.2,1388.2,1065.1z
			"/>
		<path class="st38" d="M1399.8,1065.1c-1.6,1.2-3.1,1.2-4.7,0C1396.7,1063.7,1398.3,1063.7,1399.8,1065.1z"/>
		<path class="st38" d="M1426.5,1069c-0.1-1-0.1-2-0.2-3.1C1428.5,1066.8,1428.5,1067.8,1426.5,1069z"/>
		<path class="st38" d="M1376.6,1068.9c1.1,0.8,1,1.8,0.6,2.9C1375.7,1071.2,1375.3,1070.2,1376.6,1068.9z"/>
		<path class="st31" d="M1428.2,1001.3c-0.6,1.1-1.4,2.1-2.8,2.1C1425.2,1001.2,1426.7,1001.2,1428.2,1001.3z"/>
		<path class="st38" d="M1362.2,1191.9c-1.1-0.1-2.3,0-3.4-0.2c-1.2-0.1-2-0.9-2.3-2.1c-0.2-1.2,0.2-2.2,1.3-2.8
			c1.4-0.8,2.6-2,4.1-2.5c5.5-1.7,10.5-4.5,15.9-6.5c2.5-0.9,5.1-0.8,6.1,1.9c1.1,2.9-1.6,3.4-3.4,4.7c-4.2,3-9.7,3.4-13.7,6.9
			C1365.6,1192.3,1363.7,1191.7,1362.2,1191.9z"/>
		<path class="st38" d="M1420.7,1177.3c0.2,0,0.8,0,1.2,0.1c6.3,2.6,12.8,4.6,18.5,8.4c1.7,1.1,2.7,2.5,1.7,4.4
			c-0.8,1.7-2.5,2.5-4.4,2c-7.1-2-13.6-5.4-20-9.1c-1.6-0.9-1.5-2.4-1.1-3.8C1417.1,1177.4,1418.7,1177.3,1420.7,1177.3z"/>
		<path class="st32" d="M1410.6,1351.7c8.4-1.3,16.8-1.3,25.1,0C1427.3,1353,1419,1352.9,1410.6,1351.7z"/>
		<path class="st32" d="M1402.9,1340c0.4,0,0.8,0,1.2,0c1.2,2.1,0.5,4.2,0,6.3c-0.6,2.2-0.4,4,1.6,5.3c-3.4,1.4-3.7-0.8-3.6-3.2
			C1402.2,1345.6,1402.6,1342.8,1402.9,1340z"/>
		<path class="st32" d="M1443.6,1347.7c-1.2-1.2-1.1-2.5-0.3-3.9C1444.6,1345,1444.7,1346.3,1443.6,1347.7z"/>
		<path class="st32" d="M1438.7,1351.6c1-1,1.9-1,2.9,0C1440.6,1352.7,1439.6,1352.7,1438.7,1351.6z"/>
		<path class="st32" d="M1442.5,1351.5c0.3-0.3,0.7-0.5,1-0.8C1443.5,1351.3,1443.1,1351.6,1442.5,1351.5z"/>
		<path class="st35" d="M1444.5,913c2,3.3,4.9,5.2,8.7,5.8c1.9,1.6,3.8,3.3,5.8,4.9c-0.1,2,0.8,3,2.8,2.9c0.9,0.7,1.8,1.4,2.7,2.1
			c0.4,0.9,0.9,1.8,1.3,2.6c1.5,4.6,2.9,9.3,7.8,11.6c0,0,0,0,0,0c-0.1,1.4,0,2.8,1.9,3c0.2,0.6,0.3,1.1,0.5,1.7
			c-1.3,3.2-4.2,3.1-6.9,3.1c-8.3,0.1-16.7,0-25,0.1c-1.6,0-3.7-0.7-4.4,1.7c-0.6,0-1.2,0.1-1.9,0.1c-2.2-1.7-3.4-0.5-3.6,1.6
			c-0.3,2.9-0.4,6.1,3.4,7c2.2,0.5,4.5,0.2,6.7,0.2c10.3,0,20.6,0,30.9,0c5.3,0,6.3,1.3,6.3,6.5c0,4.9,2.3,9.5,1.9,14.5
			c-21.7,0.1-43.5,1-65.2-0.5c-5.5-0.4-11-0.1-16.4-0.1c-27.4-0.1-54.8-0.1-82.2-0.2c-0.2-5.5,2.1-10.7,2.5-16.1
			c0.2-3.1,2.2-4.2,5.3-4.1c11.6,0.2,23.2,0.1,34.8,0.1c5.1,0,6.8-1.6,6.6-6.5c-0.2-3.9-3.3-4.9-6.5-5c-9.3-0.1-18.7,0-28-0.1
			c-1.6,0-3.8,0.9-4.7-1.3c-0.8-1.8,0.6-3.3,1.4-4.9c6.9-12.4,17.3-21.4,28.7-29.2c7.1-4.8,15.1-8,24-9.8c7.7-1.6,15.1-2.4,22.8-2.5
			c8.8-0.1,16.8,3,25,5.6c1.5,0.5,2.9,1.6,4.6,0.9c0.6,0.1,1.2,0.3,1.8,0.4C1438.9,912.3,1441.4,913.1,1444.5,913L1444.5,913z
			 M1401,972.1c11.1,0.8,20.1-8.5,20.2-20.8c0-12-9.8-20.4-19.9-20.6c-11.5-0.2-20.4,8.5-20.6,19.8
			C1380.6,962.4,1389.2,972.3,1401,972.1z"/>
		<path class="st32" d="M1286.6,1129.8c-0.3-0.2-0.7-0.4-1-0.5C1286,1129.4,1286.3,1129.6,1286.6,1129.8z"/>
		<path class="st34" d="M1824.7,946.1c-0.5,0.9-0.9,2-1.6,2.8c-4.5,5-7.6,10.7-9.8,16.9c-0.3,0.7-0.2,1.8-1.2,1.8
			c-0.9,0-1.4-0.7-1.7-1.5c-2.5-6.8-5.8-13.2-10.7-18.6c-1.2-1.4-1-2.9,0.3-4.3c4.6-5,8-10.7,9.9-17.3c0.4-1.4,1.9-3.7,3.1-0.9
			c3,6.9,6.5,13.6,11.1,19.6C1824.3,945,1824.5,945.5,1824.7,946.1z"/>
		<path class="st34" d="M1829,989c-1.1-0.2-1.4-0.2-1.4-0.3c-1.5-3.9-5-6.8-5.4-11c-0.3-3.2,2.6-5.4,4.7-7.5
			c0.9-0.8,2.4-0.5,3.6,0.3c4.2,2.6,5.1,7.4,2.4,11.5c-1,1.6-1.8,3.3-2.8,5C1829.7,987.9,1829.2,988.7,1829,989z"/>
		<path class="st34" d="M1610.9,748.5c2.7,0.2,3.2,2.2,3.9,3.7c4.2,9,8.4,18.1,12.5,27.1c0.3,0.7,0.5,1.6,1,2.2
			c3.1,3.6,2.4,6.6-1.2,9.4c-3.6,2.9-6.5,2-9.8-0.8c-8.1-6.9-16.5-13.4-24.6-20.2c-3.9-3.2-5.3-4.1,0.1-8.1c5-3.8,9.9-7.7,14.9-11.5
			C1608.6,749.6,1610,749,1610.9,748.5z"/>
		<path class="st34" d="M1655.8,739.7c3.2,0,6.4,0,9.7,0c4.6,0.1,5.5,1.1,4.4,6c-1.8,7.9-3.9,15.8-5.9,23.7
			c-0.6,2.6-1.2,5.2-1.7,7.8c-1,5.6-3.8,7.5-9.5,6c-2.5-0.6-4.1-1.9-4.2-5.7c-0.3-10.7-2.2-21.3-6.2-31.2c-2.2-5.6-0.9-6.7,2.3-6.6
			C1648.4,739.6,1652.1,739.6,1655.8,739.7C1655.8,739.6,1655.8,739.6,1655.8,739.7z"/>
		<path class="st31" d="M1439.5,952.6c0.7-2.5,2.8-1.7,4.4-1.7c8.3-0.1,16.7,0,25-0.1c2.7,0,5.6,0,6.9-3.1c1.6,0.8,2.6,2.2,2.1,3.9
			c-0.5,1.8-2.4,1.2-3.8,1.2C1462.6,952.7,1451.1,952.6,1439.5,952.6z"/>
		<path class="st31" d="M1473.5,943c-4.9-2.3-6.3-6.9-7.8-11.6c2.7,1.1,3.2,4.5,5.7,5.9C1472.1,939.2,1472.8,941.1,1473.5,943z"/>
		<path class="st31" d="M1475.4,946c-1.9-0.2-1.9-1.5-1.9-3C1474.8,943.6,1475.4,944.6,1475.4,946z"/>
		<path class="st30" d="M1327.7,1016.5c2.9,4.6,1.8,9.3,0.5,14c-2.9-3.8-3.4-8.3-3.1-12.9c1.5,0.4,0.7,2.3,2.1,3
			C1327.3,1019.2,1327.5,1017.8,1327.7,1016.5z"/>
		<path class="st29" d="M1282.7,1133.8c-0.1-0.1-0.2-0.2-0.3-0.2C1282.5,1133.6,1282.7,1133.6,1282.7,1133.8
			C1282.8,1133.7,1282.7,1133.8,1282.7,1133.8z"/>
		<path class="st31" d="M1444.5,913c-3.1,0.1-5.6-0.7-6.7-3.9c1.9,0.7,3.8,1.4,5.6,2.1C1443.7,911.8,1444.1,912.4,1444.5,913z"/>
		<path class="st31" d="M1461.8,926.7c-2,0.1-2.9-0.9-2.8-2.9C1460.3,924.3,1461.3,925.2,1461.8,926.7z"/>
		<path class="st18" d="M1678.8,1188.6c-4-2.6-4.4-6.5-5.2-10.9c-2.4-12.9-4.1-25.9-6.9-38.7c-1.1-5-3.1-10.1-2.5-15.5
			c0.4-4.2-1.4-8.2-2.2-12.2c-3.1-14.9-5-29.9-7.9-44.8c-2.2-11-3.7-22.1-5.6-33.1c-1.6-9.1-3.3-18.2-4.9-27.3
			c-1.6-9.1-3.6-18.2-4.6-27.4c-1-8.4-3.1-16.7-4.6-25c-1.8-10.1-3.5-20.2-5-30.3c-0.6-3.9-1.5-7.8-2.3-11.6
			c-1.8-8.5-2.4-17.3-5-25.7c-1.2-3.9-0.8-8.2-2.2-12.2c-0.7-1.9,0.1-3.5,2.6-3.4c1.3,0,2.6,0,3.9,0c38.2,0,76.4,0,114.6,0
			c1.9,0,3.9-0.2,5.8-0.3c0,0,0.1,0.2,0.1,0.2c-0.1,0.6-0.3,1.3-0.3,1.9c0,25.4,0,50.7,0,76.1c0,1.3-0.2,2.6,1,3.5
			c0,76.9,0,153.9-0.1,230.8c0,1.4-0.1,2.9-0.2,4.3c-1.1,0.1-1.7,0.7-1.9,1.8C1723.2,1188.6,1701,1188.6,1678.8,1188.6z"/>
		<path class="st29" d="M1652.9,852.7c-5.8,0-11.6,0.1-17.4,0c-3.5-0.1-7.5-0.8-7.2-5.2c0.3-3.8,3.7-5.1,7.6-5
			c10.5,0.2,21,0.1,31.4,0.1c1.4,0,2.9,0,4.3,0.3c2.9,0.7,5,2.1,4.6,5.7c-0.4,3.4-2.7,4.2-5.4,4.2
			C1664.8,852.8,1658.8,852.8,1652.9,852.7C1652.9,852.8,1652.9,852.8,1652.9,852.7z"/>
		<path class="st23" d="M1747.5,951.8c-1.2-0.9-1-2.3-1-3.5c0-25.4,0-50.7,0-76.1c0-0.6,0.2-1.3,0.3-1.9c2.1,0.8,1.5,2.6,1.5,4.1
			c0,24.6,0,49.2,0,73.8C1748.3,949.4,1748.6,950.7,1747.5,951.8z"/>
		<path class="st23" d="M1745.4,1188.6c0.2-1,0.8-1.6,1.9-1.8C1747.4,1188.3,1746.8,1188.9,1745.4,1188.6z"/>
		<path class="st36" d="M1437.6,1040.7c-3.4,1.5-5.8-0.3-7.1-3c-4-8.1-3.9-16.4-0.1-24.6c0.9-1.9,2.5-3.6,4.9-3.2
			c2.2,0.3,3.8,1.8,4.6,3.8C1443.6,1023.1,1443.6,1032.2,1437.6,1040.7C1437.6,1040.7,1437.6,1040.7,1437.6,1040.7z"/>
		<path class="st36" d="M1376.6,1025.3c-0.2,4-0.4,8.1-2.2,11.8c-1.1,2.2-2.7,4.4-5.4,4.2c-2.4-0.2-3.8-2.3-4.7-4.4
			c-3.1-7.3-3-14.7,0-22.1c0.9-2.3,2.4-4.3,5.3-4.3c2.8,0.1,4.2,2.1,5.2,4.4C1376,1018.3,1376.8,1021.7,1376.6,1025.3z"/>
		<path class="st31" d="M1401,972.1c-11.9,0.2-20.5-9.8-20.3-21.6c0.2-11.3,9.1-20,20.6-19.8c10.2,0.2,19.9,8.6,19.9,20.6
			C1421.2,963.7,1412.1,972.9,1401,972.1z M1401.1,966.5c10.8,0.8,14.5-7.4,15.1-15.5c0.5-7.2-7.5-14.8-14.9-14.9
			c-8.6-0.1-14.8,6.3-15.1,15.3C1385.9,958.1,1391.9,967.8,1401.1,966.5z"/>
		<g>
			<path class="st41" d="M1290,1088.1c0.3-6.6,0.4-13.3,0.5-19.9c0-1.9-0.4-3.7-2.6-3.9c-2.1-0.2-3.2,1.3-3.5,3.2
				c-0.3,1.5-0.5,3.1-0.6,4.7c-0.4,11.5-1.1,23-1.1,34.6"/>
			<path class="st41" d="M1274.3,1123.4c0.5-12.7,1.8-25.3,1.2-38c0.8-12.7,0,0,0.8-12.7c0.2-3.6,0,0.4,0.1-10.8
				c0.9-4.3,3.8-6.9,7.3-9c7.5,0.5,15,1.1,22.6,1.6c0.3,0.2,0.6,0.4,1,0.5c3.7,2.4,4.7,5.8,4.5,10.1c-0.5,10.3-0.7,20.7-1,31
				c-1.1,2.1-0.4,4.3-0.5,6.5c-0.2,4.4-0.3,8.7-0.5,13.1c-0.5,5.1-1,10.2-0.4,15.3c-0.3,4.6-0.6,9.2-0.8,13.8
				c-0.2,4.4-1.9,7.8-6.4,9.3c-7.5,1-14.9,0.2-22.3-0.4c-3.4-2-6.9-3.9-5.9-8.9C1274.3,1123.4,1274,1144.8,1274.3,1123.4"/>
			<path class="st41" d="M1298.3,1143.4c1.9,0.7,3.7,0.7,4.1-2.1c0.2-1.5,0.4-3.1,0.4-4.7c0.8-21.2,1.7-42.4,2.3-63.7
				c0.1-3,2.5-8.2-3.3-8.2c-5.2,0-2.5,5.1-3.3,7.9c-0.1,0.2-0.1,0.4-0.1,0.6c-0.8,21.3-1.7,42.5-2.4,63.8
				C1296,1139.3,1295.4,1141.9,1298.3,1143.4z"/>
			<path class="st42" d="M1288.8,1009.6c0.2-2.2,0,0,0.4-6.7c0.5-19.2,0,0,0.5-19.2c1.9-21.1,0,0,1.9-21.1c4.7-0.9,9.3-0.9,13.8,1
				c1.2,9.3-0.1,18.6-0.3,27.8c-0.3,15.9-1.1,31.8-1.7,47.7c-0.3,3.5-0.5,7.1-0.8,10.6c-4.7-0.1-9.4,0.1-14-1.1
				c-1.3-1.8-0.7-3.7-0.7-5.6C1288.2,1031.8,1288.5,1020.7,1288.8,1009.6z"/>
			<path class="st42" d="M1295.7,929.9c12,1,0,0,12,1c1.5,21.5,0.1,1,1.6,22.5c-7.1,0-14-0.8-20.8-2.9
				C1296,929.1,1288.3,951.3,1295.7,929.9z"/>
			<path class="st43" d="M1288.6,950.5c6.8,2.1,13.7,2.9,20.8,2.9c0.2,4.1-2.5,6.9-4.2,10.2c-4.5-1.9-9.1-1.9-13.8-1
				C1290.1,958.7,1288.2,954.9,1288.6,950.5z"/>
			<path class="st44" d="M1280,1153.5c7.4,0.6,14.9,1.4,22.3,0.4c-0.9,2.6-2.2,4.1-5.4,3.8c-4.2-0.4-8.4-0.3-12.6-0.4
				C1281.9,1157.2,1280.7,1155.6,1280,1153.5z"/>
			<path class="st45" d="M1288.5,1048.6c4.6,1.3,9.3,1,14,1.1c1.2,0.6,2.3,1.2,3.5,1.8c0.1,0.9,0.3,1.8,0.4,2.8
				c-7.5-0.5-15-1.1-22.6-1.6c0-0.3-0.2-0.4-0.4-0.3C1284.1,1049.8,1286.4,1049.3,1288.5,1048.6z"/>
			<path class="st46" d="M1298.3,1143.4c-2.9-1.5-2.4-4.1-2.3-6.3c0.8-21.3,1.6-42.5,2.4-63.8c0-0.2,0-0.4,0.1-0.6
				c0.8-2.8-2-7.9,3.3-7.9c5.8,0,3.4,5.1,3.3,8.2c-0.6,21.2-1.5,42.4-2.3,63.7c-0.1,1.6-0.2,3.1-0.4,4.7
				C1302.1,1144.1,1300.3,1144.1,1298.3,1143.4z"/>
			<path class="st46" d="M1287.6,1143.3c-2.5,0.5-3.5,0.1-4-3c-1.2-6.3-1-28.3-1-33.7c0-11.5,0.7-23,1.1-34.6
				c0.1-1.6,0.3-3.1,0.6-4.7c0.4-1.9,1.4-3.4,3.5-3.2c2.2,0.2,2.7,2,2.6,3.9c-0.1,6.6-0.2,13.3-0.5,19.9
				C1289.3,1100.7,1289.8,1130.4,1287.6,1143.3z"/>
		</g>
		<path class="st18" d="M1401.1,966.5c-9.2,1.3-15.3-8.4-15-15.2c0.4-9,6.5-15.5,15.1-15.3c7.5,0.1,15.4,7.7,14.9,14.9
			C1415.6,959.1,1411.9,967.4,1401.1,966.5z"/>
		<path class="st31" d="M1311.7,1119.2c-0.2,0-0.4,0-0.5,0.1c-5.5,9.1-14.4,10.6-23.9,10.8c-0.2-0.2-0.5-0.3-0.8-0.3c0,0,0,0,0,0
			c-0.7-0.4-1.4-0.6-2.1-0.7l-3.2-0.4c-1.7-0.5-2.9-1.1-4.1-2c-2.1-3.5-5.1-5.8-6.3-10c-3-10.3-0.2-18.4,8.1-25.1
			c0.9-0.3,1.6-0.6,2.5-0.9l1.2,0c7.7-0.7,15.1,0.1,22.1,3.5c6.1,5.3,8.7,11.8,7.4,19.9C1312,1115.7,1311.9,1117.5,1311.7,1119.2z"
			/>
	</g>
	<g id="logo_1_">
		<path class="st47" d="M1601.5,1079v-16.6c-19.9-19.9-26.6-49.8-17.7-76.4C1568.3,1018.2,1574.9,1055.8,1601.5,1079z"/>
		<path class="st47" d="M1703.3,1079v-16.6c19.9-19.9,27.7-49.8,17.7-76.4C1736.5,1018.2,1729.9,1055.8,1703.3,1079z"/>
		<path id="M_2_" class="st47" d="M1609.3,1014.9h14.4l27.7,42.1l29.9-42.1h14.4v69.7c-6.6,4.4-12.2,7.7-19.9,10v-39.8l-17.7,27.7
			h-11.1l-17.7-27.7v39.8c-6.6-2.2-13.3-5.5-19.9-10L1609.3,1014.9z"/>
		<path class="st47" d="M1717.7,1022.6c0-35.4-28.8-64.2-64.2-64.2c-35.4,0-65.3,27.7-65.3,63.1c0,10,2.2,18.8,5.5,27.7
			c-1.1-5.5-2.2-12.2-2.2-17.7c0-33.2,27.7-60.9,60.9-60.9s60.9,27.7,60.9,60.9c0,6.6-1.1,12.2-2.2,17.7
			C1715.5,1040.3,1717.7,1031.5,1717.7,1022.6z"/>
		<path class="st48" d="M1597.1,1074.6V1058c-21-19.9-27.7-49.8-17.7-76.4C1562.8,1012.6,1570.5,1051.4,1597.1,1074.6z"/>
		<path class="st48" d="M1697.8,1074.6V1058c21-19.9,27.7-49.8,17.7-76.4C1732.1,1013.7,1724.4,1051.4,1697.8,1074.6z"/>
		<path id="M-2_2_" class="st26" d="M1604.8,1010.4h15.5l27.7,42.1l27.7-42.1h14.4v69.7c-6.6,4.4-12.2,7.7-19.9,10v-39.8l-17.7,27.7
			h-11.1l-16.6-27.7v39.8c-6.6-2.2-14.4-5.5-19.9-10V1010.4z"/>
		<path class="st49" d="M1712.2,1017.1c-1.1-35.4-31-63.1-67.5-62c-33.2,1.1-60.9,28.8-62,62c0,10,2.2,18.8,5.5,27.7
			c-1.1-5.5-2.2-12.2-2.2-17.7c1.1-33.2,28.8-60.9,62-59.8c33.2,1.1,60.9,28.8,59.8,62c0,5.5-1.1,10-2.2,15.5
			C1710,1035.9,1712.2,1025.9,1712.2,1017.1z"/>
	</g>
	<rect x="1211" y="489.2" class="st50" width="719.4" height="95.9"/>
	<text transform="matrix(1 0 0 1 1210.9653 539.8864)" class="st27 st51">Reparacion de celulares</text>
</g>
<g id="Capa_2" class="st52">
	
		<image style="display:inline;overflow:visible;" width="12352" height="11203" xlink:href="7F14F2AD.png"  transform="matrix(0.24 0 0 0.24 28.2327 39.1273)">
	</image>
</g>
</svg>
