<svg xmlns="http://www.w3.org/2000/svg" viewBox="0 0 21.64 20.89"><defs><style>.cls-1{fill:#1e376c;}.cls-2{fill:#521213;}</style></defs><g id="Capa_2" data-name="Capa 2"><g id="Capa_1-2" data-name="Capa 1"><path class="cls-1" d="M13.41,18.53h0l0,0v0Z"/><polygon class="cls-1" points="20.31 19.3 20.31 19.3 20.31 19.3 20.31 19.3 20.32 19.3 20.31 19.3"/><polygon class="cls-1" points="20.31 19.3 20.31 19.3 20.31 19.29 20.31 19.3 20.31 19.3 20.31 19.3 20.31 19.3"/><path class="cls-1" d="M13.41,18.53h0v0a0,0,0,0,0,0,0Z"/><path class="cls-1" d="M4.93,12.35h0a.05.05,0,0,1,0,.05,1.2,1.2,0,0,1,0,.38v7.49a.45.45,0,0,1,0,.2.56.56,0,0,0,.31.36l0,0h.06a1.35,1.35,0,0,1,.4,0h15a1.85,1.85,0,0,0,.41,0,2,2,0,0,1,.35-.1h0a.45.45,0,0,0,.12-.27c-.09-.09-.05-.2-.05-.29q0-3.78,0-7.56c0-.18-.11-.35-.06-.53a.33.33,0,0,0-.31-.19c-.1.08-.21,0-.32,0H5.67c-.17,0-.33.09-.5,0s-.13.11-.2.16H5l-.06.23h0Zm14,.05h2.17c.1.05.05.15.05.22v1.83c0,.31,0,.31-.32.25a1.43,1.43,0,0,1-.6-.17,2.26,2.26,0,0,1-1.3-1.37h0a2.61,2.61,0,0,1-.13-.63C18.76,12.43,18.8,12.39,18.91,12.4Zm-.12,7.73a1.74,1.74,0,0,1,.05-.22,1.51,1.51,0,0,1,.24-.67,1.52,1.52,0,0,1,.46-.58A2.15,2.15,0,0,1,21,18c.09,0,.12,0,.12.1,0,.73,0,1.46,0,2.18,0,0,0,0,0,.05-.7,0-1.39,0-2.08,0C18.79,20.38,18.75,20.31,18.79,20.13Zm-7.68-2.37a.52.52,0,0,1,.76-.45h0a.29.29,0,0,1,.24.25,2.28,2.28,0,0,0,.54,1h0c.39.17.39.17.39-.25s0-1,0-1.53h0l-.4-.15h0a1.94,1.94,0,0,1-.7-.32h0a.18.18,0,0,1-.12-.09,1.22,1.22,0,0,1-.46-.65,1.72,1.72,0,0,1,0-.9,1.53,1.53,0,0,1,1.22-1.27h0c.16-.1.37,0,.53-.14,0-.18,0-.36,0-.54s.08-.28.25-.27.23.11.23.27-.06.38,0,.52.32.08.48.14l.18.08h0a1.12,1.12,0,0,1,.66.46L15,14a1,1,0,0,1,.25.49.51.51,0,0,1-.37.67c-.32.08-.55-.08-.64-.44l-.11-.26a1.94,1.94,0,0,0-.37-.33c-.16-.08-.24-.11-.23.12,0,.42,0,.83,0,1.25,0,.21.05.3.26.34a2.25,2.25,0,0,1,1.17.56A1.58,1.58,0,0,1,15.41,18a1.71,1.71,0,0,1-1.29,1.41c-.18.06-.44,0-.54.16s0,.35-.05.53-.08.29-.26.28-.24-.14-.23-.3,0-.34,0-.51h0a4.38,4.38,0,0,1-1-.3.94.94,0,0,1-.23-.16h0a1.38,1.38,0,0,1-.52-.55A1.21,1.21,0,0,1,11.11,17.76ZM5.73,12.41H7.27c.59,0,.6,0,.45.56a1.89,1.89,0,0,1-.09.21,1.28,1.28,0,0,1-.31.6.51.51,0,0,1-.16.2,1.63,1.63,0,0,1-.6.47,1.54,1.54,0,0,1-.73.24l-.14,0c-.18,0-.27,0-.26-.22,0-.61,0-1.22,0-1.82C5.42,12.43,5.49,12.35,5.73,12.41Zm-.3,7.75c0-.62,0-1.25,0-1.87a.62.62,0,0,1,0-.23h0s.11,0,.29,0h0a2.3,2.3,0,0,1,2,1.88.41.41,0,0,1,0,.1c.08.42.06.32-.48.32H5.48C5.39,20.31,5.43,20.23,5.43,20.16Z"/><polygon class="cls-1" points="12.64 14.21 12.65 14.2 12.64 14.2 12.64 14.21"/><path class="cls-1" d="M21.5,20.74a2,2,0,0,0-.35.1,1.85,1.85,0,0,1-.41,0H5.79a1.35,1.35,0,0,0-.4,0H21.24a.71.71,0,0,0,.25-.11l0,0Z"/><path class="cls-1" d="M5,20V12.79a1.2,1.2,0,0,0,0-.38.05.05,0,0,0,0-.05.45.45,0,0,1,0,.28q0,3.73,0,7.47a.47.47,0,0,0,0,.17Z"/><path class="cls-1" d="M4.91,12.35h0Z"/><path class="cls-1" d="M5.31,20.84A.56.56,0,0,1,5,20.48a.12.12,0,0,1,0,.09.46.46,0,0,0,.36.31h0Z"/><path class="cls-2" d="M4.31,17v-.73l0,0a1.47,1.47,0,0,1,0-.78l0,0-.1-.1h0a4.47,4.47,0,0,1-.63-.6h0l-.15-.15h0l-.5-.63a6.86,6.86,0,0,1-.83-1.47h0a6,6,0,0,1-.5-1.59h0a2.87,2.87,0,0,1-.11-.77h0a3.24,3.24,0,0,1-.05-.76,3.69,3.69,0,0,1,.05-.88h0a3,3,0,0,1,.11-.66h0a5.87,5.87,0,0,1,.46-1.53A6.1,6.1,0,0,1,2.9,4.73h0a3.15,3.15,0,0,1,.48-.61A.29.29,0,0,1,3.52,4h0a4.54,4.54,0,0,1,.62-.62.4.4,0,0,1,.19-.15h0A2.87,2.87,0,0,1,5,2.73H5a7.51,7.51,0,0,1,1.54-.8h0a5,5,0,0,1,.77-.25A6.12,6.12,0,0,1,8.8,1.43a4.5,4.5,0,0,1,.82,0h0a2.17,2.17,0,0,1,.67.05,5.75,5.75,0,0,1,1.58.36,4.89,4.89,0,0,1,1.48.69,5.17,5.17,0,0,1,1.31,1,7.19,7.19,0,0,1,1.61,2h0A6.19,6.19,0,0,1,16.89,7h0a3.7,3.7,0,0,1,.22.87,2.82,2.82,0,0,1,.09.71h0a3.41,3.41,0,0,1,.05.78h0a2.14,2.14,0,0,1-.06.71h0a2.53,2.53,0,0,1-.1.82h0c0,.07,0,.14,0,.21s0,.19.14.19h.87c.32.06.44-.11.46-.4h0l.11-.92h0a12.86,12.86,0,0,0-.11-2.15h0L18.36,7l-.21-.7a16.48,16.48,0,0,0-.7-1.54A9.63,9.63,0,0,0,15.05,2c-.3-.23-.61-.43-.92-.64a.33.33,0,0,1-.25-.06A9.18,9.18,0,0,0,10.55.16c-.1,0-.19,0-.24-.1A.84.84,0,0,1,9.6,0a.29.29,0,0,1-.38,0h0s0,0,0,0a2.28,2.28,0,0,1-1.1,0A.25.25,0,0,1,8,.19a9.86,9.86,0,0,0-1.33.3.26.26,0,0,1-.15,0h0L5.79.71h0a12.54,12.54,0,0,0-1.54.81l-.31.21-.45.35A10.34,10.34,0,0,0,1.71,4h0c-.32.49-.6,1-.87,1.53L.31,7h0L.15,7.8h0l-.09.77h0c0,.27-.11.54,0,.81a3.48,3.48,0,0,1,0,.72,5.57,5.57,0,0,1,.1.82l.15.66A13.67,13.67,0,0,0,.84,13.1h0a11,11,0,0,0,.91,1.6h0a.78.78,0,0,1,.16.24h0a2.87,2.87,0,0,1,.41.51h0L3.5,16.58h0a3.22,3.22,0,0,1,.56.41h0l.14.07h0Z"/><path class="cls-1" d="M4.2,17.06c.07,0,.1,0,.11-.07h0Z"/><path class="cls-1" d="M4.27,15.44a1.47,1.47,0,0,0,0,.78l0,0v0h0v-.81h0Z"/><path class="cls-2" d="M10.31.06c0,.08.14.09.24.1a9.18,9.18,0,0,1,3.33,1.12.33.33,0,0,0,.25.06h0A11,11,0,0,0,12,.41,14,14,0,0,0,10.33.05h0Z"/><path class="cls-2" d="M6.62.49A9.86,9.86,0,0,1,8,.19.25.25,0,0,0,8.1.09h0A15.35,15.35,0,0,0,6.46.46h0A.26.26,0,0,0,6.62.49Z"/><path class="cls-2" d="M9.2.05s0,0,0,0h0L8.1.08h0A2.28,2.28,0,0,0,9.2.05Z"/><path class="cls-2" d="M8.1.08h0Z"/><path class="cls-2" d="M9.6,0a.84.84,0,0,0,.71,0h0L9.62,0h0Z"/><path class="cls-2" d="M10.33.05Z"/><path class="cls-2" d="M9.6,0h0a.77.77,0,0,1-.37,0A.29.29,0,0,0,9.6,0Z"/><path class="cls-2" d="M9.62,0Z"/><path class="cls-1" d="M14.43,17.79a.43.43,0,0,1-.09-.21.86.86,0,0,0-.58-.56c-.13-.05-.17,0-.18.13s0,.42,0,.63a1.33,1.33,0,0,1-.08.9A.94.94,0,0,0,14.43,17.79Z"/><path class="cls-1" d="M13.6,17.78c0-.21,0-.42,0-.63s.05-.18.18-.13a.86.86,0,0,1,.58.56.43.43,0,0,0,.09.21v0c0-.44-.29-.65-.66-.81-.22-.1-.26,0-.26.18,0,.52.06,1,0,1.55h0A1.33,1.33,0,0,0,13.6,17.78Z"/><path class="cls-1" d="M13,15.18a5.93,5.93,0,0,1,0-.73c0-.18,0-.31-.25-.23a.08.08,0,0,1-.08,0h0a3.45,3.45,0,0,1-.35.5h0a.76.76,0,0,0,.27.71h0c.05,0,.1,0,.11.09C12.94,15.52,13,15.4,13,15.18Z"/><path class="cls-1" d="M12.6,15.42h0l0,0h0a.13.13,0,0,1,.1.06h0C12.7,15.45,12.65,15.43,12.6,15.42Z"/><path class="cls-1" d="M13,15.4v-1c0-.41,0-.41-.38-.25a.08.08,0,0,0,.08,0c.23-.08.25,0,.25.23a5.93,5.93,0,0,0,0,.73c0,.22,0,.34-.27.33h0l.08,0C13,15.66,13.05,15.64,13,15.4Z"/><path class="cls-1" d="M13,15.3v0c0-.12,0-.25,0-.37Z"/><path class="cls-1" d="M12.71,15.51h0Z"/><path class="cls-1" d="M12.29,14.71h0a3.45,3.45,0,0,0,.35-.5h0A.79.79,0,0,0,12.29,14.71Z"/><path class="cls-2" d="M8.82,2.44h0c.11,0,.07.14.09.22.05.31.15.4.51.37s.32-.11.34-.43S9.7,2.18,9.82,2h0c0-.13-.13-.18-.22-.25l0,0h0a.45.45,0,0,1-.19.05c-.36,0-.45.13-.5.49,0,.07,0,.15,0,.2Z"/><path class="cls-2" d="M9.37,1.74a.45.45,0,0,0,.19-.05h-.2c-.4,0-.54.14-.55.55,0,.06,0,.13,0,.19s0-.13,0-.2C8.92,1.87,9,1.78,9.37,1.74Z"/><path class="cls-2" d="M9.56,1.69l0,0,0,0Z"/><polygon class="cls-2" points="9.56 1.69 9.57 1.68 9.56 1.68 9.56 1.68 9.56 1.69 9.56 1.69 9.56 1.69"/><path class="cls-2" d="M9.83,2h0c-.12.2-.05.41-.06.62S9.68,3,9.42,3,9,3,8.91,2.66c0-.08,0-.18-.09-.22h0c.07.08,0,.18,0,.27,0,.31.14.4.55.39s.42-.11.43-.41V2h0Z"/><path class="cls-2" d="M15.71,8.87c-.17.12-.15.29-.16.46a.58.58,0,0,0,.16.45h0a3.46,3.46,0,0,0,.79.06h0A.71.71,0,0,0,17,9.37l0,0a.6.6,0,0,0-.47-.53h0C16.2,8.84,15.94,8.75,15.71,8.87Z"/><path class="cls-2" d="M16.45,8.8a.6.6,0,0,1,.47.53l0,0v0a.18.18,0,0,1,0-.17c0-.35-.25-.34-.47-.39Z"/><path class="cls-2" d="M16.51,9.83h0c.32-.07.39-.14.44-.47h0A.71.71,0,0,1,16.51,9.83Z"/><path class="cls-2" d="M17,9.37v0Z"/><path class="cls-2" d="M1.94,9.79a4,4,0,0,0,.78.05h0a.43.43,0,0,0,.41-.51h0c0-.41,0-.45-.47-.54h0L2,8.82a1.55,1.55,0,0,0-.26.55h0A3.3,3.3,0,0,1,1.94,9.79Z"/><path class="cls-2" d="M2,8.82H2a.48.48,0,0,0-.24.55A1.55,1.55,0,0,1,2,8.82Z"/><path class="cls-2" d="M1.71,9.38h0a.55.55,0,0,0,.19.4h0A3.3,3.3,0,0,0,1.71,9.38Z"/><path class="cls-2" d="M10.56,11a.06.06,0,0,1,0-.08c-.23-.46-.37-.94-.57-1.4a.19.19,0,0,1,0-.15l.46-.75h0c.28-.55.59-1.07.91-1.6h0c.28-.49.55-1,.86-1.48h0a6.29,6.29,0,0,1,.37-.67l0-.08h0l-.06-.31h0a.58.58,0,0,0-.72-.26c-.33.25-.43.66-.66,1-.09.13-.16.27-.25.41h0L10.1,7.05h0c-.28.51-.57,1-.88,1.52h0A4.17,4.17,0,0,1,9,9a.65.65,0,0,0-.09.45h0l.24.62h0a6.52,6.52,0,0,1,.29.73h0a.58.58,0,0,0,.68.32.24.24,0,0,1,.25.08h0C10.48,11.2,10.66,11.17,10.56,11Z"/><path class="cls-2" d="M10.09,11.16a.58.58,0,0,1-.68-.32h0v0h0c0,.23.15.34.33.36h.32a.54.54,0,0,1,.28,0h0A.24.24,0,0,0,10.09,11.16Z"/><path class="cls-2" d="M9.74,11.23h0Z"/><path class="cls-2" d="M10.56,11c.1.22-.08.25-.21.31h0c.32,0,.32,0,.24-.34a.07.07,0,0,1,0-.05h0A.06.06,0,0,0,10.56,11Z"/></g></g></svg>