<svg xmlns="http://www.w3.org/2000/svg" viewBox="0 0 359.18 335.47"><defs><style>.cls-1{fill:none;}.cls-2{fill:#fbd670;}.cls-3{fill:#efcfb3;}.cls-4{fill:#fe816e;}.cls-5{fill:#b3dc7e;}.cls-6{fill:#fee9a6;}.cls-7{fill:#a9b1bc;}.cls-8{fill:#e5e8ec;}</style></defs><g id="Capa_2" data-name="Capa 2"><g id="Capa_1-2" data-name="Capa 1"><path class="cls-1" d="M47.89,79.33v3a5.81,5.81,0,0,0,0-1C47.92,80.68,47.9,80,47.89,79.33Z"/><path class="cls-2" d="M47.9,118.19a1.09,1.09,0,0,1,0-.18v1.31A3.84,3.84,0,0,0,47.9,118.19Z"/><path class="cls-2" d="M59.83,203.22V185.74c-.16,6.48-1.28,6.39-9.82,5.9-1.24-.07-2-.28-2.12-1.24v12.85a53.31,53.31,0,0,0,5.68.32A54,54,0,0,0,59.83,203.22Z"/><path class="cls-2" d="M59.83,180.86v-.46A3.53,3.53,0,0,0,59.83,180.86Z"/><path class="cls-2" d="M59.83,116.34v-4.71A21.79,21.79,0,0,0,59.83,116.34Z"/><path class="cls-2" d="M59.83,138.49v-1.76A5.06,5.06,0,0,0,55,131.78c-3.12-.37-5.89.37-6.89,3.7a5.56,5.56,0,0,0-.24,1.45v.27c0,2.06,1.47,3.55,3.55,4.6,2.8,1.4,5.6,2.79,8.39,4.2v-3.47C59.39,141.5,59.7,140,59.83,138.49Z"/><path class="cls-2" d="M57.75,107.76c1.14.06,1.86.26,2.08,1V96.15a55.48,55.48,0,0,0-5.65-.32,56.68,56.68,0,0,0-6.29.36v20.87C47.91,107.15,47.91,107.2,57.75,107.76Z"/><path class="cls-2" d="M47.89,184.32a6,6,0,0,0,0-3.53v8.39C48,187.81,47.89,186.38,47.89,184.32Z"/><path class="cls-2" d="M47.89,161.28v1.18c.26,3,1.84,4.79,4.84,5.16s5.89-.37,6.89-3.7a7.1,7.1,0,0,0,.21-1V161.8c-.22-1.85-1.58-3.23-3.53-4.2l-8.41-4.19v3.4C48.41,157.93,48,159.69,47.89,161.28Z"/><path class="cls-3" d="M308.34,185c-12.34,12.52-24.82,24.9-37.26,37.32a4.7,4.7,0,0,0-1.75,3.49c0,2.54,1.26,6-.68,7.38-1.77,1.23-5,.31-7.66.33a1.6,1.6,0,0,0-.38,0c-2.63.48-3.29-.59-3.26-3.21.15-12.72.09-25.43,0-38.15a12.08,12.08,0,0,0-8.38-12c-2.57-.89-3.74-.85-3.65,2.51.23,8.72.07,17.45.07,26.18q0,12.35,0,24.68a29.82,29.82,0,0,0,11.39,24.11c4,3.24,8,6.34,12,9.6a4.23,4.23,0,0,0,4.37,1q26.59-7.38,53.25-14.52c2-.52,2.84-1.21,2.7-3.5a163.18,163.18,0,0,0-17-64.48C311,183.59,310.41,182.87,308.34,185Z"/><path class="cls-4" d="M342.9,112.42a14.9,14.9,0,0,0-21.45-.25c-19.81,19.66-39.48,39.45-59.26,59.14-1.35,1.34-1.49,2.06,0,3.47,5.14,4.92,7.36,11.08,7.23,18.17-.07,4.42,0,8.85,0,14.18l19.78-19.83q26.7-26.7,53.37-53.41C348.76,127.63,348.79,118.49,342.9,112.42Z"/><path class="cls-5" d="M327.83,265.65q-25,6.89-50,13.61c-1.84.49-2.53,1.26-2.52,3.28q.17,18.85,0,37.73c0,2.45.65,3.11,3.09,3.08,9.71-.14,19.42-.06,29.14-.06s19.43-.15,29.14.09c3.14.07,3.4-1,2.95-3.6-3-17.4-6-34.8-8.75-52.23C330.51,265.17,329.74,265.13,327.83,265.65Z"/><path class="cls-6" d="M147.06,191.67c20.08-.13,40.16-.07,60.23-.07,1,0,2-.09,3-.13a51.33,51.33,0,0,1,1.21-23.81c-22.17,0-43.86,0-65.55,0-2.21,0-2.34.94-2.32,2.66.08,6,.2,12,0,17.95C143.48,191.05,144.28,191.69,147.06,191.67Z"/><path class="cls-6" d="M146.66,227.58c13.33-.13,26.66-.06,40-.06,1.22,0,2.38.11,3.43-.94,7.44-7.47,14.94-14.88,23.12-23-23.16,0-45.2,0-67.24,0-2.2,0-2.34.93-2.32,2.66.08,6.1.15,12.21,0,18.31C143.55,226.89,144.17,227.6,146.66,227.58Z"/><path class="cls-4" d="M217.3,259.22c5.11-5.27,10.34-10.43,15.54-15.61.81-.81,1.56-1.55,1.29-2.87-1.29-6.41-.34-12.91-.66-18.28,0-6.05,0-11,0-16,0-1.17.65-2.86-.48-3.42-1.41-.7-2.81.33-3.92,1.45q-16.62,16.65-33.28,33.24c-1.41,1.39-1.38,2.2,0,3.56q9.08,8.86,18,18C215.12,260.64,215.94,260.63,217.3,259.22Z"/><path class="cls-6" d="M203.54,280.71c-4.65,1.84-8.77,3.52-12.93,5.12-9.45,3.65-17.29.58-21.66-8.53-.58-1.2-1-2-2.63-1.94-6.85.11-13.71.09-20.56,0-1.61,0-2.14.43-2.12,2.09q.13,9.9,0,19.81c0,1.62.45,2.11,2.1,2.11q27.84-.08,55.69,0c1.58,0,2.18-.38,2.14-2.07C203.47,292,203.54,286.61,203.54,280.71Z"/><path class="cls-6" d="M238.91,255.42c-1.32-.63-1.91,1.16-2.78,1.91-6.84,5.88-11.89,13.7-19.93,18.27-1,.56-.67,1.52-.67,2.34,0,6.34.07,12.68-.07,19,0,2.05.67,2.46,2.55,2.43q9.51-.17,19,0c2,0,2.49-.59,2.46-2.51-.11-6.46,0-12.93,0-19.4,0-6.21,0-12.43,0-18.65C239.42,257.66,240.09,256,238.91,255.42Z"/><path class="cls-5" d="M70.28,59.91c9.8,0,20.6.07,31.41,0,3.82,0,6-2.54,6-6.58.06-10.58,0-21.17,0-30.88C95.4,34.78,82.64,47.54,70.28,59.91Z"/><path class="cls-6" d="M145.92,263.47c7.22-.1,14.45-.05,21.67,0,1.18,0,2-.08,2.56-1.47,2.86-7.37,5.85-14.7,9-22.48-11.5,0-22.53,0-33.57,0-1.86,0-1.91.9-1.9,2.29,0,6.48.07,12.95,0,19.42C143.61,263,144.12,263.5,145.92,263.47Z"/><path class="cls-3" d="M227.55,191.55a5.66,5.66,0,0,0,5.83-5.24,43.94,43.94,0,0,0,.09-6c.09-7.77,5.21-12.77,13-12.63,1.26,0,2.37.14,3.41-.9,3.5-3.49,7.11-6.86,10.67-10.28l-.58-.84c-3.6,0-7.21.05-10.81,0-4.63-.09-9.17.16-13.5,2.14-10.58,4.84-16.78,17.51-14,29A5.66,5.66,0,0,0,227.55,191.55Z"/><path class="cls-7" d="M189.43,251.78c-1.18-1.18-1.81-1.4-2.52.47-2.21,5.8-4.55,11.55-6.9,17.29a3.82,3.82,0,0,0,.76,4.47,4,4,0,0,0,4.77.94c6.2-2.53,12.42-5,19.37-7.73C199.44,261.77,194.41,256.8,189.43,251.78Z"/><path class="cls-6" d="M263.43,280.24a3.55,3.55,0,0,0-1.47-3.17c-3.35-2.55-6.61-5.22-10.24-8.12a9.44,9.44,0,0,0-.28,1.23q0,10.08,0,20.18c0,9.51,0,9.45,9.74,9,1.81-.08,2.3-.57,2.27-2.34C263.34,291.46,263.37,285.85,263.43,280.24Z"/><path class="cls-4" d="M147.46,48q65.78-.17,131.57-.08c8.38,0,8.24,0,8.39-8.57.05-2.81-.69-3.48-3.48-3.47-22.67.13-45.35.07-68,.07H152c-8.35,0-8.18,0-8.41,8.2C143.5,47.3,144.35,48,147.46,48Z"/><path class="cls-2" d="M47.86,189.56l0-.38v-8.39c-.56-1.69-2-3.12-4.49-4.46-6.09-3.32-9.16-12.69-7.51-19.43.23-.94.62-1.22,1.47-1.21s2,0,3,0c2.36.05,5.24-.7,6.92.39a1.74,1.74,0,0,1,.62.73v-3.4l-1.94-1c-6.45-3.29-10.05-8.53-10-15.81.07-7,3.66-12,9.85-15.09,1.24-.61,1.9-1.24,2.07-2.22V96.19a53.86,53.86,0,0,0,0,107.06V190.4A3.17,3.17,0,0,1,47.86,189.56Z"/><path class="cls-2" d="M59.87,109.85c-.07.49,0,1,0,1.49l0,.29v4.71c.4,3,1.85,5.57,5.65,7.75,6.68,3.81,6.74,11.37,6.35,18.41,0,1-.6,1.23-1.45,1.21s-2,0-3,0c-2.35,0-5.23.7-6.91-.39a1.72,1.72,0,0,1-.65-.79V146l2.28,1.15c6.32,3.27,9.73,8.51,9.66,15.61s-3.62,12.07-9.83,15.09c-1.37.67-2,1.37-2.11,2.55v.46c0,.11,0,.22,0,.35a10.46,10.46,0,0,1,0,1.12c0,1.3,0,2.43,0,3.41v17.48a53.86,53.86,0,0,0,0-107.07v12.61A2.38,2.38,0,0,1,59.87,109.85Z"/><path class="cls-8" d="M311.29,20c0-6.07-1.94-8-8.08-8H213.43c-30.18,0-60.35,0-90.53-.07-2.65,0-3.27.68-3.24,3.28.15,12.46.08,24.93.06,37.4,0,10.83-6.48,18.09-16.67,19.11H59.83v24.4a53.86,53.86,0,0,1,0,107.07v75.84c0,.73,0,1.58,0,2.63s0,1.73,0,2.39v18.86c0,.7,0,1.53,0,2.54s0,1.8,0,2.48v15.33h62.26a11.56,11.56,0,0,0,1.55.09q65.85-.19,131.68-.09c8.09,0,7.91,0,8.17-8,.11-3.28-.73-4-4-4-41.4.13-82.8.06-124.2.16-2.91,0-3.65-.7-3.64-3.63q.15-74.25,0-148.5c0-2.89.68-3.66,3.63-3.65,26.8.13,53.61,0,80.42.12a6.74,6.74,0,0,0,5.22-2.1,32.5,32.5,0,0,1,18.35-9.25c10.17-1.46,20.41-.4,30.62-.6a6.82,6.82,0,0,0,5.19-2.17q16.95-17.16,34.12-34.13a6.56,6.56,0,0,0,2.16-5.18C311.27,74.87,311.3,47.44,311.29,20ZM218.85,131.74H179.21c-14.84,0-29.67-.06-44.51.06-2.45,0-3.08-.63-3.06-3.06.05-9,0-9,9.07-9,27.8,0,55.6,0,83.4-.07,2.8,0,3.5.66,3.45,3.45C227.39,131.74,227.53,131.74,218.85,131.74Zm71.84-23.94q-77.61,0-155.23.08c-3.1,0-3.93-.7-3.84-3.83.23-8.22.07-8.22,8.34-8.22h75.93c26.68,0,53.37,0,80.05-.07,2.79,0,3.51.63,3.46,3.44C299.23,107.8,299.37,107.8,290.69,107.8Zm0-23.94q-77.61,0-155.23.08c-3.11,0-3.93-.71-3.84-3.83.23-8.22.07-8.22,8.34-8.22h75.93c26.69,0,53.37,0,80.05-.07,2.79,0,3.51.63,3.46,3.44C299.23,83.86,299.37,83.86,290.69,83.86ZM295.92,60c-26.93-.11-53.86-.07-80.8-.07-26.68,0-53.36,0-80.05.08-2.8,0-3.5-.67-3.44-3.46.19-9.85.16-19.7,0-29.55,0-2.48.69-3,3.09-3q80.79.11,161.59,0c2.45,0,3.1.64,3.06,3.07-.14,9.85-.18,19.7,0,29.55C299.46,59.4,298.67,60,295.92,60Z"/><path d="M323.27,97.26V20c0-12.67-7.25-19.89-20-19.89Q212,.06,120.75,0a21.59,21.59,0,0,0-16.31,6.8C90.16,21.27,75.7,35.55,61.37,50c-10.44,10.5-13.1,11.49-13.48,21.79-.08,2.09-.06,4.56,0,7.58,0,.67,0,1.35,0,2.08a5.81,5.81,0,0,1,0,1V96.19a56.68,56.68,0,0,1,6.29-.36,55.48,55.48,0,0,1,5.65.32V71.75h43.22c10.19-1,16.65-8.28,16.67-19.11,0-12.47.09-24.94-.06-37.4,0-2.6.59-3.29,3.24-3.28,30.18.11,60.35.07,90.53.07h89.78c6.14,0,8.08,1.91,8.08,8,0,27.43,0,54.86,0,82.29a6.56,6.56,0,0,1-2.16,5.18q-17.16,17-34.12,34.13a6.82,6.82,0,0,1-5.19,2.17c-10.21.2-20.45-.86-30.62.6a32.5,32.5,0,0,0-18.35,9.25,6.74,6.74,0,0,1-5.22,2.1c-26.81-.07-53.62,0-80.42-.12-2.95,0-3.63.76-3.63,3.65q.15,74.25,0,148.5c0,2.93.73,3.63,3.64,3.63,41.4-.1,82.8,0,124.2-.16,3.29,0,4.13.75,4,4-.26,8-.08,8-8.17,8q-65.83,0-131.68.09a11.56,11.56,0,0,1-1.55-.09H59.83V308c0-.68,0-1.49,0-2.48s0-1.84,0-2.54V284.08c0-.66,0-1.44,0-2.39s0-1.9,0-2.63V203.22a54,54,0,0,1-6.26.35,53.31,53.31,0,0,1-5.68-.32V335.47H121.5a9.1,9.1,0,0,1,2.73-.3q113.16.18,226.33.11c2.27,0,4,.29,3.33-3.17-2.81-15.56-5.38-31.16-8-46.75-1.65-9.94-4.16-19.87-4.53-29.87-1-27.85-7.36-54.14-20.56-78.7-1.14-2.11-1.09-3.26.67-5,9.8-9.6,19.43-19.36,29.15-29a27.39,27.39,0,0,0,8.49-18.57C360,106.5,343.08,91.29,323.27,97.26Zm-215.54-44c0,4-2.22,6.54-6,6.58-10.81.11-21.61,0-31.41,0,12.36-12.37,25.12-25.13,37.47-37.5C107.75,32.12,107.79,42.71,107.73,53.29ZM235.65,157.81c4.33-2,8.87-2.23,13.5-2.14,3.6.07,7.21,0,10.81,0l.58.84c-3.56,3.42-7.17,6.79-10.67,10.28-1,1-2.15.92-3.41.9-7.78-.14-12.9,4.86-13,12.63a43.94,43.94,0,0,1-.09,6,6,6,0,0,1-11.74.51C218.87,175.32,225.07,162.65,235.65,157.81Zm-92,12.46c0-1.72.11-2.67,2.32-2.66,21.69.08,43.38,0,65.55,0a51.33,51.33,0,0,0-1.21,23.81c-1,0-2,.13-3,.13-20.07,0-40.15-.06-60.23.07-2.78,0-3.58-.62-3.46-3.45C143.84,182.25,143.72,176.26,143.64,170.27Zm0,35.91c0-1.73.12-2.67,2.32-2.66,22,.09,44.08,0,67.24,0-8.18,8.13-15.68,15.54-23.12,23-1.05,1-2.21.94-3.43.94-13.33,0-26.66-.07-40,.06-2.49,0-3.11-.69-3-3.09C143.79,218.39,143.72,212.28,143.64,206.18Zm0,35.56c0-1.39,0-2.3,1.9-2.29,11,.08,22.07,0,33.57,0-3.13,7.78-6.12,15.11-9,22.48-.53,1.39-1.38,1.48-2.56,1.47-7.22,0-14.45-.07-21.67,0-1.8,0-2.31-.52-2.29-2.31C143.73,254.69,143.7,248.22,143.66,241.74Zm57.77,57.64q-27.84-.08-55.69,0c-1.65,0-2.12-.49-2.1-2.11q.12-9.9,0-19.81c0-1.66.51-2.11,2.12-2.09,6.85.08,13.71.1,20.56,0,1.58,0,2.05.74,2.63,1.94,4.37,9.11,12.21,12.18,21.66,8.53,4.16-1.6,8.28-3.28,12.93-5.12,0,5.9-.07,11.25,0,16.6C203.61,299,203,299.38,201.43,299.38ZM185.54,275a4,4,0,0,1-4.77-.94,3.82,3.82,0,0,1-.76-4.47c2.35-5.74,4.69-11.49,6.9-17.29.71-1.87,1.34-1.65,2.52-.47,5,5,10,10,15.48,15.44C198,270,191.74,272.42,185.54,275Zm10.25-33.67c-1.4-1.36-1.43-2.17,0-3.56q16.71-16.56,33.28-33.24c1.11-1.12,2.51-2.15,3.92-1.45,1.13.56.46,2.25.48,3.42.05,5,0,10,0,16,.32,5.37-.63,11.87.66,18.28.27,1.32-.48,2.06-1.29,2.87-5.2,5.18-10.43,10.34-15.54,15.61-1.36,1.41-2.18,1.42-3.56,0Q204.88,250.14,195.79,241.28Zm43.67,36.2c0,6.47-.07,12.94,0,19.4,0,1.92-.47,2.55-2.46,2.51q-9.51-.18-19,0c-1.88,0-2.59-.38-2.55-2.43.14-6.34,0-12.68.07-19,0-.82-.32-1.78.67-2.34,8-4.57,13.09-12.39,19.93-18.27.87-.75,1.46-2.54,2.78-1.91s.51,2.24.52,3.41C239.49,265.05,239.46,271.27,239.46,277.48Zm21.71,21.92c-9.74.41-9.74.47-9.74-9q0-10.1,0-20.18a9.44,9.44,0,0,1,.28-1.23c3.63,2.9,6.89,5.57,10.24,8.12a3.55,3.55,0,0,1,1.47,3.17c-.06,5.61-.09,11.22,0,16.82C263.47,298.83,263,299.32,261.17,299.4Zm69.72-31.85c2.79,17.43,5.76,34.83,8.75,52.23.45,2.59.19,3.67-2.95,3.6-9.71-.24-19.43-.09-29.14-.09s-19.43-.08-29.14.06c-2.44,0-3.12-.63-3.09-3.08q.18-18.87,0-37.73c0-2,.68-2.79,2.52-3.28q25-6.72,50-13.61C329.74,265.13,330.51,265.17,330.89,267.55Zm-1.78-17.34c.14,2.29-.74,3-2.7,3.5q-26.64,7.17-53.25,14.52a4.23,4.23,0,0,1-4.37-1c-3.93-3.26-8-6.36-12-9.6a29.82,29.82,0,0,1-11.39-24.11q0-12.34,0-24.68c0-8.73.16-17.46-.07-26.18-.09-3.36,1.08-3.4,3.65-2.51a12.08,12.08,0,0,1,8.38,12c0,12.72.1,25.43,0,38.15,0,2.62.63,3.69,3.26,3.21a1.6,1.6,0,0,1,.38,0c2.61,0,5.89.9,7.66-.33,1.94-1.35.65-4.84.68-7.38a4.7,4.7,0,0,1,1.75-3.49C283.52,209.88,296,197.5,308.34,185c2.07-2.11,2.65-1.39,3.73.75A163.18,163.18,0,0,1,329.11,250.21Zm13.43-116.32q-26.61,26.79-53.37,53.41l-19.78,19.83c0-5.33-.06-9.76,0-14.18.13-7.09-2.09-13.25-7.23-18.17-1.47-1.41-1.33-2.13,0-3.47,19.78-19.69,39.45-39.48,59.26-59.14a14.9,14.9,0,0,1,21.45.25C348.79,118.49,348.76,127.63,342.54,133.89Z"/><path d="M135.07,60c26.69-.12,53.37-.08,80.05-.08,26.94,0,53.87,0,80.8.07,2.75,0,3.54-.58,3.48-3.42-.2-9.85-.16-19.7,0-29.55,0-2.43-.61-3.07-3.06-3.07q-80.79.12-161.59,0c-2.4,0-3.13.55-3.09,3,.15,9.85.18,19.7,0,29.55C131.57,59.32,132.27,60,135.07,60ZM152,36h63.91c22.68,0,45.36.06,68-.07,2.79,0,3.53.66,3.48,3.47-.15,8.57,0,8.57-8.39,8.57q-65.79,0-131.57.08c-3.11,0-4-.72-3.87-3.85C143.82,36,143.65,36,152,36Z"/><path d="M135.46,83.94q77.61-.16,155.23-.08c8.68,0,8.54,0,8.71-8.6.05-2.81-.67-3.46-3.46-3.44-26.68.11-53.36.07-80.05.07H140c-8.27,0-8.11,0-8.34,8.22C131.53,83.23,132.35,83.94,135.46,83.94Z"/><path d="M135.46,107.88q77.61-.16,155.23-.08c8.68,0,8.54,0,8.71-8.6.05-2.81-.67-3.45-3.46-3.44-26.68.12-53.37.07-80.05.07H140c-8.27,0-8.11,0-8.34,8.22C131.53,107.18,132.36,107.89,135.46,107.88Z"/><path d="M140.71,119.77c-9.12,0-9,0-9.07,9,0,2.43.61,3.08,3.06,3.06,14.84-.12,29.67-.06,44.51-.06h39.64c8.68,0,8.54,0,8.71-8.59.05-2.79-.65-3.46-3.45-3.45C196.31,119.82,168.51,119.77,140.71,119.77Z"/><path d="M47.86,189.56a3.17,3.17,0,0,0,0,.84c.16,1,.88,1.17,2.12,1.24,8.54.49,9.66.58,9.82-5.9,0-1,0-2.11,0-3.41a10.46,10.46,0,0,0,0-1.12c0-.13,0-.24,0-.35a3.53,3.53,0,0,1,0-.46c.07-1.18.74-1.88,2.11-2.55,6.21-3,9.76-8.11,9.83-15.09s-3.34-12.34-9.66-15.61L59.83,146c-2.79-1.41-5.59-2.8-8.39-4.2-2.08-1.05-3.5-2.54-3.55-4.6v-.27a5.56,5.56,0,0,1,.24-1.45c1-3.33,3.77-4.07,6.89-3.7a5.06,5.06,0,0,1,4.81,4.95v1.76c-.13,1.46-.44,3,0,4a1.72,1.72,0,0,0,.65.79c1.68,1.09,4.56.35,6.91.39,1,0,2,0,3,0s1.4-.21,1.45-1.21c.39-7,.33-14.6-6.35-18.41-3.8-2.18-5.25-4.74-5.65-7.75a21.79,21.79,0,0,1,0-4.71l0-.29c0-.49-.06-1,0-1.49a2.38,2.38,0,0,0,0-1.09c-.22-.74-.94-.94-2.08-1-9.84-.56-9.84-.61-9.86,9.3v1a1.09,1.09,0,0,0,0,.18,3.84,3.84,0,0,1,0,1.13c-.17,1-.83,1.61-2.07,2.22-6.19,3-9.78,8.1-9.85,15.09-.07,7.28,3.53,12.52,10,15.81l1.94,1,8.41,4.19c2,1,3.31,2.35,3.53,4.2v1.08a7.1,7.1,0,0,1-.21,1c-1,3.33-3.77,4.08-6.89,3.7s-4.58-2.16-4.84-5.16v-1.18c.11-1.59.52-3.35,0-4.47a1.74,1.74,0,0,0-.62-.73c-1.68-1.09-4.56-.34-6.92-.39-1,0-2,0-3,0s-1.24.27-1.47,1.21c-1.65,6.74,1.42,16.11,7.51,19.43,2.46,1.34,3.93,2.77,4.49,4.46a6,6,0,0,1,0,3.53c0,2.06.08,3.49,0,4.86Z"/></g></g></svg>