<svg xmlns="http://www.w3.org/2000/svg" xmlns:xlink="http://www.w3.org/1999/xlink" viewBox="0 0 179.13 111.97"><defs><style>.cls-1{fill:url(#Degradado_sin_nombre_21);}.cls-2{font-size:35px;fill:#fff;font-family:Arial-BoldMT, Arial;font-weight:700;}.cls-3{fill:#a0c840;}.cls-4{fill:#445f04;}.cls-5{fill:#f8faf6;}.cls-6{fill:#f9faf6;}.cls-7{fill:#f9faf7;}.cls-8{fill:#b9ef60;}.cls-9{fill:#738600;}.cls-10{fill:#44541d;}.cls-11{fill:#5d7425;}.cls-12{fill:#738700;}.cls-13{fill:#90b43a;}.cls-14{fill:#3e4d1a;}</style><linearGradient id="Degradado_sin_nombre_21" x1="89.96" y1="-58.05" x2="89.15" y2="174.68" gradientUnits="userSpaceOnUse"><stop offset="0.24" stop-color="#010101"/><stop offset="0.9" stop-color="#fff"/></linearGradient></defs><g id="Capa_2" data-name="Capa 2"><g id="Capa_1-2" data-name="Capa 1"><path class="cls-1" d="M172.78,0H6.35A6.35,6.35,0,0,0,0,6.35v99.27A6.35,6.35,0,0,0,6.35,112H172.78a6.35,6.35,0,0,0,6.35-6.35V6.35A6.35,6.35,0,0,0,172.78,0Z"/><text class="cls-2" transform="translate(30.61 35.34)">EFECT</text><path class="cls-3" d="M117.25,57.83l4.58,1,16.82,3.64c.22,0,.28.13.27.3,0,.41,0,.82,0,1.22,0,.06,0,.15,0,.18s.12.19,0,.29a.5.5,0,0,0-.1.33c0,.29,0,.58,0,.87,0,.12,0,.24.15.29s.05.07,0,.11c-.25.26-.16.57-.17.86s0,.32,0,.48,0,.22.15.27.07.06,0,.11c-.27.29-.15.64-.17,1a3.23,3.23,0,0,0,0,.44s0,.11,0,.12c.31.14.09.28,0,.42s0,.24,0,.37,0,.49,0,.74,0,.23.14.29.06.06,0,.1c-.25.27-.16.57-.17.86a5,5,0,0,0,0,.55s0,.13,0,.14c.28.1.1.23,0,.34a.38.38,0,0,0-.07.25c0,.3,0,.6,0,.89,0,.12,0,.26.15.31s.05.08,0,.11c-.22.24-.16.51-.16.78s0,.4,0,.61c0,0,0,.13,0,.14.29.12.1.25,0,.38a.45.45,0,0,0-.05.25c0,.31,0,.61,0,.92,0,.1,0,.2.14.25s.08.06,0,.1c-.28.31-.15.66-.17,1a2.94,2.94,0,0,0,0,.42s0,.11,0,.12c.3.14.1.28,0,.42s0,.23,0,.34a6,6,0,0,1,0,.95c-.07,0-.07-.09-.07-.15q0-.42,0-.81l-1.11,1.72c-.39.59-.77,1.19-1.16,1.79q-1.35,2.05-2.68,4.13c-.53.8-1,1.6-1.56,2.4l-2.7,4.18-2,3q-1.35,2.1-2.71,4.18l-1.61,2.5c-.41.62-.8,1.25-1.22,1.86a.43.43,0,0,1-.33.25c-.1,0-.11.11-.17.17a.31.31,0,0,1-.25,0l-6.18-1.34-4.73-1-9.47-2-6.4-1.39-9.47-2.06-6.82-1.47-9-2-5.74-1.25c-3.22-.7-6.45-1.38-9.67-2.1q-5.57-1.19-11.11-2.41l-5.38-1.16c-.18,0-.26,0-.26.16s0,.58,0,.87c0,.08,0,.19-.11.23-.09-.13,0-.28,0-.42a7.8,7.8,0,0,0,0-1v-.14a8.66,8.66,0,0,0,0-1.61v-.08c.06-.49,0-1,0-1.45a.31.31,0,0,0,0-.21v-.09a8.66,8.66,0,0,0,0-1.61v-.13a8.66,8.66,0,0,0,0-1.61v-.09c.06-.48,0-1,0-1.44a.34.34,0,0,0,0-.22v-.08c.06-.48,0-1,0-1.45a.31.31,0,0,0,0-.21v-.09a8.66,8.66,0,0,0,0-1.61V76c.06-.48,0-1,0-1.44a.31.31,0,0,0,0-.21V74.3c.06-.48,0-1,0-1.44,0-.07,0-.15,0-.21v-.09c.08-.07.06-.15.06-.23,0-.43,0-.86,0-1.29,0-.08,0-.16,0-.23s.11,0,.13,0a4.73,4.73,0,0,0,0,1.19c0,.12.12.15.23.17l2.44.53L50.14,75c1.21.26,2.41.53,3.63.77s2.39.53,3.59.79l9.45,2.05,7.38,1.6,9.49,2.06L90,83.65l9.57,2.08,6.33,1.37,9.51,2.06,5.69,1.24c.17,0,.35.08.46-.1.46-.64.86-1.3,1.28-2l2.74-4.22,2.09-3.23c.86-1.33,1.72-2.67,2.59-4,.52-.79,1-1.58,1.53-2.37l2.73-4.21c.54-.83,1.07-1.66,1.61-2.48.78-1.22,1.57-2.43,2.35-3.64,0,0,.05-.11.11-.12.28-.07.22-.26.22-.43s0-.58,0-.88c-.52.82-1.05,1.63-1.58,2.44q-1.33,2.07-2.68,4.13c-.54.83-1.07,1.66-1.6,2.49l-2.66,4.09-1.57,2.43L126,82.5c-.53.81-1,1.62-1.57,2.43-.88,1.36-1.75,2.72-2.65,4.07-.06.1-.11.2-.28.21-.51-.06-1-.2-1.49-.3l-9.6-2.08L97.93,84.11l-8.8-1.9-11.5-2.5-8.77-1.9L56.25,75.07l-2.31-.5c-.09,0-.25,0-.28-.14a2.16,2.16,0,0,1,.57-.14l4.23-1.12c.32-.08.64-.15,1-.25a.74.74,0,0,1,.36,0l7.46,1.62L78.49,77l7.66,1.66,10,2.17,7.49,1.62,9.19,2,6.07,1.32a.31.31,0,0,0,.38-.14c.66-1,1.33-2.07,2-3.1l3-4.7c.7-1.07,1.39-2.15,2.09-3.23l2.58-4,2.07-3.2c.71-1.09,1.41-2.19,2.14-3.29.36-.55.31-.43-.31-.57-3-.67-6-1.31-9.06-2l-5.71-1.24-5.43-1.18c-.11,0-.23,0-.28-.14s.15-.12.25-.14l4.13-1.09A.93.93,0,0,1,117.25,57.83Z"/><path class="cls-4" d="M121.51,108c-.61-.18-1.24-.29-1.86-.42L59.45,94.5,54,93.31a1.52,1.52,0,0,1-.2-.06.24.24,0,0,1-.08-.2c0-.31,0-.63,0-.94,0-.08,0-.18.14-.21l3.72.8,8,1.74,13.69,3,17.26,3.74,15.87,3.44,9,1.94c.06,0,.13.07.2,0s.12.08.12.14a3.82,3.82,0,0,1-.07,1.26,0,0,0,0,1,0,0Z"/><path class="cls-5" d="M36.89,72.65a.07.07,0,0,1,0,0c0,.51,0,1,0,1.53,0,0,0,0,0,.07Z"/><path class="cls-5" d="M36.89,84.76a4.87,4.87,0,0,1,0,1.66Z"/><path class="cls-6" d="M36.89,79.57a4.87,4.87,0,0,1,0,1.66Z"/><path class="cls-6" d="M36.89,74.39a4.81,4.81,0,0,1,0,1.65Z"/><path class="cls-5" d="M36.89,77.83l0,0c0,.52,0,1,0,1.55,0,0,0,0,0,.06Z"/><path class="cls-5" d="M36.89,76.13a4.58,4.58,0,0,1,0,1.61Z"/><path class="cls-5" d="M36.89,81.32a4.58,4.58,0,0,1,0,1.61Z"/><path class="cls-7" d="M36.89,83.06a4.58,4.58,0,0,1,0,1.61Z"/><path class="cls-6" d="M36.89,86.5a4.58,4.58,0,0,1,0,1.61Z"/><path class="cls-8" d="M59.42,73a2.11,2.11,0,0,1-.66.2l-4.1,1.09a3.7,3.7,0,0,1-1,.2.39.39,0,0,1-.3,0L46.1,72.86l-5.76-1.24L37.46,71c-.13,0-.27,0-.35-.14l-.12,0c.43-.68.85-1.36,1.29-2l2.5-3.86,7.34-11.34q2.07-3.21,4.16-6.42l1.86-2.87c.06-.1.11-.15.28-.11,3.12.69,6.25,1.36,9.37,2l16.42,3.56,19.91,4.32L117,57.76l.25.07a3.55,3.55,0,0,0-1,.2l-3.57.94c-.07,0-.16,0-.2.09a.53.53,0,0,1-.41,0l-4.66-1-4.81-1L92.11,54.72l-7.36-1.59L74.43,50.89l-6.49-1.41-9.34-2-1.38-.3c-.19,0-.3,0-.39.13-.42.63-.83,1.27-1.24,1.91L52.92,53.3l-1.61,2.51c-1,1.57-2,3.15-3.07,4.73-.53.8-1.05,1.61-1.57,2.42L44,67.12c-.41.63-.82,1.27-1.22,1.91-.12.19-.11.2.14.26,1.37.31,2.75.6,4.12.9l10.37,2.25,1.75.38C59.23,72.84,59.36,72.85,59.42,73Z"/><path class="cls-9" d="M121.62,108c0-.39,0-.78,0-1.17,0-.08,0-.16,0-.23s0-.25.24-.18c.09,0,.12-.07.16-.13l1.61-2.48,4.1-6.34q1.38-2.15,2.78-4.29,2.11-3.28,4.25-6.57L137.05,83c.59-.91,1.18-1.82,1.83-2.72v1.09c-.67,1.05-1.34,2.1-2,3.14l-15.07,23.27Z"/><path class="cls-10" d="M59.42,73l-3.7-.81-13-2.81c-.2,0-.25-.08-.14-.25,1.83-2.81,3.64-5.62,5.46-8.43l8.73-13.46c.08-.13.16-.15.32-.12l24.53,5.32,27.12,5.89,3.42.74.26,0c.71.2,1.44.33,2.17.49l13.48,2.92c1.76.38,3.51.77,5.27,1.14.2,0,.21.09.12.23l-4.05,6.23-2.58,4L120.5,83.9c-.4.61-.79,1.22-1.18,1.83a.25.25,0,0,1-.32.14c-3.46-.76-6.92-1.5-10.38-2.25l-12.89-2.8L78.47,77.08,62.6,73.64Z"/><path class="cls-4" d="M121.62,90.3c0,.2-.17.24-.42.18l-15-3.26L88.92,83.48l-15-3.26L54,75.91l-.22-.08a.25.25,0,0,1-.08-.16,8.53,8.53,0,0,1,0-1c0-.11.06-.2.24-.14l4.18.89,8.53,1.85,14.56,3.17,10.38,2.24,13.53,2.94,10.15,2.2,6.29,1.36a.17.17,0,0,1,.13.18A2.36,2.36,0,0,1,121.62,90.3Z"/><path class="cls-4" d="M53.93,78.09l3.73.8,7.88,1.71,13.85,3,16.23,3.52L113.31,91l7.91,1.72c.11,0,.23.1.35,0s.12.1.12.16a2,2,0,0,1-.07.88c0,.24-.2.26-.47.2l-18.28-4L84.82,86.06,70,82.83,53.9,79.35l-.12,0a.25.25,0,0,1-.09-.2c0-.28,0-.55,0-.83C53.7,78.17,53.71,78,53.93,78.09Z"/><path class="cls-4" d="M121.62,92c-.1.27-.11.28-.43.21l-12.36-2.68L92.6,86,75.93,82.4,59.05,78.74l-5-1.1-.25-.07a.27.27,0,0,1-.08-.2c0-.28,0-.55,0-.83,0-.09,0-.22.19-.19l4.16.89L75.28,81l17.46,3.79,17.7,3.84L121.3,91a.78.78,0,0,0,.26,0,.13.13,0,0,1,.13.14A1.85,1.85,0,0,1,121.62,92Z"/><path class="cls-4" d="M121.62,97.18c-.13.29-.13.29-.52.2l-14-3-16.5-3.57L75.72,87.54,58,83.7l-4.11-.9-.14,0a.3.3,0,0,1-.08-.23q0-.39,0-.78c0-.08,0-.19.14-.22l4,.85,17.08,3.7,14.25,3.09L106.82,93l14.05,3a2.7,2.7,0,0,0,.7.12c.12,0,.12.09.12.16A1.84,1.84,0,0,1,121.62,97.18Z"/><path class="cls-4" d="M121.62,98.88c-.11.31-.12.32-.49.24l-17-3.69-17.7-3.84-15-3.27L53.9,84.53a.28.28,0,0,1-.13,0,.22.22,0,0,1-.08-.2c0-.27,0-.55,0-.82,0-.1,0-.22.2-.2l2.8.6,8.73,1.89L79,88.71l10.19,2.2,13.72,3,16.43,3.56,2,.44c.08,0,.16.06.24,0s.11.08.12.13A2,2,0,0,1,121.62,98.88Z"/><path class="cls-4" d="M121.62,104.07c-.14.31-.14.31-.54.22l-11.17-2.42L93.57,98.33,76.34,94.59l-14-3L53.9,89.72l-.13,0a.27.27,0,0,1-.08-.2c0-.28,0-.55,0-.83,0-.09,0-.21.19-.19l4.17.89,8,1.74,13.69,3L97,97.8l15.87,3.44,8.42,1.83a.58.58,0,0,0,.26,0c.14,0,.13.11.13.18A1.76,1.76,0,0,1,121.62,104.07Z"/><path class="cls-4" d="M53.94,85l2.83.61,16.82,3.64,14,3L104.53,96l14,3,2.77.6c.07,0,.15.07.22,0s.12.1.12.17a1.8,1.8,0,0,1-.07.83c-.06.19-.13.31-.45.24-4.87-1.07-9.75-2.12-14.63-3.18L90.1,94.12,70.79,89.93l-12.4-2.69-4.57-1a.22.22,0,0,1-.13-.22c0-.27,0-.55,0-.82S53.72,85,53.94,85Z"/><path class="cls-4" d="M53.83,86.72l4,.85,16,3.47,13.27,2.88,18.11,3.93,16.15,3.51c.06,0,.13.06.2,0s.12.08.12.14a1.67,1.67,0,0,1-.07.83c-.1.31-.14.32-.51.24l-7.7-1.67-13.84-3L82.31,94.16,67.47,90.94,53.89,88l-.12,0a.27.27,0,0,1-.08-.22q0-.39,0-.78C53.7,86.86,53.67,86.74,53.83,86.72Z"/><path class="cls-4" d="M53.94,90.2l4.19.9,17.05,3.69,15.87,3.45,14.84,3.22,15.33,3.32c.11,0,.23.11.35,0s.11.07.11.12a1.6,1.6,0,0,1-.06.84c-.11.33-.12.34-.48.26l-16.59-3.59L87.26,98.69l-14.05-3L57.34,92.2l-3.52-.77a.23.23,0,0,1-.13-.22c0-.28,0-.55,0-.82S53.72,90.14,53.94,90.2Z"/><path class="cls-4" d="M121.62,95.44c-.1.28-.13.3-.42.24l-8.65-1.88-13.64-3L81.68,87.1,64.79,83.44,54,81.1l-.17,0a.19.19,0,0,1-.13-.18,7.37,7.37,0,0,1,0-.94.17.17,0,0,1,.07-.14l2.34.49L65,82.2l13.71,3L95.1,88.74l14.05,3,12.09,2.63c.11,0,.21.09.33,0s.11.07.11.12A1.76,1.76,0,0,1,121.62,95.44Z"/><path class="cls-11" d="M53.94,74.52c-.18,0-.17.09-.17.19v1.12c-.63-.08-1.24-.24-1.85-.38L40.31,72.94l-3.18-.69c-.1,0-.14,0-.14-.12V71c0-.06,0-.11.12-.12l15.6,3.39.95.2C53.73,74.51,53.86,74.45,53.94,74.52Z"/><path class="cls-11" d="M53.83,91.9c-.1.08,0,.17-.06.25v1.1l-3.06-.65L37.22,89.68,37,89.62c0-.39,0-.78,0-1.17,0-.16,0-.2.23-.16l4.72,1,5.87,1.28,5.74,1.25C53.64,91.86,53.75,91.84,53.83,91.9Z"/><path class="cls-11" d="M53.94,85c-.07,0-.16,0-.16.09a4.36,4.36,0,0,0,0,1.14L45.9,84.53l-6-1.3-2.75-.59c-.15,0-.19-.08-.19-.2,0-.31,0-.61,0-.92s.07-.19.24-.15l3.64.79L47,83.49,53.9,85S53.92,85,53.94,85Z"/><path class="cls-11" d="M53.88,76.35c-.14,0-.11.11-.11.19v1L51.2,77l-6.05-1.31c-2.6-.57-5.21-1.14-7.82-1.69-.26-.06-.37-.13-.34-.36a6.09,6.09,0,0,0,0-.74c0-.26,0-.26.34-.19l5.05,1.1,11.2,2.44C53.68,76.3,53.79,76.28,53.88,76.35Z"/><path class="cls-11" d="M53.93,78.09c-.15,0-.16.07-.16.17,0,.35,0,.7,0,1l-4.16-.89-5.31-1.15-7.13-1.54c-.14,0-.2-.09-.19-.21,0-.31,0-.61,0-.92,0-.15,0-.18.24-.14l4.61,1,5.31,1.15L53.66,78C53.75,78.05,53.86,78,53.93,78.09Z"/><path class="cls-11" d="M53.94,90.2c-.07,0-.16,0-.16.08a4.44,4.44,0,0,0,0,1.15l-3.13-.67-12-2.61c-.49-.11-1-.23-1.46-.32-.15,0-.19-.09-.19-.21q0-.47,0-.93c0-.16.06-.17.21-.14l3.46.76L46,88.46l7.92,1.72Z"/><path class="cls-11" d="M53.89,83.27c-.14,0-.12.11-.12.19v1l-2.1-.44L39.59,81.44l-2.36-.52c-.16,0-.25-.08-.24-.24a8.81,8.81,0,0,0,0-.89c0-.16,0-.19.24-.15,2.2.49,4.41,1,6.61,1.44l10,2.17Z"/><path class="cls-11" d="M53.83,81.53c-.1.09,0,.19-.06.29v.94c-.61-.09-1.2-.25-1.8-.37L40.36,79.87l-3.23-.7c-.13,0-.14-.08-.14-.16,0-.31,0-.61,0-.92s0-.22.26-.17l3.31.72L46.66,80l7.13,1.55Z"/><path class="cls-11" d="M53.83,86.72c-.11.1,0,.22,0,.33,0,.3,0,.6,0,.89-.67-.09-1.32-.26-2-.4L40.13,85l-3-.64c-.15,0-.2-.07-.19-.2,0-.28,0-.56,0-.85s0-.27.31-.2l3.39.73,11.07,2.4Z"/><path class="cls-11" d="M53.77,79.79v1a.33.33,0,0,0,.06.25l-7.72-1.67-6-1.29-3-.65c-.11,0-.15-.06-.15-.14q0-.51,0-1c0-.19.15-.11.23-.09l2.26.48L45.63,78l7.89,1.71Z"/><path class="cls-11" d="M53.88,88.46c-.14,0-.11.11-.11.19v1l-2-.41L45.72,88l-8.51-1.84c-.17,0-.23-.1-.22-.24s0-.54,0-.81,0-.28.34-.2L42.56,86l11.28,2.44Z"/><path class="cls-9" d="M121.62,90.3v-.9a.28.28,0,0,0-.06-.23c.21-.09.25-.27.35-.42,1.22-1.87,2.42-3.74,3.63-5.61l3.29-5.08,3.74-5.77,3.3-5.09q1.4-2.17,2.81-4.35a.5.5,0,0,1,.19-.2c0,.46,0,.9,0,1.34,0,0,0,.11-.05.09-.24-.06-.25.1-.31.2-1.47,2.27-2.94,4.55-4.42,6.82l-2.77,4.29-4.25,6.55-2.78,4.29-2.58,4Z"/><path class="cls-12" d="M121.62,97.18c0-.27,0-.53,0-.8,0-.07,0-.15,0-.2s0-.2.21-.14.14-.06.18-.12c.42-.64.84-1.28,1.25-1.92l4-6.18,2.35-3.61,4.74-7.33L137,72.64,138.78,70s0,0,.09-.12c0,.38,0,.7,0,1,0,0,0,.12-.05.1-.24-.07-.25.1-.31.19L134.08,78l-2.76,4.27L127,88.93c-.93,1.43-1.85,2.86-2.78,4.28l-2.52,3.88Z"/><path class="cls-12" d="M121.62,104.07c0-.26,0-.51,0-.76,0-.07,0-.15,0-.21s0-.24.25-.18.12-.07.16-.13l1.63-2.51c1.53-2.35,3.05-4.71,4.57-7.06.72-1.12,1.45-2.24,2.18-3.36L134.76,83l2.79-4.3,1.23-1.88s0,0,.09-.11c0,.37,0,.7,0,1,0,0,0,.11-.06.09-.22-.06-.23.09-.29.18-1.34,2.06-2.67,4.13-4,6.19l-2.79,4.31-4.24,6.53-2.78,4.31-3,4.61Z"/><path class="cls-12" d="M121.62,93.74c0-.28,0-.56,0-.84,0-.07,0-.14,0-.2s0-.15.12-.12.25-.07.32-.18l3.32-5.13L128.11,83q1.92-3,3.83-5.92l3.26-5,3.59-5.53.08-.09c0,.37,0,.7,0,1,0,0,0,.09-.05.08-.27-.08-.26.12-.33.23l-4.4,6.78-2.77,4.29c-1.44,2.22-2.87,4.44-4.31,6.65l-2.78,4.29-2.52,3.88Z"/><path class="cls-12" d="M121.62,100.62c0-.26,0-.53,0-.79,0-.07,0-.15,0-.21s0-.2.2-.14.15-.06.19-.12c.41-.63.83-1.26,1.24-1.9l4-6.19L130,87q2.16-3.34,4.33-6.69l2.76-4.27,1.74-2.67.08-.08c0,.36,0,.68,0,1,0,0,0,.12-.05.1-.26-.07-.25.12-.32.21l-4.41,6.81-2.76,4.27L127,92.37l-2.77,4.27-2.53,3.9Z"/><path class="cls-12" d="M121.62,95.44c0-.27,0-.53,0-.8,0-.07,0-.14,0-.2s0-.19.13-.14.23,0,.29-.13l3.55-5.5,2.8-4.32,3.81-5.89,2.77-4.26,3.84-5.94.11-.13V69.2s0,.07-.06,0c-.23-.09-.24.1-.3.18L137,71.81l-4,6.25c-.93,1.45-1.87,2.89-2.8,4.33l-3.8,5.86L123,93.34l-1.26,1.94C121.72,95.34,121.7,95.4,121.62,95.44Z"/><path class="cls-12" d="M121.62,92c0-.27,0-.54,0-.8,0-.07,0-.15,0-.21s0-.17.12-.14c.27.11.27-.08.34-.18,1.5-2.32,3-4.63,4.49-7l2.76-4.24c1.44-2.23,2.88-4.47,4.33-6.7l2.28-3.51,2.86-4.43s0-.08.13-.09c0,.33,0,.65,0,1,0,0,0,.12-.06.09s-.21,0-.26.14l-1.84,2.84-4.27,6.59-2.24,3.45-4.36,6.75-2.76,4.24-1.33,2.06A1.36,1.36,0,0,1,121.62,92Z"/><path class="cls-12" d="M121.62,105.77c0-.25,0-.5,0-.76,0-.06,0-.14,0-.2s0-.22.22-.16.14-.07.18-.12l1.62-2.53q2.16-3.31,4.31-6.65c.78-1.2,1.56-2.39,2.33-3.59L135,84.41c.72-1.12,1.45-2.24,2.18-3.36.55-.84,1.09-1.69,1.7-2.53v1s0,.07-.05.06c-.25-.09-.25.1-.32.2l-2.78,4.28q-2.35,3.66-4.73,7.31l-2.76,4.27-4.32,6.67c-.71,1.09-1.42,2.17-2.12,3.26A.54.54,0,0,1,121.62,105.77Z"/><path class="cls-12" d="M121.62,102.33c0-.26,0-.51,0-.76,0-.07,0-.15,0-.21s0-.21.22-.15.14-.07.18-.13l1.4-2.15c1.36-2.12,2.73-4.23,4.1-6.35l2.77-4.29,4.26-6.57c.92-1.42,1.85-2.84,2.77-4.27.51-.79,1-1.58,1.6-2.37v1s0,.07-.05.06c-.26-.09-.25.1-.32.2-.93,1.42-1.85,2.85-2.78,4.28q-2.35,3.66-4.73,7.31l-2.74,4.22c-1.45,2.24-2.89,4.48-4.34,6.71-.71,1.09-1.42,2.18-2.12,3.27A.54.54,0,0,1,121.62,102.33Z"/><path class="cls-12" d="M121.62,98.88c0-.26,0-.53,0-.79,0-.07,0-.15,0-.21s.05-.14.11-.13c.27.08.28-.11.36-.22q2.23-3.47,4.48-6.92l2.28-3.52,4.32-6.67,2.76-4.27,2.89-4.46.09-.11c0,.4,0,.73,0,1.07a.07.07,0,0,1,0,0c-.31-.09-.3.16-.37.27-.51.75-1,1.52-1.49,2.28l-4.1,6.35-2.8,4.32-3.74,5.77-3.3,5.1-1.26,1.94S121.7,98.85,121.62,98.88Z"/><path class="cls-3" d="M106.92,60.4l5.88,1.28L123.59,64c.09,0,.29,0,.12.17-.94,1-.67,2.22.5,3a5.22,5.22,0,0,0,2,.83c.2,0,.24.09.14.25q-2,3.12-4.06,6.24-1.29,2-2.57,4c-.42.65-.85,1.29-1.26,1.94a.24.24,0,0,1-.31.11,7.47,7.47,0,0,0-4.65.4,3.19,3.19,0,0,0-1.44,1.09.34.34,0,0,1-.41.13L99.45,79.55c-2.32-.5-4.64-1-7-1.54l1.08-.18a24.62,24.62,0,0,0,8.87-3.22,12,12,0,0,0,4.16-4.11,6.86,6.86,0,0,0,1-4,8,8,0,0,0-2.3-4.95l-.54-.56c.32-.11.66-.19,1-.28A12,12,0,0,0,106.92,60.4Z"/><path class="cls-8" d="M63.89,71.82c-.85-.18-1.7-.35-2.55-.54-3-.64-6-1.3-9-2-.09,0-.27,0-.17-.16.7-1.12,0-2.19-1-2.8a5.63,5.63,0,0,0-1.87-.71c-.16,0-.22-.06-.12-.21q3.95-6.09,7.88-12.18c.1-.15.18-.16.37-.12a7.18,7.18,0,0,0,5.2-.72,2.38,2.38,0,0,0,1.1-1.23c.06-.16.16-.12.3-.09L72,52.82l12.42,2.69a.51.51,0,0,1,.25.09,30.79,30.79,0,0,0-6.16,1.19,19.78,19.78,0,0,0-7,3.62,9.61,9.61,0,0,0-3.15,4.45A6.86,6.86,0,0,0,69,70.42c0,.14-.13.15-.23.18l-3.54.93c-.3.07-.6.16-.9.24A1.31,1.31,0,0,1,63.89,71.82Z"/><path class="cls-3" d="M88.33,65.33c1.31.67,2.66,1.31,3.89,2.09a6.71,6.71,0,0,1,1.37,1.09A2.24,2.24,0,0,1,93,72.17a8.14,8.14,0,0,1-3.32,1.13,15,15,0,0,1-3.6,0,.29.29,0,0,0-.33.14c-.13.23-.29.45-.43.68a1.14,1.14,0,0,1-1.19.47c-.78-.16-1.56-.32-2.34-.51-.55-.13-.67-.42-.41-.83.14-.22.27-.44.43-.66s.08-.2-.12-.27a8.12,8.12,0,0,1-3-1.62,2.4,2.4,0,0,1-.91-1.87c0-.78.62-1,1.36-.8s1.33.29,2,.43a2.56,2.56,0,0,1,.49.16.44.44,0,0,1,.33.4c0,.48.48.75.93,1a10.55,10.55,0,0,0,3.49,1,7.2,7.2,0,0,0,2.45,0,2.25,2.25,0,0,0,.87-.35.71.71,0,0,0,.09-1.19,5.71,5.71,0,0,0-1.13-.79c-1.34-.78-2.77-1.44-4.13-2.19l-.15-.09a.3.3,0,0,1,.16-.08l3.56-.94Z"/><path class="cls-8" d="M88.33,65.33a1.62,1.62,0,0,1-.65.22l-2.91.77a3.43,3.43,0,0,1-.34.06,8.92,8.92,0,0,1-2.15-1.54,2.21,2.21,0,0,1,.41-3.57A7.59,7.59,0,0,1,86,60.06,14.78,14.78,0,0,1,89.76,60c.15,0,.25,0,.32-.13s.29-.45.43-.67a1.12,1.12,0,0,1,1.26-.48c.75.15,1.49.32,2.24.48a1.06,1.06,0,0,1,.43.2.35.35,0,0,1,.11.52c-.17.26-.33.53-.52.78s-.07.2.12.27A8.51,8.51,0,0,1,97,62.46a2.67,2.67,0,0,1,.5.51c-.06.1-.18.11-.29.14l-3.1.82c-.13,0-.26.08-.36,0a3,3,0,0,0-1.14-.77,11.45,11.45,0,0,0-4.77-.89,3.77,3.77,0,0,0-1.42.31c-.53.23-.74.6-.6,1a1,1,0,0,0,.34.44A10.67,10.67,0,0,0,88,65.13Z"/><path class="cls-13" d="M63.89,71.82c1-.3,2.06-.55,3.1-.83l1.72-.45c.08,0,.2,0,.24-.12a11.92,11.92,0,0,0,2.66,3.09l-.79-.17L64,71.85S63.91,71.83,63.89,71.82Z"/><path class="cls-3" d="M93.71,63.89a.35.35,0,0,0,.23,0L97.46,63a1.89,1.89,0,0,1,.5,1.84.83.83,0,0,1-1,.5,23.21,23.21,0,0,1-2.63-.57c-.32-.09-.57-.23-.54-.57A.63.63,0,0,0,93.71,63.89Z"/><path class="cls-8" d="M106.92,60.4s0,.07,0,.09l-2,.52a.75.75,0,0,1-.15,0c-.54-.51-1.13-1-1.73-1.46Z"/><path class="cls-14" d="M114.18,70.76a4.44,4.44,0,0,1,2.35.55,1.38,1.38,0,0,1-.08,2.63,4.83,4.83,0,0,1-4.32,0,1.59,1.59,0,0,1-1.07-1.32c0-.7.47-1.14,1.15-1.48A4.4,4.4,0,0,1,114.18,70.76Z"/><path class="cls-14" d="M61.3,63a4.14,4.14,0,0,1-2.5-.74,1.28,1.28,0,0,1,0-2.24,4.84,4.84,0,0,1,5.07,0,1.32,1.32,0,0,1-.12,2.35A4.48,4.48,0,0,1,61.3,63Z"/></g></g></svg>