<svg xmlns="http://www.w3.org/2000/svg" viewBox="0 0 179.13 111.97"><defs><style>.cls-1{fill:#1e1ed3;}.cls-2{fill:#7373ea;}.cls-3{font-size:35px;fill:#fff;font-family:Arial-BoldMT, Arial;font-weight:700;}.cls-4{fill:#f1e03d;}</style></defs><g id="Capa_2" data-name="Capa 2"><g id="Capa_1-2" data-name="Capa 1"><rect class="cls-1" width="179.13" height="111.97" rx="6.35"/><path class="cls-2" d="M116.18.1,58.27,111.87,6.05,112a6,6,0,0,1-6-6V6A6,6,0,0,1,6,0Z"/><polygon class="cls-1" points="85.33 0.14 91.17 0.09 32.89 111.73 27.42 111.88 85.33 0.14"/><polygon class="cls-1" points="102.54 0.14 108.37 0.09 50.1 111.73 44.63 111.88 102.54 0.14"/><text class="cls-3" transform="translate(58.09 67.43)">DEBIT</text><path class="cls-4" d="M31.06,39.06c1.9,0,3.3-.06,4.69,0A6.14,6.14,0,0,1,41.52,44c.19,1.1.08,1.71-1.29,1.64-1.88-.1-3.76,0-5.65,0-.66,0-1.29,0-1.27-.92A8.36,8.36,0,0,0,31.06,39.06Z"/><path class="cls-4" d="M25.88,53.58c-.63,0-1.26,0-1.89,0-3.26-.07-2.72.54-2.93-2.85-.13-2,.4-2.73,2.48-2.52a45.66,45.66,0,0,0,5.85,0c.89,0,1.16.29,1.23,1.19C30.93,53.58,31,53.58,25.88,53.58Z"/><path class="cls-4" d="M25.84,61.55a14.57,14.57,0,0,0-2.29,0c-2,.33-2.62-.46-2.49-2.48.21-3.36-.37-2.81,2.92-2.85,1.75,0,3.49,0,5.23,0,1.12-.05,1.38.39,1.41,1.45.12,3.89.16,3.89-3.73,3.89Z"/><path class="cls-4" d="M20.64,70.67c-1.92,0-3.49.09-5.05,0a5.66,5.66,0,0,1-4.36-2.52c-.72-1-1.52-2.3-1-3.44s1.88-.29,2.86-.42c.62-.08,1.26.06,1.87,0,2.24-.32,3.84,0,3.74,2.85C18.65,68.33,19.65,69.34,20.64,70.67Z"/><path class="cls-4" d="M31.05,70.69a8.16,8.16,0,0,0,2.25-5.42c0-.84.41-1,1.17-1,2,0,4,0,6,0,1,0,1.14.4,1.06,1.27a6.11,6.11,0,0,1-5.68,5.17C34.44,70.77,33,70.69,31.05,70.69Z"/><path class="cls-4" d="M20.66,39.07c-1.41,1.81-2.35,3.42-2.23,5.41.06,1-.5,1.11-1.3,1.1-1.88,0-3.76-.08-5.64,0-1.53.08-1.55-.66-1.27-1.8a6.13,6.13,0,0,1,5.69-4.72C17.35,39,18.81,39.07,20.66,39.07Z"/><path class="cls-4" d="M37.44,48.25H38.9c2.73,0,2.57,0,2.78,2.79.16,2.16-.54,2.84-2.62,2.57a23.23,23.23,0,0,0-4.17,0c-1.11.06-1.59-.2-1.62-1.46C33.17,48.25,33.11,48.25,37.44,48.25Z"/><path class="cls-4" d="M37.43,61.55H36.17c-2.87,0-2.73,0-2.91-2.85-.12-2,.42-2.83,2.48-2.49a13.45,13.45,0,0,0,2.29,0c3.77,0,4.25.63,3.61,4.43-.13.73-.43.92-1.09.9C39.51,61.53,38.47,61.55,37.43,61.55Z"/><path class="cls-4" d="M25.85,45.57a23.67,23.67,0,0,0-2.92,0c-2,.27-2-.83-1.65-2.24.56-2.24,2.5-3.49,5.11-3.3A4.39,4.39,0,0,1,30.58,44c.12,1.09-.08,1.74-1.39,1.62C28.08,45.5,27,45.57,25.85,45.57Z"/><path class="cls-4" d="M26,64.24a23.87,23.87,0,0,0,2.93,0c1.52-.18,1.79.56,1.58,1.83-.38,2.27-2.29,3.72-4.87,3.66a4.42,4.42,0,0,1-4.55-4c-.12-1.08.2-1.55,1.35-1.47S24.85,64.25,26,64.24Z"/><path class="cls-4" d="M14.25,53.58a9.3,9.3,0,0,0-1.67,0C10.37,54,9.88,53,10,51c.21-3.16-.38-2.68,2.86-2.72,1.32,0,2.65.05,4,0,1.11-.06,1.59.19,1.62,1.46C18.53,53.58,18.59,53.58,14.25,53.58Z"/><path class="cls-4" d="M14.42,56.23a7.9,7.9,0,0,0,1.46,0c2.18-.41,2.73.53,2.58,2.6-.22,3.18.4,2.68-2.83,2.73-1.4,0-2.8-.07-4.19,0-1.13.07-1.38-.38-1.41-1.44C9.92,56.23,9.88,56.23,14.42,56.23Z"/></g></g></svg>