<svg xmlns="http://www.w3.org/2000/svg" viewBox="0 0 491.47 444.02"><defs><style>.cls-1{fill:#615f60;}.cls-2{fill:#252324;}.cls-3{fill:#241f21;}.cls-4{fill:#242223;}.cls-5{fill:none;}.cls-6{fill:#595657;}.cls-7{fill:#252223;}.cls-8{fill:#314458;}.cls-9{fill:#97bfe4;}.cls-10{fill:#e9eeef;}.cls-11{fill:#e1e6e8;}</style></defs><g id="Capa_2" data-name="Capa 2"><g id="Capa_1-2" data-name="Capa 1"><path class="cls-1" d="M95,416c-9.17,8.68-18.42,17.29-27.48,26.1-2.59,2.52-4.56,2.71-7.1.08q-29.43-30.53-59-60.94c-2.52-2.59-1.24-4.39.7-6.29,10.6-10.34,21-20.87,31.86-31C47.8,331,62,318.38,76.08,305.74c11.33-10.14,24.32-14.3,38.84-15.73,24.35-2.41,48.71-4.58,73.16-5.64,6.55-.29,12.91,0,19,2.78,6.86,3.16,8.91,9.12,4.7,15.44-6.65,10-16.51,14.9-27.92,17.48-13.11,3-26.15,6.2-39.18,9.47-2.67.67-5.63.1-8.32,1.79,2.05,3.68,5.92,5,8.57,7.66a1.62,1.62,0,0,1,.09,2.11c-4.62-.61-7.62-3.85-10.46-7-2.39-2.63-1.28-4.92,2.61-6.12,6.52-2,13.19-3.43,19.82-4.93q16.51-3.72,32.94-7.86a31.67,31.67,0,0,0,18.66-13.47c4.1-6.14,2.48-10-4.43-12.48-7.8-2.76-15.83-2.59-23.69-1.58-15.35,2-30.84,1.66-46.2,3.46-10.37,1.22-20.73,2.64-31.15,3.63-9.47.89-16.89,6.53-24,12.5C64,320,49.6,333.56,35.1,347c-9.64,9-18.92,18.25-28.28,27.48-4,3.93-3.94,4-.16,7.8,18,18.27,35.47,37,53.49,55.19,3.25,3.28,4.5,3.54,7.79.08,7.59-7.95,16-15,23.86-22.71,1.59-1.57,3-3.76,5.76-3.32C99.15,414.47,96,414.59,95,416Z"/><path class="cls-2" d="M227.75,360.49c-2.63-.62-6.81,1.27-7.74-1.27-.8-2.21,3.22-4,5.26-5.73,11.18-9.67,22.6-19.07,33.66-28.87,5.87-5.2,12.72-5,19.72-5,.83,0,1.75.17,2.07,1.08.63,1.78-1.11,2.27-2,3C266,334.62,253,345.3,240.38,356.34,236.58,359.65,232.83,361.63,227.75,360.49Z"/><path class="cls-3" d="M145.19,340.55c11.45,8.49,22.95,16.91,34.29,25.53a12.72,12.72,0,0,0,7.75,2.8q23.45.58,46.88,1.17c2,.05,3.85.08,5.59-1.42,15.7-13.52,32.12-26.2,47.3-40.33,5.6-3.35,10.3-7.87,14.95-12.3,5.85-5.58,23.34-6.46,30.95-2.37,3.6,1.93,4.14,7.79,1.46,12.49-1.69,2.95-4.35,5-6.76,7.27-23.18,21.72-45.7,44.16-70,64.63a16.55,16.55,0,0,1-10.82,4.12c-35.29.85-70.58,1.72-105.86,2.91-12.45.42-24.93,1.2-37.14,4.17A13.71,13.71,0,0,0,98,412c-2-.11-2.87,1.54-4,2.64C85.22,422.81,76.46,431,68,439.41c-3.11,3.09-5.14,3.07-8.17-.1q-27.7-29-55.75-57.67c-2.3-2.36-2.7-3.64-.11-6.23q31.53-31.59,65-61.12c7-6.19,14-12.67,22.38-17.19a32.06,32.06,0,0,1,11.83-3.63c19.8-2,39.5-5.17,59.46-5.51,10.46-.18,20.78-2.32,31.3-2.12,4.48.09,8.55,1.46,12.54,2.8,6.23,2.08,7.64,8.31,3.25,14-5.78,7.51-13.11,12.58-22.79,14.58-12.43,2.56-24.66,6.15-37,9.2-4.17,1-8.41,1.73-12.59,2.69-3.56.81-4.3,2.89-1.44,5.05S141.51,339.3,145.19,340.55Z"/><path class="cls-4" d="M190.53,358l17.21-14.83c3.64-3.13,7.65-5.93,10.88-9.44,5.19-5.65,11.85-6.87,18.87-7.46,1-.09,2.47-.58,3,.87s-.5,2-1.42,2.81q-16.4,14.09-32.71,28.28a4.77,4.77,0,0,1-3.53,1.47c-3.95-.21-7.91-.37-11.87-.56Z"/><path class="cls-5" d="M356.18,131.47c0-1.65-2.2-3.07-4.29-3.44-3.22-.42-4.7-3.27-7-5-3.83-2.54-7.58-5.19-11.29-7.9L355.49,133A1.82,1.82,0,0,0,356.18,131.47Z"/><path class="cls-6" d="M286.49,61.08c19-.41,38,0,56.86-1.26,14.52-1,29.19-1,43.57-3.83,6.33-1.26,10.71-5.74,15.19-9.85Q414.19,35,425.84,23.49c2.28-2.25,3.75-2.52,6,0,2.75,3.08,5.92,5.8,8.91,8.67-1.44-4-5.37-6-7.76-9.22s-5.14-3.57-8.18-.87c-8.94,8.45-18.06,16.71-26.75,25.4-4.8,4.8-10.48,6.67-16.87,7.54-25.13,3.42-50.48,2.66-75.72,3.79-13.2.6-26.41.83-39.62,1l1.52,1.24C273.74,61.05,280.12,61.22,286.49,61.08Z"/><polygon class="cls-6" points="344.9 123.04 344.9 123.05 344.91 123.05 344.9 123.04"/><path class="cls-6" d="M344.9,123h0c2.29,1.72,3.77,4.57,7,5,2.09.37,4.28,1.79,4.29,3.44a1.82,1.82,0,0,1-.69,1.53l1.6,1.3c2.14-.72,2.33-3.07-.48-5.13-11.36-8.3-22.6-16.77-33.87-25.2-1.86-1.38-3.76-2.73-5.47-4.28A21.91,21.91,0,0,0,308,94.2l25.65,20.94C337.32,117.85,341.07,120.5,344.9,123Z"/><path class="cls-3" d="M489.53,82c-16.24-16.64-32-33.72-48.79-49.87h0c-4.08-.11-5.79-3.62-8.14-6-2.74-2.77-4.72-2.78-7.45,0-7.12,7.24-15.29,13.39-22.07,21C394.74,56.47,383.57,58.67,372,59.4c-34.23,2.16-68.49,3.12-102.78,3.16L287,77.09l19.14,15.63a16,16,0,0,1,9.12,3.61c12.58,9.85,25.29,19.52,38.29,28.81a29.66,29.66,0,0,1,4.65,3.78c2.07,2.25,1.85,4.94-.36,6l17.4,14.2c2,1.67,4.11,3.31,5.41,5.67a14.55,14.55,0,0,1-.27,15.51,21.1,21.1,0,0,1-1.49,2.06l4.44-.5c9.94-1.15,19.21-4,27.41-10.61,27.95-22.67,53.26-48.14,79.17-73C492.46,85.79,491.57,84.11,489.53,82Z"/><path class="cls-3" d="M317.27,99.69c1.71,1.55,3.61,2.9,5.47,4.28,11.27,8.43,22.51,16.9,33.87,25.2,2.81,2.06,2.62,4.41.48,5.13l.74.6c2.21-1,2.43-3.73.36-6a29.66,29.66,0,0,0-4.65-3.78c-13-9.29-25.71-19-38.29-28.81a16,16,0,0,0-9.12-3.61L308,94.2A21.91,21.91,0,0,1,317.27,99.69Z"/><path class="cls-3" d="M431.83,23.48c-2.24-2.51-3.71-2.24-6,0Q414.17,35,402.11,46.14c-4.48,4.11-8.86,8.59-15.19,9.85-14.38,2.86-29.05,2.85-43.57,3.83-18.9,1.27-37.9.85-56.86,1.26-6.37.14-12.75,0-19.13,0l1.82,1.49c34.29,0,68.55-1,102.78-3.16,11.61-.73,22.78-2.93,31.12-12.26,6.78-7.59,14.95-13.74,22.07-21,2.73-2.78,4.71-2.77,7.45,0,2.35,2.37,4.06,5.88,8.14,6h0C437.75,29.28,434.58,26.56,431.83,23.48Z"/><path class="cls-7" d="M164.38,151.83l.44.08L156,144.68C156.33,148.11,159.28,150.71,164.38,151.83Z"/><path class="cls-8" d="M355.49,133l-21.88-17.86c-6.41-4.7-12.68-9.58-19-14.41-2.9-2.21-5.9-4-9.93-3.76-4.51.23-8.89-.44-11.33-5.32-.92-1.86-2.4-1.87-3.76-1.17l55.33,45.1c2.2-.49,4.41-.92,6.6-1.44C352.79,133.84,354.54,133.77,355.49,133Z"/><path class="cls-8" d="M158.7,137.11c.23-.29.47-.57.7-.85q-15.15-12.36-30.33-24.69c-2.16-1.75-2.36-2.78-.55-5q35.19-42.9,70.16-86c1.68-2.06,2.68-2.22,4.77-.51q24.44,20,48.88,39.93l13.51-.21q-34-27.75-68-55.47c-8-6.55-16.45-5.68-23,2.34Q142.4,46.38,110,86.11c-6.54,8-5.69,16.44,2.34,23L156,144.68C155.73,142.45,156.58,139.87,158.7,137.11Zm-17-69.49q10.68-13.14,21.4-26.23c.77-.94,1.62-2.48,3-1.34s0,2.27-.72,3.2Q159.95,50,154.48,56.6c-3.51,4.3-7,8.61-10.53,12.88-.76.93-1.59,2.5-3,1.35S140.9,68.56,141.67,67.62Z"/><path class="cls-8" d="M288.38,237.17c-1.67,2.06-2.67,2.24-4.77.51Q245,206,206.26,174.49q-13.57-11.1-27.17-22.18a42,42,0,0,1-14.27-.4q62.91,51.36,125.85,102.69a21,21,0,0,0,4.37,2.87c6.6,3.07,13.42,1.17,18.63-5.2q32.41-39.69,64.8-79.41l.41-.52c-13.59,1.53-27.2,2.87-40.83,3.91Q313.16,206.67,288.38,237.17Zm51.5-29.59a6.6,6.6,0,0,1-9.34.9A6.65,6.65,0,1,1,339,198.23,6.62,6.62,0,0,1,339.88,207.58Z"/><path class="cls-8" d="M351.53,134.14c-2.19.52-4.4,1-6.6,1.44l1.61,1.31a67.09,67.09,0,0,1,9.73-2.4,3.94,3.94,0,0,0,.82-.19l-1.6-1.3C354.54,133.77,352.79,133.84,351.53,134.14Z"/><path class="cls-8" d="M293.36,91.65c2.44,4.88,6.82,5.55,11.33,5.32,4-.2,7,1.55,9.93,3.76,6.31,4.83,12.58,9.71,19,14.41L308,94.2a15,15,0,0,0-6.35-.16c-2.77.5-4.45-.64-5.91-3.25-2.51-4.52-3.93-4.87-8-1.85l1.89,1.54C291,89.78,292.44,89.79,293.36,91.65Z"/><path class="cls-8" d="M254.18,61.56c4.39-.36,8.78-.47,13.18-.49l-1.52-1.24L252.33,60Z"/><path class="cls-8" d="M255.45,62.59Q271,75.32,286.61,88c.3-.22.61-.43.92-.67,3.16-2.46,6.38-1.7,8.54,1.74,1.82,2.91,4.36,3.9,7.61,3.62a16.72,16.72,0,0,1,2.45,0L287,77.09,269.18,62.56c-3.64,0-7.28,0-10.92,0C257.3,62.55,256.36,62.56,255.45,62.59Z"/><path class="cls-3" d="M380.64,154.77c-1.3-2.36-3.37-4-5.41-5.67l-17.4-14.2a3.72,3.72,0,0,1-.5.2c-3.13,1-6.27,2.08-9.48,2.87l10.37,8.45c2,1.6,2.17,2.53.5,4.55q-10.35,12.63-20.67,25.28c13.63-1,27.24-2.38,40.83-3.91a21.1,21.1,0,0,0,1.49-2.06A14.55,14.55,0,0,0,380.64,154.77Z"/><path class="cls-8" d="M303.68,92.73c-3.25.28-5.79-.71-7.61-3.62-2.16-3.44-5.38-4.2-8.54-1.74-.31.24-.62.45-.92.67l1.1.9c4.06-3,5.48-2.67,8,1.85,1.46,2.61,3.14,3.75,5.91,3.25a15,15,0,0,1,6.35.16l-1.83-1.48A16.72,16.72,0,0,0,303.68,92.73Z"/><path class="cls-8" d="M356.27,134.49a67.09,67.09,0,0,0-9.73,2.4l1.31,1.08c3.21-.79,6.35-1.87,9.48-2.87a3.72,3.72,0,0,0,.5-.2l-.74-.6A3.94,3.94,0,0,1,356.27,134.49Z"/><path class="cls-8" d="M254.18,61.56l1.27,1c.91,0,1.85,0,2.81,0,3.64,0,7.28,0,10.92,0l-1.82-1.49C263,61.09,258.57,61.2,254.18,61.56Z"/><path class="cls-8" d="M179.09,152.31q-9.84-8-19.69-16.05c-.23.28-.47.56-.7.85-2.12,2.76-3,5.34-2.74,7.57l8.86,7.23A42,42,0,0,0,179.09,152.31Z"/><path class="cls-9" d="M285.74,175.45c-6.58-3.56-8.14-8.8-3.65-14.77,5.3-7.06,12.2-12.32,20.83-14.59,11.24-3,22.6-5.39,33.91-8.05a45.53,45.53,0,0,1,8.1-2.46L289.6,90.48a6.71,6.71,0,0,0-1.27.88c-4.45,3.85-9.59,4.46-15.25,4.32-6.42-.17-12.89-.68-19.3.35-6.7,4.75-6.66,4.72-12.61-1.38-6.19-6.34-13.6-9.92-22.63-9.77-1.27,0-3.08.5-3.63-.89s.68-2.8,1.79-3.77c6.13-5.35,12.35-10.59,18.44-16a16.21,16.21,0,0,1,10.93-4.09l6.26-.11q-24.45-19.95-48.88-39.93c-2.09-1.71-3.09-1.55-4.77.51q-35,43.07-70.16,86c-1.81,2.2-1.61,3.23.55,5q15.18,12.32,30.33,24.69c6.51-8.2,14.79-14.85,23-21.65-.15,10.79,3.19,19.7,10.37,27.17,1.43,1.49,1.18,2.79-.3,4.23a20.24,20.24,0,0,1-9.8,5.67c-1.2.26-2.41.46-3.62.63q13.59,11.08,27.17,22.18,38.7,31.57,77.35,63.19c2.1,1.73,3.1,1.55,4.77-.51q24.78-30.51,49.67-60.92c-11.91.9-23.84,1.58-35.79,1.92C296.6,178.33,291,178.28,285.74,175.45Zm-32.66-63.28a1.32,1.32,0,0,1-2.1-.46,4.43,4.43,0,0,1-.23-2.86c1.55-4.47,9.15-7.25,14.27-5.14C261.94,107.91,256.84,109.12,253.08,112.17Z"/><path class="cls-9" d="M336.83,138a24.81,24.81,0,0,0,9.71-1.15l-1.61-1.31A45.53,45.53,0,0,0,336.83,138Z"/><path class="cls-9" d="M235.14,64.24c-6.09,5.39-12.31,10.63-18.44,16-1.11,1-2.36,2.32-1.79,3.77s2.36.91,3.63.89c9-.15,16.44,3.43,22.63,9.77,6,6.1,5.91,6.13,12.61,1.38,6.41-1,12.88-.52,19.3-.35,5.66.14,10.8-.47,15.25-4.32a6.71,6.71,0,0,1,1.27-.88l-1.89-1.54-.52.38c-6.62,5.1-14.23,4.23-21.54,3.3-6.15-.78-11.43-.51-16,4.06-1.12,1.12-2.53,2.91-4.26.28-5.8-8.82-14.55-12.62-24.59-14.16a15.39,15.39,0,0,1-2.7-1.06c5.39-4.85,10.68-9.29,15.59-14.13,4.39-4.34,9.88-4.78,15.44-5.52,1.69-.22,3.38-.39,5.07-.53L252.33,60l-6.26.11A16.21,16.21,0,0,0,235.14,64.24Z"/><path class="cls-9" d="M250.75,108.85a4.43,4.43,0,0,0,.23,2.86,1.32,1.32,0,0,0,2.1.46c3.76-3,8.86-4.26,11.94-8.46C259.9,101.6,252.3,104.38,250.75,108.85Z"/><path class="cls-3" d="M338.49,139.05a2.44,2.44,0,0,1-1.66-1c-11.31,2.66-22.67,5.1-33.91,8.05-8.63,2.27-15.53,7.53-20.83,14.59-4.49,6-2.93,11.21,3.65,14.77,5.22,2.83,10.86,2.88,16.52,2.72,11.95-.34,23.88-1,35.79-1.92Q348.39,163.6,358.72,151c1.67-2,1.47-2.95-.5-4.55L347.85,138A33.65,33.65,0,0,1,338.49,139.05Z"/><path class="cls-9" d="M221.78,81.12c1.09,1.23,2.69,1.15,4.09,1.45,7.41,1.58,13.77,4.94,18.51,11,1.7,2.17,3.42,3.27,5.75,1.1,4.67-4.34,10.09-4.11,15.93-3.32,7.12,1,14.22,1.13,20.55-3.27Q271,75.32,255.45,62.59C240.71,63.1,232.09,68.28,221.78,81.12Z"/><path class="cls-9" d="M233.67,67.61c-4.91,4.84-10.2,9.28-15.59,14.13a15.39,15.39,0,0,0,2.7,1.06c10,1.54,18.79,5.34,24.59,14.16,1.73,2.63,3.14.84,4.26-.28,4.59-4.57,9.87-4.84,16-4.06,7.31.93,14.92,1.8,21.54-3.3l.52-.38-1.1-.9c-6.33,4.4-13.43,4.23-20.55,3.27-5.84-.79-11.26-1-15.93,3.32-2.33,2.17-4,1.07-5.75-1.1-4.74-6-11.1-9.38-18.51-11-1.4-.3-3-.22-4.09-1.45,10.31-12.84,18.93-18,33.67-18.53l-1.27-1c-1.69.14-3.38.31-5.07.53C243.55,62.83,238.06,63.27,233.67,67.61Z"/><path class="cls-9" d="M336.83,138a2.44,2.44,0,0,0,1.66,1,33.65,33.65,0,0,0,9.36-1.08l-1.31-1.08A24.81,24.81,0,0,1,336.83,138Z"/><path class="cls-9" d="M192.51,146c1.48-1.44,1.73-2.74.3-4.23-7.18-7.47-10.52-16.38-10.37-27.17-8.25,6.8-16.53,13.45-23,21.65q9.85,8,19.69,16.05c1.21-.17,2.42-.37,3.62-.63A20.24,20.24,0,0,0,192.51,146Z"/><path class="cls-10" d="M329.63,199.11a6.71,6.71,0,0,0,.91,9.37A6.65,6.65,0,0,0,339,198.23,6.72,6.72,0,0,0,329.63,199.11Z"/><path class="cls-11" d="M141,70.83c1.4,1.15,2.23-.42,3-1.35,3.53-4.27,7-8.58,10.53-12.88s7.27-8.88,10.88-13.35c.75-.93,2.12-2.06.72-3.2s-2.24.4-3,1.34q-10.73,13.1-21.4,26.23C140.9,68.56,139.57,69.7,141,70.83Z"/></g></g></svg>