<svg xmlns="http://www.w3.org/2000/svg" viewBox="0 0 22.55 16.36"><defs><style>.cls-1{fill:#221f1f;}.cls-2{fill:#521213;}.cls-3{fill:#fdcf9d;}.cls-4{fill:#f8a770;}.cls-5{fill:#a05642;}.cls-6{fill:#f9ad89;}.cls-7{fill:#f9ae89;}.cls-8{fill:#9f5542;}.cls-9{fill:#f38265;}.cls-10{fill:#f7af89;}.cls-11{fill:#f7ae89;}.cls-12{fill:#f6b08c;}.cls-13{fill:#262221;}.cls-14{fill:#f6af87;}.cls-15{fill:#39332d;}.cls-16{fill:#745f47;}.cls-17{fill:#6a523b;}.cls-18{fill:#997a5d;}.cls-19{fill:#6c5243;}.cls-20{fill:#1e376c;}.cls-21{fill:#f6b08a;}.cls-22{fill:#f69350;}.cls-23{fill:#f27020;}</style></defs><g id="Capa_2" data-name="Capa 2"><g id="Capa_1-2" data-name="Capa 1"><path class="cls-1" d="M5.87,5.86a3.26,3.26,0,0,0-1-.36l-.31,0A1.47,1.47,0,0,1,3.21,3.91,4.2,4.2,0,0,1,4.53.49,1.61,1.61,0,0,1,6.43.18L8,.91A.75.75,0,0,0,8.4,1L10,.7a3.68,3.68,0,0,1,2.61.48,7,7,0,0,0,1.24.59A4.86,4.86,0,0,1,16,3.44a4.9,4.9,0,0,1,.53.88.26.26,0,0,0,.24.17,34.3,34.3,0,0,1,3.65.61c.32.06.39.16.42.49.11,1.36.27,2.7.42,4.05.07.66.14,1.32.19,2s-.09.76-.65.87l-2.23.42c-.61.12-1.22.24-1.83.34a.28.28,0,0,0-.2.13c-.09.13-.29.14-.36.25s0,.29-.11.42a1.06,1.06,0,0,1-1,.56.41.41,0,0,0-.4.21.87.87,0,0,1-.83.44,2.73,2.73,0,0,0-1.53.31,2.15,2.15,0,0,1-1.26.15,21.46,21.46,0,0,0-2.66,0,12.26,12.26,0,0,1-1.82,0,1.69,1.69,0,0,0-.74.11,15.57,15.57,0,0,1-1.8.54,1.09,1.09,0,0,1-1-.26,3.17,3.17,0,0,1-.9-1.54,4.19,4.19,0,0,1-.12-2.43,1.26,1.26,0,0,1,.79-.89q.78-.3,1.53-.66c.13-.07.15-.12.09-.25-.41-.91-.8-1.82-1.2-2.73a1.8,1.8,0,0,1-.08-.21.53.53,0,0,1,.38-.76Z"/><path class="cls-2" d="M22.55,5l-1.28-.33L21,4.56c-.21,0-.21-.06-.07-.23L21,4.2c.18-.19.18-.19,0-.36L19.73,2.72c-.08-.08-.13-.08-.21,0-.25.25-.51.48-.76.72-.08.08-.13.09-.22,0-.4-.37-.81-.72-1.23-1.08-.09-.08-.11-.14,0-.23s.1-.21.25-.07c.31.29.63.55.94.83.12.11.19.09.3,0s.48-.44.72-.67c.07-.07.12-.08.2,0,.51.46,1,.91,1.55,1.38.12.11.2.11.29,0a3.22,3.22,0,0,1,.24-.28s.08-.07.11,0C22.12,3.84,22.33,4.38,22.55,5Z"/><path class="cls-2" d="M.54,11V10c0-.11,0-.16.14-.15h.53c.15,0,.19,0,.19.19,0,.63,0,1.26,0,1.89,0,.19,0,.28.24.25h.11c.11,0,.11.05.07.13L1,13.65c-.07.1-.09,0-.13,0l-.59-1-.19-.32c-.06-.09,0-.12.07-.13.35,0,.35,0,.35-.39Z"/><path class="cls-3" d="M2.93,15.55a4,4,0,0,1-.7-1.77,3.34,3.34,0,0,1,.07-1.66A1,1,0,0,1,3,11.41c.49-.19,1-.41,1.47-.63a1.86,1.86,0,0,0,.79-.66c.32-.44.63-.9,1-1.31A3.41,3.41,0,0,1,7.34,8,14.85,14.85,0,0,0,9.28,7a1,1,0,0,1,1.11,0,4.09,4.09,0,0,0,1.29.51.72.72,0,0,1,.44.24.38.38,0,0,1,0,.55,1.16,1.16,0,0,1-.64,0,2.68,2.68,0,0,1-.9-.31c-.09,0-.16,0-.2.06-.21.58-.7.71-1.22.81-.09,0-.19,0-.26.07S9,9,9,9.05a1.64,1.64,0,0,0,.31.28c.67.37,1.26.9,1.95,1.25a21.58,21.58,0,0,0,2.78,1.13h.06a.68.68,0,0,1,.45.17l1.28.41.23.07a.53.53,0,0,1,.08,1,1.93,1.93,0,0,1-.48,0,21.12,21.12,0,0,1-2.86-.5c-.36-.08-.7-.2-1.05-.31,0,0,0,0,0,0s0,0,0,0a3.06,3.06,0,0,0,1.43.83,2.1,2.1,0,0,0,.78-.08l.3-.08a6.25,6.25,0,0,1,.87.07,4.57,4.57,0,0,1,.52.05.24.24,0,0,1,.23.16.5.5,0,0,1-.15.59.81.81,0,0,1-.57.25,12.79,12.79,0,0,1-3.65-.19h0a1,1,0,0,1-.47-.1c.12.08.27.05.38.16a8.44,8.44,0,0,0,3.25.28.81.81,0,0,1-.74.52A14.62,14.62,0,0,1,12.28,15c-.61-.05-1.22-.13-1.83-.2a.76.76,0,0,0-.3,0,10.43,10.43,0,0,0,2.58.35,1.12,1.12,0,0,1-.54.26,4.06,4.06,0,0,1-1.1,0,25.62,25.62,0,0,1-2.88-.42,13.8,13.8,0,0,1-2.65-.83c-.17-.08-.19-.06-.2.13,0,.69-.14.88-.79,1.09a6.83,6.83,0,0,1-1.42.26A.34.34,0,0,1,2.93,15.55Z"/><path class="cls-3" d="M9,4.37a2.64,2.64,0,0,0,2.35-.44l-.26.63s-.06,0-.1.05l-1.31.23A3.21,3.21,0,0,1,7.77,4.4a1,1,0,0,1-.46-.69c-.09.33-.16.64-.22,1s-.23.55-.67.41a18.82,18.82,0,0,1-2-.81L3.61,3.9a.34.34,0,0,1-.18-.11A4,4,0,0,1,3.9,1.68,3.16,3.16,0,0,1,4.83.53,1.41,1.41,0,0,1,6.2.33,12.47,12.47,0,0,1,7.63,1a1.65,1.65,0,0,0,1.09.14A15,15,0,0,1,10.35.88a2.9,2.9,0,0,1,1.69.3c.76.42,1.57.71,2.33,1.11a4.6,4.6,0,0,1,2,2.15l-.79-.07c-.14,0-.21-.07-.22-.21A.15.15,0,0,0,15.22,4a3,3,0,0,1-1.34-1,1.38,1.38,0,0,0-.81-.78l-.91-.38a1.76,1.76,0,0,1-.42-.17c.1.07.25.09.33.21a5.94,5.94,0,0,0,1,.5,1,1,0,0,1,.68.8,3.84,3.84,0,0,0,.31.94.94.94,0,0,1,0,.85.57.57,0,0,1-.57-.13A3.2,3.2,0,0,1,12.85,4a2.5,2.5,0,0,1-.3-.53.14.14,0,0,0-.1-.1,7.12,7.12,0,0,1-.8,0A7.18,7.18,0,0,1,10.36,3a.2.2,0,0,0-.21,0c.13.22.35.31.54.46a1.58,1.58,0,0,0,.36.2c.13.06.15.1,0,.19a2.34,2.34,0,0,1-1.63.49l-.22,0a1.77,1.77,0,0,1-.46-.07C8.85,4.29,9,4.28,9,4.37Z"/><path class="cls-2" d="M12.68,4.76a1.76,1.76,0,0,0,1,.56.6.6,0,0,0,.77-.6,1.06,1.06,0,0,1,.61,0l1.33.09c.79.07,1.58.19,2.36.31.4.06.79.12,1.19.21.11,0,.26,0,.28.18s-.11.22-.22.28c-.77.43-1.58.78-2.37,1.18a15.51,15.51,0,0,1-1.73.74,12.49,12.49,0,0,1-3.19.77.5.5,0,0,1-.36,0A.68.68,0,0,0,12,7.35a1.46,1.46,0,0,0-.51-.17,2.63,2.63,0,0,1-1-.41,1.38,1.38,0,0,0-1.12-.14A3.94,3.94,0,0,0,8.77,7a9.24,9.24,0,0,1-1.48.73.83.83,0,0,1-.31,0c-.8-.2-1.58-.46-2.39-.58-.24,0-.49,0-.73-.09-.06,0-.14,0-.14-.09s.07-.1.14-.13C5.23,6.33,6.64,6,8,5.64c1.18-.3,2.36-.56,3.56-.76C12,4.83,12.32,4.78,12.68,4.76Z"/><path class="cls-4" d="M14.4,11.6l-1.05-.39a.63.63,0,0,1-.13-.53,1.13,1.13,0,0,1,.53-.16,20.73,20.73,0,0,0,2.76-.81c.92-.34,1.82-.75,2.72-1.16l1-.46c.27-.13.29-.12.38.17.08.52.13,1.05.19,1.57a11.28,11.28,0,0,1,.12,1.54.6.6,0,0,1-.49.65,7.48,7.48,0,0,1-1.05.2,23.93,23.93,0,0,0-2.36.45c-.11,0-.23.1-.33,0a.59.59,0,0,0-.39-.43c-.48-.17-1-.32-1.44-.47C14.71,11.7,14.53,11.73,14.4,11.6Z"/><path class="cls-5" d="M13.24,10.67a2.35,2.35,0,0,0,.11.54l-.6-.22c-.06-.61-.17-1.2-.23-1.8A.23.23,0,0,0,12.31,9c-.52-.09-1-.16-1.54-.28a.23.23,0,0,1-.17-.07.8.8,0,0,1,.46,0l.65,0a.69.69,0,0,0,.59-.23,9.84,9.84,0,0,0,2.79-.53,19.06,19.06,0,0,0,3-1.23c.63-.32,1.28-.59,1.88-.95L20,5.64s.14-.08.12-.18S20,5.38,20,5.36c-.48-.11-1-.17-1.45-.25s-1.26-.2-1.89-.26c-.33,0-.66-.07-1-.08s-.82,0-1.24,0c0-.14,0-.16.16-.16.85,0,1.7.09,2.54.19,1,.13,2,.31,3,.52.47.09.45.1.49.58.06.64.13,1.28.2,1.92s.17,1.54.25,2.31c.06.55.11,1.1.17,1.65,0,.27-.06.44-.32.49-.84.18-1.68.34-2.52.5L16.89,13c-.13,0-.17,0-.17-.13a.83.83,0,0,0,0-.22c.1.06.19,0,.27,0,.62-.12,1.23-.28,1.85-.39s1-.14,1.51-.25.55-.25.55-.7c0-.74-.13-1.46-.21-2.2,0-.28-.07-.57-.1-.85A8.25,8.25,0,0,1,20.36,7c0-.18,0-.37-.05-.55s-.07-.16-.19-.11l-1.61.74a33,33,0,0,1-3.28,1.32c-.66.23-1.34.4-2,.57-.2.05-.21.07-.18.28l.09.48c0,.23.07.46.11.69A.28.28,0,0,1,13.24,10.67Z"/><path class="cls-6" d="M2.93,15.55a6.38,6.38,0,0,0,1.83-.35.75.75,0,0,0,.55-.82c0-.42,0-.43.37-.27a15,15,0,0,0,3.4.93c.6.1,1.21.18,1.81.24l1.3.11a3,3,0,0,1-1.3.1,15.28,15.28,0,0,0-2.14,0,13.77,13.77,0,0,1-2.13,0,1.65,1.65,0,0,0-.63.07c-.6.2-1.19.41-1.8.56A1,1,0,0,1,2.93,15.55Z"/><path class="cls-7" d="M3.43,3.79A1.83,1.83,0,0,1,4,4,21.84,21.84,0,0,0,6.43,5c.43.15.52.07.61-.38s.16-.7.24-1.07c.12.13.11.29.17.41a1.44,1.44,0,0,0,.93.66,6.68,6.68,0,0,0,1.33.2c-.83.19-1.66.38-2.48.61-.25.07-.5.13-.74.22a.63.63,0,0,1-.61-.06,3.59,3.59,0,0,0-1.27-.38A1.31,1.31,0,0,1,3.43,3.79Z"/><path class="cls-8" d="M12.68,4.76c-.16.12-.35.08-.52.11a26.74,26.74,0,0,0-3.07.57c-1.75.42-3.49.84-5.2,1.4-.06,0-.14,0-.14.08s.09,0,.14,0a21.41,21.41,0,0,1,3.36.73l0,0L6.85,8l-.14,0a21.61,21.61,0,0,0-2.66-.54s0,0,0,0a1.87,1.87,0,0,0,.13.4c.29.7.57,1.4.85,2.1A.31.31,0,0,1,5,10c-.27.37-.26.37-.44,0-.37-.87-.76-1.74-1.13-2.61-.14-.33-.07-.46.27-.57,1-.33,2-.68,3-1a34.1,34.1,0,0,1,4.56-1l1.06-.15C12.49,4.64,12.61,4.62,12.68,4.76Z"/><path class="cls-9" d="M10.6,8.62l1.47.26h.08c.42.07.41.07.45.49s.12,1,.19,1.51c0,0,0,.09,0,.1a9.62,9.62,0,0,1-2.41-1.28,3,3,0,0,1-.4-.4c-.07-.09-.08-.15,0-.21A3.28,3.28,0,0,0,10.6,8.62Z"/><path class="cls-9" d="M5,10a1.63,1.63,0,0,1-.25-.57c-.3-.7-.58-1.41-.87-2.14.26,0,.5,0,.74.09l2.1.47s.17,0,.12.1A5.5,5.5,0,0,0,5.37,9.53C5.26,9.7,5.13,9.86,5,10Z"/><path class="cls-10" d="M8.85,8.89s-.07,0-.07-.06.05,0,.08-.05l.59-.11a1.1,1.1,0,0,0,.9-.77c0-.12.09-.12.19-.06a2.47,2.47,0,0,0,1.19.36c.13,0,.26,0,.38,0a.47.47,0,0,1-.48.18l-.93-.07a.27.27,0,0,0-.25.1A2.91,2.91,0,0,1,9.76,9c-.14.08-.23.16-.07.35A3.58,3.58,0,0,1,9.07,9C9,9,8.94,8.89,8.85,8.89Z"/><path class="cls-11" d="M12.49,3.33s.06,0,.08,0a4.54,4.54,0,0,0,.79,1.23.92.92,0,0,0,.77.36.36.36,0,0,1-.35.21,1.13,1.13,0,0,1-.86-.45,5.22,5.22,0,0,1-.5-.86c-.07-.13.06-.29.06-.44A.06.06,0,0,1,12.49,3.33Z"/><path class="cls-12" d="M13.88,3a.8.8,0,0,1,.33.3,2.26,2.26,0,0,0,1.08.7.12.12,0,0,1,.09.13.24.24,0,0,0,.18.26H15.4c-.26,0-.26,0-.16-.25a0,0,0,0,0-.06,0c-.23.26-.22.26-.5.07s-.28-.21-.43-.3A.49.49,0,0,1,14,3.53C14,3.34,13.92,3.16,13.88,3Z"/><path class="cls-13" d="M15.9,13.54a.51.51,0,0,0-.3-.13l-1.35-.11a5,5,0,0,1-2.19-.47,1.44,1.44,0,0,1-.32-.23l-.14-.11a1.72,1.72,0,0,1,.42.1,17,17,0,0,0,2.81.63,10,10,0,0,0,1.34.16c-.05.06-.11,0-.17,0S15.9,13.47,15.9,13.54Z"/><path class="cls-14" d="M12.49,3.33v.08c-.14,0-.11.16-.14.25s-.06.1-.13.09a4,4,0,0,1-1.43-.44c-.2-.11-.42-.2-.63-.3.08-.13.18,0,.26,0a5.26,5.26,0,0,0,1,.27,2.28,2.28,0,0,0,.9,0A.22.22,0,0,1,12.49,3.33Z"/><path class="cls-15" d="M14.4,11.6a2.25,2.25,0,0,1,.46.15c-.06,0-.13,0-.17,0s-.13,0-.11.12l-.45-.17A.55.55,0,0,0,14.4,11.6Z"/><path class="cls-16" d="M11.39,14.24a1.31,1.31,0,0,1-.43-.16,2.28,2.28,0,0,1,.52.1S11.4,14.2,11.39,14.24Z"/><path class="cls-17" d="M12.07,1.86a1.59,1.59,0,0,1-.35-.22,1.28,1.28,0,0,1,.44.18S12.09,1.82,12.07,1.86Z"/><path class="cls-18" d="M9,4.37a.58.58,0,0,1-.32-.14,2.88,2.88,0,0,1,.51.1C9.16,4.36,9.08,4.29,9,4.37Z"/><path class="cls-19" d="M8.85,8.89C9,8.84,9,9,9.07,9l0,.05Z"/><path class="cls-20" d="M2.48,5A1,1,0,0,0,2,4.58c-.26-.11-.28-.12-.21-.39s0-.2-.15-.23-.27,0-.25.2c0,.06,0,.12,0,.18s0,.11-.1.11a.86.86,0,0,0-.8.87c0,.44,0,.7.34.86.09.05.24,0,.28.14a.77.77,0,0,1,0,.33.78.78,0,0,1,0,.16A.13.13,0,0,0,1.07,7c.08,0,.17.16.26.12s0-.18.07-.28v0c.06-.15,0-.42.27-.37,0,0,.07,0,.1-.08L2,6.11s.08-.05,0-.1S2,5.94,1.91,6s0,.08-.11.08c0-.16,0-.16-.15-.23a.13.13,0,0,1-.1-.16,4.13,4.13,0,0,0,.07-.49c0-.1,0-.11.12-.07a1.26,1.26,0,0,1,.36.24c.06.07.13.08.17,0S2.59,5.16,2.48,5Zm-1.26.23c0,.13,0,.26-.05.38s-.08.13-.16.07a.28.28,0,0,1-.08-.33.3.3,0,0,1,.24-.26C1.3,5,1.19,5.15,1.22,5.19Z"/><path class="cls-20" d="M2.06,6.5l-.22,0c-.08,0-.09,0-.07.11.11.33-.15.65-.46.53a1.42,1.42,0,0,1-.69-.42C.55,6.67.53,6.48.4,6.48s-.22.13-.33.2h0c-.08,0-.07.08,0,.14a1.21,1.21,0,0,0,.46.6c.15.09.16.19.08.34s-.11.26.16.37c.08,0,.14,0,.15-.07.06-.29.21-.39.49-.3,0,0,0,0,.09,0h.13c.44-.07.68-.57.75-1C2.38,6.47,2.33,6.43,2.06,6.5Z"/><path class="cls-20" d="M2.22,6.34s.12,0,.12-.1a.16.16,0,0,0-.06-.15s-.08,0-.12.08L2,6.28,2,6.34Z"/><path class="cls-20" d="M1.82,5.75s0,0,0,0A.1.1,0,0,0,2,5.73s0,0-.05,0S1.82,5.7,1.82,5.75Z"/><path class="cls-21" d="M11.74,12.6a4.48,4.48,0,0,0,1.31.52l1,.14.16,0a1.87,1.87,0,0,1-.7.15,2.16,2.16,0,0,1-1.56-.6C11.9,12.78,11.78,12.73,11.74,12.6Z"/><path class="cls-22" d="M20.41,7c.06.41.12.82.15,1.24,0-.17-.09-.22-.27-.13-1.05.51-2.12,1-3.2,1.43a23.37,23.37,0,0,1-3.17,1l-.68.12a7.06,7.06,0,0,1-.15-.92.19.19,0,0,1,.16-.09A24.12,24.12,0,0,0,18.38,7.9l1.73-.81A.62.62,0,0,1,20.41,7Z"/><path class="cls-23" d="M20.41,7l-1,.48c-.74.34-1.47.68-2.22,1a22.84,22.84,0,0,1-2.92,1c-.39.11-.79.2-1.18.28A3.14,3.14,0,0,1,13,9.14.14.14,0,0,1,13.1,9a25,25,0,0,0,5-1.71l2.15-1c.1,0,.13,0,.14.08S20.39,6.79,20.41,7Z"/></g></g></svg>