<svg xmlns="http://www.w3.org/2000/svg" viewBox="0 0 1108.03 546.43"><defs><style>.cls-1{fill:#2f2f43;}.cls-2{fill:#6fa5d7;}.cls-3{fill:#36394f;}.cls-4{fill:#80aad5;}.cls-5{fill:#ec2024;}.cls-6{fill:#76b64d;}.cls-7{fill:#6fb14a;}.cls-8{fill:#70b24d;}.cls-9{fill:#4b526f;}.cls-10{fill:#75b44b;}.cls-11{fill:#71b14c;}.cls-12{fill:#77b54c;}.cls-13{fill:#71b152;}.cls-14{fill:#73b34d;}.cls-15{fill:#6faf51;}.cls-16{fill:#77b64d;}.cls-17{fill:#e5e5e5;}.cls-18{fill:#f2b935;}.cls-19{fill:#f4b82b;}.cls-20{fill:#f5b730;}.cls-21{fill:#5ea551;}.cls-22{fill:#f6bd37;}.cls-23{fill:#2b2c3d;}.cls-24{fill:#58a34c;}.cls-25{fill:#6ca7da;}.cls-26{fill:#2d2e42;}.cls-27{fill:#6caaa6;}.cls-28{fill:#c9d764;}.cls-29{fill:#80b4e1;}.cls-30{fill:#d7e147;}.cls-31{fill:#4a506a;}.cls-32{fill:#36394e;}.cls-33{fill:#494f69;}.cls-34{fill:#313246;}.cls-35{fill:#274398;}.cls-36{fill:#484f6a;}.cls-37{fill:#cdc8ce;}.cls-38{fill:#e5e6e7;}.cls-39{fill:#62719d;}.cls-40{fill:#251f20;}.cls-41{fill:#4486c6;}.cls-42{fill:#3c3f56;}.cls-43{fill:#484d68;}.cls-44{fill:#2b2c3f;}.cls-45{fill:#2e2e42;}.cls-46{fill:#2c2f44;}.cls-47{fill:#49506c;}.cls-48{fill:#2e2f42;}.cls-49{fill:#8cb2dc;}.cls-50{fill:#484e68;}.cls-51{fill:#6dae4e;}.cls-52{fill:#6dae4b;}.cls-53{fill:#6aad4e;}.cls-54{fill:#78b748;}.cls-55{fill:#76b54c;}.cls-56{fill:#73b44b;}.cls-57{fill:#78b749;}.cls-58{fill:#72b350;}.cls-59{fill:#f5b82f;}.cls-60{fill:#f2b932;}.cls-61{fill:#f9b217;}.cls-62{fill:#8b8b91;}.cls-63{fill:#aaa9af;}.cls-64{fill:#f0c453;}.cls-65{fill:#76addd;}.cls-66{fill:#659fd6;}.cls-67{fill:#3c4057;}.cls-68{fill:#739dca;}.cls-69{fill:#759eca;}.cls-70{fill:#7fbb44;}.cls-71{fill:#9bc895;}.cls-72{fill:#a0cd97;}.cls-73{fill:#7fbc42;}.cls-74{fill:#80bd42;}.cls-75{fill:#7ebb44;}.cls-76{fill:#96c690;}.cls-77{fill:#373b51;}.cls-78{fill:#2d2d40;}.cls-79{fill:#cecad0;}.cls-80{fill:#a5a4ab;}.cls-81{fill:#444963;}.cls-82{fill:#f7f6f6;}.cls-83{fill:#86888e;}.cls-84{fill:#4e484a;}.cls-85{fill:#3c7ec1;}.cls-86{fill:#6a78a2;}.cls-87{fill:#494f6a;}.cls-88{fill:#060908;}.cls-89{fill:#cdcad0;}.cls-90{fill:#b6b6bd;}.cls-91{fill:#8c8b91;}.cls-92{fill:#cdcad1;}.cls-93{fill:#a4a0a6;}.cls-94{fill:#95979e;}.cls-95{fill:#cbc8d1;}.cls-96{fill:#3e425a;}.cls-97{fill:#303145;}.cls-98{fill:#74b34b;}.cls-99{fill:#6aad4d;}.cls-100{fill:#76b54a;}.cls-101{fill:#f6b82d;}.cls-102{fill:#99cb97;}.cls-103{fill:#8cbf86;}.cls-104{fill:#98c893;}.cls-105{fill:#6694c3;}.cls-106{fill:#98c792;}.cls-107{fill:#4e4d4d;}.cls-108{fill:#387abe;}.cls-109{fill:#313347;}.cls-110{fill:#a29ea4;}.cls-111{fill:#97c48c;}.cls-112{fill:#97c791;}.cls-113{fill:#6589b1;}.cls-114{fill:#2c72b7;}</style></defs><g id="Capa_2" data-name="Capa 2"><g id="Capa_1-2" data-name="Capa 1"><path class="cls-1" d="M746.69,410.35c-19.13-3.56-38.24-7.37-57.41-10.61-14.2-2.4-28.23-6.62-42.69-6.59-1.82,0-3.23-2.51-5.28-1.62a13.78,13.78,0,0,0-3.51-1.24c-5-.32-5.53-3.14-2.95-7.83,8.37-1.17,16.51,1.67,24.64,3,19.56,3.21,39,7.36,58.8,8,5.66.18,11.21,1.56,16.88,1.66,17.68.33,30.75-8.45,39.51-28,6.19-13.85,12.72-27.5,18.38-41.67,6.47-16.19,17.71-25.82,29-35.71,1.22-1.07,5.22-.92,1.54-4.61-1.79-.52-3.78-.59-4.56-3.25,1.59-2.89.43-3.83-1.84-4.05-4.42-.41-8.42-2.29-12.46-4.61-9.06-5.2-15.18-13.36-18.38-25a24.51,24.51,0,0,0-2.52-6.24c-4-6.64-3.12-13.16.44-19.39a24.89,24.89,0,0,0,3.65-12c1.94-2.55,4.41-2.8,7-2.61,10.82,1.22,21.67.1,32.5.61a4,4,0,0,1,3,1.52c.74,4.46-2,4.63-4.11,4.43-7.39-.73-14.44,2.17-21.71,2.8-12.35,1.08-16.34,12.68-9.77,25.68,12,23.68,30.31,29,50.65,26.45,32.8-4,65.42-10.06,98.19-14.44,7.66-1,15.37-1.81,23.07-2.56,3-.29,5.93-.37,7.53,3.74a4.34,4.34,0,0,1-1.7,4.45l-18.84,1.93-7.36,1.75c-5.21-.41-10.42-.91-15.25,2.41-3.5,3.72-7.63.38-11.35,1.56-11.43.21-22.84.5-33.87,4.91-2.46.94-4.86,2.32-7.54,1.45-3.7-3.05-6.8-.11-10,1.51l-7.53.46c-3.88,3.26-8.7-.24-12.61,2.72-3.09,1.92-6.43,2.28-9.79,2.47-2.36-.31-6-2.66-4.23,3.9-3.62,10.48-9.44,19.39-13.64,29.45-1.07,2.84-.78,6.79-4.12,7.77L808,338.69c-8.7,16.45-17.86,32.56-26,49.44C773.84,405.19,762.67,413.24,746.69,410.35Z"/><path class="cls-2" d="M845.69,538.45c-13.17,0-26.36.49-39.52-.1-32.24-1.46-64.57-2.18-96.26-11-6.48-1.8-12.8-4.58-19.11-7.25-2.34-1-4.85-2.85-4.18-6.73.55-3.13,2.83-3.81,5.21-4.63,17.87-6.23,36.12-9.82,54.43-13.19,9.11-1.68,18.33-1.47,27.42-1.93,24-1.22,48-3.05,72-2,5.11-4,10.33-.57,15.48-.24,1.34.09,2.73,1.37,2,3.77-2.44,2.77-5.47,1.73-8.29,1.9-11.93.71-23.94-1.49-35.8,1.53-10.14,1.33-20.37,1.12-30.52,3-10.94,2-21.79,4.12-32.16,9.09a12.47,12.47,0,0,0-2.73,1.89c-1.16,1-2.94,1.68-2.67,3.87.31,2.48,2.32,2.61,3.85,3.34,9.6,4.58,19.73,6.46,29.79,8.36,20.05,3.79,40.3,4.28,60.55,4.83,4.36,0,8.72-.13,13.07.1,2.22.11,4.75-.08,5.3,3.8C859.76,541.75,851.69,542.45,845.69,538.45Z"/><path class="cls-3" d="M824.34,282.53c1.88.11,4.17-.09,4.42,3a6.24,6.24,0,0,1-3.21,6.07,71.58,71.58,0,0,0-28.79,31.62c-6.67,14.31-12.63,29.12-19.24,43.5-4.25,9.25-9.17,17.81-15.92,23.64a32.53,32.53,0,0,1-22.49,7.5c-15.58-.52-31.16-1.42-46.63-4.33-17.66-3.33-35.38-6.13-53.11-8.89a10,10,0,0,1-4.52-2.15,3.27,3.27,0,0,1-.27-1.4c.18-.36.37-.72.56-1.08,2.84-2.49,6.12-1.75,9.13-1.37,19.29,2.47,38.5,5.92,57.83,8a153,153,0,0,0,35.08-.05c10.47-1.32,18.46-8.54,24.75-19.18,11.37-19.23,18.53-41.28,27.52-62.09,3.06-7.1,6.78-12.16,12.85-14.9,5.69-2.58,11.16-5.9,17.44-5.68A6,6,0,0,0,824.34,282.53Z"/><path class="cls-4" d="M863.29,494.74a43.52,43.52,0,0,0-17.6-3.11c.9-1.51,2.51-2.43,2.52-4.67,15.41,3,31.06.36,46.48,3.1,1.4-2.58,3.56-2.45,5.64-2.31,25,1.72,49.89,4.54,73.78,14.91,1.18.51,2.34,1.1,3.49,1.7,4.06,2.09,7.55,5,7.68,11.08.12,6.28-3.63,8.85-7.66,10.91-12.45,6.38-25.66,9.24-38.83,11.6-12.76,2.3-25.53,5-38.46,5.62-2.87.14-5.86,1.39-8.15-2-15.9.94-31.8,2-47.73,1.55.41-1.55.83-3.11,1.24-4.67,5.86-.65,11.88,1.49,17.6-1.57a6.77,6.77,0,0,1,6.55-3.72c24.77,1.37,48.83-5.13,73-10.09a22.35,22.35,0,0,0,9.43-4c3.62-2.82,3.62-5.27,0-8-4.58-3.45-9.83-4.2-15-5.25-16.65-3.39-33.4-5.89-50.13-8.43-6-.91-12.11-.18-18.17-.3C866.91,497,864.7,497.33,863.29,494.74Z"/><path class="cls-5" d="M462.86,122.27l1.05-2c.48-4.86,2.7-7.83,6.43-9.19,4.79-3.53,9.54-7.15,14.87-9.36,7.85-.86,15.69-1.41,23.55-.3,3.91,6.68,3.89,10.59-.06,17-3.53.09-7.05.24-10.58.25-16.06.06-23.23,7.55-25.82,27-4.36,4-8.87,3.35-13.45.67a1.54,1.54,0,0,0-.92-.9C454.93,137.86,456.75,129.27,462.86,122.27Z"/><path class="cls-6" d="M612.05,148.45a2,2,0,0,0,2.27,1.55c3.51,6.34-1.35,9.64-3.68,13.1s-4.72-.59-6.87-2.29c-3-2.36-5.94-4.86-9-7-2.58-1.82-4.76-3.23-2.35-7.62,1.74-3.18-.42-3.72-2.49-4.17-7-1.54-13.92-3.42-20.93-4.76-2.86-.55-3.87-.84-2.8-5.14,3.63-14.59,3.43-14.66,15.66-12,2.27.49,4.54.91,6.8,1.45,8.32,2,8.33,2,7.36,12.48-.17,1.78-.65,3.1,1.35,4.31C602.37,141.35,607.16,145,612.05,148.45Z"/><path class="cls-7" d="M577.82,95.3c-.89-3.22.19-4.48,2.85-5.08,7.35-1.67,14.66-3.63,22-5.61,3.84-1,5.14,1,5.6,5.54,1.34,13.23,1.48,13.26-8.88,16.29-4.24,1.24-8.66,1.75-12.76,3.47-5.57,2.36-7.64-.37-8-6.85C578.39,100.49,578.07,97.93,577.82,95.3Z"/><path class="cls-8" d="M583.51,198.38c2.51.06,5,.22,7.52.17,9.55-.17,12.09,4.13,9.56,15.9-.71,3.32-2.49,3.76-4.71,3.81-6.48.13-13,.2-19.45.45-3.78.14-6.1-.55-4.63-6.53.7-2.82,0-6.18-.1-9.29.13-3.64,2.2-3.76,4.4-3.89C578.57,198.86,581.1,199.65,583.51,198.38Z"/><path class="cls-9" d="M639.63,354.5c.11.37.2.75.3,1.12-.31,2.42-1.66,4.1-2.86,5.79-4.05,5.67-3.85,12.49-3.62,19.35-9.89,2.81-16.13,10.64-17.57,22.06-.24,2,0,4.76-2.45,4.25-2.29-.47-1.76-3.32-1.55-5.16,1.18-10.29,2.9-20.44,7-29.66,1-2.24,2.68-4.09,2-7,2.72.26,2.61-2.46,3.05-4.54,1-4.92,1.95-9.91,4.44-14.14C632.78,347.78,634.16,355.61,639.63,354.5Z"/><path class="cls-10" d="M548.91,107.69c1.58-4.76,4.34-8.67,6.24-13.11,2.5-5.79,4.29-6.83,9.23-3,5.13,4,5.47,7.2,2.49,12.85-2.49,4.72-4.43,9.88-6.8,14.7-1.33,2.72-3,5.3-6,2.82-1.74-.83-3.71-1.17-4.82-3.38-1.23-1.88-4.64-2.42-2.54-6.36C547.72,110.92,548,109,548.91,107.69Z"/><path class="cls-11" d="M566.81,145.07c5.5.58,8.38,3.06,6.53,10.94-1.2,5.13-1.21,10.72-1.58,16.12-.33,4.71-2.06,6.47-5.81,5.11a17.28,17.28,0,0,0-4.24-.92c-4.19-.41-5.16-2.79-4.07-7.85.83-3.88,2.27-7.77,1.75-12,.74-1.36.5-2.91.55-4.4C560.2,144.53,560.52,144.2,566.81,145.07Z"/><path class="cls-12" d="M610.69,187.21c-2.64-.24-4.93-.35-7.21-.66-8.59-1.19-8.49-1.34-7.69-11.61.33-4.26,1.91-5.15,4.84-5,4.8.24,9.61.34,14.42.37,3.27,0,6.43.74,5.27,5.89-.93,4.12,1.75,11.71-5.59,11A39.2,39.2,0,0,0,610.69,187.21Z"/><path class="cls-13" d="M642.33,233c5.95-1.17,11.9-2.3,17.83-3.54,2.61-.54,5.34-1,5.3,3.59,0,4.34,3.4,10.41-2.48,12.44a63.69,63.69,0,0,1-17.18,3.65c-5.49.27-4.67-5.75-4.83-10.28C641.42,236.89,641.88,234.94,642.33,233Z"/><path class="cls-14" d="M537.06,170l-6.63-12.27c.34-4.23-5.9-7.63-1-12.43l5.94-4.91c.46-.68.93-.64,1.39,0,4.59,6,7.54,13.32,11.28,20,1.6,2.87.93,4.89-.94,6.63s-3.77,3-5.66,4.54C539.46,173.2,538.08,172.37,537.06,170Z"/><path class="cls-15" d="M636,154.28c4.11,2.34,8.16,4.88,12.36,7,3,1.48,3.9,3.59,2.28,7-1.7,3.58-1.4,10.17-6.74,8.71-3.53-1-6.77-3.51-10.14-5.35-.68-.56-1.39-1.07-2-1.68-2.12-2-7.21-1.67-4.82-7.48C628.65,158.16,629.17,150.45,636,154.28Z"/><path class="cls-16" d="M621.14,235.18c-5.62.46-9.79-5.85-8.07-12.25,1.06-3.92,1.72-8.16,3.38-11.64,1.36-2.85.2-10,6.56-6.51,4.91,2.68,8.18,4.83,5.25,12.31-1.82,4.64-3,9.66-4.49,14.5C623.27,233.21,623.25,235.38,621.14,235.18Z"/><path class="cls-17" d="M508.7,118.4q0-8.52.07-17c1.88-.07,3.76-.19,5.64-.2,8.75-.06,8.43,0,8.63,10.53.21,11.1-6.62,5.3-10.23,7.2Z"/><path class="cls-18" d="M593.3,174.67c-.06,7.57-3.67,14.17-7.7,13.72-4.37-.48-5-4.57-5-9,.06-7.35,3.92-14.32,7.8-13.78C592.65,166.24,593.53,170.09,593.3,174.67Z"/><path class="cls-19" d="M626,146.7c-3-2.94-7.36-5.33-4.36-11.54,2.08-4.31,11-3.84,14.8.71s3.07,8.62-1,12.24C631.89,152,629.21,146.64,626,146.7Z"/><path class="cls-20" d="M634.61,207.33c4.36-4.07,8.88-3.5,13.42-.6,2.76,1.76,5,4.22,4.08,8.5s-3.67,5.2-6.8,5.08c-1.45-.06-2.9-.22-4.34-.33C637.39,216.89,632.12,215.12,634.61,207.33Z"/><path class="cls-21" d="M638.46,63.83c6.8.5,13.6,1.22,20.41,1.41,3.58.1,4.89,1.82,4.31,6.07a20.47,20.47,0,0,0-.58,4.54c.75,8.65-2.44,11.53-9,9.83-5.38-1.12-10.79-.75-16.17-.23-1.94.19-3.68.85-5.13-1.28,0-4.3.17-8.61-.07-12.88C631.92,65.51,634.24,63.55,638.46,63.83Z"/><path class="cls-22" d="M594.55,63.75c-1.8-3-2.4-6.39-.65-9.38,1.94-3.33,5.12-3,8.08-2.47,1.64.32,3.25.85,4.87,1.29,3.61,2.12,5.69,5.54,4.48,10.53-1.28,5.28-5.15,4-8.35,4.23C599.62,68.2,597,66.3,594.55,63.75Z"/><path class="cls-23" d="M633.45,380.76c-5.18-8-2.08-20.06,6.48-25.14a1.68,1.68,0,0,1,1,.26c3.32,1.16,4.15,3.77,2.9,7.63-1.1,3.38-2.4,6.63-3.64,9.92a14.12,14.12,0,0,1-5.54,7.31l-.1.32A4.5,4.5,0,0,1,633.45,380.76Z"/><path class="cls-24" d="M621,121.62c0-2,0-4,0-6,1.11-7.88.4-15.82.44-23.73,0-3.92,1-6,4.25-5.22,3.78.88,7.74-2.32,11.41.81h0c1.55,10.51.3,21.11.68,31.65.07,2-.73,4.3-2.06,4.33C630.79,123.6,625.52,126.66,621,121.62Z"/><path class="cls-25" d="M536.75,140.36h-1.39c-3.86-8.39-1.41-17.12-1-25.79.14-3.22,1.33-1.61,2.27-1.43,2,.4,4,.91,7.76,1.77-8,2.39-6.42,9-6.36,14.71A52.39,52.39,0,0,1,536.75,140.36Z"/><path class="cls-26" d="M628.39,346.54c.77,7.52-1.93,14.2-4.2,20.56-1.72,4.8-1.58-2.66-3.29-1.88-2.38-6.82.91-12.6,2.52-18.52C624.16,344,626.68,346.36,628.39,346.54Z"/><path class="cls-27" d="M637.08,87.52c-15-.55-15-.55-15.18,18.31,0,3.29.64,6.74-.92,9.83-.06-7.52.12-15.06-.25-22.56-.3-6.12,1.21-8.73,6.36-7.38,1.76.46,3.8.53,5.24-1.55,7.09.74,14.3-1,21.3,1.51C648.18,87.25,642.37,83.79,637.08,87.52Z"/><path class="cls-27" d="M621,121.62c3.89,2.63,8.12,1.33,12.19,1.55,3.42.18,3.84-3,3.84-6.36q0-14.64.08-29.29c2.87,11,.77,22.35,1,33.52,0,2.31-1.51,3.89-3.35,3.75-4.69-.38-9.54,1.39-14.06-1.42C620.8,122.78,620.9,122.2,621,121.62Z"/><path class="cls-25" d="M549.23,118.56c2.12,0,4,.61,4.82,3.38-4.15,4.19-9,7.71-9.49,15.48C543.14,129.86,544.42,123.51,549.23,118.56Z"/><path class="cls-28" d="M534.16,100l8.75,1.84,4.11,2.28-4,.8c-.4.55-.83.59-1.29.09-4,4.12-8.21.8-13.28,1.12C530.48,103.06,534.14,103.9,534.16,100Z"/><path class="cls-29" d="M594.55,63.75c1.87,1.06,3.67,2.46,5.63,3.09,3.65,1.16,7.73,2,10.14-2.62,2.62-5-1.56-7.68-3.47-11,3.89.31,6.48,3.28,6.12,7.67-.39,4.72-2.8,8.37-7.55,7.91C601.36,68.39,597,69.49,594.55,63.75Z"/><path class="cls-30" d="M540.24,179.23c-3.66,1.19-7-1-10.86-1.61,1.38-2.18,5.17,0,4.69-4.35,1.63-1.79,3.21-1.84,4.72.24l6.46,2C544.1,177.91,540.6,175.35,540.24,179.23Z"/><path class="cls-25" d="M538.79,173.51l-4.72-.24c-1.25.64-2.43,1.94-4.41.37,2.08-3,4.74-3.33,7.4-3.67l4.37,1.57,3.57.4v1Z"/><path class="cls-25" d="M566.81,145.07c-8-1.82-5.35,7.18-7.42,11.38,0-1.75-.12-3.51-.07-5.27C559.51,143.76,560.8,142.72,566.81,145.07Z"/><path class="cls-25" d="M541.74,105l1.29-.09a7.1,7.1,0,0,0,5.88,2.78c0,2.06-.32,3.88-2.22,4.51C546.36,108.4,541.54,109.36,541.74,105Z"/><path class="cls-25" d="M583.51,198.38c-3.52,3.17-9-1.66-11.81,4.51-1.57-4.18,1-4.36,3.06-4.53C577.66,198.11,580.59,198.35,583.51,198.38Z"/><path class="cls-31" d="M400.91,332.48c2.09,7.78,3.84,15.73,6.38,23.27,2.22,6.6.31,8.34-4.6,8-4.95,4.26-10.67,4.12-16.28,4.07-4.19,0-6-3.93-7.44-8.24-4.51-13.42-6.59-27.86-11.21-41.2-7.64-22-12.33-45.16-17.71-68-1.48-6.28-5.51-8.69-10.26-9.93A66.9,66.9,0,0,0,315.41,239c-22.69,2.49-45.4,4.61-68.09,6.93-18.71,1.91-36.68-2.47-52.41-16.49-4.75-4.23-8-9.39-6.46-17.12,1.5-7.51,6.27-9.48,11.68-12.16,12.82-6.37,26.6-2.48,38.27-6.91-10.76,3.11-22.87,2.77-35,2.76-7.28,0-14.65-1.36-21.81,1.49a50.18,50.18,0,0,0-20.54,8.68c-7.48,5.21-14.95,5.38-22.85,3-3.21-3.5-.51-6.11,1.08-8.5,10.62-16,21.24-32,32.26-47.61,16.67-23.55,32.76-47.77,50.79-69.79,3.27-4,6.46-8.11,10.65-10.71,2.15-.29,4.06.79,6,1.73,6.87,3.4,7.5,6.59,2.91,14.25-9.38,9.58-14.58,23.19-21.67,35-1.83,3-1.12,5.83,1.07,8.22,2.66,2.92,5.5,5.55,8.33,8.22,6.63,6.27,14.07,11.15,20.22,18.28,3.21,3.71,6.9,4.69,10.79,1.19,9.8-8.83,20.6-15.67,30.65-24,3.47-2.86,5.75-2,7.67,2.22a28,28,0,0,1-10.69,20.5c-8.53,7.47-17.5,14.25-24.76,23.74-1.1,1.45-2.83,3-2.25,5.21.66,2.53,2.82,1.7,4.38,1.89,24.15,2.8,48.25,6.21,72.47,8,18.09,1.31,29.76,12.1,35.8,33.78,8.47,30.45,17,60.87,25.87,91.16C400.74,325.34,402.07,328.7,400.91,332.48Z"/><path class="cls-32" d="M181.14,195.06c2-2.11,4.37-1.45,6.62-1.46,10.67-.06,21.35-.13,32,0,7.12.09,14.17-.13,21.11-2.55a8,8,0,0,1,6.8,1c-5.14,1.54-10.24,4-15.43,4.41A145.59,145.59,0,0,0,199.71,203c-4.71,1.48-8.57,4-9.47,10.75-.81,6.12,1.77,9.52,5.5,12.73C212.51,240.92,231,245,251,242.3c17.8-2.38,35.72-3.23,53.57-5.12,11.44-1.21,22.79-2.51,34.28-.09,8.07,1.7,11,4.61,13.55,14.48,6.77,26.11,12.68,52.58,20.57,78.25,3,9.87,6.23,19.71,8.61,29.83,1.19,5.08,3.36,6,6.78,5.45,4.76-.81,9.48-2.05,14.32-1.34.28,1,.55,2.08.83,3.12a4.33,4.33,0,0,1,.51,3.8c-7,9-17.4,9.27-22.81.68-.45-5.75-5-8.53-6.35-13.85-1.53-6-4.13-11.54-6.26-17.29,1.57-7.87-2.74-13.74-4.79-20.21-6.8-21.38-14.57-42.32-18-65.11-.85-5.69-2.93-8.65-8-8.35-16.61,1-33.14,3-49.64,5.36-19.49,2.77-39,6-58.48,8.27-15,1.76-29.21-3.41-41.36-14.56-6.58-6-11-15.13-13.66-24.73-3.18-11.53,4.07-23.48,13.86-24.16,2.5-.18,5,0,6.62,0C191.21,194.87,185.84,199.71,181.14,195.06Z"/><path class="cls-33" d="M447.54,147l-.16,4.46c-8.63.64-17-2.06-25.45-3.3-32.43-4.76-64.58-11.39-95.78-23.79-3.36-1.33-6.91-2.28-9.7-5.31-2-8.59,1.53-15.1,5.19-21.59,2.91-1.87,5.73-.71,8.48.56,10.63,4.89,21.78,7.2,32.75,10.42,21.84,4.22,43.63,8.75,65.5,12.69,4.13.74,8.31.89,12.39,2.16,3,.91,5.61,2.07,7,5.82C449,135.09,449.71,141.06,447.54,147Z"/><path class="cls-34" d="M316.62,118.49a5.39,5.39,0,0,1,4.26.27c27,12.26,55.06,18.31,83.34,23.33,12.71,2.25,25.46,4.24,38.21,6.23,2,.31,3.36,2,4.95,3.13-1.91,5-5.71,1.5-8.42,2.93-7.22-2-14.56-.85-21.85-1.17-33.67-1.51-67.22-4.07-100-15.07-2.39-.8-5-1.15-6.81-3.62C309.25,127.1,311.23,122.07,316.62,118.49Z"/><path class="cls-35" d="M458.85,146.32c4.44-1.53,9-.59,13.45-.67,2,17.82,9.63,26.49,24.08,27.24a20.9,20.9,0,0,0,5,0c5.9-1.09,6.73,2.65,6.8,9,.08,6.74-1.44,8.72-7,8.85-13.32.32-25.3-2.67-34.37-16C461.2,166.55,457.87,157.37,458.85,146.32Z"/><path class="cls-36" d="M381.22,371.36c7.68,5.53,15,3.64,22.24-1.49,3.67.57,5.84,4.69,9.37,5.85,4.91,1.6,9.61,3.24,14.32-.79,1.11-.95,2.62-1.73,4.09-.48,2,5-1.77,5-3.68,6-5.7,3-12.15,3-17.76,6.54-4.09,1.68-8.73-3.52-12.54,1.57A4,4,0,0,1,397,384c-5.41,2.39-11.16,5.39-17,.09C381.55,380,381.12,375.65,381.22,371.36Z"/><path class="cls-37" d="M447.54,147c-1.32-5.62-1.24-11.39-1.16-17.15,4.08-3.71,8.45-6.5,13.65-6.69l2.83-.88c-2.64,7.39-4.67,15-4.93,23.15C455,151.5,451,146.8,447.54,147Z"/><path class="cls-38" d="M509.18,173.4c1.65-.14,3.29-.38,4.94-.4,8.74-.13,10.55,2.9,8.79,13.86-.5,3.13-1.94,3.49-3.93,3.54-2.89,0-5.79.17-8.68.26C507.79,185.12,509.73,179.13,509.18,173.4Z"/><path class="cls-39" d="M431.24,374.45c-10.14,6.71-19.45,5.69-27.78-4.58l.06-3c3.79,3.05,7.19,6.79,11.9,8,3.95,1,7.63,2.13,11.33-1.05A2.77,2.77,0,0,1,431.24,374.45Z"/><path class="cls-40" d="M119.29,145.2a7.54,7.54,0,0,1-5.46,5.8c-6.06,2.07-5.83,5.92-3.3,12,4.23,10.1,7.61,20.75,11.72,30.93,1.78,4.41.92,6.47-2.43,8.31-9.34,5.14-18.6,10.51-27.9,15.78-.94.54-2.2,1.72-2.85,1.35-8.14-4.55-13.36,3.58-19.69,6.78-6.51,3.52-13.09,6.84-19.47,10.68-3,1.82-4.43,1-5.76-2.56Q24.83,181.78,5.32,129.43c-1.64-4.4.55-5.44,2.95-6.79,9.91-5.57,19.84-11.1,29.71-16.8,2.3-1.33,5.23-2,5.15-6.66,0-2.43,2.21-2.81,3.67-3.69,6-3.65,12-7.26,18-10.89,13.68-9,13.89-8.88,20.2,8.58,2.82,7.8,5.89,15.48,8.47,23.4,1.5,4.63,3.56,5.13,6.74,3,2.57-1.73,5.15-3.55,8.27-2.51.75,2.1-.29,3.41-1.32,4.74-1.67,1.33-2.83,3.36-4.28,5-2.3,5.73,1.07,15.69,6,17.71a24.77,24.77,0,0,0,7-1A3.37,3.37,0,0,1,119.29,145.2Z"/><path class="cls-1" d="M171.11,238.8c-.41-6.4-3.63-11.41-5.51-17.08-1.15-3.45-3.66-2.88-5.88-2.89-6.1,0-12-1.2-17.4-4.87-2-1.4-4.85-2.24-4.78-6.27,11.89,2.88,22-3.79,32.26-9.41,3.61-2,7.29-3.61,11.34-3.22h22.55c-4.15,4.21-7.6,3.13-10.75,3.12-6.51,0-11.92,2.07-15.07,9.89-3,7.47-1,13.17,2.38,20.05,13.08,26.85,33.13,30.88,55.6,28.05,16.56-2.09,33.1-4.36,49.64-6.54,17.3-2.28,34.55-5.26,52-4.62,8.4.31,9.28,1.66,10.91,11.59a249.49,249.49,0,0,0,11.85,45.26c3.73,10.22,6.88,20.78,10.1,31.28.78,2.56,1.45,5.74-1.76,7.08-8.07-23-16-46.16-22.18-70.09-1.2-4.63-2.64-9.29-3.05-14.06-.63-7.19-3.9-9.42-8.76-7.7-5,1.78-10.42.22-15.22,3.2-7.63-1.35-15.07,1.32-22.62,1.62-11.27,3.75-22.94,3.95-34.41,6-9.44,1.7-18.92,3.12-28.39,4.66-4.55,1.51-11-1.62-12.37,7.71-.15,9.66-4.38,16.41-10.19,22a7.78,7.78,0,0,0-2.47,4.58,18.86,18.86,0,0,1-5.35,10.46q-15.66,29.55-31.33,59.09c-2.06,3.88-4.15,7.76-6.33,11.55-7.06,12.24-16.62,17.43-28.66,15.45-9.74-3-19.74-3.77-29.63-5.44-11.07-1.87-22.16-3.55-33.25-5.31-6.21-1.53-12.62-1.26-18.79-3.13h0C46,377,35.79,377.46,26,374.84c-2.35-.63-5-.49-3-4.95a7.22,7.22,0,0,1,1.75-2.84,4.4,4.4,0,0,1,4.26-.4c11.76,5.08,24.22,3.21,36.26,5.55,10.07,2,20.31,2.95,30.28,5.22,9.3,2.11,18.32.56,27.45.75,4.74.1,9.44,1.2,14.31-.56,11.23-4.07,18.57-13.61,24.46-25.31,8.54-16.95,15.94-34.7,23.77-52.15,2.83-6.32,7.27-10.72,11.76-14.95,4.16-3.93,8.24-8,12.65-11.54,1.72-1.36,4-2.56,1.5-5.67-9.58,1.22-18.12-2.7-26.36-8.09C178.16,255.21,172.27,249.42,171.11,238.8Z"/><path class="cls-41" d="M109.62,485.39c22.78.85,45.5-1.76,68.28-1.82,25.93-.07,51.88.54,77.67,2.52,17.35,1.33,34.82,3.41,52.23,5.21a131.72,131.72,0,0,1,31.62,7.3c5.8,2.09,12.1,2.49,18,5.15,4.45,2,8.46,4.09,8.29,10.76-.16,6.41-3.44,11.16-8.22,12.35-19.56,4.87-38.55,12.86-58.9,13.41-28.31.75-56.47,5.74-84.83,6q-36,.28-71.92-.09c-10.74-.11-21.49-.95-32.23-1.45-7.6-2.68-15.39-3.44-23.24-3.62-6.77-.17-13.35.2-19.35-5.72-3.88-3.82-9.35-3.8-14.47-2.68-4.94,1.08-9.91,4-13-5.13-1.1-3.21-6.8-2.62-10.48-3-2.7-.3-5.15-.64-5.69-4.52s1.78-4.78,4.26-5c2.14-.19,2.51-2.08,3.08-4.15,1-3.65,3-6.16,6.28-6.7,1.24-.2,2.79-.18,3.13-2,1.66-8.58,6.9-6.2,11.1-5.17,6.72,1.66,12.88.8,18.48-4.07,5-4.33,10.89-4.12,16.19-3.72C94.14,489.84,101.78,487.3,109.62,485.39Z"/><path class="cls-42" d="M24.3,368.44,23,369.89c-.08-1.51-.17-3-.25-4.52.29-3.48,2.06-5.24,4.6-6.09,17.3-.41,34.21,4.78,51.47,5.55A147.4,147.4,0,0,1,98,367.3c10.45,1.86,20.62-2.07,30.76-4.86,3.79-1.05,6.6-4,9-7.89,7.59-12.51,13.52-26.09,18.61-40.4,5.56-15.65,11.76-31,17.39-46.59,2.28-6.34,7.08-7.41,11.26-10,9,3.82,17.66,9.41,27.64,7.8,3.07,2.3,2.13,4.46-.19,6.48-2.13,1.84-4.66,2.23-7.11,2.87-12.51,3.25-22.44,10-27.19,26.31C174.92,312,170,322.13,166,332.69c-6.12,15.94-14.44,29.71-27,39.05a28.17,28.17,0,0,1-16,5.83c-18.21.83-36.24-1.23-54.27-4.32-10.28-1.77-20.61-3.66-31.07-3.48C33.15,369.84,29,365.39,24.3,368.44Z"/><path class="cls-43" d="M77,341.93c12.11,2,24.21,3.95,36.31,6a44.08,44.08,0,0,1,7.34,1.68c8.33,2.91,14.58-.51,19.17-9.32,2.19,8.18-1.23,17.43-8.85,20.86-11.24,5.06-23,7.73-35,6.18-20.53-2.66-41.09-4.92-61.63-7.51-2.35-.29-4.63-.3-6-3.18-1.65-6.31.93-11.25,3.46-16.2,9.91-2.23,19.81.1,29.7.44C66.57,341,71.76,341.9,77,341.93Z"/><path class="cls-36" d="M16.66,330.94c4.5,1.14,5.2,8.67,10.06,9.22a3.11,3.11,0,0,1,.16,2.92c-4.18,6.48-5.17,14.36-6.46,22.11-7.34-.3-16.28,11.84-16.34,20.88,0,2.29.82,6.33-2.19,5.94-2.75-.34-1.82-4.41-1.36-6.48,2.53-11.25,2.63-23.69,9.86-32.76,3.25-2.74,1.53-7.55,3-11.12C14.77,338.27,14.8,334.16,16.66,330.94Z"/><path class="cls-3" d="M20.42,365.19c-3.93-10.68,1.53-17.72,6.3-25l5,.27c2.08,5.43-2.77,8.92-2.52,13.85-1.4,1.73-.46,4.89-2.47,6.24a10.15,10.15,0,0,1-4,4.85Z"/><path class="cls-44" d="M16.66,330.94c1.5,8.19-2.64,14.9-3.93,22.35-.26,1.55-1.86,2-2.34-.52-3.66-6.84-.22-13.25,1-19.69C12,329.76,14.61,330.66,16.66,330.94Z"/><path class="cls-3" d="M973.84,257.53c-1.36-3.06-3.41-2.94-5.92-2.58-14.25,2.05-28.54,3.69-42.79,5.75-15.28,2.21-30.48,5.57-45.81,6.89-17.92,1.54-35.49,8.14-53.83,4.19-17.77-3.83-29.36-16.51-36.65-35.88-3.64-9.67,5.23-21.73,15.91-21.93,7.52-.14,14.9-2.64,22.45-1.73a3.75,3.75,0,0,0,3.44-1.52c.26-.71.49-1.62,1.05-1.88,8.9-4.08,18.3-4,27.57-4.78a2.79,2.79,0,0,1,2.72,2.71c.21,1.73-.77,2.84-1.8,3.78a12.6,12.6,0,0,1-5.25,2.44,83.06,83.06,0,0,1-22.3,3.92c-7.91.14-15.26,3.13-22.44,6.65-6.61,3.24-7.11,9.48-1.78,15.57A38.48,38.48,0,0,0,823,249.61c12.52,5.11,25,8.68,38.65,6.73,25.71-3.69,51.35-8.24,77.17-10.62,11-1,22.06-3.47,33.06-.33,9.14,2.62,17.94,6.79,26.89,10.22,22.36,8.6,45.49,13.55,67.68,22.81,3.89,1.62,6.83.41,9-4.2,2-4.23,3.59-8.85,6.8-12.05a4.65,4.65,0,0,1,2-1c2.13.2,4.3.27,5.9,2.45,2.4,11.09-2.84,22.46-11,23.76-4.86-1.75-9.78.57-14.65-.31l-9.07-2.95c-5.74-3.67-12.23-2.81-18.28-4.69-9.36-2.91-19-4.28-28.33-7.09C996.9,268.75,984.78,265,973.84,257.53Z"/><path class="cls-45" d="M973.84,257.53c2.83-2.11,5.6-1.73,8.18.58,6.24,5.59,13.38,7.62,20.84,8.93,4.21.74,7.81,3.71,12.42,4.21,12,1.32,23.28,7.81,35.35,9.41,3,.39,6.18-1.23,9,1.51-.82,2.84-2.84,1.34-4.23,2-19.6-2-38.66-7.67-57.75-13.1-8.61-2.45-17.17-5.32-25.08-10.47C973,259.55,973.42,258.54,973.84,257.53Z"/><path class="cls-46" d="M380,384.11c6.84,1,13.47-2.16,21.49-1.65-2.68,1.76-4.79,2.86-4.26,6.07-3.68,3.36-8.22,3.35-12.37,4.26C379.51,394,379.76,388.68,380,384.11Z"/><path class="cls-47" d="M1079.12,287.39c6.68-5.59,10.17-13.32,10.19-23.39a3.44,3.44,0,0,1,1.7-2.12c8.84-4.15,13.62-11.92,13.77-23.83,1-1.07,2-2.52,3.19-.28l.06,14.86a227.18,227.18,0,0,1-11,26.71c-2.29,1.8-2.89,4.9-3.87,7.72-1.34,3.82-2.72,7.61-6.19,9.21Z"/><path class="cls-48" d="M1087,296.27c2.1-5.44,5-10.43,6.21-16.37.88-4.17,2.42-1.91,3.85-.56,2.9,7.2-1.3,12.69-3.47,18.21C1092.42,300.4,1089.06,298,1087,296.27Z"/><path class="cls-45" d="M885.9,273.12c3.19-5.18,8-4.32,12.32-4.82,7.16-.81,14.36-4.32,21.55-.09-2.13,2.73-5,1.45-7.49,2.12C903.37,269.57,894.81,273.87,885.9,273.12Z"/><path class="cls-45" d="M868.32,276.08c3.09-3.14,6.06-7.45,10-1.51Z"/><path class="cls-45" d="M931.12,266.65c2.77-5.23,8.91-6.2,15.25-2.41C941.38,266,936.39,267.68,931.12,266.65Z"/><path class="cls-49" d="M892.18,541.57c12.41-1.38,24.78-2.84,37.14-5,11.53-2,22.86-5.14,34.27-7.78,5.86-1.36,11.46-4.6,17.08-7.3,2.06-1,3.21-3.49,2.87-6.33a9,9,0,0,0-5.6-7.59c-9.77-4.56-19.72-8.51-30.06-10.22-17.68-2.93-35.18-8-53.19-7.31-3-2.93-8.32-.13-10.05-6.23,18.9,1.31,37.77,2.49,56.59,5.64,16.95,2.83,33.83,5.6,50.28,11.51a127.91,127.91,0,0,1,17.09,7.2c5.06,2.68,5.35,8.6,1,12.95a13.78,13.78,0,0,1-4.36,3,239,239,0,0,1-49.75,14.65c-15.66,2.77-31.42,4.13-47.06,7-7,1.27-14.18.42-21.29.53C888,543.25,890.8,543.61,892.18,541.57Z"/><path class="cls-45" d="M834.16,285.63c-2.26-.82-3.45-2.66-2.83-5.57a2,2,0,0,1,3-1.52c1,.48,4-2.23,2.61,2.34a3.51,3.51,0,0,1-.94,1.64Z"/><path class="cls-50" d="M727.5,364.11c7.88,3.55,15.63,4.91,21.17-5.06,2.41-4.34,3.85-9.58,5.4-14.56q13.08-41.92,26-83.91l2.88-9.29c5.4,2.62,5.43,9.66,7.88,14.72a23.51,23.51,0,0,1-1.31,11.39c-8.73,24.73-17.27,49.58-26.69,73.92a84.51,84.51,0,0,1-15,24.85c-8.13,9.38-18.58,10.4-28.81,10.67-18.4.49-36.64-2.63-54.84-5.62C657,380,649.64,380,642.43,378.47c-2.51-.51-5.29-.65-4-5.44,1.22-3.55,2.22-7.23,3.7-10.59,1.28-2.9.71-4.79-1.18-6.56,15.48-2.75,30.81.79,46.15,2.14C700.62,359.22,714,362,727.5,364.11Z"/><path class="cls-51" d="M721.15,210.68c.91-1.71,1.74-3.5,2.75-5.12,2.39-3.86,4.58-5,8.12-1,8.06,9.19,8.27,9,1.57,19.88-3,4.92-6.34,9.56-9.21,14.6-2.25,4-4,2.6-5.85-.16-7.92-9.89-7.9-9.87-.64-21.65C719.14,215.2,720.07,212.87,721.15,210.68Z"/><path class="cls-52" d="M655.12,132.24c-3.14.76-4.13-2-4.75-4.79-1.8-8.24-3.35-16.57-5.21-24.79-1-4.46-.23-7.06,3.76-7.44a10.56,10.56,0,0,0,1.82-.56c9.38-2.69,9.35-2.68,11.71,8.94,1.17,5.77,2.2,11.61,3.8,17.2,1.64,5.75.85,8.9-4.44,9.48C659.55,130.53,657.35,131.56,655.12,132.24Z"/><path class="cls-53" d="M659.86,170.45c-3.2-1.13-3.71-4.91-5.48-7.25-4.7-6.25-2.81-10.46,2.33-14.32,4.61-3.47,9.07-7.29,13.42-11.26,2.92-2.65,4.63-3,6.8,1.53,5.63,11.73,5.83,11.59-3.28,19.62q-5.34,4.69-10.72,9.31C661.92,169,660.85,169.69,659.86,170.45Z"/><path class="cls-54" d="M689,109c4.86-1.31,7.19,1.42,7.33,8.67.12,6.4,1.3,12.77,2.11,19.14.55,4.33-.24,6.5-4.32,7-10.53,1.24-10.5,1.52-11.86-11.83-.42-4.1-.91-8.18-1.29-12.28C680,109.47,680.05,109.47,689,109Z"/><path class="cls-55" d="M717.67,182.66c-2.67,3.92-5.08,8.13-8,11.6-2.26,2.63-4.2-.5-6-2-4.59-4-9-8.23-13.63-12.25-3.23-2.83-4.78-5.64-1.07-9.7a53.33,53.33,0,0,0,4.52-6.36c1.3-1.95,2.86-2.2,4.39-.83,6.06,5.45,12,11,18,16.58A15.6,15.6,0,0,1,717.67,182.66Z"/><path class="cls-56" d="M665.6,225c-8.13-9.54-8.14-9.55-.44-18.58a91.42,91.42,0,0,1,7.45-8.29c1.8-1.66,3.08-6.17,6.06-3.7a24.13,24.13,0,0,1,7.23,11.36c.46,1.44-1.09,2.59-2.16,3.44-4.65,4.36-8.71,9.59-13.3,14.05C668.94,224.77,667.76,226.79,665.6,225Z"/><path class="cls-55" d="M653.6,179.54c7.17.18,9.73,4.88,7.7,13.73-.68,3-2.34,3.12-4.24,3.38-3.7.5-7.39,1.12-11.08,1.69-2.92.77-5.85,1.6-8.74-.19l0,.08c-.49-5.79-2.58-11.77,1.27-17.07l-.08,0C643.37,178.72,648.67,181.78,653.6,179.54Z"/><path class="cls-57" d="M730,67.47c.11,2.54-.11,5.2.4,7.61,1,4.68-1.08,5.87-4.05,6.45-4.7.9-9.41,1.73-14.1,2.72-3,.63-5.84.28-5.65-4.43.16-3.93-3.25-9.73,2.9-11.29,5.49-1.39,11-2.56,16.5-3.88C728.06,64.17,729.1,65.67,730,67.47Z"/><path class="cls-58" d="M713.89,246.65c-.06.95-.11,1.9-.16,2.84-1.15,1.85-2.25,3.61-4.53,3.24-5.14-.81-10.3-1.46-15.45-2.14-4.71-.62-4.31-4.76-3.56-8.59.63-3.25-.13-8.4,5.17-7,3.21.86,6.61.6,9.93.85C713.79,236.53,713.79,236.54,713.89,246.65Z"/><path class="cls-59" d="M690.73,220c-2.49-.09-4.88-1.72-5.07-6.24-.22-5,6-11,11.24-11.17,3.27-.09,5.9,1,6.3,5.62C703.64,213.19,696.86,219.94,690.73,220Z"/><path class="cls-60" d="M720.16,92.33c2.48-3.22,4.9-7,9-3.47,3,2.61,3,11.11.24,16.49-2.9,5.72-6.37,6-10.46,2.16A37.13,37.13,0,0,1,720.16,92.33Z"/><path class="cls-61" d="M691.09,71.91c-4.59-.48-7-4.1-6.12-9.23.92-5.45,5-5.17,8.66-4.55,7.73,1.3,10.22,6.56,6.65,13.94-2.69,1.46-4.34.18-5.23-3.08C695.4,73.47,693.42,73.06,691.09,71.91Z"/><path class="cls-62" d="M726.3,162.2c-2.13,0-4.38.79-6.19-1.4-.08-5.83-2.16-10.91-4-16-1.39-3.88-1-6.51,2.64-7.45a3.83,3.83,0,0,1,3.47,2.83c1.7,5.52,3.35,11.05,5.32,16.44A5.65,5.65,0,0,1,726.3,162.2Z"/><path class="cls-63" d="M726.3,162.2c-1.15-8.94-4.41-16.88-7.54-24.89,0-.5,0-1,0-1.5l2.59-1.5c.62.07,1.45.11,1.73.7,3.62,7.64,8,14.89,8.31,24.28C729.71,160.22,728.48,162.5,726.3,162.2Z"/><path class="cls-13" d="M665.6,225c5.12-2.14,8.51-7.24,12.5-11.31,1.74-1.79,3-4.47,5.64-4.46-4.62,5.58-9.3,11.09-13.85,16.77C667.88,228.54,666.69,227.58,665.6,225Z"/><path class="cls-64" d="M691.09,71.91c1.23-.43,4.28.28,1.07-2.85-1.28-1.26-3-3.24-1.59-5.09,1.91-2.49,3,1.18,4.55,2,2.24,1.23,1.06,7.12,5.16,6.1C697.19,74.34,694.13,74.36,691.09,71.91Z"/><path class="cls-65" d="M638.53,181.16c-3.09,5.38-1.08,11.36-1.27,17.07-2.65-4.6-.86-10-1.57-14.92C635.46,181.67,637.26,181.28,638.53,181.16Z"/><path class="cls-65" d="M653.6,179.54c-4.93,2.23-10.06,1.56-15.14,1.66C643.3,177.72,648.57,180.3,653.6,179.54Z"/><path class="cls-65" d="M637.24,198.15l8.74.19c-1.88,2.32-4.64,1.57-6.89,3.15S637.54,199.64,637.24,198.15Z"/><path class="cls-66" d="M470.34,111q-3.21,4.6-6.43,9.19c-3.37-1.17-2.68-3.07-.61-5.22,2.92-3,4.59-6.34.71-11.26C468.55,104.35,468.94,108.31,470.34,111Z"/><path class="cls-31" d="M749.87,222.87c28.5-42.17,56.85-84.5,88-123.7,2.6-3.26,6.3-5.3,7.62-10.07,4.35-1.74,7.56,1.38,10.66,4.23,2.49,2.29,1.92,5.41.31,8.21a71.94,71.94,0,0,1-6.75,9c-8.89,10.09-14.88,23-21.72,35.05-2,3.52-.72,6.69,1.71,8.76,11.56,9.82,22,21.44,33.8,30.92,2.79,2.25,5,1.85,7.22-1C879,174,889.9,168.6,899.15,160.14c2.77-2.53,6.25-4.73,9.75-.94.4,8.3-4.33,12.16-9,16.07-8.08,6.9-16.28,13.64-23.56,21.88-1.37,1.55-3.14,3.36-2.57,5.81s2.82,1.82,4.38,2c16.19,2.27,32.47,3.41,48.67,5.71,11.6,1.64,23.34,1.74,34.76,5.28,2,.62,4.17.25,6.27.12,29.34,7.68,58.44,16.65,87.49,25.87,4.39,1.39,8.47,4.1,12.71,6.2,4.21,1.44,8.37,3.37,12.67,4.21,5.51,1.08,7.43,3.54,3.76,9.73-2.21,4.38-4.56,8.66-6.58,13.16-3.3,7.36-6.49,8.83-12.81,6.13-13.37-5.72-27.14-9.48-40.92-13.41-11.28-3.22-22.15-9.14-33.57-11.86-8-1.89-14.7-7.59-23.15-8.6-9.52-1.14-18.75.48-28,1.18-17.61,1.33-35.14,4.5-52.67,7.34-10.72,1.73-21.59,3.74-32.23,4-18.14.41-35.65-5-49.94-20.49-4.79-5.2-3.61-14.82,2.64-18,8.08-4.06,16.36-7.75,25.33-7.75,9.61,0,18.86-2.81,28.09-5.68l-.15-1.93-29.89,4.49h-2.5a154.86,154.86,0,0,0-34,0c-2.16.23-4.48-.62-6.33,1.55-9.94,8-20.07,15.28-32.59,13.87C753.2,225.89,751.15,225.27,749.87,222.87Z"/><path class="cls-67" d="M638.44,373c3.26,6.47,9,3.61,13.09,4,22.42,2.21,44.67,7.13,67.26,6.93,21.54-.2,36-14.32,43.77-39.24,5.47-17.59,13.2-34.15,18.54-51.89,2.74-9.12,8.55-16.9,8.06-27.48.19-.09.44-.34.56-.27C799.38,271,809.34,276,819.29,281c1.4,1.94,3.29,1.44,5.05,1.56-.32,2.81-2,3.76-3.92,4.38-1,.32-2.08.23-3.1.5C804,290.89,793.48,297.7,787.68,315c-6.31,18.85-13.93,37.11-23.66,53.92-7.65,13.21-17.49,20.59-30.35,21.19-22.36,1-44.54-1.34-66.66-5.71-10.66-2.11-21.55-2.49-32.33-3.65Z"/><path class="cls-45" d="M819.29,281c-11.6-.54-21.42-6.43-30.13-15.6-3.5-3.72-4.32-9.27-6.23-14.08q-3.31-7.8-6.64-15.59c-3.95-2.11-8.26.47-12.21-1.47-6.26.53-10.28-4.8-14.78-8.8-.6-.53-.16-1.87.57-2.56,9,1.07,17.65,1.12,25.66-5.73a22.25,22.25,0,0,1,12.32-4.89c1.75.34,4.45-.17,2.59,3.79-1.05,2.23-2.46,4.19-3.65,6.32-3.36,6-6.21,12-.67,18.7,1,1.17,1.36,3.2,1.81,4.91,4.71,17.71,15,26.6,29.47,29a35.15,35.15,0,0,1,6.67,2.13,10.54,10.54,0,0,1,2.28,1.92C824.22,282.15,821.54,280.43,819.29,281Z"/><path class="cls-3" d="M794.18,210.7a77.52,77.52,0,0,1,34,0Z"/><path class="cls-68" d="M844.45,535.32c-26,1.15-51.59-2.63-77.08-8.09-6.11-1.31-12.06-4-18-6.56-4.5-1.92-4.08-4.65-.57-8.12,7.77-7.68,17.36-9.13,26.43-10.85,14.15-2.69,28.3-6.65,42.81-5.39,13.72-1.61,27.45-.77,41.18-.46,6.23.15,12.46,1,18.7,1.23a173,173,0,0,1,39.54,6,31.72,31.72,0,0,1,9.93,4.67c5.94,4.13,6.13,10.23.57,15.21a19.19,19.19,0,0,1-8,4.15c-11.83,3.17-23.79,4.81-35.85,6.13C870.88,534.66,857.59,532.71,844.45,535.32Z"/><path class="cls-69" d="M844.45,535.32c6.17-2.46,12.65-2.88,19-3,19-.24,37.75-3.52,56.31-8.33,4.29-1.11,9.77-2.64,10.5-8.38.84-6.58-5.42-6.37-8.66-7.64-13.12-5.11-26.77-6.73-40.45-8.44a415.88,415.88,0,0,0-63.06-3.26c1.91-2.25,4.31-1.52,6.54-1.53,12.89-.06,25.79,0,38.68,0a287.15,287.15,0,0,1,69.54,7.4c5.5,1.27,11.24,1.24,16.54,3.65,3.77,1.72,9,2.71,9.07,9.11s-5.06,8-8.86,9.21a174.7,174.7,0,0,1-25.67,6.37c-15.66,2.47-31.38,4.52-47.12,5.86-4.43.38-9-.9-13.5.54C857.16,533.5,850.71,536.19,844.45,535.32Z"/><path class="cls-70" d="M579.5,122.63c-.25,2.83-2.78,4.34-2.63,7.46.11,2.48.25,5.54-2.85,5.48-2.29,0-4-2-4.71-4.34-.75-2.59-.58-5.72,1.58-7.51C573.49,121.57,576.33,120.09,579.5,122.63Z"/><path class="cls-70" d="M583.09,134.14c2.13-.1,2.55-2.17,3.1-4.12.74-2.69,1.35-5.52,4.5-5,2,.33,2.8,2,3.36,4,1,3.5-.25,6.54-2.52,7.84-3,1.74-6.72,3.41-8.45-2.66Z"/><path class="cls-71" d="M583.08,134.16c-5.72-1.59-2.25-5.12-.59-8.27l.6,8.25Z"/><path class="cls-72" d="M594.1,101.85c.38-3-3.7-5-1-9.64C593.75,95.89,596.94,97.79,594.1,101.85Z"/><path class="cls-73" d="M649.75,82.64c-3.12,0-6.25,0-9.38.08-4.49.1-6.5-3.34-6.75-8.17s3-6.81,6.12-7.18c4.54-.54,9.16-.12,13.75-.11.68,2.2-.42,3-1.8,3.61a1.5,1.5,0,0,0-2.26.66,17.63,17.63,0,0,1-2.72,1.54c-1.25,1.43-1.57,2.88-.11,4.41.44.28.86.6,1.28.93a6.56,6.56,0,0,1,2.26,2.53A1.78,1.78,0,0,1,649.75,82.64Z"/><path class="cls-74" d="M651,70.28l2.46-3c4.78-.57,7.44,2.84,7.26,8.08s-3.28,8.1-7.86,7.45c-1-.15-2.09-.1-3.14-.15V81.19C648.94,77.33,650.52,73.9,651,70.28Z"/><path class="cls-75" d="M624.82,104.65c-2.52-3.3-1.66-7.42-1.23-11,.56-4.59,3.91-4.78,6.88-4.55s5.35,1.52,5.39,5.9q.06,7.74,0,15.48c0,4.65-1,8.86-4.76,10.83-2.2,1.17-4.76.89-6.2-1.81-2.35-4.37-2.67-9,.16-13.43.62-.72,1.42-.6,2.18-.72C626.48,104.88,625.6,105,624.82,104.65Z"/><path class="cls-76" d="M624.82,104.65c.18-.12.36-.33.55-.36,2.39-.31,4.74-2.24,7.16-.39a2.7,2.7,0,0,1,.15,2,6.39,6.39,0,0,1-7.61.17A4.88,4.88,0,0,1,624.82,104.65Z"/><path class="cls-77" d="M183.4,84.23c-13.27,11.27-26.3,22.91-38.13,36.5-4.28,4.92-5-1.27-7-3.38-.82-4.75,1.9-7.18,4.32-9.56,13.43-13.2,26.93-26.3,41.46-37.62,16.38-12.76,33.42-15.6,52.74-10.29,22.68,6.22,43.25,19.2,65.31,27.08,6.08,2.17,9.49,7.35,9.61,15.41.05,3.12.68,6.18.45,9.31-1.45,8.86-5.77,15.89-9.72,23.14-.93,1.72-2.2,3.13-4.14,2.75-2.31-1.22-4.27-3.92-6.47,1.17-1.14,2.64-4.79,3.74-7.42,5.21-8.21,4.62-15.27,11.55-22.57,17.89-5,4.34-9.17,3.66-12.89-.75-8.8-10.43-19.87-17-29-26.8-2.9-3.13-5.21-6.73-2.76-10.45,7.87-12,12.52-27.06,23-36.44,2.79,2.61,2.25,6.53,2.33,10,.12,4.82,1.64,8.47,4.73,11.27,4.74,4.28,9.3,9,15,11.28,12.35,5,22.91-1.57,33.29-8.56a5.88,5.88,0,0,0,2.58-6.49c-.81-2.67-3.21-2-5-2.14-13.66-.79-25.46-7.25-36.34-17.29C244,73.72,229.68,67.73,213.55,68.65c-11.08.64-20.07,7.87-29.6,13.5C183.41,82.47,183.31,83.42,183.4,84.23Z"/><path class="cls-78" d="M183.4,84.23c-3.21-1.86-.72-3.16.43-4C199.51,69,215.52,63.33,234.19,69c13.58,4.14,23.64,14.71,35,22.88,7.95,5.71,16.43,6.91,25.11,8,2.57.32,5.86-1.16,7.05,3.09,1.1,3.93-.87,7-2.95,9.64-9.49,12.12-32.31,15.2-43.75,6a12.14,12.14,0,0,0-1-.89c-10.26-6.15-15.72-15.58-13.4-30.32,4.5-7.29,4.49-7.26-2.23-10.58-1.9-.94-3.72-2.14-5.57-3.22-14.62-7.47-28-1.15-41.33,5.71C188.44,80.68,186,82.58,183.4,84.23Z"/><path class="cls-79" d="M298.34,137.57a154.41,154.41,0,0,0,12.28-25c2.19-7.21,3.81-14.85,9.56-19.35a2,2,0,0,1,1.71.46l.18,4.47-5.45,20.39q-3.15,8-6.28,16c-4.84,11.19-10.4,22-14.33,33.67-4.3,12.78-13.34,14-23.29,18.37,4.81-12,12.65-19.34,15.25-30.6C292.77,151,295.56,144.29,298.34,137.57Z"/><path class="cls-33" d="M320.69,93.72c-3.61,6-5.48,13.55-10.07,18.8-.43-4.36-1-8.7-1.27-13.07-.31-4.82-2.5-7.78-6-8.92-18.2-6-34.74-17.92-53-23.36C239.68,64,229,59.87,217.94,59.43c-15.7-.62-28,10-40.55,19.68-11.49,8.92-21.5,20.28-32.47,30.06a28.85,28.85,0,0,0-6.61,8.18l-3.37-3.1c-4.79-1.79-8-5.42-9-11.72-2.19-3.74.39-5.56,2-7.67a264.85,264.85,0,0,1,47.15-46.43c1.21-.94,2.32-2.09,3.48-3.14,13.42-9.92,27.67-17.5,43.48-16.83,13.64.59,26.51,6.79,39.26,12.57,11,5,21.7,11,33.76,10.62,2.74-.08,5.44-.11,8-1.63,2.76,0,4.53,2.34,6.09,4.63,4.33,6.4,9.49,12,12.64,19.56C322.57,80.82,323.82,87.46,320.69,93.72Z"/><path class="cls-79" d="M125.89,102.53q4.52,5.86,9,11.72c-3.63,5.33-3.85,12.5-6.42,18.4-1.47,3.39-2.32,7.28-5.18,9.49-4,2.5-7.75,1.2-9.41-3.53-2.39-6.8-8-12.91-4.27-21.65C114.12,110.51,120.6,107.56,125.89,102.53Z"/><path class="cls-80" d="M109.66,117c-.48,7.3,2.94,13.14,5.12,19.3,1.37,3.89,4.48,6.68,8.57,5.88l-4.06,3.06-3.22.15a2.23,2.23,0,0,1-3.45-.36c-3.94-7.41-8.1-14.82-6.69-24.52l2.57-3.42A5,5,0,0,0,109.66,117Z"/><path class="cls-81" d="M26.74,360.52c-.08-2.63.39-4.93,2.47-6.24,3.66,5.56,9.07,3.85,13.66,4.51,16.93,2.46,33.94,4.14,50.91,6.21,13,1.57,25.34-1.56,37.37-7.06,6.39-2.92,7-10.8,8.62-17.66,9.68-34.19,19.93-68.12,31.34-101.48,3.95,7,7.88,14.07,13.86,18.79,1.11,2.67,1,4.72-1.93,4.56-4.41-.23-5.82,3.21-7.53,7.55-10,25.33-17.76,52-29.86,76.06-5.71,11.34-12.29,20-24.67,21.94-13.68,2.17-26.84.69-40.33-.24C65,366.39,49.7,362.11,34,362.11,31.53,362.11,29,362.2,26.74,360.52Z"/><path class="cls-82" d="M56.91,151.7c7.58-2.82,8.15-2.2,11.93,9.76,2.85,9.07-3.77,8.63-7.14,11.29-3.84,3-6.65,2.47-8.79-3.48-4.2-11.71-4.45-11.57,2.6-16.58A1.6,1.6,0,0,1,56.91,151.7Z"/><path class="cls-83" d="M105.93,120.47c2.27,7.07,4.71,14.06,6.7,21.25a4.4,4.4,0,0,0,3.44,3.63c-2.28,2.29-5,1-7.49,1.41a27.73,27.73,0,0,1-6.38-21.32C102.89,123.15,104,121.3,105.93,120.47Z"/><path class="cls-84" d="M56.91,151.7l-1.4,1c-4.23-11.4-7.74-23.09-9.4-35.55Q51.18,134.6,56.91,151.7Z"/><path class="cls-3" d="M24.3,368.44c5.6-5.11,11.79-1.77,17.46-1.07,27.31,3.36,54.49,8.63,82.08,7.25,9.79-.48,17-6.92,23.81-14.72,14-16,20.27-38,27.47-58.7,6.46-18.59,17.06-26.8,32-30.05,2-.43,7.44,1.54,5.53-5.76,3.8-.15,5.95.16,2.58,5.71-3.53,5.8-8.65,8.79-13,13-7.06,6.92-13,14.1-17.54,24.43-7.13,16.29-14.05,32.87-22.24,48.43-6.56,12.46-15.58,21.19-27.59,24.61-4.78,1.36-9.29-1.12-14.2-.3-11.73,2-23.42-.67-35.09-2.83-14-2.58-28-6.28-42-6.09C36.49,372.49,30.9,367.62,24.3,368.44Z"/><path class="cls-85" d="M263.24,538.53c-18.65,2.49-37.45,2.9-56.1,3.52-17.55.58-35.41.64-53.14-1.21-7.95-.83-15.9-2.49-23.93-2.42-13.35.12-26.53-2.14-39.78-3.77-11.69-1.45-22.89-5.08-34.39-7-2.41-.41-4.63-.84-5.91-3.58-1.68-3.61-3.75-6.14-7.39-6.08A2.59,2.59,0,0,1,40,515.28a2.71,2.71,0,0,1,2.88-3.21c3.82,0,6.15-2.62,8.23-6.11a7.06,7.06,0,0,1,4.68-3.66c11.48-1.92,22.38-7.61,34.17-7.61,26.25,0,52.28-5.39,78.53-5.22,26,.16,52,.42,78,1.68,14.2.69,28.37,1.87,42.39,3.92,17.8,2.61,36.32,2.24,52.58,14.13,2,1.43,4.7,2.29,4.94,5.44.28,3.68-3,3.66-4.71,5.36-10.16,10.39-23.11,9.84-34.94,13.2C292.5,537.25,277.8,537.66,263.24,538.53Z"/><path class="cls-86" d="M1084.68,261.9c11.29-1.6,18.18-9.47,21.14-22.92.13,13.75-6.06,23.15-16.51,25C1087.81,263.16,1085.68,264.46,1084.68,261.9Z"/><path class="cls-33" d="M751.47,134.34,748,130.68a17.08,17.08,0,0,1-9.11-12.27c-2.34-3.24-1.42-5.48.94-8.28,15.38-18.25,32-34.51,50.19-48.19,1.59-1.19,3.08-2.56,4.62-3.85,7.71-3.8,15.11-8.41,23.08-11.53,12.54-4.92,24.62-2.14,36.77,1.77q17.24,6.75,34,15c9.21,4.51,18.9,4.58,28.62,3.63,2.56,0,4.15,2.13,5.47,4.36,3.53,6,8.32,10.54,11.81,16.55,3.63,6.6,3.92,13.26.29,20a.83.83,0,0,0,0,.86c-1.91,5.22-1.45,12.43-7.64,14.07-3.29-.7-3.95-4.14-4.94-7.27-1.35-4.28-3.45-7.8-7.12-9.2C897.53,99.62,881,89,862.93,84.48c-9.14-2.28-18.08-5.51-27.31-7.39-11.16-2.28-21.26,1.65-30.7,7.65a176.84,176.84,0,0,0-33,27.75C765.07,119.7,757.26,125.61,751.47,134.34Z"/><path class="cls-87" d="M935,114c40.2,17.47,82.41,22.08,124.11,29.9h0c3.78,6.5,5.07,13.45,2.43,21.09a17.43,17.43,0,0,1-.9,2.48c-3.91,1.75-7.77.16-11.63-.39a631.72,631.72,0,0,1-101.55-22.9c-6.41-2-13.8-3.31-17.37-12.22Q928.94,121.44,935,114Z"/><path class="cls-79" d="M931.9,87.79,917.17,66.93a6,6,0,0,1,2.64-4.56C922,59.52,925,59.11,927.72,58a16,16,0,0,0,9-7.76c4.22-7.91,5.82-7.93,11.6-1.42,5.43-10.51,11.78-11.19,19.23-2,.18,7.24.38,14.48.52,21.72,0,1.22.1,2.86-.46,3.62C963,78.44,962,87,958.47,94c-6.35,1-9.32-5.52-13.52-9.31-2.46-3.31-4.41-1.22-6.4.89S934.69,89.73,931.9,87.79Z"/><path class="cls-88" d="M967.56,46.8a12.52,12.52,0,0,1-1.85-.3c-11-3.69-11-3.69-18,7.35l-2.18-4.69c-2.24-4.83-4.74-4.24-6.12.37-3.53,11.81-11.64,12-19.65,12.84.53-9.54,1.09-19.08,1.59-28.63.09-1.88.28-3.82,1.49-4.94,8-7.42,15.74-15.88,27-11.35,7,4.55,13.68,9.82,21,13.41,5.82,2.89,5.15,6,1.87,10.42A62.83,62.83,0,0,1,967.56,46.8Z"/><path class="cls-89" d="M935,114c-.44,6-2.88,11.23-4.14,16.91,1.18,8.81-4.21,15-5.81,22.72-5,11.4-10.3,22.65-15,34.23-4.59,11.27-13.29,13.39-21.65,16.52a3,3,0,0,1-3.92-1.62c-1.22-2.39-.33-4.71.94-6.42,4.53-6.13,7-14.18,12.24-19.67a11.68,11.68,0,0,0,2-3.91,27.55,27.55,0,0,0,8.8-13.52c-.45-2.52.52-4.56,1.47-6.59,4.19-9,9.12-17.43,13.31-26.43a7.6,7.6,0,0,1,4.23-4.36l7.37-13.11C934.85,110.46,934.91,112.21,935,114Z"/><path class="cls-90" d="M931.9,87.79c2.91-.43,4.84-2.88,6.38-5.51,3.08-5.26,5.48-4,7.83.68.58,3.1.47,5.89-2.34,7.42,1.6,1.93,5,.51,4.89,4.64-4.06.26-8.73-1.25-9,7.15-.08,2-3.17,3.79-4.88,5.68C933.53,101.22,936.46,93.69,931.9,87.79Z"/><path class="cls-91" d="M948.66,95c-2.43-2.13-5.22-1-7.85-1.29-1-.12-2.26.15-2.62-1.37-.48-2,.87-2.7,2-3.15,2.72-1,5.32-2.14,5.89-6.25,4,3.81,7.59,8.5,12.37,11.05C955.58,100,951.85,93.46,948.66,95Z"/><path class="cls-92" d="M1061.78,165.59a4.51,4.51,0,0,0-1-.05l-1.74-21.69c3.53,1.78,6.6,1.71,9.83-1.65,2.1-2.19,4.55-4.62,7.64-4.77,4.57-.22,9.78-1.21,12.38,4.7,2.68,6.09,2.57,12.87.18,19.46-1.58,4.37-4.46,4-7.39,3.79-3.85-5-4.6-10.6-2.3-16.86-1.48,5.09-1.54,5.11-.54,11.18.36,2.13.65,4.06-.75,5.75C1072.69,168,1067.22,164.24,1061.78,165.59Z"/><path class="cls-93" d="M1078.12,165.45c-.51-5.74-3-11.52,0-17.23,1.69-3.19,3.55-6.1,6.58-1.35-5.8,1.58-6.39,5.5-3,18.51Z"/><path class="cls-79" d="M319.53,73.25,303,50c.62-2.24,2.15-3,3.77-3.6,1.92-2.22,4.44-2.79,6.8-3.8,4.2-1.82,8-4.07,10.38-9.29,1.79-3.92,4.56-6.33,8.33-3.38,2.11,1.66,3.24.38,4.78-1.38,5.11-5.81,10.47-5.06,15.31,1.85l2.35,1c.95,7.62.15,15.3.43,23,.12,3.27-1.05,5.33-3.5,6.38l-6,17.2c-3.33,1.75-5.64-1-7.73-3.22-3.68-4-7.18-5.5-11.6-1.67C324.35,74.75,321.84,76,319.53,73.25Z"/><path class="cls-88" d="M352.41,30.42c-10.87-4.31-10.87-4.31-17.63,6.68-1.84-.37-1.81-2.64-2.53-4.07-2.48-5-4.82-3.77-6.2.63-3.53,11.27-11.23,12.24-19.24,12.76V31.27l.12-2.8c2-4.59-2.31-9.95,1.13-14.36,5.77-6,11.89-11.2,19.27-13.64,3.16-1,6.17-.26,9.09,1.55,7.65,4.75,15.3,9.53,23.05,14,2.63,1.52,2.83,3.2,1.47,5.94C358.9,26.07,356.44,29.46,352.41,30.42Z"/><path class="cls-89" d="M738.9,118.41A55.06,55.06,0,0,1,748,130.68c-3,5.21-4.83,11.22-6.38,17.19-1.7,6.54-4.69,10.52-10.2,11.42-4.57-7.57-6.71-16.65-10-25C726.09,127.07,732.74,123.15,738.9,118.41Z"/><path class="cls-29" d="M728.6,112.16c.55-2.62,1-4.55,3-4.91.21,0,.69.64.72,1C732.44,110.88,731.27,112,728.6,112.16Z"/><path class="cls-94" d="M319.53,73.25c.41,0,1,.23,1.21,0,9.16-9.48,16.65-4.31,23.8,4.1a3.27,3.27,0,0,0,1.12.6c-1.5,4.43-4.06,2.19-6.3,1.46-4.22-1.37-8.4-2.66-12.54.29-2.43,1-2.65,3.28-2.89,6s-.64,5.64-2.07,8l0-.11-1.2.09C320.3,86.9,321.86,79.9,319.53,73.25Z"/><path class="cls-95" d="M321.86,93.74c0-3.52.28-7.06,0-10.55-.39-5.9,1.26-6.71,4.92-3.51C329.94,87,324,89.31,321.86,93.74Z"/><path class="cls-66" d="M351.69,60.73c2.64-2.67,3.17-6.16,3-10.22-.19-6.36,0-12.74,0-19.12,2.19,8.37.8,17,.86,25.43C355.64,59.6,353.85,60.73,351.69,60.73Z"/><path class="cls-96" d="M927.42,121.82a389.87,389.87,0,0,1-19,37.38,9.72,9.72,0,0,0-8.23,3c-9.47,9.62-21.7,14.43-29.75,26.44-2.14,3.19-4.12,2.48-6.45.35-12-10.94-24.16-21.76-36.2-32.7-3-2.69-5-6.76-2.59-10.68,7.6-12.18,13.15-26.37,23-36.33,2.9,3.28,1.62,7.38,1,11-1.11,6.22.59,10.66,4.53,14.11,5.46,4.79,10.79,9.79,16.33,14.45,3.15,2.66,6.59,3.46,10.1,1.33,8.27-5,17.13-8.28,25.48-13,5-2.84,9.64-6.54,9.26-14.92-.18-3.94-1.34-6.29-4.72-6.78-14.45-2.07-27.3-9.23-39.26-19.22-4.22-3.53-9.16-5-13.84-7.19-19.65-9.12-39-8.78-57.09,5.08-14.65,11.21-29.61,22.14-41.06,38.7a15,15,0,0,1-4.94,4.7,4.3,4.3,0,0,1-2.5-3.14,13.08,13.08,0,0,1,3.67-8c12.92-12.47,25.17-26,39.17-36.76,8.56-6.57,17.24-12.22,27.19-15.07,9.47-2.71,18.46,0,27,3.48,4.91,2,9.76,1.59,14.57,3,18.34,5.56,35.19,16.37,53.34,22.47,4.68,1.57,7.05,6.34,8.27,11.76C925.24,117.84,925.16,120.5,927.42,121.82Z"/><path class="cls-97" d="M754,137.48c9.38-15.64,21.32-27.18,34.78-37.33,8.31-6.27,16.12-13.51,25.53-16.67,9.71-3.25,19.57-6.37,29.75-1.42,4.21,2,8.84,2.75,13.29,4,12.9,3.62,22.45,15.77,34.77,21,5.55,2.34,11.09,4.59,16.9,5.28,3.42.41,7.26,0,8,5.3.74,5.54,1.5,11.7-2.71,15.93-3,3.05-6.17,5.93-10.08,7.6a157.67,157.67,0,0,0-23.7,12c-3.18,2-6.62,2.2-9.58-.29-6.73-5.64-13.3-11.56-19.85-17.51-4-3.63-6.14-8-4.21-14.65,1-3.55.95-7.62,1.37-11.45.1-.23.21-.44.31-.67,2.11-4.57,8.32-7,7.31-12.19-.83-4.32-7-4.22-10.28-7.32-15-7.31-28.77-1.23-42.16,6.66-16.37,9.64-30.47,23.42-43.94,38.3C758,135.66,757,139.34,754,137.48Z"/><path class="cls-98" d="M753.17,198.13c.21,2.24-1.21,2.52-2.25,3.28-9.81,7.12-10.51,6.58-16.29-5.7-2.41-5.15-4.08-10.73-6.69-15.71-1.44-2.74-.94-4.62,1.48-6,2.84-1.57,5.53-3.55,8.42-4.93,2.07-1,4.1-.64,5.25,2.39,3.1,8.21,6.28,16.39,9.42,24.58C752.78,196.78,753,197.52,753.17,198.13Z"/><path class="cls-99" d="M772,131.56c7,1.49,13.93,3,20.91,4.44,2.44.51,3.84,1.75,3.18,5.19a44.52,44.52,0,0,0-.84,6.1c-.45,7.94-3.6,9.52-9.49,7.42-5.35-1.92-11-2.63-16.54-3.7-3.13-.6-4.38-2.48-3.54-6.37.69-3.25,1.48-6.48,1.91-9.78C768.07,131.37,769.65,130.69,772,131.56Z"/><path class="cls-100" d="M758,181.13c.32-3.63,1-8.76,1.17-13.93.23-7.88,2.89-9.93,9.07-8,4.07,1.26,5.81,2.45,4.74,8.09s-1.32,11.79-1.91,17.7c-.39,3.92-1.79,6.74-5.26,5C762.74,188.43,756.77,191.23,758,181.13Z"/><path class="cls-101" d="M749.39,247.19c3.12.31,5.88,1.33,6,6.06.15,5.21-6.57,12-11.67,11.7-3.22-.19-5.76-1.92-5.78-6.47C737.94,253.72,744.66,247.25,749.39,247.19Z"/><path class="cls-102" d="M659.46,112.76c-2.35-1-3.38,2.34-5.55,2.4-.9,0-1.89-1.15-1.41-1.84a7,7,0,0,1,5.5-3.27C658.75,110,659.48,110.84,659.46,112.76Z"/><path class="cls-103" d="M663.81,148.9c1.08.35,1.84.3,2.1.73,1.27,2.06,4.2,2.82,3.43,6.45-.09.39-1.27.9-1.43.71C666.21,154.69,663.69,153.12,663.81,148.9Z"/><path class="cls-104" d="M705.23,174.91c-.64,1.21-.88,2.19-1.26,2.29-2.3.56-.51,5.65-3.66,5-.37-.08-.95-1.4-.88-1.49C701,178.63,700.42,173.63,705.23,174.91Z"/><path class="cls-105" d="M805,503.24c20.14-3.43,40.86-2.83,61.49-2,16.37.68,32.85,2.09,48.87,7.37,3.83,1.27,9.41,2.29,9.44,7.14.05,5.34-5.77,6-9.49,6.79a420,420,0,0,1-52.1,7c-15.7,1.19-31.22-.24-46.81-.61-16-.39-32-2-47.64-6.55-3.44-1-6.83-2.72-6.78-7.72,0-5.35,4.38-6.61,7.28-6.93C781,506.47,792.41,500.42,805,503.24Z"/><path class="cls-106" d="M646.18,70.36l3.37.12c1.61,4,2.55,7.73-2.16,9.5l-1.42-.3C644.74,76.53,643.72,73.38,646.18,70.36Z"/><path class="cls-21" d="M647.39,80c3.14-2.32,1-6.49,2.16-9.5.43-.78.9-1.13,1.48-.2,2.07,4.09.85,7.58-1.28,10.91Z"/><path class="cls-21" d="M646.18,70.36c-1.11,3.07,1.15,6.26-.21,9.32C642.38,76.3,642.42,74.24,646.18,70.36Z"/><path class="cls-107" d="M56.25,164.9c2.32-1.8,2.47-7.88,6.4-6.48,2.79,1,1.7,5.12-1.61,5.83C59.46,164.58,57.85,164.69,56.25,164.9Z"/><path class="cls-108" d="M146.17,498.24c16.18-1.16,32.36-3.26,48.54-3.26,21,0,41.94,1,62.91,1.94,14.81.67,29,5.57,43.8,6.09,6.41.22,12.75,4.62,19.05,7.36a5.1,5.1,0,0,1,3.39,5c-.11,2.65-1.78,3.66-3.61,4.75-13.45,8-28.15,10.28-42.51,11.63-33.21,3.11-66.57,5.17-99.88,3.28C159,534,140,534.25,121.31,528.56c-7.31-2.22-14.78-5-22.44-5.93a4,4,0,0,1-1.79-.67c-2.63-1.85-6.85-2.41-6.81-7s4.07-6.07,6.89-6.77C113.41,504.18,129.4,498.15,146.17,498.24Z"/><path class="cls-109" d="M962.59,163.54,924,152.64c0-8.37,4.71-14.43,6.79-21.77,4.71,7.11,11.78,8.66,18.22,10.76,27.73,9.07,56.1,14.4,84.34,20.27,9,1.87,18.16,2.33,27,5.16.64,4.61-2.18,3.53-4,3.54a536.38,536.38,0,0,1-84.47-5.94C968.83,164.18,965.71,163.91,962.59,163.54Z"/><path class="cls-110" d="M964.93,61.13c-.19,1.36-.61,2.47-1.94,2s-2.48-1-2.26-2.85a2.27,2.27,0,0,1,2.19-2.13C964.59,58.09,964.88,59.5,964.93,61.13Z"/><path class="cls-111" d="M736.29,189.53c3-2,4.09-5.22,7.05-4.21.21.07.47,1.17.37,1.28C742,188.39,740.55,191.2,736.29,189.53Z"/><path class="cls-112" d="M779.77,148.52c-.13-5.94-.13-5.94,2.58-10.9C781.31,142.27,784,145.68,779.77,148.52Z"/><path class="cls-113" d="M853.75,524.33c-13.46.5-28.27.5-42.62-5.19-1.84-.73-4.8-.62-4.9-3.87-.12-3.91,3.16-3.62,5.14-4.37,8.62-3.26,17.68-4.31,26.5-4.79,21.45-1.15,43-1.72,64.17,4.21a21.8,21.8,0,0,1,3,1c1.71.77,4.08.91,4.24,3.83.21,3.75-2.71,3.61-4.47,4.15C888.5,524.35,871.83,524.7,853.75,524.33Z"/><path class="cls-114" d="M195.17,502.66c11.85-.37,21.39-1.75,30.55-1.1,16.14,1.15,32.58-.9,48.5,4.77,5.54,2,11.69.73,17.09,4.08,2,1.22,5.06,1.38,4.78,5.07-.26,3.26-2.95,4.06-5.19,4.8-10.48,3.46-21.13,6.82-31.89,7-17.13.2-34.29,4.09-51.29,1.51-14.21-2.17-28.82,1.75-42.77-5.24-4.82-2.41-10.68-1.65-16.07-2.18-2.09-.21-4.19,0-6.11-1.34-1.46-1-3.43-2-3.26-4.24.19-2.65,2.23-3.27,4.19-3.81,9.87-2.72,19.7-5.62,29.57-8.37C181.33,501.31,189.52,503.24,195.17,502.66Z"/></g></g></svg>