<svg xmlns="http://www.w3.org/2000/svg" viewBox="0 0 388.26 315.2"><defs><style>.cls-1{fill:#dad7da;}.cls-2{fill:#ebe9eb;}.cls-3{fill:#aea6ad;}.cls-4{fill:#97da7c;}.cls-5{fill:#76cb7c;}</style></defs><g id="Capa_2" data-name="Capa 2"><g id="Capa_1-2" data-name="Capa 1"><path d="M388.25,111.38c0-12.59-7.65-20.2-20.34-20.24-9.6,0-19.21-.08-28.81,0a11.91,11.91,0,0,1-6.72-1.9Q273.55,52.77,214.65,16.4a8.56,8.56,0,0,1-3.9-4.73,17.68,17.68,0,0,0-33.2-.16,9,9,0,0,1-4.12,5Q114.36,53,55.37,89.6a10,10,0,0,1-5.67,1.56c-8.85-.07-17.69,0-26.54,0-13.57,0-18,2.89-23.16,15V209.24c3.07,9.1,9,14.89,19,14.93,33.68.12,67.36,0,101,.05,3.23,0,5.62-1.18,6.76-4.36-.14-5.44-1.76-7-7.43-7H21.5c-8,0-10.12-2.14-10.12-10.1q0-45.31,0-90.62c0-7.28,2.26-9.61,9.46-9.61q173.27,0,346.54,0c1.23,0,2.53-.3,3.68.46,4.28,1.19,5.81,3.19,5.81,7.92q0,26.67,0,53.34,0,18-.12,35.93c0,1.64.15,3.28.11,4.92-.13,4.73-2.74,7.43-7.49,7.77-1.14.08-2.28,0-3.41,0H268.92c-5.67,0-7.28,1.57-7.42,7,1.28,3.59,4.1,4.37,7.54,4.37q49.47-.06,98.95,0c12.63,0,20.26-7.69,20.26-20.32Q388.28,157.64,388.25,111.38ZM187.73,17.52a6.4,6.4,0,0,1,12.8.48,6.41,6.41,0,1,1-12.8-.48ZM74.9,91c2.42-1.56,4.13-2.7,5.89-3.79q47.28-29.26,94.54-58.55c2.15-1.34,3.31-1.81,5.32.63,7.28,8.82,19.94,8.55,27.35-.33,1.11-1.33,1.68-2.38,3.78-1.07Q262,59.16,312.4,90.27a6.2,6.2,0,0,1,.52.71Z"/><path d="M220.36,200.3a65.79,65.79,0,0,0-31.51-5.53c-7.35.59-14.19,2.89-21,5.53a73.23,73.23,0,0,0-22.09,18.08c-.66,1.07-1.29,2.15-2,3.2-8.65,13.25-12,27.76-9.19,43.29,6.09,33.34,35.07,54.13,68.73,49.75,30-3.9,53.69-33.59,51.06-63.69a67.33,67.33,0,0,0-12-32.55A72.73,72.73,0,0,0,220.36,200.3Zm2.4,94.34a18.56,18.56,0,0,1-1.95,1.11h0c-14.87,9.78-30.59,10.89-46.71,3.82-26-11.41-36.62-42.86-23.13-67.82a34.93,34.93,0,0,1,2.08-3.1c13.75-24.06,48.2-30.13,71-12.5A48.94,48.94,0,0,1,222.76,294.64Z"/><path class="cls-1" d="M158.55,205.08a69.29,69.29,0,0,1,7.88-4.8c-6.08-.05-12.16-.13-18.24-.13q-52.48,0-105,0c-11.79,0-19-7.22-19-19.09V108.29c0-3.25,0-4.45,1.26-4.9a47.36,47.36,0,0,0-6.52.4c-4.08.61-5.93,2.67-6.31,6.8-.13,1.39-.09,2.78-.09,4.17V200.4c0,1.14,0,2.27,0,3.41.25,5.32,2.3,7.43,7.68,7.9,1.76.15,3.53.09,5.3.09h90.57a40.8,40.8,0,0,1,5.3.15c4.72.61,6.38,3.13,5.26,7.9.93-1.51,2.38-1.55,3.94-1.53,5,.06,10.07,0,15.1,0C148.41,212.39,153.63,208.86,158.55,205.08Z"/><path class="cls-1" d="M121.49,212a40.8,40.8,0,0,0-5.3-.15H25.62c-1.77,0-3.54.06-5.3-.09-5.38-.47-7.43-2.58-7.68-7.9-.06-1.14,0-2.27,0-3.41V114.76c0-1.39,0-2.78.09-4.17.38-4.13,2.23-6.19,6.31-6.8a47.36,47.36,0,0,1,6.52-.4,13.42,13.42,0,0,1,3.76-.26H365.77c1.77,0,3.53-.11,5.29-.18-1.15-.76-2.45-.46-3.68-.46q-173.28,0-346.54,0c-7.2,0-9.46,2.33-9.46,9.61q0,45.32,0,90.62c0,8,2.14,10.1,10.12,10.1h97.82c5.67,0,7.29,1.57,7.43,7C127.87,215.09,126.21,212.57,121.49,212Z"/><path class="cls-1" d="M167.88,200.3l-1.45,0a69.29,69.29,0,0,0-7.88,4.8c-4.92,3.78-10.14,7.31-12.76,13.3A73.23,73.23,0,0,1,167.88,200.3Z"/><path class="cls-1" d="M267.14,211.94c1.76-.17,3.53-.1,5.3-.1h90.14c1.13,0,2.27,0,3.41,0,7.57-.16,9.51-2.11,9.69-9.78,0-.63.08-1.26.09-1.89v0l-150.1,0c-1.26,0-2.51,0-3.76.09,7.23,4.12,14.15,8.66,19.22,15.54.59.79,1.36,1.49,1.34,2.6,5,0,10.07,0,15.1,0,1.57,0,3,0,3.94,1.54C260.36,214.94,262.13,212.44,267.14,211.94Z"/><path class="cls-1" d="M268.92,212.85H366c1.13,0,2.27.06,3.41,0,4.75-.34,7.36-3,7.49-7.77,0-1.64-.07-3.28-.11-4.92h-1v0c0,.63-.07,1.26-.09,1.89-.18,7.67-2.12,9.62-9.69,9.78-1.14,0-2.28,0-3.41,0H272.44c-1.77,0-3.54-.07-5.3.1-5,.5-6.78,3-5.64,7.93C261.64,214.42,263.25,212.85,268.92,212.85Z"/><path class="cls-1" d="M221.9,200.24l-1.54.06a72.73,72.73,0,0,1,22.1,18.08c0-1.11-.75-1.81-1.34-2.6C236.05,208.9,229.13,204.36,221.9,200.24Z"/><path class="cls-2" d="M362,104.3H33.38c-7.89,0-7.89,0-7.89,7.8,0,22.87.3,45.74-.12,68.6-.21,12,9.36,18.35,18.21,18.3,39.16-.2,78.33-.1,117.49-.06,2.09,0,4.35-.52,6.21.84l.87-.51q25.93-11.49,51.9-.07l.93.52c1.25-.93,2.82-.79,4.3-.8q73.43-.06,146.85,0a8.2,8.2,0,0,1,3.63.5c-.17-27.66,0-55.33-.08-83,0-1.77,0-3.54-.05-5.3-.12-3.49-1.45-6.11-5.06-7.1-.2-.09-.41-.16-.61-.23a7.33,7.33,0,0,1-2.7.45C365.5,104.35,363.73,104.3,362,104.3Z"/><path class="cls-2" d="M370,103.8c.2.07.41.14.61.23,3.61,1,4.94,3.61,5.06,7.1.07,1.76.05,3.53.05,5.3.05,27.66-.09,55.33.08,83a3.67,3.67,0,0,1,1,.71q.06-18,.12-35.93,0-26.67,0-53.34c0-4.73-1.53-6.73-5.81-7.92A2.86,2.86,0,0,1,370,103.8Z"/><path class="cls-2" d="M220.05,199.2q-26-11.38-51.9.07l-.87.51a4.14,4.14,0,0,1,.6.52c6.78-2.64,13.62-4.94,21-5.53a65.79,65.79,0,0,1,31.51,5.53,3.72,3.72,0,0,1,.62-.58Z"/><path class="cls-2" d="M161.07,198.94c-39.16,0-78.33-.14-117.49.06-8.85.05-18.42-6.31-18.21-18.3.42-22.86.12-45.73.12-68.6,0-7.8,0-7.8,7.89-7.8H362c1.77,0,3.54,0,5.3,0a7.33,7.33,0,0,0,2.7-.45,14.92,14.92,0,0,0-4.62-.41H25.52c-1.26.45-1.26,1.65-1.26,4.9v72.76c0,11.87,7.17,19.09,19,19.09q52.48,0,105,0c6.08,0,12.16.08,18.24.13l.85-.5C165.42,198.42,163.16,199,161.07,198.94Z"/><path class="cls-2" d="M29.28,103.13a13.42,13.42,0,0,0-3.76.26H365.34a14.92,14.92,0,0,1,4.62.41,2.86,2.86,0,0,0,1.1-.86c-1.76.07-3.52.18-5.29.18Z"/><path class="cls-2" d="M166.43,200.28l1.45,0a4.14,4.14,0,0,0-.6-.52Z"/><path class="cls-2" d="M372.13,198.92q-73.42-.06-146.85,0c-1.48,0-3.05-.13-4.3.8.3.18.61.35.92.52,1.25,0,2.5-.09,3.76-.09l150.1,0v-.71A8.2,8.2,0,0,0,372.13,198.92Z"/><path class="cls-2" d="M375.76,200.13h1a3.67,3.67,0,0,0-1-.71Z"/><path class="cls-2" d="M220.36,200.3l1.54-.06c-.31-.17-.62-.34-.92-.52A3.72,3.72,0,0,0,220.36,200.3Z"/><path class="cls-3" d="M193.89,24.25A6.35,6.35,0,0,0,200.53,18a6.4,6.4,0,0,0-12.8-.48A6.35,6.35,0,0,0,193.89,24.25Z"/><path class="cls-4" d="M224,216.15c-22.78-17.63-57.23-11.56-71,12.5-.18,4.37-1.36,8.61-1.47,13-.36,15,5,28,15,38.71a51.35,51.35,0,0,0,37.06,16.85,77.33,77.33,0,0,0,17.19-1.49h0a18.56,18.56,0,0,0,1.95-1.11A48.94,48.94,0,0,0,224,216.15Zm-2.25,31.33c-9.65,9.63-19.26,19.3-28.93,28.9-3.49,3.45-6.18,3.36-9.74-.17q-8.21-8.13-16.33-16.33c-3.16-3.19-3.47-6.44-.95-8.94s5.88-2.12,9,.92c3.78,3.72,7.61,7.39,11.22,11.27,1.66,1.8,2.59,1.54,4.17-.08,7.59-7.75,15.3-15.39,23-23.07,1.44-1.44,2.88-2.8,5.15-2.8a5.57,5.57,0,0,1,5.76,5.68A6.65,6.65,0,0,1,221.78,247.48Z"/><path class="cls-5" d="M198.53,297.88a55.77,55.77,0,0,1-47.84-60.12,32,32,0,0,1,2.36-9.11,34.93,34.93,0,0,0-2.08,3.1c-13.49,25-2.89,56.41,23.13,67.82,16.12,7.07,31.84,6,46.71-3.82C213.67,299.37,206,298.91,198.53,297.88Z"/><path class="cls-5" d="M203.62,297.24a51.35,51.35,0,0,1-37.06-16.85c-10-10.71-15.34-23.67-15-38.71.11-4.42,1.29-8.66,1.47-13a32,32,0,0,0-2.36,9.11,55.77,55.77,0,0,0,47.84,60.12c7.42,1,15.14,1.49,22.28-2.13h0A77.33,77.33,0,0,1,203.62,297.24Z"/><path d="M218.31,237.18c-2.27,0-3.71,1.36-5.15,2.8-7.67,7.68-15.38,15.32-23,23.07-1.58,1.62-2.51,1.88-4.17.08-3.61-3.88-7.44-7.55-11.22-11.27-3.09-3-6.52-3.36-9-.92s-2.21,5.75.95,8.94q8.13,8.19,16.33,16.33c3.56,3.53,6.25,3.62,9.74.17,9.67-9.6,19.28-19.27,28.93-28.9a6.65,6.65,0,0,0,2.29-4.62A5.57,5.57,0,0,0,218.31,237.18Z"/><path d="M365.46,134.77a1,1,0,0,0-.11.42,1.38,1.38,0,0,1-1.41,1.2,4.88,4.88,0,0,1-1.25-.21l-.94-.33c-.19-.07-.38-.13-.56-.21a5.08,5.08,0,0,0-2.78-.27,11,11,0,0,0-3,.88,23.14,23.14,0,0,0-4.66,2.84,30.78,30.78,0,0,0-2.9,2.57c-.72.71-1.43,1.44-2.1,2.2a6.2,6.2,0,0,0-.67.88,4.47,4.47,0,0,0-.63,1.53,2.83,2.83,0,0,0-.07.77,1.83,1.83,0,0,0,.72,1.43,2.83,2.83,0,0,0,1.42.58,4.17,4.17,0,0,0,.71,0c1.18,0,2.37,0,3.54-.1,1-.06,1.92-.09,2.88-.1a8.88,8.88,0,0,1,3.35.61,7.22,7.22,0,0,1,3,2.17,6.81,6.81,0,0,1,1.53,3.9,9.25,9.25,0,0,1-.52,3.76,17.67,17.67,0,0,1-1.19,2.67,31.19,31.19,0,0,1-5.44,7.22,20.53,20.53,0,0,1-4.89,3.6,16.24,16.24,0,0,1-3.28,1.3,12,12,0,0,1-4.17.38,10.68,10.68,0,0,1-4.74-1.55,7.9,7.9,0,0,1-1.59-1.28,6.22,6.22,0,0,1-1.13-1.7,4.77,4.77,0,0,1-.39-1.83,3.7,3.7,0,0,1,.11-.87,1,1,0,0,1,.06-.16.6.6,0,0,1,.72-.37l.31.11,1.41.64a26,26,0,0,0,2.54,1.1,11,11,0,0,0,2,.54,8.29,8.29,0,0,0,1.65.13,11.86,11.86,0,0,0,4.61-1,14.54,14.54,0,0,0,5.15-3.83,30.71,30.71,0,0,0,2.88-3.93,16.71,16.71,0,0,0,1.09-2.05,5.82,5.82,0,0,0,.45-1.47,1.9,1.9,0,0,0-.53-1.68,3.45,3.45,0,0,0-.95-.66,5.84,5.84,0,0,0-1.41-.47,13.17,13.17,0,0,0-3.26-.17l-1.38.07-.94.05c-.88.06-1.77.08-2.65.06a6.71,6.71,0,0,1-3.22-.89,6.17,6.17,0,0,1-2.67-3,6,6,0,0,1-.48-2.64,10.16,10.16,0,0,1,1.19-4.28,17.74,17.74,0,0,1,2.14-3.16,32.1,32.1,0,0,1,3-3.14,39.55,39.55,0,0,1,7.34-5.31,13.75,13.75,0,0,1,3.64-1.44,14.57,14.57,0,0,1,3.84-.39,5.71,5.71,0,0,1,2.29.59,4.12,4.12,0,0,1,1.87,1.82,2.16,2.16,0,0,1,.3,1,1.44,1.44,0,0,0,.1.37Z"/><path d="M225.87,134a23.21,23.21,0,0,1-.24,2.83c-.38,2.72-.93,5.41-1.53,8.09-1.24,5.47-2.79,10.85-4.53,16.18q-1,3.19-2.17,6.33c-.27.73-.56,1.45-.89,2.15a10.53,10.53,0,0,1-1.09,1.86,5.66,5.66,0,0,1-1.24,1.25,3.14,3.14,0,0,1-2.29.62,4.85,4.85,0,0,1-.76-.14,2.1,2.1,0,0,1-1-.64c-.15-.18-.3-.38-.44-.57a32,32,0,0,1-3.22-5.28,67.29,67.29,0,0,1-3.22-7.82c-.88-2.57-1.64-5.17-2.31-7.79-.59-2.34-1.17-4.69-1.75-7-.08-.34-.16-.69-.25-1a3.75,3.75,0,0,0-.17-.47.75.75,0,0,0-.15-.16.18.18,0,0,0-.2,0,.83.83,0,0,0-.23.38q-.25.69-.48,1.41c-.33,1.05-.59,2.13-.87,3.2-.78,3-1.56,6-2.39,9-.57,2.06-1.14,4.12-1.73,6.18-.4,1.43-.85,2.86-1.27,4.29-.48,1.65-1,3.29-1.42,4.94a4.78,4.78,0,0,1-.4,1,2.8,2.8,0,0,1-.81.9,2.11,2.11,0,0,1-.55.25,1.07,1.07,0,0,1-.95-.13,2.25,2.25,0,0,1-.39-.3,3.65,3.65,0,0,1-1-1.74,2.06,2.06,0,0,1,0-1.1c.14-.53.27-1.07.4-1.61.19-.82.37-1.65.57-2.47s.45-1.68.69-2.51l4.5-16q1.14-4,2.26-8c.14-.51.26-1,.39-1.55a7.66,7.66,0,0,1,.33-1.06q.16-.37.36-.75a3.55,3.55,0,0,1,.67-.87,2.63,2.63,0,0,1,3.31-.26c.31.23.6.49.9.74s.41.37.61.56a3.16,3.16,0,0,1,.58.73,8.59,8.59,0,0,1,.56,1.14,35.25,35.25,0,0,1,1.21,3.45q.84,2.83,1.65,5.68c.92,3.19,1.89,6.36,3,9.49a64.47,64.47,0,0,0,2.65,6.38q.44.88.9,1.77a13.07,13.07,0,0,0,.92,1.52,1.4,1.4,0,0,0,.36.41c.05,0,.16,0,.18,0a.9.9,0,0,0,.08-.21c.15-.63.3-1.25.44-1.88a13.41,13.41,0,0,1,.56-2c1.06-2.81,2-5.68,2.75-8.58.89-3.23,1.7-6.49,2.46-9.76.31-1.36.63-2.73.91-4.1s.54-2.75.76-4.13c.15-1,.28-1.9.37-2.86,0-.22,0-.44,0-.66a15.27,15.27,0,0,1,.34-2.52,6.91,6.91,0,0,1,.22-.74,2.11,2.11,0,0,1,.35-.62.8.8,0,0,1,.72-.34,4.55,4.55,0,0,1,1.5.34.69.69,0,0,1,.33.28,7.3,7.3,0,0,1,1.05,2.72C225.85,133.07,225.86,133.64,225.87,134Z"/><path d="M256.7,153.33c.47.09.92.17,1.37.27a31.56,31.56,0,0,1,4.17,1.09,14.68,14.68,0,0,1,2.33,1,7.68,7.68,0,0,1,1.45,1,6.61,6.61,0,0,1,.7.7,4.88,4.88,0,0,1,1.17,3,7.89,7.89,0,0,1-.39,2.73,10.23,10.23,0,0,1-2.46,4.09,15,15,0,0,1-2.23,1.89q-1.29.87-2.64,1.62a39.08,39.08,0,0,1-4.83,2.34,24.52,24.52,0,0,1-4,1.22,10.62,10.62,0,0,1-2.58.27,3.43,3.43,0,0,1-.71-.08,2,2,0,0,1-1.15-.61,4.72,4.72,0,0,1-.5-.59c-.16-.23-.3-.47-.45-.7,0-.06-.09-.11-.13-.16s-.24.11-.35.18a3.9,3.9,0,0,1-1.3.58,6.49,6.49,0,0,1-.77.11c-.27,0-.55,0-.83,0a.75.75,0,0,1-.58-.28,1.9,1.9,0,0,1-.47-1.15,5.77,5.77,0,0,1,0-.72,9.53,9.53,0,0,1,.38-2.12c.16-.53.31-1.07.5-1.58.32-.89.59-1.79.85-2.69q1.78-6,3.3-12.17c.5-2,1-4,1.44-6,.22-.91.39-1.84.61-2.75a2.92,2.92,0,0,0,.06-.93c0-.54-.07-1.07-.12-1.6a2.08,2.08,0,0,1,0-.66,10.14,10.14,0,0,1,.59-1.79,5.48,5.48,0,0,1,.6-1,3.53,3.53,0,0,1,.51-.58,1.19,1.19,0,0,1,.86-.33c.25,0,.51,0,.77,0,.44.06.88.07,1.33.09a3.88,3.88,0,0,0,1.35-.2c.82-.3,1.64-.57,2.45-.88,1.21-.45,2.43-.87,3.68-1.21a22.21,22.21,0,0,1,2.92-.59,16.59,16.59,0,0,1,3-.12,10,10,0,0,1,2.87.54,6.13,6.13,0,0,1,1.28.64,4.45,4.45,0,0,1,2.07,3.6,8.5,8.5,0,0,1-.68,3.89,8.3,8.3,0,0,1-.91,1.58,13,13,0,0,1-2.46,2.61,23.44,23.44,0,0,1-3.52,2.39c-1.25.71-2.56,1.32-3.87,1.9s-2.82,1.2-4.24,1.76l-.41.16S256.74,153.27,256.7,153.33Zm6.44,8.11a1.92,1.92,0,0,0-.18-.92,2.6,2.6,0,0,0-.55-.76,5,5,0,0,0-1-.75,8,8,0,0,0-2-.77c-.51-.12-1-.23-1.52-.32l-4.35-.79c-1-.19-2-.37-3-.62l-.21,0a.14.14,0,0,0-.14.08c0,.1-.08.21-.11.31-.47,1.71-.92,3.42-1.33,5.14s-.87,3.73-1.31,5.6c-.1.43-.19.86-.29,1.29,0,.14,0,.19.16.22a4.44,4.44,0,0,0,.49.07c.66.08,1.32.14,2,.21a2.83,2.83,0,0,0,.77,0l.81-.15a21.15,21.15,0,0,0,3.14-.87,34.46,34.46,0,0,0,5.27-2.44,7.9,7.9,0,0,0,2.2-1.83,5.8,5.8,0,0,0,.88-1.4A3.24,3.24,0,0,0,263.14,161.44Zm4.42-20.1a2.06,2.06,0,0,0-.66-1.59,2.65,2.65,0,0,0-.69-.45,4.29,4.29,0,0,0-1.45-.32,10.65,10.65,0,0,0-2.26.15,23,23,0,0,0-6.21,2c-.34.18-.68.36-1,.57a6.12,6.12,0,0,0-.7.53,1.34,1.34,0,0,0-.44.7l-.1.31c-.14.46-.28.92-.43,1.37a7.55,7.55,0,0,1-.54,1.39,1.92,1.92,0,0,0-.11.31c-.25.91-.49,1.82-.73,2.73s-.45,1.6-.67,2.4a1.12,1.12,0,0,0,0,.32s0,.06.07.06l.37-.11c1-.37,2-.77,2.92-1.19,3.16-1.39,6.21-3,9.23-4.65a7.84,7.84,0,0,0,2.46-2.12,5.94,5.94,0,0,0,.73-1.24A2.91,2.91,0,0,0,267.56,141.34Z"/><path d="M37.21,167.4c.08-.33.16-.64.22-.94q1.4-6.12,2.77-12.24L43,141.7c.12-.54.24-1.08.37-1.62a3.11,3.11,0,0,0,0-.32.11.11,0,0,0-.1-.11l-.44,0a10.35,10.35,0,0,1-1.65-.21,6.91,6.91,0,0,1-.74-.22,1.35,1.35,0,0,1-.7-.59,8.79,8.79,0,0,1-.82-1.69,2.78,2.78,0,0,1-.12-.7,1.4,1.4,0,0,1,.53-1.22,4.32,4.32,0,0,1,1-.56,6.4,6.4,0,0,1,1.6-.42,12.29,12.29,0,0,1,1.82-.14c1.55,0,3.1.06,4.65.14a30.07,30.07,0,0,1,3.14.31,20.56,20.56,0,0,1,6.15,1.92,17.45,17.45,0,0,1,5,3.91,14.21,14.21,0,0,1,2.79,4.55,13.72,13.72,0,0,1,.8,3.1,13.07,13.07,0,0,1,.11,2,18.59,18.59,0,0,1-.21,2.59c-.08.47-.2.94-.32,1.4a21.21,21.21,0,0,1-8.68,12.3,33.74,33.74,0,0,1-5.84,3.12,52.05,52.05,0,0,1-5,1.77c-.74.23-1.48.44-2.23.66-.56.17-1.12.35-1.69.5a23.14,23.14,0,0,1-2.61.51c-.74.11-1.49.22-2.25.29a22.78,22.78,0,0,1-3,.13,8.26,8.26,0,0,1-1.64-.2c-.25-.07-.5-.15-.74-.24a2.05,2.05,0,0,1-.66-.4,1.31,1.31,0,0,1-.47-1,2.54,2.54,0,0,1,.52-1.6,3.56,3.56,0,0,1,.48-.54,5.65,5.65,0,0,1,2.79-1.37c.68-.12,1.35-.21,2-.31Zm25.1-17.2a8,8,0,0,0-.76-3.27,11.38,11.38,0,0,0-2.31-3.36,14.71,14.71,0,0,0-2.82-2.21,14.89,14.89,0,0,0-5.38-2.1,9.32,9.32,0,0,0-1.59-.17c-.25,0-.28,0-.37.24l-.09.26c-.87,2.51-1.66,5-2.34,7.61-.73,2.73-1.36,5.47-2,8.22-.48,2.09-.94,4.17-1.4,6.26-.34,1.55-.68,3.1-1,4.65a1.75,1.75,0,0,0,0,.33.12.12,0,0,0,.14.12l.33-.07c.6-.16,1.21-.32,1.81-.5a39,39,0,0,0,4.88-1.77,31.61,31.61,0,0,0,7.69-4.75,21.07,21.07,0,0,0,2.29-2.24,14.31,14.31,0,0,0,2.31-3.69A9,9,0,0,0,62.31,150.2Z"/><path d="M149.82,142.37a15,15,0,0,1-.23,2.19l-.18,1a5.88,5.88,0,0,1-.86,2.2,11.42,11.42,0,0,1-1.35,1.68,23.33,23.33,0,0,1-5.12,3.93,36.56,36.56,0,0,1-6.56,2.9c-1.84.61-3.71,1.12-5.6,1.55l-4.64,1c-.32.07-.65.12-1,.18l-.43.1a.57.57,0,0,0-.42.4,2.76,2.76,0,0,0-.08.27c-.39,1.46-.71,2.94-1,4.42l-1,5c-.12.56-.24,1.12-.37,1.67a7.92,7.92,0,0,1-1.38,2.88,4.84,4.84,0,0,1-1,1,2,2,0,0,1-1.19.38,1.13,1.13,0,0,1-.8-.32,2,2,0,0,1-.47-.61,4.36,4.36,0,0,1-.42-1.37,3.72,3.72,0,0,1,.25-1.95c.07-.17.14-.34.22-.51a22,22,0,0,0,1.29-4.05c.66-3,1.33-6,2-9,.42-1.88.88-3.76,1.46-5.61.41-1.34.84-2.68,1.25-4,.52-1.68,1-3.35,1.53-5,.3-1,.55-2,.77-3a1.84,1.84,0,0,0,0-.33.26.26,0,0,0-.2-.23l-.33,0a5,5,0,0,1-.54-.08,1.69,1.69,0,0,1-1.2-.89,1.82,1.82,0,0,1-.22-.63,4.88,4.88,0,0,1-.09-.93,6.66,6.66,0,0,1,.18-1.48,4.52,4.52,0,0,1,.26-.73,2.51,2.51,0,0,1,1.44-1.31c.26-.09.52-.16.79-.24l.59-.16c.67-.19.76-.27,1-.9.13-.31.24-.62.35-.93a5.54,5.54,0,0,1,.5-1.11,3.15,3.15,0,0,1,.79-.92,2.17,2.17,0,0,1,1.79-.31,2.1,2.1,0,0,1,.53.29,3.07,3.07,0,0,1,.69.79,6.5,6.5,0,0,1,.59,1.18c.1.26.21.51.31.77a.21.21,0,0,0,.17.12,1.33,1.33,0,0,0,.28,0l.77,0c.89,0,1.77.11,2.65.2s1.79.23,2.69.37a19.93,19.93,0,0,1,5.67,1.79,12.19,12.19,0,0,1,3.27,2.35,10.24,10.24,0,0,1,1.48,1.92,7,7,0,0,1,1,3.08C149.79,141.83,149.8,142.18,149.82,142.37Zm-3.72.74a4.4,4.4,0,0,0-.6-2.29,5.72,5.72,0,0,0-1.95-2.08,8.94,8.94,0,0,0-1.47-.77,12,12,0,0,0-2.51-.65c-.47-.08-.95-.11-1.43-.15a30.11,30.11,0,0,0-3.15-.07l-.6,0-1.88.18c-.51.05-1,.13-1.53.23a4.48,4.48,0,0,0-.52.16.59.59,0,0,0-.32.3c-.08.19-.16.37-.23.56-.65,1.74-1.24,3.51-1.82,5.28-.9,2.75-1.79,5.5-2.55,8.29-.09.34-.16.68-.24,1a1.84,1.84,0,0,0,0,.33c0,.25.09.35.32.33l.28,0,.87-.16c1.61-.31,3.21-.66,4.78-1.12a51.19,51.19,0,0,0,8.3-3.2,21.2,21.2,0,0,0,3.53-2.15,12.18,12.18,0,0,0,1.6-1.45,5.1,5.1,0,0,0,.62-.77A3.11,3.11,0,0,0,146.1,143.11Z"/><path d="M149.94,163a19,19,0,0,1,.75-5.07,32,32,0,0,1,1.88-5.08,46.45,46.45,0,0,1,4.32-7.45,55.26,55.26,0,0,1,7.07-8.27c.59-.56,1.2-1.1,1.8-1.64.11-.1.23-.19.35-.28a4.2,4.2,0,0,1,2.62-.9,4.48,4.48,0,0,1,1.15.1,3,3,0,0,1,1.22.62c.21.18.39.39.59.58s.29.28.45.41a.36.36,0,0,0,.2.08.18.18,0,0,0,.2-.06c.09-.14.18-.28.26-.43a1.28,1.28,0,0,1,.8-.63,5.43,5.43,0,0,1,1.14-.19c.24,0,.48,0,.72,0A5.58,5.58,0,0,1,178.9,136a6.36,6.36,0,0,1,.84.8,12.83,12.83,0,0,1,2.67,4.42,16.75,16.75,0,0,1,.8,3.21,19.42,19.42,0,0,1,.12,4.31,29.43,29.43,0,0,1-2,8.63,30.38,30.38,0,0,1-6.4,10,24.81,24.81,0,0,1-5.61,4.38,20,20,0,0,1-5.1,2.08,17.6,17.6,0,0,1-2.39.43,16.39,16.39,0,0,1-2.21.08,10.56,10.56,0,0,1-3.25-.6,9,9,0,0,1-5.34-4.92,11.48,11.48,0,0,1-.95-3.4A14.41,14.41,0,0,1,149.94,163Zm29.23-15.38a17.7,17.7,0,0,0-.06-1.93,13.2,13.2,0,0,0-.37-2.07,6.67,6.67,0,0,0-1-2.25,5.6,5.6,0,0,0-5-2.39.39.39,0,0,0-.32.19,4.67,4.67,0,0,0-.27.49c-.11.23-.2.47-.32.7a2.13,2.13,0,0,1-2,1.26,1.47,1.47,0,0,1-.89-.28,5.72,5.72,0,0,1-.46-.4l-.31-.31a.4.4,0,0,0-.4-.11,1.26,1.26,0,0,0-.5.22,9.1,9.1,0,0,0-2,1.67c-.87,1-1.71,2-2.51,3a52.7,52.7,0,0,0-4.51,6.7,39.6,39.6,0,0,0-2.57,5.38,20.13,20.13,0,0,0-1.2,4.65,8.66,8.66,0,0,0,0,2.64,5.36,5.36,0,0,0,3.24,4.19,8.28,8.28,0,0,0,2.35.59,10.46,10.46,0,0,0,3.3-.2,13.26,13.26,0,0,0,3.11-1.11,18.34,18.34,0,0,0,3.62-2.43,23.64,23.64,0,0,0,4.47-5.1,30.41,30.41,0,0,0,3.95-8.91A18.71,18.71,0,0,0,179.17,147.62Z"/><path d="M308.4,174.4a6.23,6.23,0,0,1-1.39-.1A4.35,4.35,0,0,1,306,174a2.53,2.53,0,0,1-1.51-1.91,5.46,5.46,0,0,1-.07-1.71,12.2,12.2,0,0,1,.25-1.47c.58-2.54,1.27-5,2.06-7.52s1.52-5,2.18-7.6c.71-2.73,1.41-5.46,2.12-8.19.43-1.66.89-3.31,1.44-4.93a30.1,30.1,0,0,1,1.32-3.34,13.59,13.59,0,0,1,.76-1.41,5.37,5.37,0,0,1,.67-.88,3,3,0,0,1,.46-.41,1.34,1.34,0,0,1,.83-.25,3.72,3.72,0,0,1,.93.13,1.92,1.92,0,0,1,.77.41,1.18,1.18,0,0,1,.51.82,5.6,5.6,0,0,0,.12.59c0,.17.12.23.28.2l1-.18,1.78-.4c.61-.13,1.2-.35,1.8-.53,1.28-.36,2.56-.71,3.85-1a31.13,31.13,0,0,1,3.16-.54c.94-.1,1.88-.16,2.82-.17a12.17,12.17,0,0,1,1.6.1,4.28,4.28,0,0,1,1.07.25,2.19,2.19,0,0,1,.64.34,1.15,1.15,0,0,1,.46.84,1.73,1.73,0,0,1-.37,1.3,2.69,2.69,0,0,1-.62.55,3.82,3.82,0,0,1-1.49.57c-1.85.3-3.69.68-5.54,1a13.44,13.44,0,0,0-1.66.42q-2.87.85-5.7,1.78c-.65.2-1.3.42-1.94.64a5.89,5.89,0,0,0-2.89,2.14,8.68,8.68,0,0,0-1,1.94c-.21.55-.41,1.11-.59,1.67-.53,1.63-1.06,3.26-1.57,4.9-.17.51-.3,1-.44,1.54a1.76,1.76,0,0,0-.07.6.18.18,0,0,0,.22.18c.25-.05.51-.1.76-.17.92-.25,1.83-.56,2.74-.87,2-.7,4.07-1.41,6.11-2.1,1.5-.52,3-1,4.54-1.44a10.66,10.66,0,0,1,1.51-.33,3.3,3.3,0,0,1,1,.05,1,1,0,0,1,.78.95,2.47,2.47,0,0,1-.49,1.55,6.17,6.17,0,0,1-.48.54,5.69,5.69,0,0,1-1.79,1.18c-.95.39-1.93.73-2.9,1.08l-2,.7q-.46.16-.93.36c-2.18.95-4.37,1.88-6.54,2.85a22.86,22.86,0,0,1-3.7,1.3c-.8.2-.63,0-.89.85s-.5,1.85-.72,2.78-.44,2-.61,3a7.65,7.65,0,0,0-.18,1.26c0,.22,0,.44,0,.66a.87.87,0,0,0,.13.37.67.67,0,0,0,.43.32,2.42,2.42,0,0,0,.6,0,12.93,12.93,0,0,0,2.41-.31,24.21,24.21,0,0,0,4.63-1.47,17.41,17.41,0,0,0,1.92-1l2.18-1.31c.56-.33,1.13-.62,1.71-.9a6.12,6.12,0,0,1,2.3-.56,3,3,0,0,1,1.25.19,1.49,1.49,0,0,1,.58.42.76.76,0,0,1,.17.4,1.84,1.84,0,0,1-.08.7,3.49,3.49,0,0,1-.54,1,7.19,7.19,0,0,1-1.16,1.18c-.33.27-.67.53-1,.77a19.65,19.65,0,0,1-1.79,1.11,46.75,46.75,0,0,1-5.46,2.55c-1,.41-2,.81-3.11,1.14a26.6,26.6,0,0,1-4.05.89A18.76,18.76,0,0,1,308.4,174.4Z"/><path d="M100.22,149c1,0,1.92-.07,2.88-.08a9,9,0,0,1,3,.49,7.56,7.56,0,0,1,1.55.72,6.81,6.81,0,0,1,3.25,4.67,7.51,7.51,0,0,1,.09,2.32,11.29,11.29,0,0,1-.87,3.18,19.35,19.35,0,0,1-1,1.94,32,32,0,0,1-4.52,6.2,23.32,23.32,0,0,1-3.81,3.28,17.54,17.54,0,0,1-4.7,2.3,12.15,12.15,0,0,1-4.6.51,10.72,10.72,0,0,1-4.84-1.59,8.12,8.12,0,0,1-.67-.48,6.5,6.5,0,0,1-1.49-1.56,4.79,4.79,0,0,1-.78-1.81,4.69,4.69,0,0,1,0-1.54,1.62,1.62,0,0,1,.12-.43.61.61,0,0,1,.67-.36l.32.11c.49.22,1,.43,1.46.66.83.39,1.67.79,2.54,1.1a11.94,11.94,0,0,0,2,.54,9.1,9.1,0,0,0,1.65.12,11.79,11.79,0,0,0,5-1.23,14.39,14.39,0,0,0,4.78-3.69,30.24,30.24,0,0,0,2.81-3.84,17.32,17.32,0,0,0,1-1.79,7.32,7.32,0,0,0,.53-1.51,3.08,3.08,0,0,0,.06-.61,1.8,1.8,0,0,0-.49-1.25,3.15,3.15,0,0,0-1-.74,6.29,6.29,0,0,0-1.41-.46,12.73,12.73,0,0,0-3.26-.17L99.1,154l-.88.05c-.89.06-1.77.08-2.66.06a6.78,6.78,0,0,1-2.93-.72,6.23,6.23,0,0,1-3.23-3.82,6.15,6.15,0,0,1-.19-2.63,10.42,10.42,0,0,1,1.47-4.25,19.52,19.52,0,0,1,2-2.74,34.19,34.19,0,0,1,3.56-3.56,40,40,0,0,1,6.29-4.51,15.41,15.41,0,0,1,3.07-1.38,16.35,16.35,0,0,1,2.59-.55,14.77,14.77,0,0,1,2.1-.1,5.57,5.57,0,0,1,2.09.46,4.57,4.57,0,0,1,1,.61,3.93,3.93,0,0,1,1.5,2.56,4.66,4.66,0,0,1,0,1.49,2.25,2.25,0,0,1-.33.82,1.19,1.19,0,0,1-1.07.57,4.07,4.07,0,0,1-1-.14l-1.26-.42-.88-.32a3.54,3.54,0,0,0-1.25-.22,9.18,9.18,0,0,0-3.4.65,19.78,19.78,0,0,0-3.63,1.87,27.19,27.19,0,0,0-3.74,2.94c-1,.92-1.93,1.87-2.83,2.88-.21.23-.42.47-.61.71A4.54,4.54,0,0,0,94,146a4.85,4.85,0,0,0-.14.76,1.91,1.91,0,0,0,.92,1.88,2.89,2.89,0,0,0,1.29.45l.61,0C97.86,149.08,99,149.06,100.22,149Z"/><path d="M287,137a7.52,7.52,0,0,1-.2,1.7c-.44,1.92-1,3.82-1.54,5.71L282,155c-.59,2-1.12,4-1.6,6-.25,1-.48,2.09-.72,3.13a16,16,0,0,0-.35,2.07q0,.36,0,.72a1.28,1.28,0,0,0,.09.48.54.54,0,0,0,.5.38,5.27,5.27,0,0,0,1,0,19.91,19.91,0,0,0,2.74-.67,45.26,45.26,0,0,0,5.15-2l4.52-2.08q2.34-1.08,4.69-2.13c.25-.12.51-.21.76-.31a1.45,1.45,0,0,1,.71-.1,1.17,1.17,0,0,1,1,.65,1.91,1.91,0,0,1,.24.73,5.71,5.71,0,0,1-.17,2.14,1.65,1.65,0,0,1-.24.5,4.3,4.3,0,0,1-.71.77,7.54,7.54,0,0,1-2,1.2c-.49.21-1,.4-1.48.6l-6.38,2.66-5.23,2.12a30.88,30.88,0,0,1-3.24,1.1,6.37,6.37,0,0,1-2,.26,5,5,0,0,1-1-.15,3.16,3.16,0,0,1-1.1-.51c-.24-.18-.47-.36-.69-.55a13.89,13.89,0,0,0-1.21-1,2.42,2.42,0,0,1-.36-.27,2.27,2.27,0,0,1-.63-.95,4.77,4.77,0,0,1-.29-2,20.55,20.55,0,0,1,.66-4c.25-.91.54-1.8.81-2.7q1.77-6,3.53-11.93c.64-2.2,1.24-4.4,1.78-6.63.3-1.23.57-2.47.8-3.73.12-.72.22-1.45.28-2.19a3.72,3.72,0,0,1,1.24-2.52,2.32,2.32,0,0,1,1.72-.63,1.72,1.72,0,0,1,1.06.4,2.48,2.48,0,0,1,.63.84,4.61,4.61,0,0,1,.41,1.59C287,136.5,287,136.73,287,137Z"/><path d="M241,136.12a8,8,0,0,1-.22,1.53c-.27,1.17-.63,2.31-1,3.45-1.17,3.49-2.26,7-3.3,10.55-.34,1.13-.65,2.27-1,3.41s-.59,2.05-.86,3.09c-.33,1.26-.58,2.55-.8,3.84-.26,1.47-.45,2.95-.66,4.43-.26,1.84-.55,3.68-1,5.5a3.16,3.16,0,0,1-2.39,2.42,2.85,2.85,0,0,1-1.42-.05A.81.81,0,0,1,228,174a2.6,2.6,0,0,1-.58-2.17c.09-.53.21-1.05.32-1.57.44-2.08.87-4.15,1.31-6.23l1.11-5.3c.38-1.81.77-3.61,1.23-5.39.65-2.54,1.33-5.07,2-7.59.57-2.08,1.15-4.16,1.66-6.26.33-1.38.66-2.76.93-4.15a2.81,2.81,0,0,1,1.19-1.8,3.53,3.53,0,0,1,1.92-.62.52.52,0,0,1,.36.1,3.37,3.37,0,0,1,1.53,2.45C241,135.67,241,135.9,241,136.12Z"/><path d="M83.53,136a6.25,6.25,0,0,1-.19,1.51,31.35,31.35,0,0,1-1,3.4c-1.1,3.25-2.1,6.52-3.09,9.81-.32,1.07-.61,2.16-.92,3.24-.36,1.28-.74,2.55-1.08,3.83-.28,1.09-.52,2.19-.73,3.3-.27,1.44-.48,2.91-.68,4.37-.17,1.22-.35,2.44-.56,3.66-.16.94-.36,1.88-.55,2.82a3.18,3.18,0,0,1-2.49,2.39,2.69,2.69,0,0,1-1.32-.07.8.8,0,0,1-.41-.27,2.53,2.53,0,0,1-.64-1.55,3.24,3.24,0,0,1,.07-.88q1-4.68,2-9.36.58-2.79,1.18-5.58c.35-1.62.76-3.22,1.18-4.83.85-3.3,1.77-6.59,2.65-9.88.56-2.12,1.08-4.25,1.51-6.4,0-.09,0-.18.07-.27a2.72,2.72,0,0,1,1.3-1.84,3.65,3.65,0,0,1,1.73-.53A.72.72,0,0,1,82,133a3.39,3.39,0,0,1,1.4,2A3.57,3.57,0,0,1,83.53,136Z"/></g></g></svg>