<svg xmlns="http://www.w3.org/2000/svg" viewBox="0 0 371.11 371.15"><defs><style>.cls-1{fill:#e1e6f5;}.cls-2{fill:#f5b840;}.cls-3{fill:#c7ccec;}.cls-4{fill:#f3a83c;}.cls-5{fill:#5e86c9;}.cls-6{fill:#789fd3;}.cls-7{fill:#e0e5f4;}.cls-8{fill:#d13f34;}.cls-9{fill:#efad42;}.cls-10{fill:#3b5891;}.cls-11{fill:#4c6cb4;}.cls-12{fill:#92bae4;}</style></defs><g id="Capa_2" data-name="Capa 2"><g id="Capa_1-2" data-name="Capa 1"><path d="M305.27,223.06a2.42,2.42,0,0,1,.39-.21l-.39-.18Z"/><path d="M292.51,268.64a7.28,7.28,0,0,1,.72,1A1.62,1.62,0,0,0,292.51,268.64Z"/><path d="M305.48,323.22c-.09-.11-.18-.23-.26-.35,0,.12,0,.24,0,.35Z"/><path d="M293.12,323.22h.26c0-.17.05-.33.07-.5A5.39,5.39,0,0,1,293.12,323.22Z"/><path d="M363.86,179.59c-7.73,0-15.46,0-23.19,0-5.46,0-5.46,0-5.47-5.39,0-17-10.45-31-26.73-35.23-2.94-.77-3.24-2-3.24-4.47q.09-63,0-126.06c0-6.65-1.78-8.44-8.37-8.44H8.53C1.7,0,0,1.72,0,8.64V362.13c0,7.42,1.58,9,8.91,9H296.16c.88,0,1.75,0,2.62,0,4.13-.17,6.4-2.4,6.47-6.59.08-4.73.2-9.48-.05-14.21-.14-2.7.74-3.22,3.3-3.2,18.32.11,36.65.07,55,.05,5.46,0,7.62-2,7.62-7.3q0-76.5,0-153C371.1,181.77,369,179.61,363.86,179.59ZM308.15,151.5c8.74,3.39,14.8,12.19,15.07,22.11.17,6,.17,6-5.63,6-3.36,0-6.73-.11-10.09,0-1.84.07-2.32-.55-2.27-2.32.12-4.11,0-8.23,0-12.34,0-3.86.16-7.74,0-11.59C305.07,150.61,306.05,150.68,308.15,151.5ZM95.47,12H211c1.49,0,3,.08,4.48.12,6-.32,6-.32,6,5.55,0,6.29,0,6.29-6.14,6.29H95.46c-5.86,0-5.86,0-5.55-6C89.6,12,89.6,12,95.47,12Zm189.21,347.2q-134.3,0-268.58.08c-3.4,0-4.45-.82-4.2-4.22.34-4.59.15-9.22.2-13.83,0-1.25-.12-2.49-.12-3.73q0-160.68-.09-321.36c0-3.38.8-4.26,4.2-4.22q29.18.25,58.36,0c2.82,0,3.59.68,3.43,3.47-.25,4.6-.12,9.22,0,13.84.06,4.38,2.32,6.69,6.72,6.69q71.07,0,142.15,0c4.39,0,6.66-2.31,6.72-6.7.08-5,.09-10,0-15,0-1.78.47-2.32,2.29-2.31,15.2.11,30.41.13,45.62.17,3.85,0,8.73-1.39,11.23.45s.72,7,.72,10.64c.06,37.12,0,74.25.09,111.37,0,2.58-.43,3.91-3.32,4.47s-5.79,2.08-8.68,3.19c-9.51,6.2-15.86,14.58-17.6,26a42.3,42.3,0,0,0-.32,8.57c.13,2.34-.59,2.89-2.88,2.86-10.34-.13-20.68-.06-31,0-6.13,0-8.05,1.9-8.05,8V337.1c0,1.36-.08,2.73-.12,4.1,1.27,4.73,2.81,6,7.55,6,20.32,0,40.65.06,61-.06,2.72,0,3.57.53,3.51,3.41C293.2,359.17,293.35,359.17,284.68,359.17Zm8.66-181.77c0,1.88-.66,2.29-2.36,2.21-3.22-.14-6.44-.11-9.67-.15-6.12.32-6.21.32-5.94-5.85.25-5.7,1.68-11,5.88-15.22,2.93-4.11,7-6.32,12.05-7.77C293.3,159.8,293.24,168.6,293.34,177.4Zm62,157.9q-59.07-.17-118.13,0c-3.09,0-4.22-.68-3.85-3.84.31-2.71.13-5.47.18-8.21q-.07-21.88-.12-43.76c0-28.05.05-56.1-.09-84.15,0-3.11.74-3.87,3.86-3.86,35.53.12,71.06.08,106.59.08,1.12,0,2.23.08,3.35.12h3c9-.47,9-.47,9,8.54q0,65.61.08,131.22C359.22,334.55,358.48,335.31,355.37,335.3Z"/><path class="cls-1" d="M23.94,301.28c0-6,1.94-7.95,8.07-8,6.71,0,13.43,0,20.15,0,5.62,0,7.67,2,7.69,7.58q.07,20.14.13,40.29H71.7q.08-34.72.13-69.46c0-6.58,1.79-8.34,8.43-8.35s13.19,0,19.79,0c5.63,0,7.68,2,7.69,7.6q0,33,0,66.1c0,1.37.07,2.73.12,4.1h11.72l.12-79.94c0-5.11-.06-10.22,0-15.32.06-4.15,2.36-6.43,6.53-6.47,7.22-.08,14.45,0,21.67,0,5.62,0,7.68,2,7.68,7.61q0,45,0,90c0,1.37.08,2.73.12,4.1h11.73q.06-28.21.11-56.42,0-30.64,0-61.29c0-6.09,1.92-8,8.05-8h19.8c6.13,0,8.06,1.92,8.06,8q0,57,0,114c0,1.24.08,2.49.12,3.73h17.71c0-1.37.11-2.74.12-4.1V187.58c0-6.09,1.92-8,8.05-8,10.35,0,20.69-.08,31,0,2.29,0,3-.52,2.88-2.86a42.3,42.3,0,0,1,.32-8.57c1.74-11.41,8.09-19.79,17.6-26,0-1.54,0-3.08-.05-4.61q-61.52,0-123,.12c-2.1,0-2.67-.55-2.7-2.67-.12-9.35-.19-9.36,9.05-9.35l116.68.08V113.66q-61.52,0-123,.12c-2.1,0-2.67-.54-2.7-2.66-.12-9.36-.19-9.36,9.05-9.35l116.68.07V89.72c-7.22,0-14.44,0-21.66.11-1.79,0-2.24-.5-2.31-2.29-.38-9.72-.44-9.73,9.41-9.72,4.85,0,9.71.05,14.56.08q0-32.91,0-65.8c-15.21,0-30.42-.06-45.62-.17-1.82,0-2.33.53-2.29,2.31.11,5,.1,10,0,15-.06,4.39-2.33,6.7-6.72,6.7q-71.07,0-142.15,0c-4.4,0-6.66-2.31-6.72-6.69-.07-4.62-.2-9.24,0-13.84.16-2.79-.61-3.49-3.43-3.47q-29.18.21-58.36,0c-3.4,0-4.2.84-4.2,4.22Q12,176.79,12,337.47c0,1.24.07,2.48.12,3.73H23.82ZM188.57,77.82c17.83,0,35.65.07,53.47-.07,2.8,0,3.5.66,3.45,3.45-.17,8.59,0,8.59-8.71,8.59H212.11c-9.85,0-19.7-.08-29.54.06-2.45,0-3.08-.63-3.06-3.06C179.56,77.82,179.46,77.82,188.57,77.82Zm-105.34-12a59.9,59.9,0,0,1,60.41,59.77c.15,32.93-26.69,59.83-59.84,59.95-32.58.12-59.74-26.75-59.85-59.21C23.82,93.07,50.41,65.94,83.23,65.85ZM20.4,265.15c0-2.09,3.44-4.2,5.46-6.22q16.64-16.68,33.31-33.34c5.72-5.72,7.61-5.73,13.22-.12,3.09,3.08,6.28,6.07,9.22,9.29,1.63,1.78,2.58,1.85,4.35.05,11.2-11.37,22.52-22.62,33.81-33.9,4.72-4.72,7.15-4.71,11.9,0,3.18,3.16,6.53,6.19,9.46,9.57,2.06,2.38,3.24,1.83,5.16-.12,10.85-11,21.86-21.87,32.72-32.88,1.74-1.76,2.91-2.28,4.58-.07s5.74,3.9,5.5,6.5c-.2,2.23-3.54,4.2-5.56,6.22q-17.17,17.21-34.38,34.39c-1.51,1.52-3,3-5.39,2.92a6.28,6.28,0,0,1-4.92-2.25c-3.6-3.63-7.33-7.14-10.8-10.89-1.74-1.88-2.75-2-4.62-.06-11.19,11.39-22.52,22.63-33.81,33.91-4.56,4.55-7,4.54-11.63,0-3.27-3.26-6.69-6.39-9.73-9.84-2-2.24-3-1.78-4.9.12-10.84,11-21.86,21.86-32.69,32.9-1.91,2-3.06,2.33-4.88,0S20.38,267.2,20.4,265.15Z"/><path class="cls-2" d="M293.45,322.72c.62-4.35-1.3-6.34-5.79-8.08-10.71-4.16-16.45-12.78-18.17-24.11-.34-2.23-.06-3.69,2.71-3.21a9.24,9.24,0,0,0,1.49,0c2.25,0,4.75-.6,6.66.2,2.15.89,1.19,3.9,2,5.88a18.61,18.61,0,0,0,8.76,9.79c1.48.76,2.19.81,2.18-1.22-.05-10.47-.09-20.94,0-31.41a3,3,0,0,0-.12-1,7.28,7.28,0,0,0-.72-1,9.63,9.63,0,0,0-2-.63,29.83,29.83,0,0,1-.64-56.85c2.77-.87,4-1.91,3.47-4.77-.43-2.25.43-3.21,2.8-2.89a14.82,14.82,0,0,0,4.1,0c3.79-.57,6,.37,5.06,4.76-.45,2.05,1.17,2.12,2.4,2.52,12.36,4,19.26,12.62,21.38,25.32.42,2.51,0,3.68-2.91,3.4-2.59-.26-5.47.6-7.77-.26s-1.43-4.27-2.42-6.42a18.35,18.35,0,0,0-10.29-10,2.42,2.42,0,0,0-.39.21v5.68c0,8.48.11,17-.07,25.43-.05,2.73.51,4,3.42,4.86a29.57,29.57,0,0,1,20.59,27.42c.27,13-7.48,24.67-19.66,28.83-3.35,1.14-5,2.5-4.3,6.08a5.48,5.48,0,0,1,0,1.51c.08.12.17.24.26.35,11.49,0,23,0,34.49,0,4.73,0,7.19-2.54,7.2-7.4q0-62.09,0-124.17c-1.12,0-2.23-.12-3.35-.12-35.53,0-71.06,0-106.59-.08-3.12,0-3.87.75-3.86,3.86.14,28,.07,56.1.09,84.15q0,21.88.12,43.76l59.55,0A5.39,5.39,0,0,0,293.45,322.72Z"/><path class="cls-3" d="M289.87,347.13c-20.32.12-40.65.08-61,.06-4.74,0-6.28-1.26-7.55-6a4.57,4.57,0,0,1-3.78,1.15c-4.67-.29-9.45,1-14-.87-1.26,4.49-2.82,5.7-7.4,5.71q-10.6,0-21.19,0c-4.6,0-6.17-1.25-7.42-5.77a16.82,16.82,0,0,1-11.88.08c-1.26,4.47-2.82,5.68-7.4,5.69q-10.59,0-21.19,0c-4.6,0-6.16-1.25-7.42-5.76a17,17,0,0,1-11.87.08c-1.27,4.46-2.83,5.67-7.4,5.68q-10.6,0-21.19,0c-4.6,0-6.17-1.24-7.42-5.75a17.47,17.47,0,0,1-11.89.1c-1.26,4.44-2.83,5.64-7.39,5.65q-10.59,0-21.19,0c-4.59,0-6.16-1.24-7.41-5.73-3.95,1.33-7.89,1.66-11.79-.26,0,4.61.14,9.24-.2,13.83-.25,3.4.8,4.23,4.2,4.22q134.3-.15,268.58-.08c8.67,0,8.52,0,8.7-8.63C293.44,347.66,292.59,347.12,289.87,347.13Z"/><path class="cls-3" d="M60,341.2c0,.12-.07.22-.1.34a17.47,17.47,0,0,0,11.89-.1,2.17,2.17,0,0,0-.07-.24Z"/><path class="cls-3" d="M23.89,341.46c0-.09-.05-.17-.07-.26H12.1C16,343.12,19.94,342.79,23.89,341.46Z"/><path class="cls-3" d="M203.55,341.48c4.57,1.84,9.35.58,14,.87a4.57,4.57,0,0,0,3.78-1.15H203.64Z"/><path class="cls-3" d="M107.87,341.2l-.09.31a17,17,0,0,0,11.87-.08l-.06-.23Z"/><path class="cls-3" d="M155.75,341.2l-.09.3a16.82,16.82,0,0,0,11.88-.08l-.06-.22Z"/><path class="cls-4" d="M359.14,200.22c0-9,0-9-9-8.54v124c0,8-3,10.74-11.13,10.6-10.46-.18-20.92,0-31.38-.06-2,0-4.5.39-4.62-2.85l-9.65-.16h-.26c-.18.25-.37.5-.59.75a13.91,13.91,0,0,1-4.8.49q-24.24,0-48.49,0c-2,0-4,.34-5.67-1.19,0,2.74.13,5.5-.18,8.21-.37,3.16.76,3.85,3.85,3.84q59.06-.17,118.13,0c3.11,0,3.85-.75,3.85-3.86Q359,265.83,359.14,200.22Z"/><path class="cls-4" d="M239.24,324.44q24.24.06,48.49,0a13.91,13.91,0,0,0,4.8-.49c.22-.25.41-.5.59-.75l-59.55,0C235.22,324.78,237.29,324.44,239.24,324.44Z"/><path class="cls-3" d="M282.51,74.06a6.86,6.86,0,0,1-.76,3.6,5.39,5.39,0,0,1-.45.4V89.51a3.06,3.06,0,0,1,.29.21,17.37,17.37,0,0,1-.1,12.24l-.19.1v11.37l.09,0a16.26,16.26,0,0,1,.13,12.39l-.22.13v11.41c1.32,1.58,1.17,3.18.05,4.81,2.89-1.11,5.69-2.62,8.68-3.19s3.33-1.89,3.32-4.47c-.08-37.12,0-74.25-.09-111.37,0-3.68,1.67-8.89-.72-10.64s-7.38-.44-11.23-.45c1.2,1.16,1.2,2.69,1.2,4.17Q282.59,45.16,282.51,74.06Z"/><path class="cls-3" d="M281.3,137.41v.2c0,1.53,0,3.07.05,4.61C282.47,140.59,282.62,139,281.3,137.41Z"/><path class="cls-3" d="M281.49,102a17.37,17.37,0,0,0,.1-12.24,3.06,3.06,0,0,0-.29-.21v.21h0v12.34Z"/><path class="cls-3" d="M281.52,125.87a16.26,16.26,0,0,0-.13-12.39l-.09,0v.23h0V126Z"/><path class="cls-3" d="M281.3,78.06a5.39,5.39,0,0,0,.45-.4,6.86,6.86,0,0,0,.76-3.6q.09-28.9,0-57.79c0-1.48,0-3-1.2-4.17q0,32.89,0,65.8Z"/><path class="cls-5" d="M95.46,23.94H215.33c6.14,0,6.14,0,6.14-6.29,0-5.87,0-5.87-6-5.55C214.6,16.6,213,18,208.4,18q-59.25,0-118.49,0C89.6,23.94,89.6,23.94,95.46,23.94Z"/><path class="cls-6" d="M96.34,16.79q54.09-.06,108.19,0c4.53,0,8.37-.65,10.94-4.73-1.49,0-3-.12-4.48-.12H95.47c-5.87,0-5.87,0-5.56,6C91.82,16.29,94.16,16.79,96.34,16.79Z"/><path class="cls-6" d="M215.47,12.1c-2.57,4.08-6.41,4.75-10.94,4.73q-54.09-.18-108.19,0c-2.18,0-4.52-.5-6.43,1.15q59.24,0,118.49,0C213,18,214.6,16.6,215.47,12.1Z"/><path class="cls-4" d="M348.36,196.62q0,59,0,118c0,7-2.77,9.74-9.74,9.8-9.46.08-18.93,0-28.39,0a12.94,12.94,0,0,1-4.06-.42,7.4,7.4,0,0,1-.69-.81h-.29l-1.66.12c1.28,1.49,3.11,1.67,5,1.69,10.71.12,21.43,0,32.14.06,5.21,0,7.95-2.83,8.29-8.1.11-1.61.06-3.24.06-4.86q0-57,0-114c0-2.19-.51-4.53,1.15-6.45h-3C348.54,193.09,348.36,194.9,348.36,196.62Z"/><path class="cls-4" d="M340,323.25c-11.5,0-23,0-34.49,0a7.4,7.4,0,0,0,.69.81,12.94,12.94,0,0,0,4.06.42c9.46,0,18.93.07,28.39,0,7-.06,9.73-2.8,9.74-9.8q.06-59,0-118c0-1.72.18-3.53-1.2-4.94q0,62.08,0,124.17C347.16,320.71,344.7,323.24,340,323.25Z"/><path class="cls-4" d="M349,198.13q-.06,57,0,114c0,1.62,0,3.25-.06,4.86-.34,5.27-3.08,8.12-8.29,8.1-10.71,0-21.43.06-32.14-.06-1.85,0-3.68-.2-5-1.69l-.5,0c.12,3.24,2.58,2.84,4.62,2.85,10.46,0,20.92-.12,31.38.06,8.09.14,11.13-2.56,11.13-10.6v-124C348.5,193.6,349,195.94,349,198.13Z"/><path class="cls-3" d="M281.25,158.39l.06,21.07c3.23,0,6.45,0,9.67.15,1.7.08,2.38-.33,2.36-2.21-.1-8.8,0-17.6,0-26.78C288.29,152.07,284.18,154.28,281.25,158.39Z"/><path class="cls-7" d="M281.25,158.39c-4.2,4.2-5.63,9.52-5.88,15.22-.27,6.17-.18,6.17,5.94,5.85-.23-.28-.59-.52-.63-.9C280,171.82,279.27,165.06,281.25,158.39Z"/><path class="cls-7" d="M280.68,178.56c0,.38.4.62.63.9l-.06-21.07C279.27,165.06,280,171.82,280.68,178.56Z"/><path d="M83.8,185.57c33.15-.12,60-27,59.84-59.95A59.9,59.9,0,0,0,83.23,65.85C50.41,65.94,23.82,93.07,24,126.36,24.06,158.82,51.22,185.69,83.8,185.57ZM89.74,80.82c0-2.06.61-2.46,2.55-2.23,18,2.19,36.59,20.84,38.64,38.72.24,2.11-.45,2.48-2.34,2.45-6.09-.1-12.19,0-18.28,0-5.85,0-11.7-.07-17.54,0-2.07,0-3.08-.2-3-2.74C89.87,105,89.83,92.89,89.74,80.82Zm-15.4-2.08c2.91-.58,3.62.24,3.54,3.1-.2,7.1-.07,14.21-.07,21.32s0,14.21,0,21.32c0,5.08,2.17,7.2,7.34,7.21,14.09,0,28.17.1,42.26-.07,3.35,0,3.91.93,3.2,4-5.31,23.33-25,38.59-49.24,37.94-22.19-.59-41.25-17.9-44.9-40.79C32.49,107.84,49.41,83.74,74.34,78.74Z"/><path d="M202.33,334.51q0-53.68,0-107.36c0-9.8-.64-10.44-10.33-10.45-5.11,0-10.22,0-15.33,0-6.27,0-7.79,1.5-7.83,7.69-.07,11.22,0,22.45,0,33.67q0,38.34,0,76.68c0,2.21.37,4.52-.95,6.56l-.23.08c2.55,4.35,6.56,5.11,11.26,4.8a103.15,103.15,0,0,1,13.39,0c4.68.31,8.67-.44,11.23-4.73l-.13,0C201.88,339.28,202.33,336.84,202.33,334.51Zm-14.76.74a12,12,0,0,0-2.24,0c-6,0-6,0-5.64-6l-.12-78c0-6,0-11.95,0-17.93s0-5.94,6-5.64c.37,0,.74-.09,1.11-.1,4.9-.11,4.9-.11,4.9,4.62,0,33,0,66,.07,99C191.62,334.33,191,335.88,187.57,335.25Z"/><path d="M167.83,341.31c1.32-2,.95-4.35.95-6.56q0-38.34,0-76.68c0-11.22-.05-22.45,0-33.67,0-6.19,1.56-7.64,7.83-7.69,5.11,0,10.22,0,15.33,0,9.69,0,10.33.65,10.33,10.45q0,53.68,0,107.36c0,2.33-.45,4.77,1,6.9l.13,0,.16-.26c0-1.24-.12-2.49-.12-3.73q0-57,0-114c0-6.07-1.93-8-8.06-8h-19.8c-6.13,0-8.05,1.9-8.05,8q0,30.64,0,61.29,0,28.22-.11,56.42a1.22,1.22,0,0,0,.12.19Z"/><path d="M192.25,346.19a103.15,103.15,0,0,0-13.39,0c-4.7.31-8.71-.45-11.26-4.8l-.06,0c1.25,4.52,2.82,5.76,7.42,5.77q10.59,0,21.19,0c4.58,0,6.14-1.22,7.4-5.71l-.07,0C200.92,345.75,196.93,346.5,192.25,346.19Z"/><path d="M167.48,341.2l.06.22.06,0A1.22,1.22,0,0,1,167.48,341.2Z"/><path d="M203.48,341.46l.07,0,.09-.28Z"/><path d="M154.45,335q0-42.22,0-84.44c0-9-.86-9.87-9.76-9.88-5.23,0-10.46,0-15.69,0-6.64,0-8,1.43-8.06,8.2,0,26.65,0,53.3-.06,80,0,4.17.92,8.47-.92,12.53l-.22.07c2.55,4.34,6.56,5.1,11.26,4.79a103,103,0,0,1,13.38,0c4.68.31,8.67-.44,11.22-4.72l-.06,0C154.05,339.48,154.45,337.16,154.45,335Zm-14.42.29a16.36,16.36,0,0,0-2.62,0c-5.92,0-5.92,0-5.6-6q-.06-37.73-.15-75.45c0-1.71.4-2.58,2.26-2.37,1.24.14,2.49.1,3.73.14a6.23,6.23,0,0,1,.74-.09c5.27-.16,5.27-.16,5.27,4.95,0,25.06,0,50.13.06,75.19C143.74,334.53,143,335.71,140,335.25Z"/><path d="M119.94,341.33c1.84-4.06.9-8.36.92-12.53.1-26.65,0-53.3.06-80,0-6.77,1.42-8.16,8.06-8.2,5.23,0,10.46,0,15.69,0,8.9,0,9.76.87,9.76,9.88q0,42.22,0,84.44c0,2.2-.4,4.52,1.07,6.49l.06,0a2.46,2.46,0,0,0,.17-.27c0-1.37-.12-2.73-.12-4.1q0-45,0-90c0-5.58-2.06-7.6-7.68-7.61-7.22,0-14.45-.06-21.67,0-4.17,0-6.47,2.32-6.53,6.47-.09,5.1,0,10.21,0,15.32l-.12,79.94.13.2Z"/><path d="M144.36,346.19a103,103,0,0,0-13.38,0c-4.7.31-8.71-.45-11.26-4.79l-.07,0c1.26,4.51,2.82,5.75,7.42,5.76q10.6,0,21.19,0c4.58,0,6.14-1.22,7.4-5.69l-.08,0C153,345.75,149,346.5,144.36,346.19Z"/><path d="M155.58,341.47l.08,0,.09-.3A2.46,2.46,0,0,1,155.58,341.47Z"/><path d="M119.59,341.2l.06.23.07,0Z"/><path d="M25.78,271.38c1.82,2.29,3,1.91,4.88,0,10.83-11,21.85-21.88,32.69-32.9,1.87-1.9,2.93-2.36,4.9-.12,3,3.45,6.46,6.58,9.73,9.84,4.58,4.56,7.07,4.57,11.63,0,11.29-11.28,22.62-22.52,33.81-33.91,1.87-1.91,2.88-1.82,4.62.06,3.47,3.75,7.2,7.26,10.8,10.89a6.28,6.28,0,0,0,4.92,2.25c2.36.06,3.88-1.4,5.39-2.92q17.19-17.2,34.38-34.39c2-2,5.36-4,5.56-6.22.24-2.6-3.73-4.17-5.5-6.5s-2.84-1.69-4.58.07c-10.86,11-21.87,21.86-32.72,32.88-1.92,2-3.1,2.5-5.16.12-2.93-3.38-6.28-6.41-9.46-9.57-4.75-4.74-7.18-4.75-11.9,0-11.29,11.28-22.61,22.53-33.81,33.9-1.77,1.8-2.72,1.73-4.35-.05-2.94-3.22-6.13-6.21-9.22-9.29-5.61-5.61-7.5-5.6-13.22.12q-16.66,16.66-33.31,33.34c-2,2-5.44,4.13-5.46,6.22S24,269.16,25.78,271.38Z"/><path d="M106.57,335.37q0-30.47,0-60.92a39.42,39.42,0,0,0-.11-4.48c-.4-3.52-2-5.2-5.54-5.3-7.47-.21-15-.24-22.41,0-3.42.12-4.91,1.74-5.34,5.08a37.52,37.52,0,0,0-.13,4.86q0,30.27,0,60.54c0,2.09.32,4.26-1,6.17l-.2.07c2.55,4.32,6.55,5.08,11.25,4.77a103.15,103.15,0,0,1,13.39,0c4.67.31,8.65-.44,11.21-4.7h0C106.22,339.64,106.58,337.45,106.57,335.37Zm-14.14-.12a18.5,18.5,0,0,0-3,0c-5.84,0-5.84,0-5.53-6,0-17.18-.06-34.36-.15-51.54,0-1.73.43-2.55,2.28-2.33,1.23.14,2.48.1,3.72.14l.37-.06c5.63-.22,5.63-.22,5.63,5.22,0,17-.06,34.05.06,51.08C95.85,334.38,95.38,335.75,92.43,335.25Z"/><path d="M72,341.35c1.28-1.91,1-4.08,1-6.17q0-30.27,0-60.54a37.52,37.52,0,0,1,.13-4.86c.43-3.34,1.92-5,5.34-5.08,7.46-.27,14.94-.24,22.41,0,3.59.1,5.14,1.78,5.54,5.3a39.42,39.42,0,0,1,.11,4.48q0,30.46,0,60.92c0,2.08-.35,4.27,1.09,6.11h0l.18-.29c-.05-1.37-.12-2.73-.12-4.1q0-33,0-66.1c0-5.57-2.06-7.59-7.69-7.6-6.6,0-13.19,0-19.79,0s-8.42,1.77-8.43,8.35q-.06,34.74-.13,69.46l.14.22Z"/><path d="M96.48,346.19a103.15,103.15,0,0,0-13.39,0c-4.7.31-8.7-.45-11.25-4.77l-.07,0c1.25,4.51,2.82,5.74,7.42,5.75q10.59,0,21.19,0c4.57,0,6.13-1.22,7.4-5.68l-.09,0C105.13,345.75,101.15,346.5,96.48,346.19Z"/><path d="M107.69,341.49l.09,0,.09-.31Z"/><path d="M71.7,341.2a2.17,2.17,0,0,1,.07.24l.07,0Z"/><path d="M58.71,335.83c0-11.07,0-22.13,0-33.2,0-6.75-1.4-8.1-8.09-8.13-6.22,0-12.44-.08-18.65,0-5.07.09-6.72,1.69-6.78,6.77-.13,11.44,0,22.88-.06,34.32,0,2,.27,4-1,5.78l-.15.05c2.56,4.3,6.56,5.06,11.25,4.75a103,103,0,0,1,13.38,0c4.68.31,8.67-.44,11.22-4.71C58.42,339.8,58.72,337.76,58.71,335.83Zm-13.45-.58a30.76,30.76,0,0,0-3.72,0c-5.82,0-5.82,0-5.5-6,0-6.71.09-13.44-.2-20.14-.13-3.09.67-4.38,3.81-3.8a16.59,16.59,0,0,0,2.23.14,6.29,6.29,0,0,1,.74-.11c5.27-.14,5.27-.14,5.27,5.24,0,7.33-.08,14.66,0,22C48,334.61,47.44,335.52,45.26,335.25Z"/><path d="M24.11,341.39c1.26-1.77,1-3.82,1-5.78,0-11.44-.07-22.88.06-34.32.06-5.08,1.71-6.68,6.78-6.77,6.21-.1,12.43,0,18.65,0,6.69,0,8.06,1.38,8.09,8.13,0,11.07,0,22.13,0,33.2,0,1.93-.29,4,1.1,5.65.06-.1.12-.18.17-.28q-.06-20.15-.13-40.29c0-5.55-2.07-7.57-7.69-7.58-6.72,0-13.44,0-20.15,0-6.13,0-8,1.91-8.07,8l-.12,39.92a1.88,1.88,0,0,1,.14.24Z"/><path d="M59.81,341.48c-2.55,4.27-6.54,5-11.22,4.71a103,103,0,0,0-13.38,0c-4.69.31-8.69-.45-11.25-4.75l-.07,0c1.25,4.49,2.82,5.72,7.41,5.73q10.6,0,21.19,0c4.56,0,6.13-1.21,7.39-5.65h0S59.83,341.49,59.81,341.48Z"/><path d="M59.81,341.48s0,0,0,0h0c0-.12.07-.22.1-.34C59.93,341.3,59.87,341.38,59.81,341.48Z"/><path d="M23.82,341.2c0,.09.05.17.07.26l.07,0A1.88,1.88,0,0,0,23.82,341.2Z"/><path d="M281.19,102.12c-2.06,1.22-4.38.84-6.6.84q-54.43,0-108.86,0c-1.12,0-2.24,0-3.37,0-5.07,0-7,2.87-5.3,7.7a2.56,2.56,0,0,0,2.56,1.74,41.87,41.87,0,0,0,4.48.1q55.18,0,110.35,0c2.27,0,4.62-.38,6.74.84A14,14,0,0,1,281.19,102.12Z"/><path d="M281.19,113.38c-2.12-1.22-4.47-.83-6.74-.84q-55.17,0-110.35,0a41.87,41.87,0,0,1-4.48-.1,2.56,2.56,0,0,1-2.56-1.74c-1.68-4.83.23-7.65,5.3-7.7,1.13,0,2.25,0,3.37,0q54.44,0,108.86,0c2.22,0,4.54.38,6.6-.84,0-.09.07-.18.11-.28l-116.68-.07c-9.24,0-9.17,0-9.05,9.35,0,2.12.6,2.67,2.7,2.66q61.51-.12,123-.12h0C281.26,113.57,281.23,113.47,281.19,113.38Z"/><path d="M281.19,113.38l.11.05V102.06l-.11.06A14,14,0,0,0,281.19,113.38Z"/><path d="M281.3,102.06v-.22c0,.1-.07.19-.11.28Z"/><path d="M281.3,113.43l-.11-.05c0,.09.07.19.11.28h0Z"/><path d="M281.19,126.07c-1.8,1.11-3.84.83-5.81.83q-55.15,0-110.3,0c-1.12,0-2.25,0-3.37,0-4.47.1-4.9.54-4.86,5,0,4.14.43,4.54,5.28,4.54q56.26,0,112.54,0c2.19,0,4.46-.34,6.52.83A14,14,0,0,1,281.19,126.07Z"/><path d="M274.67,136.49q-56.27,0-112.54,0c-4.85,0-5.25-.4-5.28-4.54,0-4.45.39-4.89,4.86-5,1.12,0,2.25,0,3.37,0q55.14,0,110.3,0c2,0,4,.28,5.81-.83,0-.09.07-.19.11-.28l-116.68-.08c-9.24,0-9.17,0-9.05,9.35,0,2.12.6,2.67,2.7,2.67q61.51-.14,123-.12c0-.1-.07-.2-.11-.29C279.13,136.15,276.86,136.49,274.67,136.49Z"/><path d="M281.19,137.32l.06,0,.05.06V126l-.11.07A14,14,0,0,0,281.19,137.32Z"/><path d="M281.25,137.35l-.06,0c0,.09.07.19.11.29v-.2Z"/><path d="M281.3,126v-.21c0,.09-.07.19-.11.28Z"/><path d="M182.57,89.85c9.84-.14,19.69-.06,29.54-.06h24.67c8.68,0,8.54,0,8.71-8.59,0-2.79-.65-3.48-3.45-3.45-17.82.14-35.64.07-53.47.07-9.11,0-9,0-9.06,9C179.49,89.22,180.12,89.89,182.57,89.85Z"/><path d="M281.21,78.14c-1.27.93-2.84.79-4.34.82-4.85.07-9.71-.07-14.56.06-3.44.09-3.77.6-3.76,4.85s.3,4.65,3.86,4.73c4.73.11,9.46,0,14.19.05,1.57,0,3.19-.12,4.59.79A14.06,14.06,0,0,1,281.21,78.14Z"/><path d="M281.19,89.44c-1.4-.91-3-.77-4.59-.79-4.73-.06-9.46.06-14.19-.05-3.56-.08-3.86-.53-3.86-4.73s.32-4.76,3.76-4.85c4.85-.13,9.71,0,14.56-.06,1.5,0,3.07.11,4.34-.82l.09-.24c-4.85,0-9.71-.07-14.56-.08-9.85,0-9.79,0-9.41,9.72.07,1.79.52,2.32,2.31,2.29,7.22-.12,14.44-.09,21.66-.11h0C281.26,89.62,281.23,89.53,281.19,89.44Z"/><path d="M281.19,89.44l.11.07V78.06l-.09.08A14.06,14.06,0,0,0,281.19,89.44Z"/><path d="M281.3,89.51l-.11-.07c0,.09.07.18.11.28h0Z"/><path d="M281.3,78.06V77.9l-.09.24Z"/><path d="M303.18,322.92c.05.07.1.11.15.18a1.42,1.42,0,0,1,1.86.12c0-.11,0-.23,0-.35-2.08-3.05-1.12-6.42,2.64-7.88,7.22-2.79,13.14-7,16.8-14.05,7.76-15,2.33-32.64-13.16-39.39-6.15-2.67-7.73-6-7.35-12.09.45-7.33.06-14.71.13-22.06,0-1.5-.42-3.4,1-4.34v-.39l.39.18.13-.07c1.79-.69,3.36.61,4.74,1.66a20.17,20.17,0,0,1,7.31,11c.74,2.68,7.44,4.33,9.46,2.41,1.08-1,.59-2.34.34-3.53-2.18-10.6-8.28-18-18.36-21.9-2.87-1.12-5.24-2.27-5.16-5.89,0-1.35-1-1.89-2.29-1.95-1.62-.07-3.24,0-4.86,0s-2.62.86-2.61,2.5c0,3.12-2,4.2-4.53,5.13-9.7,3.6-16.07,10.41-18.53,20.46-3.43,13.94,3.3,27.54,16.95,33.22a11.38,11.38,0,0,1,4.26,2.76,1.62,1.62,0,0,1,.72,1,10.31,10.31,0,0,1,1.18,6.07c-.36,8.09-.06,16.21-.12,24.31,0,1.46.27,3.23-1.37,4s-2.93-.27-4.14-1.13a19.31,19.31,0,0,1-7.67-10.29c-1.16-3.72-6.13-5.71-9.44-3.91-1.49.81-1.05,2.13-.83,3.31a28.27,28.27,0,0,0,14.62,20.61,53.27,53.27,0,0,0,5.43,2.49c3.51,1.48,4.44,4.59,2.56,7.67,0,.17,0,.33-.07.5C296.59,321.43,299.88,321.83,303.18,322.92Zm4.18-51.55c5.52,2.44,9.88,9.34,9.87,16s-4.36,13.53-9.89,16c-1.8.8-2.11.26-2.09-1.43.06-5,0-9.95,0-14.92,0-4.73,0-9.46,0-14.18C305.23,271,305.58,270.59,307.36,271.37Zm-14.06-45V255.8a17.17,17.17,0,0,1,0-32.73Z"/><path d="M290.89,315.05a53.27,53.27,0,0,1-5.43-2.49A28.27,28.27,0,0,1,270.84,292c-.22-1.18-.66-2.5.83-3.31,3.31-1.8,8.28.19,9.44,3.91a19.31,19.31,0,0,0,7.67,10.29c1.21.86,2.62,1.83,4.14,1.13s1.36-2.53,1.37-4c.06-8.1-.24-16.22.12-24.31a10.31,10.31,0,0,0-1.18-6.07,3,3,0,0,1,.12,1c-.12,10.47-.08,20.94,0,31.41,0,2-.7,2-2.18,1.22a18.61,18.61,0,0,1-8.76-9.79c-.84-2,.12-5-2-5.88-1.91-.8-4.41-.19-6.66-.2a9.24,9.24,0,0,1-1.49,0c-2.77-.48-3.05,1-2.71,3.21,1.72,11.33,7.46,20,18.17,24.11,4.49,1.74,6.41,3.73,5.79,8.08C295.33,319.64,294.4,316.53,290.89,315.05Z"/><path d="M288.25,265.88c-13.65-5.68-20.38-19.28-16.95-33.22,2.46-10,8.83-16.86,18.53-20.46,2.5-.93,4.54-2,4.53-5.13,0-1.64.95-2.47,2.61-2.5s3.24,0,4.86,0c1.27.06,2.33.6,2.29,1.95-.08,3.62,2.29,4.77,5.16,5.89,10.08,3.92,16.18,11.3,18.36,21.9.25,1.19.74,2.51-.34,3.53-2,1.92-8.72.27-9.46-2.41a20.17,20.17,0,0,0-7.31-11c-1.38-1.05-2.95-2.35-4.74-1.66l-.13.07a18.35,18.35,0,0,1,10.29,10c1,2.15,0,5.52,2.42,6.42s5.18,0,7.77.26c2.87.28,3.33-.89,2.91-3.4-2.12-12.7-9-21.29-21.38-25.32-1.23-.4-2.85-.47-2.4-2.52,1-4.39-1.27-5.33-5.06-4.76a14.82,14.82,0,0,1-4.1,0c-2.37-.32-3.23.64-2.8,2.89.54,2.86-.7,3.9-3.47,4.77a29.83,29.83,0,0,0,.64,56.85,9.63,9.63,0,0,1,2,.63A11.38,11.38,0,0,0,288.25,265.88Z"/><path d="M304.28,227.4c-.07,7.35.32,14.73-.13,22.06-.38,6.06,1.2,9.42,7.35,12.09,15.49,6.75,20.92,24.39,13.16,39.39C321,308,315.08,312.2,307.86,315c-3.76,1.46-4.72,4.83-2.64,7.88a5.48,5.48,0,0,0,0-1.51c-.71-3.58.95-4.94,4.3-6.08,12.18-4.16,19.93-15.82,19.66-28.83A29.57,29.57,0,0,0,308.62,259c-2.91-.88-3.47-2.13-3.42-4.86.18-8.47.07-16.95.07-25.43v-5.68C303.86,224,304.3,225.9,304.28,227.4Z"/><path d="M303.18,322.92c-3.3-1.09-6.59-1.49-9.8.3l9.65.16a1.13,1.13,0,0,1,.3-.28C303.28,323,303.23,323,303.18,322.92Z"/><path d="M303.33,323.1l.2.24,1.66-.12A1.42,1.42,0,0,0,303.33,323.1Z"/><path d="M303.33,323.1a1.13,1.13,0,0,0-.3.28l.5,0Z"/><path class="cls-8" d="M81.38,173.59c24.21.65,43.93-14.61,49.24-37.94.71-3.1.15-4.07-3.2-4-14.09.17-28.17.09-42.26.07-5.17,0-7.31-2.13-7.34-7.21,0-7.11,0-14.22,0-21.32s-.13-14.22.07-21.32c.08-2.86-.63-3.68-3.54-3.1-24.93,5-41.85,29.1-37.86,54.06C40.13,155.69,59.19,173,81.38,173.59Z"/><path class="cls-9" d="M92.77,119.76c5.84-.11,11.69,0,17.54,0,6.09,0,12.19-.06,18.28,0,1.89,0,2.58-.34,2.34-2.45-2.05-17.88-20.65-36.53-38.64-38.72-1.94-.23-2.56.17-2.55,2.23.09,12.07.13,24.14,0,36.2C89.69,119.56,90.7,119.8,92.77,119.76Z"/><path class="cls-10" d="M191.54,232.11c0-4.73,0-4.73-4.9-4.62-.37,0-.74.07-1.11.1q0,47.28,0,94.56c0,4.63-1.37,6.22-5.86,7.06-.31,6-.31,6,5.64,6a12,12,0,0,1,2.24,0c3.42.63,4.05-.92,4-4.1C191.5,298.13,191.54,265.12,191.54,232.11Z"/><path class="cls-11" d="M184.43,318.29c-.13-28.08-.07-56.17,0-84.26,0-2.18-.5-4.51,1.14-6.44-6-.3-6-.3-6,5.64s0,12,0,17.93l.12,78C183.81,326.67,184.46,322.81,184.43,318.29Z"/><path class="cls-11" d="M185.55,322.15q0-47.28,0-94.56c-1.64,1.93-1.13,4.26-1.14,6.44,0,28.09-.09,56.18,0,84.26,0,4.52-.62,8.38-4.74,10.92C184.18,328.37,185.55,326.78,185.55,322.15Z"/><path class="cls-11" d="M143.66,256.4c0-5.11,0-5.11-5.27-4.95a6.23,6.23,0,0,0-.74.09q0,35.31,0,70.62c0,4.62-1.37,6.21-5.85,7.06-.32,6-.32,6,5.6,6a16.36,16.36,0,0,1,2.62,0c2.95.46,3.71-.72,3.69-3.66C143.61,306.53,143.66,281.46,143.66,256.4Z"/><path class="cls-5" d="M136.56,318.32c-.15-20.24-.08-40.48,0-60.72,0-2.06-.44-4.26,1.13-6.06-1.24,0-2.49,0-3.73-.14-1.86-.21-2.27.66-2.26,2.37q.12,37.72.15,75.45C135.93,326.69,136.6,322.84,136.56,318.32Z"/><path class="cls-5" d="M137.66,322.16q0-35.31,0-70.62c-1.57,1.8-1.13,4-1.13,6.06,0,20.24-.11,40.48,0,60.72,0,4.52-.63,8.37-4.75,10.9C136.29,328.37,137.66,326.78,137.66,322.16Z"/><path class="cls-5" d="M95.77,280.65c0-5.44,0-5.44-5.63-5.22l-.37.06q0,23.34,0,46.67c0,4.62-1.36,6.2-5.86,7.06-.31,6-.31,6,5.53,6a18.5,18.5,0,0,1,3,0c2.95.5,3.42-.87,3.4-3.52C95.71,314.7,95.77,297.68,95.77,280.65Z"/><path class="cls-6" d="M88.7,318.37c-.2-12.52-.09-25.05,0-37.57,0-1.83-.3-3.77,1.12-5.31-1.24,0-2.49,0-3.72-.14-1.85-.22-2.29.6-2.28,2.33.09,17.18.11,34.36.15,51.54C88.06,326.72,88.78,322.9,88.7,318.37Z"/><path class="cls-6" d="M89.78,322.16q0-23.34,0-46.67c-1.42,1.54-1.11,3.48-1.12,5.31,0,12.52-.15,25.05,0,37.57.08,4.53-.64,8.35-4.78,10.85C88.42,328.36,89.77,326.78,89.78,322.16Z"/><path class="cls-6" d="M47.89,310.55c0-5.38,0-5.38-5.27-5.24a6.29,6.29,0,0,0-.74.11c0,5.71,0,11.43,0,17.14,0,4.23-1.49,5.83-5.85,6.66-.32,6-.32,6,5.5,6a30.76,30.76,0,0,1,3.72,0c2.18.27,2.7-.64,2.67-2.71C47.81,325.21,47.89,317.88,47.89,310.55Z"/><path class="cls-12" d="M40.87,318.51c-.24-3.07-.08-6.17,0-9.26,0-1.36,0-2.75,1-3.83a16.59,16.59,0,0,1-2.23-.14c-3.14-.58-3.94.71-3.81,3.8.29,6.7.16,13.43.2,20.14C40.33,326.86,41.22,323.05,40.87,318.51Z"/><path class="cls-12" d="M41.89,322.56c0-5.71,0-11.43,0-17.14-1.05,1.08-1,2.47-1,3.83-.05,3.09-.21,6.19,0,9.26.35,4.54-.54,8.35-4.83,10.71C40.4,328.39,41.86,326.79,41.89,322.56Z"/><path class="cls-2" d="M281.33,239.45a16.87,16.87,0,0,0,12,16.35V223.07A16.92,16.92,0,0,0,281.33,239.45Z"/><path class="cls-2" d="M305.27,287c0,5,0,10,0,14.92,0,1.69.29,2.23,2.09,1.43,5.53-2.44,9.89-9.34,9.89-16s-4.35-13.53-9.87-16c-1.78-.78-2.13-.33-2.11,1.41C305.31,277.5,305.27,282.23,305.27,287Z"/></g></g></svg>