<svg xmlns="http://www.w3.org/2000/svg" viewBox="0 0 668.56 804.85"><defs><style>.cls-1{fill:#fbfbfb;}.cls-2{fill:#382621;}.cls-3{fill:#1f1510;}.cls-4{fill:#090909;}.cls-5{fill:#4d392f;}.cls-6{fill:#e5e5e5;}.cls-7{fill:#69ba45;}.cls-8{fill:#f8f9f9;}.cls-9{fill:#20bfea;}.cls-10{fill:#f5eb2b;}.cls-11{fill:#eb127b;}.cls-12{fill:#d36b29;}.cls-13{fill:#fff;}</style></defs><g id="Capa_2" data-name="Capa 2"><g id="Capa_1-2" data-name="Capa 1"><rect class="cls-1" x="163.2" y="39.87" width="408.9" height="296"/><path class="cls-2" d="M74.88,3.82C55.09,7,41.19,22.77,40.78,43.36c-.4,19.81,0,39.64-.19,59.46,0,3.74,1.55,4.37,4.78,4.34q23.49-.18,47,0c10.66.09,18.46,6.77,19,15.9.52,9.8-7,17.77-17.32,17.88-16,.17-32,.21-48,0-4.09,0-5.63,1.11-5.57,5.22.14,9.49.13,19-.09,28.47-.08,3.5,1.08,4.54,4.56,4.5,15.83-.18,31.65-.14,47.47-.07,11,0,18.61,6.75,18.94,16.36s-7,17.12-18,17.3q-23.73.41-47.47,0c-4.26-.07-5.49,1.4-5.45,5.33q.18,15.24,0,30.48c0,3.92,1.19,5.49,5.47,5.43,15.82-.25,31.65-.21,47.47,0,11,.13,18.24,7.46,18,17.74-.19,6.95-5.7,13.52-12.86,15.35-3.59.92-7.26.79-10.92.79-14.33,0-28.65.1-43-.07-3.34,0-4.25,1-4.19,4.26.19,11,.25,22,0,33-.06,3.21,1,3.91,3.93,3.89,15-.12,30-.08,45,0,1.73,0,3.71-.81,5.13,1l-2.25.75-57-.09,0-1.42,3-.22c1.38-.62,1.1-1.66.68-2.73l-.57-4.16c.08-10.48.11-21,.29-31.44.06-3.74-2.33-2.75-4.39-2.58l-16,0-2.06-.2c-4.41-1.05-8.66-2.47-11.73-6.06-4.24-5-5.72-10.65-3.1-16.72,3-6.86,8.59-10.51,16-10.88,5.81-.29,11.66-.28,17.48,0,3.23.16,3.88-1.15,3.86-4-.1-11.32-.13-22.65,0-34,0-2.6-.74-3.52-3.35-3.45-5.66.15-11.33.24-17,0-14.46-.53-22.69-13.84-15.7-25.23,3.56-5.79,9.26-7.78,15.59-8.58l.48.13.48-.12h15l1.94,0,1,.05c1.51,0,1.35-1.16,1.35-2.12q-.1-15.44-.23-30.87a8,8,0,0,0-.15-4.93l0-1.78,5,0c1.13,1,2.5.74,3.8.74H89.33c1.31,0,2.68.25,3.81-.73,11.11-1.22,17.43-8.06,16-17.35-1.15-7.64-8.11-12.71-17.75-12.72-23.61,0-47.23,0-70.85,0a23.38,23.38,0,0,0-12.78,3.48l-1.17-1.14c3.84-3.36,8.49-4,13.33-4.09,5.74-.15,11.5.48,17.22-.39,2.58-.92,1.27-3.11,1.29-4.64.23-21.71.33-43.42.46-65.14C42.88,19.71,52.77,7.71,70.26,2.59a10.62,10.62,0,0,1,4.89-.66c0,.39,0,.77,0,1.16A3.17,3.17,0,0,1,74.88,3.82ZM91.19,286c1.64-.19,3.31-.28,4.93-.6,8.58-1.65,13.87-8.09,13.2-16-.63-7.35-7.14-13.37-15.44-13.43-25.62-.16-51.24-.2-76.86,0a15,15,0,0,0-14.8,16.93c.87,7,7.42,12.5,15.56,12.76,8.47.26,16.95.22,25.43.32A264.24,264.24,0,0,0,91.19,286ZM55.7,210.78c12.64,0,25.29.13,37.93,0,9.94-.13,16.91-8,15.54-17.2C108.05,186.1,101.36,181,92.4,181q-36.42-.06-72.86,0C9.17,181,2,187.16,2.07,196s7.27,14.78,17.7,14.8C31.75,210.8,43.72,210.78,55.7,210.78Z"/><path class="cls-3" d="M616.76,437c-.8-3.12-.29-6.29-.29-9.43q0-96.13,0-192.27c0-1.49-.21-3-.31-4.47l.51-3.49a1.29,1.29,0,0,0,.46-.31,6.64,6.64,0,0,1,.88.12q0,12.42.11,24.85l.15,4.22c-.41,2.59,0,4.34,3.23,4.78a38.51,38.51,0,0,1,8.95,2.37c3.74,1.49,3.8-.48,3.52-3.14.38-.44.76-.89,1.15-1.33l24,6.11L657,266c-1.8,2.14-1.75,3.78,1.21,4.71,7.76,2.46,11.19,7.57,10.18,15.83-.5,4.08-.25,8.26-.34,12.39-1,.9-.89,2.09-.89,3.25v44.48c0,1.16-.08,2.36.91,3.24-1,5.11-5.06,5.34-8.66,4.61-3.79-.76-3.74.76-3.25,3.39l-1.29,1.32c-11.05-2.86-22.12-5.64-33.12-8.65-2.65-.72-3.53-.42-3.52,2.5q.11,36.88,0,73.78c0,2.55,1.11,3.37,3.37,3.94,6.24,1.58,12.42,3.42,18.63,5.16-.06.46-.11.93-.16,1.39-1.59,0-3.89-1.79-4.42,1.14-.45,2.51,1.49,3.23,3.69,3.6,1.38.24,3,.35,3.94,1.76l-3.9,0c-5.31-1.36-10.72-2.42-15.9-4.16-4.14-1.39-5.34-.75-5.3,3.86.18,23.47,0,46.95,0,70.42-.89,1.91,1.08,4.49-1.42,6-.07-1.7-.13-3.4-.19-5.1,1-1.7.52-3.57.52-5.36q.06-20.61,0-41.23C617,457.79,616.86,447.37,616.76,437Zm49.63-122.14q0-15.45,0-30.89c0-6.24-2.17-9.49-8.31-11.24-12.15-3.47-24.39-6.62-36.57-10-2.19-.6-3.33-.62-3.32,2.26q.15,37,0,73.92c0,1.61.07,3.05,1.93,3.54,13.17,3.46,26.29,7.13,39.54,10.26,4.85,1.14,6.66-.92,6.67-5.91C666.4,336.13,666.38,325.48,666.39,314.82ZM634,437.77c.29-1.95-1.14-2.37-2.66-2.76-3.35-.85-6.68-1.77-10-2.61-1.13-.28-2.7-1.48-3.07.76-.26,1.57-.56,3.31,1.85,3.87,3.85.89,7.69,1.86,11.45,3.05C634,440.86,634,439.47,634,437.77ZM637.55,349c-1.15,0-2,.12-2,1.21-.14,1.58.71,2.35,2.2,2.74,4.62,1.21,9.22,2.52,13.84,3.73.88.23,2.06.61,2.41-.79a2.09,2.09,0,0,0-1.4-2.78C647.48,351.65,642.39,350.3,637.55,349ZM637,261a1.38,1.38,0,0,0-1.46,1.24,2.05,2.05,0,0,0,1.53,2.68c4.78,1.31,9.56,2.62,14.35,3.88.9.23,2.08.61,2.46-.75.32-1.17.21-2.43-1.23-2.83C647.57,263.81,642.46,262.47,637,261ZM620,344.1c-1.11-.18-1.71.19-1.84,1.2-.18,1.43,0,2.58,1.71,3,4,1.06,7.91,2.2,11.87,3.3,1.06.29,2,.25,2.17-1.13.13-1.16.28-2.35-1.25-2.79Z"/><path class="cls-2" d="M40.56,733.45c4.29,21.41,17.49,33.24,38.92,36.25-2,.21-4.18-.11-6,1.07-2.72-.81-4.31-.49-3,2.89.6,1.53,1.06,3.13,1.77,4.61,8,16.49,21.26,24.62,39.47,24.63q122.2.06,244.4,0l1.93-.09c1.49,0,3,.07,4.49.07q121.32,0,242.64,0c2,0,4,.2,6,.31-1.88,1-3.92.57-5.89.57q-76.43,0-152.85,0c-2.09,0-4.35-.71-6.26.84l-5.09-.07c-1.08-1.09-2.47-.8-3.77-.8q-38.17,0-76.34,0c-1.31,0-2.69-.21-3.77.85l-2.09-.11c-2-1.32-4.21-.7-6.32-.7q-118.12-.06-236.25,0c-1.77,0-3.69-.57-5.28.79-17.83-.61-34-13.4-38.74-31.1-.88-3.32-2.53-4.77-5.38-6.2-13.44-6.75-21.75-17.41-23.83-32.54Z"/><path class="cls-4" d="M75.2,3.09c0-.39,0-.77,0-1.16l.12-.45,1-.28H363.13c1.66,0,3.32-.13,5-.2l1.92.47-.13,1.26-1.85.52a14.86,14.86,0,0,0-2-.24Q220.63,3,75.2,3.09Z"/><path class="cls-3" d="M97.29,586c-1.6,1.82-3.75,1-5.63,1-15.32.09-30.64.18-46,0-3.92,0-5.56.63-5.41,5.09.36,10.14.31,20.32,0,30.47-.16,4.71,1.12,6.31,6,6.23,16.15-.27,32.31-.2,48.46,0a16.57,16.57,0,0,1,16.46,15.57c.44,9.64-6.78,17.42-17.07,17.56-17.31.22-34.64,0-51.95,0l-3.63.29-22.37-.43c0-.52,0-1,0-1.57l19.36.18.17.24.12-.26,3.7.1c12.87.11,25.73.31,38.59.27,5.24,0,10.51.67,15.72-.48,1.32-.19,2.67-.27,4-.58,5.91-1.45,10.81-6.79,11.49-12.42A14.61,14.61,0,0,0,101,632c-3.2-1.56-6.68-1.92-10.18-2.11H43l-27.2.29L14.22,629c6.77-.9,13.57-.42,20.35-.36,3.25,0,4.23-.88,4.17-4.2-.2-10.93-.16-21.87,0-32.81.06-3.56-.86-4.83-4.71-4.79-6.74.06-13.54.93-20.25-.55l1-1.2,81.93,0Z"/><path class="cls-2" d="M616,30.4c5,1.86,10.37,2.11,15.14,4.59C647.4,43.41,655.88,56.71,656,75q.16,50.64-.05,101.27c0,3.88.52,6.34,4.78,7.68,3.59,1.12,6.82,3.51,7.34,7.93l-1.42,1c-1.34-4.6-4.81-6.87-9.09-8.19-5.18-1.6-10.38-3.13-15.58-4.68l2.16-1a25,25,0,0,1,4.35,1c5,2.12,5.65-.14,5.63-4.63-.15-33.79,0-67.6-.15-101.4C653.81,52.69,639.1,36.32,618,33.44,617.37,32.42,616.69,31.41,616,30.4Z"/><path class="cls-4" d="M427.14,1c7.83.07,15.65.19,23.47.19q61.47,0,122.94,0c1.82,0,3.65.15,5.47.23,0,.5.06,1,.1,1.51l-207.91,0,.06-.23c0-.46,0-.91,0-1.37L371.17,1l49.95,0,1,0,2,.05A4,4,0,0,0,427.14,1Z"/><path class="cls-3" d="M616,30.4c.67,1,1.35,2,2,3,.07,8.61.17,17.21.2,25.82,0,9.54,0,9.53,9.77,9.54.67,0,1.34.08,2,0,3.84-.32,5.46,1.7,5.62,5.27.06,1.49.09,3,.09,4.48,0,31.07.09,62.14,0,93.21,0,3.6.84,5.69,4.59,6.17a26.26,26.26,0,0,1,3.82,1.09l-2.16,1-9.89-2.4c.49-.78,1.8-.81,1.84-2q0-45.72,0-91.45c0-15.2,0-15.2-15.68-13.2l-1.62-1.13c0-.69-.09-1.38-.13-2.07.82-9.32,1.12-18.63-.17-27.94-.48-6.48-3-12.3-5.91-18l1.69,0A20.08,20.08,0,0,1,616,30.4Z"/><path class="cls-2" d="M39.22,392.22a11.38,11.38,0,0,1,.59,6.87c-.92,4.15,1,4.73,4.51,4.71,16.49-.12,33-.18,49.48,0,12.82.11,21.13,12.26,16.16,23.47-1.21,2.73-2.78,5.33-5.83,6.5l-1.14-1c5.3-4.83,8.44-10.41,5.22-17.64s-9.08-9.46-16.59-9.42c-24.09.12-48.18.19-72.27-.08-9.36-.11-19,6.54-17.11,18.24l-1.64,0c-1.66-11,5.58-19.6,17.08-20,5.63-.2,11.27-.19,16.89,0,3.31.13,4.38-1.08,4.17-4.29C38.58,397.12,38.12,394.59,39.22,392.22Z"/><path class="cls-2" d="M640,437.31l.15-1.39c6.11,1.52,12.18,3.22,18.34,4.51s8-.43,8-6.44c0-20.93-.09-41.86.07-62.79a9.66,9.66,0,0,0-5.82-9.51c-1.91-1-4-1.68-5.93-2.5l1.29-1.32c5,1.62,9.95,3.33,11.81,9.06-1,.91-.78,2.12-.78,3.27q0,32,0,64c0,1.3-.32,2.71.94,3.7-1.1,5.22-5.19,4.59-9,4.65-1.05,0-2.69-1.76-3.06.75-.25,1.69-.22,3.18,2,3.85,8.07,2.42,11.07,7.77,10.41,16.27-.73,9.43-.31,19-.38,28.44L666.94,494a.77.77,0,0,0-.54,0c0-11.11-.21-22.23.12-33.33.19-6.48-2.32-9-8.19-11.42C655,447.85,651.42,447,648,446l1.18-1.1c1.53-.8,4,2.55,4.81-.95.75-3.22-2.11-3.17-4-3.76C646.66,439.14,643.33,438.25,640,437.31Z"/><path class="cls-3" d="M73.12,436.84c-9.46.07-18.92.31-28.38.15-3.55-.06-4.53,1.16-4.48,4.57.18,10.79.24,21.59,0,32.37-.1,4.11,1.42,4.87,5.17,4.85,16.6-.13,33.2.05,49.8.13,0,.61,0,1.22,0,1.84l-3-.25c-16.49-1.45-33-.78-49.49-.34l-27.44.52V479c6.63-.09,13.25-.33,19.87-.23,2.86.05,3.69-1,3.66-3.71-.12-11.44-.18-22.88,0-34.32.05-3.29-1.32-3.76-4.14-3.73-6.79.09-13.58-.14-20.36-.25l1.37-1.25,27.41.21c4.8.1,9.61.09,14.41.34C62.65,436.33,68,435.16,73.12,436.84Z"/><path class="cls-4" d="M107.21,804.63c1.59-1.36,3.51-.79,5.28-.79q118.13,0,236.25,0c2.11,0,4.34-.62,6.32.7-1.32.09-2.64.27-4,.27H112.2C110.53,804.84,108.87,804.71,107.21,804.63Z"/><path class="cls-4" d="M655.14,765.87c0,1.3-.11,2.61-.17,3.92l-1.17-1c.1-3.83.29-7.66.29-11.49q0-69.24,0-138.47,0-44.49-.11-89l1.07.92q0,4,0,8Q655.1,652.33,655.14,765.87Z"/><path class="cls-5" d="M655.14,765.87q0-113.55-.07-227.09,0-4,0-8l1,.13q0,113.87-.1,227.73C656,761.06,656.82,763.64,655.14,765.87Z"/><path class="cls-3" d="M40.26,546c.25,7.75.25,7.73,8,7.75q24,.09,47.9.22L96,555.47q-37.87,0-75.76-.07a29.28,29.28,0,0,0-8.84,1.17l-.2-1.57c7.46-2.57,15.17-1.11,22.75-1.15,4.1,0,4.85-1.26,4.79-5-.19-11.63.06-23.26.14-34.89,2,1,1.17,2.89,1.19,4.39C40.2,527.52,40.21,536.73,40.26,546Z"/><path class="cls-2" d="M40.26,546c0-9.22-.06-18.43-.18-27.64,0-1.5.85-3.39-1.19-4.39-.46-.79-.62-1.83-1.76-2,1.68-.44,3.72.7,5.07-1.17l.46-.16.44.19c1,1.25,2.36,1,3.66,1q20.42,0,40.82,0c1.3,0,2.7.27,3.64-1l1.6-.08,1.16-.05,2.22-.48c.41.43.71.27,1-.18,8.81-3.22,12.78-8.36,12.17-15.75-.58-7-5.94-12.13-14.17-13.46,0-.62,0-1.23,0-1.84,8.89.66,15.37,6.81,16.17,15.35.75,8-4.59,15.14-13.35,17.4a32.69,32.69,0,0,1-7.92.73c-14.82.07-29.65.15-44.47-.06-4-.06-5.08,1.33-5.07,5.18C40.59,527,41.15,536.48,40.26,546Z"/><path class="cls-4" d="M97.17,361.82c-16,.12-31.93.27-47.89.36-9,.05-8.85,0-9,8.8-.14,6.63.94,13.31-.8,19.88-1.57-7.58-.83-15.27-.58-22.86.17-5.08-1.4-6.2-6.06-5.83a150.59,150.59,0,0,1-15.47,0,15.79,15.79,0,0,1-10.91-4.16l1.92-.31c3.81,2.33,8,3,12.38,3,15.65,0,31.29.25,46.93.2,9.81,0,19.61-.44,29.42-.67Z"/><path class="cls-4" d="M446.12,804.71c1.91-1.55,4.17-.83,6.26-.84q76.42-.06,152.85,0c2,0,4,.46,5.89-.57l1.93,0,.07,1.51-143.58.12C461.74,804.85,453.93,804.76,446.12,804.71Z"/><path class="cls-4" d="M666.6,192.93l1.42-1-.06,71-1.45-.08.3-1.66a5.5,5.5,0,0,0,0-4Q666.68,225,666.6,192.93Z"/><path class="cls-2" d="M613.12,804.72c0-.5,0-1-.07-1.51,14.08-1.19,25.74-6.69,34-18.59,2.78-4,3.58-8.85,6.4-12.75h1C651.23,790.28,632.75,805,613.12,804.72Z"/><path class="cls-5" d="M15.2,479v1.67c-1.41.47-2.87.83-4.23,1.42a14.36,14.36,0,0,0-4.86,23.17A20.44,20.44,0,0,0,14.19,510l0,1.69C4.64,509.31-.14,503.13.12,493.47.3,486.87,6.81,480.64,15.2,479Z"/><path class="cls-2" d="M14.22,629l1.55,1.21c-7.06,2.07-12.84,5.51-13.6,13.71s4.24,13.88,14,16.21c0,.53,0,1,0,1.57C6.92,660.46.66,654.43.13,646.24S5,631.46,14.22,629Z"/><path class="cls-2" d="M612.11,21.92l-1.69,0C604.16,14,597.07,7.26,586.88,4.76a19.08,19.08,0,0,0-6.35-.95L579.12,3c0-.5-.07-1-.1-1.51l2.91-.16,1.09.25C595.48,4.39,605.69,10.44,612.11,21.92Z"/><path class="cls-5" d="M11.21,555c.07.52.14,1,.2,1.57-2.55,1.8-5.31,3.32-7.06,6.09-4.77,7.58-2.44,15,6.81,21.28l.06,1.72C4.18,583,.06,577.75.1,570.33S4.1,557.64,11.21,555Z"/><path class="cls-5" d="M8.35,357.74l-1.92.31C.62,353.37-1.3,347.25,1,340.55c2.36-7,8.9-11.41,17.24-11.54l0,1.53c-7.16.85-13.13,3.65-15.5,11C.59,348.15,3.47,353.38,8.35,357.74Z"/><path class="cls-4" d="M357.15,804.68c1.08-1.06,2.46-.85,3.77-.85q38.18,0,76.34,0c1.3,0,2.69-.29,3.77.8Z"/><path class="cls-3" d="M40.56,733.45l-1.3,1.34a7.84,7.84,0,0,0-.49-.85c0-1.52,0-3-.05-4.57.1-5.47.3-10.94.27-16.41-.06-15.62-.21-31.23-.32-46.85,0-1.16.11-2.32.16-3.48,2.11,1.66,1.24,4,1.25,6,.13,21.13.17,42.26.24,63.39Z"/><path class="cls-2" d="M40.32,732.07c-.07-21.13-.11-42.26-.24-63.39,0-2,.86-4.39-1.25-6a.35.35,0,0,1-.27-.5l3.63-.29c-2.24,1.54-1.49,3.91-1.49,5.95-.06,19.78,0,39.56-.05,59.34C40.65,728.78,40.43,730.42,40.32,732.07Z"/><path class="cls-3" d="M656.09,530.93l-1-.13-1.07-.92c-6.57-1.36-12.82-4.14-19.63-4.38a1.3,1.3,0,0,1-.17-.64c1.1-.93,2.44-.93,3.77-1,6,1.6,12.08,3.25,18.13,4.8,3.39.86,6.82,1.6,9.95-.84l1.59.16C664.75,532.77,660,530.15,656.09,530.93Z"/><path class="cls-5" d="M19.19,140.79C7,141.21-1.28,132.43.51,121l1.56,1c.23,11,5.31,16.09,17.14,17.24Z"/><path class="cls-4" d="M668.07,437.87c-1.26-1-.94-2.4-.94-3.7q0-32,0-64c0-1.15-.22-2.36.78-3.27Z"/><path class="cls-6" d="M38.94,37.12c-.13,21.72-.23,43.43-.46,65.14,0,1.53,1.29,3.72-1.29,4.64,0-21.56,0-43.13,0-64.69C37.24,40.44,36.17,38.07,38.94,37.12Z"/><path class="cls-6" d="M38.72,729.37c0,1.53,0,3,.05,4.57-1.74-.78-1.58-2.36-1.58-3.85q0-30.48,0-61c0-1.16-.12-2.36,1-3.2.05,12.4,0,24.81.18,37.22C38.44,711.88,37.77,720.64,38.72,729.37Z"/><path class="cls-7" d="M38.72,729.37c-.95-8.73-.28-17.49-.39-26.23-.16-12.41-.13-24.82-.18-37.22l.31-.06.21.25c.11,15.62.26,31.23.32,46.85C39,718.43,38.82,723.9,38.72,729.37Z"/><path class="cls-4" d="M668,349.87c-1-.88-.91-2.08-.91-3.24V302.15c0-1.16-.08-2.35.89-3.25Q668,324.39,668,349.87Z"/><path class="cls-5" d="M15.59,435.52l-1.37,1.25c-7.16-1.56-12-5.56-13.62-12.94l1.64,0C4.35,430.44,9.32,433.72,15.59,435.52Z"/><path class="cls-4" d="M666.94,494l1.15-2.16q0,17.51-.05,35l-1.19-.1c-.06-1.25.37-2.55-.4-3.72l0-26.49C666.64,495.69,666.79,494.84,666.94,494Z"/><path class="cls-6" d="M34.19,287.89c2.06-.17,4.45-1.16,4.39,2.58-.18,10.48-.21,21-.29,31.44-1.71-1.42-1.06-3.38-1.08-5.13-.06-7.8-.18-15.61.06-23.4C37.35,290.65,36.4,289.05,34.19,287.89Z"/><path class="cls-4" d="M18.22,330.54l0-1.53h17l0,1.42Z"/><path class="cls-6" d="M38.31,145.88q.12,15.44.23,30.87c0,1,.16,2.08-1.35,2.12,0-9.29,0-18.59,0-27.88C37.22,149.25,36.58,147.28,38.31,145.88Z"/><path class="cls-3" d="M19.19,140.79c0-.54,0-1.08,0-1.63h16v1.64Z"/><path class="cls-3" d="M14.21,511.68c0-.56,0-1.13,0-1.69,7.56,1.2,15.19.18,22.77.69l1.33.05h1.79l1.36-.06.39-.13.37.19c-1.35,1.87-3.39.73-5.07,1.17C29.48,512.1,21.84,512.44,14.21,511.68Z"/><path class="cls-2" d="M666.51,262.8l1.45.08c-2.5,5.2-6.66,4.48-11,3.09l2.17-1C661.78,264.92,664.43,264.82,666.51,262.8Z"/><path class="cls-2" d="M2.07,121.92.51,121a14.53,14.53,0,0,1,4.1-7.73l1,1.14C4.18,116.75,2.57,119.07,2.07,121.92Z"/><path class="cls-5" d="M35.17,140.8v-1.64h3l0,1.78Z"/><path class="cls-5" d="M654.51,771.87h-1a2.33,2.33,0,0,1,.31-3.07l1.17,1A1.9,1.9,0,0,1,654.51,771.87Z"/><path class="cls-3" d="M11.22,585.66l-.06-1.72,3.66,1.15-1,1.2Z"/><path class="cls-2" d="M4.61,113.22l2-1.84,1.17,1.14-2.17,1.84Z"/><path class="cls-5" d="M38.86,326.07c.42,1.07.7,2.11-.68,2.73C38.41,327.89,38.64,327,38.86,326.07Z"/><path class="cls-8" d="M370,1.48,368.11,1c1-1.4,2-1.29,3.06,0l.09.34Z"/><path class="cls-8" d="M427.14,1a4,4,0,0,1-3,0C425.13-.32,426.14-.32,427.14,1Z"/><path class="cls-2" d="M666.85,526.74l1.19.11c-.13.38-.27.76-.41,1.13l-1.59-.16c.08-.41.17-.81.26-1.21A.88.88,0,0,0,666.85,526.74Z"/><path class="cls-8" d="M36.15,178.82l-1.94,0C34.85,177.92,35.49,177.87,36.15,178.82Z"/><path class="cls-6" d="M16.13,287.66l2.06.2C17.39,289,16.72,288.73,16.13,287.66Z"/><path class="cls-8" d="M76.28,1.2l-1,.28C75.46.86,75.7.41,76.28,1.2Z"/><path class="cls-8" d="M422.12.94l-1,0C421.44.43,421.78.41,422.12.94Z"/><path class="cls-8" d="M19.17,178.85l-.48.12-.48-.13C18.53,178.32,18.85,178.32,19.17,178.85Z"/><path class="cls-8" d="M583,1.55l-1.09-.25C582.5.47,582.82.73,583,1.55Z"/><path class="cls-3" d="M392.05,769.52c8.15.06,16.29.18,24.44.17q82.15,0,164.31-.11l4.07.54c-4.51,1.44-9.18,1.29-13.81,1.3q-95.62,0-191.25,0-145.35,0-290.7,0c-2,0-4,.25-5.93.39l-.07-2.06H388.56c.49,0,1,0,1.49-.08Z"/><path class="cls-5" d="M83.11,769.77c0,.68,0,1.37.07,2.06a50.1,50.1,0,0,1,0,5.48c-.44,4.13,1.17,5.94,5.39,5.37a29.5,29.5,0,0,1,4,0l286.53.14-.89,1.67-2.14.26-2.73.22c-1.83-.07-3.66-.2-5.49-.2H88.46c-6.54,0-7.55-.71-7.22-7.06.25-4.73-1.21-6.79-6-6.24-.57.06-1.2-.44-1.8-.68,1.87-1.18,4-.86,6-1.07Z"/><path class="cls-2" d="M318.24,309.06q-49.35-.07-98.7-.15c-8.25,0-14.87-3-18.24-11.11l1-1.15c4,7.56,10.31,10.42,18.81,10.37,34.27-.21,68.54-.09,102.82-.09q89.65,0,179.31,0c4.6,0,8.94-.52,12.93-2.92l1.12,1.08c-3.45,3-7.58,3.8-12,3.81-8.78,0-17.57.1-26.35.16a4.82,4.82,0,0,0-3.92,0l-7.1-.43c-1.44-1.23-3.18-.74-4.79-.74q-69.07,0-138.14,0c-1.64,0-3.28.31-4.92.47l-.64,1.27.23.15C319.53,309,318.92,309,318.24,309.06Z"/><path class="cls-3" d="M524.58,95c.12,1.48.34,3,.34,4.45q0,94.81,0,189.62c0,2,.26,4-.7,5.88l-1.4-.14c.08-2.5.21-5,.21-7.49q.06-96.21.09-192.41Z"/><path class="cls-4" d="M616.18,564.79v-2.93c1.26-3.24,0-6.7.89-10l.44,0,.44,0c.09,1,.27,2,.27,3q0,37,0,74-.06,50.49-.14,101a1.87,1.87,0,0,1-.94,0l-.41-.19-.27,0-.17.21c.08-1.66.23-3.32.23-5q0-75,0-150c0-1.66-.15-3.32-.23-5l.44,0c0-.36,0-.72.08-1.07,0-.62,0-1.24,0-1.86l-.09-2.08-.22-.15Z"/><path class="cls-4" d="M214.11,79.93l5.09-.79c2,.06,4,.18,6,.18l115,.07c1.79,1.19,4.2-.25,5.89,1.36-1.32.09-2.65.26-4,.26q-63.43,0-126.87,0Z"/><path class="cls-4" d="M355.18,79.1c12.47.07,24.94.17,37.41.22q26.19.12,52.38.2l1.29.11,61.85-.23,2,.55-1,1C479.54,81,450,81,420.42,81c-24.42,0-48.83-.14-73.25-.22a3.42,3.42,0,0,0,.06-.78l2.74-.48,1.35.1.32,0,.32,0,1.43-.11Z"/><path class="cls-3" d="M616.74,170.73c-.24-.93-.49-1.85-.73-2.77.12-3,.35-6,.35-8.94q0-39.63,0-79.27c0-2,.18-4,.27-6,.56-.55.33-1.7,1.4-1.88q0,49.52,0,99Z"/><path class="cls-3" d="M320.13,308.39c1.64-.16,3.28-.47,4.92-.47q69.06,0,138.14,0c1.61,0,3.35-.49,4.79.74-17,.06-34,.16-51,.18q-44.24,0-88.48,0c-1.82,0-3.65.17-5.47.25Z"/><path class="cls-2" d="M617.1,729.81a1.87,1.87,0,0,0,.94,0c.75,18.73-14.67,37.46-33.17,40.31l-4.07-.54c3.3-1,6.74-1.68,9.89-3,15.39-6.53,23.67-18.42,25.73-34.83Z"/><path class="cls-2" d="M96,555.47l.18-1.55c8,1.31,13.36,6,14.91,13.12,1.48,6.78-1,12.5-7.31,17.06a9.72,9.72,0,0,1-6.5,1.86l-.54-.89c4.57-1.36,8.55-3.57,10.89-8C112.49,568.06,107.54,558.87,96,555.47Z"/><path class="cls-2" d="M97.17,361.82l-.09-1.52c10.78-3.77,15.37-13,10.57-21.49-2.53-4.46-6.65-6.8-11.47-8.06l0-.94c5-.41,10.83,3.17,13.42,8.29,2.92,5.8,2.23,13.34-1.84,17.78C104.89,359,101.62,361.49,97.17,361.82Z"/><path class="cls-4" d="M200.07,201.83q0-51.9,0-103.79c.27-.77.27-1.71,1.22-2.1,0,16.26.13,32.52.11,48.78,0,19.74-.12,39.48-.19,59.22Z"/><path class="cls-5" d="M618,551.89l-.44,0-.44,0-.53-1-.69-13c.08-1.34.15-2.69.23-4a20.84,20.84,0,0,0,.07-12.14c.18-.63.37-1.25.55-1.88,2.5-1.52.53-4.1,1.42-6-.36,4,1.88,5.32,5.46,6.05,4.85,1,9.59,2.58,14.38,3.92-1.33.07-2.67.07-3.77,1-4.12-1.25-8.25-2.45-12.35-3.77-2.74-.88-3.81-.36-3.76,2.85C618.22,533.25,618,542.57,618,551.89Z"/><path class="cls-5" d="M616.76,437c.1,10.41.25,20.83.28,31.25q.08,20.61,0,41.23c0,1.79.45,3.66-.52,5.36-.09-23.38-.23-46.76-.2-70.13C616.32,442.12,615.1,439.43,616.76,437Z"/><path class="cls-4" d="M199.81,241.83l1.33-.22c.08,8.93,0,17.87.27,26.81.24,9.41-1,18.87.94,28.23l-1,1.15c-1.6-2.91-1.32-6.11-1.33-9.24Q199.87,265.21,199.81,241.83Z"/><path class="cls-2" d="M201.25,95.94c-.95.39-.95,1.33-1.22,2.1a16.33,16.33,0,0,1,14.08-18.11l1.11,1C207.63,83.22,202.91,88.16,201.25,95.94Z"/><path class="cls-5" d="M73.12,436.84c-5.16-1.68-10.47-.51-15.71-.77-4.8-.25-9.61-.24-14.41-.34,2.31-.09,4.63-.23,6.94-.25q23.61-.19,47.24-.36c-1.71,1.51-3.79.74-5.71.9-5.7.47-11.49-.86-17.14.75Z"/><path class="cls-2" d="M509.1,81l1-1,0-.42L515.06,81c5.11,3.34,9.35,7.27,9.52,14l-1.45-.09C521.31,87.39,516.35,83,509.1,81Z"/><path class="cls-3" d="M74.33,436.77c5.65-1.61,11.44-.28,17.14-.75,1.92-.16,4,.61,5.71-.9l5.81-2.35,1.14,1a16.2,16.2,0,0,1-10.65,3.38c-5.8-.07-11.6.1-17.4.16l-2-.2Z"/><path class="cls-5" d="M616.33,39.87c1.29,9.31,1,18.62.17,27.94Q616.41,53.83,616.33,39.87Z"/><path class="cls-4" d="M199.69,211.89l.45-2,1,0-.06,24.35c-1.1-.36-1.15-1.41-1.46-2.29A130,130,0,0,0,199.69,211.89Z"/><path class="cls-2" d="M522.83,294.82l1.4.14a14.06,14.06,0,0,1-6.89,10.17l-1.12-1.08A22.89,22.89,0,0,0,522.83,294.82Z"/><path class="cls-2" d="M201.17,209.86l-1,0c-.16-1.81-.33-3.62-.49-5.44l.42-2.63c.37.7.74,1.4,1.1,2.11Z"/><path class="cls-5" d="M618.06,71.91c-1.07.18-.84,1.33-1.4,1.88-1.52-1.29,0-2.6,0-3.91L618.25,71A1.11,1.11,0,0,1,618.06,71.91Z"/><path class="cls-5" d="M96.15,329.81l0,.94-4-.22,2.25-.75Z"/><path class="cls-5" d="M616.64,564.84l.09,2.08A1.51,1.51,0,0,1,616.64,564.84Z"/><path class="cls-5" d="M370,1.48l1.23-.15c0,.46,0,.91,0,1.37l-1.37,0C370,2.32,370,1.9,370,1.48Z"/><path class="cls-5" d="M617.1,729.81l-.68,1.92.27-2.11Z"/><path class="cls-5" d="M616.77,568.78c0,.35-.06.71-.08,1.07a4.34,4.34,0,0,1-.17-.76C616.51,569,616.68,568.88,616.77,568.78Z"/><path class="cls-5" d="M352.06,78.9h1.08a2,2,0,0,1,.25.62l-1.43.11A3.66,3.66,0,0,1,352.06,78.9Z"/><path class="cls-1" d="M92.17,330.53l4,.22c4.82,1.26,8.94,3.6,11.47,8.06,4.8,8.45.21,17.72-10.57,21.49-9.81.23-19.61.64-29.42.67-15.64,0-31.28-.21-46.93-.2-4.43,0-8.57-.7-12.38-3-4.88-4.36-7.76-9.59-5.63-16.2,2.37-7.35,8.34-10.15,15.5-11l17-.1Z"/><path class="cls-1" d="M55.7,210.78c-12,0-24,0-35.93,0-10.43,0-17.65-6.07-17.7-14.8s7.1-15,17.47-15Q56,181,92.4,181c9,0,15.65,5.1,16.77,12.54,1.37,9.17-5.6,17.07-15.54,17.2C81,210.91,68.34,210.78,55.7,210.78Z"/><path class="cls-1" d="M43.21,286c-8.48-.1-17-.06-25.43-.32-8.14-.26-14.69-5.8-15.56-12.76A15,15,0,0,1,17,256c25.62-.24,51.24-.2,76.86,0,8.3.06,14.81,6.08,15.44,13.43.67,7.92-4.62,14.36-13.2,16-1.62.32-3.29.41-4.93.6Z"/><path class="cls-1" d="M5.64,114.36l2.17-1.84A23.38,23.38,0,0,1,20.59,109c23.62.07,47.24,0,70.85,0,9.64,0,16.6,5.08,17.75,12.72,1.38,9.29-4.94,16.13-16,17.35H43.22l-5,0h-19C7.38,138,2.3,132.9,2.07,121.92,2.57,119.07,4.18,116.75,5.64,114.36Z"/><path class="cls-5" d="M43.22,139.14H93.14c-1.13,1-2.5.73-3.81.73H47C45.72,139.88,44.35,140.12,43.22,139.14Z"/><path class="cls-4" d="M43.21,286h48A264.24,264.24,0,0,1,43.21,286Z"/><path class="cls-9" d="M654.82,359.19c2,.82,4,1.53,5.93,2.5a9.66,9.66,0,0,1,5.82,9.51c-.16,20.93-.07,41.86-.07,62.79,0,6-1.93,7.71-8,6.44s-12.23-3-18.34-4.51c-6.2-1.74-12.38-3.58-18.62-5.16-2.26-.57-3.38-1.39-3.37-3.94q.11-36.88,0-73.78c0-2.92.87-3.22,3.52-2.5C632.7,353.55,643.77,356.33,654.82,359.19Z"/><path class="cls-10" d="M638,523.86c-4.79-1.34-9.53-2.93-14.38-3.92-3.58-.73-5.82-2.06-5.46-6.05,0-23.47.19-46.95,0-70.42,0-4.61,1.16-5.25,5.3-3.86,5.18,1.74,10.59,2.8,15.9,4.16l6.69,1.87L648,446c3.47,1.06,7,1.87,10.38,3.24,5.87,2.41,8.38,4.94,8.19,11.42-.33,11.1-.11,22.22-.12,33.33a2.7,2.7,0,0,0,.08,2.57l0,26.49-.15,3.58c-.09.4-.18.8-.26,1.21-3.13,2.44-6.56,1.7-9.95.84C650,527.11,644,525.46,638,523.86Z"/><path class="cls-7" d="M666.39,314.82c0,10.66,0,21.31,0,32,0,5-1.82,7-6.67,5.91-13.25-3.13-26.37-6.8-39.54-10.26-1.86-.49-1.93-1.93-1.93-3.54q0-37,0-73.92c0-2.88,1.13-2.86,3.32-2.26,12.18,3.35,24.42,6.5,36.57,10,6.14,1.75,8.3,5,8.31,11.24Q666.41,299.38,666.39,314.82Z"/><path class="cls-11" d="M666.51,262.8c-2.08,2-4.73,2.12-7.39,2.17l-24-6.11c-4.3-2.05-9-2.85-13.55-3.94a4.27,4.27,0,0,1-3.45-3q-.06-12.42-.11-24.85,0-8.69,0-17.35,0-15.39.05-30.79c-.26-3.8,1-5,4.87-3.49,2.87,1.14,6,1.48,9.1,2.18l9.89,2.4c5.2,1.55,10.4,3.08,15.58,4.68,4.28,1.32,7.75,3.59,9.09,8.19q.09,32.08.17,64.18a5.26,5.26,0,0,0,0,4Z"/><path class="cls-6" d="M634,437.77c0,1.7,0,3.09-2.46,2.31-3.76-1.19-7.6-2.16-11.45-3.05-2.41-.56-2.11-2.3-1.85-3.87.37-2.24,1.94-1,3.07-.76,3.35.84,6.68,1.76,10,2.61C632.86,435.4,634.29,435.82,634,437.77Z"/><path class="cls-6" d="M620,344.1l12.66,3.61c1.53.44,1.38,1.63,1.25,2.79-.17,1.38-1.11,1.42-2.17,1.13-4-1.1-7.9-2.24-11.87-3.3-1.69-.45-1.89-1.6-1.71-3C618.32,344.29,618.92,343.92,620,344.1Z"/><path class="cls-6" d="M633.94,260.19c.28,2.66.22,4.63-3.52,3.14a38.51,38.51,0,0,0-8.95-2.37c-3.19-.44-3.64-2.19-3.23-4.78Z"/><path class="cls-2" d="M633.94,260.19l-15.7-4-.15-4.22a4.27,4.27,0,0,0,3.45,3c4.57,1.09,9.25,1.89,13.55,3.94C634.7,259.3,634.32,259.75,633.94,260.19Z"/><path class="cls-5" d="M618,209.76q0,8.67,0,17.35a6.64,6.64,0,0,0-.88-.12q-.29-6.9-.56-13.8c.08-1,.16-2,.25-3l.45-.46.39.06Z"/><path class="cls-2" d="M643.23,443.81l1.8-.05,1,1.88-6.69-1.87Z"/><path class="cls-1" d="M96,555.47c11.53,3.4,16.48,12.59,11.63,21.65-2.34,4.38-6.32,6.59-10.89,8l-81.93,0-3.66-1.15c-9.25-6.33-11.58-13.7-6.81-21.28,1.75-2.77,4.51-4.29,7.06-6.09a29.28,29.28,0,0,1,8.84-1.17Q58.13,555.49,96,555.47Z"/><path class="cls-1" d="M16.2,660.13c-9.79-2.33-14.8-8-14-16.21s6.54-11.64,13.6-13.71l27.2-.29q23.93.66,47.86,0c3.5.19,7,.55,10.18,2.11a14.61,14.61,0,0,1,8.29,15.14c-.68,5.63-5.58,11-11.49,12.42-1.28.31-2.63.39-3.94.58-8-.08-16-.31-24-.21-10.12.14-20.26-.63-30.37.42l-3.7-.1-.17-.24-.12.26Z"/><path class="cls-7" d="M39.55,660.39c10.11-1,20.25-.28,30.37-.42,8-.1,16,.13,24,.21-5.22,1.15-10.49.46-15.73.48C65.28,660.7,52.42,660.5,39.55,660.39Z"/><path class="cls-2" d="M90.83,629.93q-23.92.62-47.86,0Z"/><polygon class="cls-7" points="35.56 660.31 35.68 660.05 35.85 660.29 35.73 660.54 35.56 660.31"/><path class="cls-8" d="M618.06,71.91a1.11,1.11,0,0,0,.19-.9c15.68-2,15.69-2,15.68,13.2q0,45.72,0,91.45c-5.53-.71-11-1.67-15.81-4.72Q618.07,121.43,618.06,71.91Z"/><path class="cls-5" d="M618.07,170.94c4.83,3.05,10.28,4,15.81,4.72,0,1.19-1.35,1.22-1.84,2-3-.7-6.23-1-9.1-2.18-3.88-1.54-5.13-.31-4.87,3.49-1.18.77-1,2-1,3.12q0,13.83.12,27.67l-.45.46c-.23-.1-.46-.2-.68-.32q.06-14,.11-28.09c0-1.61.15-3.25-1-4.59,2.08-1.79.86-4.37,1.56-6.49Z"/><path class="cls-1" d="M103,432.77l-5.81,2.35q-23.62.18-47.24.36c-2.31,0-4.63.16-6.94.25l-27.41-.21c-6.27-1.8-11.24-5.08-13.35-11.65C.37,412.17,10,405.52,19.35,405.63c24.09.27,48.18.2,72.27.08,7.51,0,13.42,2.33,16.59,9.42S108.29,427.94,103,432.77Z"/><path class="cls-3" d="M646,445.64l-1-1.88,4.1,1.12L648,446Z"/><path class="cls-1" d="M40.08,510.74H38.29L37,510.68c-7.58-.51-15.21.51-22.77-.69a20.44,20.44,0,0,1-8.08-4.72A14.36,14.36,0,0,1,11,482.1c1.36-.59,2.82-1,4.23-1.42l27.44-.52c16.49.95,33,.31,49.49.34l3,.25c8.23,1.33,13.59,6.42,14.17,13.46.61,7.39-3.36,12.53-12.17,15.75l-1,.18-2.21.48-1.17.05-1.6.08a.77.77,0,0,0-.87,0c-15.75-.42-31.51-.46-47.26,0v0l-.44-.19-.46.16-.37-.19-.39.13Z"/><path class="cls-5" d="M92.13,480.5c-16.5,0-33,.61-49.49-.34C59.14,479.72,75.64,479.05,92.13,480.5Z"/><path class="cls-3" d="M90.35,510.72a.77.77,0,0,1,.87,0c-.94,1.3-2.34,1-3.64,1q-20.4,0-40.82,0c-1.3,0-2.69.23-3.66-1v0C58.84,511.21,74.6,511.25,90.35,510.72Z"/><path class="cls-5" d="M96.2,510.14l1-.18C96.91,510.41,96.61,510.57,96.2,510.14Z"/><path class="cls-5" d="M92.82,510.67l1.17-.05Z"/><path class="cls-2" d="M666.81,261.14a5.26,5.26,0,0,1,0-4A5.5,5.5,0,0,1,666.81,261.14Z"/><path class="cls-8" d="M634.36,525.5c-.07.68-.13,1.36-.19,2-.07,1.66-.2,3.32-.2,5q0,45,0,89.92,0,78.69.1,157.38c-.92,3.26-3.51,2.9-6.05,2.9q-71,0-142,0-53.48,0-106.95.1l-286.53-.14a29.5,29.5,0,0,0-4,0c-4.22.57-5.83-1.24-5.39-5.37a50.1,50.1,0,0,0,0-5.48c2-.14,3.95-.39,5.93-.39q145.35,0,290.7,0,95.63,0,191.25,0c4.63,0,9.3.14,13.81-1.3,18.5-2.85,33.92-21.58,33.17-40.31q.08-50.47.14-101,0-37,0-74c0-1-.18-2-.27-3,.07-9.32.27-18.64.13-27.95-.05-3.21,1-3.73,3.76-2.85,4.1,1.32,8.23,2.52,12.35,3.77A1.3,1.3,0,0,0,634.36,525.5Z"/><path class="cls-5" d="M37,510.68l1.33.05Z"/><path class="cls-5" d="M40.08,510.74l1.36-.06Z"/><path class="cls-2" d="M379.1,782.81q53.47,0,107-.1,71,0,142,0c2.54,0,5.13.36,6.05-2.9h.47l.48-.05c.18.35.37.69.56,1,0,.3,0,.61,0,.91-1.1,2.55-3.22,3-5.73,3q-102.89-.15-205.75-.26H378.21Z"/><path class="cls-5" d="M446.26,79.63,445,79.52C445.45,79,445.88,79.09,446.26,79.63Z"/><path class="cls-5" d="M347.17,80.79l-1.11,0c-1.69-1.61-4.1-.17-5.89-1.36,2.41-.35,4.84-1.12,7.06.62A3.42,3.42,0,0,1,347.17,80.79Z"/><path class="cls-5" d="M351.31,78.87c0,.26,0,.51,0,.76l-1.35-.1Z"/><path class="cls-4" d="M617.24,209.76q-.06-13.83-.12-27.67c0-1.12-.23-2.35,1-3.12q0,15.39-.05,30.79l-.39.06Z"/><path class="cls-5" d="M635.58,780.82c-.19-.35-.38-.69-.56-1q0-113,.06-226.06c0-8.64.12-17.28.18-25.93l.79,2.05c0,2.16-.1,4.32-.1,6.48q0,119,0,238C635.92,776.52,635.7,778.67,635.58,780.82Z"/><path class="cls-4" d="M635.26,527.79c-.06,8.65-.18,17.29-.18,25.93q0,113-.06,226.06l-.48.05h-.47q-.06-78.69-.1-157.38,0-45,0-89.92c0-1.66.13-3.32.2-5Z"/><path class="cls-5" d="M90.35,510.72c-15.75.53-31.51.49-47.26,0C58.84,510.26,74.6,510.3,90.35,510.72Z"/><path class="cls-6" d="M207.16,194.9a11.08,11.08,0,0,0-.39,5.68c-2.09-.3-3.39-1.25-3.17-2.87s1.74-2.66,3.56-2.8Z"/><path class="cls-6" d="M208.16,193.9l.21-.39-.21.4Z"/><path class="cls-6" d="M208.16,193.91l-1,1h0l1-1Z"/><path class="cls-12" d="M83.11,769.77H388.56c.49,0,1,0,1.49-.08a15.85,15.85,0,0,1,5.43-6.56,15.85,15.85,0,0,0-5.43,6.56l2-.18c8.15.06,16.29.18,24.44.17q82.15,0,164.3-.11c3.31-1,6.75-1.68,9.9-3,15.39-6.53,23.67-18.42,25.73-34.84l.27-2.1-.27,0-.17.21h0c.08-1.66.23-3.32.23-5q0-75,0-150c0-1.66-.15-3.32-.23-5l.44,0a4.05,4.05,0,0,1-.17-.75c0-.1.16-.21.25-.31,0-.62,0-1.24,0-1.86a1.52,1.52,0,0,1-.08-2.08l-.22-.15-.24.1v-2.93a6.14,6.14,0,0,1-3.73-1.88,6.14,6.14,0,0,0,3.73,1.88c1.26-3.24,0-6.7.89-10l-.53-1-.69-13h0c.08-1.34.15-2.69.23-4-3-3.29-4.38-5.45-4-7.39-.35,1.94,1,4.1,4,7.39a20.84,20.84,0,0,0,.07-12.14h0c.18-.63.37-1.25.55-1.88-.07-1.7-.13-3.4-.19-5.1-.09-23.38-.23-46.76-.2-70.13,0-2.55-1.21-5.24.45-7.71-.8-3.12-.29-6.29-.29-9.43q0-96.13,0-192.27c0-1.49-.21-3-.31-4.47.17-1.16.34-2.33.52-3.49h0a1.25,1.25,0,0,0,.45-.31q-.29-6.9-.56-13.8c.08-1,.16-2,.25-3-.23-.1-.46-.2-.68-.32a7.38,7.38,0,0,0-2.69.84,7.38,7.38,0,0,1,2.69-.84q.06-14,.11-28.09c0-1.61.15-3.25-1-4.59,2.08-1.79.86-4.37,1.56-6.49-.24-.93-.49-1.85-.73-2.77h0c.12-3,.35-6,.35-8.94q0-39.63,0-79.27c0-2,.18-4,.27-6-1.52-1.29,0-2.6,0-3.91,0-.69-.09-1.38-.13-2.07q-.09-14-.17-27.94c-.48-6.48-3-12.3-5.91-18C604.16,14,597.07,7.26,586.88,4.76a19.08,19.08,0,0,0-6.35-.95q-49.49.06-99,.12,49.48,0,99-.12L579.12,3l-207.91,0,.06-.23-1.37,0-1.85.52a4.11,4.11,0,0,1-2.68.72,4.11,4.11,0,0,0,2.68-.72,14.86,14.86,0,0,0-2-.24Q220.63,3,75.2,3.09a3.17,3.17,0,0,1-.32.73C55.09,7,41.19,22.77,40.78,43.36c-.4,19.81,0,39.64-.19,59.46,0,3.74,1.55,4.37,4.78,4.34q23.49-.18,47,0c10.66.09,18.46,6.77,19,15.9.52,9.8-7,17.77-17.32,17.88-16,.17-32,.21-48,0-4.09,0-5.63,1.11-5.57,5.22.14,9.49.13,19-.09,28.47-.08,3.5,1.08,4.54,4.56,4.5,15.83-.18,31.65-.14,47.47-.07,11,0,18.61,6.75,18.94,16.36s-7,17.12-18,17.3q-23.73.41-47.47,0c-4.26-.07-5.49,1.4-5.45,5.33q.18,15.24,0,30.48c0,3.92,1.19,5.49,5.47,5.43,15.82-.25,31.65-.21,47.47,0,11,.13,18.24,7.46,18,17.74-.19,6.95-5.7,13.52-12.86,15.35-3.59.92-7.26.79-10.92.79-14.33,0-28.65.1-43-.07-3.34,0-4.25,1-4.19,4.26.19,11,.25,22,0,33-.06,3.21,1,3.91,3.93,3.89,15-.12,30-.08,45,0,1.73,0,3.71-.81,5.13,1l1.73,0c5-.41,10.83,3.17,13.42,8.29,2.92,5.8,2.23,13.34-1.84,17.78-2.84,3.09-6.11,5.61-10.56,5.94-16,.12-31.93.27-47.89.36-9,.05-8.85,0-9,8.8-.14,6.63.94,13.31-.8,19.88-.08.45-.15.91-.23,1.36a11.38,11.38,0,0,1,.59,6.87c-.92,4.15,1,4.73,4.51,4.71,16.49-.12,33-.18,49.48,0,12.82.11,21.13,12.26,16.16,23.47-1.21,2.73-2.78,5.33-5.83,6.5a16.2,16.2,0,0,1-10.65,3.38c-5.8-.07-11.6.1-17.4.16h0l-2-.2.22-.3-1.21.07c-9.46.07-18.92.31-28.38.15-3.55-.06-4.53,1.16-4.48,4.57.18,10.79.24,21.59,0,32.37-.1,4.11,1.42,4.87,5.17,4.85,16.6-.13,33.2.05,49.8.13,8.89.66,15.37,6.81,16.17,15.35.75,8-4.59,15.14-13.35,17.4a32.69,32.69,0,0,1-7.92.73c-14.82.07-29.65.15-44.47-.06-4-.06-5.08,1.33-5.07,5.18,0,9.48.58,19-.31,28.44.25,7.75.25,7.73,8,7.75q24,.09,47.9.22c8,1.31,13.36,6,14.91,13.12,1.48,6.78-1,12.5-7.31,17.06a9.72,9.72,0,0,1-6.5,1.86c-1.6,1.82-3.75,1-5.63,1-15.32.09-30.64.18-46,0-3.92,0-5.56.63-5.41,5.09.36,10.14.31,20.32,0,30.47-.16,4.71,1.12,6.31,6,6.23,16.15-.27,32.31-.2,48.46,0a16.57,16.57,0,0,1,16.46,15.57c.44,9.64-6.78,17.42-17.07,17.56-17.31.22-34.64,0-51.95,0-2.24,1.54-1.49,3.91-1.49,5.95-.06,19.78,0,39.56-.05,59.34,0,1.65-.22,3.29-.33,4.94l.24,1.38c4.29,21.41,17.49,33.24,38.92,36.25ZM513.69,79a1.92,1.92,0,0,0-.63-.14,9.37,9.37,0,0,0-2.92.72h0a9.37,9.37,0,0,1,2.92-.72A1.92,1.92,0,0,1,513.69,79Zm-194,230.76h0a3.54,3.54,0,0,1,1.92,1.21A3.54,3.54,0,0,0,319.69,309.71Zm19.95,19.91a3.09,3.09,0,0,0,2.47,1.28l.05,0-.05,0a8.66,8.66,0,0,0,1.28,1.75,8.66,8.66,0,0,1-1.28-1.75,3.09,3.09,0,0,1-2.47-1.28,3,3,0,0,1-.43-1.07A3,3,0,0,0,339.64,329.62Zm8.75,8.75a2.93,2.93,0,0,1-1.26-2.48l-.15-.14.15.14A2.93,2.93,0,0,0,348.39,338.37Zm9.72,8.53a8.62,8.62,0,0,0,1.27,1.75,8.62,8.62,0,0,1-1.27-1.75,2.92,2.92,0,0,1-3-3l-.16-.15.16.15A2.92,2.92,0,0,0,358.11,346.9Zm6.28,7.46a2.93,2.93,0,0,1-1.27-2.47l-.15-.15.16.15A2.9,2.9,0,0,0,364.39,354.36Zm9.72,8.54a8.55,8.55,0,0,0,1.27,1.74,8.55,8.55,0,0,1-1.27-1.74,2.94,2.94,0,0,1-3-3l-.15-.14.15.14A2.94,2.94,0,0,0,374.11,362.9Zm8,8,0,0,0,0a8.55,8.55,0,0,0,1.27,1.74,8.55,8.55,0,0,1-1.27-1.74,3.13,3.13,0,0,1-2.48-1.28A3.14,3.14,0,0,0,382.11,370.9Zm4.07,3.94a4.2,4.2,0,0,0-1-3,4.2,4.2,0,0,1,1,3l.87.94Zm-8-8a4.22,4.22,0,0,0-1-3,4.22,4.22,0,0,1,1,3l.87.94Zm-40-40a4.24,4.24,0,0,0-.89-2.94,4.24,4.24,0,0,1,.89,2.94l.88,1Zm-8-8a4,4,0,0,0-1.09-3.15,4.06,4.06,0,0,1,1.1,3.15l.87.94C330.77,319.47,330.48,319.16,330.18,318.85Zm-6.66-5.74-.33-.3ZM289.63,494.84c.33-.32.67-.62,1-.92C290.3,494.22,290,494.52,289.63,494.84Zm-1.47,3h0a3.74,3.74,0,0,1,1-2.51A3.74,3.74,0,0,0,288.16,497.84Zm0,0c-.22,0-.45.06-.66.11.21-.05.44-.08.66-.11Zm110,263.91,0,0ZM517.34,305.13c-3.45,3-7.58,3.8-12,3.81-8.78,0-17.57.1-26.35.16h0a4.82,4.82,0,0,0-3.92,0c0,.57,0,1.14,0,1.72a4.39,4.39,0,0,0-2.42.68,4.39,4.39,0,0,1,2.42-.68c0-.58,0-1.15,0-1.72l-7.1-.43c-17,.06-34,.16-51,.18q-44.24,0-88.48,0c-1.82,0-3.65.17-5.47.25h0l-2.92-.73-.54,1.07c-.27-.49-.78-.49-1.35-.4l1.48.75h0l-1.48-.75q-49.35-.07-98.7-.15c-8.25,0-14.87-3-18.24-11.11-1.6-2.91-1.32-6.11-1.33-9.24q-.1-23.35-.16-46.73l1.33-.22a17.92,17.92,0,0,0,0-7.4c-1.1-.36-1.15-1.41-1.46-2.29h0a130,130,0,0,0,0-20l.45-2c-.16-1.81-.33-3.62-.49-5.44-3.51,1.1-5.5,4-7.9,6.47,2.4-2.43,4.39-5.37,7.9-6.47l.42-2.63q0-51.9,0-103.79a16.33,16.33,0,0,1,14.08-18.11l5.09-.79h0c2,.06,4,.18,6,.18l115,.07c2.4-.35,4.83-1.12,7.05.62l2.74-.48,1.34-.66a4.71,4.71,0,0,0,.75,0h1.08a2,2,0,0,1,.25.62l1.79-.42c12.47.07,24.94.17,37.41.22q26.19.12,52.38.19c.48-.52.91-.42,1.29.12l61.85-.23h0l2,.55,0-.42L515.06,81c5.11,3.34,9.35,7.27,9.52,14,.12,1.48.34,3,.34,4.45q0,94.81,0,189.62c0,2,.26,4-.7,5.88A14.06,14.06,0,0,1,517.34,305.13ZM79.08,440.35a7,7,0,0,0-.82-.73A7,7,0,0,1,79.08,440.35Zm-2.89-1.48a3.13,3.13,0,0,1,1.62.44,3.13,3.13,0,0,0-1.62-.44Z"/><path class="cls-12" d="M639.29,442.05c1.38.24,3,.35,3.94,1.76l1.8-.05,4.1,1.12c1.53-.8,4,2.55,4.81-.95.75-3.22-2.11-3.17-4-3.76-3.27-1-6.6-1.92-9.91-2.86-1.59,0-3.89-1.79-4.42,1.14C635.15,441,637.09,441.68,639.29,442.05Z"/><path class="cls-12" d="M637.7,352.93c4.62,1.21,9.22,2.52,13.84,3.73.88.23,2.06.61,2.41-.79a2.09,2.09,0,0,0-1.4-2.78c-5.07-1.44-10.16-2.79-15-4.11-1.15,0-2,.12-2,1.21C635.36,351.77,636.21,352.54,637.7,352.93Z"/><path class="cls-12" d="M637.08,264.93c4.78,1.31,9.56,2.62,14.35,3.88.9.23,2.08.61,2.46-.75.32-1.17.21-2.43-1.23-2.83-5.09-1.42-10.2-2.76-15.65-4.22a1.38,1.38,0,0,0-1.46,1.24A2.05,2.05,0,0,0,637.08,264.93Z"/><path class="cls-12" d="M634.36,525.5c-.07.68-.13,1.36-.19,2l1.09.25.79,2.05h0c0,2.16-.1,4.32-.1,6.48q0,119,0,238c0,2.15-.22,4.3-.34,6.45,0,.3,0,.61,0,.91-1.1,2.55-3.22,3-5.73,3q-102.89-.15-205.75-.26H378.21l-2.14.26h0l-2.73.22c-1.83-.07-3.66-.2-5.49-.2H88.46c-6.54,0-7.55-.71-7.22-7.06.25-4.73-1.21-6.79-6-6.24-.57.06-1.2-.44-1.8-.68-2.72-.81-4.31-.49-3,2.89.6,1.53,1.06,3.13,1.77,4.61,8,16.49,21.26,24.62,39.47,24.63q122.2.06,244.4,0l1.93-.09c0-.35.08-.7.11-1.05h0c0,.35-.07.7-.11,1.05,1.49,0,3,.07,4.49.07q121.32,0,242.64,0c2,0,4,.2,6,.31l1.93,0c14.08-1.19,25.74-6.69,34-18.59,2.78-4,3.58-8.85,6.4-12.74a2.33,2.33,0,0,1,.31-3.07c.1-3.83.29-7.66.29-11.49q0-69.24,0-138.47,0-44.49-.11-89C647.42,528.52,641.17,525.74,634.36,525.5Z"/><path class="cls-12" d="M628,68.8c.67,0,1.34.08,2,0,3.84-.32,5.46,1.7,5.62,5.27.06,1.49.09,3,.09,4.48,0,31.07.09,62.14,0,93.21,0,3.6.84,5.69,4.59,6.17a26.26,26.26,0,0,1,3.82,1.09,25,25,0,0,1,4.35,1c5,2.12,5.65-.14,5.63-4.63-.15-33.79,0-67.6-.15-101.4C653.81,52.69,639.1,36.32,618,33.44c.07,8.61.17,17.21.2,25.82C618.27,68.8,618.25,68.79,628,68.8Z"/><path class="cls-12" d="M666.94,494a.77.77,0,0,0-.54,0,2.7,2.7,0,0,0,.08,2.57C666.64,495.69,666.79,494.84,666.94,494Z"/><path class="cls-12" d="M666.45,523l-.15,3.58a1,1,0,0,0,.55.14C666.79,525.5,667.22,524.2,666.45,523Z"/><path class="cls-12" d="M351.32,79.63l.32,0,.32,0a3.66,3.66,0,0,1,.1-.73,4.71,4.71,0,0,1-.75,0C351.32,79.13,351.32,79.38,351.32,79.63Z"/><path d="M243.16,274.43V214.35c2.63-.29,5.27-.65,7.91-.85a76.19,76.19,0,0,1,18.17.38c8.92,1.48,16.12,5.51,20.49,13.73A29.6,29.6,0,0,1,293,240.28a37.33,37.33,0,0,1-3.51,18.87c-3.82,7.66-10.16,12.11-18.3,14.26-6.61,1.75-13.34,1.86-20.11,1.52C248.46,274.79,245.87,274.6,243.16,274.43Zm15.48-5.61c1.85-.18,4.46-.27,7-.72,8.59-1.54,14.74-6.16,17.53-14.62a32.91,32.91,0,0,0,.84-17.63c-1.71-7.74-6.44-12.77-14-15.06-5.83-1.76-11.75-1.57-17.7-.81-1.15.15-1.37.64-1.36,1.7q0,18.6,0,37.2c0,2.76,0,5.52,0,8.28,0,.83.19,1.23,1.11,1.26C254,268.48,255.93,268.65,258.64,268.82Z"/><path d="M333.52,133.56c1.17.49,2.46.92,3.64,1.55,5.93,3.17,8.9,8.12,8.46,14.87s-3.85,11.54-10.08,14.23a32.71,32.71,0,0,1-11.08,2.36,93.5,93.5,0,0,1-16.64-.46c-.15,0-.3-.07-.52-.12V106c2.8-.3,5.6-.72,8.42-.9,5.31-.33,10.63-.49,15.85.85a17.1,17.1,0,0,1,8.42,4.82c5.23,5.61,4.45,14.86-1.72,19.82A48.53,48.53,0,0,1,333.52,133.56ZM315.19,137V160.1a1.41,1.41,0,0,0,.36.17c4.31.43,8.62.61,12.86-.53,3.23-.86,6-2.41,7.66-5.49,3.5-6.58.29-13.87-7.1-16.19C324.48,136.66,319.87,137.14,315.19,137Zm0-6c3,0,5.92.09,8.82,0a13.66,13.66,0,0,0,6.81-2,9.27,9.27,0,0,0,4.51-9.47c-.42-3.91-2.66-6.33-6.27-7.51-4.55-1.49-9.18-1.17-13.87-.51Z"/><path d="M456.93,135.3a34.87,34.87,0,0,1-3.66,17.27c-5,9.49-13,14.2-23.64,14.56a25.56,25.56,0,0,1-19.07-6.93,28.31,28.31,0,0,1-8.37-15.84c-1.59-8.45-1.09-16.76,2.77-24.57,4.79-9.67,12.68-14.86,23.5-15.37,14.44-.68,24.92,8.39,27.78,22.42a39.85,39.85,0,0,1,.67,4.62C457,132.73,456.93,134,456.93,135.3Zm-8,.28c-.36-2.61-.56-5.25-1.13-7.81-1.2-5.4-3.63-10.15-8.13-13.6a17.71,17.71,0,0,0-26.35,6.58A30.85,30.85,0,0,0,410,132.2c-.62,6.62.16,13,3.5,18.9,3.43,6.05,8.55,9.56,15.64,9.59s12.12-3.27,15.61-9.22C447.67,146.58,448.68,141.21,448.94,135.58Z"/><path d="M502.4,243.57c-.22,5.84-1.1,11.51-3.71,16.76-4.7,9.46-12.47,14.39-22.93,15.11-13.66.93-24.93-7.51-28.09-21.2-2.19-9.48-1.6-18.79,3.12-27.48,5.73-10.55,16.15-14.94,27-13.95,12.37,1.14,21.07,9.77,23.59,22.33C501.9,237.91,502.06,240.76,502.4,243.57Zm-8.46-1.23a78.1,78.1,0,0,0-1.53-8.18,21.22,21.22,0,0,0-7.57-11.65,17.68,17.68,0,0,0-26,5.92c-3.15,5.62-4.08,11.71-3.77,18a27.57,27.57,0,0,0,4.81,14.85,17.51,17.51,0,0,0,29.15-.1C492.61,256,493.73,250.13,493.94,242.34Z"/><path d="M387.89,248.32v26.17h-7.81V214.33c2.14-.27,4.34-.63,6.55-.81a68.36,68.36,0,0,1,15.79.14A19.19,19.19,0,0,1,412.63,218a14.78,14.78,0,0,1,4.9,12.15c-.25,7.34-4.06,12.24-10.82,14.93l-.44.19s0,.06-.13.18c.52.26,1,.5,1.53.77a13.2,13.2,0,0,1,6.34,8.24c1.19,3.93,2.05,8,3.11,11.93.72,2.69,1.55,5.36,2.36,8.16-2.48,0-5,0-7.55,0-.3,0-.72-.59-.84-1-.9-3-1.77-6.05-2.59-9.1-.76-2.81-1.32-5.68-2.2-8.45-1.45-4.54-4.54-7.32-9.4-7.64C394,248.16,391,248.32,387.89,248.32Zm.06-6.25c3.48,0,6.87.14,10.24-.06a15.6,15.6,0,0,0,4.95-1.28,10.69,10.69,0,0,0,6.51-10.64c-.38-5.27-2.95-8.52-7.84-10a24.87,24.87,0,0,0-8.54-.78c-1.77.09-3.54.33-5.32.5Z"/><path d="M356.26,105.9c3.3-.31,6.59-.74,9.89-.91,5.11-.26,10.22-.33,15.26.91,14.63,3.62,14.8,19.88,8,26.61a18.67,18.67,0,0,1-6,4.05c-.35.14-.7.3-1,.44a37,37,0,0,1,3.72,2.58c2.75,2.43,4,5.72,4.87,9.17,1.27,4.91,2.53,9.82,3.82,14.72.23.88.61,1.72,1,2.7-2.6,0-5.11,0-7.62,0-.33,0-.82-.59-.94-1q-1.41-4.77-2.69-9.57c-.64-2.39-1.06-4.84-1.8-7.2-1.77-5.69-4.85-8.07-10.83-8.41-2.55-.15-5.11,0-7.84,0v26.17h-7.8Zm7.89,5.7v22.46c3.79-.15,7.52-.06,11.18-.51a14.76,14.76,0,0,0,5.85-2.25c3.86-2.49,5-6.36,4.5-10.76a9.46,9.46,0,0,0-6.07-8.13C374.58,110.32,369.38,110.77,364.15,111.6Z"/><path d="M371.12,274.57c-2.75,0-5.34,0-7.93-.05-.29,0-.69-.55-.82-.92q-3-8.53-5.82-17.11c-.27-.8-.59-1.11-1.48-1.1-6.44,0-12.88,0-19.31,0h-1.13c-2.11,6.4-4.21,12.76-6.32,19.13h-8.14c.21-.69.38-1.32.59-1.94q9.78-28.79,19.55-57.58c.35-1,.74-1.46,1.9-1.4,2.35.11,4.71.07,7.07,0a1.22,1.22,0,0,1,1.42,1q6.32,18.65,12.7,37.28,3.64,10.65,7.28,21.29C370.82,273.62,370.94,274,371.12,274.57Zm-25.77-53.08c-2.88,8.92-5.89,18.27-8.9,27.63h17.91Z"/><path d="M243.18,105.42H251V159.6h26v6.49H243.18Z"/><path d="M428.62,213.68h7.74v60.83h-7.74Z"/><path d="M303.26,213.68H311V274.5h-7.72Z"/><path d="M285.75,105.41h7.73V166.1h-7.73Z"/><path class="cls-13" d="M258.64,268.82c-2.71-.17-4.66-.34-6.61-.4-.92,0-1.12-.43-1.11-1.26.05-2.76,0-5.52,0-8.28q0-18.6,0-37.2c0-1.06.21-1.55,1.36-1.7,6-.76,11.87-.95,17.7.81,7.59,2.29,12.32,7.32,14,15.06a32.91,32.91,0,0,1-.84,17.63c-2.79,8.46-8.94,13.08-17.53,14.62C263.1,268.55,260.49,268.64,258.64,268.82Z"/><path class="cls-13" d="M315.19,137c4.68.1,9.29-.38,13.78,1,7.39,2.32,10.6,9.61,7.1,16.19-1.64,3.08-4.43,4.63-7.66,5.49-4.24,1.14-8.55,1-12.86.53a1.41,1.41,0,0,1-.36-.17Z"/><path class="cls-13" d="M315.2,131V111.45c4.69-.66,9.32-1,13.87.51,3.61,1.18,5.85,3.6,6.27,7.51a9.27,9.27,0,0,1-4.51,9.47,13.66,13.66,0,0,1-6.81,2C321.12,131.09,318.21,131,315.2,131Z"/><path class="cls-13" d="M448.94,135.58c-.26,5.63-1.27,11-4.15,15.89-3.49,5.95-8.65,9.25-15.61,9.22s-12.21-3.54-15.64-9.59c-3.34-5.88-4.12-12.28-3.5-18.9a30.85,30.85,0,0,1,3.29-11.45,17.71,17.71,0,0,1,26.35-6.58c4.5,3.45,6.93,8.2,8.13,13.6C448.38,130.33,448.58,133,448.94,135.58Z"/><path class="cls-13" d="M493.94,242.34c-.21,7.79-1.33,13.7-4.92,18.89a17.51,17.51,0,0,1-29.15.1,27.57,27.57,0,0,1-4.81-14.85c-.31-6.34.62-12.43,3.77-18a17.68,17.68,0,0,1,26-5.92,21.22,21.22,0,0,1,7.57,11.65A78.1,78.1,0,0,1,493.94,242.34Z"/><path class="cls-13" d="M388,242.07V219.84c1.78-.17,3.55-.41,5.32-.5a24.87,24.87,0,0,1,8.54.78c4.89,1.45,7.46,4.7,7.84,10a10.69,10.69,0,0,1-6.51,10.64,15.6,15.6,0,0,1-4.95,1.28C394.82,242.21,391.43,242.07,388,242.07Z"/><path class="cls-13" d="M364.15,111.6c5.23-.83,10.43-1.28,15.46.81a9.46,9.46,0,0,1,6.07,8.13c.5,4.4-.64,8.27-4.5,10.76a14.76,14.76,0,0,1-5.85,2.25c-3.66.45-7.39.36-11.18.51Z"/><path class="cls-13" d="M345.35,221.49l9,27.63H336.45C339.46,239.76,342.47,230.41,345.35,221.49Z"/></g></g></svg>