<svg xmlns="http://www.w3.org/2000/svg" viewBox="0 0 179.13 111.97"><defs><style>.cls-1{fill:#228ac9;}.cls-2{fill:#09007e;}.cls-3{fill:#00bafd;}.cls-4{fill:#fefefe;}.cls-5{fill:#00bbfd;}.cls-6{fill:#fdfdfe;}.cls-7{font-size:35px;fill:#fff;font-family:Arial-BoldMT, Arial;font-weight:700;}.cls-8{letter-spacing:-0.02em;}</style></defs><g id="Capa_2" data-name="Capa 2"><g id="Capa_1-2" data-name="Capa 1"><path class="cls-1" d="M172.78,0H6.35A6.35,6.35,0,0,0,0,6.35v99.27A6.35,6.35,0,0,0,6.35,112H172.78a6.35,6.35,0,0,0,6.35-6.35V6.35A6.35,6.35,0,0,0,172.78,0Z"/><path class="cls-2" d="M89.58,49.37c9.92.05,19.31,2.1,28,7.08,20,11.44,16.59,34,0,43.71-9.11,5.32-19,7-29.43,6.78-9.84-.18-19.21-2.07-27.59-7.49C54.42,95.52,49.94,90.31,48.43,83c-1.83-8.76.44-16.27,7.2-22.27C62.7,54.47,71.2,51.45,80.39,50A74.41,74.41,0,0,1,89.58,49.37Z"/><path class="cls-3" d="M89.55,102.23c-10.63-.16-20.74-2.25-29.66-8.42-5.14-3.56-9-8.09-10.22-14.48-.81-4.32-.55-4.57,3.7-3.56a55.32,55.32,0,0,1,11.54,3.86,2.35,2.35,0,0,1,1.67,2.6c-.17,2.21,1.13,3.62,3.3,4,1,.19,1.7.47,2,1.51a1.7,1.7,0,0,0,.85,1c2.92.92,5.14,3.41,8.29,3.73a2.29,2.29,0,0,1,1.65,1c1.81,2,3.84,2.45,6.18,1.16a2.09,2.09,0,0,1,2.1-.21c2.15.9,4.22,1.07,6.27-.54.66-.51,2.09,0,2.77-.54a33.22,33.22,0,0,1,6.89-4.07A2.2,2.2,0,0,0,108,87.91c.22-1.11.86-1.37,1.87-1.6,2.9-.69,3.65-1.81,3.37-4.94-.09-1,.43-1.16,1.1-1.43a109,109,0,0,1,13.81-4.35c2-.51,1.56.85,1.48,1.86-.46,6-3.43,10.6-7.86,14.36-7.1,6-15.55,8.77-24.62,10A44.8,44.8,0,0,1,89.55,102.23Z"/><path class="cls-4" d="M96.4,84.33c1.36,1.55,2.56,2.94,3.79,4.3.76.84,1.54,1.7.42,2.75a2.47,2.47,0,0,1-3.53.21c-1.44-1.18-2.52-2.79-4.68-3.77.59,2,2,2.84,2.95,4,.83,1,.67,1.36-.51,1.67-2.31.61-3.73-.4-3.71-2.73a4.33,4.33,0,0,0-3.37-4.61c-1.15-.25-1.51-.68-1.61-1.75-.08-.84-.39-2-1.12-2.15-3.61-.6-6.34-3.67-10.54-3.07-2.28.33-4.87-1.13-7.39-.11-4.91-2.89-10.37-4.17-15.82-5.46-1.35-.32-1.45-.84-1-2.09A23.39,23.39,0,0,1,57.4,61.24,1.62,1.62,0,0,1,59.46,61a17.2,17.2,0,0,0,2.81,1c5.36,1.59,10.67,3.76,16.62,1.64C77.8,64.82,76.7,66,75.65,67.19c-1.51,1.74-1.21,3.06.95,3.83A6.61,6.61,0,0,0,83,70.43c1.75-1.24,3.47-2.54,5.25-3.75a5.09,5.09,0,0,1,6.42.13c5.68,4.37,11,9.19,16.37,13.88a2,2,0,0,1,.28,3.24,2.59,2.59,0,0,1-3.74.29c-1.66-1.36-3.22-2.86-4.83-4.29-.56-.49-1-1.15-1.84-1.29-.64.64,0,1,.29,1.33,1.44,1.5,2.91,3,4.39,4.43,1.1,1.08,1.8,2.27.52,3.58s-2.78,1.59-4.26.21c-1.07-1-2.08-2.06-3.16-3C98.15,84.67,97.73,83.87,96.4,84.33Z"/><path class="cls-4" d="M91.37,59.46a19.21,19.21,0,0,1,8,1.91,23.89,23.89,0,0,0,20.48.33,2.3,2.3,0,0,1,3,.54,23.13,23.13,0,0,1,6.25,10c.29,1,0,1.39-.89,1.59a86.82,86.82,0,0,0-15.49,5c-1.11.48-1.54-.27-2.15-.79L98.45,67.79c-.81-.7-1.65-1.38-2.52-2-3.4-2.51-5.73-2.54-9.22-.08-1.38,1-2.67,2.07-4,3.06a4.48,4.48,0,0,1-2.24,1.11c-1.37.1-3.15.56-3.88-.66-.62-1,1.1-1.77,1.8-2.59C81.77,62.61,85.57,59.2,91.37,59.46Z"/><path class="cls-5" d="M59.9,59.55C76,47.47,106.19,48.65,119.69,60a22.14,22.14,0,0,1-19.14.15c-4.15-1.88-8.39-2.94-13-1.9a11.45,11.45,0,0,0-4.06,1.57c-1.49,1-3.22,1.28-4.82,1.89C72.07,64.3,66.23,61.42,59.9,59.55Z"/><path class="cls-6" d="M83,90.29c-3,1.56-4.41.9-5.19-2.24-3.32,1.14-4.79.11-5.25-3.78-1.76.83-3.46,1-4.34-1.12A2.22,2.22,0,0,1,69.66,80c2-.75,2.94.49,3.54,2.16,3.31-2.58,5-2.31,6.48,1.09,3.74-1.86,5.13-.64,5,4.37,2.8-.49,4.46.26,4.94,2.24a3.34,3.34,0,0,1-2.34,4C85.27,94.36,83.76,93.16,83,90.29Z"/><text class="cls-7" transform="translate(64.54 34)">M<tspan class="cls-8" x="29.16" y="0">P</tspan></text></g></g></svg>