<svg xmlns="http://www.w3.org/2000/svg" viewBox="0 0 323.34 359.15"><defs><style>.cls-1{fill:#fff;}.cls-2{fill:#926745;}.cls-3{fill:#b38155;}.cls-4{fill:#407dbb;}.cls-5{fill:#336ea2;}.cls-6{fill:#cf9d71;}.cls-7{fill:#40b350;}.cls-8{fill:#1c924a;}.cls-9{fill:#cf9d70;}.cls-10{fill:#5e4537;}.cls-11{fill:#b2d7f0;}.cls-12{fill:#9dbdd2;}</style></defs><g id="Capa_2" data-name="Capa 2"><g id="Capa_1-2" data-name="Capa 1"><path class="cls-1" d="M83.84,206c0-2-.79-2.57-2.66-2.56q-15.33.09-30.66,0c-1.88,0-2.67.58-2.65,2.57q.09,15.33,0,30.65c0,2.16.8,2.8,2.86,2.76,5-.11,10,0,15,0s10.22-.07,15.32,0c2.06,0,2.87-.61,2.85-2.76Q83.72,221.37,83.84,206Z"/><path class="cls-1" d="M81,263.34q-15.14.11-30.28,0c-2,0-2.88.58-2.86,2.75q.12,15.32,0,30.65c0,2,.76,2.6,2.65,2.57,5.11-.08,10.22,0,15.32,0s10.22,0,15.33,0c1.88,0,2.68-.56,2.67-2.56q-.11-15.33,0-30.65C83.86,264,83.06,263.32,81,263.34Z"/><path class="cls-1" d="M101.71,272c0,2.55.67,3.47,3.35,3.42,8.83-.15,17.68-.07,26.52-.07V263.39l-21.29,0C101.6,263.36,101.7,263.37,101.71,272Z"/><path class="cls-1" d="M50.63,119.74c10.09-.08,20.19-.1,30.28,0,2.36,0,3-.86,2.94-3.06-.13-4.86,0-9.72,0-14.58,0-5.24-.06-10.47,0-15.7,0-1.9-.59-2.66-2.57-2.65q-15.33.1-30.65,0c-2.17,0-2.76.83-2.75,2.87q.11,15.13,0,30.28C47.85,119,48.49,119.76,50.63,119.74ZM63.72,111c2.48-8.31,10.68-16.21,19.16-25-7.19,11.3-14,21.58-17,32.17A113.08,113.08,0,0,0,49.78,104.9,27.48,27.48,0,0,1,63.72,111Z"/><path class="cls-1" d="M169.85,167.53c-19.94.12-39.88.06-59.82.06-8.4,0-8.27,0-8.33,8.5,0,2.86.9,3.57,3.63,3.53,10.72-.14,21.44-.06,32.15-.06h28c8.17,0,8,0,8.15-8.31C173.72,168.21,172.72,167.52,169.85,167.53Z"/><path class="cls-1" d="M105.34,95.82c14.7-.12,29.41-.06,44.12-.06h40c8.11,0,7.93,0,8.16-7.94.1-3.39-1-4.12-4.22-4.1-27.79.12-55.59.07-83.38.07-8.4,0-8.27,0-8.33,8.5C101.68,95.16,102.61,95.84,105.34,95.82Z"/><path class="cls-1" d="M83.85,146.9c0-2.31-.49-3.34-3.08-3.3-10,.13-19.94.1-29.9,0-2.27,0-3,.68-3,3,.1,10,.12,19.94,0,29.91,0,2.55.93,3.18,3.28,3.11,4.86-.15,9.72-.05,14.58-.05s10-.1,15,.05c2.43.08,3.24-.71,3.21-3.18Q83.68,161.67,83.85,146.9Z"/><path class="cls-1" d="M105,119.75c10.85-.1,21.69,0,32.53,0h28c8.16,0,8,0,8.15-8.32,0-3.06-1-3.73-3.84-3.71-19.81.11-39.63,0-59.44,0-8.91,0-8.81,0-8.69,8.88C101.74,119.12,102.58,119.77,105,119.75Z"/><path class="cls-1" d="M158.43,203.46c-8.85.12-17.69,0-26.54,0H109.83c-8.15,0-8,0-8.14,8.31,0,3.06,1,3.74,3.83,3.72,15.83-.12,31.65-.06,47.48-.06,8.9,0,8.8,0,8.69-8.88C161.65,204.1,160.82,203.43,158.43,203.46Z"/><path class="cls-1" d="M79.85,59a15.07,15.07,0,0,0,2.4.63A15.07,15.07,0,0,1,79.85,59Z"/><path class="cls-1" d="M215.76,354.75c-6.92-2.81-14-5.28-21.08-7.64Q187.11,344,179.43,341q7.68,2.91,15.25,6.07C201.78,349.47,208.84,351.94,215.76,354.75Z"/><path class="cls-1" d="M305.76,245.94l-5,1.83Z"/><path class="cls-1" d="M101.71,295.91c0,2.55.67,3.48,3.35,3.43,8.83-.16,17.68-.07,26.52-.08V287.33l-21.29,0C101.6,287.31,101.7,287.31,101.71,295.91Z"/><path class="cls-1" d="M159.19,333.53q-13.75-5.13-27.48-10.31l-.13-24,.13,24Q145.45,328.38,159.19,333.53Z"/><path class="cls-1" d="M171.49,224.58h0l-13.94,5.06Z"/><path class="cls-1" d="M79.3,58.77a12.77,12.77,0,0,1-4.15-2.71A12.77,12.77,0,0,0,79.3,58.77Z"/><path class="cls-1" d="M188.6,53.88c-7.47,0-14.95,0-22.43,0,.28-.83.63-1.64.91-2.46-.28.82-.63,1.63-.91,2.46C173.65,53.84,181.13,53.87,188.6,53.88Z"/><path class="cls-1" d="M272.63,258.36a37.39,37.39,0,0,0,10.13-4.62,18.45,18.45,0,0,0,6.78-1.64,18.24,18.24,0,0,1-6.78,1.63A37.11,37.11,0,0,1,272.63,258.36Z"/><path class="cls-1" d="M229.19,274.63l37.09-14.15h0Z"/><path class="cls-1" d="M105.87,155.7c27.79-.14,55.59-.08,83.38-.08,8.42,0,8.3,0,8.36-8.47,0-2.83-.84-3.58-3.61-3.56-14.71.13-29.41.06-44.12.06H109.5c-7.77,0-7.59,0-7.82,7.91C101.59,154.91,102.6,155.71,105.87,155.7Z"/><path class="cls-1" d="M141.8,227.46c-10.57,0-21.14,0-31.71,0-8.43,0-8.27,0-8.41,8.4-.05,3.17,1.18,3.66,3.91,3.62,8.71-.12,17.41,0,26.12,0l.72-.2h0l15-6C147.4,226.55,148.15,227.49,141.8,227.46Z"/><path class="cls-2" d="M322.63,239.27h0c-5.52,2.47-11.19,4.6-16.87,6.67l-5,1.83q-3.67,1.33-7.34,2.73c-1.29.5-2.57,1.07-3.86,1.6a18.45,18.45,0,0,1-6.78,1.64,37.39,37.39,0,0,1-10.13,4.62c-2.13.69-4.27,1.34-6.35,2.12l-37.09,14.15c-.58.22-1.13.49-1.7.74q0,41.79,0,83.59a3.92,3.92,0,0,0,1.09-.09q46.11-17.28,92.23-34.54c2.36-.87,2.44-2.28,2.44-4.24q0-38.65,0-77.3C323.22,241.62,323.73,240.29,322.63,239.27Z"/><path class="cls-3" d="M164.53,251.73q-15.48-5.8-31-11.59a2.19,2.19,0,0,1-.58-.39c-.18-.16-.36-.34-.55-.48h0l-.72.2-.13,23.92h0v23.94h0v11.93l.13,24q13.74,5.16,27.48,10.31a9.15,9.15,0,0,1,3.32,1.57h0c5.7,1.83,11.33,3.83,16.92,5.94q7.68,2.91,15.25,6.07c7.1,2.36,14.16,4.83,21.08,7.64,2.31.94,4.61,1.92,6.88,2.94l4.87,1.27q0-41.81,0-83.59Q196,263.55,164.53,251.73Z"/><path class="cls-4" d="M12.05,71.21Q11.84,196.9,12,322.59c0,14,10.55,24.58,24.46,24.58q79.13,0,158.24-.06Q187.11,344,179.43,341c-5.59-2.11-11.22-4.11-16.92-5.94-12.47,0-24.94.09-37.41.09-32.42,0-64.84,0-97.27.08-3.11,0-3.95-.84-3.95-3.95q.14-136.74,0-273.48c0-3.46,1.08-4.34,4.24-4,2.6.26,5.23.12,7.85.16l37.32-.13h0a43,43,0,0,1-1.6-14.93,43.92,43.92,0,0,1,1.59-9l-50.72,0a16.57,16.57,0,0,0-9.15,2.59C10.71,45.32,12.07,58.31,12.05,71.21Z"/><path class="cls-4" d="M179.43,341c-5.59-2.11-11.22-4.11-16.92-5.94h0C168.21,336.93,173.84,338.93,179.43,341Z"/><path class="cls-5" d="M194.68,347.11q-79.12,0-158.24.06C22.53,347.17,12,336.55,12,322.59q0-125.7.07-251.38c0-12.9-1.34-25.89,1.35-38.7C4.4,37.09,0,44.57,0,54.52Q0,194.61,0,334.67c0,14,10.38,24.44,24.3,24.45q95.39.08,190.76,0c2.61,0,5.21-.09,7.56-1.45-2.27-1-4.57-2-6.88-2.94C208.84,351.94,201.78,349.47,194.68,347.11Z"/><path class="cls-4" d="M167.51,47.87a7,7,0,0,1-.43,3.51c-.28.82-.63,1.63-.91,2.46,7.48,0,15,0,22.43,0,3.74,0,7.48,0,11.22,0s7.48,0,11.22-.1c3.54,0,4.56.77,4.55,4.46q-.21,72.36-.09,144.7c0,1.62,0,3.24.05,4.86h0a22.85,22.85,0,0,1,17.84-2.59,30.81,30.81,0,0,1,6,2.29q0-77.78,0-155.56c0-11.45-11.06-22-22.69-22-16.83-.05-33.66,0-50.49,0a17.92,17.92,0,0,1,1.49,6.65C167.89,40.33,167.31,44.13,167.51,47.87Z"/><path class="cls-6" d="M215.55,207.79l-27.14,10.42,71.63,27q11.35,4.28,22.72,8.51a18.24,18.24,0,0,0,6.78-1.63c1.29-.53,2.57-1.1,3.86-1.6q3.66-1.4,7.34-2.73l5-1.83c5.68-2.07,11.35-4.2,16.87-6.67q-22.56-8.58-45.11-17.15-19.09-7.29-38.15-14.63a30.81,30.81,0,0,0-6-2.29A22.85,22.85,0,0,0,215.55,207.79Z"/><path class="cls-6" d="M322.63,239.27h0c-5.52,2.47-11.19,4.6-16.87,6.67C311.44,243.87,317.11,241.74,322.63,239.27Z"/><path class="cls-6" d="M233.39,205.2a22.85,22.85,0,0,0-17.84,2.59h0A22.85,22.85,0,0,1,233.39,205.2Z"/><path class="cls-7" d="M101.73,18.38c-.58,17.06,12.45,30,29.61,29.56,12-.33,24.11-.07,36.17-.07-.2-3.74.38-7.54.2-11.29a17.92,17.92,0,0,0-1.49-6.65c-3.16-5-7.82-6.66-13.48-6-2.38.28-3.31-.5-3.14-3a99.87,99.87,0,0,0,0-10.09C149.44,5.29,144.31.06,138.76,0c-12.33-.07-24.67.05-37,.09C101.76,6.2,101.94,12.3,101.73,18.38Z"/><path class="cls-7" d="M167.71,36.58c.18,3.75-.4,7.55-.2,11.29h0C167.31,44.13,167.89,40.33,167.71,36.58Z"/><path class="cls-8" d="M73.28,53.84a14.8,14.8,0,0,0,1.87,2.22,12.77,12.77,0,0,0,4.15,2.71l.55.21a15.07,15.07,0,0,0,2.4.63,20.77,20.77,0,0,0,3.86.3q33.61-.22,67.23,0c5.44,0,9.73-1.57,12.83-6.07.28-.83.63-1.64.91-2.46a7,7,0,0,0,.43-3.51h0c-12.06,0-24.12-.26-36.17.07-17.16.46-30.19-12.5-29.61-29.56.21-6.08,0-12.18,0-18.27C94.8.4,90,5.07,89.81,11.85a60.45,60.45,0,0,0,0,7.85c.32,3.26-.55,4.71-4.14,4.28-5.3-.62-9.44,1.58-12.44,6a43.92,43.92,0,0,0-1.59,9A43,43,0,0,0,73.28,53.84Z"/><path class="cls-8" d="M71.68,38.91a43,43,0,0,0,1.6,14.93h0A43,43,0,0,1,71.68,38.91Z"/><path class="cls-8" d="M167.51,47.87h0a7,7,0,0,1-.43,3.51A7,7,0,0,0,167.51,47.87Z"/><path class="cls-9" d="M188.82,231.31c-5.8-2.19-11.56-4.49-17.33-6.73l-13.94,5.06-10.11,3.67h0l-15,6c.19.14.37.32.55.48a2.19,2.19,0,0,0,.58.39q15.48,5.82,31,11.59,31.49,11.81,63,23.64c.57-.25,1.12-.52,1.7-.74l37.09-14.15Q227.55,245.9,188.82,231.31Z"/><path class="cls-9" d="M132.43,239.27c.19.14.37.32.55.48-.18-.16-.36-.34-.55-.48Z"/><path class="cls-10" d="M260,245.22l-71.63-27-16.92,6.37h0c5.77,2.24,11.53,4.54,17.33,6.73q38.72,14.61,77.46,29.17h0c2.08-.78,4.22-1.43,6.35-2.12a37.11,37.11,0,0,0,10.13-4.63Q271.4,249.49,260,245.22Z"/><path class="cls-10" d="M171.49,224.58h0c5.77,2.24,11.53,4.54,17.33,6.73C183,229.12,177.26,226.82,171.49,224.58Z"/><path class="cls-10" d="M266.28,260.48q-38.73-14.58-77.46-29.17,38.72,14.61,77.46,29.17Z"/><path class="cls-11" d="M105.59,239.47c-2.73,0-4-.45-3.91-3.62.14-8.4,0-8.4,8.41-8.4,10.57,0,21.14,0,31.71,0,6.35,0,5.6-.91,5.64,5.85h0l10.11-3.67,13.94-5.06,16.92-6.37,27.14-10.42c0-1.62-.05-3.24-.05-4.86q0-72.35.09-144.7c0-3.69-1-4.5-4.55-4.46q-5.61.07-11.22.1c-3.74,0-7.48,0-11.22,0-7.47,0-14.95,0-22.43,0-3.1,4.5-7.39,6.11-12.83,6.07q-33.61-.22-67.23,0a20.77,20.77,0,0,1-3.86-.3,15.07,15.07,0,0,1-2.4-.63l-.55-.21a12.77,12.77,0,0,1-4.15-2.71,14.8,14.8,0,0,1-1.87-2.22L36,54c0,77.42-.26,154.85.14,232.27.09,18,13,32.56,31.37,36.26a44.87,44.87,0,0,0,8.88.74q27.69,0,55.36,0l-.13-24c-8.84,0-17.69-.08-26.52.08-2.68.05-3.35-.88-3.35-3.43,0-8.6-.11-8.6,8.58-8.6l21.29,0h0v-12c-8.84,0-17.69-.08-26.52.07-2.68.05-3.35-.87-3.35-3.42,0-8.6-.11-8.61,8.58-8.6l21.29,0h0l.13-23.92C123,239.46,114.3,239.35,105.59,239.47ZM47.86,86.62c0-2,.58-2.88,2.75-2.87q15.31.14,30.65,0c2,0,2.6.75,2.57,2.65-.08,5.23,0,10.46,0,15.7,0,4.86-.09,9.72,0,14.58.05,2.2-.58,3.08-2.94,3.06-10.09-.11-20.19-.09-30.28,0-2.14,0-2.78-.77-2.77-2.84Q48,101.77,47.86,86.62Zm36,210.13c0,2-.79,2.59-2.67,2.56-5.11-.08-10.22,0-15.33,0s-10.21,0-15.32,0c-1.89,0-2.67-.59-2.65-2.57q.09-15.33,0-30.65c0-2.17.81-2.77,2.86-2.75q15.14.11,30.28,0c2.06,0,2.86.61,2.84,2.76Q83.72,281.43,83.84,296.75ZM81,239.46c-5.1-.11-10.21,0-15.32,0s-10-.07-15,0c-2.06,0-2.88-.6-2.86-2.76q.12-15.33,0-30.65c0-2,.77-2.58,2.65-2.57q15.33.09,30.66,0c1.87,0,2.67.57,2.66,2.56q-.11,15.33,0,30.66C83.86,238.85,83.05,239.5,81,239.46Zm-.34-59.85c-5-.15-10-.05-15-.05s-9.72-.1-14.58.05c-2.35.07-3.31-.56-3.28-3.11.13-10,.11-19.94,0-29.91,0-2.3.75-3,3-3,10,.09,19.93.12,29.9,0,2.59,0,3.1,1,3.08,3.3q-.15,14.76,0,29.53C83.89,178.9,83.08,179.69,80.65,179.61ZM153,215.48c-15.83,0-31.65-.06-47.48.06-2.86,0-3.88-.66-3.83-3.72.13-8.31,0-8.31,8.14-8.31h22.06c8.85,0,17.69.07,26.54,0,2.39,0,3.22.64,3.26,3.14C161.8,215.48,161.9,215.48,153,215.48Zm12.52-35.92h-28c-10.71,0-21.43-.08-32.15.06-2.73,0-3.65-.67-3.63-3.53.06-8.5-.07-8.5,8.33-8.5,19.94,0,39.88.06,59.82-.06,2.87,0,3.87.68,3.82,3.72C173.54,179.56,173.69,179.56,165.52,179.56ZM110,83.79c27.79,0,55.59,0,83.38-.07,3.22,0,4.32.71,4.22,4.1-.23,7.94,0,7.94-8.16,7.94h-40c-14.71,0-29.42-.06-44.12.06-2.73,0-3.66-.66-3.64-3.53C101.76,83.79,101.63,83.79,110,83.79Zm.37,23.94c19.81,0,39.63.06,59.44,0,2.86,0,3.88.65,3.84,3.71-.14,8.31,0,8.32-8.15,8.32h-28c-10.84,0-21.68-.06-32.53,0-2.38,0-3.22-.63-3.25-3.14C101.59,107.73,101.49,107.73,110.4,107.73Zm-8.72,43.83c.23-7.91,0-7.91,7.82-7.91h40.38c14.71,0,29.41.07,44.12-.06,2.77,0,3.63.73,3.61,3.56-.06,8.47.06,8.47-8.36,8.47-27.79,0-55.59-.06-83.38.08C102.6,155.71,101.59,154.91,101.68,151.56Z"/><path class="cls-11" d="M131.58,263.39h0l.13-23.92-.13,23.92Z"/><path class="cls-11" d="M131.58,287.33h0v0Z"/><path class="cls-11" d="M199.82,53.87c-3.74,0-7.48,0-11.22,0C192.34,53.89,196.08,53.88,199.82,53.87Z"/><path class="cls-11" d="M215.55,207.79h0l-27.14,10.42Z"/><path class="cls-11" d="M75.15,56.06a14.8,14.8,0,0,1-1.87-2.22h0A14.8,14.8,0,0,0,75.15,56.06Z"/><path class="cls-11" d="M79.3,58.77l.55.21Z"/><path class="cls-11" d="M147.44,233.31h0l10.11-3.67-10.11,3.67Z"/><path class="cls-12" d="M76.35,323.24a44.87,44.87,0,0,1-8.88-.74c-18.34-3.7-31.28-18.23-31.37-36.26C35.7,208.82,36,131.39,36,54c-2.62,0-5.25.1-7.85-.16-3.16-.31-4.25.57-4.24,4q.15,136.74,0,273.48c0,3.11.84,4,3.95,3.95,32.43-.11,64.85-.06,97.27-.08,12.47,0,24.94-.06,37.41-.09a9.15,9.15,0,0,0-3.32-1.57q-13.75-5.13-27.48-10.31Q104,323.22,76.35,323.24Z"/><path class="cls-12" d="M162.51,335.1h0c-12.47,0-24.94.09-37.41.09C137.57,335.19,150,335.13,162.51,335.1Z"/><path class="cls-8" d="M82.88,86.05c-8.48,8.78-16.68,16.68-19.16,25a27.48,27.48,0,0,0-13.94-6.14,113.08,113.08,0,0,1,16.07,13.32C68.91,107.63,75.69,97.35,82.88,86.05Z"/></g></g></svg>