<svg xmlns="http://www.w3.org/2000/svg" viewBox="0 0 293.09 342.73"><defs><style>.cls-1{fill:#798d9e;}.cls-2{fill:#b1927f;}.cls-3{fill:#f3b689;}.cls-4{fill:#596573;}.cls-5{fill:#8b7062;}.cls-6{fill:#c9a597;}.cls-7{fill:#8c7062;}.cls-8{fill:#724d33;}.cls-9{fill:#d59975;}.cls-10{fill:#3c464f;}.cls-11{fill:#697c89;}.cls-12{fill:#74322a;}.cls-13{fill:#f0f0f0;}.cls-14{fill:#dad3ac;}.cls-15{fill:#d9d3ac;}.cls-16{fill:#dbd4ad;}.cls-17{fill:#087293;}.cls-18{fill:#087192;}.cls-19{fill:#774f34;}.cls-20{fill:#764e35;}.cls-21{fill:#ca936c;}.cls-22{fill:#b07d56;}.cls-23{fill:#dbd5ad;}</style></defs><g id="Capa_2" data-name="Capa 2"><g id="Capa_1-2" data-name="Capa 1"><path class="cls-1" d="M90.31,302.93c-27.59,0-55.18,0-82.76.17-3.36,0-4.4-2-4.86-4.51-.83-4.56-1.63-9.15-2-13.76-1.68-18.8.07-37.43,3.19-56,1.87-11.11,3.55-22.24,7.35-32.93,1.65-4.68,4.29-8.07,9.41-8.27,10.78-.42,19.93-5.91,29.81-9.13,8.18,6.32,17,11.33,27.17,13.79a41.67,41.67,0,0,0,8.81,1.31c2,.06,4,.27,5,2.55.79,2.43.63,4.94.63,7.42q0,45.38,0,90.74C92,297.28,92.46,300.38,90.31,302.93Z"/><path class="cls-2" d="M207.22,319c-15.71,6.63-30.77,14.65-46.25,21.75-1.67.77-3.32,3.35-5.71,1.16a12.1,12.1,0,0,1-.53-2.93c.06-19.74-.12-39.49.1-59.23a10.07,10.07,0,0,1,.36-2.45,4.66,4.66,0,0,1,2.94-3.16c8.62-3.47,16.57-8.33,25.11-12,3.12.14,5.57,2,8.28,3.21,3.76,1.67,4.25,1.45,4.28-2.72.08-11.44,0-22.89,0-34.33.06-8.45-.34-16.9.15-25.35,6.64-3.75,13.63-6.81,20.5-10.07,7.2-3.41,14.35-6.93,21.52-10.41a45.93,45.93,0,0,1,6-2.53c4-1.27,4.72-.77,4.75,3.35.05,7.63,0,15.27,0,22.91,0,6.81-.06,13.62,0,20.43,1.6,5.72.91,11.54.54,17.31-.22,3.29-3.07,4.53-5.71,5.65a237,237,0,0,0-22.74,11.31c-14,5.84-11.94,4.13-12.07,17.78-.11,11.25,0,22.5-.05,33.75C208.75,314.68,209.14,317.11,207.22,319Z"/><path class="cls-3" d="M90.44,195.28c-12.7-.06-24-4.4-34.59-11.15-2.25-1.44-4.44-2.95-5.44-5.61,10.79-3.94,16.75-11.77,18.59-23,.57-3.44.25-6.31-2.35-9.1-8.33-9-12.51-20.11-16.05-31.55a62.41,62.41,0,0,1,5-30.57,44.26,44.26,0,0,1,8-12c3.63-4,8.28-5.12,12.66-2.69C86,75.1,95.14,75.12,104.74,69c4.36-2.78,8.44-1.27,12.23,3.4,9.67,11.89,14.21,25.41,12.16,40.82-.17,1.27,0,2.68-.79,3.84A63.34,63.34,0,0,1,111.27,149c-3.09,6.08-8.4,9.86-14.32,12.44-4.26,1.86-5.39,4.39-5.32,8.73.14,7.93.56,15.87-.28,23.79A3,3,0,0,1,90.44,195.28Z"/><path class="cls-4" d="M90.31,302.93q.06-53.82.13-107.65l0-.32A3.64,3.64,0,0,1,93,193.72c13.95-.63,25.68-6.65,36.49-14.95l16.81,5.91.64.71a5.09,5.09,0,0,1,.72,2.36c.18,15.25.63,30.51-.22,45.75-.67,2.6-2.92,3.41-5,4.34-9.7,4.22-19.54,8.1-29.25,12.3-1.81.78-3.77,1.32-5,3a35.47,35.47,0,0,0-1.25,10.79c0,10.73,0,21.47,0,32.2,0,2.42.44,5-1.6,7Z"/><path class="cls-5" d="M105.28,303.13q0-21.12.1-42.24a21.51,21.51,0,0,1,2-9.93c14.36,7.53,29.22,14,43.65,21.38,1.88,1,4.08,1.52,5.24,3.57q0,30.91.06,61.83c0,1.44.41,3-1.06,4.13q-23.35-11.1-46.72-22.16a4.53,4.53,0,0,1-2.85-4.66C105.66,311.08,106.22,307.07,105.28,303.13Z"/><path class="cls-2" d="M292.1,245c1.46,1.14.87,2.76.87,4.17,0,19.14-.05,38.27.07,57.41,0,3.21-.83,5.08-3.94,6.53-15,7-30,14.34-44.93,21.53-1.26.61-2.52,2-3.95.26-.95-19.06-.35-38.14-.5-57.21a29.76,29.76,0,0,1,.43-7.42c.48-1.79,1.93-2.55,3.45-3.28,14.31-6.83,28.69-13.5,42.87-20.62C288.23,245.45,290,244.46,292.1,245Z"/><path class="cls-6" d="M248.27,226.87c0-14-.1-27.9,0-41.85,0-3.52.22-5.89-4.62-3.48-13.47,6.73-27.16,13-40.73,19.55-2.12,1-4.16,2.09-6.6,1.8-2.39.85-4.11-.81-6-1.66-12-5.37-23.67-11.3-35.52-16.93-3.32-1.58-5.88-2-8.45.83l0-.45c-.75-4.4,1.44-6.32,5.42-7.89,13.58-5.38,27-11.14,40.45-16.89,3.5-1.5,6.52-1.92,10.32-.25,14.13,6.21,28.45,12,42.76,17.78,3,1.19,3.89,2.87,3.87,6-.06,14.47.12,28.94.22,43.41A.72.72,0,0,1,248.27,226.87Z"/><path class="cls-7" d="M241.21,268.9q0,26.63.11,53.25c0,3-.2,5.94.72,8.88.48,1.53.6,3.42-1.82,3.83l-33-15.9c0-16.25.2-32.5,0-48.74,0-3.7.94-6,4.5-7.1,3.26-1,6-3.6,9.67-3.41.43-.23,1-.56,1.38-.39C229.18,262,235.89,264.13,241.21,268.9Z"/><path class="cls-8" d="M128.34,117c.34-10.18.18-20.28-3.9-29.91A51.45,51.45,0,0,0,114.88,72c-2.87-3.1-6.11-3.79-9.91-2a12.37,12.37,0,0,0-1.78.9c-8.6,6.17-17.09,5.54-26.08.44C71,67.88,67.8,69,63.25,74.43,54.87,84.5,52.14,96.49,51.53,109.2c-.09,1.9.8,4-.93,5.68-1.77-6.32-3.92-12.57-5.22-19-1.85-9.08-.12-18,2.07-26.89,13.13-7,26.74-12.31,41.91-12.43,12.07.29,23.75,2.32,34.48,8.15,3.07,1.66,6.6,2.17,9.47,4.21C137.75,85.6,135.15,101.54,128.34,117Z"/><path class="cls-4" d="M89.4.08c3.83-.51,6.39,1.4,6.69,5,.26,3.08,1.58,3.24,4,3.43,16.75,1.27,28.25,9.63,33.89,25.62,2.16,6.12,1.28,12.51,1.46,18.81-1.84,1.41-3.5.3-5.13-.42a100.08,100.08,0,0,0-35.82-8.12c-2.14-.11-4.41.08-5.86-2.06-1.2-2.68-.86-5.53-.87-8.33q-.06-13.39,0-26.81C87.8,4.69,87.51,2.13,89.4.08Z"/><path class="cls-1" d="M89.4.08l0,42.89-.59.57c-3.62,1.5-7.5.62-11.24,1.23a128.82,128.82,0,0,0-25.78,6.85c-2.26.87-4.52,2.15-7.13,1.32-.49-10.63.43-20.92,7.21-29.78,7.08-9.28,16.6-14,28.14-14.71,2.7-.15,4.15-.64,4.36-3.81C84.52,2,86.51.27,89.4.08Z"/><path class="cls-6" d="M241.21,268.9l-19.8-9.19c6.06-5,13.29-7.82,20.39-10.7,4.84-2,7.24-4.31,6.57-9.77-.49-4.07-.1-8.25-.1-12.37l1.11-.05c14.27,6,28.82,11.29,42.72,18.14-14.63,7.13-29.25,14.3-43.91,21.38A72.64,72.64,0,0,1,241.21,268.9Z"/><path class="cls-9" d="M129.53,178.77a5.6,5.6,0,0,1-2.86,3.85c-11,7.31-22.58,12.89-36.25,12.34,0-9.66,0-19.31-.1-29,0-2.49.55-3.65,3.28-4.46,7.22-2.16,12.17-7.83,17.67-12.58a32.1,32.1,0,0,0,6.31,21.38C120.68,174.61,125.55,176,129.53,178.77Z"/><path class="cls-10" d="M89.38,43A95,95,0,0,1,132.64,52a18.43,18.43,0,0,0,2.82.85c7.46,6.64,6.72,12.17-2.15,16-5.21.63-9-2.78-13.32-4.69-9.79-4.32-20.1-6-30.7-6.36a17.24,17.24,0,0,1,0-15Z"/><path class="cls-11" d="M89.3,42.91q0,7.49,0,15c-11.87.66-23.28,2.95-33.77,8.9A15.43,15.43,0,0,1,47.45,69q-13.64-5.35-2.81-16.06C59,47.09,73.53,42.34,89.3,42.91Z"/><path class="cls-12" d="M64.42,230.92c0,6.63.09,13.25,0,19.88-.06,6.1-3.29,9.55-9.37,9.9a107.69,107.69,0,0,1-10.93,0c-5.74-.26-9.49-4.05-9.63-9.89-.15-6.62,0-13.24,0-19.87.36-.33.64-.84,1.15-.91a100.2,100.2,0,0,1,27.62,0C63.76,230.1,64.05,230.6,64.42,230.92Z"/><path class="cls-13" d="M64.42,230.92,34.48,231c-3-.37-6.73.92-6.35-4.75.25-3.76,1.29-4.7,4.9-4.63,11.08.22,22.17.15,33.25,0,3.16,0,5.21.08,5.18,4.33,0,4-1.23,5.43-5.07,4.85A9.38,9.38,0,0,0,64.42,230.92Z"/><path class="cls-5" d="M146.31,185.13c.32-.55.95-1.11.92-1.64-.18-3.69,1.28-3.59,4.07-2.23,15,7.29,30,14.43,45,21.63a8,8,0,0,1,1.06,4.29q0,30.23,0,60.46a8.34,8.34,0,0,1-.42,1.67l-14.56-6.47c-.67-.06.13.2-.5,0-11.94-3.68-22.86-9.71-33.63-15.79-4.1-2.32-2-7.92-1.84-12.14Q146.32,210,146.31,185.13Z"/><path class="cls-6" d="M146.35,234.92a2.62,2.62,0,0,1,.84,2.72c-1.55,7.05,2.63,9.85,8.27,12.33,9.09,4,17.92,8.55,26.86,12.87-5.85,5.13-13.32,7.27-20,10.84a43.94,43.94,0,0,1-6,2.22q-23.44-11.22-46.87-22.47c-1-.49-2.17-1-2-2.47Z"/><path class="cls-14" d="M182.4,281.11c-1.41-5.44.87-8.53,5.89-10.28,2.33-.81,3-.33,3,2-.06,3.16,0,6.31,0,9.46,0,1.63-.45,3-2.05,3.63-2.1.83-4.4,3.44-6.17,2.18C181.08,286.69,182.68,283.43,182.4,281.11Z"/><path class="cls-15" d="M223.26,207.52c-1.15-4.26.61-7.48,5.64-9,2-.62,3.25-.63,3.27,1.85,0,3.14.12,6.28,0,9.42-.11,2.23-5.59,6.22-7.67,5.79-1-.21-1.18-1-1.19-1.86C223.24,211.89,223.26,210.07,223.26,207.52Z"/><path class="cls-16" d="M209.22,222.61c0-4.74-.12-8.84,0-12.94.16-4.28,4.23-4,6.83-5.3,1.09-.52,1.21,1.19,1.22,2.13,0,3.31.21,6.64,0,9.93C216.92,221.09,212.53,220.58,209.22,222.61Z"/><path class="cls-16" d="M176.33,285.46c.76,3.8-.16,7.29-5.33,8.67-2.1.56-2.75.14-2.74-1.88,0-3.31-.08-6.62.05-9.93.07-1.84,5.42-5.6,7-5.11,1,.32,1,1.2,1,2C176.35,281,176.33,282.86,176.33,285.46Z"/><path class="cls-17" d="M72.08,96.62c4.3.06,7.33,3.14,7,6.79-.37,3.89-2.88,6-6.6,6.2s-6.45-3.07-6.26-6.88C66.42,98.69,68.9,97,72.08,96.62Z"/><path class="cls-18" d="M114.21,103.65c-.17,3.55-2.68,5.53-6.3,6-3.43.41-6.68-3.05-6.55-6.65.14-4,2.36-6.1,6.24-6.3S114.25,99.39,114.21,103.65Z"/><path class="cls-19" d="M75.49,91.81c-5.1-.31-9.43,1.56-13.29,4.73-1.44,1.18-3.2,2.67-4.62.54-1.26-1.9.49-3.36,2-4.52A24.8,24.8,0,0,1,77.18,87c1.85.13,4.09.13,4,2.63s-2.34,2.3-4.19,2.2C76.48,91.79,76,91.82,75.49,91.81Z"/><path class="cls-20" d="M105.66,87a23.42,23.42,0,0,1,15.41,6c1.31,1.13,3.41,2.49,1.62,4.42-1.62,1.76-3.27.17-4.71-1a20,20,0,0,0-14.31-4.57c-1.75.11-4,.68-4.24-2-.21-3,2.33-2.6,4.24-2.77C104.33,86.93,105,87,105.66,87Z"/><path class="cls-21" d="M100.37,137.93a12.9,12.9,0,0,1-20,0C87.06,135.39,93.72,135,100.37,137.93Z"/><path class="cls-22" d="M100.37,137.93a146.25,146.25,0,0,0-20,0C86,131.17,96.32,131.19,100.37,137.93Z"/><path class="cls-14" d="M276.17,271.78c-.34,2,1,4.65-1,6.34s-4.61,3.74-7,3c-2-.63-.92-3.82-.88-5.83.09-3.71-1.58-8.06,3.56-10.2,4.22-1.76,5.18-1.29,5.31,3.41C276.19,269.51,276.17,270.51,276.17,271.78Z"/><path class="cls-23" d="M261.3,278.53c.77,3.64-.18,7-5,8.44-2.14.66-3.11.67-3.08-1.84,0-3-.05-5.95,0-8.93.06-2.46,4.3-6.17,6.67-6,1.47.1,1.37,1.17,1.4,2.12C261.33,274.13,261.3,276,261.3,278.53Z"/></g></g></svg>