<svg xmlns="http://www.w3.org/2000/svg" viewBox="0 0 1384.95 1523.84"><defs><style>.cls-1{fill:#3b4d7e;}.cls-2{fill:#747f9e;}.cls-3{fill:#fb6767;}.cls-4{fill:#fefe99;}.cls-5{fill:#fd4b3a;}.cls-6{fill:#fce73f;}.cls-7{fill:#a2abbe;}.cls-8{fill:#fbfdfe;}.cls-9{fill:#f3fbfe;}.cls-10{fill:#d3effa;}.cls-11{fill:#a3bbd0;}.cls-12{fill:#bdcedd;}.cls-13{fill:#01fdc0;}.cls-14{fill:#7efadd;}</style></defs><g id="Capa_2" data-name="Capa 2"><g id="Capa_1-2" data-name="Capa 1"><path class="cls-1" d="M1011.29,1511.28h326c8,0,10.69,1.53,10.82,6.06.13,4.78-2.73,6.46-11,6.46H46.82a35.35,35.35,0,0,1-6-.16,5.89,5.89,0,0,1-5.21-6.14,5.79,5.79,0,0,1,5.29-6,36.92,36.92,0,0,1,5.47-.17H312.43c-.28-2.44-2.18-2.75-3.39-3.61-26.2-18.75-40-44.18-40-76.42Q268.87,899.14,269,367c0-9.83,0-9.83-9.59-9.83-1.83,0-3.67.11-5.49,0-10-.71-17.16-5.57-21.27-14.77-.59-1.32-1-2.75-1.45-4.12-2.57-7-2.47-15.88-7.55-20.75s-13.76-5.22-20.31-8.9c-2.16-1.21-3.82-.26-5.59.75-5.71,3.24-11.39,6.56-17.18,9.67-11.19,6-22,4.38-31.06-4.49-5.87-5.77-11.8-11.47-17.58-17.32a23.79,23.79,0,0,1-4.72-27.77c3.07-6.42,6.42-12.71,9.89-18.92a6.2,6.2,0,0,0,.12-6.57c-2.23-4.38-4.79-8.78-6-13.48-1.37-5.54-4.72-7.54-9.73-8.64-5.34-1.16-10.58-2.8-15.82-4.36-11.34-3.35-18-11.91-18.33-23.75Q87,180.88,87,168c0-11,6.22-19.62,16.7-23.22,6.55-2.25,13.13-4.46,19.82-6.26a6.3,6.3,0,0,0,5-5c.91-3.15,1.69-6.53,3.46-9.19,5.15-7.77,3.77-14.44-1.34-21.78-4.51-6.47-9.16-13.2-9-21.91a24.26,24.26,0,0,1,6.59-16.91q9-9.57,18.37-18.86c8.05-8,18.54-9.61,28.72-4.75.83.4,1.62.85,2.45,1.23,6.74,3.09,12.89,9.8,19.9,9.24,6.73-.54,13.06-6,20.05-8.23,2.28-.72,2.89-2.43,3.44-4.44,1.69-6.16,3.45-12.3,5.24-18.42C230.17,6.76,238.86.27,252.25.17,260.11.11,268,0,275.83,0c12,0,20.37,6.11,24.1,17.66,2.08,6.42,4.2,12.84,6,19.34a6.47,6.47,0,0,0,4.5,4.89c6.51,2.35,13,7.16,19.35,6.85,6.06-.3,11.92-5.7,17.78-9,15.07-8.52,23.94-7.44,36.33,4.53,4.6,4.45,9.22,8.87,13.82,13.31,10,9.66,11.74,20.51,5.26,32.79-3.24,6.14-8.17,12-9.21,18.49-1,6.33,5.37,12,6.88,18.48,1.1,4.8,3.91,6.78,8.5,7.7,5.53,1.11,10.94,2.85,16.37,4.41,11.62,3.32,18.21,12,18.51,24.17.22,9.12.22,9.12,9.53,9.12H962.09c46.84,0,84.53,32,92,78.37a99.72,99.72,0,0,1,1,15.84q.08,258.66.07,517.31c0,7.61-1.42,6.72,7.1,6.78,4,0,8-.16,12.06-.15,14.38,0,25.11,7.86,29.53,21.62,3,9.38,6,18.78,8.71,28.23.84,2.88,2.16,4.6,5.11,5.67,8.22,3,16.38,6.22,24.42,9.68,3.34,1.45,6,1.39,9.13-.52,8.12-4.91,16.42-9.54,24.72-14.14,13-7.23,26.38-5.65,37.31,4.59,8.54,8,17,16.11,25.22,24.4a30.17,30.17,0,0,1,5.66,35.42c-4.38,8.82-9.05,17.51-13.8,26.14-1.55,2.83-1.78,5.15-.18,8.09a132.28,132.28,0,0,1,11.14,26.12c.69,2.39,2.1,3.39,4.52,4,9,2.31,18,4.93,26.91,7.43,16,4.45,24.58,15.4,24.87,31.84q.3,16.45.31,32.9c0,14.07-8.15,25.27-21.63,29.66-9.2,3-18.42,5.91-27.68,8.65-3.06.91-4.77,2.27-5.75,5.58a159.12,159.12,0,0,1-10.32,25.89,6,6,0,0,0,.2,6.5q7.54,12.7,14.67,25.66c7.15,13,5.1,27.16-5.23,37.78-7.77,8-15.38,16.15-23.26,24-10.58,10.58-24.37,12.51-37.71,5.54-8.4-4.4-16.83-8.77-25.15-13.34-2.48-1.36-4.48-1.6-7.06-.18a147.5,147.5,0,0,1-26.61,11.43c-2.79.88-3.52,2.73-4.16,5.08-2.55,9.33-5.06,18.67-7.76,27.95-4.14,14.18-15,22.56-29.8,23-6.75.21-13.52.48-20.27.27-4.34-.14-5.35,1.44-5.34,5.62q.23,64.18.08,128.37c0,12.79.31,25.62-.51,38.37-1.87,29.41-15.71,52.3-39.54,69.33-.89.64-1.8,1.25-2.67,1.92A10.65,10.65,0,0,0,1011.29,1511.28ZM950.45,185.61l-25.39-.17q-39.76-.06-79.54-.12-71.58,0-143.16.12l-342.25-.07c-21.53,0-39.85,8-55.11,22.85-17.07,16.62-23.88,37.55-23.89,60.88q-.06,577.28,0,1154.56a114.62,114.62,0,0,0,2.23,24.42c4.43,20.44,14.9,37,32.57,48.64a65.81,65.81,0,0,0,39.52,14c45.45.63,90.91.72,136.37.82,14.59,0,29.21.81,43.77-.83l25.19.14c20.52,0,41,1.94,61.55-.07q173.6,0,347.18,0c6.74,0,13.3-1.74,19.71-4,32.58-11.54,53.6-42.87,53.56-78.62q-.53-504.87-.21-1009.73c0-52.1.42-104.21-.2-156.31-.31-26.27-12.35-47.15-33.87-62.4-1.77-1.25-3.47-2.64-5.33-3.74C986.79,186.3,969,184.07,950.45,185.61ZM268.73,261.37c.37-2.89.73-5.79,1.1-8.68.89-6.92.89-6.88-6.36-7.08a62.54,62.54,0,0,1-6.53-.67c-27.11-3.61-49.27-24.05-54.73-50.48a65.49,65.49,0,0,1,29.41-69.07c23.17-14.31,53.76-12.4,74.84,4.7,15,12.19,22.68,28.2,24.21,47.56l15.38-4.2c14.72-1,29.46-.43,44.19-.66,8.53-.14,17.08.64,25.59-.45,4.33,1.06,8.73.29,13.09.47a2.23,2.23,0,0,0,2.51-1.57,15.2,15.2,0,0,0-9.78-19.81c-7.88-2.3-15.78-4.51-23.73-6.56a8.41,8.41,0,0,1-6.64-6.4,106.63,106.63,0,0,0-10.09-23.59c-2-3.56-1.9-6.76.07-10.3,3.81-6.85,7.4-13.83,11-20.8,3.3-6.35,2.72-11-2.17-15.93q-8.28-8.38-16.79-16.55c-5.48-5.25-10.2-5.81-16.88-2.11q-10.54,5.82-21,11.87a9.21,9.21,0,0,1-8.83.65c-8.25-3.43-16.55-6.77-25-9.81a9.53,9.53,0,0,1-6.35-6.85c-2.18-7.35-4.45-14.66-6.71-22-2.4-7.78-6.35-10.81-14.38-10.81-7.31,0-14.61.12-21.92.27-7.76.17-11.74,3.23-13.92,10.67-2.26,7.7-4.52,15.4-6.61,23.15-.88,3.29-2.58,5.37-6,6.4a115.33,115.33,0,0,0-23.51,10.33c-3.81,2.18-7,2-10.74-.13-7-4-14.11-7.68-21.27-11.31-5.7-2.89-10.63-2.17-15,2.2-5.7,5.67-11.32,11.42-16.79,17.31s-5.84,10.16-1.77,17.32c3.88,6.82,7.71,13.67,11.76,20.4a8.38,8.38,0,0,1,.2,9.19,101.42,101.42,0,0,0-9.59,23.8c-1,4.12-3.46,6.09-7.27,7.21-7.35,2.15-14.65,4.48-22,6.76-7.55,2.37-10.49,6.17-10.47,14,0,7.3.31,14.6.43,21.9.13,8.29,2.9,12.06,10.77,14.29,7.55,2.13,15.08,4.36,22.7,6.19,3.88.93,5.91,3.09,7,6.75a108.57,108.57,0,0,0,10,23c2.06,3.58,1.9,6.78,0,10.3q-5.79,10.56-11.23,21.31c-3.11,6.14-2.46,10.58,2.33,15.43q8.49,8.56,17.27,16.83c5.49,5.18,9.63,5.64,16.35,1.94,6.87-3.79,13.75-7.57,20.48-11.62,3.48-2.09,6.56-2.42,10.23-.41a105.59,105.59,0,0,0,23.83,9.5c3.53.94,5.46,3.05,6.49,6.6,2.34,8,5.06,16,7.55,24,1.3,4.17,3.89,7.31,8.05,8.23,5.36,1.19,11.64,2.05,16.14-.17,3.3-1.63.68-8.06,1.15-12.32a15.65,15.65,0,0,0-.17-2.72ZM1055.5,922.68c-1.2,6.33-.15,12.74-.6,19.08-.26,3.64.58,4.84,4.74,4.87,33.53.25,59.25,15,75.21,44.31,15.86,29.11,14.34,58.81-3.57,86.7-16.58,25.82-41.45,37.89-71.78,39.32-2,.09-4.72-.82-4.55,2.86.32,6.72-.69,13.48.55,20.18a25.21,25.21,0,0,0-.54,3.73q-.06,41.22,0,82.42a25.35,25.35,0,0,0,.54,3.74c-1.22,6.71-.29,13.47-.51,20.21-.09,2.77,1.66,3.24,4,3.2,6.76-.12,13.52-.16,20.28-.22,10.28-.08,16.54-4.77,19.44-14.85q4.53-15.78,8.77-31.65c1-3.84,2.89-6.31,7-7.51a146.22,146.22,0,0,0,32.13-13.83c4.19-2.43,7.66-2.19,11.71,0q14.63,8.06,29.52,15.65c7.85,4,15.7,2.94,21.68-3q12-12,23.66-24.4c7-7.45,7.87-15,2.83-24-5.23-9.41-10.46-18.84-16-28.08-2.32-3.89-2.47-7.27-.38-11.27a162.74,162.74,0,0,0,12.84-32.53c1.07-3.94,3.4-6.1,7.31-7.24,10.33-3,20.59-6.3,30.84-9.55,10.54-3.35,15.13-9.53,15.07-20.71-.05-10.22-.4-20.45-.67-30.67-.29-10.83-5-16.85-15.43-19.75s-21.07-6-31.66-8.72a8.81,8.81,0,0,1-7-6.73,156.18,156.18,0,0,0-14.29-33.12c-2-3.65-1.72-6.64.25-10.21,5.31-9.58,10.33-19.33,15.34-29.07,4.71-9.17,3.56-16.49-3.82-23.83s-15.21-14.77-22.8-22.16-14.68-8.39-23.86-3.28q-14.85,8.27-29.52,16.84a9.11,9.11,0,0,1-8.8.65c-11.32-4.63-22.67-9.19-34.1-13.52a11.12,11.12,0,0,1-7.39-8q-4.73-16.29-10-32.41c-2.51-7.67-8.09-12.15-16.08-12.82-5.8-.48-11.69,0-17.54,0-2.33,0-3.38,1-3.29,3.25.28,6.92-.68,13.87.55,20.76a33,33,0,0,0-.56,4.28q0,43.41,0,86.82A34.8,34.8,0,0,0,1055.5,922.68ZM1132.61,1031c0-39.67-32.22-72.06-71.48-72.17-4.8,0-6.11,1.16-6.09,6q.3,66.6,0,133.21c0,5,1.52,6,6.14,6A72.71,72.71,0,0,0,1132.61,1031ZM266.3,128.2c-29.93-.07-54.6,25.21-53.1,54.41,1.57,30.48,27.74,53.26,57.47,50.24,3.25-.33,4.67-1.61,5.88-4.46a89.07,89.07,0,0,1,37.65-42.85c3.11-1.83,4.23-3.79,4.07-7.34C317.05,150.78,293.73,128.26,266.3,128.2Z"/><path class="cls-1" d="M9.42,1523.69a21.76,21.76,0,0,1-4.35,0,6.2,6.2,0,0,1-4.41-8.85c2.21-4.4,6.36-3.39,10.09-3.5,3.36-.1,6.62,0,8.29,3.75a6.1,6.1,0,0,1-4.72,8.62,27.61,27.61,0,0,1-4.9,0Z"/><path class="cls-1" d="M1375.42,1523.8c-3.32.06-6.71.25-8.54-3.37a6,6,0,0,1,1.19-7.5c2.37-2.31,12-2.43,14.58-.22a6,6,0,0,1,1.69,7.42C1383.13,1523,1381,1523.81,1375.42,1523.8Z"/><path class="cls-2" d="M315.87,1496.72c-17.67-11.64-28.14-28.2-32.57-48.64a114.62,114.62,0,0,1-2.23-24.42q0-577.28,0-1154.56c0-23.33,6.82-44.26,23.89-60.88,15.26-14.86,33.58-22.85,55.11-22.85l342.25.07q-3.79,13.08-7.6,26.18-46.62.06-93.23.09c-4.23,0-7.25,1.37-7.73,5.86-.4,3.79,2.77,6.27,7.82,6.28,16.45,0,32.91,0,49.36,0,13.16,0,26.31.2,39.46.31-.43,1.92-.82,3.84-1.29,5.75-1.92,7.8-5.15,15.25-6.4,23.24a15.19,15.19,0,0,1-1.64.17c-56.31,0-112.63.1-169-.07A38,38,0,0,1,495.67,250c-12.61-6-19.41-15.8-20.89-29.8-.89-8.4-1.62-8.51-9.53-8.51q-51.84,0-103.68,0c-2.92,0-5.92-.28-8.75.26-27.2,5.21-45.27,25.75-45.28,53.77q-.19,582.28,0,1164.56a63.23,63.23,0,0,0,2.65,17.2c2.5,8.9,7.84,16,13.68,22.76Z"/><path class="cls-2" d="M1008.44,199.7C1030,215,1042,235.83,1042.31,262.1c.62,52.1.2,104.21.2,156.31q0,504.87.21,1009.73c0,35.75-21,67.08-53.56,78.62-6.41,2.27-13,4-19.71,4q-173.6.13-347.18,0l1.29-5.77c1.54-6.83,4.76-13.23,5.14-20.34,2.37-.07,4.74-.18,7.12-.18q164.55,0,329.11,0c27.88,0,51.2-23.44,51.2-51.38q0-585,0-1170c0-6.29-1.48-12.18-3.53-18.11-2.51-7.29-7.9-12.6-11.84-18.88Z"/><path class="cls-3" d="M1055.5,1229.89a25.35,25.35,0,0,1-.54-3.74q-.06-41.2,0-82.42a25.21,25.21,0,0,1,.54-3.73c6.72-.3,13.41.12,20.16-1,36.24-5.91,63.26-24.88,80.72-57,11.2-20.62,14.6-42.84,11.25-66.12-4.48-31.08-19.8-55.44-45.29-73.51-20-14.18-42.37-20.56-66.84-19.68a34.8,34.8,0,0,1-.55-4.28q0-43.41,0-86.82a34.8,34.8,0,0,1,.55-4.28c3.11,0,6.26.31,9.31-.12,4.59-.64,6.32,1.42,7.52,5.59,3.37,11.72,7.29,23.28,10.75,35a9.11,9.11,0,0,0,6,6.38c18.68,7.27,37.34,14.55,55.94,22a9.67,9.67,0,0,0,9.25-.73c11.19-6.49,22.56-12.67,33.69-19.27,2.45-1.45,3.72-1.24,5.53.64,4.17,4.36,8.36,8.71,12.83,12.75,2.78,2.52,3.17,4.68,1.36,8-6.06,11.24-11.5,22.83-17.86,33.9-2.4,4.17-2.29,7.22.14,10.88,10.59,16,17.33,33.65,22.4,52,1,3.67,3,5.24,6.47,6.15,12.51,3.22,24.91,6.83,37.41,10.07,4.3,1.12,5.9,3.49,5.69,7.84-.26,5.29-.22,10.6,0,15.89.16,3.56-1.2,4.93-4.65,6-13.19,4.13-26.68,7.45-39.23,13.5-2.59,1.25-4.55,2.66-5.28,5.69-4.38,18-10.45,35.29-20.16,51.14-2.3,3.75-2.11,6.93.07,10.66,6.52,11.17,12.74,22.52,19.18,33.75,1.42,2.48,1.52,4.16-.48,6.72-4.2,5.36-9.4,9.69-13.92,14.68-1.43,1.59-2.56,1.72-4.65.59-11.71-6.33-23.82-12-35.29-18.72-4.86-2.86-8.32-2.07-12.3.54-15.71,10.34-33,16.91-51.1,21.65-3.27.85-4.82,2.44-5.66,5.7-3.26,12.67-6.92,25.24-10.16,37.92-1.14,4.45-3.22,6.36-8,5.91S1060.44,1229.89,1055.5,1229.89Z"/><path class="cls-4" d="M415.83,172.34c-8.51,1.09-17.06.31-25.59.45-14.73.23-29.47-.39-44.19.66-1.86-24.47-13.31-43.71-32.72-58.14-25.83-19.2-58.8-20.94-85.24-6.19-31.88,17.79-46.64,45.63-42.47,82.43C188.21,214.4,199.87,232.3,218,246a75.64,75.64,0,0,0,50.77,15.42V328.9a18.91,18.91,0,0,0-3.29.13c-5.95,1.19-8.38-1.69-9.75-7.22-2-8.12-4.83-16-7.28-24.06-.69-2.27-1.14-4.36-4.2-5-14.44-3-27.74-8.94-40.54-16.08a6,6,0,0,0-6.61.15c-5.49,3.26-11.1,6.33-16.66,9.46-13.07,7.36-13.83,7.17-23.83-4.29-1.89-2.17-1.92-3.84-.53-6.32,4.45-8,8.39-16.22,13-24.1,2.2-3.76,1.7-6.67-.48-10a122.41,122.41,0,0,1-15.84-36.48,7,7,0,0,0-5.78-5.67c-5.83-1.44-11.62-3.09-17.38-4.77-14.74-4.32-14.65-4.34-14.22-19.68.09-3.08,1.11-4.55,4.06-5.42,9.1-2.65,18.11-5.62,27.18-8.34,2.85-.85,4.54-2.11,5.27-5.37,2.61-11.61,6.13-23,12.58-33.09,4.41-6.86,4.93-12.6-.38-19.06-2.51-3-4-7-6-10.44C151,81,151.1,81.05,161.2,70.78c2.77-2.82,5.11-3.36,8.61-1.41,7.81,4.35,15.84,8.33,23.71,12.58,2.62,1.42,5,1.89,7.68.18a140.79,140.79,0,0,1,37.92-16.71c2.89-.82,4.81-2.2,5.58-5.25,1.42-5.65,3.1-11.23,4.57-16.87,3.89-14.89,3.87-14.71,19.19-14.9,4.18,0,5.8,1.52,6.83,5.21,2.31,8.25,5,16.38,7.37,24.62a7.34,7.34,0,0,0,4.89,5.29q20.9,8.13,41.68,16.58a6.17,6.17,0,0,0,6.13-.38c6-3.55,12-7,18-10.5,9.58-5.56,9.59-5.56,17.55,2.39a31.59,31.59,0,0,0,4.33,4.18c2.29,1.55,1.79,2.77.63,4.87-4.6,8.3-8.87,16.8-13.34,25.17-1.49,2.77-2,5.38-.25,8.25,7.27,11.9,13.18,24.4,16.44,38a6.73,6.73,0,0,0,5.39,5.42c8.64,2.24,17.16,4.92,25.82,7.07C414.21,165.68,417,167.37,415.83,172.34Z"/><path class="cls-5" d="M1055.5,1229.89c4.94,0,9.91-.36,14.8.11s6.87-1.46,8-5.91c3.24-12.68,6.9-25.25,10.16-37.92.84-3.26,2.39-4.85,5.66-5.7,18.07-4.74,35.39-11.31,51.1-21.65,4-2.61,7.44-3.4,12.3-.54,11.47,6.74,23.58,12.39,35.29,18.72,2.09,1.13,3.22,1,4.65-.59,4.52-5,9.72-9.32,13.92-14.68,2-2.56,1.9-4.24.48-6.72-6.44-11.23-12.66-22.58-19.18-33.75-2.18-3.73-2.37-6.91-.07-10.66,9.71-15.85,15.78-33.18,20.16-51.14.73-3,2.69-4.44,5.28-5.69,12.55-6,26-9.37,39.23-13.5,3.45-1.08,4.81-2.45,4.65-6-.23-5.29-.27-10.6,0-15.89.21-4.35-1.39-6.72-5.69-7.84-12.5-3.24-24.9-6.85-37.41-10.07-3.52-.91-5.45-2.48-6.47-6.15-5.07-18.34-11.81-36-22.4-52-2.43-3.66-2.54-6.71-.14-10.88,6.36-11.07,11.8-22.66,17.86-33.9,1.81-3.36,1.42-5.52-1.36-8-4.47-4-8.66-8.39-12.83-12.75-1.81-1.88-3.08-2.09-5.53-.64-11.13,6.6-22.5,12.78-33.69,19.27a9.67,9.67,0,0,1-9.25.73c-18.6-7.44-37.26-14.72-55.94-22a9.11,9.11,0,0,1-6-6.38c-3.46-11.69-7.38-23.25-10.75-35-1.2-4.17-2.93-6.23-7.52-5.59-3,.43-6.2.11-9.31.12-1.22-6.89-.26-13.84-.54-20.76-.09-2.27,1-3.27,3.29-3.25,5.85.05,11.74-.46,17.54,0,8,.67,13.57,5.15,16.08,12.82q5.27,16.13,10,32.41a11.12,11.12,0,0,0,7.39,8c11.43,4.33,22.78,8.89,34.1,13.52a9.11,9.11,0,0,0,8.8-.65q14.67-8.56,29.52-16.84c9.18-5.11,16.34-4,23.86,3.28s15.28,14.69,22.8,22.16,8.53,14.66,3.82,23.83c-5,9.74-10,19.49-15.34,29.07-2,3.57-2.3,6.56-.25,10.21a156.18,156.18,0,0,1,14.29,33.12,8.81,8.81,0,0,0,7,6.73c10.59,2.74,21.11,5.79,31.66,8.72s15.14,8.92,15.43,19.75c.27,10.22.62,20.45.67,30.67.06,11.18-4.53,17.36-15.07,20.71-10.25,3.25-20.51,6.52-30.84,9.55-3.91,1.14-6.24,3.3-7.31,7.24a162.74,162.74,0,0,1-12.84,32.53c-2.09,4-1.94,7.38.38,11.27,5.53,9.24,10.76,18.67,16,28.08,5,9,4.2,16.57-2.83,24q-11.65,12.36-23.66,24.4c-6,6-13.83,7-21.68,3q-14.88-7.61-29.52-15.65c-4-2.23-7.52-2.47-11.71,0a146.22,146.22,0,0,1-32.13,13.83c-4.07,1.2-5.94,3.67-7,7.51q-4.23,15.87-8.77,31.65c-2.9,10.08-9.16,14.77-19.44,14.85-6.76.06-13.52.1-20.28.22-2.31,0-4.06-.43-4-3.2C1055.21,1243.36,1054.28,1236.6,1055.5,1229.89Z"/><path class="cls-6" d="M415.83,172.34c1.12-5-1.62-6.66-5.94-7.74-8.66-2.15-17.18-4.83-25.82-7.07a6.73,6.73,0,0,1-5.39-5.42c-3.26-13.63-9.17-26.13-16.44-38-1.75-2.87-1.24-5.48.25-8.25C367,97.46,371.23,89,375.83,80.66c1.16-2.1,1.66-3.32-.63-4.87a31.59,31.59,0,0,1-4.33-4.18c-8-8-8-8-17.55-2.39-6,3.48-12,7-18,10.5a6.17,6.17,0,0,1-6.13.38q-20.76-8.47-41.68-16.58a7.34,7.34,0,0,1-4.89-5.29c-2.36-8.24-5.06-16.37-7.37-24.62-1-3.69-2.65-5.26-6.83-5.21-15.32.19-15.3,0-19.19,14.9-1.47,5.64-3.15,11.22-4.57,16.87-.77,3-2.69,4.43-5.58,5.25A140.79,140.79,0,0,0,201.2,82.13c-2.69,1.71-5.06,1.24-7.68-.18-7.87-4.25-15.9-8.23-23.71-12.58-3.5-2-5.84-1.41-8.61,1.41C151.1,81.05,151,81,158.08,93.27c2,3.48,3.46,7.39,6,10.44,5.31,6.46,4.79,12.2.38,19.06-6.45,10-10,21.48-12.58,33.09-.73,3.26-2.42,4.52-5.27,5.37-9.07,2.72-18.08,5.69-27.18,8.34-3,.87-4,2.34-4.06,5.42-.43,15.34-.52,15.36,14.22,19.68,5.76,1.68,11.55,3.33,17.38,4.77a7,7,0,0,1,5.78,5.67,122.41,122.41,0,0,0,15.84,36.48c2.18,3.32,2.68,6.23.48,10-4.61,7.88-8.55,16.13-13,24.1-1.39,2.48-1.36,4.15.53,6.32,10,11.46,10.76,11.65,23.83,4.29,5.56-3.13,11.17-6.2,16.66-9.46a6,6,0,0,1,6.61-.15c12.8,7.14,26.1,13.12,40.54,16.08,3.06.63,3.51,2.72,4.2,5,2.45,8,5.26,15.94,7.28,24.06,1.37,5.53,3.8,8.41,9.75,7.22a18.91,18.91,0,0,1,3.29-.13,15.65,15.65,0,0,1,.17,2.72c-.47,4.26,2.15,10.69-1.15,12.32-4.5,2.22-10.78,1.36-16.14.17-4.16-.92-6.75-4.06-8.05-8.23-2.49-8-5.21-15.93-7.55-24-1-3.55-3-5.66-6.49-6.6a105.59,105.59,0,0,1-23.83-9.5c-3.67-2-6.75-1.68-10.23.41-6.73,4-13.61,7.83-20.48,11.62-6.72,3.7-10.86,3.24-16.35-1.94q-8.76-8.28-17.27-16.83c-4.79-4.85-5.44-9.29-2.33-15.43q5.44-10.74,11.23-21.31c1.94-3.52,2.1-6.72,0-10.3a108.57,108.57,0,0,1-10-23c-1.1-3.66-3.13-5.82-7-6.75-7.62-1.83-15.15-4.06-22.7-6.19-7.87-2.23-10.64-6-10.77-14.29-.12-7.3-.42-14.6-.43-21.9,0-7.86,2.92-11.66,10.47-14,7.31-2.28,14.61-4.61,22-6.76,3.81-1.12,6.27-3.09,7.27-7.21a101.42,101.42,0,0,1,9.59-23.8,8.38,8.38,0,0,0-.2-9.19c-4-6.73-7.88-13.58-11.76-20.4-4.07-7.16-3.73-11.42,1.77-17.32s11.09-11.64,16.79-17.31c4.4-4.37,9.33-5.09,15-2.2C177.47,55.27,184.59,59,191.58,63c3.71,2.09,6.93,2.31,10.74.13a115.33,115.33,0,0,1,23.51-10.33c3.38-1,5.08-3.11,6-6.4,2.09-7.75,4.35-15.45,6.61-23.15,2.18-7.44,6.16-10.5,13.92-10.67,7.31-.15,14.61-.28,21.92-.27,8,0,12,3,14.38,10.81,2.26,7.32,4.53,14.63,6.71,22a9.53,9.53,0,0,0,6.35,6.85c8.41,3,16.71,6.38,25,9.81a9.21,9.21,0,0,0,8.83-.65q10.42-6,21-11.87c6.68-3.7,11.4-3.14,16.88,2.11q8.52,8.14,16.79,16.55c4.89,5,5.47,9.58,2.17,15.93-3.62,7-7.21,14-11,20.8-2,3.54-2.11,6.74-.07,10.3a106.63,106.63,0,0,1,10.09,23.59,8.41,8.41,0,0,0,6.64,6.4c7.95,2,15.85,4.26,23.73,6.56a15.2,15.2,0,0,1,9.78,19.81,2.23,2.23,0,0,1-2.51,1.57C424.56,172.63,420.16,173.4,415.83,172.34Z"/><path class="cls-7" d="M694.76,211.62q3.79-13.1,7.6-26.18,71.58-.06,143.16-.12,39.76,0,79.54.12c-1.6,8.8-5.71,17-6.74,25.92l-26.83.27c-6.93.07-8.58,1.66-9,8.67a34.9,34.9,0,0,1-24.05,30.89,40.09,40.09,0,0,1-12.36,2.06q-81.66.08-163.3-.08c1.25-8,4.48-15.43,6.4-23.23.47-1.91.86-3.83,1.29-5.75q16.15-.13,32.3-.25c4.17,0,7.26-1.33,7.24-6.16s-3.1-6.06-7.29-6.05C713.38,211.74,704.07,211.66,694.76,211.62Zm61.4.16v0c-1.64,0-3.29,0-4.93,0-4-.09-6.2,1.83-6.3,5.87s1.84,6.22,5.9,6.29c3.83.06,7.68.18,11.5-.1,3.54-.26,5-2.72,4.94-6.06s-1.49-5.66-5.08-5.94C760.19,211.65,758.17,211.78,756.16,211.78Z"/><path class="cls-5" d="M1055.5,922.68c24.47-.88,46.83,5.5,66.84,19.68,25.49,18.07,40.81,42.43,45.29,73.51,3.35,23.28-.05,45.5-11.25,66.12-17.46,32.15-44.48,51.12-80.72,57-6.75,1.1-13.44.68-20.16,1-1.24-6.7-.23-13.46-.55-20.18-.17-3.68,2.52-2.77,4.55-2.86,30.33-1.43,55.2-13.5,71.78-39.32,17.91-27.89,19.43-57.59,3.57-86.7-16-29.29-41.68-44.06-75.21-44.31-4.16,0-5-1.23-4.74-4.87C1055.35,935.42,1054.3,929,1055.5,922.68Z"/><path class="cls-7" d="M315.87,1496.72q4-13.23,8-26.46c12.22,10.9,26.49,14.64,42.82,14.52,58.45-.44,116.91-.1,175.37-.06.42,1.9-.69,3.49-1.1,5.22-1.65,7-4.61,13.61-5.39,20.81-14.56,1.64-29.18.87-43.77.83-45.46-.1-90.92-.19-136.37-.82A65.81,65.81,0,0,1,315.87,1496.72Z"/><path class="cls-6" d="M268.73,261.37A75.64,75.64,0,0,1,218,246c-18.09-13.65-29.75-31.55-32.34-54.4-4.17-36.8,10.59-64.64,42.47-82.43,26.44-14.75,59.41-13,85.24,6.19,19.41,14.43,30.86,33.67,32.72,58.14l-15.38,4.2c-1.53-19.36-9.19-35.37-24.21-47.56-21.08-17.1-51.67-19-74.84-4.7a65.49,65.49,0,0,0-29.41,69.07c5.46,26.43,27.62,46.87,54.73,50.48a62.54,62.54,0,0,0,6.53.67c7.25.2,7.25.16,6.36,7.08C269.46,255.58,269.1,258.48,268.73,261.37Z"/><path class="cls-7" d="M628.7,1484.71c-.38,7.11-3.6,13.51-5.14,20.34l-1.29,5.77c-20.51,2-41,0-61.55.07q4-13.08,7.91-26.17Z"/><path class="cls-7" d="M1008.44,199.7l-7.65,26.44a13.81,13.81,0,0,1-2.8-1.56,49.56,49.56,0,0,0-26.3-12.34c-9.21-1.42-18.55-.19-27.81-.77-.37-2.07.74-3.83,1.27-5.7,1.9-6.68,4.44-13.2,5.3-20.16,18.53-1.54,36.34.69,52.66,10.35C1005,197.06,1006.67,198.45,1008.44,199.7Z"/><path class="cls-2" d="M568.63,1484.72q-3.95,13.08-7.91,26.17l-25.19-.14c.78-7.2,3.74-13.83,5.39-20.81.41-1.73,1.52-3.32,1.1-5.22Z"/><path class="cls-2" d="M950.45,185.61c-.86,7-3.4,13.48-5.3,20.16-.53,1.87-1.64,3.63-1.27,5.7a231.85,231.85,0,0,1-25.56-.11c1-9,5.14-17.12,6.74-25.92Z"/><path class="cls-1" d="M918.32,211.36a231.85,231.85,0,0,0,25.56.11c9.26.58,18.6-.65,27.81.77A49.56,49.56,0,0,1,998,224.58a13.81,13.81,0,0,0,2.8,1.56c3.94,6.28,9.33,11.59,11.84,18.88,2,5.93,3.53,11.82,3.53,18.11q0,585,0,1170c0,27.94-23.32,51.38-51.2,51.38q-164.56.06-329.11,0c-2.38,0-4.75.11-7.12.18H542c-58.46,0-116.92-.38-175.37.06-16.33.12-30.6-3.62-42.82-14.52-5.84-6.81-11.18-13.86-13.68-22.76a63.23,63.23,0,0,1-2.65-17.2q-.08-582.27,0-1164.56c0-28,18.08-48.56,45.28-53.77,2.83-.54,5.83-.26,8.75-.26q51.84,0,103.68,0c7.91,0,8.64.11,9.53,8.51,1.48,14,8.28,23.78,20.89,29.8a38,38,0,0,0,16.49,3.26c56.32.17,112.64.09,169,.07a15.19,15.19,0,0,0,1.64-.17q81.64.06,163.3.07a40.09,40.09,0,0,0,12.36-2.06,34.9,34.9,0,0,0,24.05-30.89c.45-7,2.1-8.6,9-8.67ZM546.5,1472.21l26.4,0,60.28,0c2,.07,4,.19,6,.19H960.28c27.86,0,45.68-19.43,43.33-47.26.09-2,.27-4,.27-6q0-572.69,0-1145.39c0-2.37-.17-4.74-.26-7.11,1.59-22.47-17-42.45-39.76-42.59-21.39-.14-42.77,0-64.16-.11-3.47,0-4.87.76-5.75,4.49-5.2,22.16-23.78,37.06-46.22,37.07q-169.17.11-338.32,0a47.19,47.19,0,0,1-46-36.71c-.88-3.9-2.26-4.88-6.07-4.86-32.16.15-64.33,0-96.5.11-23.86.07-41.89,19.75-40.23,43.68-.08,2.55-.24,5.1-.24,7.66q0,571.64,0,1143.28c0,2.19.16,4.38.24,6.56-1,10.82.3,21.09,7.46,29.89,8.07,11.84,19.61,17.17,33.59,17.23,34.56.15,69.12.07,103.68.05Q505.92,1472.33,546.5,1472.21Z"/><path class="cls-1" d="M694.76,211.62c9.31,0,18.62.12,27.93.11,4.19,0,7.28,1.21,7.29,6.05s-3.07,6.14-7.24,6.16q-16.15.1-32.3.25c-13.15-.11-26.3-.27-39.46-.31-16.45,0-32.91,0-49.36,0-5,0-8.22-2.49-7.82-6.28.48-4.49,3.5-5.86,7.73-5.86Q648.14,211.74,694.76,211.62Z"/><path class="cls-1" d="M756.16,211.78c2,0,4-.13,6,0,3.59.28,5,2.59,5.08,5.94s-1.4,5.8-4.94,6.06c-3.82.28-7.67.16-11.5.1-4.06-.07-6-2.34-5.9-6.29s2.28-6,6.3-5.87c1.64,0,3.29,0,4.93,0Z"/><path class="cls-8" d="M1003.62,266.63c.09,2.37.26,4.74.26,7.11q0,572.7,0,1145.39c0,2-.18,4-.27,6-1,.19-1.44.92-2,1.7-8.82,12.9-20.91,20.23-36.67,20.29-44.06.16-88.13.06-132.19.06q-92.7,0-185.4-.1c-5.23,0-8,1.12-9,6.76-1.11,6.23-3.4,12.25-5.18,18.36l-60.28,0c.32-7.53,4-14.22,5.6-21.43.57-2.54.53-3.7-2.48-3.65q-9.56.19-19.11,0c-2.41-.05-3.58.85-4.29,3.11-2.28,7.25-4.67,14.48-6.12,22q-40.59.09-81.17.17c-34.56,0-69.12.1-103.68-.05-14-.06-25.52-5.39-33.59-17.23,1.45-4.47,3-8.92,4.32-13.43.51-1.74.66-3.81-1.22-4.93-4.7-2.79-6.86-7.86-10.56-11.53-.08-2.18-.24-4.37-.24-6.56q0-571.64,0-1143.28c0-2.56.16-5.11.24-7.66,1.56,0,2-1.3,2.85-2.25,9.13-10.67,20.17-18.34,34.6-18.49,34.91-.34,69.82-.06,104.74-.17,4.07,0,5.68,1.07,6,5.51a36.92,36.92,0,0,0,12.4,24.79c9.27,8.51,20.61,11.57,33.17,11.53,49.9-.19,99.81-.08,149.71-.08,1.28,0,2.56,0,3.83,0,2.79-.1,4,.53,3,3.83-8.76,29.29-17.34,58.62-26,87.94q-11.76,39.78-23.59,79.54-14.84,50.25-29.56,100.54c-6.75,23-13.15,46.19-20.21,69.15C568,641,565.45,652.72,560.8,663.79c-4.4-2.47-5.71-6-4.31-10.91,1.5-5.3,1.56-10.85,1.6-16.32.46-65.94-60.63-114.79-124.9-99.92-3.15.73-6.64,1.17-7.72,5.13s1.4,6.1,3.77,8.46q25.44,25.38,50.81,50.81c4.59,4.6,4.62,8.1.09,12.64q-22.83,22.94-45.76,45.76c-4.67,4.65-7.9,4.65-12.67,0C415.17,653,408.76,646.5,402.29,640c-10.86-10.86-21.67-21.76-32.59-32.57-5-4.94-9.88-3.63-11.83,3-.31,1-.59,2.12-.83,3.19-16,70.72,46.26,135.48,117.58,122.07,3.61-.68,5.68.13,8.09,2.56q36.15,36.38,72.47,72.59c4.76,4.77,4.76,4.76-.46,9.15-.83.7-1.58,1.52-2.35,2.29Q469,905.72,385.67,989.18C366,1008.93,357,1033.41,359.4,1061c3.4,39.69,24.19,68,61.56,81.72,36.9,13.51,70.93,5.7,99-22,55.18-54.44,109.74-109.52,164.54-164.36a27.7,27.7,0,0,0,4.93-5.82c1.72-3.14,2.89-2.63,5.07-.43q35.6,35.76,71.37,71.36c1.88,1.86,2.59,3.58,2,6.25a98.72,98.72,0,0,0-1,33.25c7.62,58.9,66.42,99.35,123.9,85.11,3.16-.78,6.7-1.23,7.78-5.1s-1.38-6.09-3.78-8.48q-25.06-25-50-50c-5.73-5.75-5.7-8.56-.06-14.21q21.9-21.93,43.83-43.83c6.15-6.15,8.77-6.15,15,0q25.21,25.2,50.43,50.41c5.67,5.65,10.66,4.29,12.6-3.44a98.58,98.58,0,0,0,2.08-37c-7.73-58.85-61.67-98-120.14-87.22-3.29.61-5-.3-7.06-2.36Q785,888.38,728.5,832.05c-3.4-3.37-2.91-4.93.19-8Q783,770.1,836.93,715.85a18,18,0,0,1,8.86-4.9c18.23-4.52,36.42-9.27,54.66-13.75a11.52,11.52,0,0,0,7.92-6q29.36-52.59,58.91-105.06c2.5-4.44,2.26-8-1.57-11.68q-16.34-15.86-32.18-32.2c-4.15-4.3-8.07-4.33-13.07-1.78-4.67,2.37-8.75,5.93-14,7.17a14.49,14.49,0,0,1,.93-5.88q6.12-20.37,12.09-40.8,14.61-49.73,29.2-99.46c7-23.9,14.22-47.76,21.26-71.67,6.62-22.5,13.09-45,19.72-67.54,1.62-5.49,3.09-5.61,7.2-1.28C998.89,263.14,999.56,267,1003.62,266.63ZM661.75,1276v0H501c-17,0-29.89,12.66-30,29.72-.15,26.7-.07,53.39,0,80.09a29.6,29.6,0,0,0,7.87,20.48c6.93,7.58,15.85,9.76,25.78,9.75q157.44-.12,314.87-.07c1.09,0,2.19,0,3.29,0,18.08-.81,29.84-13,29.84-31V1307c0-18.9-12.22-31-31.29-31Z"/><path class="cls-9" d="M560.8,663.79c4.65-11.07,7.23-22.81,10.74-34.24,7.06-23,13.46-46.11,20.21-69.15q14.71-50.29,29.56-100.54,11.75-39.8,23.59-79.54c8.68-29.32,17.26-58.65,26-87.94,1-3.3-.22-3.93-3-3.83-1.27,0-2.55,0-3.83,0-49.9,0-99.81-.11-149.71.08-12.56,0-23.9-3-33.17-11.53a36.92,36.92,0,0,1-12.4-24.79c-.33-4.44-1.94-5.52-6-5.51-34.92.11-69.83-.17-104.74.17-14.43.15-25.47,7.82-34.6,18.49-.82,1-1.29,2.26-2.85,2.25C318.94,243.78,337,224.1,360.83,224c32.17-.1,64.34,0,96.5-.11,3.81,0,5.19,1,6.07,4.86a47.19,47.19,0,0,0,46,36.71q169.15.11,338.32,0c22.44,0,41-14.91,46.22-37.07.88-3.73,2.28-4.51,5.75-4.49,21.39.15,42.77,0,64.16.11,22.81.14,41.35,20.12,39.76,42.59-4.06.32-4.73-3.49-6.75-5.61-4.11-4.33-5.58-4.21-7.2,1.28-6.63,22.5-13.1,45-19.72,67.54-7,23.91-14.21,47.77-21.26,71.67q-14.64,49.71-29.2,99.46-6,20.41-12.09,40.8a14.49,14.49,0,0,0-.93,5.88c-.54,2.38-2.82,2.71-4.47,3.65q-42.42,24-84.92,47.82a12.53,12.53,0,0,0-6.65,8.69c-4.45,18.25-9.22,36.43-13.8,54.65a16.15,16.15,0,0,1-4.41,7.93q-54.59,54.38-109,109c-3.19,3.22-4.74,2.69-7.61-.19Q620.54,723.79,565.21,668.6C563.68,667.06,562.27,665.4,560.8,663.79Z"/><path class="cls-10" d="M633.18,1472.21c1.78-6.11,4.07-12.13,5.18-18.36,1-5.64,3.79-6.78,9-6.76q92.7.23,185.4.1c44.06,0,88.13.1,132.19-.06,15.76-.06,27.85-7.39,36.67-20.29.53-.78,1-1.51,2-1.7,2.35,27.83-15.47,47.26-43.33,47.26H639.2C637.19,1472.4,635.19,1472.28,633.18,1472.21Z"/><path class="cls-10" d="M546.5,1472.21c1.45-7.48,3.84-14.71,6.12-22,.71-2.26,1.88-3.16,4.29-3.11q9.55.21,19.11,0c3-.05,3.05,1.11,2.48,3.65-1.63,7.21-5.28,13.9-5.6,21.44Z"/><path class="cls-10" d="M320.6,1425.21c3.7,3.67,5.86,8.74,10.56,11.53,1.88,1.12,1.73,3.19,1.22,4.93-1.33,4.51-2.87,9-4.32,13.43C320.9,1446.3,319.65,1436,320.6,1425.21Z"/><path class="cls-1" d="M560.8,663.79c1.47,1.61,2.88,3.27,4.41,4.81q55.24,55.27,110.45,110.58c2.87,2.88,4.42,3.41,7.61.19q54.3-54.66,109-109a16.15,16.15,0,0,0,4.41-7.93c4.58-18.22,9.35-36.4,13.8-54.65a12.53,12.53,0,0,1,6.65-8.69Q859.62,575.35,902,551.3c1.65-.94,3.93-1.27,4.47-3.65,5.24-1.24,9.32-4.8,14-7.17,5-2.55,8.92-2.52,13.07,1.78q15.81,16.38,32.18,32.2c3.83,3.72,4.07,7.24,1.57,11.68q-29.55,52.47-58.91,105.06a11.52,11.52,0,0,1-7.92,6c-18.24,4.48-36.43,9.23-54.66,13.75a18,18,0,0,0-8.86,4.9q-54,54.21-108.24,108.19c-3.1,3.08-3.59,4.64-.19,8q56.64,56.24,112.91,112.83c2.06,2.06,3.77,3,7.06,2.36,58.47-10.77,112.41,28.37,120.14,87.22a98.58,98.58,0,0,1-2.08,37c-1.94,7.73-6.93,9.09-12.6,3.44q-25.24-25.19-50.43-50.41c-6.2-6.19-8.82-6.19-15,0q-21.91,21.9-43.83,43.83c-5.64,5.65-5.67,8.46.06,14.21q25,25.07,50,50c2.4,2.39,4.83,4.7,3.78,8.48s-4.62,4.32-7.78,5.1c-57.48,14.24-116.28-26.21-123.9-85.11a98.72,98.72,0,0,1,1-33.25c.57-2.67-.14-4.39-2-6.25q-35.77-35.6-71.37-71.36c-2.18-2.2-3.35-2.71-5.07.43a27.7,27.7,0,0,1-4.93,5.82c-54.8,54.84-109.36,109.92-164.54,164.36-28.06,27.68-62.09,35.49-99,22-37.37-13.68-58.16-42-61.56-81.72-2.37-27.58,6.64-52.06,26.27-71.81q83.11-83.65,166.7-166.86c.77-.77,1.52-1.59,2.35-2.29,5.22-4.39,5.22-4.38.46-9.15q-36.25-36.27-72.47-72.59c-2.41-2.43-4.48-3.24-8.09-2.56C403.3,749.14,341,684.38,357,613.66c.24-1.07.52-2.14.83-3.19,1.95-6.63,6.83-7.94,11.83-3,10.92,10.81,21.73,21.71,32.59,32.57,6.47,6.46,12.88,13,19.42,19.37,4.77,4.68,8,4.68,12.67,0q22.94-22.83,45.76-45.76c4.53-4.54,4.5-8-.09-12.64q-25.37-25.44-50.81-50.81c-2.37-2.36-4.83-4.59-3.77-8.46s4.57-4.4,7.72-5.13c64.27-14.87,125.36,34,124.9,99.92,0,5.47-.1,11-1.6,16.32C555.09,657.83,556.4,661.32,560.8,663.79ZM451,1135.73c23.18.94,43-6.94,59.35-23.22q82.47-82.23,164.73-164.68c7.64-7.64,7.64-11.61,0-19.28-30.74-30.75-61.76-61.23-92.11-92.35-13.81-14.15-17.64-9.85-27.85,1.47a2.48,2.48,0,0,0-.27.48,26.7,26.7,0,0,0-2.11,1.71Q474,918.55,395.31,997.32c-20.34,20.44-27,45.41-22.07,73.51C379.63,1107.12,414.59,1136.14,451,1135.73ZM368,624.42c-6.76,63.41,47.87,112.07,109.51,97.94,4.25-1,7.2,0,10.28,3,34.79,34.16,68,69.91,104.24,102.61,2.59,2.34,3.85,2.67,6.39,0,8.61-8.95,17.43-17.73,26.32-26.4A23.1,23.1,0,0,1,653,798.1c2.39,1.39,3.79,5.4,6.79,4.26,2.5-1,4.25-3.89,6.33-5.94a5.67,5.67,0,0,1,.78-.77c3.7-2.54,3.5-4.51.18-7.82C627,748,587.12,708,547,668.2c-4-4-5-7.6-3.77-13.06,10.43-47.87-17.88-93.68-65.33-106a77.89,77.89,0,0,0-33.63-1.74c1.78,1.89,3,3.23,4.23,4.49,13.61,13.53,27.32,27,40.82,40.59,9.14,9.24,9,20.88-.2,30.09q-22.83,22.92-45.75,45.75c-9.33,9.27-21.14,9.2-30.56-.17-13.47-13.4-26.88-26.88-40.35-40.29C371.26,626.67,370.34,625,368,624.42ZM955.37,1058.8c1.52-2.22,1.34-4.11,1.44-5.9,3.3-60.22-50.78-106.09-109.44-92.62-5,1.15-8.12.09-11.59-3.4q-55.32-55.62-110.88-111c-9.57-9.57-9.57-9.57-18.58.65a2.87,2.87,0,0,1-.39.39c-1.53,1.17-1.19,2.06,0,3.52,10.19,13,9.49,23.46-2.24,35.22-8.14,8.15-16.26,16.32-24.47,24.4-1.68,1.66-2.42,2.75-.29,4.77,9.93,9.41,18.18,20.39,28,30,23.81,23.25,47.1,47,70.75,70.44,3.39,3.37,4.39,6.64,3.3,11.25a88.8,88.8,0,0,0,52.61,103c14.5,6,29.56,8.49,46.05,5.77-1.78-1.91-3-3.23-4.19-4.48q-20-20-39.94-40c-10-10-10-21.19.08-31.26q22.26-22.35,44.6-44.61c10.29-10.28,21.16-10.24,31.51.11Zm-.65-476.09c.1-1.56-.9-2.2-1.65-3-8.39-8.41-16.88-16.74-25.15-25.27-2.14-2.2-3.72-1.3-5.71-.17Q874,581.5,825.83,608.6a7.68,7.68,0,0,0-4.06,5.36c-4.38,17.71-9.09,35.34-13.4,53.06a24.61,24.61,0,0,1-6.91,12.07q-65.1,64.85-130.06,129.82c-2.57,2.57-3.14,3.94-.16,6.71,7,6.46,13.74,13.16,20.15,20.17,3.11,3.39,4.71,3.19,7.9,0q65-65.34,130.2-130.44a20.69,20.69,0,0,1,10.24-5.79c17.9-4.37,35.71-9.12,53.61-13.46a8.71,8.71,0,0,0,6.14-4.7q26.73-47.79,53.57-95.52C953.67,584.75,954.24,583.62,954.72,582.71ZM700.24,866.9c.31-3.35-1.45-5.82-3.72-8.09C680.63,842.94,664.8,827,648.86,811.2c-5.37-5.33-10.37-5.27-15.73,0-8.57,8.47-17,17.1-25.62,25.49-2.43,2.36-2.88,3.75-.18,6.41q28.84,28.47,57.34,57.3c2.22,2.23,3.54,2.83,6.05.22,8.47-8.82,17.23-17.37,25.88-26C698.72,872.51,700.42,870.19,700.24,866.9Z"/><path class="cls-1" d="M661.75,1276H821.37c19.07,0,31.29,12.1,31.29,31v77.9c0,18-11.76,30.22-29.84,31-1.1,0-2.2,0-3.29,0q-157.44,0-314.87.07c-9.93,0-18.85-2.17-25.78-9.75A29.6,29.6,0,0,1,471,1385.8c-.05-26.7-.13-53.39,0-80.09.1-17.06,13-29.71,30-29.72H661.75Zm178.43,32.73c.88-12.19-6.24-20.48-18-20.49q-160-.06-320,0c-12.11,0-19.1,7.85-18.26,20.09-.07,26.3-.31,52.6-.1,78.9.07,9.44,7.6,16,17.33,16q160.86,0,321.72,0c9.7,0,17.38-7,17.45-16.72C840.54,1360.61,840.26,1334.67,840.18,1308.74Z"/><path class="cls-11" d="M451,1135.73c-36.38.41-71.34-28.61-77.73-64.9-4.95-28.1,1.73-53.07,22.07-73.51q78.49-78.92,157.37-157.46a25.14,25.14,0,0,1,2.12-1.71c2.79-.1,4.14,2.09,5.78,3.73,27.68,27.65,55.15,55.52,83.14,82.85a18.67,18.67,0,0,1,.12,26.57q-84.12,83.43-167.69,167.41c-1.41,1.41-3.06,2.57-4.57,3.89C465.37,1128,457.91,1131.45,451,1135.73Zm37.59-44.26c2.77-.23,4.71-2.16,6.66-4.12L617,965.59a20.79,20.79,0,0,0,2.54-2.86c2-3,1.8-6-.81-8.42-2.43-2.3-5.29-2.31-8-.35a27.23,27.23,0,0,0-3.2,3q-60.5,60.48-121,121a20,20,0,0,0-3.76,4.63C480.69,1086.6,483.85,1091.46,488.56,1091.47Zm-33.12-32.85c3.42-.28,5.3-2.62,7.35-4.68q60.29-60.27,120.54-120.55c1.54-1.54,3.26-2.91,4.13-5,1.24-3,.26-5.44-2.08-7.26a5.35,5.35,0,0,0-7.08-.08,32.79,32.79,0,0,0-2.77,2.64L453.05,1046.12a33,33,0,0,0-2.66,2.77,5.24,5.24,0,0,0-.49,6.14A6.64,6.64,0,0,0,455.44,1058.62Zm-32.74-32.91c3.14-.3,5-2.32,6.95-4.27Q490.33,960.74,551,900.06a23,23,0,0,0,2.61-2.8c2-2.9,2.19-5.78-.59-8.35s-5.52-2.54-8.34-.2c-.84.7-1.59,1.52-2.36,2.29q-60.89,60.88-121.75,121.76a25.86,25.86,0,0,0-3.27,3.68c-1.36,2-1.05,4.25,0,6.25A6,6,0,0,0,422.7,1025.71Z"/><path class="cls-9" d="M368,624.42c2.38.56,3.3,2.25,4.54,3.48,13.47,13.41,26.88,26.89,40.35,40.29,9.42,9.37,21.23,9.44,30.56.17q22.93-22.82,45.75-45.75c9.17-9.21,9.34-20.85.2-30.09-13.5-13.63-27.21-27.06-40.82-40.59-1.27-1.26-2.45-2.6-4.23-4.49a77.89,77.89,0,0,1,33.63,1.74c47.45,12.28,75.76,58.09,65.33,106-1.19,5.46-.24,9.08,3.77,13.06C587.12,708,627,748,667,787.83c3.32,3.31,3.52,5.28-.18,7.82a5.67,5.67,0,0,0-.78.77c-2.08,2.05-3.83,5-6.33,5.94-3,1.14-4.4-2.87-6.79-4.26a23.1,23.1,0,0,0-28.25,3.53c-8.89,8.67-17.71,17.45-26.32,26.4-2.54,2.63-3.8,2.3-6.39,0-36.23-32.7-69.45-68.45-104.24-102.61-3.08-3-6-4-10.28-3C415.83,736.49,361.2,687.83,368,624.42Z"/><path class="cls-9" d="M955.37,1058.8l-43.71-43.74c-10.35-10.35-21.22-10.39-31.51-.11q-22.32,22.29-44.6,44.61c-10,10.07-10.06,21.25-.08,31.26q19.93,20,39.94,40c1.24,1.25,2.41,2.57,4.19,4.48-16.49,2.72-31.55.23-46.05-5.77a88.8,88.8,0,0,1-52.61-103c1.09-4.61.09-7.88-3.3-11.25C754,991.83,730.7,968.05,706.89,944.8c-9.82-9.58-18.07-20.56-28-30-2.13-2-1.39-3.11.29-4.77,8.21-8.08,16.33-16.25,24.47-24.4,11.73-11.76,12.43-22.18,2.24-35.22-1.15-1.46-1.49-2.35,0-3.52a2.87,2.87,0,0,0,.39-.39c9-10.22,9-10.22,18.58-.65q55.47,55.47,110.88,111c3.47,3.49,6.6,4.55,11.59,3.4,58.66-13.47,112.74,32.4,109.44,92.62C956.71,1054.69,956.89,1056.58,955.37,1058.8Z"/><path class="cls-9" d="M954.72,582.71c-.48.91-1.05,2-1.67,3.15q-26.81,47.76-53.57,95.52a8.71,8.71,0,0,1-6.14,4.7c-17.9,4.34-35.71,9.09-53.61,13.46a20.69,20.69,0,0,0-10.24,5.79q-65.07,65.25-130.2,130.44c-3.19,3.21-4.79,3.41-7.9,0-6.41-7-13.19-13.71-20.15-20.17-3-2.77-2.41-4.14.16-6.71q65.1-64.85,130.06-129.82A24.61,24.61,0,0,0,808.37,667c4.31-17.72,9-35.35,13.4-53.06a7.68,7.68,0,0,1,4.06-5.36q48.23-27.08,96.38-54.28c2-1.13,3.57-2,5.71.17,8.27,8.53,16.76,16.86,25.15,25.27C953.82,580.51,954.82,581.15,954.72,582.71Z"/><path class="cls-12" d="M451,1135.73c6.94-4.28,14.4-7.72,20.61-13.13,1.51-1.32,3.16-2.48,4.57-3.89Q560,1035,643.84,951.3a18.67,18.67,0,0,0-.12-26.57c-28-27.33-55.46-55.2-83.14-82.85-1.64-1.64-3-3.83-5.78-3.73a2,2,0,0,1,.26-.48c10.21-11.32,14-15.62,27.85-1.47,30.35,31.12,61.37,61.6,92.11,92.35,7.67,7.67,7.67,11.64,0,19.28q-82.34,82.36-164.73,164.68C494,1128.79,474.15,1136.67,451,1135.73Z"/><path class="cls-11" d="M700.24,866.9c.18,3.29-1.52,5.61-3.64,7.73-8.65,8.64-17.41,17.19-25.88,26-2.51,2.61-3.83,2-6.05-.22q-28.54-28.77-57.34-57.3c-2.7-2.66-2.25-4,.18-6.41,8.65-8.39,17-17,25.62-25.49,5.36-5.29,10.36-5.35,15.73,0,15.94,15.82,31.77,31.74,47.66,47.61C698.79,861.08,700.55,863.55,700.24,866.9Z"/><path class="cls-13" d="M840.18,1308.74c.08,25.93.36,51.87.15,77.8-.07,9.74-7.75,16.72-17.45,16.72q-160.86,0-321.72,0c-9.73,0-17.26-6.58-17.33-16-.21-26.3,0-52.6.1-78.9,6.45-5.52,14-7.08,22.34-7.07q119.09.17,238.17.08c2.55,0,5.1.19,7.64.3-2,2.08-3.31,4.33-1.64,7.25,1.14,2,3,2.44,5.09,2.35a4.55,4.55,0,0,0,4.25-2.83c1.27-2.79-.12-4.84-1.95-6.76,20.62-.11,41.24-.06,61.85-.4A29,29,0,0,1,840.18,1308.74Zm-276.94,30.32c4-2.63,7.66-5.62,9.41-10.28,4.78-12.73-4.28-24.61-19.58-25.24-8.4-.35-16.82,0-25.22-.15-4-.08-5.62,1.65-5.6,5.55q.07,27.13,0,54.27c0,3.1.83,5.74,4.31,5.77,3.85,0,4.56-2.85,4.51-6.12-.09-5.3.07-10.61-.06-15.9-.07-2.71.67-4,3.67-3.92,5.11.18,10.24-.14,15.34.1,8.67.42,13.32,5,14.05,13.69.23,2.73,0,5.49.28,8.21a4,4,0,0,0,4.38,4,4.13,4.13,0,0,0,4.22-3.55C575.1,1356.32,570.93,1344.74,563.24,1339.06Zm85.2,25c11.57,6,18.13,6.78,25.31,3.2,12-6,16.8-22.38,10.23-35.07-6.33-12.22-19.63-15.56-32.62-8.19-1.16.66-2.32,2.19-3.21-.36s-2.81-3.87-5.55-3.09c-2.9.83-3,3.29-3,5.77q0,29,0,58c0,2.9.11,5.74,4,5.84s4.78-2.6,4.79-5.85Zm-39-16h0c4.57,0,9.13.08,13.7,0,3.33-.08,5.4-1.52,5.57-5.3.38-8.52-5.19-17.65-13.13-21.08-8.72-3.77-19.32-1.83-25.33,4.64-8.12,8.74-8.64,26.6-1,35.57,7.08,8.37,25.25,10.33,34.92,3.86,2.07-1.39,3.32-3.11,2.32-5.48-1.09-2.58-3.5-2.49-5.61-1.55a35.32,35.32,0,0,1-10,2.59c-7.14.91-14.07-2.64-16.53-8.21-1.44-3.25-1.2-5.23,3.1-5C601.42,1348.22,605.45,1348.07,609.46,1348.07Zm117.7,15.56c1.07,3.47,2.34,6,5.84,5.29s3.54-3.63,3.52-6.51c-.06-8.41.1-16.81-.07-25.21s-4.84-14.23-12.76-16.42c-7.73-2.14-15.2-.67-22.45,2.24-2.24.9-3.68,2.58-2.6,5.17s3,2.86,5.45,2a24.38,24.38,0,0,1,4.21-1.23c5.07-.78,10.21-1.48,15,1a7.49,7.49,0,0,1,4.13,8.27c-.62,3.35-4,1.63-6,1.7-6.21.21-12.46-.05-18.23,2.79-6.17,3-9.11,9-7.81,15.34,1.36,6.64,6,10.64,13,11.28A25.18,25.18,0,0,0,727.16,1363.63Zm55.52-35.92c-.23-4.14-.56-7.62-4.9-7.32s-4.13,3.85-4.12,7q0,18.08,0,36.14c0,3.2,1.28,5.55,4.69,5.41,3.11-.13,4.14-2.43,4.11-5.39-.07-6.39,0-12.78,0-19.17,0-11.07,2.94-14.43,14-15.88,3-.4,5.53-1.37,5-5s-3.36-3.88-6.26-3.61C790.22,1320.42,786.69,1323.6,782.68,1327.71Zm-32.06,16.83c0,6.2.07,12.41,0,18.62,0,3.09.68,5.72,4.19,5.82s4.63-2.31,4.62-5.48q0-18.9,0-37.79c0-3-1.08-5.19-4.26-5.24-3.46-.06-4.61,2.18-4.55,5.45C750.7,1332.12,750.62,1338.33,750.62,1344.54Z"/><path class="cls-14" d="M752.08,1301.65c-2.54-.11-5.09-.3-7.64-.3q-119.09,0-238.17-.08c-8.34,0-15.89,1.55-22.34,7.07-.84-12.24,6.15-20.09,18.26-20.09q160-.06,320,0c11.75,0,18.87,8.3,18,20.49a29,29,0,0,0-20.5-7.48c-20.61.34-41.23.29-61.85.4A10.69,10.69,0,0,0,752.08,1301.65Z"/><path class="cls-1" d="M488.56,1091.47c-4.71,0-7.87-4.87-5.79-8.91a20,20,0,0,1,3.76-4.63q60.47-60.53,121-121a27.23,27.23,0,0,1,3.2-3c2.71-2,5.57-2,8,.35,2.61,2.46,2.85,5.43.81,8.42a20.79,20.79,0,0,1-2.54,2.86L495.22,1087.35C493.27,1089.31,491.33,1091.24,488.56,1091.47Z"/><path class="cls-1" d="M455.44,1058.62a6.64,6.64,0,0,1-5.54-3.59,5.24,5.24,0,0,1,.49-6.14,33,33,0,0,1,2.66-2.77L575.53,923.64A32.79,32.79,0,0,1,578.3,921a5.35,5.35,0,0,1,7.08.08c2.34,1.82,3.32,4.24,2.08,7.26-.87,2.14-2.59,3.51-4.13,5q-60.26,60.29-120.54,120.55C460.74,1056,458.86,1058.34,455.44,1058.62Z"/><path class="cls-1" d="M422.7,1025.71a6,6,0,0,1-5.34-3c-1.09-2-1.4-4.24,0-6.25a25.86,25.86,0,0,1,3.27-3.68Q481.45,951.88,542.34,891c.77-.77,1.52-1.59,2.36-2.29,2.82-2.34,5.65-2.28,8.34.2s2.64,5.45.59,8.35a23,23,0,0,1-2.61,2.8q-60.69,60.69-121.37,121.38C427.71,1023.39,425.84,1025.41,422.7,1025.71Z"/><path class="cls-1" d="M563.24,1339.06c7.69,5.68,11.86,17.26,9.71,26.41a4.13,4.13,0,0,1-4.22,3.55,4,4,0,0,1-4.38-4c-.26-2.72-.05-5.48-.28-8.21-.73-8.65-5.38-13.27-14.05-13.69-5.1-.24-10.23.08-15.34-.1-3-.11-3.74,1.21-3.67,3.92.13,5.29,0,10.6.06,15.9,0,3.27-.66,6.15-4.51,6.12-3.48,0-4.31-2.67-4.31-5.77q.06-27.14,0-54.27c0-3.9,1.59-5.63,5.6-5.55,8.4.17,16.82-.2,25.22.15,15.3.63,24.36,12.51,19.58,25.24C570.9,1333.44,567.29,1336.43,563.24,1339.06Zm-21.61-4c5.1,0,10.19.31,15.11-1.57,5.59-2.14,8.73-6.37,8.28-11.47s-4-8.83-10.12-9.77a74.21,74.21,0,0,0-10.85-.78c-13-.09-13,0-13,13C531,1335.11,531,1335.11,541.63,1335.1Z"/><path class="cls-1" d="M648.44,1364.08v20.27c0,3.25-.82,6-4.79,5.85s-4-2.94-4-5.84q0-29,0-58c0-2.48.05-4.94,3-5.77,2.74-.78,4.64.51,5.55,3.09s2.05,1,3.21.36c13-7.37,26.29-4,32.62,8.19,6.57,12.69,1.8,29.06-10.23,35.07C666.57,1370.86,660,1370.1,648.44,1364.08Zm14.67-35.75c-10-.07-14.67,4.39-14.67,14.13,0,2.92,0,5.83,0,8.75a6.23,6.23,0,0,0,1.31,4.55c4.35,5,13.88,7,20.1,3.93,6.7-3.25,9.53-11,7.41-20.33C675.63,1332.23,670.68,1328.38,663.11,1328.33Z"/><path class="cls-1" d="M609.46,1348.07c-4,0-8,.15-12.05,0-4.3-.2-4.54,1.78-3.1,5,2.46,5.57,9.39,9.12,16.53,8.21a35.32,35.32,0,0,0,10-2.59c2.11-.94,4.52-1,5.61,1.55,1,2.37-.25,4.09-2.32,5.48-9.67,6.47-27.84,4.51-34.92-3.86-7.61-9-7.09-26.83,1-35.57,6-6.47,16.61-8.41,25.33-4.64,7.94,3.43,13.51,12.56,13.13,21.08-.17,3.78-2.24,5.22-5.57,5.3-4.57.11-9.13,0-13.7,0Zm-3.21-7.33c3.46,0,6.92-.1,10.37,0,2.63.1,3.59-.51,2.74-3.41a13.48,13.48,0,0,0-11.22-9.82,13.25,13.25,0,0,0-13.66,7c-2.67,5.22-2.12,6.18,3.57,6.21Z"/><path class="cls-1" d="M727.16,1363.63a25.18,25.18,0,0,1-18.78,5.69c-7-.64-11.63-4.64-13-11.28-1.3-6.38,1.64-12.29,7.81-15.34,5.77-2.84,12-2.58,18.23-2.79,2.08-.07,5.41,1.65,6-1.7a7.49,7.49,0,0,0-4.13-8.27c-4.82-2.44-10-1.74-15-1a24.38,24.38,0,0,0-4.21,1.23c-2.41.84-4.41.46-5.45-2s.36-4.27,2.6-5.17c7.25-2.91,14.72-4.38,22.45-2.24,7.92,2.19,12.59,8.17,12.76,16.42s0,16.8.07,25.21c0,2.88-.08,5.76-3.52,6.51S728.23,1367.1,727.16,1363.63Zm-13.2-1.92c4.55.21,8.61-2.16,12.29-5.3,2.5-2.12,1.7-5.16,1.19-7.69s-3.05-1.3-4.68-1.34a62.14,62.14,0,0,0-10.92.38c-4.06.65-8,2-7.61,7.5C704.54,1359.47,707.71,1361.69,714,1361.71Z"/><path class="cls-1" d="M782.68,1327.71c4-4.11,7.54-7.29,12.59-7.77,2.9-.27,5.77,0,6.26,3.61s-2,4.59-5,5c-11.1,1.45-14,4.81-14,15.88,0,6.39-.05,12.78,0,19.17,0,3-1,5.26-4.11,5.39-3.41.14-4.69-2.21-4.69-5.41q0-18.08,0-36.14c0-3.19-.18-6.73,4.12-7S782.45,1323.57,782.68,1327.71Z"/><path class="cls-1" d="M750.62,1344.54c0-6.21.08-12.42,0-18.62-.06-3.27,1.09-5.51,4.55-5.45,3.18,0,4.26,2.29,4.26,5.24q0,18.9,0,37.79c0,3.17-1.19,5.58-4.62,5.48s-4.23-2.73-4.19-5.82C750.69,1357,750.62,1350.74,750.62,1344.54Z"/><path class="cls-1" d="M752.08,1301.65a10.69,10.69,0,0,1,5.75,0c1.83,1.92,3.22,4,1.95,6.76a4.55,4.55,0,0,1-4.25,2.83c-2.13.09-3.95-.36-5.09-2.35C748.77,1306,750.06,1303.73,752.08,1301.65Z"/><path class="cls-13" d="M541.63,1335.1c-10.59,0-10.59,0-10.59-10.54,0-13.09,0-13.14,13-13a74.21,74.21,0,0,1,10.85.78c6.12.94,9.67,4.54,10.12,9.77s-2.69,9.33-8.28,11.47C551.82,1335.41,546.73,1335.13,541.63,1335.1Z"/><path class="cls-13" d="M663.11,1328.33c7.57.05,12.52,3.9,14.15,11,2.12,9.31-.71,17.08-7.41,20.33-6.22,3-15.75,1.08-20.1-3.93a6.23,6.23,0,0,1-1.31-4.55c0-2.92,0-5.83,0-8.75C648.44,1332.72,653.07,1328.26,663.11,1328.33Z"/><path class="cls-13" d="M606.25,1340.74h-8.2c-5.69,0-6.24-1-3.57-6.21a13.25,13.25,0,0,1,13.66-7,13.48,13.48,0,0,1,11.22,9.82c.85,2.9-.11,3.51-2.74,3.41C613.17,1340.64,609.71,1340.74,606.25,1340.74Z"/><path class="cls-13" d="M714,1361.71c-6.25,0-9.42-2.24-9.73-6.45-.41-5.47,3.55-6.85,7.61-7.5a62.14,62.14,0,0,1,10.92-.38c1.63,0,4.18-1.13,4.68,1.34s1.31,5.57-1.19,7.69C722.57,1359.55,718.51,1361.92,714,1361.71Z"/></g></g></svg>