<svg xmlns="http://www.w3.org/2000/svg" viewBox="0 0 371.17 263.39"><defs><style>.cls-1{fill:#9f805c;}.cls-2{fill:#5f4d37;}.cls-3{fill:#fe9711;}.cls-4{fill:#fe5023;}</style></defs><g id="Capa_2" data-name="Capa 2"><g id="Capa_1-2" data-name="Capa 1"><path d="M364.08,227.48c-4.87,0-9.73-.07-14.59,0-1.73,0-2.37-.37-2.34-2.24.11-6.48.16-13,0-19.45-.06-2.25,1-2.34,2.65-2.31,4.86.06,9.72.07,14.59,0,4.4,0,6.7-2.3,6.74-6.66q.11-11.23,0-22.45c0-4.57-2.32-6.73-7-6.78-4,0-8,0-12,0-4.94,0-4.94,0-4.94-4.79q0-47.7,0-95.4c0-5.42-2.07-7.51-7.38-7.55a44.16,44.16,0,0,0-6,0c-3.54.45-4.91-.45-4.71-4.45.39-8,.13-16,.11-23.94,0-5.44-2.06-7.55-7.36-7.57q-16.65,0-33.3,0c-5.07,0-7.2,2.18-7.21,7.32,0,8.48-.13,17,.06,25.44.06,2.7-.74,3.23-3.3,3.21-14.21-.14-28.43-.07-42.64-.06-6.1,0-8,1.91-8,8.05,0,20.2,0,40.4.07,60.61,0,2.65-.66,3.33-3.27,3.23-5.73-.21-11.48-.25-17.2,0-3,.14-3.62-.79-3.61-3.66.11-31.8.07-63.59.07-95.39,0-7.13-1.65-8.77-8.79-8.77-19.95,0-39.9-.06-59.85.06-2.63,0-3.4-.61-3.25-3.25.24-4.23.07-8.48.06-12.72,0-6.12-1.91-8-8-8H56c-6.15,0-8.06,1.9-8.06,8,0,20.2-.05,40.4,0,60.61,0,2.53-.46,3.47-3.19,3.3-4.1-.26-8.23-.07-12.34-.06-6.68,0-8.47,1.76-8.47,8.33,0,27.93,0,55.87.06,83.8,0,2.74-.42,3.94-3.54,3.72-4.47-.31-9-.11-13.46-.07-4.69,0-6.95,2.22-7,6.8,0,7.49-.06,15,0,22.45,0,4.36,2.35,6.59,6.77,6.65,4.73.06,9.47.1,14.21,0,2.07-.06,3.1.17,3,2.72-.22,6.23-.17,12.47,0,18.7,0,2.23-.73,2.67-2.75,2.61-4.73-.14-9.47-.08-14.21,0s-7,2.24-7,7.14c0,6.73,0,13.47,0,20.2s1.72,8.57,8.62,8.57H363.27c5.86,0,7.85-2,7.86-7.83,0-7,0-14,0-20.95C371.1,229.72,368.91,227.53,364.08,227.48ZM295.71,35.89c3.24.1,6.48,0,9.72,0s6.49.07,9.72,0c1.63,0,2.16.51,2.14,2.14q-.1,9.9,0,19.82c0,1.73-.73,2-2.23,2-6.48-.05-13-.07-19.44,0-1.79,0-2.36-.55-2.33-2.34.09-6.48.1-13,0-19.44C293.25,36.21,294,35.84,295.71,35.89ZM277.64,71.8q9.71.14,19.4,0c1.8,0,2.34.56,2.3,2.33-.1,5.22,0,10.44,0,15.67s-.07,10.44,0,15.66c0,1.79-.52,2.35-2.31,2.33q-9.69-.15-19.4,0c-1.8,0-2.31-.56-2.3-2.33q.1-15.67,0-31.34C275.32,72.34,275.85,71.77,277.64,71.8ZM239.41,75c0-2.31.42-3.3,3-3.22,6,.2,12,.19,17.95,0,2.55-.08,3.08.82,3.06,3.18-.1,12.34-.06,24.69,0,37,0,5.66,2,7.72,7.58,7.73q16.45,0,32.91,0c5.31,0,7.37-2.13,7.38-7.55,0-12.35.08-24.69,0-37,0-2.56.57-3.47,3.27-3.37,5.85.21,11.72.22,17.57,0,2.78-.1,3.23.94,3.21,3.42-.1,15,0,29.92,0,44.88,0,14.71-.08,29.43.07,44.14,0,2.86-.81,3.47-3.55,3.46q-44.5-.13-89,0c-2.58,0-3.35-.62-3.34-3.29Q239.54,119.7,239.41,75Zm-35.26,69.48c2.13-2.45,7.24-.63,11-.78,3.23-.12,6.48.07,9.71-.05,1.86-.07,2.66.36,2.62,2.43-.13,6.36-.12,12.72,0,19.07,0,2-.59,2.55-2.54,2.51-6.35-.11-12.71-.12-19.06,0-2.11,0-2.47-.82-2.41-2.64.11-3.24,0-6.48,0-9.72h.23C203.77,151.58,202.31,146.59,204.15,144.47ZM161.54,35.92c6.09,0,6.09,0,6.09,6.26,0,5.71,0,5.71-5.89,5.71-6.09,0-6.09,0-6.09-6.26C155.65,35.92,155.65,35.92,161.54,35.92Zm-29.88,3.13c0-2.34.51-3.19,3.05-3.2,9,0,9-.12,9,8.83,0,3-.08,6,0,9,.13,3.75,2.36,6.12,6.09,6.17,7.85.12,15.7.11,23.55,0,3.92-.06,6.15-2.42,6.22-6.43.09-5,.1-10,0-14.95,0-1.94.55-2.51,2.52-2.58,9.49-.35,9.49-.41,9.49,9V66.22c0,8.73-.08,17.46.05,26.18,0,2.44-.38,3.47-3.18,3.45q-26.92-.19-53.85,0c-2.3,0-2.94-.62-2.93-2.93Q131.8,66,131.66,39.05Zm36,74.7c0,6,0,6-6,6s-6,0-6-6,0-6,6-6S167.63,107.75,167.63,113.75Zm-32.93-6c9-.09,9-.15,9,8.79,0,2.87-.05,5.74,0,8.6.1,4.21,2.3,6.52,6.46,6.57q11.4.14,22.81,0c4.35,0,6.55-2.35,6.61-6.8.06-4.86.09-9.72,0-14.58,0-1.92.52-2.52,2.51-2.59,9.5-.35,9.5-.41,9.5,9v20.94c0,8.85-.08,17.71.05,26.55,0,2.43-.36,3.48-3.17,3.46q-26.92-.19-53.85,0c-2.28,0-2.95-.59-2.94-2.92q.14-27.11,0-54.22C131.64,108.05,132.58,107.73,134.7,107.71ZM90.06,12c5.74,0,5.74,0,5.74,5.87,0,6.11,0,6.11-6.24,6.11-5.73,0-5.73,0-5.73-5.87C83.83,12,83.83,12,90.06,12ZM59.83,14.85c0-2.3.64-2.91,2.94-2.94,9.09-.08,9.09-.17,9.09,9.08,0,2.86-.08,5.73,0,8.6.13,3.95,2.36,6.25,6.34,6.3q11.6.13,23.18,0c4,0,6.25-2.36,6.34-6.31.11-4.86.11-9.73,0-14.58,0-2.09.27-3.06,2.78-3.1,9.23-.13,9.23-.24,9.23,8.94,0,15.83-.06,31.67.06,47.49,0,2.71-.54,3.65-3.44,3.58-9-.21-18-.08-26.92-.08-8.73,0-17.46-.07-26.18.06-2.44,0-3.46-.39-3.44-3.19Q60,41.78,59.83,14.85Zm6.85,69.56c2.18-1.9,7.33-.4,11.16-.4s9.17-1.93,11.38.6c1.93,2.21.66,7.34.56,11.17S91.51,105,89,107.16c-2.19,1.93-7.33.66-11.16.55s-9.17,1.74-11.38-.77c-1.93-2.19-.65-7.33-.55-11.16S64.17,86.59,66.68,84.41Zm-27.45-.66a109.29,109.29,0,0,0,11.59,0c2.45-.13,3.18.64,3.13,3.11-.14,8.47-.07,16.95,0,25.43,0,5.34,2.1,7.41,7.51,7.42q16.45,0,32.91,0c5.35,0,7.43-2.11,7.45-7.49,0-8.23.17-16.46-.08-24.68-.1-3.25,1-4,4-3.81a91.14,91.14,0,0,0,11.21,0c2.38-.13,2.91.72,2.9,3-.1,13-.05,25.93-.05,38.89s-.06,25.93.05,38.9c0,2.4-.6,3.16-3.09,3.15q-38.9-.13-77.79,0c-2.6,0-3-.92-3-3.22q.1-38.72,0-77.42C35.87,84.36,36.64,83.61,39.23,83.75ZM16.57,191.65c-3.89,0-4.81-1.07-4.66-4.77.29-7.29.08-7.29,7.26-7.29H354.22c5.57,0,4.91-.6,4.94,5,0,6.93,0,6.93-6.79,6.93H185.59Q101.08,191.56,16.57,191.65Zm306.66,14c0-1.57.5-2.07,2.12-2.19,9.87-.77,9.87-.81,9.87,9v6.34c0,9.63-.34,9.88-10.12,8.72-1.48-.17-1.87-.71-1.86-2.06C323.27,218.86,323.29,212.27,323.23,205.68Zm-119.74.47c-.05-2.12.56-2.67,2.67-2.67q51.26.11,102.49,0c2.1,0,2.73.54,2.68,2.67-.14,6.11-.17,12.22,0,18.33.07,2.45-.62,3.07-3.06,3.05-17-.11-33.91-.06-50.87-.06s-33.66-.07-50.49.08c-2.79,0-3.57-.62-3.46-3.45C203.71,218.13,203.63,212.13,203.49,206.15Zm-23.94,0c-.08-2.17.71-2.66,2.77-2.7,9.25-.2,9.25-.27,9.25,8.85v3.36c0,3.11-.11,6.22,0,9.32.1,2-.68,2.45-2.57,2.51-9.44.33-9.43.38-9.43-9C179.6,214.38,179.71,210.28,179.55,206.18Zm-11.87,18.67c0,2.12-.57,2.67-2.68,2.67q-51.24-.11-102.49,0c-2.1,0-2.72-.54-2.68-2.67.15-6.1.18-12.22,0-18.32-.07-2.46.63-3.07,3.07-3.06,17,.11,33.91.06,50.86.06s33.67.07,50.5-.07c2.79,0,3.56.62,3.45,3.44C167.46,212.88,167.53,218.87,167.68,224.85ZM35.92,205.91c0-1.71.44-2.32,2.27-2.43,9.73-.59,9.72-.65,9.72,9.13v3c0,3.23.1,6.47,0,9.69-.16,4-3.45,2.23-5,2-2.31-.33-6.41,2.58-6.81-2C35.53,218.87,36,212.37,35.92,205.91Zm316,45.51H17.25c-5.94,0-5.21.71-5.24-5.1,0-6.86,0-6.86,6.85-6.86H354.29c4.87,0,4.87,0,4.87,4.73C359.17,251.42,359.17,251.42,351.93,251.42Z"/><path class="cls-1" d="M242.73,167.67q44.5-.13,89,0c2.74,0,3.58-.6,3.55-3.46-.15-14.71-.07-29.43-.07-44.14,0-15-.05-29.92,0-44.88,0-2.48-.43-3.52-3.21-3.42-5.85.22-11.72.21-17.57,0-2.7-.1-3.3.81-3.27,3.37.13,12.34.07,24.68,0,37,0,5.42-2.07,7.53-7.38,7.55q-16.45,0-32.91,0c-5.56,0-7.57-2.07-7.58-7.73,0-12.34-.06-24.69,0-37,0-2.36-.51-3.26-3.06-3.18-6,.18-12,.19-17.95,0-2.6-.08-3,.91-3,3.22q.09,44.7,0,89.39C239.38,167.05,240.15,167.68,242.73,167.67Z"/><path class="cls-1" d="M35.9,164.45c0,2.3.41,3.23,3,3.22q38.9-.15,77.79,0c2.49,0,3.11-.75,3.09-3.15-.11-13-.05-25.93-.05-38.9s0-25.93.05-38.89c0-2.25-.52-3.1-2.9-3a91.14,91.14,0,0,1-11.21,0c-3-.21-4.08.56-4,3.81.25,8.22.1,16.45.08,24.68,0,5.38-2.1,7.47-7.45,7.49q-16.45,0-32.91,0c-5.41,0-7.5-2.08-7.51-7.42,0-8.48-.1-17,0-25.43,0-2.47-.68-3.24-3.13-3.11a109.29,109.29,0,0,1-11.59,0c-2.59-.14-3.36.61-3.35,3.28Q36,125.75,35.9,164.45Z"/><path class="cls-2" d="M185.59,191.56H352.37c6.8,0,6.82,0,6.79-6.93,0-5.64.63-5-4.94-5h-335c-7.18,0-7,0-7.26,7.29-.15,3.7.77,4.78,4.66,4.77Q101.08,191.44,185.59,191.56Z"/><path class="cls-2" d="M354.29,239.45H18.86c-6.86,0-6.89,0-6.85,6.86,0,5.81-.7,5.1,5.24,5.1H351.93c7.24,0,7.24,0,7.23-7.24C359.16,239.45,359.16,239.45,354.29,239.45Z"/><path class="cls-1" d="M63.26,71.89c8.72-.13,17.45-.06,26.18-.06,9,0,18-.13,26.92.08,2.9.07,3.46-.87,3.44-3.58-.12-15.82-.06-31.66-.06-47.49,0-9.18,0-9.07-9.23-8.94-2.51,0-2.83,1-2.78,3.1.12,4.85.12,9.72,0,14.58-.09,4-2.37,6.26-6.34,6.31q-11.58.13-23.18,0c-4,0-6.21-2.35-6.34-6.3-.1-2.87,0-5.74,0-8.6,0-9.25,0-9.16-9.09-9.08-2.3,0-3,.64-2.94,2.94q.15,26.92,0,53.85C59.8,71.5,60.82,71.92,63.26,71.89Z"/><path class="cls-1" d="M134.59,95.83q26.92-.14,53.85,0c2.8,0,3.21-1,3.18-3.45-.13-8.72-.05-17.45-.05-26.18V44.91c0-9.45,0-9.39-9.49-9-2,.07-2.56.64-2.52,2.58.11,5,.1,10,0,14.95-.07,4-2.3,6.37-6.22,6.43-7.85.1-15.7.11-23.55,0-3.73,0-6-2.42-6.09-6.17-.11-3,0-6,0-9,0-9,0-8.85-9-8.83-2.54,0-3.06.86-3.05,3.2q.14,26.92,0,53.85C131.65,95.21,132.29,95.84,134.59,95.83Z"/><path class="cls-1" d="M131.66,164.74c0,2.33.66,2.93,2.94,2.92q26.93-.14,53.85,0c2.81,0,3.2-1,3.17-3.46-.13-8.84-.05-17.7-.05-26.55V116.73c0-9.44,0-9.38-9.5-9-2,.07-2.55.67-2.51,2.59.11,4.86.08,9.72,0,14.58-.06,4.45-2.26,6.76-6.61,6.8q-11.4.12-22.81,0c-4.16,0-6.36-2.36-6.46-6.57-.07-2.86,0-5.73,0-8.6,0-8.94,0-8.88-9-8.79-2.12,0-3.06.34-3,2.81Q131.82,137.63,131.66,164.74Z"/><path class="cls-3" d="M275.33,105.46c0,1.77.5,2.35,2.3,2.33q9.71-.15,19.4,0c1.79,0,2.35-.54,2.31-2.33-.1-5.22,0-10.44,0-15.66s-.07-10.45,0-15.67c0-1.77-.5-2.36-2.3-2.33q-9.71.14-19.4,0c-1.79,0-2.32.54-2.31,2.32Q275.43,89.79,275.33,105.46Z"/><path class="cls-4" d="M293.29,57.56c0,1.79.54,2.36,2.33,2.34,6.48-.09,13-.07,19.44,0,1.5,0,2.26-.3,2.23-2q-.12-9.91,0-19.82c0-1.63-.51-2.19-2.14-2.14-3.23.1-6.48,0-9.72,0s-6.48.07-9.72,0c-1.67,0-2.46.32-2.43,2.23C293.39,44.6,293.38,51.08,293.29,57.56Z"/><path class="cls-3" d="M66.46,106.94c2.21,2.51,7.46.67,11.38.77s9,1.38,11.16-.55c2.51-2.21.67-7.46.78-11.38s1.37-9-.56-11.17c-2.21-2.53-7.47-.45-11.38-.6s-9-1.5-11.16.4c-2.51,2.18-.67,7.45-.77,11.37S64.53,104.75,66.46,106.94Z"/><path class="cls-4" d="M203.54,155.3c0,3.24.08,6.48,0,9.72-.06,1.82.3,2.68,2.41,2.64,6.35-.13,12.71-.12,19.06,0,2,0,2.58-.52,2.54-2.51-.11-6.35-.12-12.71,0-19.07,0-2.07-.76-2.5-2.62-2.43-3.23.12-6.48-.07-9.71.05-3.81.15-8.92-1.67-11,.78-1.84,2.12-.38,7.11-.38,10.83Z"/><path class="cls-1" d="M36.08,225.28c.4,4.59,4.5,1.68,6.81,2,1.55.22,4.84,2,5-2,.12-3.22,0-6.46,0-9.69v-3c0-9.78,0-9.72-9.72-9.13-1.83.11-2.29.72-2.27,2.43C36,212.37,35.53,218.87,36.08,225.28Z"/><path class="cls-1" d="M189,227.52c1.89-.06,2.67-.5,2.57-2.51-.14-3.1,0-6.21,0-9.32v-3.36c0-9.12,0-9.05-9.25-8.85-2.06,0-2.85.53-2.77,2.7.16,4.1,0,8.2,0,12.3C179.6,227.9,179.59,227.85,189,227.52Z"/><path class="cls-1" d="M325.1,227.51c9.78,1.16,10.12.91,10.12-8.72v-6.34c0-9.77,0-9.73-9.87-9-1.62.12-2.14.62-2.12,2.19.06,6.59,0,13.18,0,19.77C323.23,226.8,323.62,227.34,325.1,227.51Z"/><path class="cls-3" d="M89.56,24c6.24,0,6.24,0,6.24-6.11,0-5.87,0-5.87-5.74-5.87-6.23,0-6.23,0-6.23,6.11C83.83,24,83.83,24,89.56,24Z"/><path class="cls-3" d="M161.74,47.89c5.88,0,5.88,0,5.89-5.71,0-6.26,0-6.26-6.09-6.26-5.89,0-5.89,0-5.89,5.71C155.65,47.89,155.65,47.89,161.74,47.89Z"/><path class="cls-3" d="M155.65,113.73c0,6,0,6,6,6s6,0,6-6,0-6-6-6S155.65,107.75,155.65,113.73Z"/></g></g></svg>