<svg xmlns="http://www.w3.org/2000/svg" xmlns:xlink="http://www.w3.org/1999/xlink" viewBox="0 0 179.13 111.97"><defs><style>.cls-1{fill:url(#Degradado_sin_nombre_25);}.cls-2{font-size:35px;fill:#fff;font-family:Arial-BoldMT, Arial;font-weight:700;}.cls-3{fill:#004fab;}.cls-4{fill:#8cd0fe;}.cls-5{fill:#44541d;}.cls-6{fill:#b9ef60;}</style><linearGradient id="Degradado_sin_nombre_25" x1="41.4" y1="129.75" x2="155" y2="-44.24" gradientUnits="userSpaceOnUse"><stop offset="0.33" stop-color="#353e66"/><stop offset="0.89" stop-color="#3ffffc"/></linearGradient></defs><g id="Capa_2" data-name="Capa 2"><g id="Capa_1-2" data-name="Capa 1"><rect class="cls-1" width="179.13" height="111.97" rx="6.35"/><text class="cls-2" transform="translate(18.49 35.42)">TRANSF</text><path class="cls-3" d="M110.09,97.47h17.29c-1.5-1.21-2.88-2.26-4.17-3.37-1.78-1.52-.94-3.89,1.51-4.4a3.34,3.34,0,0,1,2.87.62q5,4,9.86,8a2.26,2.26,0,0,1-.13,3.67q-4.71,3.86-9.44,7.69a3.66,3.66,0,0,1-4.7.12c-1.31-1.11-1.22-2.66.24-3.87,1.21-1,2.44-2,3.66-3a.56.56,0,0,0,0-.08c-.24-.22-.55-.11-.82-.11-11.9,0-23.8,0-35.7,0-16.21,0-30.09-9-33.21-22-2.61-10.91,1.66-20,12-27.19l1-.63H53.28l2.6,2.16c.45.37.9.73,1.34,1.11a2.29,2.29,0,0,1,.07,3.8,3.66,3.66,0,0,1-4.56-.08c-2.61-2.11-5.19-4.25-7.79-6.38-.56-.46-1.15-.9-1.71-1.37a2.32,2.32,0,0,1,0-3.86l9.29-7.57a3.69,3.69,0,0,1,4.78-.21c1.34,1.1,1.24,2.67-.26,3.92l-3.65,3s0,0,0,.15H90.06c16.15,0,30,9,33.08,22,2.57,10.94-1.71,20.07-12.15,27.22Z"/><path class="cls-4" d="M90.31,52.87c14.93,0,27.15,10,27.15,22.27S105.25,97.51,90.11,97.5c-15,0-27.07-10.07-27-22.44S75.31,52.87,90.31,52.87Z"/><path class="cls-5" d="M90.2,92.25c-11.49,0-20.75-7.68-20.74-17.19,0-9.35,9.41-17,21-16.93,11.39,0,20.76,7.72,20.64,17.27C110.94,84.63,101.77,92.24,90.2,92.25Z"/><path class="cls-6" d="M98.93,70c0,2-1.11,3.13-2.83,3.18a2.79,2.79,0,0,1-3-2.53,2.3,2.3,0,0,0-2.29-2A2.48,2.48,0,0,0,88,70.33a2,2,0,0,0,1.66,2.26,19.64,19.64,0,0,0,2.06.27c3.47.52,6.21,2.75,6.8,5.52.63,2.94-.94,5.81-4.07,7.25-.74.34-1,.68-1,1.38a2.37,2.37,0,0,1-1.84,2.4,3.2,3.2,0,0,1-3.14-.51,2.21,2.21,0,0,1-.9-2c0-.56-.22-.81-.8-1.06-3-1.3-4.59-3.33-4.66-6.13A2.65,2.65,0,0,1,85,77.17a2.73,2.73,0,0,1,3,2.38,2.32,2.32,0,0,0,2.23,2.17A2.5,2.5,0,0,0,93,80.12c.4-1.26-.75-2.44-2.41-2.51a9.41,9.41,0,0,1-6.74-2.74c-3.22-3.44-1.87-8.4,2.83-10.36.66-.27.91-.55.91-1.16a3,3,0,0,1,5.87,0c0,.66.3.92,1,1.21C97.29,65.78,98.72,67.8,98.93,70Z"/></g></g></svg>