<svg xmlns="http://www.w3.org/2000/svg" viewBox="0 0 405.34 287.61"><defs><style>.cls-1{fill:#3f4041;}.cls-2{fill:#607d8a;}.cls-3{fill:#fea41f;}.cls-4{fill:#feb74d;}.cls-5{fill:#445a64;}.cls-6{fill:#fe9803;}.cls-7{fill:#fda522;}.cls-8{fill:#77491e;}</style></defs><g id="Capa_2" data-name="Capa 2"><g id="Capa_1-2" data-name="Capa 1"><path class="cls-1" d="M275.37,71.45c-.12.85-.43,1.76.61,2.31,1.72,6.88,3.17,13.76-.13,20.61a7.31,7.31,0,0,0-3.7,3.55c-.21,3.2-3.15,4.45-4.76,6.66-1.78,1.75-3.43,3.62-5.32,5.26-1,.85-2,2-3.46,1.54-1.73-.6-1.63-2.37-1.7-3.81a77.77,77.77,0,0,1,0-12.95c1.58-12.76-1.33-23.35-12.19-31.47-3.87-2.9-6.64-7.37-10.19-10.88a6,6,0,0,0-6.76-1.64C208,57.07,188.21,63.31,168.53,70c-4.42,1.49-8.94,2.61-13.33,4.19-6.1,2.19-6.44,2.55-6.47,8.87,0,7.31.05,14.62,0,21.93,0,1.91.54,4.47-1.64,5.32s-3.45-1.45-4.91-2.71a39.49,39.49,0,0,1-2.82-2.82q-3.26-3.57-6.79-6.89c-1.63-1.74-3.6-3.24-4.26-5.71-.86-7.84-.12-15.69-.19-23.52a7.52,7.52,0,0,1,.28-1.63c2.78-7.68,3.61-16,8-23.19,1.68-3.12,3.43-6.21,5-9.38a45.24,45.24,0,0,1,6.29-8.22,23.5,23.5,0,0,0,4-4.59,75.47,75.47,0,0,1,17.94-13c5.76-3.37,12.41-4.14,18.55-6.41,1.65-.61,3.53-1,5.16.37l13-.85c4.33-2.13,8.66-2.41,13,0,2.19.8,5.14-.85,6.66,2.08a17.76,17.76,0,0,1,5.41,10.84c.09,1.67,1.24,2.07,2.64,2.42a60.61,60.61,0,0,1,22.21,10.62,1.66,1.66,0,0,1,1,1c7.25,7,11.41,15.76,15,24.9C275.8,59.07,276,65.18,275.37,71.45Z"/><path class="cls-2" d="M319.11,285.86l-12-.06a12.56,12.56,0,0,1-13,0H282.17a12.59,12.59,0,0,1-13,0h-12a12.59,12.59,0,0,1-13,0h-12a12.59,12.59,0,0,1-13,0H207.28a12.59,12.59,0,0,1-13,0h-12a12.59,12.59,0,0,1-13,0H157.36a12.6,12.6,0,0,1-13,0h-12a12.59,12.59,0,0,1-13,0H107.43a12.61,12.61,0,0,1-13,0l-12,.06a13,13,0,0,1-13,0h-12a13,13,0,0,1-13,0h-12a13,13,0,0,1-13,0h-12a4.66,4.66,0,0,1-6,.2,1.28,1.28,0,0,1,.3-1.63c2.42-1.51,5.15-1.08,7.77-1.09q37.38,0,74.75,0c6.55,0,6.55,0,6.54-6.67,0-4.31.44-8.68-.09-12.92-1.54-12.51,2.69-23.09,10.07-32.79,1-1.32,1.76-2.81,2.71-4.15,5.11-6.21,10-12.59,16-18.11a47.27,47.27,0,0,1,6.24-5.32c2.26-2.13,4.71-4,7.12-6,2.69-2.44,5.89-4.12,9-6,1.16-.76,2.34-1.46,3.55-2.12a108,108,0,0,1,12-6.08c3-1.05,5.67-3.74,9.29-2,1.56,2.57.89,5.51,1.34,8.27,3.6,22,18.7,33.14,40.84,30,16.94-2.42,27.86-14.58,29-32.24.12-2-.18-4,.91-5.84,2.06-1.74,3.87-.1,5.77.42,4.36,2,9,3.43,13,6.12,2,1.2,4.08,2.14,6,3.44,1.7,1.18,3.6,2,5.32,3.18,12.58,9.19,23.85,19.71,32.88,32.51q2.94,4,5.7,8.17c4.67,7,8.14,14.28,7.29,23.18-.58,6.08-.15,12.27-.1,18.4s.45,6.54,6.51,6.55c24.92,0,49.84,0,74.76,0,2.63,0,5.35-.41,7.78,1.11a1.23,1.23,0,0,1,.21,1.67c-3.36,1.72-6.67,1.87-9.92-.27H382a13,13,0,0,1-13,0H357a13,13,0,0,1-13,0h-12A13,13,0,0,1,319.11,285.86Z"/><path class="cls-1" d="M357,113.61c7.45,3.36,13.65,8.06,17,15.84,4.47,4.68,3.33,10.87,4.36,16.45.45,2.42.08,5,.14,7.46-.1,4.35.79,8.77-.85,13a20.43,20.43,0,0,1-6.2,7.65c-2.83,2.09-4.2,1.58-4.53-2a152,152,0,0,1-.16-16.94c.09-4.21-.95-7.76-3.95-10.86-3.23-3.35-5.55-7.46-8.41-11.13-1.74-2.25-3.67-2.86-6.52-1.9-16.06,5.44-32,11.14-48.12,16.48-3,1-4.2,2.87-4.19,5.93,0,5.81.12,11.63-.09,17.44-.05,1.46,0,3.26-1.54,3.94s-2.82-.65-3.88-1.66c-2.16-2-4.56-3.91-5.8-6.76a79.79,79.79,0,0,1,.74-25.29,68.1,68.1,0,0,0,1.9-7.73,13.31,13.31,0,0,1,1.47-4.23c2.33-3.18,3.8-6.89,6.09-10.1a38.74,38.74,0,0,1,3.22-3.56c2.86-2.57,5.34-5.71,9.51-6.28,5.68-3.28,12.1-4.6,18.17-6.86,4.87-.71,9.67-2,14.66-1.7a7.48,7.48,0,0,1,5.05,1.77,1.86,1.86,0,0,0,1.05,1.79c.15,0,.4,0,.46.15C348.94,108.82,352.84,111.35,357,113.61Z"/><path class="cls-3" d="M267.08,103.16a19.3,19.3,0,0,1,5.07-5.24c2.43,1.57,2.42,4.54,3.85,6.69,2.93,3.51.48,6.56-.82,9.71-1.49,2.67-3.26,5-6.48,5.8a4.06,4.06,0,0,1-1.69-.18C264.38,114.34,265.43,108.75,267.08,103.16Z"/><path class="cls-4" d="M285.29,166.86l8.93,8.38c0-7.18.46-13.53-.14-19.78-.55-5.7,1.48-8,6.88-9.69,15.81-5,31.41-10.68,47.05-16.21,2.76-1,4.59-1.19,6.56,1.7,3.65,5.32,7.83,10.28,11.88,15.32,1.4,1.75,1.29,3.69,1.29,5.68v23.25l9-8.44c.62.19.74.55.34,1.07l-1.88,10.08a12.67,12.67,0,0,1-4.54,11.85,6.41,6.41,0,0,0-2.46,3.14,13.65,13.65,0,0,1-8.24,8.88,5.7,5.7,0,0,0-3.05,2.67c-1.65,2.45-3.83,3.84-6.89,3.53a5,5,0,0,0-.94-.18c-1.08,2.07-2.87,2.94-5.09,3.56a44.22,44.22,0,0,1-23.09.47c-5.74-1.45-6.22-.89-6.4,5-.06,2,.16,4-1.08,5.76a1.32,1.32,0,0,1-1.54.2c-1.65-2.17-1.1-4.7-1.17-7.12.06-3.45.76-7.15-3.51-8.91a34.63,34.63,0,0,1-4.63-3.15,45.58,45.58,0,0,1-9.05-8.55,48.58,48.58,0,0,0-2.58-4.25c-3.28-4.7-4.78-10.08-6-15.58C284.55,172.63,282.73,169.67,285.29,166.86Z"/><path class="cls-5" d="M312.11,223a1,1,0,0,0,.75.32c1.22.61,1.26,1.83,1.57,2.93,2.2,7.89,7.69,12.17,15.82,12.36A16.75,16.75,0,0,0,347,227.11c.52-1.51.62-3.31,2.44-4.06l9.64,2a9.83,9.83,0,0,1,9,3l2,1a15.81,15.81,0,0,1,11.88,6.41,97.5,97.5,0,0,1,20,18.6c.68,1,1.36,1.93,2.05,2.89,1.14,9.31,2.48,18.62-.24,27.9l-83.84,0c-6.83,0-6.83,0-6.84-7.06a64.15,64.15,0,0,1,.05-7.47c1.84-15.67-1.41-29.82-12.08-41.88a7.14,7.14,0,0,1-.88-2.25c2.53-3.14,6.45-2.69,9.78-3.77A2.93,2.93,0,0,1,312.11,223Z"/><path class="cls-6" d="M349.4,223.05c-4,15.25-16.52,21.25-29.09,13.93-5.21-3-7.3-7.85-7.45-13.68.12-3.8.27-7.61.34-11.42,0-1.81.31-2.76,2.59-2.12a81.81,81.81,0,0,0,9.23,1.81,39.23,39.23,0,0,0,24.09-3.46Q349.25,215.58,349.4,223.05Z"/><path class="cls-5" d="M105.39,226.13c-3.72,6.4-7.34,12.86-11.21,19.17a10.72,10.72,0,0,0-1.74,6c.08,9.78-.19,19.56.15,29.32.13,3.58-.74,4.25-4.17,4.23-27.55-.15-55.09-.08-82.64-.08-1.33,0-2.65,0-4,0-2.15-8.71-2-17.55-1.44-26.4A10.86,10.86,0,0,1,2.46,254c2-2.06,3.07-5,6.16-6l7.18-6.92c.77-1.78,2.41-2.74,3.78-3.94a74.62,74.62,0,0,1,17.84-10,31.18,31.18,0,0,1,6.2-2.5c4.26-.67,8.23-3.15,12.77-2.07,1.4,1.12,1.68,2.79,2.16,4.36,2.92,9.56,12.08,14,21.54,10.61,7-2.52,10.19-8,12.07-14.65a3.23,3.23,0,0,1,1.4-.69C97.77,222.73,102.13,222.79,105.39,226.13Z"/><path class="cls-4" d="M267.08,103.16c0,4.74.07,9.48-.1,14.21-.05,1.21,0,1.85,1.26,2-.24,3.09-1.8,5.86-2.2,8.92a48.25,48.25,0,0,1-4.87,12.86c-1,1.82-1.95,3.72-3.13,5.46-1.65,2.44-3.52,4.71-5.23,7.11a78.28,78.28,0,0,1-8.2,8.19,64,64,0,0,1-5.38,3.69,59.55,59.55,0,0,1-26.58,10.76c-16.71,2.4-32.33-1-46.38-10.69a67.13,67.13,0,0,1-9.53-7.53c-1.55-1.46-2.83-3.18-4.32-4.71a64.07,64.07,0,0,1-12.94-25.28c-.46-3.31-2.23-6.25-2.68-9.56.09-3.47,0-6.94.17-10.39.11-1.81-.41-4.12,2.28-4.8l7.36,6.65c1.77-.76,1-2.3,1-3.46.07-8.63.26-17.27-.06-25.89-.15-4,1-5.92,4.87-7.15,20.52-6.52,40.95-13.29,61.42-19.95,3.62-1.18,7.57-1.7,10.85-3.47,5.95-3.22,9.36-.77,13.14,3.73,5.43,6.47,11.45,12.46,17.38,18.49A8.61,8.61,0,0,1,257.89,79c-.1,10.44,0,20.88,0,31.82C262,109,263.69,105.06,267.08,103.16Z"/><path class="cls-7" d="M139.25,103.43c-1.85,3.54-.42,7.34-.87,11-.21,1.7.69,3.64-1.1,5-1.91.6-3.19-.55-4.5-1.63a18.6,18.6,0,0,1-2.44-3.65c-1.64-3-2.74-6-1.83-9.47,1.15-2.74,1.29-6.18,5-7.13C135.6,99.33,137.77,101,139.25,103.43Z"/><path class="cls-6" d="M166.27,164.23c9,6.48,19.34,10.65,30.15,11.43,14.19,1,28.18-1.3,40.23-10.06a19.31,19.31,0,0,1,2.64-1.36c2.19,5.72,1.94,11.46.16,17.21-.11,6.34-.61,12.64-3.2,18.51-7.19,16.33-22,24-40.2,21S167,205,166.28,186c-.05-1.49-.12-3-.18-4.48A25.34,25.34,0,0,1,166.27,164.23Z"/><path class="cls-4" d="M94.39,208c-2.29,4.88-.9,10-1,15a1.1,1.1,0,0,1-.73.27c-2.34-1.89-1.48-4.56-1.6-6.94-.24-5-.5-5.45-5.12-4.4a51.17,51.17,0,0,1-23.16,0c-2.74-.62-5-1.5-6.55-3.86a6.77,6.77,0,0,1-.77.22c-6.45-.27-10.13-5.07-14.11-9-2.31-2.31-5.78-4.15-5.65-8.25l-3.07-5.13c-2.17-2.14-3.23-4.62-2.34-7.7l-1.91-11.17a.75.75,0,0,1,.66-1.09c2.88.41,4.19,3.12,6.83,4.82a164,164,0,0,0,.23-17.53c0-4.11,1.68-6.56,5.53-7.79,16.48-5.24,32.72-11.18,49-17,4.23-1.52,7-.59,9.31,3,.35.56-.16-.07.31.4,10.11,9.92,14.8,21.7,12.51,35.94a5.5,5.5,0,0,0,.34,3.57c2.67-.88,3.76-4.25,6.83-4.43a.78.78,0,0,1,.61,1.15c-1.11,8.08-2.81,16-7.15,23.05.57,2.54-1.39,4-2.71,5.51C106.21,201.73,101.59,206.76,94.39,208Z"/><path class="cls-6" d="M56.26,208.12c9.27,4.31,18.9,5,28.77,2.69,7.33-1.68,7.29-1.76,7.32,5.59,0,2.3.22,4.6.34,6.9-.34,13.54-16.45,21.38-29.49,13.36-5-3.08-6.07-8.36-7.05-13.61Q56.21,215.58,56.26,208.12Z"/><path class="cls-1" d="M28.58,147.35a5.49,5.49,0,0,0,.78-4.08c1.8-9.19,5-17.77,11.11-25l4.91-4.89c12-9.72,26.12-11.8,41-10.93a3.72,3.72,0,0,1,3.09,2c2.85,1.51,3.29,4.35,3.89,7.09,5.26,2.13,10.93,3.27,15.62,6.82,9.06,6.85,10.33,16.87,11.34,27,.26,2.63.16,5.3.22,7.95a14.76,14.76,0,0,1-.26,13.86l-9,8.38c0-8.2-.09-15.42,0-22.63a10.78,10.78,0,0,0-2.51-7.71c-4-4.82-7.77-9.9-11.51-14.95-1.17-1.58-2.11-1.88-4.11-1.17q-26,9.19-52.08,18c-2.84.95-3.44,2.44-3.4,5.06.12,7.22,0,14.44,0,22.9l-9-8.45Q28.68,157,28.58,147.35Z"/><path class="cls-8" d="M175.53,111.53c-5.5.09-9.18-3.42-9.24-8.83a9,9,0,1,1,18-.44C184.48,107.7,180.94,111.44,175.53,111.53Z"/><path class="cls-8" d="M230.05,111.53c-5.42-.08-9-3.8-8.81-9.24a9,9,0,1,1,18,.38C239.21,108.08,235.55,111.61,230.05,111.53Z"/></g></g></svg>