<svg xmlns="http://www.w3.org/2000/svg" xmlns:xlink="http://www.w3.org/1999/xlink" viewBox="0 0 179.13 111.97"><defs><style>.cls-1{fill:url(#Degradado_sin_nombre_26);}.cls-2{font-size:35px;fill:#fff;font-family:Arial-BoldMT, Arial;font-weight:700;}.cls-3{letter-spacing:-0.07em;}.cls-4{fill:#004fab;}.cls-5{fill:#deded2;}.cls-6{fill:#5c6670;}.cls-7{fill:#44541d;}.cls-8{fill:#343e48;}.cls-9{fill:#353e48;}.cls-10{fill:#36404a;}.cls-11{fill:#353f49;}.cls-12{fill:#1b2228;}.cls-13{fill:#d2d3cd;}.cls-14{fill:#e3e3dc;}</style><linearGradient id="Degradado_sin_nombre_26" x1="41.4" y1="129.75" x2="155" y2="-44.24" gradientUnits="userSpaceOnUse"><stop offset="0.03" stop-color="#940000"/><stop offset="0.89" stop-color="#d47600"/></linearGradient></defs><g id="Capa_2" data-name="Capa 2"><g id="Capa_1-2" data-name="Capa 1"><rect class="cls-1" width="179.13" height="111.97" rx="6.35"/><text class="cls-2" transform="translate(42.57 32.3)"><tspan class="cls-3">V</tspan><tspan x="20.75" y="0">ALE</tspan></text><path class="cls-4" d="M114.55,39.57a3.47,3.47,0,0,1,2.1,3.5c0,5.64,0,11.28,0,16.92q0,9,0,18.07,0,9.81,0,19.63c0,1.47,0,3,0,4.42a5.28,5.28,0,0,1-.16,1.49,2.25,2.25,0,0,1-3.28,1.25,25.26,25.26,0,0,0-2.84-1.33c-.61.1-1.23,0-1.83.14a18.13,18.13,0,0,0-2.72,1.26,4.54,4.54,0,0,1-1.83.53,10.17,10.17,0,0,1-1.46,0,7.9,7.9,0,0,1-3.21-1.25,4.63,4.63,0,0,0-2.76-.62,9.16,9.16,0,0,0-2.55,1.1c-.3.14-.59.31-.89.44a6.26,6.26,0,0,1-2.27.38,6.15,6.15,0,0,1-1.94-.35c-.66-.32-1.33-.64-2-1a4.37,4.37,0,0,0-2.68-.57,10.94,10.94,0,0,0-2.63,1.13c-.37.17-.72.38-1.11.53a4.8,4.8,0,0,1-1.13.21,5.81,5.81,0,0,1-3.26-.54l-.5-.26a18.36,18.36,0,0,0-2-1,4.43,4.43,0,0,0-2.14,0,16.9,16.9,0,0,0-2,.93l-.48.24a4.93,4.93,0,0,1-1.07.41,2.33,2.33,0,0,1-2.78-2.58v-60a3.26,3.26,0,0,1,3.45-3.44c4.45,0,8.89,0,13.34,0,4.88,0,9.76,0,14.64,0,4.38,0,8.75,0,13.13,0,1.13,0,2.26.06,3.39,0C113.62,39.3,114.17,39.12,114.55,39.57Z"/><path class="cls-5" d="M114.11,102.8c-.53-.26-1.08-.49-1.59-.78a6.12,6.12,0,0,0-6.52.14,5.05,5.05,0,0,1-3,1,6.75,6.75,0,0,1-2.7-1.09,6.16,6.16,0,0,0-6.4,0,6.38,6.38,0,0,1-2.71,1.05,5.24,5.24,0,0,1-3-1,6.16,6.16,0,0,0-6.58-.07,6.08,6.08,0,0,1-2.78,1.05,5.28,5.28,0,0,1-2.88-1,6.1,6.1,0,0,0-6.52-.14c-.51.29-1.06.52-1.59.78-.33-.2-.21-.52-.21-.79,0-3.85,0-7.69,0-11.54q0-23.64,0-47.27a2.48,2.48,0,0,0-.05-.86,1,1,0,0,1,.72-.69,2.29,2.29,0,0,0,.64,0H113a2.37,2.37,0,0,0,.65,0,.91.91,0,0,1,.71.69,2.48,2.48,0,0,0,0,.86q0,29.34,0,58.67C114.32,102.18,114.48,102.55,114.11,102.8Z"/><path class="cls-6" d="M85.07,61.92H73.51a1.25,1.25,0,0,1-1.24-.56,1,1,0,0,1,0-1.16,1.39,1.39,0,0,1,1.32-.54H96.7a1.28,1.28,0,0,1,1.28.74,1,1,0,0,1-.28,1.19,1.54,1.54,0,0,1-1.15.33Z"/><path class="cls-6" d="M97.33,47.71a1,1,0,0,1,.7,1.17,1.15,1.15,0,0,1-1.13,1h-.14q-11.7,0-23.4,0a.66.66,0,0,1-.28,0,1.18,1.18,0,0,1-1-1,1,1,0,0,1,.71-1.1,1.76,1.76,0,0,0,.51,0H96.83A1.67,1.67,0,0,0,97.33,47.71Z"/><path class="cls-7" d="M106,93.35a5,5,0,0,1,0-.55c.13-.91,0-1.5-1.1-1.82a2.17,2.17,0,0,1-1.62-2.42,2.44,2.44,0,0,1,2-2.24c.35-.09.75-.07.78-.62,0-.25.36-.33.59-.31s.58.15.6.44c0,.46.33.46.62.51a4,4,0,0,1,1.26.51.8.8,0,0,1,.33,1.17.82.82,0,0,1-1.1.39c-.35-.13-.69-.3-1.15-.5,0,.59,0,1.11,0,1.63,0,.26.17.31.35.38s.64.21.94.35A2.31,2.31,0,0,1,110,92.75a2.25,2.25,0,0,1-1.77,2.1c-.51.17-1,.2-.93,1,0,.35-.32.57-.72.51s-.61-.22-.54-.61c.08-.56-.17-.74-.69-.83a4.79,4.79,0,0,1-1.79-.72.87.87,0,0,1-.34-1.3c.29-.49.8-.46,1.27-.19A5,5,0,0,0,106,93.35Z"/><path class="cls-6" d="M80.83,65.73h7.26c.87,0,1.38.41,1.41,1.09S89,68,88.13,68H73.47a1.25,1.25,0,0,1-1.39-1.15c0-.69.55-1.1,1.42-1.1Z"/><path class="cls-6" d="M80.8,55.89H73.52c-.88,0-1.46-.47-1.43-1.16s.61-1.1,1.42-1.1c4.83,0,9.66,0,14.5,0,1,0,1.64.58,1.47,1.31a1.21,1.21,0,0,1-1.33,1C85.7,55.88,83.25,55.89,80.8,55.89Z"/><path class="cls-6" d="M88.66,77.88a1,1,0,0,1,.83,1,1.17,1.17,0,0,1-.83,1.2l-.13,0q-7.73,0-15.45,0l-.14,0c-.5-.24-.9-.58-.84-1.18a1,1,0,0,1,.84-1,1.43,1.43,0,0,0,.5,0H88.23A1.56,1.56,0,0,0,88.66,77.88Z"/><path class="cls-6" d="M81.87,71.75c.77.36,1,.79.88,1.42S82,74,81.41,74c-2.64,0-5.27,0-7.9,0-.86,0-1.31-.28-1.4-.91s.36-1.08,1-1.29l.13,0q4.26,0,8.52,0Z"/><path class="cls-8" d="M103.85,49.83c-.43-.28-.8-.58-.74-1.2s.36-1,1-1c1.64,0,3.28,0,4.91,0a.9.9,0,0,1,.9.61,1.07,1.07,0,0,1-.17,1.15,1.76,1.76,0,0,1-.65.43A41,41,0,0,1,103.85,49.83Z"/><path class="cls-9" d="M109.05,65.7a1.16,1.16,0,0,1,.86,1.44c-.17.74-.78.81-1.41.8h-4c-.63,0-1.24,0-1.41-.8A1.16,1.16,0,0,1,104,65.7,47.26,47.26,0,0,1,109.05,65.7Z"/><path class="cls-9" d="M108.9,59.64c.58.2,1.07.45,1,1.19s-.33,1-1,1c-1.64,0-3.27,0-4.91,0a.9.9,0,0,1-.92-.76,1.06,1.06,0,0,1,.47-1.25,4.2,4.2,0,0,1,.53-.22A41.82,41.82,0,0,1,108.9,59.64Z"/><path class="cls-8" d="M103.86,80a1.15,1.15,0,0,1-.69-1.48c.2-.62.72-.73,1.33-.72q2,0,4,0c.6,0,1.13.1,1.33.72a1.15,1.15,0,0,1-.69,1.48C107.41,80.1,105.64,80.1,103.86,80Z"/><path class="cls-8" d="M104,55.91c-.6-.27-1-.66-.87-1.37a1,1,0,0,1,1.13-.87c1.41,0,2.82,0,4.24,0,.64,0,1.23.06,1.41.79a1.19,1.19,0,0,1-.85,1.45A42.71,42.71,0,0,1,104,55.91Z"/><path class="cls-10" d="M103.86,73.91a1,1,0,0,1-.71-1.35c.13-.61.61-.79,1.21-.79q2.16,0,4.32,0c.6,0,1.08.19,1.22.79a1,1,0,0,1-.71,1.35C107.42,73.84,105.64,73.84,103.86,73.91Z"/><path class="cls-11" d="M97.33,47.71c-.21.18-.46.1-.69.1H73.5c-.24,0-.49.08-.7-.1.2,0,.39,0,.58,0H96.76C97,47.67,97.14,47.7,97.33,47.71Z"/><path class="cls-11" d="M88.66,77.88c-.19.17-.41.1-.62.1H73.56c-.21,0-.44.07-.62-.11Z"/><path class="cls-12" d="M103.86,73.91a4.23,4.23,0,0,1,1.7-.11c1.15,0,2.31,0,3.46-.06.12,0,.16.07.17.17Z"/><path class="cls-11" d="M96.92,49.82l-19.07,0-4.62,0c.22-.21.5-.11.75-.11q11.1,0,22.18,0C96.41,49.7,96.69,49.61,96.92,49.82Z"/><path class="cls-13" d="M107.19,92.63c.16-.26-.2-.75.26-.76a.71.71,0,0,1,.67.79.69.69,0,0,1-.67.72C107,93.34,107.37,92.86,107.19,92.63Z"/><path class="cls-14" d="M106,87.81V89.4a.79.79,0,0,1-.8-.75C105.16,88.18,105.51,88,106,87.81Z"/><path class="cls-11" d="M88.68,80l-7.19,0c-2.86,0-5.71,0-8.56,0,.18-.17.41-.11.62-.11H88.06C88.27,79.86,88.49,79.8,88.68,80Z"/><path class="cls-11" d="M73.07,71.8h8.82c-.15.16-.35.12-.54.12H73.61C73.42,71.92,73.22,72,73.07,71.8Z"/></g></g></svg>