<svg xmlns="http://www.w3.org/2000/svg" viewBox="0 0 388.26 315.2"><defs><style>.cls-1{fill:#dad7da;}.cls-2{fill:#ebe9eb;}.cls-3{fill:#aea6ad;}.cls-4{fill:#ffc409;}.cls-5{fill:#e2b534;}.cls-6{fill:#76cb7c;}.cls-7{fill:#fff;}</style></defs><g id="Capa_2" data-name="Capa 2"><g id="Capa_1-2" data-name="Capa 1"><path d="M388.25,111.38c0-12.59-7.65-20.2-20.34-20.24-9.6,0-19.21-.08-28.81,0a11.91,11.91,0,0,1-6.72-1.9Q273.55,52.77,214.65,16.4a8.56,8.56,0,0,1-3.9-4.73,17.68,17.68,0,0,0-33.2-.16,9,9,0,0,1-4.12,5Q114.36,53,55.37,89.6a10,10,0,0,1-5.67,1.56c-8.85-.07-17.69,0-26.54,0-13.57,0-18,2.89-23.16,15V209.24c3.07,9.1,9,14.89,19,14.93,33.68.12,67.36,0,101,.05,3.23,0,5.62-1.18,6.76-4.36-.14-5.44-1.76-7-7.43-7H21.5c-8,0-10.12-2.14-10.12-10.1q0-45.31,0-90.62c0-7.28,2.26-9.61,9.46-9.61q173.27,0,346.54,0c1.23,0,2.53-.3,3.68.46,4.28,1.19,5.81,3.19,5.81,7.92q0,26.67,0,53.34,0,18-.12,35.93c0,1.64.15,3.28.11,4.92-.13,4.73-2.74,7.43-7.49,7.77-1.14.08-2.28,0-3.41,0H268.92c-5.67,0-7.28,1.57-7.42,7,1.28,3.59,4.1,4.37,7.54,4.37q49.47-.06,98.95,0c12.63,0,20.26-7.69,20.26-20.32Q388.28,157.64,388.25,111.38ZM187.73,17.52a6.4,6.4,0,0,1,12.8.48,6.41,6.41,0,1,1-12.8-.48ZM74.9,91c2.42-1.56,4.13-2.7,5.89-3.79q47.28-29.26,94.54-58.55c2.15-1.34,3.31-1.81,5.32.63,7.28,8.82,19.94,8.55,27.35-.33,1.11-1.33,1.68-2.38,3.78-1.07Q262,59.16,312.4,90.27a6.2,6.2,0,0,1,.52.71Z"/><path d="M220.36,200.3a65.79,65.79,0,0,0-31.51-5.53c-7.35.59-14.19,2.89-21,5.53a73.23,73.23,0,0,0-22.09,18.08c-.66,1.07-1.29,2.15-2,3.2-8.65,13.25-12,27.76-9.19,43.29,6.09,33.34,35.07,54.13,68.73,49.75,30-3.9,53.69-33.59,51.06-63.69a67.33,67.33,0,0,0-12-32.55A72.73,72.73,0,0,0,220.36,200.3Zm2.4,94.34a18.56,18.56,0,0,1-1.95,1.11h0c-14.87,9.78-30.59,10.89-46.71,3.82-26-11.41-36.62-42.86-23.13-67.82a34.93,34.93,0,0,1,2.08-3.1c13.75-24.06,48.2-30.13,71-12.5A48.94,48.94,0,0,1,222.76,294.64Z"/><path class="cls-1" d="M158.55,205.08a69.29,69.29,0,0,1,7.88-4.8c-6.08-.05-12.16-.13-18.24-.13q-52.48,0-105,0c-11.79,0-19-7.22-19-19.09V108.29c0-3.25,0-4.45,1.26-4.9a47.36,47.36,0,0,0-6.52.4c-4.08.61-5.93,2.67-6.31,6.8-.13,1.39-.09,2.78-.09,4.17V200.4c0,1.14,0,2.27,0,3.41.25,5.32,2.3,7.43,7.68,7.9,1.76.15,3.53.09,5.3.09h90.57a40.8,40.8,0,0,1,5.3.15c4.72.61,6.38,3.13,5.26,7.9.93-1.51,2.38-1.55,3.94-1.53,5,.06,10.07,0,15.1,0C148.41,212.39,153.63,208.86,158.55,205.08Z"/><path class="cls-1" d="M121.49,212a40.8,40.8,0,0,0-5.3-.15H25.62c-1.77,0-3.54.06-5.3-.09-5.38-.47-7.43-2.58-7.68-7.9-.06-1.14,0-2.27,0-3.41V114.76c0-1.39,0-2.78.09-4.17.38-4.13,2.23-6.19,6.31-6.8a47.36,47.36,0,0,1,6.52-.4,13.42,13.42,0,0,1,3.76-.26H365.77c1.77,0,3.53-.11,5.29-.18-1.15-.76-2.45-.46-3.68-.46q-173.28,0-346.54,0c-7.2,0-9.46,2.33-9.46,9.61q0,45.32,0,90.62c0,8,2.14,10.1,10.12,10.1h97.82c5.67,0,7.29,1.57,7.43,7C127.87,215.09,126.21,212.57,121.49,212Z"/><path class="cls-1" d="M167.88,200.3l-1.45,0a69.29,69.29,0,0,0-7.88,4.8c-4.92,3.78-10.14,7.31-12.76,13.3A73.23,73.23,0,0,1,167.88,200.3Z"/><path class="cls-1" d="M267.14,211.94c1.76-.17,3.53-.1,5.3-.1h90.14c1.13,0,2.27,0,3.41,0,7.57-.16,9.51-2.11,9.69-9.78,0-.63.08-1.26.09-1.89v0l-150.1,0c-1.26,0-2.51,0-3.76.09,7.23,4.12,14.15,8.66,19.22,15.54.59.79,1.36,1.49,1.34,2.6,5,0,10.07,0,15.1,0,1.57,0,3,0,3.94,1.54C260.36,214.94,262.13,212.44,267.14,211.94Z"/><path class="cls-1" d="M268.92,212.85H366c1.13,0,2.27.06,3.41,0,4.75-.34,7.36-3,7.49-7.77,0-1.64-.07-3.28-.11-4.92h-1v0c0,.63-.07,1.26-.09,1.89-.18,7.67-2.12,9.62-9.69,9.78-1.14,0-2.28,0-3.41,0H272.44c-1.77,0-3.54-.07-5.3.1-5,.5-6.78,3-5.64,7.93C261.64,214.42,263.25,212.85,268.92,212.85Z"/><path class="cls-1" d="M221.9,200.24l-1.54.06a72.73,72.73,0,0,1,22.1,18.08c0-1.11-.75-1.81-1.34-2.6C236.05,208.9,229.13,204.36,221.9,200.24Z"/><path class="cls-2" d="M362,104.3H33.38c-7.89,0-7.89,0-7.89,7.8,0,22.87.3,45.74-.12,68.6-.21,12,9.36,18.35,18.21,18.3,39.16-.2,78.33-.1,117.49-.06,2.09,0,4.35-.52,6.21.84l.87-.51q25.93-11.49,51.9-.07l.93.52c1.25-.93,2.82-.79,4.3-.8q73.43-.06,146.85,0a8.2,8.2,0,0,1,3.63.5c-.17-27.66,0-55.33-.08-83,0-1.77,0-3.54-.05-5.3-.12-3.49-1.45-6.11-5.06-7.1-.2-.09-.41-.16-.61-.23a7.33,7.33,0,0,1-2.7.45C365.5,104.35,363.73,104.3,362,104.3Z"/><path class="cls-2" d="M370,103.8c.2.07.41.14.61.23,3.61,1,4.94,3.61,5.06,7.1.07,1.76.05,3.53.05,5.3.05,27.66-.09,55.33.08,83a3.67,3.67,0,0,1,1,.71q.06-18,.12-35.93,0-26.67,0-53.34c0-4.73-1.53-6.73-5.81-7.92A2.86,2.86,0,0,1,370,103.8Z"/><path class="cls-2" d="M220.05,199.2q-26-11.38-51.9.07l-.87.51a4.14,4.14,0,0,1,.6.52c6.78-2.64,13.62-4.94,21-5.53a65.79,65.79,0,0,1,31.51,5.53,3.72,3.72,0,0,1,.62-.58Z"/><path class="cls-2" d="M161.07,198.94c-39.16,0-78.33-.14-117.49.06-8.85.05-18.42-6.31-18.21-18.3.42-22.86.12-45.73.12-68.6,0-7.8,0-7.8,7.89-7.8H362c1.77,0,3.54,0,5.3,0a7.33,7.33,0,0,0,2.7-.45,14.92,14.92,0,0,0-4.62-.41H25.52c-1.26.45-1.26,1.65-1.26,4.9v72.76c0,11.87,7.17,19.09,19,19.09q52.48,0,105,0c6.08,0,12.16.08,18.24.13l.85-.5C165.42,198.42,163.16,199,161.07,198.94Z"/><path class="cls-2" d="M29.28,103.13a13.42,13.42,0,0,0-3.76.26H365.34a14.92,14.92,0,0,1,4.62.41,2.86,2.86,0,0,0,1.1-.86c-1.76.07-3.52.18-5.29.18Z"/><path class="cls-2" d="M166.43,200.28l1.45,0a4.14,4.14,0,0,0-.6-.52Z"/><path class="cls-2" d="M372.13,198.92q-73.42-.06-146.85,0c-1.48,0-3.05-.13-4.3.8.3.18.61.35.92.52,1.25,0,2.5-.09,3.76-.09l150.1,0v-.71A8.2,8.2,0,0,0,372.13,198.92Z"/><path class="cls-2" d="M375.76,200.13h1a3.67,3.67,0,0,0-1-.71Z"/><path class="cls-2" d="M220.36,200.3l1.54-.06c-.31-.17-.62-.34-.92-.52A3.72,3.72,0,0,0,220.36,200.3Z"/><path class="cls-3" d="M193.89,24.25A6.35,6.35,0,0,0,200.53,18a6.4,6.4,0,0,0-12.8-.48A6.35,6.35,0,0,0,193.89,24.25Z"/><path class="cls-4" d="M224,216.15c-22.78-17.63-57.23-11.56-71,12.5-.18,4.37-1.36,8.61-1.47,13-.36,15,5,28,15,38.71a51.35,51.35,0,0,0,37.06,16.85,77.33,77.33,0,0,0,17.19-1.49h0a18.56,18.56,0,0,0,1.95-1.11A48.94,48.94,0,0,0,224,216.15Z"/><path class="cls-5" d="M198.53,297.88a55.77,55.77,0,0,1-47.84-60.12,32,32,0,0,1,2.36-9.11,34.93,34.93,0,0,0-2.08,3.1c-13.49,25-2.89,56.41,23.13,67.82,16.12,7.07,31.84,6,46.71-3.82C213.67,299.37,206,298.91,198.53,297.88Z"/><path class="cls-6" d="M203.62,297.24a51.35,51.35,0,0,1-37.06-16.85c-10-10.71-15.34-23.67-15-38.71.11-4.42,1.29-8.66,1.47-13a32,32,0,0,0-2.36,9.11,55.77,55.77,0,0,0,47.84,60.12c7.42,1,15.14,1.49,22.28-2.13h0A77.33,77.33,0,0,1,203.62,297.24Z"/><path d="M173.38,134.35a16.76,16.76,0,0,1-.16,2.2c-.08.58-.16,1.17-.25,1.75-.11.76-.22,1.52-.36,2.28-.28,1.46-.56,2.92-.86,4.37-.37,1.76-.79,3.52-1.22,5.28-1.39,5.58-3,11.1-4.87,16.56-.23.66-.48,1.31-.76,2a10.33,10.33,0,0,1-1.07,1.92,5.19,5.19,0,0,1-1.15,1.19,2.73,2.73,0,0,1-1.81.54,4,4,0,0,1-.9-.17,1.77,1.77,0,0,1-.79-.52,4.46,4.46,0,0,1-.33-.43,31.12,31.12,0,0,1-3.08-5.34,69.56,69.56,0,0,1-2.9-7.55c-.82-2.56-1.52-5.15-2.14-7.76-.55-2.24-1.06-4.49-1.56-6.74-.06-.24-.11-.49-.17-.73a3.47,3.47,0,0,0-.13-.46,1.79,1.79,0,0,0-.12-.24.18.18,0,0,0-.31,0,2.59,2.59,0,0,0-.17.33c-.09.24-.16.48-.24.72-.32,1-.57,2.06-.83,3.1-.34,1.41-.67,2.82-1,4.23q-1.26,5-2.55,10c-.38,1.46-.8,2.9-1.19,4.35q-.8,2.9-1.57,5.8a4.54,4.54,0,0,1-.36.95,2.3,2.3,0,0,1-.63.79,1.54,1.54,0,0,1-.56.31.91.91,0,0,1-.82-.07,1.77,1.77,0,0,1-.35-.26,3.69,3.69,0,0,1-1-1.89,1.92,1.92,0,0,1,0-.86c.14-.55.27-1.11.39-1.67.16-.72.31-1.43.46-2.15.18-.88.43-1.74.66-2.6q1.47-5.62,3-11.25,1.53-5.79,3.05-11.57c.18-.67.33-1.35.5-2a7.26,7.26,0,0,1,.57-1.62,3.75,3.75,0,0,1,.68-1,2.17,2.17,0,0,1,1.75-.65,2,2,0,0,1,1.24.46l.8.71c.15.13.28.28.43.41a3.69,3.69,0,0,1,.68.89,8.81,8.81,0,0,1,.5,1.13c.41,1.07.76,2.16,1.06,3.26.55,2,1.08,4,1.62,5.95.88,3.25,1.81,6.48,2.91,9.66a59,59,0,0,0,2.85,6.88,14.86,14.86,0,0,0,.78,1.41,5.78,5.78,0,0,0,.33.48c.08.11.17.14.22.12s.09-.11.11-.18c.11-.47.21-.94.31-1.41s.15-.77.25-1.15a7.11,7.11,0,0,1,.27-.93c1-3,1.92-6,2.7-9.1.84-3.25,1.58-6.53,2.29-9.82.32-1.52.64-3,.91-4.57.23-1.27.44-2.54.6-3.82.09-.76.17-1.53.2-2.3a14.91,14.91,0,0,1,.32-2.39,3.71,3.71,0,0,1,.29-.91,1.83,1.83,0,0,1,.33-.49.63.63,0,0,1,.39-.17,3.29,3.29,0,0,1,1.6.36.43.43,0,0,1,.12.11.27.27,0,0,1,.07.08,7.39,7.39,0,0,1,1,2.77A14.11,14.11,0,0,1,173.38,134.35Z"/><path d="M223.52,166.57c.11-.53.22-1,.33-1.55l1.26-6,1.23-5.82q.56-2.68,1.13-5.35t1.12-5.3l.48-2.31c0-.14.05-.28.07-.43s-.06-.15-.12-.15l-.48,0a7.84,7.84,0,0,1-1.53-.22l-.41-.13a1.39,1.39,0,0,1-.76-.65,9.34,9.34,0,0,1-.73-1.61,2.61,2.61,0,0,1-.11-.68,1.36,1.36,0,0,1,.5-1.19,3.29,3.29,0,0,1,.91-.56,5.25,5.25,0,0,1,1-.32,10.05,10.05,0,0,1,2-.2c.58,0,1.15,0,1.72,0l.48,0c1,0,2,.07,3,.15a19.89,19.89,0,0,1,5.74,1.27,15.12,15.12,0,0,1,5.52,3.71,16.2,16.2,0,0,1,1.82,2.24,14.37,14.37,0,0,1,2,4.66,12.94,12.94,0,0,1,.36,3,19.25,19.25,0,0,1-.16,2.63c-.06.49-.18,1-.29,1.47a21.86,21.86,0,0,1-3,6.95,19.86,19.86,0,0,1-5.06,5.2,30.76,30.76,0,0,1-5.52,3.08c-1.31.57-2.66,1.05-4,1.5l-2,.64-.46.14a19.54,19.54,0,0,1-3.37.84c-.66.11-1.31.21-2,.28a20.84,20.84,0,0,1-3.16.14,5.71,5.71,0,0,1-1.48-.23,2.55,2.55,0,0,1-.87-.4A1.38,1.38,0,0,1,218,170a2.84,2.84,0,0,1,.78-1.62,4.92,4.92,0,0,1,2.54-1.42c.52-.11,1.05-.18,1.58-.26A2.12,2.12,0,0,0,223.52,166.57Zm22.73-16.45a8.64,8.64,0,0,0-.64-3.26,11.36,11.36,0,0,0-2.92-4.13,14.75,14.75,0,0,0-3.89-2.54,11.61,11.61,0,0,0-3.92-1h-.43a.16.16,0,0,0-.12.09,2.13,2.13,0,0,0-.14.35c-.5,1.56-1,3.14-1.42,4.72q-.86,3.08-1.53,6.2c-.52,2.39-1.06,4.78-1.56,7.18-.55,2.59-1.06,5.18-1.59,7.78a3,3,0,0,0-.05.42c0,.06,0,.12.09.11l.47-.1a41.24,41.24,0,0,0,4-1.35,29,29,0,0,0,7.77-4.49,22.43,22.43,0,0,0,2.66-2.5,14.09,14.09,0,0,0,2.56-4.06A9,9,0,0,0,246.25,150.12Z"/><path d="M185.19,134.15h.48c1,0,1.94.07,2.9.15a19.94,19.94,0,0,1,5.44,1.16,15.26,15.26,0,0,1,5.74,3.75,15.67,15.67,0,0,1,2.3,3,14.82,14.82,0,0,1,1.74,4.76,14.61,14.61,0,0,1,.14,4c0,.32-.06.64-.1,1a16.59,16.59,0,0,1-.48,2.2,21.39,21.39,0,0,1-3.39,7,19.52,19.52,0,0,1-4.46,4.38,30.84,30.84,0,0,1-5.82,3.21c-1.43.61-2.9,1.12-4.38,1.6-1,.31-1.94.62-2.91.91a22.9,22.9,0,0,1-2.94.61c-.8.12-1.6.2-2.4.27a16.92,16.92,0,0,1-2.36,0,5.28,5.28,0,0,1-1.47-.31,2.41,2.41,0,0,1-.7-.39,1.33,1.33,0,0,1-.53-1.12,2.59,2.59,0,0,1,.48-1.45,3.31,3.31,0,0,1,.41-.5,4.89,4.89,0,0,1,2.46-1.34c.53-.1,1.06-.17,1.59-.26l.42-.06a.24.24,0,0,0,.21-.22c.18-.87.37-1.75.55-2.62l1-4.83c.34-1.63.69-3.26,1-4.88s.67-3.19,1-4.78c.37-1.78.75-3.57,1.13-5.35.27-1.28.54-2.55.8-3.83a1.77,1.77,0,0,0,.05-.32s-.05-.12-.08-.12l-.48,0a6.57,6.57,0,0,1-1.59-.23,3.42,3.42,0,0,1-.61-.22,1.13,1.13,0,0,1-.5-.47,8.08,8.08,0,0,1-.72-1.55q-.09-.28-.15-.57a1.45,1.45,0,0,1,.53-1.48,3.42,3.42,0,0,1,.92-.54,6.46,6.46,0,0,1,1.72-.42,14.11,14.11,0,0,1,2.25-.07l.75,0Zm3.17,5-.16.44c-1,3-1.86,6.12-2.58,9.24-.35,1.51-.69,3-1,4.55q-.57,2.64-1.12,5.3c-.28,1.33-.55,2.66-.82,4-.21,1-.41,2.07-.62,3.1a.43.43,0,0,0,0,.16s.05.07.06.07a4.36,4.36,0,0,0,.52-.11c.66-.19,1.31-.38,1.95-.59a32.41,32.41,0,0,0,5.33-2.26,27.52,27.52,0,0,0,6-4.33,17.94,17.94,0,0,0,1.58-1.68,14.19,14.19,0,0,0,2-3.29,9,9,0,0,0,.74-3.87,8.37,8.37,0,0,0-.51-2.67,10.87,10.87,0,0,0-2.69-4.15,14.56,14.56,0,0,0-5-3.18,11.21,11.21,0,0,0-3.23-.72Z"/><path d="M283.2,147.18a27.31,27.31,0,0,1-.24,3.07,30.9,30.9,0,0,1-1.31,5.63,30.24,30.24,0,0,1-5.34,9.73,24.07,24.07,0,0,1-5,4.61,18.77,18.77,0,0,1-5,2.43,13.44,13.44,0,0,1-5.19.6,8.26,8.26,0,0,1-6.35-3.62,10.5,10.5,0,0,1-1.49-3.37,15.14,15.14,0,0,1-.42-3.67,21.55,21.55,0,0,1,.58-4.73,33.59,33.59,0,0,1,1.93-5.62,47.39,47.39,0,0,1,4.48-8,52.53,52.53,0,0,1,6.66-7.92c.27-.26.54-.52.82-.77a3.74,3.74,0,0,1,1.51-.89,4.19,4.19,0,0,1,2-.08,2.55,2.55,0,0,1,1,.48,3.88,3.88,0,0,1,.65.63,2.82,2.82,0,0,0,.33.36,1.66,1.66,0,0,0,.21.16.21.21,0,0,0,.32-.07l.14-.23a2.54,2.54,0,0,1,.16-.28.84.84,0,0,1,.48-.41,4.27,4.27,0,0,1,.61-.18,7.25,7.25,0,0,1,.8-.09,4.94,4.94,0,0,1,4,1.55,10.23,10.23,0,0,1,1.33,1.68,14,14,0,0,1,1.73,4A18.34,18.34,0,0,1,283.2,147.18Zm-3.82-.15a14.51,14.51,0,0,0-.31-3.15,7.52,7.52,0,0,0-.93-2.38A5,5,0,0,0,273.7,139h-.1a.41.41,0,0,0-.35.22,3.58,3.58,0,0,0-.24.48l-.29.69a2.13,2.13,0,0,1-.46.65,2,2,0,0,1-1.37.52,1.55,1.55,0,0,1-1.13-.54l-.22-.24-.18-.2a.36.36,0,0,0-.39-.08,1.94,1.94,0,0,0-.56.32,9.06,9.06,0,0,0-1.73,1.6q-1.71,2.07-3.22,4.28a48.24,48.24,0,0,0-4.53,8.09,27.47,27.47,0,0,0-1.72,5.24,12.63,12.63,0,0,0-.28,3.3,6.8,6.8,0,0,0,.34,1.73,5,5,0,0,0,3,3.19,6.91,6.91,0,0,0,2.2.46,9.56,9.56,0,0,0,3.48-.49,13.26,13.26,0,0,0,3.56-1.85,20.8,20.8,0,0,0,3.31-3,24,24,0,0,0,2.86-4.07,30.45,30.45,0,0,0,3.11-7.91A19.34,19.34,0,0,0,279.38,147Z"/><path d="M113.59,173.39a6.11,6.11,0,0,1-1.6-.13,3.59,3.59,0,0,1-1-.39,2.33,2.33,0,0,1-1-1.12,2.93,2.93,0,0,1-.22-.82,7.67,7.67,0,0,1,0-2.14c.14-.85.34-1.68.54-2.52.45-1.92,1-3.81,1.53-5.7.76-2.57,1.43-5.16,2.06-7.77s1.21-5,1.83-7.56c.41-1.71.86-3.4,1.4-5.07.31-.93.65-1.85,1-2.75a10.47,10.47,0,0,1,.67-1.34c.17-.28.36-.54.55-.8a4.51,4.51,0,0,1,.37-.39,1.15,1.15,0,0,1,.88-.32,5.87,5.87,0,0,1,.59.05,2,2,0,0,1,1.24.78.59.59,0,0,1,.13.29c0,.21.07.42.11.63l.06.21a.16.16,0,0,0,.16.11c.23,0,.46-.06.69-.11.73-.17,1.46-.36,2.19-.54a2.69,2.69,0,0,0,.46-.14,45.33,45.33,0,0,1,5-1.4,21,21,0,0,1,5.75-.49,5.38,5.38,0,0,1,1.26.23,2.06,2.06,0,0,1,.63.31,1.19,1.19,0,0,1,.54.94,1.74,1.74,0,0,1-.34,1.21,2.61,2.61,0,0,1-.77.67,3.67,3.67,0,0,1-1.36.47c-.49.06-1,.18-1.47.28-1.21.23-2.42.48-3.63.73-.31.07-.63.15-.93.25q-2.87.91-5.7,1.9c-.49.17-1,.34-1.46.53a5.27,5.27,0,0,0-2.59,2,8.2,8.2,0,0,0-1,1.85c-.18.5-.36,1-.51,1.53q-.75,2.43-1.47,4.88c-.15.53-.28,1.07-.43,1.6a1.67,1.67,0,0,0,0,.59.14.14,0,0,0,.14.13,2,2,0,0,0,.42-.06c.46-.13.93-.27,1.38-.43l5-1.82c1.71-.63,3.42-1.26,5.16-1.82a17.93,17.93,0,0,1,1.9-.55,3.52,3.52,0,0,1,1.12-.05,1,1,0,0,1,.82.61.93.93,0,0,1,.06.37,2.51,2.51,0,0,1-.56,1.64,5.11,5.11,0,0,1-1.83,1.46q-.63.28-1.29.54l-3.3,1.26-.75.31-6,2.78-.68.32a12.69,12.69,0,0,1-2.16.79l-.93.26a.34.34,0,0,0-.22.22c-.18.53-.31,1.06-.44,1.6-.31,1.31-.59,2.62-.83,3.94-.08.47-.16,1-.22,1.43a6.13,6.13,0,0,0,0,.86,1.17,1.17,0,0,0,.08.36.63.63,0,0,0,.61.45,6.24,6.24,0,0,0,.86,0,11.46,11.46,0,0,0,1.74-.28,20.89,20.89,0,0,0,4.4-1.54,14.57,14.57,0,0,0,1.49-.84l1.9-1.22a15,15,0,0,1,1.93-1.05,4.6,4.6,0,0,1,2.19-.4,1.92,1.92,0,0,1,.63.14,1.43,1.43,0,0,1,.46.27.89.89,0,0,1,.32.86,3,3,0,0,1-.35,1,4.19,4.19,0,0,1-.49.7,8.22,8.22,0,0,1-1.31,1.26,19.83,19.83,0,0,1-2,1.39,42.36,42.36,0,0,1-5.14,2.55,29,29,0,0,1-2.86,1.09,21.61,21.61,0,0,1-3.18.75A16,16,0,0,1,113.59,173.39Z"/><path d="M299,153.65c-.94.08-1.89.11-2.84.11a5.94,5.94,0,0,1-2.74-.65,5.53,5.53,0,0,1-2.24-2,6.51,6.51,0,0,1-1-2.54,3.9,3.9,0,0,1,0-.59,10.12,10.12,0,0,1,.92-4.37,16.59,16.59,0,0,1,2-3.24,28.77,28.77,0,0,1,2.75-3.09,36.54,36.54,0,0,1,6.25-5,15.06,15.06,0,0,1,2.53-1.29,12.42,12.42,0,0,1,3-.71,11.6,11.6,0,0,1,1.44-.09,5.69,5.69,0,0,1,1.74.31,4.38,4.38,0,0,1,1.13.6,3.84,3.84,0,0,1,1.56,2.77,5.82,5.82,0,0,1,0,1.18,2,2,0,0,1-.24.76,1.56,1.56,0,0,1-.27.4.91.91,0,0,1-.67.3,3.29,3.29,0,0,1-1.16-.16l-.91-.32q-.37-.13-.75-.3a3.89,3.89,0,0,0-2.05-.25,8.91,8.91,0,0,0-2.72.77,19.23,19.23,0,0,0-4,2.47,25.34,25.34,0,0,0-2.33,2.07c-.92.92-1.8,1.88-2.64,2.89-.17.21-.34.42-.49.64a4.53,4.53,0,0,0-.72,1.6,3.25,3.25,0,0,0-.08,1.12,1.74,1.74,0,0,0,.65,1.2,2.51,2.51,0,0,0,1.05.51,3.41,3.41,0,0,0,.85.1l1.18,0,1.55-.06,1.07-.06a20.2,20.2,0,0,1,2.58,0,7.12,7.12,0,0,1,4,1.43,6.59,6.59,0,0,1,2.47,3.85,8.67,8.67,0,0,1-.16,4.35,14.59,14.59,0,0,1-1,2.55,29.77,29.77,0,0,1-5.33,7.68,20,20,0,0,1-3,2.53A15.38,15.38,0,0,1,296.5,173a10.22,10.22,0,0,1-3.38.54A9.36,9.36,0,0,1,288,172a7.3,7.3,0,0,1-1.63-1.46,5.51,5.51,0,0,1-1-1.88,4.56,4.56,0,0,1-.17-1.76,2.6,2.6,0,0,1,.09-.47.56.56,0,0,1,.82-.41c.33.14.66.29,1,.45s.79.4,1.19.6a16.56,16.56,0,0,0,2.43,1,8.07,8.07,0,0,0,3.24.29,10.72,10.72,0,0,0,4.33-1.47,13.17,13.17,0,0,0,3.67-3.18,29.44,29.44,0,0,0,2.82-4.18,14.72,14.72,0,0,0,.86-1.79,5.7,5.7,0,0,0,.34-1.29,1.92,1.92,0,0,0-.54-1.67,3.19,3.19,0,0,0-.88-.62,5.35,5.35,0,0,0-1.37-.44,9.58,9.58,0,0,0-1.92-.16Z"/><path d="M83.52,151.36c.08-2.9.07-6.07.07-9.24a11.77,11.77,0,0,0-.17-2.13c0-.25-.08-.5-.11-.75a8.28,8.28,0,0,1,.07-2.72,3.85,3.85,0,0,1,.27-.81,2.19,2.19,0,0,1,.42-.62,1.53,1.53,0,0,1,1-.51,3.08,3.08,0,0,1,.91,0,1.83,1.83,0,0,1,.9.45,3.16,3.16,0,0,1,.76,1.09,5.71,5.71,0,0,1,.33,1.14,13.66,13.66,0,0,1,.16,2.56c0,1.16-.13,2.32-.22,3.48,0,.07,0,.15,0,.22,0,.87-.1,1.75-.14,2.62-.06,1-.11,2-.17,3.06,0,.16,0,.32,0,.48-.07,1.88-.15,3.75-.17,5.63,0,1.24,0,2.47,0,3.71a33.8,33.8,0,0,0,.18,3.48,14.15,14.15,0,0,0,.64,3.09,8.59,8.59,0,0,0,.41,1,3.08,3.08,0,0,0,.36.6,1.93,1.93,0,0,0,.68.59c.22.13.3.13.46-.06.37-.41.74-.83,1.09-1.26a38,38,0,0,0,2.66-3.63,67.92,67.92,0,0,0,4.33-7.78c.82-1.71,1.57-3.45,2.32-5.19q2-4.68,3.84-9.44c.59-1.55,1.13-3.13,1.6-4.72.12-.38.26-.74.4-1.11a2.13,2.13,0,0,1,1.41-1.3,4.16,4.16,0,0,1,1.49-.11,1.22,1.22,0,0,1,1.11.94.8.8,0,0,1,.05.21,4.56,4.56,0,0,1-.14,1.8c-.3.88-.61,1.76-1,2.62-1.49,3.66-3,7.33-4.48,11C104,151.92,103,154,102,156.13a81.62,81.62,0,0,1-4.38,8c-1.43,2.31-3,4.54-4.61,6.72-.26.34-.53.68-.81,1s-.46.5-.7.74a3.85,3.85,0,0,1-.69.51,2.92,2.92,0,0,1-2.38.27,2.43,2.43,0,0,1-.72-.36,5.06,5.06,0,0,1-1.1-1,6.31,6.31,0,0,1-.74-1.11,18.63,18.63,0,0,1-2-6.18c-.14-.83-.24-1.67-.3-2.51-.08-1-.15-2.07-.13-3.11,0-1.39.06-2.79.08-4.18C83.5,153.81,83.51,152.71,83.52,151.36Z"/><path d="M219.47,136.1a7.9,7.9,0,0,1-.27,2.09c-.22.91-.47,1.8-.76,2.68-.58,1.83-1.11,3.66-1.65,5.5s-1,3.43-1.46,5.16c-.49,1.9-1,3.8-1.49,5.71-.3,1.16-.52,2.34-.73,3.52s-.34,2.22-.5,3.34c-.13.9-.23,1.81-.35,2.71-.21,1.43-.44,2.86-.75,4.28a2.92,2.92,0,0,1-1.64,2.07,2.06,2.06,0,0,1-1,.23,4.91,4.91,0,0,1-.53,0,.94.94,0,0,1-.67-.41,2.71,2.71,0,0,1-.48-2.08c.1-.56.22-1.13.33-1.69l.69-3.52c.27-1.37.54-2.74.8-4.11s.55-2.73.81-4.1c.31-1.6.66-3.19,1-4.77.65-2.73,1.34-5.45,2-8.17.44-1.75.9-3.5,1.28-5.27.28-1.27.55-2.55.8-3.83a2.87,2.87,0,0,1,.36-.89,2.83,2.83,0,0,1,2-1.3,1.33,1.33,0,0,0,.21,0,.86.86,0,0,1,.88.27,3.45,3.45,0,0,1,1.13,2.24,1.62,1.62,0,0,1,0,.22A.94.94,0,0,1,219.47,136.1Z"/><path d="M177.5,238.42c1.78,0,3.4,0,5,0,.49,0,.47.32.54.63a17,17,0,0,0,8,11.05,16.22,16.22,0,0,0,12.19,2.09c6.78-1.5,11.1-5.69,13.18-12.26.15-.47.23-1,.35-1.5,1.34,0,2.67,0,4,0a1.75,1.75,0,0,1,1.37,2.3c-.32,1.46-.7,2.91-1.07,4.37-1.1,4.38-2.22,8.76-3.3,13.15-.14.58-.35.79-1,.79q-16.64,0-33.25,0c-.63,0-.9-.18-1-.8-1.35-5.47-2.74-10.92-4.12-16.37Z"/><path d="M213.83,235.37a14,14,0,1,1-13.89-14A14,14,0,0,1,213.83,235.37Zm-7.65-8.75c-3.35-2.86-10.05-3.22-14.32,1.35-4.1,4.41-3.31,11-.74,13.7Zm2.41,2.36-15.11,15.11c3.31,2.81,9.65,3.21,13.89-.84A10.88,10.88,0,0,0,208.59,229Z"/><path d="M216.31,264c-.24.9-.4,1.73-.69,2.5a1.83,1.83,0,0,1-1.87,1.19H179.84c-1.54,0-2-.38-2.42-1.9l-5.1-20.16c-.76-3-1.54-6-2.27-9a1,1,0,0,0-.92-.86c-2.48-.5-5-1-7.43-1.6a1.74,1.74,0,0,1-1.45-1.93,1.78,1.78,0,0,1,2.08-1.69q4.69,1,9.38,2A1.85,1.85,0,0,1,173.2,234q2.12,8.4,4.23,16.8c1,4.15,2.12,8.29,3.15,12.44a.85.85,0,0,0,1,.77q16.88,0,33.76,0Z"/><path d="M198.08,276.38a5.54,5.54,0,1,1,5.57,5.48A5.48,5.48,0,0,1,198.08,276.38Z"/><path d="M189.7,270.79a5.53,5.53,0,0,1,0,11.06,5.53,5.53,0,1,1,0-11.06Z"/><path class="cls-7" d="M206.18,226.62l-15.06,15c-2.57-2.74-3.36-9.29.74-13.7C196.13,223.4,202.83,223.76,206.18,226.62Z"/><path class="cls-7" d="M208.59,229a10.88,10.88,0,0,1-1.22,14.27c-4.24,4.05-10.58,3.65-13.89.84Z"/></g></g></svg>