<svg xmlns="http://www.w3.org/2000/svg" viewBox="0 0 383.08 383.13"><defs><style>.cls-1{fill:#020202;}.cls-2{fill:#040404;}.cls-3{fill:#030202;}.cls-4{fill:#030404;}.cls-5{fill:#040302;}.cls-6{fill:#f9ca37;}.cls-7{fill:#d3ddf4;}.cls-8{fill:#f0383c;}.cls-9{fill:#17add9;}.cls-10{fill:#fb7d00;}.cls-11{fill:#050401;}.cls-12{fill:#040101;}.cls-13{fill:#000304;}.cls-14{fill:#000202;}.cls-15{fill:#050200;}</style></defs><g id="Capa_2" data-name="Capa 2"><g id="Capa_1-2" data-name="Capa 1"><path class="cls-1" d="M71.79,0a27.67,27.67,0,0,1,5.68,4.56Q132.33,59.48,187.28,114.3a13.55,13.55,0,0,1,4.32,10.57c-.18,19.32-.07,38.65-.08,58,0,6.57-2.14,8.68-8.78,8.68-19.7,0-39.4-.05-59.1.05A11.27,11.27,0,0,1,115,188Q59.41,132.24,3.71,76.58c-4.89-4.89-4.92-7.77-.1-12.59Q33.76,33.83,63.92,3.69c1.31-1.3,2.75-2.46,4.13-3.69Zm107,151.12c0-8.23,0-16.46,0-24.69a5.42,5.42,0,0,0-1.73-4.26Q124.64,69.85,72.32,17.41c-1.56-1.56-2.38-1.81-4.08-.09Q43,42.82,17.44,68.11c-1.85,1.83-1.51,2.71.12,4.33q52.31,52.2,104.49,104.5a5.88,5.88,0,0,0,4.58,1.88c16.34-.07,32.68-.11,49,0,2.79,0,3.23-.95,3.19-3.41C178.68,167.33,178.77,159.23,178.77,151.12Z"/><path class="cls-2" d="M383.08,211c-8.57-.72-17.17-.07-25.74-.34-2.4-.07-2.38,1.76-2.91,3.18Q339.2,255.12,324,296.39c-3.7,10-7.5,20-11.07,30.09-1.37,3.86-3.9,5.56-7.85,5.54-5.11,0-10.22.09-15.33,0-2-.05-2.68.56-2.47,2.51a23.51,23.51,0,0,1,0,4.11c-.28,4.28.08,7.48,4.73,10.24,7.69,4.58,9.8,13.69,6.62,22a19,19,0,0,1-36.49-3.29A18.84,18.84,0,0,1,272.27,347c1.68-.86,2.41-1.76,2.31-3.66a61.71,61.71,0,0,1,0-8.6c.21-2.5-.87-2.8-3-2.79-17.21.07-34.42.1-51.63,0-2.61,0-3.23.91-3,3.2a13,13,0,0,1,0,3c-.51,4.64.27,8,5,10.84,7.4,4.48,9.51,13.73,6.41,21.82A19.16,19.16,0,0,1,209,383.05c-8.62-.83-15.32-7-17.16-15.78-1.64-7.85,2.53-16.33,10.14-20.21,1.65-.84,2.43-1.71,2.31-3.64a81.34,81.34,0,0,1,0-9c.11-2-.59-2.49-2.52-2.47-8.72.1-17.46-.06-26.18.1-2.61.05-3.37-.68-3.36-3.32,0-9.55-.06-9.55,9.38-9.55,38.66,0,77.32-.07,116,.11,3.57,0,4.89-1.22,6-4.31q20.14-55.14,40.51-110.21c2.23-6.06,3.45-6.86,9.84-7,9.7-.15,19.41.42,29.11-.31ZM217,363.75a6.29,6.29,0,0,0-6.24-6.15,6.45,6.45,0,0,0-6.43,6.4,6.71,6.71,0,0,0,6.31,6.26A6.51,6.51,0,0,0,217,363.75Zm63.81,6.5a6.65,6.65,0,0,0,6.46-6.07A6.44,6.44,0,0,0,281,357.6a6.35,6.35,0,0,0-6.43,6A6.51,6.51,0,0,0,280.78,370.25Z"/><path class="cls-3" d="M383.08,53.13c-2.25,2.42-4.43,4.93-6.77,7.27q-38,38.09-76.07,76.18a12.43,12.43,0,0,1-9.58,4c-13-.13-25.92,0-38.88-.05-7,0-9.24-2.16-9.25-9,0-13.21.05-26.42,0-39.62a11.25,11.25,0,0,1,3.57-8.62q40-39.86,79.83-79.83C327,2.27,328.67,1.68,329.21,0h4.49a33.71,33.71,0,0,1,6.1,5.15q18.92,19,37.9,37.89a36.63,36.63,0,0,1,5.38,6.35ZM273.55,127.75c4.86,0,9.72-.06,14.58,0a5.85,5.85,0,0,0,4.63-1.82q36.42-36.54,73-73c1.41-1.41,1.72-2.24.13-3.81q-16.1-15.9-32-32c-1.54-1.56-2.38-1.36-3.82.09q-36.42,36.54-72.95,73a5.47,5.47,0,0,0-1.85,4.24c.07,10.09.09,20.18,0,30.28,0,2.27.68,3.07,3,3C263.33,127.66,268.44,127.75,273.55,127.75Z"/><path class="cls-4" d="M236,204.27h74c7.94,0,10.35,3.25,8,10.81q-13.15,42.36-26.34,84.71c-1.68,5.39-3.26,6.62-8.85,6.62q-47.32,0-94.63,0c-5.62,0-7.12-1.21-8.76-6.68q-12.64-42.33-25.3-84.65c-2.26-7.55.22-10.81,8.15-10.81Zm0,12.76c-21.31,0-42.62.06-63.93-.07-3.16,0-4,.4-3,3.73q10.59,34.78,20.83,69.69c.72,2.45,1.73,3.27,4.35,3.26q41.31-.17,82.62,0c2.59,0,3.63-.78,4.39-3.23q10.73-35,21.75-69.8c1-3.15.32-3.66-2.74-3.64C278.92,217.08,257.48,217,236.05,217Z"/><path class="cls-5" d="M98.91,255.28c6.85,0,13.71,0,20.57,0,5.78.05,8.23,2.42,8.25,8.17.06,13.71,0,27.43,0,41.14a10.16,10.16,0,0,1-3.23,7.64Q90.63,346,56.8,379.92c-4.18,4.17-7.29,4.16-11.51-.05q-21.08-21-42.06-42.05c-4.33-4.35-4.3-7.4.07-11.79Q37,292.3,70.72,258.55a10.47,10.47,0,0,1,8-3.3C85.44,255.34,92.17,255.28,98.91,255.28ZM115,286.09c0-5-.12-10,0-15,.09-2.51-.8-3.16-3.22-3.13-10,.12-20,.1-29.93,0a5.86,5.86,0,0,0-4.54,2Q47.49,300,17.53,329.79c-1.73,1.71-1.75,2.61,0,4.32Q33.38,349.73,49,365.6c1.84,1.88,2.73,1.42,4.32-.17Q83,335.6,112.83,305.9a6.51,6.51,0,0,0,2.2-5.22C114.87,295.82,115,291,115,286.09Z"/><path class="cls-2" d="M242.53,153.26c6.51,0,6.51,0,6.51,6.65,0,6.13,0,6.13-6.31,6.13-6.47,0-6.47,0-6.47-6.31v-.38C236.26,153.26,236.26,153.26,242.53,153.26Z"/><path class="cls-2" d="M242.34,191.54c-6.08,0-6.08,0-6.08-5.93,0-6.83,0-6.83,6.66-6.83,6.12,0,6.12,0,6.12,6.29C249,191.54,249,191.54,242.34,191.54Z"/><path class="cls-2" d="M140.52,210.85c0,6.18,0,6.18-6.24,6.18-6.54,0-6.54,0-6.54-6.58,0-6.18,0-6.18,6.19-6.18C140.52,204.27,140.52,204.27,140.52,210.85Z"/><path class="cls-2" d="M140.52,235.92c0,6.61,0,6.61-6.55,6.61-6.23,0-6.23,0-6.23-6.13,0-6.63,0-6.63,6.5-6.63C140.52,229.77,140.52,229.77,140.52,235.92Z"/><path class="cls-6" d="M178.77,151.12c0,8.11-.09,16.21.06,24.32,0,2.46-.4,3.44-3.19,3.41-16.33-.14-32.67-.1-49,0a5.88,5.88,0,0,1-4.58-1.88Q69.87,124.64,17.56,72.44c-1.63-1.62-2-2.5-.12-4.33Q43,42.83,68.24,17.32c1.7-1.72,2.52-1.47,4.08.09q52.32,52.44,104.76,104.76a5.42,5.42,0,0,1,1.73,4.26C178.73,134.66,178.77,142.89,178.77,151.12ZM67.69,88.05c-.09,14,13.2,27.16,29,19.9,4.18-1.93,8.13-4.34,12.55-5.73a5.47,5.47,0,0,1,4.66.17A9,9,0,0,1,118,113.31c-1.57,3.83-6.45,6.74-10.08,4.69-4.35-2.47-5.95.21-8.21,2.51a33.14,33.14,0,0,1-2.93,2.88c-1.88,1.49-1.22,2.47.38,3.63,4.64,3.34,10.08,5.87,15.37,3.88,7-2.65,10.79.55,14.61,5.22.39.48.91.85,1.31,1.33.86,1,1.47.7,2.42-.07,8.55-7,8.57-7,1-14.6a7.45,7.45,0,0,0-.8-.79c-1.79-1.31-1.76-2.71-1.06-4.82,2.88-8.56,1.17-16.28-5.37-22.6-6.73-6.52-14.5-7-22.77-3.27-3.28,1.5-6.45,3.24-9.77,4.65-2.12.9-4.31,2-6.77.77-3.93-2-5.9-7.25-4.14-11.18S88,78.92,91.7,81.1c3.49,2.07,4.84.29,6.73-1.69a34.92,34.92,0,0,1,3.72-3.68c2.09-1.62,1.3-2.65-.4-3.84C95.6,67.57,88.92,66.48,81.89,69c-2.31.82-3.61.45-5.13-1.24-2.08-2.32-4.43-4.39-6.55-6.66-1.23-1.32-2-1.6-3.57-.18C59,68,58.93,68,66.27,75.31a2.2,2.2,0,0,0,.27.26c2.72,2,3.85,4.17,2.11,7.56C67.79,84.82,67.88,87,67.69,88.05Zm82.45,52.49a9.48,9.48,0,1,0,9.36,9.59A9.56,9.56,0,0,0,150.14,140.54Z"/><path class="cls-7" d="M217,363.75a6.51,6.51,0,0,1-6.36,6.51A6.71,6.71,0,0,1,204.3,364a6.45,6.45,0,0,1,6.43-6.4A6.29,6.29,0,0,1,217,363.75Z"/><path class="cls-7" d="M280.78,370.25a6.51,6.51,0,0,1-6.19-6.68,6.35,6.35,0,0,1,6.43-6,6.44,6.44,0,0,1,6.22,6.58A6.65,6.65,0,0,1,280.78,370.25Z"/><path class="cls-8" d="M273.55,127.75c-5.11,0-10.22-.09-15.33,0-2.3.06-3-.74-3-3,.1-10.1.08-20.19,0-30.28a5.47,5.47,0,0,1,1.85-4.24q36.51-36.43,72.95-73c1.44-1.45,2.28-1.65,3.82-.09q15.9,16.1,32,32c1.59,1.57,1.28,2.4-.13,3.81q-36.56,36.42-73,73a5.85,5.85,0,0,1-4.63,1.82C283.27,127.69,278.41,127.75,273.55,127.75ZM297.75,102C311,102,319,90.34,314.39,78.72c-1.23-3.11-2.79-6.1-4.16-9.16-1.21-2.69.14-4.25,2.48-5.28a4.34,4.34,0,0,1,4.85.92A4,4,0,0,1,318.77,70c-1,2.07-.08,3.15,1.26,4.4,1.83,1.69,3.62,3.43,5.29,5.28,1.15,1.28,1.91,1.12,2.88-.19a17.33,17.33,0,0,0,3.17-15.15A17.55,17.55,0,0,0,308.88,52c-9.85,3.19-14.35,13-10.34,22.78,1.13,2.76,2.55,5.39,3.81,8.1.83,1.79,1.23,3.54-.59,5.06a4.71,4.71,0,0,1-5.55.66c-1.85-.95-3-2.88-2.21-4.64,1.45-3.11-.41-4.52-2.21-6.22a26.18,26.18,0,0,1-3.14-3.18c-2.21-2.94-3.64-1.83-5.07.7-3.32,5.87-3.65,11.84-.36,17.75A16.38,16.38,0,0,0,297.75,102Z"/><path class="cls-9" d="M236.05,217c21.43,0,42.87.05,64.3-.06,3.06,0,3.74.49,2.74,3.64q-11.07,34.84-21.75,69.8c-.76,2.45-1.8,3.24-4.39,3.23q-41.31-.15-82.62,0c-2.62,0-3.63-.81-4.35-3.26q-10.28-34.89-20.83-69.69c-1-3.33-.19-3.75,3-3.73C193.43,217.09,214.74,217,236.05,217Zm0,19.24H206.86c-9.11,0-9,0-9.08,9.18,0,3.08,1,3.66,3.85,3.65,21.2-.11,42.4-.06,63.6-.06,9.47,0,9.36,0,9.39-9.58,0-2.72-.9-3.27-3.41-3.25C259.49,236.33,247.77,236.27,236,236.27Zm0,38.28h22.79c9.3,0,9.18,0,9.28-9.3,0-2.79-.71-3.54-3.52-3.52-16.93.13-33.87.06-50.81.06-9.7,0-9.62,0-9.59,9.66,0,2.39.58,3.2,3.08,3.16C216.88,274.46,226.47,274.55,236.06,274.55Z"/><path class="cls-10" d="M115,286.09c0,4.87-.11,9.73,0,14.59a6.51,6.51,0,0,1-2.2,5.22Q83,335.6,53.31,365.43c-1.59,1.59-2.48,2.05-4.32.17q-15.58-15.9-31.47-31.49c-1.74-1.71-1.72-2.61,0-4.32Q47.52,300,77.34,270a5.86,5.86,0,0,1,4.54-2c10,.1,20,.12,29.93,0,2.42,0,3.31.62,3.22,3.13C114.86,276.11,115,281.1,115,286.09ZM63.1,335.16C75.49,335,82.79,322.48,77.21,312c-.82-1.53-1.64-3.06-2.41-4.62-.53-1.1-1.31-2.27.09-3.33A2.73,2.73,0,0,1,78,303.6c1.25.64,2.13,1.76,1.62,3-.79,1.89.3,2.74,1.37,3.79a46.38,46.38,0,0,1,4.46,4.52c2.29,3,3.57,1.63,4.94-.78a15.74,15.74,0,0,0-3.25-19.72,15.5,15.5,0,0,0-20-.55,15.77,15.77,0,0,0-4.1,19.57c.85,1.66,1.79,3.27,2.6,4.95.47,1,1.16,2.06,0,3a2.77,2.77,0,0,1-3.09.72c-1.25-.57-2.37-1.74-1.85-2.88,1-2.27-.5-3.17-1.67-4.36a54.26,54.26,0,0,1-4.19-4.26c-1.9-2.46-3.24-2-4.62.42-3,5.29-3.33,10.64-.34,16A15.36,15.36,0,0,0,63.1,335.16Z"/><path class="cls-11" d="M67.69,88.05c.19-1,.1-3.23,1-4.92,1.74-3.39.61-5.6-2.11-7.56a2.2,2.2,0,0,1-.27-.26C58.93,68,59,68,66.64,60.92c1.52-1.42,2.34-1.14,3.57.18,2.12,2.27,4.47,4.34,6.55,6.66,1.52,1.69,2.82,2.06,5.13,1.24,7-2.52,13.71-1.43,19.86,2.89,1.7,1.19,2.49,2.22.4,3.84a34.92,34.92,0,0,0-3.72,3.68c-1.89,2-3.24,3.76-6.73,1.69-3.69-2.18-8.79.49-10.54,4.44s.21,9.13,4.14,11.18C87.76,98,90,96.85,92.07,96c3.32-1.41,6.49-3.15,9.77-4.65,8.27-3.77,16-3.25,22.77,3.27,6.54,6.32,8.25,14,5.37,22.6-.7,2.11-.73,3.51,1.06,4.82a7.45,7.45,0,0,1,.8.79c7.56,7.58,7.54,7.56-1,14.6-1,.77-1.56,1.1-2.42.07-.4-.48-.92-.85-1.31-1.33-3.82-4.67-7.61-7.87-14.61-5.22-5.29,2-10.73-.54-15.37-3.88-1.6-1.16-2.26-2.14-.38-3.63a33.14,33.14,0,0,0,2.93-2.88c2.26-2.3,3.86-5,8.21-2.51,3.63,2,8.51-.86,10.08-4.69a9,9,0,0,0-4.07-10.92,5.47,5.47,0,0,0-4.66-.17c-4.42,1.39-8.37,3.8-12.55,5.73C80.89,115.21,67.6,102.09,67.69,88.05Z"/><path class="cls-11" d="M150.14,140.54a9.48,9.48,0,1,1-9.6,9.36A9.53,9.53,0,0,1,150.14,140.54Z"/><path class="cls-12" d="M297.75,102a16.38,16.38,0,0,1-14.53-9c-3.29-5.91-3-11.88.36-17.75,1.43-2.53,2.86-3.64,5.07-.7a26.18,26.18,0,0,0,3.14,3.18c1.8,1.7,3.66,3.11,2.21,6.22-.83,1.76.36,3.69,2.21,4.64a4.71,4.71,0,0,0,5.55-.66c1.82-1.52,1.42-3.27.59-5.06-1.26-2.71-2.68-5.34-3.81-8.1-4-9.74.49-19.59,10.34-22.78a17.55,17.55,0,0,1,22.49,12.26,17.33,17.33,0,0,1-3.17,15.15c-1,1.31-1.73,1.47-2.88.19-1.67-1.85-3.46-3.59-5.29-5.28-1.34-1.25-2.26-2.33-1.26-4.4a4,4,0,0,0-1.21-4.75,4.34,4.34,0,0,0-4.85-.92c-2.34,1-3.69,2.59-2.48,5.28,1.37,3.06,2.93,6,4.16,9.16C319,90.34,311,102,297.75,102Z"/><path class="cls-13" d="M236,236.27c11.73,0,23.45.06,35.17-.06,2.51,0,3.42.53,3.41,3.25,0,9.58.08,9.58-9.39,9.58-21.2,0-42.4,0-63.6.06-2.81,0-3.88-.57-3.85-3.65.11-9.18,0-9.18,9.08-9.18Z"/><path class="cls-14" d="M236.06,274.55c-9.59,0-19.18-.09-28.77.06-2.5,0-3.08-.77-3.08-3.16,0-9.66-.11-9.66,9.59-9.66,16.94,0,33.88.07,50.81-.06,2.81,0,3.55.73,3.52,3.52-.1,9.3,0,9.3-9.28,9.3Z"/><path class="cls-15" d="M63.1,335.16A15.36,15.36,0,0,1,50,327.05c-3-5.36-2.65-10.71.34-16,1.38-2.43,2.72-2.88,4.62-.42a54.26,54.26,0,0,0,4.19,4.26c1.17,1.19,2.71,2.09,1.67,4.36-.52,1.14.6,2.31,1.85,2.88a2.77,2.77,0,0,0,3.09-.72c1.15-1,.46-2.07,0-3-.81-1.68-1.75-3.29-2.6-4.95a15.77,15.77,0,0,1,4.1-19.57,15.5,15.5,0,0,1,20,.55,15.74,15.74,0,0,1,3.25,19.72c-1.37,2.41-2.65,3.77-4.94.78A46.38,46.38,0,0,0,81,310.38c-1.07-1.05-2.16-1.9-1.37-3.79.51-1.23-.37-2.35-1.62-3a2.73,2.73,0,0,0-3.12.48c-1.4,1.06-.62,2.23-.09,3.33.77,1.56,1.59,3.09,2.41,4.62C82.79,322.48,75.49,335,63.1,335.16Z"/></g></g></svg>