<?xml version="1.0" encoding="utf-8"?>
<!-- Generator: Adobe Illustrator 24.1.1, SVG Export Plug-In . SVG Version: 6.00 Build 0)  -->
<svg version="1.1" xmlns="http://www.w3.org/2000/svg" xmlns:xlink="http://www.w3.org/1999/xlink" x="0px" y="0px"
	 viewBox="0 0 132.5 87.1" style="enable-background:new 0 0 132.5 87.1;" xml:space="preserve">
<style type="text/css">
	.st0{display:none;}
	.st1{display:inline;}
	.st2{fill:#E0E0E0;}
	.st3{fill:#37474F;}
	.st4{fill:#455A64;}
	.st5{fill:#263238;}
	.st6{opacity:0.3;fill:#27DEBF;enable-background:new    ;}
	.st7{opacity:0.1;fill:#27DEBF;enable-background:new    ;}
	.st8{opacity:0.2;enable-background:new    ;}
	.st9{opacity:0.3;fill:#FFFFFF;enable-background:new    ;}
	.st10{opacity:0.2;}
	.st11{opacity:0.3;}
	.st12{opacity:0.7;}
	.st13{fill:#27DEBF;}
	.st14{opacity:0.7;fill:#27DEBF;enable-background:new    ;}
	.st15{display:inline;fill:#27DEBF;}
	.st16{display:inline;opacity:0.55;fill:#FFFFFF;enable-background:new    ;}
	.st17{display:inline;opacity:0.7;fill:#FFFFFF;enable-background:new    ;}
	.st18{display:inline;opacity:0.9;fill:#FFFFFF;enable-background:new    ;}
	.st19{display:inline;opacity:0.9;}
	.st20{display:inline;fill:#FAFAFA;}
	.st21{display:inline;fill:#263238;}
	.st22{display:inline;fill:#455A64;}
	.st23{display:inline;opacity:0.3;enable-background:new    ;}
	.st24{display:inline;opacity:0.15;enable-background:new    ;}
	.st25{display:inline;fill:#F5F5F5;}
	.st26{opacity:0.5;enable-background:new    ;}
	.st27{fill:#FAFAFA;}
	.st28{opacity:0.15;enable-background:new    ;}
	.st29{opacity:0.25;enable-background:new    ;}
	.st30{display:inline;fill:#37474F;}
	.st31{display:inline;opacity:0.3;fill:#FFFFFF;enable-background:new    ;}
</style>
<g id="sombra" class="st0">
	<g id="Shadows" class="st1">
		<path id="Shadow-2" class="st2" d="M127.8,165.3l90.3-52.2c2.2-1.3,2.2-3.4,0-4.7L33.1,1.7c-2.5-1.3-5.5-1.3-8.1,0l-90.2,52.2
			c-2.2,1.3-2.2,3.4,0,4.7l185,106.8C122.3,166.6,125.3,166.6,127.8,165.3z"/>
	</g>
</g>
<g id="Capa_1" class="st0">
	<g id="Character" class="st1">
		<path class="st3" d="M219.4,99.4c-0.3-0.5-0.8-0.9-1.3-1.2L207,91.8v-2.1l11.1,6.4C219.6,96.9,220.1,98.2,219.4,99.4z"/>
		<path class="st4" d="M219.4,99.4c-0.1-0.1-0.1-0.2-0.2-0.3c0,0,0-0.1-0.1-0.1c-0.1-0.1-0.2-0.2-0.3-0.3c-0.1-0.1-0.2-0.2-0.3-0.2
			l0,0c-0.1-0.1-0.1-0.1-0.2-0.2l-0.3-0.2l-11.1-6.4c-8,4.6-27.5,15.9-47,27.1L133.5,134l-23.1,13.3l-1.9,1.1l11.1,6.4
			c1.2,0.7,2.6,1,4,1c0.3,0,0.5,0,0.8,0c0.1,0,0.2,0,0.3,0c0.2,0,0.4,0,0.6-0.1c0.3,0,0.5-0.1,0.8-0.2c0.5-0.1,1-0.3,1.5-0.6
			l90.3-52.2c0.5-0.3,0.9-0.6,1.3-1.1c0-0.1,0.1-0.1,0.2-0.2l0,0l0,0c0.1-0.1,0.1-0.2,0.1-0.3c0-0.1,0.1-0.2,0.1-0.3
			c0-0.1,0-0.2,0-0.3v-0.1C219.7,100.1,219.6,99.7,219.4,99.4z M156.8,124.4l3.1-1.8l4-2.3c2.4-1.3,5.3-1.3,7.8-0.1
			c0.6,0.3,1,0.8,1.3,1.4c-0.3,0.7-0.9,1.3-1.6,1.6l-7.1,4.1c-1.4,0.7-2.9,1.1-4.5,1c-1.2,0-2.3-0.3-3.4-0.9
			c-0.6-0.3-1.1-0.8-1.4-1.4C155.6,125.3,156.1,124.8,156.8,124.4L156.8,124.4z"/>
		<path class="st5" d="M33.1-10.8c-1.2-0.7-2.6-1-4-1v2.2c1.4,0,2.8,0.3,4,1l11.1,6.4v-2.2L33.1-10.8z"/>
		<path class="st3" d="M29-11.8v2.2c-1.4,0-2.8,0.3-4,1l-90.3,52.2c-0.5,0.3-1,0.7-1.3,1.2c-0.7-1.2-0.3-2.5,1.3-3.4L25-10.8
			C26.3-11.5,27.7-11.8,29-11.8z"/>
		<path class="st4" d="M33.1-8.6c-2.5-1.3-5.5-1.3-8.1,0L13.9-2.2L2.2,4.6l-16.4,9.5l-5.6,3.1l-9.2,5.3l-16,9.2l-20.3,11.9l-0.4,0.3
			l-0.2,0.1c-0.1,0.1-0.2,0.1-0.2,0.2c-0.1,0.1-0.2,0.1-0.2,0.2l0,0c-0.1,0-0.1,0.1-0.1,0.2c-0.1,0.1-0.1,0.1-0.1,0.2l0,0
			c-0.2,0.3-0.3,0.6-0.3,1v0.1c0,0.1,0,0.2,0,0.3c0.1,0.6,0.4,1.1,0.9,1.5c0.2,0.2,0.5,0.4,0.7,0.5l11.1,6.4l1.9-1.1l7.4-4.3l16-9.2
			l9.2-5.3l5.5-3.2L2.3,22L14,15.2L44.2-2.3L33.1-8.6z M1.6,14.2c-0.1,0.1-0.3,0.2-0.4,0.3c-1.2,0.6-2.6,0.6-3.8,0
			c-0.2-0.1-0.3-0.2-0.4-0.3c0.1-0.1,0.3-0.2,0.4-0.3c1.2-0.6,2.6-0.6,3.8,0C1.3,14,1.4,14.1,1.6,14.2z M-6,18.6
			c-0.2,0.2-0.3,0.3-0.5,0.4l-7.7,4.5l-5.5,3.2l-5.9,3.4c-1,0.5-2.2,0.6-3.3,0.3c-0.2-0.1-0.4-0.1-0.6-0.3c-0.2-0.1-0.3-0.2-0.4-0.3
			c0.2-0.2,0.3-0.3,0.5-0.4l0.5-0.3l9.2-5.3l5.5-3.2l3.9-2.3c1.2-0.6,2.7-0.7,3.9-0.1C-6.3,18.3-6.2,18.4-6,18.6L-6,18.6z"/>
		<path class="st6" d="M219.6,97.6c-0.1-0.2-0.2-0.4-0.3-0.6c-0.3-0.5-0.8-0.8-1.3-1.1l-11.1-6.4l-47-27.1l-26.4-15.2l-100.4-58
			c-2.5-1.3-5.5-1.3-8.1,0L13.9-4.4L2.1,2.4l-16.4,9.5l-5.5,3.2l-9.2,5.3l-16,9.2l-20.4,11.7l-0.4,0.3c-0.1,0.1-0.2,0.2-0.3,0.3
			l-0.3,0.2c-0.1,0.1-0.2,0.2-0.2,0.3l0,0c-0.1,0.1-0.1,0.1-0.1,0.2l-0.1,0.1l0,0v0.1v0.1c0,0.1,0,0.1,0,0.2v0.1c0,0.1,0,0.2,0,0.3
			v2.2c0,0.1,0,0.2,0,0.3s0,0.2,0.1,0.3c0.3,0.7,0.9,1.3,1.6,1.7l173.7,100.4l0,0l11.1,6.4c1.2,0.7,2.6,1,4,1c0.3,0,0.5,0,0.8,0
			c0.1,0,0.2,0,0.3,0c0.2,0,0.4,0,0.6-0.1c0.3,0,0.5-0.1,0.8-0.2c0.5-0.1,1-0.3,1.5-0.6l90.3-52.2c0.5-0.3,0.9-0.6,1.3-1.1
			c0-0.1,0.1-0.1,0.2-0.2l0,0l0,0c0.1-0.1,0.1-0.2,0.1-0.3c0-0.1,0.1-0.2,0.1-0.3c0-0.1,0-0.2,0-0.3v-0.1c0-0.4,0-1.5,0-1.9l0,0
			v-0.1C219.6,98.2,219.6,97.9,219.6,97.6z M155.2,126c0.3-0.7,0.9-1.3,1.6-1.6l3.1-1.8l4-2.3c2.4-1.3,5.3-1.3,7.8-0.1
			c0.6,0.3,1,0.8,1.3,1.4c-0.3,0.7-0.9,1.3-1.6,1.6l-7.1,4.1c-1.4,0.7-2.9,1.1-4.5,1c-1.2,0-2.3-0.3-3.4-0.9
			C156,127.1,155.5,126.6,155.2,126L155.2,126z M-2.7,13.9c1.2-0.6,2.6-0.6,3.8,0c0.2,0.1,0.3,0.2,0.4,0.3c-0.1,0.1-0.3,0.2-0.4,0.3
			c-1.2,0.6-2.6,0.6-3.8,0c-0.2-0.1-0.3-0.2-0.4-0.3C-3,14.1-2.8,14-2.7,13.9z M-29.5,29.4l0.5-0.3l9.2-5.3l5.5-3.2l3.9-2.3
			c1.2-0.6,2.7-0.7,3.9-0.1c0.2,0.1,0.3,0.2,0.4,0.3l0,0c-0.2,0.2-0.3,0.3-0.5,0.4l-7.7,4.4l-5.5,3.2l-5.9,3.4
			c-1,0.5-2.2,0.6-3.3,0.3c-0.2-0.1-0.4-0.1-0.6-0.3c-0.2-0.1-0.3-0.2-0.4-0.3C-29.9,29.6-29.7,29.5-29.5,29.4z"/>
		<path class="st7" d="M219.6,97.6c-0.1-0.2-0.2-0.4-0.3-0.6c-0.3-0.5-0.8-0.8-1.3-1.1l-11.1-6.4l-47-27.1l-26.4-15.2l-100.4-58
			c-2.5-1.3-5.5-1.3-8.1,0L13.9-4.4L2.1,2.4l-16.4,9.5l-5.5,3.2l-9.2,5.3l-16,9.2l-20.4,11.7l-0.4,0.3c-0.1,0.1-0.2,0.2-0.3,0.3
			l-0.3,0.2c-0.1,0.1-0.2,0.2-0.2,0.3l0,0c-0.1,0.1-0.1,0.1-0.1,0.2l-0.1,0.1l0,0v0.1v0.1c0,0.1,0,0.1,0,0.2v0.1c0,0.1,0,0.2,0,0.3
			v0.2c0,0.1,0,0.1,0,0.2l0,0V44v0.1l0,0l0,0c0,0.1,0,0.1,0.1,0.2c0,0.1,0.1,0.2,0.2,0.4c0,0.1,0.1,0.1,0.2,0.2
			c0,0.1,0.1,0.1,0.2,0.2c0,0.1,0.1,0.1,0.2,0.1l0,0l0.1,0.1c0.2,0.2,0.4,0.3,0.7,0.5l173.8,100.5l1.9,1.1l9.2,5.3
			c0.1,0.1,0.3,0.2,0.4,0.2l0.1,0.1l0.2,0.1l0,0c0.2,0.1,0.4,0.1,0.5,0.2l0,0c0.2,0.1,0.4,0.1,0.6,0.2l0,0h0.2
			c0.2,0,0.4,0.1,0.7,0.1h0.3h0.3h0.6c1.4,0,2.8-0.3,4-1l5.8-3.4l26.4-15.2l58.2-33.4c0.1-0.1,0.3-0.1,0.4-0.2
			c0.1,0,0.2-0.1,0.2-0.2l0.2-0.2c0.1-0.1,0.2-0.2,0.2-0.2l0.1-0.1c0.1-0.1,0.1-0.2,0.2-0.3c0-0.1,0.1-0.2,0.1-0.2
			c0-0.1,0.1-0.1,0.1-0.2s0-0.1,0-0.2v-0.1v-0.2l0,0v-0.1C219.7,98,219.6,97.8,219.6,97.6z M-6.1,18.6c-0.2,0.2-0.3,0.3-0.5,0.4
			l-7.7,4.4l-5.5,3.2l-5.9,3.4c-1,0.5-2.2,0.6-3.3,0.3c-0.2-0.1-0.4-0.1-0.6-0.3c-0.2-0.1-0.3-0.2-0.4-0.3c0.2-0.2,0.3-0.3,0.5-0.4
			L-29,29l9.2-5.3l5.5-3.2l3.9-2.3c1.2-0.6,2.7-0.7,3.9-0.1C-6.3,18.3-6.2,18.4-6.1,18.6L-6.1,18.6z M1.1,14.6
			c-1.2,0.6-2.6,0.6-3.8,0c-0.2-0.1-0.3-0.2-0.4-0.3C-3,14.2-2.8,14-2.7,14c1.2-0.6,2.6-0.6,3.8,0c0.2,0.1,0.3,0.2,0.4,0.3
			C1.4,14.4,1.3,14.5,1.1,14.6L1.1,14.6z M171.4,123.2l-7.1,4.1c-1.4,0.7-2.9,1.1-4.5,1c-1.2,0-2.3-0.3-3.4-0.9
			c-0.6-0.3-1.1-0.8-1.4-1.4c0.3-0.7,0.9-1.3,1.6-1.6l3.1-1.8l4-2.3c2.4-1.3,5.3-1.3,7.8-0.1c0.6,0.3,1,0.8,1.3,1.4
			C172.7,122.3,172.1,122.8,171.4,123.2z"/>
		<path class="st8" d="M219.7,100.5c-0.1,1-0.7,1.9-1.7,2.3L127.7,155c-2.5,1.3-5.5,1.3-8.1,0L-65.3,48.2c-0.9-0.4-1.6-1.3-1.7-2.3
			v-2.1c0.1,1,0.8,1.8,1.7,2.2l184.9,106.8c2.5,1.3,5.5,1.3,8.1,0l90.3-52.2c0.9-0.4,1.5-1.2,1.7-2.2
			C219.7,98.9,219.7,100.1,219.7,100.5z"/>
		<polygon class="st9" points="13.9,-4.4 4.7,0.9 4.7,86.4 13.9,91.7 		"/>
		<path class="st9" d="M25.1-10.9L25.1-10.9l-5.9,3.4V94.8l5.9,3.4V-10.9z"/>
		<polygon class="st9" points="95.5,25.2 69.1,10 69.1,123.6 95.5,138.8 		"/>
		<path class="st9" d="M-30.3,29.1c0,0.3,0.1,0.6,0.3,0.8c0.1,0.1,0.2,0.2,0.4,0.3c0.2,0.1,0.4,0.2,0.6,0.3v36.6l-16-9.2V29.6
			l16-9.2v7.2l-0.5,0.3C-30,28.1-30.3,28.5-30.3,29.1z"/>
		<polygon class="st9" points="-14.3,11.8 -14.3,19.1 -19.8,22.2 -19.8,15 		"/>
		<polygon class="st9" points="-19.8,26.6 -14.3,23.4 -14.3,75.5 -19.8,72.3 		"/>
		<polygon class="st9" points="192.3,81.1 180.6,74.3 180.6,122.2 192.3,115.5 		"/>
		<path class="st9" d="M155.2,124.6c-0.1,0.3-0.1,0.6-0.1,0.9l0,0c0,0.2,0.1,0.3,0.1,0.5c0.3,0.6,0.8,1.1,1.4,1.4
			c1,0.6,2.2,0.8,3.4,0.9v5.9l-26.4,15.3V47.1L160,62.3V121l-3.1,1.8c-0.5,0.3-1,0.7-1.3,1.1C155.3,124.2,155.2,124.4,155.2,124.6z"
			/>
		<polygon class="st9" points="203.5,87.5 197.6,84.1 197.6,112.4 203.5,109 		"/>
		<polygon class="st9" points="52.6,114.1 58.5,117.5 58.5,3.8 52.6,0.4 		"/>
		<polygon class="st9" points="115.2,36.6 109.4,33.2 109.4,146.8 115.2,150.2 		"/>
		<path class="st4" d="M219.7,100.5c0-0.3,0-1.6,0-2.1c-0.1,1-0.8,1.8-1.7,2.2l-90.3,52.2c-2.5,1.3-5.5,1.3-8.1,0l-11.1-6.4v2.2l0,0
			l11.1,6.4c2.5,1.3,5.5,1.3,8.1,0l90.3-52.2C219,102.4,219.6,101.5,219.7,100.5z"/>
		<path class="st3" d="M123.7,153.7c-1.4,0-2.8-0.3-4-1l-11.1-6.4v2.3l0,0l11.1,6.4c1.2,0.7,2.6,1,4,1V153.7z"/>
		<path class="st3" d="M-67,43.7v2.1c0.1,1,0.7,1.9,1.7,2.3l11.1,6.4v-2.2l0,0l-11.1-6.4C-66.2,45.6-66.8,44.7-67,43.7z"/>
		<g class="st10">
			<path d="M-5.7,17.8c0-0.4-0.3-0.8-0.7-1c-1.2-0.6-2.7-0.6-3.9,0.1l-3.9,2.3l-5.5,3.2l-9.2,5.3l-0.5,0.3c-0.5,0.2-0.8,0.7-0.9,1.2
				c0,0.3,0,1.3,0,1.5c0.1,0.4,0.3,0.8,0.7,1c0.2,0.1,0.4,0.2,0.6,0.3c1.1,0.3,2.3,0.2,3.3-0.3l5.9-3.4l5.5-3.2l7.7-4.5
				c0.5-0.2,0.8-0.6,0.9-1.2C-5.7,19.1-5.7,18-5.7,17.8z M-6,18.6c-0.2,0.2-0.3,0.3-0.5,0.4l-7.7,4.5l-5.5,3.2l-5.9,3.4
				c-1,0.5-2.2,0.6-3.3,0.3c-0.2-0.1-0.4-0.1-0.6-0.3c-0.2-0.1-0.3-0.2-0.4-0.3c0.2-0.2,0.3-0.3,0.5-0.4l0.5-0.3l9.2-5.3l5.5-3.2
				l3.9-2.3c1.2-0.6,2.7-0.7,3.9-0.1C-6.3,18.3-6.2,18.4-6,18.6L-6,18.6z"/>
			<path d="M1.2,12.4c-1.2-0.6-2.6-0.6-3.8,0C-3,12.6-3.3,13-3.4,13.5c0,0.3,0,1.3,0,1.5c0,0.5,0.3,0.9,0.8,1.1
				c1.2,0.6,2.6,0.6,3.8,0C1.6,15.9,1.9,15.5,2,15v-1.5C1.9,13,1.6,12.6,1.2,12.4z M1.2,14.5c-1.2,0.6-2.6,0.6-3.8,0
				c-0.2-0.1-0.3-0.2-0.4-0.3c0.1-0.1,0.3-0.2,0.4-0.3c1.2-0.6,2.6-0.6,3.8,0c0.2,0.1,0.3,0.2,0.4,0.3C1.5,14.4,1.3,14.5,1.2,14.5
				L1.2,14.5z"/>
		</g>
		<g class="st11">
			<path d="M-5.8,17.5c0-0.1-0.1-0.2-0.1-0.3L-6,17.1L-6.1,17l-0.1-0.1l-0.2-0.1c-1.2-0.6-2.7-0.6-3.9,0.1l-19.2,11
				c-0.5,0.2-0.8,0.7-0.9,1.2c0,0.3,0.1,0.6,0.3,0.8c0.2-0.2,0.3-0.3,0.5-0.4l0.5-0.3l9.2-5.3l5.5-3.2l3.9-2.3
				c1.2-0.6,2.7-0.7,3.9-0.1c0.2,0.1,0.3,0.2,0.4,0.3c0.2-0.2,0.3-0.5,0.3-0.8C-5.7,17.7-5.7,17.6-5.8,17.5z"/>
			<path d="M1.9,13.2c0-0.1,0-0.1-0.1-0.2c-0.2-0.3-0.4-0.5-0.7-0.6c-1.2-0.6-2.6-0.6-3.8,0L-3,12.6l-0.2,0.2c0,0.1-0.1,0.1-0.1,0.2
				s-0.1,0.1-0.1,0.2s-0.1,0.2-0.1,0.4l0,0v0.1c0.1,0.2,0.2,0.4,0.3,0.6c0.1-0.1,0.3-0.2,0.4-0.3c1.2-0.6,2.6-0.6,3.8,0
				c0.2,0.1,0.3,0.2,0.4,0.3c0.2-0.2,0.3-0.4,0.4-0.6v-0.2C1.9,13.3,1.9,13.3,1.9,13.2z"/>
		</g>
		<g class="st12">
			<path class="st13" d="M-5.7,17.8c0,0.3-0.1,0.6-0.3,0.8c-0.1-0.1-0.3-0.2-0.4-0.3c-1.2-0.6-2.7-0.6-3.9,0.1l-3.9,2.3l-5.5,3.2
				l-9.2,5.3l-0.5,0.3c-0.2,0.1-0.4,0.3-0.5,0.4c-0.2-0.2-0.3-0.5-0.3-0.8c0-0.5,0.4-1,0.9-1.2l18.9-11.1c1.2-0.6,2.7-0.7,3.9-0.1
				l0.2,0.1l0.1,0.1c0.1,0,0.1,0.1,0.1,0.1l0.1,0.1c0.1,0.1,0.1,0.2,0.1,0.3C-5.7,17.6-5.7,17.7-5.7,17.8z"/>
			<path class="st13" d="M1.9,13.5v0.1c0,0.2-0.2,0.4-0.4,0.6c-0.1-0.1-0.3-0.2-0.4-0.3c-1.2-0.6-2.6-0.6-3.8,0
				C-2.9,14-3,14.1-3.1,14.2c-0.2-0.2-0.3-0.4-0.3-0.6v-0.1l0,0c0-0.1,0-0.2,0.1-0.4c0-0.1,0.1-0.1,0.1-0.2s0.1-0.1,0.1-0.2l0.2-0.2
				l0.3-0.2c1.2-0.6,2.6-0.6,3.8,0c0.3,0.1,0.5,0.4,0.7,0.6C1.9,13,2,13,2,13.1C1.9,13.3,1.9,13.4,1.9,13.5z"/>
		</g>
		<path class="st8" d="M172.9,119.8c-0.1-0.1-0.1-0.2-0.2-0.3c-0.3-0.3-0.6-0.6-1-0.8c-2.5-1.2-5.4-1.1-7.8,0.1l-7.1,4.1
			c-0.5,0.3-1,0.7-1.3,1.1c-0.1,0.2-0.2,0.4-0.3,0.6c-0.1,0.2-0.1,0.4-0.1,0.7v1.5c0.1,0.9,0.6,1.7,1.5,2.1c1,0.5,2.2,0.8,3.4,0.9
			c1.5,0.1,3.1-0.3,4.5-1l7.1-4.1c1-0.4,1.6-1.3,1.7-2.4c0-0.3,0-1.3,0-1.5C173.2,120.5,173.1,120.1,172.9,119.8z M172.7,122.1
			c-0.1,0.1-0.1,0.2-0.2,0.2c-0.3,0.3-0.7,0.6-1.1,0.9l-7.1,4.1c-0.3,0.2-0.6,0.3-0.9,0.4c-0.3,0.1-0.6,0.2-0.9,0.3
			c-0.9,0.2-1.7,0.3-2.6,0.3h-0.5c-0.3,0-0.6-0.1-0.9-0.1l-0.4-0.1l-0.4-0.1c-0.4-0.1-0.8-0.3-1.1-0.5c-0.3-0.2-0.7-0.4-0.9-0.7
			c-0.1-0.1-0.2-0.2-0.2-0.3s-0.1-0.1-0.1-0.2c0-0.1-0.1-0.1-0.1-0.2l0,0c0.3-0.7,0.9-1.3,1.6-1.6l3.1-1.8l4-2.3
			c2.4-1.3,5.3-1.3,7.8-0.1c0.6,0.3,1,0.8,1.3,1.4C173,121.8,172.8,121.9,172.7,122.1z"/>
		<path class="st14" d="M173.2,120.8c0,0.3-0.1,0.5-0.2,0.8c-0.3-0.6-0.8-1.1-1.3-1.4c-2.5-1.2-5.4-1.1-7.8,0.1l-3.9,2.3l-3.1,1.8
			c-0.7,0.4-1.2,0.9-1.6,1.6c-0.1-0.1-0.1-0.3-0.1-0.5l0,0c0-0.3,0-0.6,0.1-0.9c0.1-0.2,0.2-0.4,0.3-0.6c0.4-0.5,0.8-0.8,1.3-1.1
			l7.1-4.1c2.4-1.3,5.3-1.3,7.8-0.1c0.4,0.2,0.7,0.5,1,0.8c0.1,0.1,0.2,0.2,0.2,0.3C173.1,120.2,173.2,120.5,173.2,120.8z"/>
		<path class="st14" d="M173.2,120.8c0,0.3-0.1,0.5-0.2,0.8c-0.3-0.6-0.8-1.1-1.3-1.4c-2.5-1.2-5.4-1.1-7.8,0.1l-3.9,2.3l-3.1,1.8
			c-0.7,0.4-1.2,0.9-1.6,1.6c-0.1-0.1-0.1-0.3-0.1-0.5l0,0c0-0.3,0-0.6,0.1-0.9c0.1-0.2,0.2-0.4,0.3-0.6c0.4-0.5,0.8-0.8,1.3-1.1
			l7.1-4.1c2.4-1.3,5.3-1.3,7.8-0.1c0.4,0.2,0.7,0.5,1,0.8c0.1,0.1,0.2,0.2,0.2,0.3C173.1,120.2,173.2,120.5,173.2,120.8z"/>
	</g>
</g>
<g id="midTapa" class="st0">
	<path class="st15" d="M218.2,96.3L33.2-10.5c-2.5-1.3-5.5-1.3-8.1,0l-90.3,52.1c-0.9,0.4-1.6,1.3-1.7,2.3v2.4
		c0.1,1,0.7,1.9,1.7,2.3l185,106.8c2.5,1.3,5.5,1.3,8.1,0l90.3-52.1c0.9-0.4,1.6-1.3,1.7-2.3v-2.4C219.8,97.6,219.1,96.7,218.2,96.3
		z"/>
	<path class="st16" d="M123.8,154v2.4c-1.4,0-2.8-0.3-4-1l-185-106.7c-0.9-0.4-1.6-1.3-1.7-2.3V44c0.1,1,0.7,1.9,1.7,2.3
		l184.9,106.8C121,153.7,122.4,154.1,123.8,154z"/>
	<path class="st17" d="M219.8,98.7v2.3c-0.1,1-0.7,1.9-1.7,2.3l-90.3,52.2c-1.2,0.7-2.6,1-4,1v-2.4c1.4,0,2.8-0.3,4-1l90.3-52.1
		C219.1,100.5,219.7,99.7,219.8,98.7z"/>
	<path class="st18" d="M127.8,153.1l90.3-52.1c2.2-1.3,2.2-3.4,0-4.7L33.2-10.5c-2.5-1.3-5.5-1.3-8.1,0l-90.3,52.1
		c-2.2,1.3-2.2,3.4,0,4.7l185,106.8C122.3,154.3,125.3,154.3,127.8,153.1z"/>
	<g class="st19">
		<path class="st13" d="M29.2-11.2c1.4,0,2.7,0.3,3.9,0.9l185,106.8c1.2,0.4,1.8,1.6,1.4,2.8c-0.2,0.7-0.8,1.2-1.4,1.4l-90.3,52.1
			c-2.5,1.2-5.4,1.2-7.8,0l-185-106.8c-1.2-0.4-1.8-1.6-1.4-2.8c0.2-0.7,0.8-1.2,1.4-1.4l90.4-52.2C26.5-11,27.8-11.3,29.2-11.2
			 M29.2-11.5c-1.4,0-2.8,0.3-4,1l-90.3,52.1c-2.2,1.3-2.2,3.4,0,4.7l185,106.8c2.5,1.3,5.5,1.3,8.1,0l90.2-52.1
			c2.2-1.3,2.2-3.4,0-4.7L33.2-10.5C32-11.2,30.6-11.5,29.2-11.5L29.2-11.5z"/>
	</g>
	<path class="st15" d="M-39.9,31.4l-20.7,12c-0.3,0.1-0.5,0.4-0.4,0.8c0.1,0.2,0.2,0.3,0.4,0.4l13.1,7.6c0.6,0.3,1.4,0.3,2,0
		l20.7-11.9c0.3-0.1,0.5-0.4,0.4-0.8c-0.1-0.2-0.2-0.3-0.4-0.4l-13.1-7.6C-38.6,31.2-39.3,31.1-39.9,31.4z"/>
	<path class="st20" d="M-35.3,43.6l-7.5,4.5h-3.7c0,0-0.1,0-0.1,0l-3.9,2.2l0.5,0.3l3.6-2.1h3.7h0.1L-35,44c0.1-0.1,0.1-0.2,0.1-0.3
		C-35,43.5-35.1,43.5-35.3,43.6L-35.3,43.6L-35.3,43.6z"/>
	<path class="st20" d="M-59.8,45l3.6-2.1h3.7c0,0,0.1,0,0.1,0l7.6-4.4c0.1-0.1,0.1-0.2,0.1-0.3c-0.1-0.1-0.2-0.1-0.3-0.1
		c0,0,0,0,0,0l-7.5,4.3h-3.7c0,0-0.1,0-0.1,0l-3.9,2.3L-59.8,45z"/>
	<path class="st20" d="M-51.3,45.8h3.7h0.1l7.6-4.4c0.1-0.1,0.1-0.2,0.1-0.3c0,0,0,0,0,0c-0.1-0.1-0.2-0.2-0.3-0.1l-7.5,4.3h-3.7
		c0,0-0.1,0-0.1,0l-3.9,2.3l0.5,0.3L-51.3,45.8z"/>
	<path class="st20" d="M-54,44.2h3.7c0,0,0.1,0,0.1,0l1.9-1.1c0.1-0.1,0.1-0.2,0.1-0.3c-0.1-0.1-0.2-0.1-0.3-0.1c0,0,0,0,0,0
		l-1.8,1.1h-3.7c0,0-0.1,0-0.1,0l-3.9,2.3l0.5,0.3L-54,44.2z"/>
	<path class="st20" d="M-44.4,38c0.2,0.1,0.3,0.2,0.2,0.4c0,0.1-0.1,0.2-0.2,0.2c-0.3,0.1-0.7,0.1-1,0c-0.2-0.1-0.3-0.2-0.2-0.4
		c0-0.1,0.1-0.2,0.2-0.2C-45.1,37.8-44.7,37.8-44.4,38z"/>
	<path class="st20" d="M-47.9,42.6c0.3,0.2,0.3,0.4,0,0.6c-0.3,0.1-0.7,0.1-1,0c-0.2-0.1-0.3-0.2-0.2-0.4c0-0.1,0.1-0.2,0.2-0.2
		C-48.6,42.4-48.2,42.4-47.9,42.6z"/>
	<path class="st20" d="M-39.5,40.9c0.2,0.1,0.3,0.2,0.2,0.4c0,0.1-0.1,0.2-0.2,0.2c-0.3,0.2-0.7,0.2-1,0c-0.2-0.1-0.3-0.2-0.2-0.4
		c0-0.1,0.1-0.2,0.2-0.2C-40.2,40.7-39.8,40.7-39.5,40.9z"/>
	<polygon class="st15" points="-16.2,60.3 -12.4,62.5 18.5,45.1 14.7,42.9 	"/>
	<path class="st21" d="M106.5,32L33.2-10.4c-2.5-1.3-5.5-1.3-8.1,0l-84.5,48.8c-0.5,0.2-0.9,0.7-0.9,1.3v0.5c0,0.4,0.3,0.8,0.7,1
		c1.2,0.6,2.6,0.6,3.8-0.1l11.1-6.4c1.3-0.6,2.7-0.6,4,0l7.3,4.2c0.5,0.1,0.9,0.5,0.8,1c0,0.4-0.4,0.8-0.8,0.8l-7.3,4.2
		c-0.5,0.2-0.8,0.7-0.8,1.2v0.5c0,0.5,0.4,0.9,0.8,1.1l14.9,8.6c1.3,0.6,2.7,0.6,4,0l37.6-21.7c1.2-0.6,2.7-0.7,3.9-0.1
		c0.3,0.2,0.6,0.5,0.7,0.8c-0.1,0.4-0.4,0.8-0.8,1l-41.4,23.9c-0.5,0.2-0.8,0.7-0.8,1.2V62c0,0.5,0.4,1,0.8,1.2l11.1,6.4
		c1.3,0.6,2.7,0.6,4,0l22.5-13c0.5-0.2,0.8-0.7,0.8-1.2v-0.5c0-0.5-0.4-0.9-0.8-1.1l-2.2-1.3c-0.5-0.1-0.9-0.5-0.8-1
		c0-0.4,0.4-0.8,0.8-0.8l22.5-13c1.3-0.6,2.7-0.6,4,0l28.7,16.6c1.3,0.6,2.7,0.6,4,0l33.7-19.4c0.5-0.2,0.8-0.7,0.8-1.2V33
		C107.2,32.6,106.9,32.2,106.5,32z M-6.3,55.7c1-0.5,2.1-0.5,3.1,0c0.2,0.1,0.4,0.3,0.6,0.6c-0.1,0.2-0.3,0.4-0.5,0.6
		c-1,0.5-2.1,0.5-3.1,0c-0.2-0.1-0.4-0.3-0.6-0.6C-6.7,56-6.5,55.8-6.3,55.7z M1.4,51.2c1-0.5,2.1-0.5,3.1,0
		c0.2,0.1,0.4,0.3,0.6,0.6c-0.1,0.2-0.3,0.4-0.6,0.6c-1,0.5-2.1,0.5-3.1,0C1.2,52.2,1,52,0.8,51.8C1,51.6,1.2,51.4,1.4,51.2
		L1.4,51.2z M13.5,44.7c1-0.5,2.1-0.5,3.1,0c0.2,0.1,0.4,0.3,0.6,0.6c-0.1,0.2-0.3,0.4-0.6,0.6c-1,0.5-2.1,0.5-3.1,0
		c-0.2-0.1-0.4-0.3-0.6-0.6C13.1,45,13.3,44.8,13.5,44.7z M-14,60.1c1-0.5,2.1-0.5,3.1,0c0.2,0.1,0.4,0.3,0.6,0.6
		c-0.1,0.2-0.3,0.4-0.6,0.6c-1,0.5-2.1,0.5-3.1,0c-0.2-0.1-0.4-0.3-0.6-0.6C-14.4,60.4-14.2,60.2-14,60.1z"/>
	<path class="st22" d="M106.5,32L33.2-10.4c-2.5-1.3-5.5-1.3-8.1,0l-84.5,48.8c-1.1,0.6-1.2,1.6-0.2,2.3c1.2,0.6,2.6,0.6,3.8-0.1
		l11.1-6.4c1.3-0.6,2.7-0.6,4,0l7.3,4.2c0.6,0.2,1,0.9,0.8,1.6c-0.1,0.4-0.4,0.6-0.8,0.8l-7.3,4.2c-0.6,0.2-1,0.9-0.8,1.6
		c0.1,0.4,0.4,0.6,0.8,0.8l14.9,8.6c1.3,0.6,2.7,0.6,4,0l37.6-21.7c1.2-0.6,2.7-0.7,3.9-0.1c1,0.6,1,1.6-0.1,2.3l-41.4,23.9
		c-0.6,0.2-1,0.9-0.8,1.6c0.1,0.4,0.4,0.6,0.8,0.8l11.1,6.5c1.3,0.6,2.7,0.6,4,0l22.5-13c0.6-0.2,1-0.9,0.8-1.6
		c-0.1-0.4-0.4-0.6-0.8-0.8l-2.2-1.3c-0.6-0.2-1-0.9-0.8-1.6c0.1-0.4,0.4-0.6,0.8-0.8l22.5-13c1.3-0.6,2.7-0.6,4,0l28.7,16.6
		c1.3,0.6,2.7,0.6,4,0l33.7-19.4c0.6-0.2,1-0.9,0.7-1.6C107,32.3,106.8,32.1,106.5,32z M-10.9,61.2c-1,0.5-2.1,0.5-3.1,0
		c-0.5-0.2-0.7-0.7-0.6-1.2c0.1-0.3,0.3-0.5,0.6-0.6c1-0.5,2.1-0.5,3.1,0c0.5,0.2,0.8,0.7,0.6,1.2C-10.4,60.9-10.6,61.1-10.9,61.2z
		 M-3.2,56.8c-1,0.5-2.1,0.5-3.1,0c-0.5-0.2-0.8-0.7-0.6-1.2c0.1-0.3,0.3-0.5,0.6-0.6c1-0.5,2.1-0.5,3.1,0c0.5,0.2,0.8,0.7,0.6,1.2
		C-2.7,56.5-2.9,56.7-3.2,56.8z M4.5,52.4c-1,0.5-2.1,0.5-3.1,0c-0.5-0.2-0.7-0.7-0.6-1.2c0.1-0.3,0.3-0.5,0.6-0.6
		c1-0.5,2.1-0.5,3.1,0c0.4,0.3,0.5,0.9,0.3,1.4C4.6,52.1,4.5,52.2,4.5,52.4L4.5,52.4z M16.6,45.8c-1,0.5-2.1,0.5-3.1,0
		c-0.5-0.2-0.7-0.7-0.6-1.2c0.1-0.3,0.3-0.5,0.6-0.6c1-0.5,2.1-0.5,3.1,0c0.5,0.2,0.7,0.8,0.5,1.2C17,45.5,16.8,45.7,16.6,45.8
		L16.6,45.8z"/>
	<path class="st15" d="M42.8-0.3c0,0.2-0.2,0.4-0.4,0.5l-48.2,28c-0.3,0.1-0.6,0.2-0.9,0.2v1.1c0.3,0,0.6-0.1,0.9-0.2L41.9,1.6
		c0.5-0.3,0.9-0.4,0.9-1L42.8-0.3z"/>
	<path class="st23" d="M42.8-0.3c0,0.2-0.2,0.4-0.4,0.5l-48.2,28c-0.3,0.1-0.6,0.2-0.9,0.2v1.1c0.3,0,0.6-0.1,0.9-0.2L41.9,1.6
		c0.5-0.3,0.9-0.4,0.9-1L42.8-0.3z"/>
	<path class="st15" d="M-7.5,28.2l-12.4-7.1c-0.3-0.1-0.4-0.5-0.3-0.7c0.1-0.1,0.2-0.2,0.3-0.3l48.2-28c0.6-0.3,1.2-0.3,1.8,0
		l12.4,7.1c0.3,0.1,0.4,0.4,0.3,0.7c-0.1,0.2-0.2,0.3-0.3,0.3l-48.2,28C-6.3,28.5-7,28.5-7.5,28.2z"/>
	<path class="st15" d="M-20.3,20.6v0.9c0,0.6,0.4,0.7,0.9,1l11.8,6.8c0.3,0.1,0.6,0.2,0.9,0.2v-1.1c-0.3,0-0.6-0.1-0.9-0.2
		l-12.4-7.1C-20.1,21-20.2,20.8-20.3,20.6z"/>
	<path class="st24" d="M-20.3,20.6v0.9c0,0.6,0.4,0.7,0.9,1l11.8,6.8c0.3,0.1,0.6,0.2,0.9,0.2v-1.1c-0.3,0-0.6-0.1-0.9-0.2
		l-12.4-7.1C-20.1,21-20.2,20.8-20.3,20.6z"/>
	<path class="st25" d="M-16.9,20.1L28.5-6.3c0.4-0.2,0.9-0.2,1.3,0l9.6,5.6c0.2,0.1,0.3,0.3,0.3,0.4c0,0.2-0.1,0.4-0.3,0.4L-6,26.6
		c-0.4,0.2-0.9,0.2-1.3,0l-9.6-5.6c-0.2-0.1-0.3-0.3-0.3-0.4c0-0.1,0-0.1,0.1-0.2C-17.1,20.3-17,20.2-16.9,20.1z M39.5-0.3
		c0-0.1-0.1-0.1-0.2-0.2L29.7-6c-0.3-0.1-0.7-0.1-1,0l-45.4,26.4l0,0c-0.1,0.1-0.2,0.1-0.2,0.2c0,0.1,0.1,0.2,0.2,0.2l9.6,5.6
		c0.3,0.2,0.7,0.2,1,0L39.3,0c0.1,0,0.1-0.1,0.1-0.1C39.5-0.2,39.5-0.2,39.5-0.3z"/>
	<path class="st25" d="M-13.3,20.3L28.9-4.2c0.2-0.1,0.4-0.1,0.6,0l6.4,3.6C36-0.5,36-0.4,36-0.3C36-0.1,36-0.1,35.9,0L-6.3,24.5
		c-0.2,0.1-0.4,0.1-0.6,0l-6.3-3.6c-0.1,0-0.2-0.1-0.2-0.3c0,0,0-0.1,0-0.1C-13.4,20.4-13.3,20.4-13.3,20.3z M35.7-0.3l-6.4-3.6l0,0
		C29.2-4,29.1-4,29-3.9l-42.1,24.5l0,0l0,0l6.3,3.6c0.1,0,0.2,0,0.4,0L35.7-0.3L35.7-0.3z"/>
</g>
<g id="bateria">
	<path class="st26" d="M129.7,49.7L129.7,49.7l-83.4-48c-0.8-0.4-1.8-0.3-2.6,0.3L4.8,24.7c-2.1,1.4-3.4,3.8-3.6,6.3l0,3.4
		c-0.1,0.9,0.3,1.8,1.1,2.3L86.1,85c0.8,0.4,1.8,0.3,2.6-0.3l38.9-22.8c2.1-1.4,3.4-3.8,3.6-6.3l0-3.4
		C131.2,50.8,130.6,49.9,129.7,49.7z"/>
	<path class="st13" d="M129.8,49.7L129.8,49.7l-83.5-48c-0.8-0.4-1.8-0.3-2.6,0.3L4.8,24.7c-2.1,1.4-3.4,3.8-3.6,6.3l0,3.4
		c-0.1,0.9,0.3,1.8,1.1,2.3L86.3,85c0.8,0.4,1.8,0.3,2.6-0.3l38.9-22.8c2.1-1.4,3.4-3.8,3.6-6.3l0-3.4
		C131.4,50.8,130.8,49.9,129.8,49.7z"/>
	<path class="st27" d="M84.8,66.8l18.9-11.1c0.5-0.2,1-0.2,1.5,0l0.9,0.5c0.4,0.2,0.4,0.6,0,0.8L87.2,68.2c-0.5,0.2-1,0.2-1.5,0
		l-0.9-0.5c-0.2-0.1-0.3-0.4-0.2-0.6C84.7,67,84.7,66.9,84.8,66.8z"/>
	<path class="st27" d="M80.2,64l13.6-8c0.5-0.2,1-0.2,1.5,0l0.9,0.5c0.2,0.1,0.4,0.3,0.3,0.6c0,0.1-0.1,0.2-0.3,0.3l-13.6,8
		c-0.4,0.2-1,0.2-1.4,0l-0.9-0.5C79.8,64.6,79.8,64.2,80.2,64z"/>
	<path class="st28" d="M86.3,84.8L86.3,84.8L2.4,36.7c-0.7-0.5-1.2-1.4-1.1-2.3l0-3.4c0-1.2,0.3-2.3,0.9-3.3l83.9,48.1
		c-0.6,1-0.9,2.2-0.9,3.3l0,3.4C85.1,83.4,85.5,84.3,86.3,84.8z"/>
	<path class="st29" d="M85.2,83l0-3.4c0.1-2.5,1.4-4.9,3.6-6.3l38.9-22.8c2-1.2,3.6-0.3,3.6,2.1l0,3.4c-0.1,2.5-1.4,4.9-3.6,6.3
		L88.9,85.1C86.9,86.3,85.2,85.3,85.2,83z"/>
</g>
<g id="flexBateria" class="st0">
	<path class="st15" d="M181.4-7.3c-1.2-0.7-1.9-1.9-1.9-3.3l0-0.2c0-1.4-0.7-2.6-1.9-3.3l-11.1-6.2l0,1l10.7,6
		c0.9,0.5,1.4,1.4,1.5,2.5l0,0.2c0,1.7,0.9,3.2,2.4,4.1l8.4,4.8l0-1.1L181.4-7.3z"/>
	<path class="st23" d="M181.4-7.3c-1.2-0.7-1.9-1.9-1.9-3.3l0-0.2c0-1.4-0.7-2.6-1.9-3.3l-11.1-6.2l0,1l10.7,6
		c0.9,0.5,1.4,1.4,1.5,2.5l0,0.2c0,1.7,0.9,3.2,2.4,4.1l8.4,4.8l0-1.1L181.4-7.3z"/>
	<path class="st15" d="M189.4-2.7l-8-4.6c-1.2-0.7-1.9-1.9-1.9-3.3l0-0.2c0-1.4-0.7-2.6-1.9-3.3l-11.1-6.2l11.3-6.6l11.1,6.5
		c1.2,0.7,1.9,1.9,1.9,3.3l0,0c0,1.4,0.7,2.6,1.9,3.3l7.9,4.6L189.4-2.7z"/>
	<path class="st20" d="M191.1-12.9c-1.2-0.7-1.9-1.9-1.9-3.3l0-0.2c0-1.4-0.7-2.6-1.9-3.3l-11.1-6.3l-0.8,0.5l11.1,6.2
		c1.2,0.7,1.9,1.9,1.9,3.3l0,0.2c0,1.4,0.7,2.6,1.9,3.3l8,4.6l0.8-0.5L191.1-12.9z"/>
	<path class="st20" d="M187.5-10.8c-1.2-0.7-1.9-1.9-1.9-3.3l0-0.2c0-1.4-0.7-2.6-1.9-3.3l-11.1-6.3l-0.8,0.5l11.1,6.3
		c1.2,0.7,1.9,1.9,1.9,3.3l0,0.2c0,1.4,0.7,2.6,1.9,3.3l8,4.6l0.8-0.4L187.5-10.8z"/>
	<path class="st20" d="M183.9-8.7c-1.2-0.7-1.9-1.9-1.9-3.3l0-0.2c0-1.4-0.7-2.6-1.9-3.3l-11.1-6.3l-0.8,0.5l11.1,6.3
		c1.2,0.7,1.9,1.9,1.9,3.3l0,0.2c0,1.4,0.7,2.6,1.9,3.3l7.9,4.6l0.8-0.4L183.9-8.7z"/>
	<polygon class="st15" points="200.7,-8.3 189.4,-1.7 189.4,-2.7 200.7,-9.4 	"/>
	<polygon class="st24" points="200.7,-8.3 189.4,-1.7 189.4,-2.7 200.7,-9.4 	"/>
	<path class="st21" d="M188.3-2.4l13-7.6c1-0.5,2.1-0.5,3.1,0l4.2,2.4c0.4,0.1,0.6,0.5,0.6,0.9l0,0.8c0,0.4-0.3,0.7-0.6,0.9l-13,7.6
		c-1,0.5-2.1,0.5-3.1,0l-4.2-2.4c-0.4-0.2-0.6-0.5-0.6-0.9l0-0.8C187.7-1.9,188-2.2,188.3-2.4z"/>
	<path class="st30" d="M208.7-5.9l-13,7.6c-1,0.5-2.1,0.5-3.1,0l-4.2-2.4c-0.5-0.2-0.8-0.7-0.6-1.2c0.1-0.3,0.3-0.5,0.6-0.6l13-7.6
		c1-0.5,2.1-0.5,3.1,0l4.2,2.4c0.5,0.1,0.8,0.7,0.6,1.2C209.1-6.2,208.9-6,208.7-5.9z"/>
	<path class="st15" d="M207.2-7.2l-3.5-2c-0.4-0.2-0.9-0.2-1.2,0L202-8.9c-0.3,0.2-0.3,0.5,0,0.7l3.5,2c0.4,0.2,0.8,0.2,1.2,0
		l0.4-0.2C207.5-6.7,207.5-7,207.2-7.2z"/>
	<path class="st15" d="M204.1-5.4l-3.5-2c-0.4-0.2-0.8-0.2-1.2,0L199-7.1c-0.3,0.2-0.3,0.5,0,0.7l3.5,2c0.4,0.2,0.9,0.2,1.2,0
		l0.4-0.2c0.2-0.1,0.3-0.3,0.2-0.5C204.3-5.3,204.2-5.4,204.1-5.4z"/>
	<path class="st15" d="M201.1-3.6l-3.5-2c-0.4-0.2-0.9-0.2-1.2,0l-0.4,0.2c-0.3,0.2-0.3,0.5,0,0.7l3.5,2c0.4,0.2,0.8,0.2,1.2,0
		l0.4-0.2C201.4-3.1,201.4-3.5,201.1-3.6z"/>
	<path class="st15" d="M198-1.8l-3.5-2c-0.4-0.2-0.9-0.2-1.2,0l-0.4,0.2c-0.2,0.1-0.3,0.3-0.2,0.5c0,0.1,0.1,0.2,0.2,0.2l3.5,2
		c0.4,0.2,0.9,0.2,1.2,0l0.4-0.2C198.4-1.3,198.4-1.6,198-1.8z"/>
	<path class="st15" d="M195,0l-3.5-2c-0.4-0.2-0.8-0.2-1.2,0l-0.4,0.2c-0.2,0.1-0.3,0.3-0.2,0.5c0,0.1,0.1,0.2,0.2,0.2l3.5,2
		c0.4,0.2,0.9,0.2,1.2,0l0.4-0.2C195.3,0.5,195.3,0.2,195,0z"/>
</g>
<g id="marco" class="st0">
	<path class="st30" d="M219.6,86.7L34.6-20.1c-3.4-1.8-7.5-1.8-10.9,0l-90.3,52.1c-1.8,0.9-3,2.7-3.1,4.8v8.7c0.1,2,1.2,3.9,3.1,4.8
		l185,106.8c3.4,1.8,7.5,1.8,10.9,0l90.3-52.2c1.8-0.9,3-2.7,3.1-4.7v-8.7C222.6,89.4,221.4,87.6,219.6,86.7z M25.2-8.9
		c2.5-1.3,5.5-1.3,8.1,0L214.7,95.8l-86.8,50.1c-2.5,1.3-5.5,1.3-8.1,0L-61.6,41.2L25.2-8.9z"/>
	<path class="st21" d="M123.8,146.9c-1.4,0-2.8-0.3-4-1L-61.6,41.2l17-9.8l-9.9-6.3l-12.1,7c-1.8,0.9-3,2.7-3.1,4.8v8.7
		c0.1,2,1.2,3.9,3.1,4.8l185,106.8c1.7,0.9,3.5,1.4,5.4,1.3l0,0L123.8,146.9z"/>
	<path class="st22" d="M219.6,86.7L34.6-20.1c-3.4-1.8-7.5-1.8-10.9,0l-90.3,52.1c-2.6,1.2-3.8,4.3-2.6,6.9c0.5,1.1,1.4,2.1,2.6,2.6
		l2.1,1.2l182.9,105.5c3.4,1.8,7.5,1.8,10.9,0l88.2-50.9l2.1-1.2c2.6-1.2,3.8-4.3,2.6-6.9C221.7,88.1,220.7,87.2,219.6,86.7
		L219.6,86.7z M127.9,145.9c-2.5,1.3-5.5,1.3-8.1,0L-61.6,41.2L25.2-8.9c2.5-1.3,5.5-1.3,8.1,0L214.7,95.8L127.9,145.9z"/>
	<path class="st21" d="M218.2,93.8l-3.5,2L33.2-8.9c-2.5-1.3-5.5-1.3-8.1,0l-86.8,50.1l-3.5-2.1c-2.2-1.3-2.2-3.4,0-4.6l90.3-52.1
		c2.5-1.3,5.5-1.3,8.1,0l185,106.8C220.4,90.4,220.4,92.5,218.2,93.8z"/>
	<path class="st30" d="M29.2-9.9v-8.7c-1.4,0-2.8,0.3-4,1l-90.4,52.1c-2.2,1.3-2.2,3.4,0,4.6l3.5,2.1L25.2-8.9
		C26.4-9.6,27.8-9.9,29.2-9.9z"/>
</g>
<g id="tapa" class="st0">
	<path class="st30" d="M219.6,86.8L34.6-20c-3.4-1.8-7.5-1.8-10.9,0l-90.3,52.1c-1.8,0.9-3,2.7-3.1,4.7v2.9c0.1,2,1.3,3.8,3.1,4.8
		l2.1,1.2l182.8,105.6c0.4,0.2,0.8,0.4,1.2,0.6l0.4,0.1l0.3,0.1l0.6,0.2l0.7,0.1l0.7,0.1c0.5,0.1,1.1,0.1,1.6,0.1
		c1.9,0,3.8-0.4,5.4-1.3l88.2-50.9l2.1-1.2c1.8-0.9,3-2.7,3.1-4.7v-2.9C222.5,89.5,221.4,87.7,219.6,86.8z M-32.9,36l3-1.8
		c3.8-1.9,8.3-1.9,12.1,0L4.2,47c0.2,0.1,0.4,0.3,0.6,0.4l0.2,0.2c0.5,0.4,1,0.9,1.3,1.5l0,0c0,0,0,0.1-0.1,0.1
		c-0.5,0.8-1.2,1.5-2.1,2l-3,1.8c-3.8,1.9-8.3,1.9-12.1,0l-22-12.7c-0.3-0.2-0.5-0.3-0.7-0.5c-0.1-0.1-0.2-0.2-0.3-0.3
		c-0.1-0.1-0.2-0.1-0.3-0.2c-0.3-0.3-0.6-0.6-0.8-1l-0.1-0.1l0,0C-34.5,37.3-33.8,36.5-32.9,36z"/>
	<path class="st21" d="M123.7,149.8v2.9c-1.9,0-3.7-0.4-5.3-1.3L-64.4,45.7l-2.1-1.2c-1.8-0.9-3-2.7-3.1-4.8v-2.9
		c0.1,2,1.3,3.8,3.1,4.8l2.1,1.2l182.8,105.6C120,149.3,121.8,149.8,123.7,149.8z"/>
	<path class="st22" d="M219.6,86.8L34.6-20c-3.4-1.8-7.5-1.8-10.9,0l-90.3,52.1c-2.6,1.2-3.8,4.3-2.6,6.9c0.5,1.2,1.4,2.1,2.6,2.6
		l2.1,1.2l182.8,105.6c0.4,0.2,0.8,0.4,1.2,0.6l0,0c0.2,0.1,0.3,0.1,0.5,0.2h0.1c0.1,0,0.1,0,0.2,0c0.1,0.1,0.3,0.1,0.5,0.1l0.3,0.1
		h0.1l0.4,0.1l0.6,0.1l0.7,0.1h0h0.5h0.4c1.9,0,3.8-0.4,5.4-1.3l88.2-50.9l2.1-1.2c2.6-1.2,3.8-4.3,2.6-6.9
		c-0.5-1.2-1.4-2.1-2.6-2.6L219.6,86.8z M6.7,47.9c0,0,0,0.1,0,0.2c-0.1,0.3-0.2,0.7-0.3,1l0,0c0,0,0,0.1-0.1,0.1
		c-0.5,0.8-1.2,1.5-2.1,2l-3,1.8c-3.8,1.9-8.3,1.9-12.1,0l-22-12.7c-0.3-0.2-0.5-0.3-0.7-0.5c-0.1-0.1-0.2-0.2-0.3-0.3
		c-0.1-0.1-0.2-0.1-0.3-0.2c-0.3-0.3-0.6-0.6-0.8-1l-0.1-0.1l0,0c-0.2-0.3-0.3-0.6-0.3-1c0-0.1,0-0.1,0-0.2
		c-0.1-0.6,0.1-1.2,0.3-1.7c0.1-0.2,0.2-0.3,0.3-0.5c0.5-0.7,1.1-1.2,1.9-1.6l3-1.8c3.8-1.9,8.3-1.9,12.1,0l22,12.7
		C6,45.1,6.8,46.5,6.7,47.9z"/>
	<path class="st31" d="M129.4,146.6c-3.5,2-7.8,2-11.4,0L-64.4,42.9l182.8,105.6c0.4,0.2,0.8,0.4,1.2,0.6l0,0
		c0.2,0.1,0.3,0.1,0.5,0.2h0.1c0.1,0,0.1,0,0.2,0c0.1,0.1,0.3,0.1,0.5,0.1l0.3,0.1h0.1l0.4,0.1l0.6,0.1l0.7,0.1h0h0.5h0.4
		c1.9,0,3.8-0.4,5.4-1.3l88.2-50.9L129.4,146.6z"/>
	<path class="st15" d="M142.5,122.2l36.3-20.9c1.4-0.7,3-0.7,4.3,0l2.2,1.3c0.7,0.2,1.1,1,0.8,1.7c-0.1,0.4-0.4,0.7-0.8,0.8L149,126
		c-1.4,0.7-3,0.7-4.3,0l-2.2-1.3c-0.7-0.2-1.1-0.9-0.9-1.6C141.7,122.7,142.1,122.3,142.5,122.2z"/>
	<path class="st21" d="M6.7,47.9c0,0,0,0.1,0,0.2c-0.1,0.3-0.2,0.7-0.3,1c-0.3-0.6-0.8-1.1-1.3-1.5l-0.2-0.2
		c-0.2-0.1-0.4-0.3-0.6-0.4l-21.9-12.7c-3.8-1.9-8.3-1.9-12.1,0l-3,1.8c-0.9,0.5-1.6,1.2-2.1,2.1c-0.2-0.3-0.3-0.6-0.3-1
		c0-0.1,0-0.1,0-0.2c-0.1-0.6,0.1-1.2,0.3-1.7c0.1-0.2,0.2-0.3,0.3-0.5c0.5-0.7,1.1-1.2,1.9-1.6l3-1.8c3.8-1.9,8.3-1.9,12.1,0
		l22,12.7C6,45.1,6.8,46.5,6.7,47.9z"/>
	<path class="st30" d="M-23.8,30c-2.1,0-4.2,0.5-6,1.4l-3,1.8c-0.8,0.4-1.4,1-2,1.6c-0.1,0.1-0.2,0.3-0.3,0.5
		c-0.3,0.5-0.4,1.1-0.3,1.7c0,0.1,0,0.1,0,0.2c0.1,0.4,0.2,0.7,0.3,1c0.5-0.9,1.3-1.6,2.1-2.1l3-1.8c1.8-1,3.9-1.5,6-1.4L-23.8,30z"
		/>
</g>
</svg>
