<?xml version="1.0" encoding="utf-8"?>
<!-- Generator: Adobe Illustrator 24.1.1, SVG Export Plug-In . SVG Version: 6.00 Build 0)  -->
<svg version="1.1" xmlns="http://www.w3.org/2000/svg" xmlns:xlink="http://www.w3.org/1999/xlink" x="0px" y="0px"
	 viewBox="0 0 137.7 104" style="enable-background:new 0 0 137.7 104;" xml:space="preserve">
<style type="text/css">
	.st0{display:none;}
	.st1{display:inline;}
	.st2{fill:#E0E0E0;}
	.st3{fill:#37474F;}
	.st4{fill:#455A64;}
	.st5{fill:#263238;}
	.st6{opacity:0.3;fill:#27DEBF;enable-background:new    ;}
	.st7{opacity:0.1;fill:#27DEBF;enable-background:new    ;}
	.st8{opacity:0.2;enable-background:new    ;}
	.st9{opacity:0.3;fill:#FFFFFF;enable-background:new    ;}
	.st10{opacity:0.2;}
	.st11{opacity:0.3;}
	.st12{opacity:0.7;}
	.st13{fill:#27DEBF;}
	.st14{opacity:0.7;fill:#27DEBF;enable-background:new    ;}
	.st15{display:inline;fill:#27DEBF;}
	.st16{display:inline;opacity:0.55;fill:#FFFFFF;enable-background:new    ;}
	.st17{display:inline;opacity:0.7;fill:#FFFFFF;enable-background:new    ;}
	.st18{display:inline;opacity:0.9;fill:#FFFFFF;enable-background:new    ;}
	.st19{display:inline;opacity:0.9;}
	.st20{display:inline;fill:#FAFAFA;}
	.st21{display:inline;fill:#263238;}
	.st22{display:inline;fill:#455A64;}
	.st23{display:inline;opacity:0.3;enable-background:new    ;}
	.st24{display:inline;opacity:0.15;enable-background:new    ;}
	.st25{display:inline;fill:#F5F5F5;}
	.st26{opacity:0.5;enable-background:new    ;}
	.st27{fill:#FAFAFA;}
	.st28{opacity:0.15;enable-background:new    ;}
	.st29{opacity:0.25;enable-background:new    ;}
	.st30{opacity:0.3;enable-background:new    ;}
	.st31{display:inline;fill:#37474F;}
	.st32{display:inline;opacity:0.3;fill:#FFFFFF;enable-background:new    ;}
</style>
<g id="sombra" class="st0">
	<g id="Shadows" class="st1">
		<path id="Shadow-2" class="st2" d="M129.8,165.9l90.3-52.2c2.2-1.3,2.2-3.4,0-4.7L35.1,2.3C32.6,1,29.6,1,27,2.3l-90.2,52.2
			c-2.2,1.3-2.2,3.4,0,4.7l185,106.8C124.3,167.2,127.3,167.2,129.8,165.9z"/>
	</g>
</g>
<g id="Capa_1" class="st0">
	<g id="Character" class="st1">
		<path class="st3" d="M221.4,100.1c-0.3-0.5-0.8-0.9-1.3-1.2L209,92.5v-2.1l11.1,6.4C221.6,97.6,222.1,98.9,221.4,100.1z"/>
		<path class="st4" d="M221.4,100.1c-0.1-0.1-0.1-0.2-0.2-0.3c0,0,0-0.1-0.1-0.1c-0.1-0.1-0.2-0.2-0.3-0.3c-0.1-0.1-0.2-0.2-0.3-0.2
			l0,0c-0.1-0.1-0.1-0.1-0.2-0.2l-0.3-0.2l-11.1-6.4c-8,4.6-27.5,15.9-47,27.1l-26.4,15.2L112.4,148l-1.9,1.1l11.1,6.4
			c1.2,0.7,2.6,1,4,1c0.3,0,0.5,0,0.8,0c0.1,0,0.2,0,0.3,0c0.2,0,0.4,0,0.6-0.1c0.3,0,0.5-0.1,0.8-0.2c0.5-0.1,1-0.3,1.5-0.6
			l90.3-52.2c0.5-0.3,0.9-0.6,1.3-1.1c0-0.1,0.1-0.1,0.2-0.2l0,0l0,0c0.1-0.1,0.1-0.2,0.1-0.3c0-0.1,0.1-0.2,0.1-0.3
			c0-0.1,0-0.2,0-0.3v-0.1C221.7,100.8,221.6,100.4,221.4,100.1z M158.8,125.1l3.1-1.8l4-2.3c2.4-1.3,5.3-1.3,7.8-0.1
			c0.6,0.3,1,0.8,1.3,1.4c-0.3,0.7-0.9,1.3-1.6,1.6l-7.1,4.1c-1.4,0.7-2.9,1.1-4.5,1c-1.2,0-2.3-0.3-3.4-0.9
			c-0.6-0.3-1.1-0.8-1.4-1.4C157.6,126,158.1,125.5,158.8,125.1L158.8,125.1z"/>
		<path class="st5" d="M35.1-10.1c-1.2-0.7-2.6-1-4-1v2.2c1.4,0,2.8,0.3,4,1l11.1,6.4v-2.2L35.1-10.1z"/>
		<path class="st3" d="M31-11.1v2.2c-1.4,0-2.8,0.3-4,1l-90.3,52.2c-0.5,0.3-1,0.7-1.3,1.2c-0.7-1.2-0.3-2.5,1.3-3.4L27-10.1
			C28.3-10.8,29.7-11.1,31-11.1z"/>
		<path class="st4" d="M35.1-7.9c-2.5-1.3-5.5-1.3-8.1,0L15.9-1.5L4.2,5.3l-16.4,9.5l-5.6,3.1l-9.2,5.3l-16,9.2l-20.3,11.9l-0.4,0.3
			l-0.2,0.1c-0.1,0.1-0.2,0.1-0.2,0.2c-0.1,0.1-0.2,0.1-0.2,0.2l0,0c-0.1,0-0.1,0.1-0.1,0.2c-0.1,0.1-0.1,0.1-0.1,0.2l0,0
			c-0.2,0.3-0.3,0.6-0.3,1v0.1c0,0.1,0,0.2,0,0.3c0.1,0.6,0.4,1.1,0.9,1.5c0.2,0.2,0.5,0.4,0.7,0.5l11.1,6.4l1.9-1.1l7.4-4.3l16-9.2
			l9.2-5.3l5.5-3.2l16.4-9.5L16,15.9L46.2-1.6L35.1-7.9z M3.6,14.9c-0.1,0.1-0.3,0.2-0.4,0.3c-1.2,0.6-2.6,0.6-3.8,0
			C-0.8,15.1-0.9,15-1,14.9c0.1-0.1,0.3-0.2,0.4-0.3C0.6,14,2,14,3.2,14.6C3.3,14.7,3.4,14.8,3.6,14.9z M-4,19.3
			c-0.2,0.2-0.3,0.3-0.5,0.4l-7.7,4.5l-5.5,3.2l-5.9,3.4c-1,0.5-2.2,0.6-3.3,0.3c-0.2-0.1-0.4-0.1-0.6-0.3c-0.2-0.1-0.3-0.2-0.4-0.3
			c0.2-0.2,0.3-0.3,0.5-0.4l0.5-0.3l9.2-5.3l5.5-3.2l3.9-2.3c1.2-0.6,2.7-0.7,3.9-0.1C-4.3,19-4.2,19.1-4,19.3L-4,19.3z"/>
		<path class="st6" d="M221.6,98.3c-0.1-0.2-0.2-0.4-0.3-0.6c-0.3-0.5-0.8-0.8-1.3-1.1l-11.1-6.4l-47-27.1l-26.4-15.2l-100.4-58
			c-2.5-1.3-5.5-1.3-8.1,0L15.9-3.7L4.1,3.1l-16.4,9.5l-5.5,3.2l-9.2,5.3l-16,9.2L-63.4,42l-0.4,0.3c-0.1,0.1-0.2,0.2-0.3,0.3
			l-0.3,0.2c-0.1,0.1-0.2,0.2-0.2,0.3l0,0c-0.1,0.1-0.1,0.1-0.1,0.2l-0.1,0.1l0,0v0.1v0.1c0,0.1,0,0.1,0,0.2v0.1c0,0.1,0,0.2,0,0.3
			v2.2c0,0.1,0,0.2,0,0.3s0,0.2,0.1,0.3c0.3,0.7,0.9,1.3,1.6,1.7l173.7,100.4l0,0l11.1,6.4c1.2,0.7,2.6,1,4,1c0.3,0,0.5,0,0.8,0
			c0.1,0,0.2,0,0.3,0c0.2,0,0.4,0,0.6-0.1c0.3,0,0.5-0.1,0.8-0.2c0.5-0.1,1-0.3,1.5-0.6l90.3-52.2c0.5-0.3,0.9-0.6,1.3-1.1
			c0-0.1,0.1-0.1,0.2-0.2l0,0l0,0c0.1-0.1,0.1-0.2,0.1-0.3c0-0.1,0.1-0.2,0.1-0.3c0-0.1,0-0.2,0-0.3v-0.1c0-0.4,0-1.5,0-1.9l0,0
			v-0.1C221.6,98.9,221.6,98.6,221.6,98.3z M157.2,126.7c0.3-0.7,0.9-1.3,1.6-1.6l3.1-1.8l4-2.3c2.4-1.3,5.3-1.3,7.8-0.1
			c0.6,0.3,1,0.8,1.3,1.4c-0.3,0.7-0.9,1.3-1.6,1.6l-7.1,4.1c-1.4,0.7-2.9,1.1-4.5,1c-1.2,0-2.3-0.3-3.4-0.9
			C158,127.8,157.5,127.3,157.2,126.7L157.2,126.7z M-0.7,14.6c1.2-0.6,2.6-0.6,3.8,0c0.2,0.1,0.3,0.2,0.4,0.3
			c-0.1,0.1-0.3,0.2-0.4,0.3c-1.2,0.6-2.6,0.6-3.8,0C-0.9,15.1-1,15-1.1,14.9C-1,14.8-0.8,14.7-0.7,14.6z M-27.5,30.1l0.5-0.3
			l9.2-5.3l5.5-3.2l3.9-2.3c1.2-0.6,2.7-0.7,3.9-0.1c0.2,0.1,0.3,0.2,0.4,0.3l0,0c-0.2,0.2-0.3,0.3-0.5,0.4l-7.7,4.4l-5.5,3.2
			l-5.9,3.4c-1,0.5-2.2,0.6-3.3,0.3c-0.2-0.1-0.4-0.1-0.6-0.3c-0.2-0.1-0.3-0.2-0.4-0.3C-27.9,30.3-27.7,30.2-27.5,30.1z"/>
		<path class="st7" d="M221.6,98.3c-0.1-0.2-0.2-0.4-0.3-0.6c-0.3-0.5-0.8-0.8-1.3-1.1l-11.1-6.4l-47-27.1l-26.4-15.2l-100.4-58
			c-2.5-1.3-5.5-1.3-8.1,0L15.9-3.7L4.1,3.1l-16.4,9.5l-5.5,3.2l-9.2,5.3l-16,9.2L-63.4,42l-0.4,0.3c-0.1,0.1-0.2,0.2-0.3,0.3
			l-0.3,0.2c-0.1,0.1-0.2,0.2-0.2,0.3l0,0c-0.1,0.1-0.1,0.1-0.1,0.2l-0.1,0.1l0,0v0.1v0.1c0,0.1,0,0.1,0,0.2v0.1c0,0.1,0,0.2,0,0.3
			v0.2c0,0.1,0,0.1,0,0.2l0,0v0.1v0.1l0,0l0,0c0,0.1,0,0.1,0.1,0.2c0,0.1,0.1,0.2,0.2,0.4c0,0.1,0.1,0.1,0.2,0.2
			c0,0.1,0.1,0.1,0.2,0.2c0,0.1,0.1,0.1,0.2,0.1l0,0l0.1,0.1c0.2,0.2,0.4,0.3,0.7,0.5L110.7,147l1.9,1.1l9.2,5.3
			c0.1,0.1,0.3,0.2,0.4,0.2l0.1,0.1l0.2,0.1l0,0c0.2,0.1,0.4,0.1,0.5,0.2l0,0c0.2,0.1,0.4,0.1,0.6,0.2l0,0h0.2
			c0.2,0,0.4,0.1,0.7,0.1h0.3h0.3h0.6c1.4,0,2.8-0.3,4-1l5.8-3.4l26.4-15.2l58.2-33.4c0.1-0.1,0.3-0.1,0.4-0.2
			c0.1,0,0.2-0.1,0.2-0.2l0.2-0.2c0.1-0.1,0.2-0.2,0.2-0.2l0.1-0.1c0.1-0.1,0.1-0.2,0.2-0.3c0-0.1,0.1-0.2,0.1-0.2
			c0-0.1,0.1-0.1,0.1-0.2s0-0.1,0-0.2v-0.1v-0.2l0,0v-0.1C221.7,98.7,221.6,98.5,221.6,98.3z M-4.1,19.3c-0.2,0.2-0.3,0.3-0.5,0.4
			l-7.7,4.4l-5.5,3.2l-5.9,3.4c-1,0.5-2.2,0.6-3.3,0.3c-0.2-0.1-0.4-0.1-0.6-0.3c-0.2-0.1-0.3-0.2-0.4-0.3c0.2-0.2,0.3-0.3,0.5-0.4
			l0.5-0.3l9.2-5.3l5.5-3.2l3.9-2.3c1.2-0.6,2.7-0.7,3.9-0.1C-4.3,19-4.2,19.1-4.1,19.3L-4.1,19.3z M3.1,15.3
			c-1.2,0.6-2.6,0.6-3.8,0C-0.9,15.2-1,15.1-1.1,15c0.1-0.1,0.3-0.3,0.4-0.3c1.2-0.6,2.6-0.6,3.8,0c0.2,0.1,0.3,0.2,0.4,0.3
			C3.4,15.1,3.3,15.2,3.1,15.3L3.1,15.3z M173.4,123.9l-7.1,4.1c-1.4,0.7-2.9,1.1-4.5,1c-1.2,0-2.3-0.3-3.4-0.9
			c-0.6-0.3-1.1-0.8-1.4-1.4c0.3-0.7,0.9-1.3,1.6-1.6l3.1-1.8l4-2.3c2.4-1.3,5.3-1.3,7.8-0.1c0.6,0.3,1,0.8,1.3,1.4
			C174.7,123,174.1,123.5,173.4,123.9z"/>
		<path class="st8" d="M221.7,101.2c-0.1,1-0.7,1.9-1.7,2.3l-90.3,52.2c-2.5,1.3-5.5,1.3-8.1,0L-63.3,48.9c-0.9-0.4-1.6-1.3-1.7-2.3
			v-2.1c0.1,1,0.8,1.8,1.7,2.2l184.9,106.8c2.5,1.3,5.5,1.3,8.1,0l90.3-52.2c0.9-0.4,1.5-1.2,1.7-2.2
			C221.7,99.6,221.7,100.8,221.7,101.2z"/>
		<polygon class="st9" points="15.9,-3.7 6.7,1.6 6.7,87.1 15.9,92.4 		"/>
		<path class="st9" d="M27.1-10.2L27.1-10.2l-5.9,3.4V95.5l5.9,3.4V-10.2z"/>
		<polygon class="st9" points="97.5,25.9 71.1,10.7 71.1,124.3 97.5,139.5 		"/>
		<path class="st9" d="M-28.3,29.8c0,0.3,0.1,0.6,0.3,0.8c0.1,0.1,0.2,0.2,0.4,0.3c0.2,0.1,0.4,0.2,0.6,0.3v36.6l-16-9.2V30.3
			l16-9.2v7.2l-0.5,0.3C-28,28.8-28.3,29.2-28.3,29.8z"/>
		<polygon class="st9" points="-12.3,12.5 -12.3,19.8 -17.8,22.9 -17.8,15.7 		"/>
		<polygon class="st9" points="-17.8,27.3 -12.3,24.1 -12.3,76.2 -17.8,73 		"/>
		<polygon class="st9" points="194.3,81.8 182.6,75 182.6,122.9 194.3,116.2 		"/>
		<path class="st9" d="M157.2,125.3c-0.1,0.3-0.1,0.6-0.1,0.9l0,0c0,0.2,0.1,0.3,0.1,0.5c0.3,0.6,0.8,1.1,1.4,1.4
			c1,0.6,2.2,0.8,3.4,0.9v5.9l-26.4,15.3V47.8L162,63v58.7l-3.1,1.8c-0.5,0.3-1,0.7-1.3,1.1C157.3,124.9,157.2,125.1,157.2,125.3z"
			/>
		<polygon class="st9" points="205.5,88.2 199.6,84.8 199.6,113.1 205.5,109.7 		"/>
		<polygon class="st9" points="54.6,114.8 60.5,118.2 60.5,4.5 54.6,1.1 		"/>
		<polygon class="st9" points="117.2,37.3 111.4,33.9 111.4,147.5 117.2,150.9 		"/>
		<path class="st4" d="M221.7,101.2c0-0.3,0-1.6,0-2.1c-0.1,1-0.8,1.8-1.7,2.2l-90.3,52.2c-2.5,1.3-5.5,1.3-8.1,0l-11.1-6.4v2.2l0,0
			l11.1,6.4c2.5,1.3,5.5,1.3,8.1,0l90.3-52.2C221,103.1,221.6,102.2,221.7,101.2z"/>
		<path class="st3" d="M125.7,154.4c-1.4,0-2.8-0.3-4-1l-11.1-6.4v2.3l0,0l11.1,6.4c1.2,0.7,2.6,1,4,1V154.4z"/>
		<path class="st3" d="M-65,44.4v2.1c0.1,1,0.7,1.9,1.7,2.3l11.1,6.4V53l0,0l-11.1-6.4C-64.2,46.3-64.8,45.4-65,44.4z"/>
		<g class="st10">
			<path d="M-3.7,18.5c0-0.4-0.3-0.8-0.7-1c-1.2-0.6-2.7-0.6-3.9,0.1l-3.9,2.3l-5.5,3.2l-9.2,5.3l-0.5,0.3c-0.5,0.2-0.8,0.7-0.9,1.2
				c0,0.3,0,1.3,0,1.5c0.1,0.4,0.3,0.8,0.7,1c0.2,0.1,0.4,0.2,0.6,0.3c1.1,0.3,2.3,0.2,3.3-0.3l5.9-3.4l5.5-3.2l7.7-4.5
				c0.5-0.2,0.8-0.6,0.9-1.2C-3.7,19.8-3.7,18.7-3.7,18.5z M-4,19.3c-0.2,0.2-0.3,0.3-0.5,0.4l-7.7,4.5l-5.5,3.2l-5.9,3.4
				c-1,0.5-2.2,0.6-3.3,0.3c-0.2-0.1-0.4-0.1-0.6-0.3c-0.2-0.1-0.3-0.2-0.4-0.3c0.2-0.2,0.3-0.3,0.5-0.4l0.5-0.3l9.2-5.3l5.5-3.2
				l3.9-2.3c1.2-0.6,2.7-0.7,3.9-0.1C-4.3,19-4.2,19.1-4,19.3L-4,19.3z"/>
			<path d="M3.2,13.1c-1.2-0.6-2.6-0.6-3.8,0c-0.4,0.2-0.7,0.6-0.8,1.1c0,0.3,0,1.3,0,1.5c0,0.5,0.3,0.9,0.8,1.1
				c1.2,0.6,2.6,0.6,3.8,0c0.4-0.2,0.7-0.6,0.8-1.1v-1.5C3.9,13.7,3.6,13.3,3.2,13.1z M3.2,15.2c-1.2,0.6-2.6,0.6-3.8,0
				C-0.8,15.1-0.9,15-1,14.9c0.1-0.1,0.3-0.2,0.4-0.3C0.6,14,2,14,3.2,14.6c0.2,0.1,0.3,0.2,0.4,0.3C3.5,15.1,3.3,15.2,3.2,15.2
				L3.2,15.2z"/>
		</g>
		<g class="st11">
			<path d="M-3.8,18.2c0-0.1-0.1-0.2-0.1-0.3L-4,17.8l-0.1-0.1l-0.1-0.1l-0.2-0.1c-1.2-0.6-2.7-0.6-3.9,0.1l-19.2,11
				c-0.5,0.2-0.8,0.7-0.9,1.2c0,0.3,0.1,0.6,0.3,0.8c0.2-0.2,0.3-0.3,0.5-0.4l0.5-0.3l9.2-5.3l5.5-3.2l3.9-2.3
				c1.2-0.6,2.7-0.7,3.9-0.1c0.2,0.1,0.3,0.2,0.4,0.3c0.2-0.2,0.3-0.5,0.3-0.8C-3.7,18.4-3.7,18.3-3.8,18.2z"/>
			<path d="M3.9,13.9c0-0.1,0-0.1-0.1-0.2c-0.2-0.3-0.4-0.5-0.7-0.6c-1.2-0.6-2.6-0.6-3.8,0L-1,13.3l-0.2,0.2c0,0.1-0.1,0.1-0.1,0.2
				s-0.1,0.1-0.1,0.2s-0.1,0.2-0.1,0.4l0,0v0.1c0.1,0.2,0.2,0.4,0.3,0.6c0.1-0.1,0.3-0.2,0.4-0.3c1.2-0.6,2.6-0.6,3.8,0
				c0.2,0.1,0.3,0.2,0.4,0.3c0.2-0.2,0.3-0.4,0.4-0.6v-0.2C3.9,14,3.9,14,3.9,13.9z"/>
		</g>
		<g class="st12">
			<path class="st13" d="M-3.7,18.5c0,0.3-0.1,0.6-0.3,0.8c-0.1-0.1-0.3-0.2-0.4-0.3c-1.2-0.6-2.7-0.6-3.9,0.1l-3.9,2.3l-5.5,3.2
				l-9.2,5.3l-0.5,0.3c-0.2,0.1-0.4,0.3-0.5,0.4c-0.2-0.2-0.3-0.5-0.3-0.8c0-0.5,0.4-1,0.9-1.2l18.9-11.1c1.2-0.6,2.7-0.7,3.9-0.1
				l0.2,0.1l0.1,0.1c0.1,0,0.1,0.1,0.1,0.1l0.1,0.1c0.1,0.1,0.1,0.2,0.1,0.3C-3.7,18.3-3.7,18.4-3.7,18.5z"/>
			<path class="st13" d="M3.9,14.2v0.1c0,0.2-0.2,0.4-0.4,0.6c-0.1-0.1-0.3-0.2-0.4-0.3c-1.2-0.6-2.6-0.6-3.8,0
				c-0.2,0.1-0.3,0.2-0.4,0.3c-0.2-0.2-0.3-0.4-0.3-0.6v-0.1l0,0c0-0.1,0-0.2,0.1-0.4c0-0.1,0.1-0.1,0.1-0.2s0.1-0.1,0.1-0.2
				l0.2-0.2l0.3-0.2c1.2-0.6,2.6-0.6,3.8,0c0.3,0.1,0.5,0.4,0.7,0.6c0,0.1,0.1,0.1,0.1,0.2C3.9,14,3.9,14.1,3.9,14.2z"/>
		</g>
		<path class="st8" d="M174.9,120.5c-0.1-0.1-0.1-0.2-0.2-0.3c-0.3-0.3-0.6-0.6-1-0.8c-2.5-1.2-5.4-1.1-7.8,0.1l-7.1,4.1
			c-0.5,0.3-1,0.7-1.3,1.1c-0.1,0.2-0.2,0.4-0.3,0.6c-0.1,0.2-0.1,0.4-0.1,0.7v1.5c0.1,0.9,0.6,1.7,1.5,2.1c1,0.5,2.2,0.8,3.4,0.9
			c1.5,0.1,3.1-0.3,4.5-1l7.1-4.1c1-0.4,1.6-1.3,1.7-2.4c0-0.3,0-1.3,0-1.5C175.2,121.2,175.1,120.8,174.9,120.5z M174.7,122.8
			c-0.1,0.1-0.1,0.2-0.2,0.2c-0.3,0.3-0.7,0.6-1.1,0.9l-7.1,4.1c-0.3,0.2-0.6,0.3-0.9,0.4c-0.3,0.1-0.6,0.2-0.9,0.3
			c-0.9,0.2-1.7,0.3-2.6,0.3h-0.5c-0.3,0-0.6-0.1-0.9-0.1l-0.4-0.1l-0.4-0.1c-0.4-0.1-0.8-0.3-1.1-0.5c-0.3-0.2-0.7-0.4-0.9-0.7
			c-0.1-0.1-0.2-0.2-0.2-0.3s-0.1-0.1-0.1-0.2c0-0.1-0.1-0.1-0.1-0.2l0,0c0.3-0.7,0.9-1.3,1.6-1.6l3.1-1.8l4-2.3
			c2.4-1.3,5.3-1.3,7.8-0.1c0.6,0.3,1,0.8,1.3,1.4C175,122.5,174.8,122.6,174.7,122.8z"/>
		<path class="st14" d="M175.2,121.5c0,0.3-0.1,0.5-0.2,0.8c-0.3-0.6-0.8-1.1-1.3-1.4c-2.5-1.2-5.4-1.1-7.8,0.1l-3.9,2.3l-3.1,1.8
			c-0.7,0.4-1.2,0.9-1.6,1.6c-0.1-0.1-0.1-0.3-0.1-0.5l0,0c0-0.3,0-0.6,0.1-0.9c0.1-0.2,0.2-0.4,0.3-0.6c0.4-0.5,0.8-0.8,1.3-1.1
			l7.1-4.1c2.4-1.3,5.3-1.3,7.8-0.1c0.4,0.2,0.7,0.5,1,0.8c0.1,0.1,0.2,0.2,0.2,0.3C175.1,120.9,175.2,121.2,175.2,121.5z"/>
		<path class="st14" d="M175.2,121.5c0,0.3-0.1,0.5-0.2,0.8c-0.3-0.6-0.8-1.1-1.3-1.4c-2.5-1.2-5.4-1.1-7.8,0.1l-3.9,2.3l-3.1,1.8
			c-0.7,0.4-1.2,0.9-1.6,1.6c-0.1-0.1-0.1-0.3-0.1-0.5l0,0c0-0.3,0-0.6,0.1-0.9c0.1-0.2,0.2-0.4,0.3-0.6c0.4-0.5,0.8-0.8,1.3-1.1
			l7.1-4.1c2.4-1.3,5.3-1.3,7.8-0.1c0.4,0.2,0.7,0.5,1,0.8c0.1,0.1,0.2,0.2,0.2,0.3C175.1,120.9,175.2,121.2,175.2,121.5z"/>
	</g>
</g>
<g id="midTapa" class="st0">
	<path class="st15" d="M220.1,96.9L35.2-9.9c-2.5-1.3-5.5-1.3-8.1,0l-90.3,52.1c-0.9,0.4-1.6,1.3-1.7,2.3V47c0.1,1,0.7,1.9,1.7,2.3
		l185,106.8c2.5,1.3,5.5,1.3,8.1,0l90.3-52.2c0.9-0.4,1.6-1.3,1.7-2.3v-2.4C221.8,98.2,221.1,97.3,220.1,96.9z"/>
	<path class="st16" d="M125.8,154.7v2.4c-1.4,0-2.8-0.3-4-1l-185-106.7c-0.9-0.4-1.6-1.3-1.7-2.3v-2.4c0.1,1,0.7,1.9,1.7,2.3
		l184.9,106.8C123,154.4,124.4,154.7,125.8,154.7z"/>
	<path class="st17" d="M221.8,99.4v2.3c-0.1,1-0.7,1.9-1.7,2.3l-90.3,52.2c-1.2,0.7-2.6,1-4,1v-2.4c1.4,0,2.8-0.3,4-1l90.3-52.1
		C221.1,101.2,221.7,100.3,221.8,99.4z"/>
	<path class="st18" d="M129.8,153.7l90.3-52.1c2.2-1.3,2.2-3.4,0-4.7L35.2-9.9c-2.5-1.3-5.5-1.3-8.1,0l-90.3,52.1
		c-2.2,1.3-2.2,3.4,0,4.7l185,106.8C124.3,155,127.3,155,129.8,153.7z"/>
	<g class="st19">
		<path class="st13" d="M31.2-10.6c1.4,0,2.7,0.3,3.9,0.9l185,106.8c1.2,0.4,1.8,1.6,1.4,2.8c-0.2,0.7-0.8,1.2-1.4,1.4l-90.3,52.2
			c-2.5,1.2-5.4,1.2-7.8,0l-185-106.8c-1.2-0.4-1.8-1.6-1.4-2.8c0.2-0.7,0.8-1.2,1.4-1.4L27.3-9.7C28.5-10.3,29.8-10.6,31.2-10.6
			 M31.2-10.8c-1.4,0-2.8,0.3-4,1l-90.3,52.1c-2.2,1.3-2.2,3.4,0,4.7l185,106.8c2.5,1.3,5.5,1.3,8.1,0l90.2-52.2
			c2.2-1.3,2.2-3.4,0-4.7L35.2-9.9C34-10.5,32.6-10.9,31.2-10.8L31.2-10.8z"/>
	</g>
	<path class="st15" d="M-38,32.1l-20.7,12c-0.3,0.1-0.5,0.4-0.4,0.8c0.1,0.2,0.2,0.3,0.4,0.4l13.1,7.6c0.6,0.3,1.4,0.3,2,0
		l20.7-11.9c0.3-0.1,0.5-0.4,0.4-0.8c-0.1-0.2-0.2-0.3-0.4-0.4L-36,32.1C-36.6,31.8-37.3,31.8-38,32.1z"/>
	<path class="st20" d="M-33.3,44.2l-7.5,4.5h-3.7c0,0-0.1,0-0.1,0l-3.9,2.2l0.5,0.3l3.6-2.1h3.7h0.1l7.6-4.6
		c0.1-0.1,0.1-0.2,0.1-0.3C-33,44.2-33.2,44.2-33.3,44.2L-33.3,44.2L-33.3,44.2z"/>
	<path class="st20" d="M-57.9,45.7l3.6-2.1h3.7c0,0,0.1,0,0.1,0l7.6-4.4c0.1-0.1,0.1-0.2,0.1-0.3c-0.1-0.1-0.2-0.1-0.3-0.1
		c0,0,0,0,0,0l-7.5,4.3h-3.7c0,0-0.1,0-0.1,0l-3.9,2.3L-57.9,45.7z"/>
	<path class="st20" d="M-49.3,46.4h3.7h0.1l7.6-4.4c0.1-0.1,0.1-0.2,0.1-0.3c0,0,0,0,0,0c-0.1-0.1-0.2-0.2-0.3-0.1l-7.5,4.3h-3.7
		c0,0-0.1,0-0.1,0l-3.9,2.3l0.5,0.3L-49.3,46.4z"/>
	<path class="st20" d="M-52,44.9h3.7c0,0,0.1,0,0.1,0l1.9-1.1c0.1-0.1,0.1-0.2,0.1-0.3c-0.1-0.1-0.2-0.1-0.3-0.1c0,0,0,0,0,0
		l-1.8,1.1h-3.7c0,0-0.1,0-0.1,0l-3.9,2.3l0.5,0.3L-52,44.9z"/>
	<path class="st20" d="M-42.4,38.6c0.2,0.1,0.3,0.2,0.2,0.4c0,0.1-0.1,0.2-0.2,0.2c-0.3,0.1-0.7,0.1-1,0c-0.2-0.1-0.3-0.2-0.2-0.4
		c0-0.1,0.1-0.2,0.2-0.2C-43.1,38.5-42.7,38.5-42.4,38.6z"/>
	<path class="st20" d="M-45.9,43.2c0.3,0.2,0.3,0.4,0,0.6c-0.3,0.1-0.7,0.1-1,0c-0.2-0.1-0.3-0.2-0.2-0.4c0-0.1,0.1-0.2,0.2-0.2
		C-46.6,43.1-46.2,43.1-45.9,43.2z"/>
	<path class="st20" d="M-37.5,41.5c0.2,0.1,0.3,0.2,0.2,0.4c0,0.1-0.1,0.2-0.2,0.2c-0.3,0.2-0.7,0.2-1,0c-0.2-0.1-0.3-0.2-0.2-0.4
		c0-0.1,0.1-0.2,0.2-0.2C-38.2,41.4-37.8,41.4-37.5,41.5z"/>
	<polygon class="st15" points="-14.3,61 -10.5,63.1 20.5,45.7 16.7,43.5 	"/>
	<path class="st21" d="M108.5,32.6L35.2-9.7c-2.5-1.3-5.5-1.3-8.1,0l-84.5,48.8c-0.5,0.2-0.9,0.7-0.9,1.3v0.5c0,0.4,0.3,0.8,0.7,1
		c1.2,0.6,2.6,0.6,3.8-0.1l11.1-6.4c1.3-0.6,2.7-0.6,4,0l7.3,4.2c0.5,0.1,0.9,0.5,0.8,1c0,0.4-0.4,0.8-0.8,0.8l-7.3,4.2
		c-0.5,0.2-0.8,0.7-0.8,1.2v0.5c0,0.5,0.4,0.9,0.8,1.1l14.9,8.6c1.3,0.6,2.7,0.6,4,0l37.6-21.7c1.2-0.6,2.7-0.7,3.9-0.1
		c0.3,0.2,0.6,0.5,0.7,0.8c-0.1,0.4-0.4,0.8-0.8,1l-41.4,23.9c-0.5,0.2-0.8,0.7-0.8,1.2v0.5c0,0.5,0.4,1,0.8,1.2l11.1,6.4
		c1.3,0.6,2.7,0.6,4,0l22.5-13c0.5-0.2,0.8-0.7,0.8-1.2v-0.5c0-0.5-0.4-0.9-0.8-1.1l-2.2-1.3c-0.5-0.1-0.9-0.5-0.8-1
		c0-0.4,0.4-0.8,0.8-0.8l22.5-13c1.3-0.6,2.7-0.6,4,0l28.7,16.6c1.3,0.6,2.7,0.6,4,0l33.7-19.4c0.5-0.2,0.8-0.7,0.8-1.2v-0.5
		C109.2,33.2,108.9,32.8,108.5,32.6z M-4.3,56.3c1-0.5,2.1-0.5,3.1,0c0.2,0.1,0.4,0.3,0.6,0.6c-0.1,0.2-0.3,0.4-0.5,0.6
		c-1,0.5-2.1,0.5-3.1,0c-0.2-0.1-0.4-0.3-0.6-0.6C-4.8,56.7-4.6,56.5-4.3,56.3z M3.4,51.9c1-0.5,2.1-0.5,3.1,0
		C6.7,52,6.9,52.2,7,52.5c-0.1,0.2-0.3,0.4-0.6,0.6c-1,0.5-2.1,0.5-3.1,0c-0.2-0.1-0.4-0.3-0.6-0.6C2.9,52.2,3.1,52,3.4,51.9
		L3.4,51.9z M15.5,45.3c1-0.5,2.1-0.5,3.1,0c0.2,0.1,0.4,0.3,0.6,0.6c-0.1,0.2-0.3,0.4-0.6,0.6c-1,0.5-2.1,0.5-3.1,0
		c-0.2-0.1-0.4-0.3-0.6-0.6C15.1,45.7,15.3,45.5,15.5,45.3z M-12,60.8c1-0.5,2.1-0.5,3.1,0c0.2,0.1,0.4,0.3,0.6,0.6
		c-0.1,0.2-0.3,0.4-0.6,0.6c-1,0.5-2.1,0.5-3.1,0c-0.2-0.1-0.4-0.3-0.6-0.6C-12.4,61.1-12.2,60.9-12,60.8z"/>
	<path class="st22" d="M108.5,32.6L35.2-9.7c-2.5-1.3-5.5-1.3-8.1,0l-84.5,48.8c-1.1,0.6-1.2,1.6-0.2,2.3c1.2,0.6,2.6,0.6,3.8-0.1
		l11.1-6.4c1.3-0.6,2.7-0.6,4,0l7.3,4.2c0.6,0.2,1,0.9,0.8,1.6c-0.1,0.4-0.4,0.6-0.8,0.8l-7.3,4.2c-0.6,0.2-1,0.9-0.8,1.6
		c0.1,0.4,0.4,0.6,0.8,0.8l14.9,8.6c1.3,0.6,2.7,0.6,4,0l37.6-21.7c1.2-0.6,2.7-0.7,3.9-0.1c1,0.6,1,1.6-0.1,2.3l-41.4,23.9
		c-0.6,0.2-1,0.9-0.8,1.6c0.1,0.4,0.4,0.6,0.8,0.8l11.1,6.5c1.3,0.6,2.7,0.6,4,0l22.5-13c0.6-0.2,1-0.9,0.8-1.6
		c-0.1-0.4-0.4-0.6-0.8-0.8l-2.2-1.3c-0.6-0.2-1-0.9-0.8-1.6c0.1-0.4,0.4-0.6,0.8-0.8l22.5-13c1.3-0.6,2.7-0.6,4,0l28.7,16.6
		c1.3,0.6,2.7,0.6,4,0l33.7-19.4c0.6-0.2,1-0.9,0.7-1.6C109,33,108.8,32.8,108.5,32.6z M-8.9,61.9c-1,0.5-2.1,0.5-3.1,0
		c-0.5-0.2-0.7-0.7-0.6-1.2c0.1-0.3,0.3-0.5,0.6-0.6c1-0.5,2.1-0.5,3.1,0c0.5,0.2,0.8,0.7,0.6,1.2C-8.4,61.6-8.7,61.8-8.9,61.9z
		 M-1.3,57.4c-1,0.5-2.1,0.5-3.1,0c-0.5-0.2-0.8-0.7-0.6-1.2c0.1-0.3,0.3-0.5,0.6-0.6c1-0.5,2.1-0.5,3.1,0c0.5,0.2,0.8,0.7,0.6,1.2
		C-0.7,57.1-1,57.4-1.3,57.4z M6.4,53c-1,0.5-2.1,0.5-3.1,0c-0.5-0.2-0.7-0.7-0.6-1.2c0.1-0.3,0.3-0.5,0.6-0.6c1-0.5,2.1-0.5,3.1,0
		c0.4,0.3,0.5,0.9,0.3,1.4C6.6,52.7,6.5,52.8,6.4,53L6.4,53z M18.6,46.4c-1,0.5-2.1,0.5-3.1,0c-0.5-0.2-0.7-0.7-0.6-1.2
		c0.1-0.3,0.3-0.5,0.6-0.6c1-0.5,2.1-0.5,3.1,0c0.5,0.2,0.7,0.8,0.5,1.2C19,46.1,18.8,46.3,18.6,46.4L18.6,46.4z"/>
	<path class="st15" d="M44.8,0.4c0,0.2-0.2,0.4-0.4,0.5l-48.2,28C-4,29-4.3,29.1-4.7,29.1v1.1c0.3,0,0.6-0.1,0.9-0.2L43.9,2.3
		c0.5-0.3,0.9-0.4,0.9-1L44.8,0.4z"/>
	<path class="st23" d="M44.8,0.4c0,0.2-0.2,0.4-0.4,0.5l-48.2,28C-4,29-4.3,29.1-4.7,29.1v1.1c0.3,0,0.6-0.1,0.9-0.2L43.9,2.3
		c0.5-0.3,0.9-0.4,0.9-1L44.8,0.4z"/>
	<path class="st15" d="M-5.6,28.9l-12.4-7.1c-0.3-0.1-0.4-0.5-0.3-0.7c0.1-0.1,0.2-0.2,0.3-0.3l48.2-28c0.6-0.3,1.2-0.3,1.8,0
		l12.4,7.1c0.3,0.1,0.4,0.4,0.3,0.7c-0.1,0.2-0.2,0.3-0.3,0.3l-48.2,28C-4.3,29.2-5,29.2-5.6,28.9z"/>
	<path class="st15" d="M-18.3,21.3v0.9c0,0.6,0.4,0.7,0.9,1L-5.6,30c0.3,0.1,0.6,0.2,0.9,0.2v-1.1c-0.3,0-0.6-0.1-0.9-0.2l-12.4-7.1
		C-18.1,21.6-18.3,21.5-18.3,21.3z"/>
	<path class="st24" d="M-18.3,21.2v0.9c0,0.6,0.4,0.7,0.9,1L-5.6,30c0.3,0.1,0.6,0.2,0.9,0.2v-1.1c-0.3,0-0.6-0.1-0.9-0.2l-12.4-7.1
		C-18.1,21.6-18.3,21.5-18.3,21.2z"/>
	<path class="st25" d="M-14.9,20.8L30.5-5.6c0.4-0.2,0.9-0.2,1.3,0l9.6,5.6c0.2,0.1,0.3,0.3,0.3,0.4c0,0.2-0.1,0.4-0.3,0.4L-4,27.2
		c-0.4,0.2-0.9,0.2-1.3,0l-9.6-5.6c-0.2-0.1-0.3-0.3-0.3-0.4c0-0.1,0-0.1,0.1-0.2C-15.1,20.9-15,20.8-14.9,20.8z M41.5,0.4
		c0-0.1-0.1-0.1-0.2-0.2l-9.6-5.5c-0.3-0.1-0.7-0.1-1,0L-14.7,21l0,0c-0.1,0.1-0.2,0.1-0.2,0.2c0,0.1,0.1,0.2,0.2,0.2l9.6,5.6
		c0.3,0.2,0.7,0.2,1,0L41.3,0.6c0.1,0,0.1-0.1,0.1-0.1C41.4,0.5,41.5,0.4,41.5,0.4z"/>
	<path class="st25" d="M-11.3,21L30.8-3.5c0.2-0.1,0.4-0.1,0.6,0l6.4,3.6c0.1,0,0.2,0.1,0.2,0.3c0,0.1-0.1,0.2-0.2,0.3L-4.3,25.2
		c-0.2,0.1-0.4,0.1-0.6,0l-6.3-3.6c-0.1,0-0.2-0.1-0.2-0.3c0,0,0-0.1,0-0.1C-11.4,21.1-11.3,21-11.3,21z M37.7,0.4l-6.4-3.6l0,0
		c-0.1-0.1-0.2-0.1-0.4,0l-42.1,24.5l0,0l0,0l6.3,3.6c0.1,0,0.2,0,0.4,0L37.7,0.4L37.7,0.4z"/>
</g>
<g id="bateria">
	<path class="st26" d="M131.7,50.4L131.7,50.4l-83.4-48c-0.8-0.4-1.8-0.3-2.6,0.3L6.8,25.3c-2.1,1.4-3.4,3.8-3.6,6.3l0,3.4
		c-0.1,0.9,0.3,1.8,1.1,2.3l83.7,48.3c0.8,0.4,1.8,0.3,2.6-0.3l38.9-22.8c2.1-1.4,3.4-3.8,3.6-6.3l0-3.4
		C133.2,51.5,132.6,50.6,131.7,50.4z"/>
	<path class="st13" d="M131.8,50.4L131.8,50.4l-83.5-48c-0.8-0.4-1.8-0.3-2.6,0.3L6.8,25.3c-2.1,1.4-3.4,3.8-3.6,6.3l0,3.4
		c-0.1,0.9,0.3,1.8,1.1,2.3l83.9,48.3c0.8,0.4,1.8,0.3,2.6-0.3l38.9-22.8c2.1-1.4,3.4-3.8,3.6-6.3l0-3.4
		C133.4,51.5,132.7,50.6,131.8,50.4z"/>
	<path class="st27" d="M86.8,67.5l18.9-11.1c0.5-0.2,1-0.2,1.5,0l0.9,0.5c0.4,0.2,0.4,0.6,0,0.8L89.2,68.9c-0.5,0.2-1,0.2-1.5,0
		l-0.9-0.5c-0.2-0.1-0.3-0.4-0.2-0.6C86.6,67.6,86.7,67.6,86.8,67.5z"/>
	<path class="st27" d="M82.2,64.6l13.6-8c0.5-0.2,1-0.2,1.5,0l0.9,0.5c0.2,0.1,0.4,0.3,0.3,0.6c0,0.1-0.1,0.2-0.3,0.3l-13.6,8
		c-0.4,0.2-1,0.2-1.4,0l-0.9-0.5C81.8,65.3,81.8,64.9,82.2,64.6z"/>
	<path class="st28" d="M88.3,85.5L88.3,85.5L4.4,37.4c-0.7-0.5-1.2-1.4-1.1-2.3l0-3.4c0-1.2,0.3-2.3,0.9-3.3l83.9,48.1
		c-0.6,1-0.9,2.2-0.9,3.3l0,3.4C87.1,84,87.5,85,88.3,85.5z"/>
	<path class="st29" d="M87.2,83.7l0-3.4c0.1-2.5,1.4-4.9,3.6-6.3l38.9-22.8c2-1.2,3.6-0.3,3.6,2.1l0,3.4c-0.1,2.5-1.4,4.9-3.6,6.3
		L90.8,85.8C88.8,86.9,87.2,86,87.2,83.7z"/>
</g>
<g id="flexBateria">
	<path class="st13" d="M108,91.7c-1.2-0.7-1.9-1.9-1.9-3.3l0-0.2c0-1.4-0.7-2.6-1.9-3.3L93,78.8l0,1l10.7,6c0.9,0.5,1.4,1.4,1.5,2.5
		l0,0.2c0,1.7,0.9,3.2,2.4,4.1l8.4,4.8l0-1.1L108,91.7z"/>
	<path class="st30" d="M108,91.7c-1.2-0.7-1.9-1.9-1.9-3.3l0-0.2c0-1.4-0.7-2.6-1.9-3.3L93,78.8l0,1l10.7,6c0.9,0.5,1.4,1.4,1.5,2.5
		l0,0.2c0,1.7,0.9,3.2,2.4,4.1l8.4,4.8l0-1.1L108,91.7z"/>
	<path class="st13" d="M115.9,96.3l-8-4.6c-1.2-0.7-1.9-1.9-1.9-3.3l0-0.2c0-1.4-0.7-2.6-1.9-3.3L93,78.8l11.3-6.6l11.1,6.5
		c1.2,0.7,1.9,1.9,1.9,3.3l0,0c0,1.4,0.7,2.6,1.9,3.3l7.9,4.6L115.9,96.3z"/>
	<path class="st27" d="M117.6,86.1c-1.2-0.7-1.9-1.9-1.9-3.3l0-0.2c0-1.4-0.7-2.6-1.9-3.3l-11.1-6.3l-0.8,0.5l11.1,6.2
		c1.2,0.7,1.9,1.9,1.9,3.3l0,0.2c0,1.4,0.7,2.6,1.9,3.3l8,4.6l0.8-0.5L117.6,86.1z"/>
	<path class="st27" d="M114,88.2c-1.2-0.7-1.9-1.9-1.9-3.3l0-0.2c0-1.4-0.7-2.6-1.9-3.3l-11.1-6.3l-0.8,0.5l11.1,6.3
		c1.2,0.7,1.9,1.9,1.9,3.3l0,0.2c0,1.4,0.7,2.6,1.9,3.3l8,4.6l0.8-0.4L114,88.2z"/>
	<path class="st27" d="M110.4,90.3c-1.2-0.7-1.9-1.9-1.9-3.3l0-0.2c0-1.4-0.7-2.6-1.9-3.3l-11.1-6.3l-0.8,0.5l11.1,6.3
		c1.2,0.7,1.9,1.9,1.9,3.3l0,0.2c0,1.4,0.7,2.6,1.9,3.3l7.9,4.6l0.8-0.4L110.4,90.3z"/>
	<polygon class="st13" points="127.2,90.7 115.9,97.4 115.9,96.3 127.2,89.7 	"/>
	<polygon class="st28" points="127.2,90.7 115.9,97.4 115.9,96.3 127.2,89.7 	"/>
	<path class="st5" d="M114.9,96.6l13-7.6c1-0.5,2.1-0.5,3.1,0l4.2,2.4c0.4,0.1,0.6,0.5,0.6,0.9l0,0.8c0,0.4-0.3,0.7-0.6,0.9l-13,7.6
		c-1,0.5-2.1,0.5-3.1,0l-4.2-2.4c-0.4-0.2-0.6-0.5-0.6-0.9l0-0.8C114.2,97.1,114.5,96.8,114.9,96.6z"/>
	<path class="st3" d="M135.2,93.2l-13,7.6c-1,0.5-2.1,0.5-3.1,0l-4.2-2.4c-0.5-0.2-0.8-0.7-0.6-1.2c0.1-0.3,0.3-0.5,0.6-0.6l13-7.6
		c1-0.5,2.1-0.5,3.1,0l4.2,2.4c0.5,0.1,0.8,0.7,0.6,1.2C135.7,92.8,135.5,93.1,135.2,93.2z"/>
	<path class="st13" d="M133.7,91.8l-3.5-2c-0.4-0.2-0.9-0.2-1.2,0l-0.4,0.2c-0.3,0.2-0.3,0.5,0,0.7l3.5,2c0.4,0.2,0.8,0.2,1.2,0
		l0.4-0.2C134.1,92.3,134.1,92,133.7,91.8z"/>
	<path class="st13" d="M130.7,93.6l-3.5-2c-0.4-0.2-0.8-0.2-1.2,0l-0.4,0.2c-0.3,0.2-0.3,0.5,0,0.7l3.5,2c0.4,0.2,0.9,0.2,1.2,0
		l0.4-0.2c0.2-0.1,0.3-0.3,0.2-0.5C130.8,93.7,130.7,93.7,130.7,93.6z"/>
	<path class="st13" d="M127.6,95.4l-3.5-2c-0.4-0.2-0.9-0.2-1.2,0l-0.4,0.2c-0.3,0.2-0.3,0.5,0,0.7l3.5,2c0.4,0.2,0.8,0.2,1.2,0
		l0.4-0.2C127.9,95.9,127.9,95.6,127.6,95.4z"/>
	<path class="st13" d="M124.6,97.2l-3.5-2c-0.4-0.2-0.9-0.2-1.2,0l-0.4,0.2c-0.2,0.1-0.3,0.3-0.2,0.5c0,0.1,0.1,0.2,0.2,0.2l3.5,2
		c0.4,0.2,0.9,0.2,1.2,0l0.4-0.2C124.9,97.7,124.9,97.4,124.6,97.2z"/>
	<path class="st13" d="M121.5,99l-3.5-2c-0.4-0.2-0.8-0.2-1.2,0l-0.4,0.2c-0.2,0.1-0.3,0.3-0.2,0.5c0,0.1,0.1,0.2,0.2,0.2l3.5,2
		c0.4,0.2,0.9,0.2,1.2,0l0.4-0.2C121.8,99.5,121.8,99.2,121.5,99z"/>
</g>
<g id="marco" class="st0">
	<path class="st31" d="M221.6,87.3L36.6-19.4c-3.4-1.8-7.5-1.8-10.9,0l-90.3,52.1c-1.8,0.9-3,2.7-3.1,4.8v8.7c0.1,2,1.2,3.9,3.1,4.8
		l185,106.8c3.4,1.8,7.5,1.8,10.9,0l90.3-52.2c1.8-0.9,3-2.7,3.1-4.7v-8.7C224.5,90,223.4,88.2,221.6,87.3z M27.1-8.3
		c2.5-1.3,5.5-1.3,8.1,0L216.6,96.5l-86.8,50.1c-2.5,1.3-5.5,1.3-8.1,0L-59.7,41.8L27.1-8.3z"/>
	<path class="st21" d="M125.8,147.5c-1.4,0-2.8-0.3-4-1L-59.7,41.8l17-9.8l-9.9-6.3l-12.1,7c-1.8,0.9-3,2.7-3.1,4.8v8.7
		c0.1,2,1.2,3.9,3.1,4.8l185,106.8c1.7,0.9,3.5,1.4,5.4,1.3l0,0L125.8,147.5z"/>
	<path class="st22" d="M221.6,87.3L36.6-19.4c-3.4-1.8-7.5-1.8-10.9,0l-90.3,52.1c-2.6,1.2-3.8,4.3-2.6,6.9c0.5,1.1,1.4,2.1,2.6,2.6
		l2.1,1.2L120.4,149c3.4,1.8,7.5,1.8,10.9,0l88.2-50.9l2.1-1.2c2.6-1.2,3.8-4.3,2.6-6.9C223.6,88.8,222.7,87.9,221.6,87.3
		L221.6,87.3z M129.8,146.6c-2.5,1.3-5.5,1.3-8.1,0L-59.7,41.8L27.1-8.3c2.5-1.3,5.5-1.3,8.1,0L216.6,96.5L129.8,146.6z"/>
	<path class="st21" d="M220.2,94.4l-3.5,2L35.2-8.3c-2.5-1.3-5.5-1.3-8.1,0l-86.8,50.1l-3.5-2.1c-2.2-1.3-2.2-3.4,0-4.6L27.1-17
		c2.5-1.3,5.5-1.3,8.1,0l185,106.8C222.4,91.1,222.4,93.2,220.2,94.4z"/>
	<path class="st31" d="M31.2-9.2V-18c-1.4,0-2.8,0.3-4,1l-90.4,52.1c-2.2,1.3-2.2,3.4,0,4.6l3.5,2.1L27.1-8.3
		C28.4-8.9,29.8-9.3,31.2-9.2z"/>
</g>
<g id="tapa" class="st0">
	<path class="st31" d="M221.6,87.5L36.6-19.3c-3.4-1.8-7.5-1.8-10.9,0l-90.3,52.1c-1.8,0.9-3,2.7-3.1,4.7v2.9c0.1,2,1.3,3.8,3.1,4.8
		l2.1,1.2L120.3,152c0.4,0.2,0.8,0.4,1.2,0.6l0.4,0.1l0.3,0.1l0.6,0.2l0.7,0.1l0.7,0.1c0.5,0.1,1.1,0.1,1.6,0.1
		c1.9,0,3.8-0.4,5.4-1.3l88.2-50.9l2.1-1.2c1.8-0.9,3-2.7,3.1-4.7v-2.9C224.5,90.2,223.4,88.4,221.6,87.5z M-30.9,36.7l3-1.8
		c3.8-1.9,8.3-1.9,12.1,0l22,12.7c0.2,0.1,0.4,0.3,0.6,0.4L7,48.2c0.5,0.4,1,0.9,1.3,1.5l0,0c0,0,0,0.1-0.1,0.1
		c-0.5,0.8-1.2,1.5-2.1,2l-3,1.8c-3.8,1.9-8.3,1.9-12.1,0l-22-12.7c-0.3-0.2-0.5-0.3-0.7-0.5c-0.1-0.1-0.2-0.2-0.3-0.3
		c-0.1-0.1-0.2-0.1-0.3-0.2c-0.3-0.3-0.6-0.6-0.8-1l-0.1-0.1l0,0C-32.5,37.9-31.8,37.2-30.9,36.7z"/>
	<path class="st21" d="M125.7,150.5v2.9c-1.9,0-3.7-0.4-5.3-1.3L-62.5,46.4l-2.1-1.2c-1.8-0.9-3-2.7-3.1-4.8v-2.9
		c0.1,2,1.3,3.8,3.1,4.8l2.1,1.2l182.8,105.6C122,150,123.8,150.5,125.7,150.5z"/>
	<path class="st22" d="M221.6,87.5L36.6-19.3c-3.4-1.8-7.5-1.8-10.9,0l-90.3,52.1c-2.6,1.2-3.8,4.3-2.6,6.9c0.5,1.2,1.4,2.1,2.6,2.6
		l2.1,1.2l182.8,105.6c0.4,0.2,0.8,0.4,1.2,0.6l0,0c0.2,0.1,0.3,0.1,0.5,0.2h0.1c0.1,0,0.1,0,0.2,0c0.1,0.1,0.3,0.1,0.5,0.1l0.3,0.1
		h0.1l0.4,0.1l0.6,0.1l0.7,0.1h0h0.5h0.4c1.9,0,3.8-0.4,5.4-1.3L219.4,98l2.1-1.2c2.6-1.2,3.8-4.3,2.6-6.9c-0.5-1.2-1.4-2.1-2.6-2.6
		L221.6,87.5z M8.7,48.5c0,0,0,0.1,0,0.2c-0.1,0.3-0.2,0.7-0.3,1l0,0c0,0,0,0.1-0.1,0.1c-0.5,0.8-1.2,1.5-2.1,2l-3,1.8
		c-3.8,1.9-8.3,1.9-12.1,0l-22-12.7c-0.3-0.2-0.5-0.3-0.7-0.5c-0.1-0.1-0.2-0.2-0.3-0.3c-0.1-0.1-0.2-0.1-0.3-0.2
		c-0.3-0.3-0.6-0.6-0.8-1l-0.1-0.1l0,0c-0.2-0.3-0.3-0.6-0.3-1c0-0.1,0-0.1,0-0.2c-0.1-0.6,0.1-1.2,0.3-1.7c0.1-0.2,0.2-0.3,0.3-0.5
		c0.5-0.7,1.1-1.2,1.9-1.6l3-1.8c3.8-1.9,8.3-1.9,12.1,0l22,12.7C8,45.8,8.8,47.2,8.7,48.5z"/>
	<path class="st32" d="M131.3,147.3c-3.5,2-7.8,2-11.4,0L-62.5,43.5l182.8,105.6c0.4,0.2,0.8,0.4,1.2,0.6l0,0
		c0.2,0.1,0.3,0.1,0.5,0.2h0.1c0.1,0,0.1,0,0.2,0c0.1,0.1,0.3,0.1,0.5,0.1l0.3,0.1h0.1l0.4,0.1l0.6,0.1l0.7,0.1h0h0.5h0.4
		c1.9,0,3.8-0.4,5.4-1.3L219.4,98L131.3,147.3z"/>
	<path class="st15" d="M144.5,122.9l36.3-20.9c1.4-0.7,3-0.7,4.3,0l2.2,1.3c0.7,0.2,1.1,1,0.8,1.7c-0.1,0.4-0.4,0.7-0.8,0.8
		l-36.3,21c-1.4,0.7-3,0.7-4.3,0l-2.2-1.3c-0.7-0.2-1.1-0.9-0.9-1.6C143.7,123.3,144,123,144.5,122.9z"/>
	<path class="st21" d="M8.7,48.5c0,0,0,0.1,0,0.2c-0.1,0.3-0.2,0.7-0.3,1c-0.3-0.6-0.8-1.1-1.3-1.5L6.8,48c-0.2-0.1-0.4-0.3-0.6-0.4
		L-15.7,35C-19.5,33-24,33-27.8,35l-3,1.8c-0.9,0.5-1.6,1.2-2.1,2.1c-0.2-0.3-0.3-0.6-0.3-1c0-0.1,0-0.1,0-0.2
		c-0.1-0.6,0.1-1.2,0.3-1.7c0.1-0.2,0.2-0.3,0.3-0.5c0.5-0.7,1.1-1.2,1.9-1.6l3-1.8c3.8-1.9,8.3-1.9,12.1,0l22,12.7
		C8,45.8,8.8,47.2,8.7,48.5z"/>
	<path class="st31" d="M-21.8,30.6c-2.1,0-4.2,0.5-6,1.4l-3,1.8c-0.8,0.4-1.4,1-2,1.6c-0.1,0.1-0.2,0.3-0.3,0.5
		c-0.3,0.5-0.4,1.1-0.3,1.7c0,0.1,0,0.1,0,0.2c0.1,0.4,0.2,0.7,0.3,1c0.5-0.9,1.3-1.6,2.1-2.1l3-1.8c1.8-1,3.9-1.5,6-1.4L-21.8,30.6
		z"/>
</g>
</svg>
