<svg id="Character" xmlns="http://www.w3.org/2000/svg" viewBox="0 0 24.99 17.2"><defs><style>.cls-1{fill:#37474f;}.cls-2{fill:#455a64;}.cls-3{fill:#263238;}.cls-4{fill:#27debf;}.cls-5,.cls-7{opacity:0.3;}.cls-6,.cls-7{fill:#fff;}.cls-6{opacity:0.1;}</style></defs><title>circuito 6</title><path class="cls-1" d="M185.58,191.36a1.44,1.44,0,0,0-.84-1.17l-8.18-4.72a4.47,4.47,0,0,0-4,0l-11.1,6.4a1.42,1.42,0,0,0-.83,1.15c0,.43,0,2.37,0,2.79a1.44,1.44,0,0,0,.84,1.17l8.18,4.73a4.47,4.47,0,0,0,4,0l11.1-6.41a1.42,1.42,0,0,0,.84-1.18C185.57,193.7,185.58,191.78,185.58,191.36Z" transform="translate(-160.59 -184.99)"/><path class="cls-2" d="M169.61,198.93l-8.18-4.73a1.23,1.23,0,0,1,0-2.33l11.1-6.4a4.47,4.47,0,0,1,4,0l8.18,4.72a1.23,1.23,0,0,1,0,2.33l-11.1,6.42A4.44,4.44,0,0,1,169.61,198.93Z" transform="translate(-160.59 -184.99)"/><path class="cls-3" d="M171.63,199.42v2.77a4.06,4.06,0,0,1-2-.49L161.43,197a1.44,1.44,0,0,1-.84-1.17V193a.77.77,0,0,1,0-.15,1.34,1.34,0,0,0,.82,1.32l8.18,4.73A4.06,4.06,0,0,0,171.63,199.42Z" transform="translate(-160.59 -184.99)"/><path class="cls-4" d="M179.83,191.93h0v-2.45h-1.5a5.46,5.46,0,0,0-.59-.38,11.08,11.08,0,0,0-10.06,0,6.46,6.46,0,0,0-.58.38h-1.5v2.45h0a3.51,3.51,0,0,0,2.08,3,11.14,11.14,0,0,0,10.06,0A3.51,3.51,0,0,0,179.83,191.93Z" transform="translate(-160.59 -184.99)"/><path class="cls-5" d="M179.83,191.93h0v-2.45h-1.5a5.46,5.46,0,0,0-.59-.38,11.08,11.08,0,0,0-10.06,0,6.46,6.46,0,0,0-.58.38h-1.5v2.45h0a3.51,3.51,0,0,0,2.08,3,11.14,11.14,0,0,0,10.06,0A3.51,3.51,0,0,0,179.83,191.93Z" transform="translate(-160.59 -184.99)"/><path class="cls-4" d="M167.69,192.39a11.14,11.14,0,0,0,10.06,0c2.78-1.61,2.78-4.21,0-5.81a11.08,11.08,0,0,0-10.06,0C164.91,188.18,164.91,190.78,167.69,192.39Z" transform="translate(-160.59 -184.99)"/><path class="cls-1" d="M178.39,189.84a.49.49,0,0,1-.06.17,3,3,0,0,1-1.57,1.58,9.82,9.82,0,0,1-8.08,0A3,3,0,0,1,167.1,190a.84.84,0,0,1,0-.17c-.22-.88.33-1.79,1.62-2.46a9.76,9.76,0,0,1,8.09,0C178.05,188.05,178.59,189,178.39,189.84Z" transform="translate(-160.59 -184.99)"/><path class="cls-1" d="M178.39,189.84a.49.49,0,0,1-.06.17,3,3,0,0,1-1.57,1.58,9.82,9.82,0,0,1-8.08,0A3,3,0,0,1,167.1,190a.84.84,0,0,1,0-.17c-.22-.88.33-1.79,1.62-2.46a9.76,9.76,0,0,1,8.09,0C178.05,188.05,178.59,189,178.39,189.84Z" transform="translate(-160.59 -184.99)"/><path class="cls-2" d="M178.33,190a3,3,0,0,1-1.57,1.58,9.82,9.82,0,0,1-8.08,0A3,3,0,0,1,167.1,190a3,3,0,0,1,1.57-1.57,9.76,9.76,0,0,1,8.09,0A3,3,0,0,1,178.33,190Z" transform="translate(-160.59 -184.99)"/><path class="cls-6" d="M178.33,190a3,3,0,0,1-1.57,1.58,9.82,9.82,0,0,1-8.08,0A3,3,0,0,1,167.1,190c0-1.68,2.52-3,5.61-3S178.33,188.33,178.33,190Z" transform="translate(-160.59 -184.99)"/><path class="cls-7" d="M169.18,190.77a5,5,0,0,0,1.41.75,5.72,5.72,0,0,0,1.79.32,3.61,3.61,0,0,0,1-.12,1.17,1.17,0,0,0,.75-.49.71.71,0,0,0-.18-.8,1.14,1.14,0,0,0-.77-.22,7.3,7.3,0,0,0-.81,0,5.34,5.34,0,0,1-2.52-.53,7.74,7.74,0,0,1-1.08-.71c-.48-.34-.48.33-.38.66A2.39,2.39,0,0,0,169.18,190.77Z" transform="translate(-160.59 -184.99)"/><path class="cls-7" d="M174.94,190.25a.68.68,0,0,0-.28.42.58.58,0,0,0,.34.56,1,1,0,0,0,.68.06,1.16,1.16,0,0,0,.43-.18.59.59,0,0,0,.23-.39.63.63,0,0,0-.47-.63A1.1,1.1,0,0,0,174.94,190.25Z" transform="translate(-160.59 -184.99)"/></svg>