<svg id="Character" xmlns="http://www.w3.org/2000/svg" viewBox="0 0 18.35 13.83"><defs><style>.cls-1{fill:#37474f;}.cls-2{fill:#455a64;}.cls-3{fill:#263238;}.cls-4{fill:#27debf;}.cls-5,.cls-7{opacity:0.3;}.cls-6,.cls-7{fill:#fff;}.cls-6{opacity:0.1;}</style></defs><title>circuito 5</title><path class="cls-1" d="M196.85,200.64a1.38,1.38,0,0,0-.83-1.16L190,195.94a4.43,4.43,0,0,0-4,0l-6.57,3.77a1.43,1.43,0,0,0-.84,1.15c0,.43,0,2.37,0,2.79a1.44,1.44,0,0,0,.83,1.17l6.06,3.54a4.41,4.41,0,0,0,4,0l6.59-3.78a1.4,1.4,0,0,0,.83-1.18Z" transform="translate(-178.51 -195.02)"/><path class="cls-2" d="M185.4,205.59,179.34,202a1.23,1.23,0,0,1,0-2.33l6.57-3.77a4.43,4.43,0,0,1,4,0l6.06,3.54a1.23,1.23,0,0,1,0,2.33l-6.59,3.78A4.47,4.47,0,0,1,185.4,205.59Z" transform="translate(-178.51 -195.02)"/><path class="cls-3" d="M187.42,206.08v2.76a4.16,4.16,0,0,1-2-.48l-6.06-3.54a1.42,1.42,0,0,1-.83-1.17v-2.78a.71.71,0,0,1,0-.15,1.35,1.35,0,0,0,.82,1.32l6.06,3.55A4.06,4.06,0,0,0,187.42,206.08Z" transform="translate(-178.51 -195.02)"/><path class="cls-4" d="M193.14,198.13h-2.26a8.75,8.75,0,0,0-6.29,0h-2.25v2.52h0a2.7,2.7,0,0,0,1.58,2.21,8.49,8.49,0,0,0,7.64,0,2.7,2.7,0,0,0,1.58-2.21h0Z" transform="translate(-178.51 -195.02)"/><path class="cls-5" d="M193.14,198.13h-2.26a8.75,8.75,0,0,0-6.29,0h-2.25v2.52h0a2.7,2.7,0,0,0,1.58,2.21,8.49,8.49,0,0,0,7.64,0,2.7,2.7,0,0,0,1.58-2.21h0Z" transform="translate(-178.51 -195.02)"/><path class="cls-4" d="M183.92,200.34a8.49,8.49,0,0,0,7.64,0c2.1-1.22,2.1-3.19,0-4.41a8.41,8.41,0,0,0-7.63,0C181.81,197.15,181.82,199.12,183.92,200.34Z" transform="translate(-178.51 -195.02)"/><path class="cls-1" d="M191.68,198.5c0,.05,0,.11-.07.17a2.37,2.37,0,0,1-1,.94,6.9,6.9,0,0,1-5.66,0,2.31,2.31,0,0,1-1-.94c0-.06-.05-.12-.07-.17-.22-.65.15-1.34,1.11-1.84a6.82,6.82,0,0,1,5.66,0C191.53,197.16,191.9,197.85,191.68,198.5Z" transform="translate(-178.51 -195.02)"/><path class="cls-2" d="M191.61,198.67a2.37,2.37,0,0,1-1,.94,6.9,6.9,0,0,1-5.66,0,2.31,2.31,0,0,1-1-.94,2.26,2.26,0,0,1,1-.94,6.82,6.82,0,0,1,5.66,0A2.31,2.31,0,0,1,191.61,198.67Z" transform="translate(-178.51 -195.02)"/><path class="cls-6" d="M191.61,198.67a2.37,2.37,0,0,1-1,.94,6.9,6.9,0,0,1-5.66,0,2.31,2.31,0,0,1-1-.94c0-1.17,1.73-2.1,3.86-2.1S191.61,197.5,191.61,198.67Z" transform="translate(-178.51 -195.02)"/><path class="cls-7" d="M185.3,199.19a3.6,3.6,0,0,0,1,.51,3.73,3.73,0,0,0,1.24.23,2.56,2.56,0,0,0,.67-.08.84.84,0,0,0,.52-.34.47.47,0,0,0-.13-.55.75.75,0,0,0-.53-.16c-.19,0-.37,0-.56,0a3.57,3.57,0,0,1-1.73-.36A4.75,4.75,0,0,1,185,198c-.34-.23-.34.23-.27.46A1.66,1.66,0,0,0,185.3,199.19Z" transform="translate(-178.51 -195.02)"/><path class="cls-7" d="M189.27,198.83a.48.48,0,0,0-.19.29.42.42,0,0,0,.23.39.75.75,0,0,0,.47,0,.81.81,0,0,0,.3-.13.4.4,0,0,0,.16-.27.44.44,0,0,0-.33-.43A.77.77,0,0,0,189.27,198.83Z" transform="translate(-178.51 -195.02)"/></svg>