<svg id="Character" xmlns="http://www.w3.org/2000/svg" viewBox="0 0 42.11 26.5"><defs><style>.cls-1{fill:#27debf;}.cls-2{opacity:0.3;}</style></defs><title>circuito 7</title><path class="cls-1" d="M197.92,173.8l-22-12.68a13.37,13.37,0,0,0-12.1,0l-3,1.75c-1.66,1-2.49,2.21-2.5,3.47,0,.38,0,1.83,0,2.19,0,1.28.82,2.55,2.5,3.52l22,12.67a13.37,13.37,0,0,0,12.1,0l3-1.75c1.67-1,2.5-2.23,2.5-3.5v-2.2C200.41,176,199.58,174.76,197.92,173.8Zm-20.17-2.88a11.08,11.08,0,0,1-10.06,0,4.32,4.32,0,0,1-1.82-1.81,4.29,4.29,0,0,1,1.81-1.81,11.14,11.14,0,0,1,10.06,0,4.3,4.3,0,0,1,1.83,1.81A4.27,4.27,0,0,1,177.75,170.92Zm6.17,5.73a8.41,8.41,0,0,1,7.63,0,3.55,3.55,0,0,1,1.23,1.11,3.41,3.41,0,0,1-1.22,1.11,8.43,8.43,0,0,1-7.64,0,3.5,3.5,0,0,1-1.22-1.11A3.6,3.6,0,0,1,183.92,176.65Z" transform="translate(-158.32 -159.67)"/><path class="cls-2" d="M197.92,180.79l-3,1.75a13.37,13.37,0,0,1-12.1,0l-22-12.68a4.4,4.4,0,0,1-2.5-3.26v1.94c0,1.26.82,2.53,2.5,3.5l22,12.68a13.37,13.37,0,0,0,12.1,0l3-1.75c1.67-1,2.5-2.23,2.5-3.49V177.3C200.42,178.55,199.59,179.82,197.92,180.79Z" transform="translate(-158.32 -159.67)"/><path class="cls-2" d="M183.92,176.65a8.41,8.41,0,0,1,7.63,0,3.55,3.55,0,0,1,1.23,1.11c.72-1.11.32-2.4-1.23-3.3a8.47,8.47,0,0,0-7.63,0c-1.54.9-1.94,2.19-1.22,3.29A3.58,3.58,0,0,1,183.92,176.65Z" transform="translate(-158.32 -159.67)"/><path class="cls-2" d="M167.69,167.3a11.12,11.12,0,0,1,10.05,0,4.31,4.31,0,0,1,1.83,1.82c.67-1.38.05-2.92-1.83-4a11.06,11.06,0,0,0-10.05,0c-1.87,1.08-2.48,2.62-1.83,4A4.3,4.3,0,0,1,167.69,167.3Z" transform="translate(-158.32 -159.67)"/><path class="cls-1" d="M197.92,173.8l-22-12.68a13.37,13.37,0,0,0-12.1,0l-3,1.75c-3.34,1.93-3.34,5.06,0,7l22,12.68a13.37,13.37,0,0,0,12.1,0l3-1.75C201.26,178.86,201.26,175.73,197.92,173.8Zm-20.17-2.88a11.08,11.08,0,0,1-10.06,0c-2.78-1.6-2.78-4.2,0-5.81a11.14,11.14,0,0,1,10.06,0C180.53,166.72,180.53,169.32,177.75,170.92Zm13.81,8a8.43,8.43,0,0,1-7.64,0c-2.1-1.21-2.11-3.19,0-4.4a8.41,8.41,0,0,1,7.63,0C193.66,175.68,193.66,177.66,191.56,178.87Z" transform="translate(-158.32 -159.67)"/><path class="cls-1" d="M197.92,173.8l-22-12.68a13.37,13.37,0,0,0-12.1,0l-3,1.75c-3.34,1.93-3.34,5.06,0,7l22,12.68a13.37,13.37,0,0,0,12.1,0l3-1.75C201.26,178.86,201.26,175.73,197.92,173.8Zm-20.17-2.88a11.08,11.08,0,0,1-10.06,0c-2.78-1.6-2.78-4.2,0-5.81a11.14,11.14,0,0,1,10.06,0C180.53,166.72,180.53,169.32,177.75,170.92Zm13.81,8a8.43,8.43,0,0,1-7.64,0c-2.1-1.21-2.11-3.19,0-4.4a8.41,8.41,0,0,1,7.63,0C193.66,175.68,193.66,177.66,191.56,178.87Z" transform="translate(-158.32 -159.67)"/></svg>