<svg id="Character" xmlns="http://www.w3.org/2000/svg" viewBox="0 0 126.32 75.07"><defs><style>.cls-1{fill:#27debf;}.cls-2{opacity:0.55;}.cls-3{opacity:0.45;}.cls-4{opacity:0.3;}.cls-5{fill:#263238;}.cls-6{fill:#455a64;}.cls-7{fill:#37474f;}.cls-8{fill:#f5f5f5;}</style></defs><title>circuito 1</title><path class="cls-1" d="M395.8,246.12A1.4,1.4,0,0,0,395,245L349.8,218.88a4.47,4.47,0,0,0-4,0l-75.44,43.56a1.38,1.38,0,0,0-.83,1.16v2.14a1.38,1.38,0,0,0,.83,1.16L315.49,293a4.43,4.43,0,0,0,4,0L395,249.42a1.4,1.4,0,0,0,.83-1.15Z" transform="translate(-269.49 -218.4)"/><path class="cls-2" d="M317.51,291.33v2.13a4.27,4.27,0,0,1-2-.47l-45.17-26.08a1.43,1.43,0,0,1-.82-1.18c0-.37,0-1.75,0-2.13a1.41,1.41,0,0,0,.82,1.16l45.17,26.08A4,4,0,0,0,317.51,291.33Z" transform="translate(-269.49 -218.4)"/><path class="cls-1" d="M349.07,218.6H346.5A4.68,4.68,0,0,1,349.07,218.6Z" transform="translate(-269.49 -218.4)"/><path class="cls-3" d="M395.8,246.28v2a1.42,1.42,0,0,1-.83,1.16L319.53,293a4.27,4.27,0,0,1-2,.47v-2.13a4.06,4.06,0,0,0,2-.49L395,247.29A1.57,1.57,0,0,0,395.8,246.28Z" transform="translate(-269.49 -218.4)"/><path class="cls-1" d="M319.53,290.84,395,247.29a1.23,1.23,0,0,0,0-2.33L349.8,218.88a4.47,4.47,0,0,0-4,0l-75.44,43.56a1.23,1.23,0,0,0,0,2.33l45.16,26.07A4.43,4.43,0,0,0,319.53,290.84Z" transform="translate(-269.49 -218.4)"/><path class="cls-4" d="M319.53,290.84,395,247.29a1.23,1.23,0,0,0,0-2.33L349.8,218.88a4.47,4.47,0,0,0-4,0l-75.44,43.56a1.23,1.23,0,0,0,0,2.33l45.16,26.07A4.43,4.43,0,0,0,319.53,290.84Z" transform="translate(-269.49 -218.4)"/><path class="cls-1" d="M314.45,277.45l-8.82,5.09c-.22.13-.32.28-.21.34a.75.75,0,0,0,.59-.12l8.53-4.93,2.95,1.7a.21.21,0,0,0,.19,0l4.56-2.64a.18.18,0,0,0,.1-.16v-3.4l7.09-4.1a1.17,1.17,0,0,0,.87-.09c.31-.17.31-.45,0-.63a1.23,1.23,0,0,0-1.09,0c-.24.14-.29.34-.15.51l-7,4a.18.18,0,0,0-.1.16v3.4l-4.37,2.53-2.95-1.7A.21.21,0,0,0,314.45,277.45Z" transform="translate(-269.49 -218.4)"/><path class="cls-1" d="M312.1,286.27l13.2-7.61a.22.22,0,0,0,.09-.17v-3.41l3.08-1.77a1.28,1.28,0,0,0,.87-.09c.31-.18.31-.46,0-.63a1.17,1.17,0,0,0-1.09,0c-.24.13-.29.33-.15.5l-3,1.72a.2.2,0,0,0-.09.17v3.41l-13.28,7.67c-.23.13-.32.28-.22.34A.76.76,0,0,0,312.1,286.27Z" transform="translate(-269.49 -218.4)"/><path class="cls-1" d="M386.67,242.78l-16.23,9.37a.17.17,0,0,0-.09.16v3.41l-37.23,21.49a1.19,1.19,0,0,0-.87.09c-.3.17-.3.45,0,.63a1.25,1.25,0,0,0,1.1,0c.23-.14.28-.34.15-.51L370.63,256a.22.22,0,0,0,.09-.16v-3.41L387.05,243c.22-.13.32-.28.21-.34A.77.77,0,0,0,386.67,242.78Z" transform="translate(-269.49 -218.4)"/><path class="cls-1" d="M315.13,288l13.2-7.62a.19.19,0,0,0,.09-.16v-3.41l7.07-4.08a1.23,1.23,0,0,0,.89-.09c.3-.17.3-.45,0-.63a1.25,1.25,0,0,0-1.1,0c-.23.14-.28.33-.15.5l-7,4a.18.18,0,0,0-.09.16v3.41l-13.29,7.67c-.22.13-.32.28-.22.34A.79.79,0,0,0,315.13,288Z" transform="translate(-269.49 -218.4)"/><path class="cls-1" d="M360.81,227.85l-5.58,3.22a.19.19,0,0,0-.1.16v3.41l-5.57,3.22a1.22,1.22,0,0,0-.87.08.34.34,0,0,0,0,.64,1.23,1.23,0,0,0,1.09,0c.24-.14.29-.34.15-.51l5.48-3.16a.2.2,0,0,0,.1-.16v-3.41l5.68-3.28c.22-.13.32-.28.21-.34A.76.76,0,0,0,360.81,227.85Z" transform="translate(-269.49 -218.4)"/><path class="cls-1" d="M389.72,244.53l-8.21,4.74a1.32,1.32,0,0,0-.88.09c-.3.18-.3.46,0,.63a1.19,1.19,0,0,0,1.1,0c.24-.13.28-.33.15-.5l8.21-4.74c.22-.13.32-.28.22-.34A.74.74,0,0,0,389.72,244.53Z" transform="translate(-269.49 -218.4)"/><path class="cls-1" d="M327.84,238.42l1.24.72-3.94,2.27h-6a.17.17,0,0,0-.1,0l-7.6,4.39a.19.19,0,0,0-.1.16v3.52a.2.2,0,0,0,.1.16l1.24.71-8.83,5.1a.19.19,0,0,0-.1.16v3.41l-4.39,2.54L295,259.06v-3.3l12.22-7a1.22,1.22,0,0,0,.87-.09.33.33,0,0,0,0-.63,1.17,1.17,0,0,0-1.09,0c-.24.13-.28.34-.15.5l-12.13,7a.2.2,0,0,0-.09.16v3.52a.2.2,0,0,0,.09.16L299,261.8l-14.63,8.44c-.22.13-.31.29-.21.35a.81.81,0,0,0,.59-.13L299.33,262l1.34.77,0,3.34L289,272.91c-.22.13-.32.28-.22.34a.76.76,0,0,0,.59-.13L301,266.4a.16.16,0,0,0,.09-.16l0-3.56a.19.19,0,0,0-.09-.16l-1.24-.72,4.3-2.48a.2.2,0,0,0,.09-.16v-3.41L313,250.6l10.28,5.93-14.93,8.62a.21.21,0,0,0-.1.17v5.16l-11.77,6.79c-.22.13-.31.28-.21.34a.75.75,0,0,0,.59-.12l11.67-6.74a.21.21,0,0,0,.1-.17v-5.16l15-8.67,7.42,4.28v3.3l-28.5,16.45c-.22.13-.32.28-.22.34A.74.74,0,0,0,303,281l28.41-16.4a.19.19,0,0,0,.1-.16v-3.52a.19.19,0,0,0-.1-.16l-7.32-4.23,5.38-3.11a1.17,1.17,0,0,0,.87-.09c.31-.17.31-.45,0-.63a1.23,1.23,0,0,0-1.09,0c-.24.14-.29.34-.15.51l-5.39,3.11-10.27-5.94,8.72-5a1.32,1.32,0,0,0,.88-.09c.3-.18.3-.46,0-.63a1.19,1.19,0,0,0-1.1,0c-.24.13-.28.33-.15.5l-8.73,5-1.33-.77v-3.3l7.47-4.31h6a.17.17,0,0,0,.1,0l4.17-2.41,4.19,2.42L321,249.1a1.19,1.19,0,0,0-.87.09.33.33,0,0,0,0,.63,1.19,1.19,0,0,0,1.1,0c.23-.13.28-.34.15-.5L334,242l4.19,2.42-8.54,4.93a1.21,1.21,0,0,0-.88.09.33.33,0,0,0,0,.63,1.19,1.19,0,0,0,1.1,0c.23-.14.28-.34.15-.5l8.55-4.94,7.23,4.18-2.67,1.54-2.95-1.7a.17.17,0,0,0-.19,0l-3.44,2a1.29,1.29,0,0,0-.87.09c-.3.18-.3.46,0,.63a1.17,1.17,0,0,0,1.09,0c.24-.13.29-.33.16-.5l3.16-1.82,2.95,1.7a.19.19,0,0,0,.18,0l2.95-1.7,2.67,1.54-14.21,8.2a1.26,1.26,0,0,0-.88.09c-.3.18-.3.46,0,.63a1.19,1.19,0,0,0,1.1,0c.23-.13.28-.34.15-.5l14.22-8.21,1.33.77v3.3l-9,5.21a.21.21,0,0,0-.1.17v3.4l-5.57,3.22a1.17,1.17,0,0,0-.87.09.33.33,0,0,0,0,.63,1.23,1.23,0,0,0,1.09,0c.24-.14.28-.34.15-.5l5.48-3.17a.18.18,0,0,0,.1-.16v-3.41l9-5.21a.18.18,0,0,0,.09-.16v-3.52a.18.18,0,0,0-.09-.16l-1.24-.71,7.33-4.23a.22.22,0,0,0,.09-.17v-3.4l14.81-8.55c.22-.13.32-.28.21-.34a.79.79,0,0,0-.59.12l-14.71,8.5a.18.18,0,0,0-.1.16v3.41l-7.41,4.28-2.67-1.54,4.28-2.47a.2.2,0,0,0,.09-.17v-3.4l17.85-10.31c.23-.13.32-.28.22-.34a.76.76,0,0,0-.59.13l-17.76,10.25a.17.17,0,0,0-.09.16v3.41l-4.38,2.52L339,244.41l7.33-4.23a.22.22,0,0,0,.09-.16V233.1l11.76-6.79c.23-.13.32-.29.22-.35a.76.76,0,0,0-.59.13l-11.67,6.74a.17.17,0,0,0-.09.16v6.92l-7.42,4.28-4.19-2.42,7.32-4.23a.18.18,0,0,0,.1-.16v-5.16l13.28-7.67c.22-.13.32-.28.22-.34a.74.74,0,0,0-.59.12L341.54,232a.18.18,0,0,0-.1.16v5.16L334,241.56l-4.19-2.42,6.91-4a1.17,1.17,0,0,0,.87-.09.33.33,0,0,0,0-.63,1.23,1.23,0,0,0-1.09,0c-.24.14-.29.34-.15.5l-6.91,4-1.34-.77v-3.3l22.42-12.94c.22-.12.32-.28.21-.34a.77.77,0,0,0-.59.13l-22.32,12.88a.22.22,0,0,0-.09.17v3.51A.19.19,0,0,0,327.84,238.42Z" transform="translate(-269.49 -218.4)"/><path class="cls-1" d="M383.63,241l-16.23,9.37a.21.21,0,0,0-.1.17V254l-14.85,8.57a1.29,1.29,0,0,0-.87.09c-.3.18-.3.46,0,.63a1.19,1.19,0,0,0,1.1,0c.23-.13.28-.33.15-.5l14.75-8.52a.18.18,0,0,0,.1-.16v-3.41L384,241.24c.22-.13.32-.28.21-.34A.75.75,0,0,0,383.63,241Z" transform="translate(-269.49 -218.4)"/><path class="cls-1" d="M365.38,230.48l-3.65,2.11a1.22,1.22,0,0,0-.87.08.34.34,0,0,0,0,.64,1.23,1.23,0,0,0,1.09,0c.24-.14.29-.34.15-.51l3.65-2.1c.22-.13.32-.28.22-.34A.74.74,0,0,0,365.38,230.48Z" transform="translate(-269.49 -218.4)"/><path class="cls-1" d="M281.67,268.7l5.58-3.22a.2.2,0,0,0,.1-.16v-3.41l4-2.34a1.17,1.17,0,0,0,.87-.09c.3-.17.3-.45,0-.63a1.23,1.23,0,0,0-1.09,0c-.24.14-.29.34-.15.5l-4,2.29a.19.19,0,0,0-.1.16v3.41l-5.68,3.28c-.22.13-.32.28-.21.34A.77.77,0,0,0,281.67,268.7Z" transform="translate(-269.49 -218.4)"/><path class="cls-1" d="M275.58,265.19l3.65-2.11a1.22,1.22,0,0,0,.87-.08.34.34,0,0,0,0-.64,1.23,1.23,0,0,0-1.09,0c-.24.14-.29.34-.15.51l-3.65,2.1c-.23.13-.32.29-.22.35A.81.81,0,0,0,275.58,265.19Z" transform="translate(-269.49 -218.4)"/><path class="cls-1" d="M278.62,267l5.59-3.23a.18.18,0,0,0,.1-.16v-3.41l5.57-3.21a1.29,1.29,0,0,0,.87-.09c.3-.18.3-.46,0-.63a1.17,1.17,0,0,0-1.09,0c-.24.13-.29.33-.16.5L284,259.88a.22.22,0,0,0-.09.17v3.4l-5.68,3.28c-.22.13-.32.28-.22.34A.74.74,0,0,0,278.62,267Z" transform="translate(-269.49 -218.4)"/><path class="cls-1" d="M323.19,234v3.3l-2.13,1.23a1.26,1.26,0,0,0-.88.09.33.33,0,0,0,0,.63,1.19,1.19,0,0,0,1.1,0c.23-.13.28-.34.15-.5l2-1.18a.17.17,0,0,0,.09-.16v-3.62Z" transform="translate(-269.49 -218.4)"/><path class="cls-1" d="M376,236.63l-13.19,7.62a.19.19,0,0,0-.09.16v6.92l-16.64,9.6a.2.2,0,0,0-.09.17v5.16l-5.28,3a1.22,1.22,0,0,0-.87.09.33.33,0,0,0,0,.63,1.17,1.17,0,0,0,1.09,0c.24-.13.29-.34.15-.5l5.19-3a.22.22,0,0,0,.09-.16V261.2L363,251.6a.2.2,0,0,0,.09-.17v-6.91l13.29-7.67c.22-.13.32-.29.22-.35A.79.79,0,0,0,376,236.63Z" transform="translate(-269.49 -218.4)"/><path class="cls-1" d="M379.07,238.39,375,240.73a.22.22,0,0,0-.09.16v1.65l-5.57,3.22a1.21,1.21,0,0,0-.88.09.33.33,0,0,0,0,.63,1.25,1.25,0,0,0,1.1,0c.24-.14.28-.34.15-.5l5.48-3.17a.17.17,0,0,0,.09-.16V241l4.16-2.4c.22-.13.32-.28.22-.34A.76.76,0,0,0,379.07,238.39Z" transform="translate(-269.49 -218.4)"/><path class="cls-1" d="M311.31,272.23,299.55,279c-.23.13-.32.28-.22.34a.76.76,0,0,0,.59-.13l11.67-6.74a.18.18,0,0,0,.1-.16v-3.4l8.61-5a1.21,1.21,0,0,0,.88-.09c.3-.17.3-.45,0-.63a1.25,1.25,0,0,0-1.1,0c-.23.14-.28.34-.15.51l-8.52,4.92a.18.18,0,0,0-.1.16Z" transform="translate(-269.49 -218.4)"/><path class="cls-1" d="M305.23,268.72l-11.77,6.79c-.22.13-.32.29-.21.34a.75.75,0,0,0,.59-.12L305.51,269a.17.17,0,0,0,.09-.16v-6.92l5.58-3.22a1.19,1.19,0,0,0,.87-.09c.3-.17.3-.45,0-.63a1.25,1.25,0,0,0-1.1,0c-.23.14-.28.34-.15.51l-5.48,3.16a.18.18,0,0,0-.09.16Z" transform="translate(-269.49 -218.4)"/><g id="Chip"><path class="cls-5" d="M291.14,269.08a.71.71,0,0,0,.41.57l13.61,7.86a2.05,2.05,0,0,0,1,.24v2.16a2,2,0,0,1-1-.24l-13-7.52c-.55-.32-1-.51-1-1.14Z" transform="translate(-269.49 -218.4)"/><path class="cls-6" d="M307.16,277.51l13.6-7.86a.61.61,0,0,0,0-1.15l-13.61-7.85a2.18,2.18,0,0,0-2,0l-13.61,7.85a.61.61,0,0,0,0,1.15l13.61,7.86A2.2,2.2,0,0,0,307.16,277.51Z" transform="translate(-269.49 -218.4)"/><path class="cls-7" d="M321.17,269.11V271c0,.63-.44.82-1,1.14l-13,7.52a2,2,0,0,1-1,.24v-2.16a2.05,2.05,0,0,0,1-.24l13.6-7.86A.7.7,0,0,0,321.17,269.11Z" transform="translate(-269.49 -218.4)"/><path class="cls-8" d="M317.71,268.85a.39.39,0,0,1,.07.23.57.57,0,0,1-.33.48l-10.59,6.12a1.51,1.51,0,0,1-1.4,0l-10.6-6.12a.57.57,0,0,1-.33-.48.6.6,0,0,1,.33-.49l10.6-6.11a1.51,1.51,0,0,1,1.4,0l10.59,6.11A.65.65,0,0,1,317.71,268.85Zm-.33-.14Zm-22.55.46a.36.36,0,0,0,.17.15l10.6,6.12a1.23,1.23,0,0,0,1.12,0l10.59-6.12a.25.25,0,0,0,0-.49l-10.59-6.12a1.28,1.28,0,0,0-1.13,0L295,268.83c-.13.07-.2.16-.2.25A.16.16,0,0,0,294.83,269.17Z" transform="translate(-269.49 -218.4)"/><path class="cls-8" d="M313.59,269a.33.33,0,0,1,0,.13.34.34,0,0,1-.18.28l-7,4a.87.87,0,0,1-.67,0l-7-4a.3.3,0,0,1,0-.55l7-4a.75.75,0,0,1,.67,0l7,4A.47.47,0,0,1,313.59,269Zm-14.69.13,0,0,7,4a.65.65,0,0,0,.39,0l7-4,0,0,0,0-7-4a.45.45,0,0,0-.39,0h0l-7,4Z" transform="translate(-269.49 -218.4)"/></g></svg>