<?xml version="1.0" encoding="utf-8"?>
<!-- Generator: Adobe Illustrator 24.1.1, SVG Export Plug-In . SVG Version: 6.00 Build 0)  -->
<svg version="1.1" xmlns="http://www.w3.org/2000/svg" xmlns:xlink="http://www.w3.org/1999/xlink" x="0px" y="0px"
	 viewBox="0 0 292.4 202.5" style="enable-background:new 0 0 292.4 202.5;" xml:space="preserve">
<style type="text/css">
	.st0{display:none;}
	.st1{display:inline;}
	.st2{fill:#E0E0E0;}
	.st3{fill:#37474F;}
	.st4{fill:#455A64;}
	.st5{fill:#263238;}
	.st6{opacity:0.3;fill:#27DEBF;enable-background:new    ;}
	.st7{opacity:0.1;fill:#27DEBF;enable-background:new    ;}
	.st8{opacity:0.2;enable-background:new    ;}
	.st9{opacity:0.3;fill:#FFFFFF;enable-background:new    ;}
	.st10{opacity:0.2;}
	.st11{opacity:0.3;}
	.st12{opacity:0.7;}
	.st13{fill:#27DEBF;}
	.st14{opacity:0.7;fill:#27DEBF;enable-background:new    ;}
	.st15{opacity:0.55;fill:#FFFFFF;enable-background:new    ;}
	.st16{opacity:0.7;fill:#FFFFFF;enable-background:new    ;}
	.st17{opacity:0.9;fill:#FFFFFF;enable-background:new    ;}
	.st18{opacity:0.9;}
	.st19{fill:#FAFAFA;}
	.st20{opacity:0.3;enable-background:new    ;}
	.st21{opacity:0.15;enable-background:new    ;}
	.st22{fill:#F5F5F5;}
	.st23{display:inline;fill:#37474F;}
	.st24{display:inline;fill:#263238;}
	.st25{display:inline;fill:#455A64;}
	.st26{display:inline;opacity:0.3;fill:#FFFFFF;enable-background:new    ;}
	.st27{display:inline;fill:#27DEBF;}
</style>
<g id="Capa_5" class="st0">
	<g id="Shadows" class="st1">
		<path id="Shadow-2" class="st2" d="M197.5,194.4l90.3-52.2c2.2-1.3,2.2-3.4,0-4.7l-185-106.7c-2.5-1.3-5.5-1.3-8.1,0L4.5,83
			c-2.2,1.3-2.2,3.4,0,4.7l185,106.8C192,195.7,195,195.7,197.5,194.4z"/>
	</g>
</g>
<g id="Capa_1" class="st0">
	<g id="Character" class="st1">
		<path class="st3" d="M289.1,128.6c-0.3-0.5-0.8-0.9-1.3-1.2l-11.1-6.4v-2.1l11.1,6.4C289.3,126.1,289.8,127.4,289.1,128.6z"/>
		<path class="st4" d="M289.1,128.6c-0.1-0.1-0.1-0.2-0.2-0.3c0,0,0-0.1-0.1-0.1c-0.1-0.1-0.2-0.2-0.3-0.3c-0.1-0.1-0.2-0.2-0.3-0.2
			l0,0c-0.1-0.1-0.1-0.1-0.2-0.2l-0.3-0.2l-11.1-6.4c-8,4.6-27.5,15.9-47,27.1l-26.4,15.2l-23.1,13.3l-1.9,1.1l11.1,6.4
			c1.2,0.7,2.6,1,4,1c0.3,0,0.5,0,0.8,0c0.1,0,0.2,0,0.3,0c0.2,0,0.4,0,0.6-0.1c0.3,0,0.5-0.1,0.8-0.2c0.5-0.1,1-0.3,1.5-0.6
			l90.3-52.2c0.5-0.3,0.9-0.6,1.3-1.1c0-0.1,0.1-0.1,0.2-0.2l0,0l0,0c0.1-0.1,0.1-0.2,0.1-0.3s0.1-0.2,0.1-0.3s0-0.2,0-0.3v-0.1
			C289.4,129.3,289.3,128.9,289.1,128.6z M226.5,153.6l3.1-1.8l4-2.3c2.4-1.3,5.3-1.3,7.8-0.1c0.6,0.3,1,0.8,1.3,1.4
			c-0.3,0.7-0.9,1.3-1.6,1.6l-7.1,4.1c-1.4,0.7-2.9,1.1-4.5,1c-1.2,0-2.3-0.3-3.4-0.9c-0.6-0.3-1.1-0.8-1.4-1.4
			C225.3,154.5,225.8,154,226.5,153.6L226.5,153.6z"/>
		<path class="st5" d="M102.8,18.4c-1.2-0.7-2.6-1-4-1v2.2c1.4,0,2.8,0.3,4,1l11.1,6.4v-2.2L102.8,18.4z"/>
		<path class="st3" d="M98.7,17.4v2.2c-1.4,0-2.8,0.3-4,1L4.4,72.8c-0.5,0.3-1,0.7-1.3,1.2c-0.7-1.2-0.3-2.5,1.3-3.4l90.3-52.2
			C96,17.7,97.4,17.4,98.7,17.4z"/>
		<path class="st4" d="M102.8,20.6c-2.5-1.3-5.5-1.3-8.1,0L83.6,27l-11.7,6.8l-16.4,9.5l-5.6,3.1l-9.2,5.3l-16,9.2L4.4,72.8L4,73.1
			l-0.2,0.1c-0.1,0.1-0.2,0.1-0.2,0.2c-0.1,0.1-0.2,0.1-0.2,0.2l0,0c-0.1,0-0.1,0.1-0.1,0.2c-0.1,0.1-0.1,0.1-0.1,0.2l0,0
			c-0.2,0.3-0.3,0.6-0.3,1v0.1c0,0.1,0,0.2,0,0.3C3,76,3.3,76.5,3.8,76.9c0.2,0.2,0.5,0.4,0.7,0.5l11.1,6.4l1.9-1.1l7.4-4.3l16-9.2
			l9.2-5.3l5.5-3.2L72,51.2l11.7-6.8l30.2-17.5L102.8,20.6z M71.3,43.4c-0.1,0.1-0.3,0.2-0.4,0.3c-1.2,0.6-2.6,0.6-3.8,0
			c-0.2-0.1-0.3-0.2-0.4-0.3c0.1-0.1,0.3-0.2,0.4-0.3c1.2-0.6,2.6-0.6,3.8,0C71,43.2,71.1,43.3,71.3,43.4z M63.7,47.8
			c-0.2,0.2-0.3,0.3-0.5,0.4l-7.7,4.5L50,55.9l-5.9,3.4c-1,0.5-2.2,0.6-3.3,0.3c-0.2-0.1-0.4-0.1-0.6-0.3c-0.2-0.1-0.3-0.2-0.4-0.3
			c0.2-0.2,0.3-0.3,0.5-0.4l0.5-0.3L50,53l5.5-3.2l3.9-2.3c1.2-0.6,2.7-0.7,3.9-0.1C63.4,47.5,63.5,47.6,63.7,47.8L63.7,47.8z"/>
		<path class="st6" d="M289.3,126.8c-0.1-0.2-0.2-0.4-0.3-0.6c-0.3-0.5-0.8-0.8-1.3-1.1l-11.1-6.4l-47-27.1l-26.4-15.2l-100.4-58
			c-2.5-1.3-5.5-1.3-8.1,0l-11.1,6.4l-11.8,6.8l-16.4,9.5l-5.5,3.2l-9.2,5.3l-16,9.2L4.3,70.5l-0.4,0.3c-0.1,0.1-0.2,0.2-0.3,0.3
			l-0.3,0.2c-0.1,0.1-0.2,0.2-0.2,0.3l0,0C3,71.7,3,71.7,3,71.8l-0.1,0.1l0,0V72v0.1c0,0.1,0,0.1,0,0.2v0.1c0,0.1,0,0.2,0,0.3v2.2
			c0,0.1,0,0.2,0,0.3s0,0.2,0.1,0.3c0.3,0.7,0.9,1.3,1.6,1.7l173.7,100.4l0,0l11.1,6.4c1.2,0.7,2.6,1,4,1c0.3,0,0.5,0,0.8,0
			c0.1,0,0.2,0,0.3,0c0.2,0,0.4,0,0.6-0.1c0.3,0,0.5-0.1,0.8-0.2c0.5-0.1,1-0.3,1.5-0.6l90.3-52.2c0.5-0.3,0.9-0.6,1.3-1.1
			c0-0.1,0.1-0.1,0.2-0.2l0,0l0,0c0.1-0.1,0.1-0.2,0.1-0.3s0.1-0.2,0.1-0.3s0-0.2,0-0.3v-0.1c0-0.4,0-1.5,0-1.9l0,0v-0.1
			C289.3,127.4,289.3,127.1,289.3,126.8z M224.9,155.2c0.3-0.7,0.9-1.3,1.6-1.6l3.1-1.8l4-2.3c2.4-1.3,5.3-1.3,7.8-0.1
			c0.6,0.3,1,0.8,1.3,1.4c-0.3,0.7-0.9,1.3-1.6,1.6l-7.1,4.1c-1.4,0.7-2.9,1.1-4.5,1c-1.2,0-2.3-0.3-3.4-0.9
			C225.7,156.3,225.2,155.8,224.9,155.2L224.9,155.2z M67,43.1c1.2-0.6,2.6-0.6,3.8,0c0.2,0.1,0.3,0.2,0.4,0.3
			c-0.1,0.1-0.3,0.2-0.4,0.3c-1.2,0.6-2.6,0.6-3.8,0c-0.2-0.1-0.3-0.2-0.4-0.3C66.7,43.3,66.9,43.2,67,43.1z M40.2,58.6l0.5-0.3
			l9.2-5.3l5.5-3.2l3.9-2.3c1.2-0.6,2.7-0.7,3.9-0.1c0.2,0.1,0.3,0.2,0.4,0.3l0,0c-0.2,0.2-0.3,0.3-0.5,0.4l-7.7,4.4l-5.5,3.2
			L44,59.1c-1,0.5-2.2,0.6-3.3,0.3c-0.2-0.1-0.4-0.1-0.6-0.3c-0.2-0.1-0.3-0.2-0.4-0.3C39.8,58.8,40,58.7,40.2,58.6z"/>
		<path class="st7" d="M289.3,126.8c-0.1-0.2-0.2-0.4-0.3-0.6c-0.3-0.5-0.8-0.8-1.3-1.1l-11.1-6.4l-47-27.1l-26.4-15.2l-100.4-58
			c-2.5-1.3-5.5-1.3-8.1,0l-11.1,6.4l-11.8,6.8l-16.4,9.5l-5.5,3.2l-9.2,5.3l-16,9.2L4.3,70.5l-0.4,0.3c-0.1,0.1-0.2,0.2-0.3,0.3
			l-0.3,0.2c-0.1,0.1-0.2,0.2-0.2,0.3l0,0C3,71.7,3,71.7,3,71.8l-0.1,0.1l0,0V72v0.1c0,0.1,0,0.1,0,0.2v0.1c0,0.1,0,0.2,0,0.3v0.2
			c0,0.1,0,0.1,0,0.2l0,0v0.1v0.1l0,0l0,0c0,0.1,0,0.1,0.1,0.2c0,0.1,0.1,0.2,0.2,0.4c0,0.1,0.1,0.1,0.2,0.2c0,0.1,0.1,0.1,0.2,0.2
			c0,0.1,0.1,0.1,0.2,0.1l0,0l0.1,0.1c0.2,0.2,0.4,0.3,0.7,0.5l173.8,100.5l1.9,1.1l9.2,5.3c0.1,0.1,0.3,0.2,0.4,0.2l0.1,0.1
			l0.2,0.1l0,0c0.2,0.1,0.4,0.1,0.5,0.2l0,0c0.2,0.1,0.4,0.1,0.6,0.2l0,0h0.2c0.2,0,0.4,0.1,0.7,0.1h0.3h0.3h0.6c1.4,0,2.8-0.3,4-1
			l5.8-3.4l26.4-15.2l58.2-33.4c0.1-0.1,0.3-0.1,0.4-0.2c0.1,0,0.2-0.1,0.2-0.2l0.2-0.2c0.1-0.1,0.2-0.2,0.2-0.2l0.1-0.1
			c0.1-0.1,0.1-0.2,0.2-0.3c0-0.1,0.1-0.2,0.1-0.2c0-0.1,0.1-0.1,0.1-0.2c0-0.1,0-0.1,0-0.2v-0.1v-0.2l0,0v-0.1
			C289.4,127.2,289.3,127,289.3,126.8z M63.6,47.8c-0.2,0.2-0.3,0.3-0.5,0.4l-7.7,4.4l-5.5,3.2L44,59.2c-1,0.5-2.2,0.6-3.3,0.3
			c-0.2-0.1-0.4-0.1-0.6-0.3c-0.2-0.1-0.3-0.2-0.4-0.3c0.2-0.2,0.3-0.3,0.5-0.4l0.5-0.3l9.2-5.3l5.5-3.2l3.9-2.3
			c1.2-0.6,2.7-0.7,3.9-0.1C63.4,47.5,63.5,47.6,63.6,47.8L63.6,47.8z M70.8,43.8c-1.2,0.6-2.6,0.6-3.8,0c-0.2-0.1-0.3-0.2-0.4-0.3
			c0.1-0.1,0.3-0.3,0.4-0.3c1.2-0.6,2.6-0.6,3.8,0c0.2,0.1,0.3,0.2,0.4,0.3C71.1,43.6,71,43.7,70.8,43.8L70.8,43.8z M241.1,152.4
			l-7.1,4.1c-1.4,0.7-2.9,1.1-4.5,1c-1.2,0-2.3-0.3-3.4-0.9c-0.6-0.3-1.1-0.8-1.4-1.4c0.3-0.7,0.9-1.3,1.6-1.6l3.1-1.8l4-2.3
			c2.4-1.3,5.3-1.3,7.8-0.1c0.6,0.3,1,0.8,1.3,1.4C242.4,151.5,241.8,152,241.1,152.4z"/>
		<path class="st8" d="M289.4,129.7c-0.1,1-0.7,1.9-1.7,2.3l-90.3,52.2c-2.5,1.3-5.5,1.3-8.1,0L4.4,77.4c-0.9-0.4-1.6-1.3-1.7-2.3
			V73c0.1,1,0.8,1.8,1.7,2.2L189.3,182c2.5,1.3,5.5,1.3,8.1,0l90.3-52.2c0.9-0.4,1.5-1.2,1.7-2.2
			C289.4,128.1,289.4,129.3,289.4,129.7z"/>
		<polygon class="st9" points="83.6,24.8 74.4,30.1 74.4,115.6 83.6,120.9 		"/>
		<path class="st9" d="M94.8,18.3L94.8,18.3l-5.9,3.4V124l5.9,3.4V18.3z"/>
		<polygon class="st9" points="165.2,54.4 138.8,39.2 138.8,152.8 165.2,168 		"/>
		<path class="st9" d="M39.4,58.3c0,0.3,0.1,0.6,0.3,0.8c0.1,0.1,0.2,0.2,0.4,0.3c0.2,0.1,0.4,0.2,0.6,0.3v36.6l-16-9.2V58.8l16-9.2
			v7.2l-0.5,0.3C39.7,57.3,39.4,57.7,39.4,58.3z"/>
		<polygon class="st9" points="55.4,41 55.4,48.3 49.9,51.4 49.9,44.2 		"/>
		<polygon class="st9" points="49.9,55.8 55.4,52.6 55.4,104.7 49.9,101.5 		"/>
		<polygon class="st9" points="262,110.3 250.3,103.5 250.3,151.4 262,144.7 		"/>
		<path class="st9" d="M224.9,153.8c-0.1,0.3-0.1,0.6-0.1,0.9l0,0c0,0.2,0.1,0.3,0.1,0.5c0.3,0.6,0.8,1.1,1.4,1.4
			c1,0.6,2.2,0.8,3.4,0.9v5.9l-26.4,15.3V76.3l26.4,15.2v58.7l-3.1,1.8c-0.5,0.3-1,0.7-1.3,1.1C225,153.4,224.9,153.6,224.9,153.8z"
			/>
		<polygon class="st9" points="273.2,116.7 267.3,113.3 267.3,141.6 273.2,138.2 		"/>
		<polygon class="st9" points="122.3,143.3 128.2,146.7 128.2,33 122.3,29.6 		"/>
		<polygon class="st9" points="184.9,65.8 179.1,62.4 179.1,176 184.9,179.4 		"/>
		<path class="st4" d="M289.4,129.7c0-0.3,0-1.6,0-2.1c-0.1,1-0.8,1.8-1.7,2.2L197.4,182c-2.5,1.3-5.5,1.3-8.1,0l-11.1-6.4v2.2l0,0
			l11.1,6.4c2.5,1.3,5.5,1.3,8.1,0l90.3-52.2C288.7,131.6,289.3,130.7,289.4,129.7z"/>
		<path class="st3" d="M193.4,182.9c-1.4,0-2.8-0.3-4-1l-11.1-6.4v2.3l0,0l11.1,6.4c1.2,0.7,2.6,1,4,1V182.9z"/>
		<path class="st3" d="M2.7,72.9V75c0.1,1,0.7,1.9,1.7,2.3l11.1,6.4v-2.2l0,0L4.4,75.1C3.5,74.8,2.9,73.9,2.7,72.9z"/>
		<g class="st10">
			<path d="M64,47c0-0.4-0.3-0.8-0.7-1c-1.2-0.6-2.7-0.6-3.9,0.1l-3.9,2.3L50,51.6l-9.2,5.3l-0.5,0.3c-0.5,0.2-0.8,0.7-0.9,1.2
				c0,0.3,0,1.3,0,1.5c0.1,0.4,0.3,0.8,0.7,1c0.2,0.1,0.4,0.2,0.6,0.3c1.1,0.3,2.3,0.2,3.3-0.3l5.9-3.4l5.5-3.2l7.7-4.5
				c0.5-0.2,0.8-0.6,0.9-1.2C64,48.3,64,47.2,64,47z M63.7,47.8c-0.2,0.2-0.3,0.3-0.5,0.4l-7.7,4.5L50,55.9l-5.9,3.4
				c-1,0.5-2.2,0.6-3.3,0.3c-0.2-0.1-0.4-0.1-0.6-0.3c-0.2-0.1-0.3-0.2-0.4-0.3c0.2-0.2,0.3-0.3,0.5-0.4l0.5-0.3L50,53l5.5-3.2
				l3.9-2.3c1.2-0.6,2.7-0.7,3.9-0.1C63.4,47.5,63.5,47.6,63.7,47.8L63.7,47.8z"/>
			<path d="M70.9,41.6c-1.2-0.6-2.6-0.6-3.8,0c-0.4,0.2-0.7,0.6-0.8,1.1c0,0.3,0,1.3,0,1.5c0,0.5,0.3,0.9,0.8,1.1
				c1.2,0.6,2.6,0.6,3.8,0c0.4-0.2,0.7-0.6,0.8-1.1v-1.5C71.6,42.2,71.3,41.8,70.9,41.6z M70.9,43.7c-1.2,0.6-2.6,0.6-3.8,0
				c-0.2-0.1-0.3-0.2-0.4-0.3c0.1-0.1,0.3-0.2,0.4-0.3c1.2-0.6,2.6-0.6,3.8,0c0.2,0.1,0.3,0.2,0.4,0.3C71.2,43.6,71,43.7,70.9,43.7
				L70.9,43.7z"/>
		</g>
		<g class="st11">
			<path d="M63.9,46.7c0-0.1-0.1-0.2-0.1-0.3l-0.1-0.1l-0.1-0.1l-0.1-0.1L63.3,46c-1.2-0.6-2.7-0.6-3.9,0.1l-19.2,11
				c-0.5,0.2-0.8,0.7-0.9,1.2c0,0.3,0.1,0.6,0.3,0.8c0.2-0.2,0.3-0.3,0.5-0.4l0.5-0.3l9.2-5.3l5.5-3.2l3.9-2.3
				c1.2-0.6,2.7-0.7,3.9-0.1c0.2,0.1,0.3,0.2,0.4,0.3c0.2-0.2,0.3-0.5,0.3-0.8C64,46.9,64,46.8,63.9,46.7z"/>
			<path d="M71.6,42.4c0-0.1,0-0.1-0.1-0.2c-0.2-0.3-0.4-0.5-0.7-0.6c-1.2-0.6-2.6-0.6-3.8,0l-0.3,0.2L66.5,42
				c0,0.1-0.1,0.1-0.1,0.2c0,0.1-0.1,0.1-0.1,0.2c0,0.1-0.1,0.2-0.1,0.4l0,0v0.1c0.1,0.2,0.2,0.4,0.3,0.6c0.1-0.1,0.3-0.2,0.4-0.3
				c1.2-0.6,2.6-0.6,3.8,0c0.2,0.1,0.3,0.2,0.4,0.3c0.2-0.2,0.3-0.4,0.4-0.6v-0.2C71.6,42.5,71.6,42.5,71.6,42.4z"/>
		</g>
		<g class="st12">
			<path class="st13" d="M64,47c0,0.3-0.1,0.6-0.3,0.8c-0.1-0.1-0.3-0.2-0.4-0.3c-1.2-0.6-2.7-0.6-3.9,0.1l-3.9,2.3L50,53.1
				l-9.2,5.3l-0.5,0.3c-0.2,0.1-0.4,0.3-0.5,0.4c-0.2-0.2-0.3-0.5-0.3-0.8c0-0.5,0.4-1,0.9-1.2L59.3,46c1.2-0.6,2.7-0.7,3.9-0.1
				l0.2,0.1l0.1,0.1c0.1,0,0.1,0.1,0.1,0.1l0.1,0.1c0.1,0.1,0.1,0.2,0.1,0.3C64,46.8,64,46.9,64,47z"/>
			<path class="st13" d="M71.6,42.7v0.1c0,0.2-0.2,0.4-0.4,0.6c-0.1-0.1-0.3-0.2-0.4-0.3c-1.2-0.6-2.6-0.6-3.8,0
				c-0.2,0.1-0.3,0.2-0.4,0.3c-0.2-0.2-0.3-0.4-0.3-0.6v-0.1l0,0c0-0.1,0-0.2,0.1-0.4c0-0.1,0.1-0.1,0.1-0.2c0-0.1,0.1-0.1,0.1-0.2
				l0.2-0.2l0.3-0.2c1.2-0.6,2.6-0.6,3.8,0c0.3,0.1,0.5,0.4,0.7,0.6c0,0.1,0.1,0.1,0.1,0.2C71.6,42.5,71.6,42.6,71.6,42.7z"/>
		</g>
		<path class="st8" d="M242.6,149c-0.1-0.1-0.1-0.2-0.2-0.3c-0.3-0.3-0.6-0.6-1-0.8c-2.5-1.2-5.4-1.1-7.8,0.1l-7.1,4.1
			c-0.5,0.3-1,0.7-1.3,1.1c-0.1,0.2-0.2,0.4-0.3,0.6c-0.1,0.2-0.1,0.4-0.1,0.7v1.5c0.1,0.9,0.6,1.7,1.5,2.1c1,0.5,2.2,0.8,3.4,0.9
			c1.5,0.1,3.1-0.3,4.5-1l7.1-4.1c1-0.4,1.6-1.3,1.7-2.4c0-0.3,0-1.3,0-1.5C242.9,149.7,242.8,149.3,242.6,149z M242.4,151.3
			c-0.1,0.1-0.1,0.2-0.2,0.2c-0.3,0.3-0.7,0.6-1.1,0.9l-7.1,4.1c-0.3,0.2-0.6,0.3-0.9,0.4c-0.3,0.1-0.6,0.2-0.9,0.3
			c-0.9,0.2-1.7,0.3-2.6,0.3h-0.5c-0.3,0-0.6-0.1-0.9-0.1l-0.4-0.1l-0.4-0.1c-0.4-0.1-0.8-0.3-1.1-0.5c-0.3-0.2-0.7-0.4-0.9-0.7
			c-0.1-0.1-0.2-0.2-0.2-0.3s-0.1-0.1-0.1-0.2c0-0.1-0.1-0.1-0.1-0.2l0,0c0.3-0.7,0.9-1.3,1.6-1.6l3.1-1.8l4-2.3
			c2.4-1.3,5.3-1.3,7.8-0.1c0.6,0.3,1,0.8,1.3,1.4C242.7,151,242.5,151.1,242.4,151.3z"/>
		<path class="st14" d="M242.9,150c0,0.3-0.1,0.5-0.2,0.8c-0.3-0.6-0.8-1.1-1.3-1.4c-2.5-1.2-5.4-1.1-7.8,0.1l-3.9,2.3l-3.1,1.8
			c-0.7,0.4-1.2,0.9-1.6,1.6c-0.1-0.1-0.1-0.3-0.1-0.5l0,0c0-0.3,0-0.6,0.1-0.9c0.1-0.2,0.2-0.4,0.3-0.6c0.4-0.5,0.8-0.8,1.3-1.1
			l7.1-4.1c2.4-1.3,5.3-1.3,7.8-0.1c0.4,0.2,0.7,0.5,1,0.8c0.1,0.1,0.2,0.2,0.2,0.3C242.8,149.4,242.9,149.7,242.9,150z"/>
		<path class="st14" d="M242.9,150c0,0.3-0.1,0.5-0.2,0.8c-0.3-0.6-0.8-1.1-1.3-1.4c-2.5-1.2-5.4-1.1-7.8,0.1l-3.9,2.3l-3.1,1.8
			c-0.7,0.4-1.2,0.9-1.6,1.6c-0.1-0.1-0.1-0.3-0.1-0.5l0,0c0-0.3,0-0.6,0.1-0.9c0.1-0.2,0.2-0.4,0.3-0.6c0.4-0.5,0.8-0.8,1.3-1.1
			l7.1-4.1c2.4-1.3,5.3-1.3,7.8-0.1c0.4,0.2,0.7,0.5,1,0.8c0.1,0.1,0.2,0.2,0.2,0.3C242.8,149.4,242.9,149.7,242.9,150z"/>
	</g>
</g>
<g id="midTapa">
	<path class="st13" d="M287.8,125.4l-185-106.8c-2.5-1.3-5.5-1.3-8.1,0L4.4,70.8c-0.9,0.4-1.6,1.3-1.7,2.3v2.4
		c0.1,1,0.7,1.9,1.7,2.3l185,106.8c2.5,1.3,5.5,1.3,8.1,0l90.3-52.1c0.9-0.4,1.6-1.3,1.7-2.3v-2.4
		C289.4,126.7,288.8,125.8,287.8,125.4z"/>
	<path class="st15" d="M193.4,183.2v2.4c-1.4,0-2.8-0.3-4-1L4.4,77.8c-0.9-0.4-1.6-1.3-1.7-2.3v-2.4c0.1,1,0.7,1.9,1.7,2.3
		l184.9,106.8C190.6,182.9,192,183.2,193.4,183.2z"/>
	<path class="st16" d="M289.5,127.8v2.3c-0.1,1-0.7,1.9-1.7,2.3l-90.3,52.2c-1.2,0.7-2.6,1-4,1v-2.4c1.4,0,2.8-0.3,4-1l90.3-52.1
		C288.7,129.7,289.3,128.8,289.5,127.8z"/>
	<path class="st17" d="M197.5,182.2l90.3-52.1c2.2-1.3,2.2-3.4,0-4.7l-185-106.8c-2.5-1.3-5.5-1.3-8.1,0L4.4,70.8
		c-2.2,1.3-2.2,3.4,0,4.7l185,106.8C192,183.5,194.9,183.5,197.5,182.2z"/>
	<g class="st18">
		<path class="st13" d="M98.8,17.9c1.4,0,2.7,0.3,3.9,0.9l185,106.8c1.2,0.4,1.8,1.6,1.4,2.8c-0.2,0.7-0.8,1.2-1.4,1.4L197.4,182
			c-2.5,1.2-5.4,1.2-7.8,0L4.6,75.2c-1.2-0.4-1.8-1.6-1.4-2.8c0.2-0.7,0.8-1.2,1.4-1.4l90.4-52.2C96.1,18.2,97.5,17.9,98.8,17.9
			 M98.8,17.7c-1.4,0-2.8,0.3-4,1L4.5,70.8c-2.2,1.3-2.2,3.4,0,4.7l185,106.8c2.5,1.3,5.5,1.3,8.1,0l90.2-52.1
			c2.2-1.3,2.2-3.4,0-4.7l-185-106.8C101.6,18,100.2,17.6,98.8,17.7L98.8,17.7z"/>
	</g>
	<path class="st13" d="M29.7,60.6L9,72.6c-0.3,0.1-0.5,0.4-0.4,0.8c0.1,0.2,0.2,0.3,0.4,0.4l13.1,7.6c0.6,0.3,1.4,0.3,2,0l20.7-11.9
		c0.3-0.1,0.5-0.4,0.4-0.8c-0.1-0.2-0.2-0.3-0.4-0.4l-13.1-7.6C31.1,60.3,30.3,60.3,29.7,60.6z"/>
	<path class="st19" d="M34.4,72.7l-7.5,4.5h-3.7c0,0-0.1,0-0.1,0l-3.9,2.2l0.5,0.3l3.6-2.1h3.7H27l7.6-4.6c0.1-0.1,0.1-0.2,0.1-0.3
		C34.6,72.7,34.5,72.7,34.4,72.7L34.4,72.7L34.4,72.7z"/>
	<path class="st19" d="M9.8,74.1l3.6-2.1h3.7c0,0,0.1,0,0.1,0l7.6-4.4c0.1-0.1,0.1-0.2,0.1-0.3c-0.1-0.1-0.2-0.1-0.3-0.1
		c0,0,0,0,0,0l-7.5,4.3h-3.7c0,0-0.1,0-0.1,0l-3.9,2.3L9.8,74.1z"/>
	<path class="st19" d="M18.3,74.9H22h0.1l7.6-4.4c0.1-0.1,0.1-0.2,0.1-0.3c0,0,0,0,0,0c-0.1-0.1-0.2-0.2-0.3-0.1L22,74.5h-3.7
		c0,0-0.1,0-0.1,0l-3.9,2.3l0.5,0.3L18.3,74.9z"/>
	<path class="st19" d="M15.6,73.3h3.7c0,0,0.1,0,0.1,0l1.9-1.1c0.1-0.1,0.1-0.2,0.1-0.3c-0.1-0.1-0.2-0.1-0.3-0.1c0,0,0,0,0,0
		l-1.8,1.1h-3.7c0,0-0.1,0-0.1,0l-3.9,2.3l0.5,0.3L15.6,73.3z"/>
	<path class="st19" d="M25.2,67.1c0.2,0.1,0.3,0.2,0.2,0.4c0,0.1-0.1,0.2-0.2,0.2c-0.3,0.1-0.7,0.1-1,0c-0.2-0.1-0.3-0.2-0.2-0.4
		c0-0.1,0.1-0.2,0.2-0.2C24.6,67,24.9,67,25.2,67.1z"/>
	<path class="st19" d="M21.7,71.7c0.3,0.2,0.3,0.4,0,0.6c-0.3,0.1-0.7,0.1-1,0c-0.2-0.1-0.3-0.2-0.2-0.4c0-0.1,0.1-0.2,0.2-0.2
		C21.1,71.6,21.4,71.6,21.7,71.7z"/>
	<path class="st19" d="M30.1,70c0.2,0.1,0.3,0.2,0.2,0.4c0,0.1-0.1,0.2-0.2,0.2c-0.3,0.2-0.7,0.2-1,0c-0.2-0.1-0.3-0.2-0.2-0.4
		c0-0.1,0.1-0.2,0.2-0.2C29.4,69.8,29.8,69.8,30.1,70z"/>
	<polygon class="st13" points="53.4,89.4 57.2,91.6 88.2,74.2 84.4,72 	"/>
	<path class="st5" d="M176.1,61.1l-73.3-42.3c-2.5-1.3-5.5-1.3-8.1,0L10.2,67.6c-0.5,0.2-0.9,0.7-0.9,1.3v0.5c0,0.4,0.3,0.8,0.7,1
		c1.2,0.6,2.6,0.6,3.8-0.1l11.1-6.4c1.3-0.6,2.7-0.6,4,0l7.3,4.2c0.5,0.1,0.9,0.5,0.8,1c0,0.4-0.4,0.8-0.8,0.8l-7.3,4.2
		c-0.5,0.2-0.8,0.7-0.8,1.2v0.5c0,0.5,0.4,0.9,0.8,1.1l14.9,8.6c1.3,0.6,2.7,0.6,4,0l37.6-21.7c1.2-0.6,2.7-0.7,3.9-0.1
		c0.3,0.2,0.6,0.5,0.7,0.8c-0.1,0.4-0.4,0.8-0.8,1L47.8,89.4c-0.5,0.2-0.8,0.7-0.8,1.2v0.5c0,0.5,0.4,1,0.8,1.2l11.1,6.4
		c1.3,0.6,2.7,0.6,4,0l22.5-13c0.5-0.2,0.8-0.7,0.8-1.2V84c0-0.5-0.4-0.9-0.8-1.1l-2.2-1.3c-0.5-0.1-0.9-0.5-0.8-1
		c0-0.4,0.4-0.8,0.8-0.8l22.5-13c1.3-0.6,2.7-0.6,4,0l28.7,16.6c1.3,0.6,2.7,0.6,4,0L176,63.8c0.5-0.2,0.8-0.7,0.8-1.2v-0.5
		C176.8,61.7,176.5,61.3,176.1,61.1z M63.3,84.8c1-0.5,2.1-0.5,3.1,0c0.2,0.1,0.4,0.3,0.6,0.6c-0.1,0.2-0.3,0.4-0.5,0.6
		c-1,0.5-2.1,0.5-3.1,0c-0.2-0.1-0.4-0.3-0.6-0.6C62.9,85.1,63.1,84.9,63.3,84.8z M71,80.4c1-0.5,2.1-0.5,3.1,0
		c0.2,0.1,0.4,0.3,0.6,0.6c-0.1,0.2-0.3,0.4-0.6,0.6c-1,0.5-2.1,0.5-3.1,0c-0.2-0.1-0.4-0.3-0.6-0.6C70.6,80.7,70.8,80.5,71,80.4
		L71,80.4z M83.2,73.8c1-0.5,2.1-0.5,3.1,0c0.2,0.1,0.4,0.3,0.6,0.6c-0.1,0.2-0.3,0.4-0.6,0.6c-1,0.5-2.1,0.5-3.1,0
		c-0.2-0.1-0.4-0.3-0.6-0.6C82.7,74.1,82.9,73.9,83.2,73.8z M55.6,89.2c1-0.5,2.1-0.5,3.1,0c0.2,0.1,0.4,0.3,0.6,0.6
		c-0.1,0.2-0.3,0.4-0.6,0.6c-1,0.5-2.1,0.5-3.1,0c-0.2-0.1-0.4-0.3-0.6-0.6C55.2,89.6,55.4,89.4,55.6,89.2z"/>
	<path class="st4" d="M176.1,61.1l-73.3-42.3c-2.5-1.3-5.5-1.3-8.1,0L10.2,67.6C9.1,68.2,9,69.2,10,69.8c1.2,0.6,2.6,0.6,3.8-0.1
		l11.1-6.4c1.3-0.6,2.7-0.6,4,0l7.3,4.2c0.6,0.2,1,0.9,0.8,1.6c-0.1,0.4-0.4,0.6-0.8,0.8l-7.3,4.2c-0.6,0.2-1,0.9-0.8,1.6
		c0.1,0.4,0.4,0.6,0.8,0.8L43.8,85c1.3,0.6,2.7,0.6,4,0l37.6-21.7c1.2-0.6,2.7-0.7,3.9-0.1c1,0.6,1,1.6-0.1,2.3L47.8,89.4
		c-0.6,0.2-1,0.9-0.8,1.6c0.1,0.4,0.4,0.6,0.8,0.8l11.1,6.5c1.3,0.6,2.7,0.6,4,0l22.5-13c0.6-0.2,1-0.9,0.8-1.6
		c-0.1-0.4-0.4-0.6-0.8-0.8l-2.2-1.3c-0.6-0.2-1-0.9-0.8-1.6c0.1-0.4,0.4-0.6,0.8-0.8l22.5-13c1.3-0.6,2.7-0.6,4,0l28.7,16.6
		c1.3,0.6,2.7,0.6,4,0L176,63.4c0.6-0.2,1-0.9,0.7-1.6C176.7,61.5,176.4,61.2,176.1,61.1z M58.7,90.4c-1,0.5-2.1,0.5-3.1,0
		c-0.5-0.2-0.7-0.7-0.6-1.2c0.1-0.3,0.3-0.5,0.6-0.6c1-0.5,2.1-0.5,3.1,0c0.5,0.2,0.8,0.7,0.6,1.2C59.2,90,59,90.3,58.7,90.4z
		 M66.4,85.9c-1,0.5-2.1,0.5-3.1,0c-0.5-0.2-0.8-0.7-0.6-1.2c0.1-0.3,0.3-0.5,0.6-0.6c1-0.5,2.1-0.5,3.1,0c0.5,0.2,0.8,0.7,0.6,1.2
		C66.9,85.6,66.7,85.8,66.4,85.9z M74.1,81.5c-1,0.5-2.1,0.5-3.1,0c-0.5-0.2-0.7-0.7-0.6-1.2c0.1-0.3,0.3-0.5,0.6-0.6
		c1-0.5,2.1-0.5,3.1,0c0.4,0.3,0.5,0.9,0.3,1.4C74.3,81.2,74.2,81.3,74.1,81.5L74.1,81.5z M86.2,74.9c-1,0.5-2.1,0.5-3.1,0
		c-0.5-0.2-0.7-0.7-0.6-1.2c0.1-0.3,0.3-0.5,0.6-0.6c1-0.5,2.1-0.5,3.1,0c0.5,0.2,0.7,0.8,0.5,1.2C86.6,74.6,86.4,74.8,86.2,74.9
		L86.2,74.9z"/>
	<path class="st13" d="M112.4,28.9c0,0.2-0.2,0.4-0.4,0.5l-48.2,28c-0.3,0.1-0.6,0.2-0.9,0.2v1.1c0.3,0,0.6-0.1,0.9-0.2l47.6-27.7
		c0.5-0.3,0.9-0.4,0.9-1L112.4,28.9z"/>
	<path class="st20" d="M112.4,28.9c0,0.2-0.2,0.4-0.4,0.5l-48.2,28c-0.3,0.1-0.6,0.2-0.9,0.2v1.1c0.3,0,0.6-0.1,0.9-0.2l47.6-27.7
		c0.5-0.3,0.9-0.4,0.9-1L112.4,28.9z"/>
	<path class="st13" d="M62.1,57.4l-12.4-7.1c-0.3-0.1-0.4-0.5-0.3-0.7c0.1-0.1,0.2-0.2,0.3-0.3l48.2-28c0.6-0.3,1.2-0.3,1.8,0
		l12.4,7.1c0.3,0.1,0.4,0.4,0.3,0.7c-0.1,0.2-0.2,0.3-0.3,0.3l-48.2,28C63.3,57.7,62.7,57.7,62.1,57.4z"/>
	<path class="st13" d="M49.3,49.7v0.9c0,0.6,0.4,0.7,0.9,1l11.8,6.8c0.3,0.1,0.6,0.2,0.9,0.2v-1.1c-0.3,0-0.6-0.1-0.9-0.2l-12.4-7.1
		C49.5,50.1,49.4,49.9,49.3,49.7z"/>
	<path class="st21" d="M49.3,49.7v0.9c0,0.6,0.4,0.7,0.9,1l11.8,6.8c0.3,0.1,0.6,0.2,0.9,0.2v-1.1c-0.3,0-0.6-0.1-0.9-0.2l-12.4-7.1
		C49.5,50.1,49.4,49.9,49.3,49.7z"/>
	<path class="st22" d="M52.7,49.3l45.4-26.4c0.4-0.2,0.9-0.2,1.3,0l9.6,5.6c0.2,0.1,0.3,0.3,0.3,0.4c0,0.2-0.1,0.4-0.3,0.4
		L63.6,55.7c-0.4,0.2-0.9,0.2-1.3,0l-9.6-5.6c-0.2-0.1-0.3-0.3-0.3-0.4c0-0.1,0-0.1,0.1-0.2C52.5,49.4,52.6,49.3,52.7,49.3z
		 M109.1,28.9c0-0.1-0.1-0.1-0.2-0.2l-9.6-5.5c-0.3-0.1-0.7-0.1-1,0L52.9,49.5l0,0c-0.1,0.1-0.2,0.1-0.2,0.2c0,0.1,0.1,0.2,0.2,0.2
		l9.6,5.6c0.3,0.2,0.7,0.2,1,0l45.4-26.4c0.1,0,0.1-0.1,0.1-0.1C109.1,28.9,109.1,28.9,109.1,28.9z"/>
	<path class="st22" d="M56.4,49.5L98.5,25c0.2-0.1,0.4-0.1,0.6,0l6.4,3.6c0.1,0,0.2,0.1,0.2,0.3c0,0.1-0.1,0.2-0.2,0.3L63.3,53.6
		c-0.2,0.1-0.4,0.1-0.6,0L56.4,50c-0.1,0-0.2-0.1-0.2-0.3c0,0,0-0.1,0-0.1C56.2,49.6,56.3,49.5,56.4,49.5z M105.4,28.9L99,25.2l0,0
		c-0.1-0.1-0.2-0.1-0.4,0L56.5,49.7l0,0l0,0l6.3,3.6c0.1,0,0.2,0,0.4,0L105.4,28.9L105.4,28.9z"/>
</g>
<g id="marco" class="st0">
	<path class="st23" d="M289.2,115.8L104.2,9.1c-3.4-1.8-7.5-1.8-10.9,0L3,61.2C1.2,62.1,0,63.9,0,66v8.7c0.1,2,1.2,3.9,3.1,4.8
		l185,106.8c3.4,1.8,7.5,1.8,10.9,0l90.3-52.2c1.8-0.9,3-2.7,3.1-4.7v-8.7C292.2,118.5,291,116.7,289.2,115.8z M94.8,20.2
		c2.5-1.3,5.5-1.3,8.1,0L284.3,125l-86.8,50.1c-2.5,1.3-5.5,1.3-8.1,0L8,70.3L94.8,20.2z"/>
	<path class="st24" d="M193.4,176c-1.4,0-2.8-0.3-4-1L8,70.3l17-9.8l-9.9-6.3L3,61.2C1.2,62.1,0,64,0,66v8.7c0.1,2,1.2,3.9,3.1,4.8
		l185,106.8c1.7,0.9,3.5,1.4,5.4,1.3l0,0L193.4,176z"/>
	<path class="st25" d="M289.2,115.8L104.2,9.1c-3.4-1.8-7.5-1.8-10.9,0L3,61.2c-2.6,1.2-3.8,4.3-2.6,6.9C1,69.3,1.9,70.2,3,70.7
		l2.1,1.2L188,177.5c3.4,1.8,7.5,1.8,10.9,0l88.2-50.9l2.1-1.2c2.6-1.2,3.8-4.3,2.6-6.9C291.3,117.3,290.4,116.4,289.2,115.8
		L289.2,115.8z M197.5,175.1c-2.5,1.3-5.5,1.3-8.1,0L8,70.3l86.8-50.1c2.5-1.3,5.5-1.3,8.1,0L284.3,125L197.5,175.1z"/>
	<path class="st24" d="M287.8,122.9l-3.5,2L102.9,20.2c-2.5-1.3-5.5-1.3-8.1,0L8,70.3l-3.5-2.1c-2.2-1.3-2.2-3.4,0-4.6l90.3-52.1
		c2.5-1.3,5.5-1.3,8.1,0l185,106.8C290,119.5,290,121.6,287.8,122.9z"/>
	<path class="st23" d="M98.8,19.2v-8.7c-1.4,0-2.8,0.3-4,1L4.5,63.6c-2.2,1.3-2.2,3.4,0,4.6L8,70.3l86.8-50.1
		C96,19.6,97.4,19.2,98.8,19.2z"/>
</g>
<g id="tapa" class="st0">
	<path class="st23" d="M289.2,116L104.2,9.2c-3.4-1.8-7.5-1.8-10.9,0L3.1,61.3C1.2,62.2,0.1,64,0,66v2.9c0.1,2,1.3,3.8,3.1,4.8
		l2.1,1.2L188,180.4c0.4,0.2,0.8,0.4,1.2,0.6l0.4,0.1l0.3,0.1l0.6,0.2l0.7,0.1l0.7,0.1c0.5,0.1,1.1,0.1,1.6,0.1
		c1.9,0,3.8-0.4,5.4-1.3l88.2-50.9l2.1-1.2c1.8-0.9,3-2.7,3.1-4.7v-2.9C292.2,118.7,291,116.9,289.2,116z M36.7,65.2l3-1.8
		c3.8-1.9,8.3-1.9,12.1,0l22,12.7c0.2,0.1,0.4,0.3,0.6,0.4l0.2,0.2c0.5,0.4,1,0.9,1.3,1.5l0,0c0,0,0,0.1-0.1,0.1
		c-0.5,0.8-1.2,1.5-2.1,2l-3,1.8C67,84,62.5,84,58.7,82l-22-12.7c-0.3-0.2-0.5-0.3-0.7-0.5c-0.1-0.1-0.2-0.2-0.3-0.3
		c-0.1-0.1-0.2-0.1-0.3-0.2c-0.3-0.3-0.6-0.6-0.8-1l-0.1-0.1l0,0C35.1,66.4,35.8,65.7,36.7,65.2z"/>
	<path class="st24" d="M193.3,179v2.9c-1.9,0-3.7-0.4-5.3-1.3L5.2,74.9l-2.1-1.2c-1.8-0.9-3-2.7-3.1-4.8V66c0.1,2,1.3,3.8,3.1,4.8
		L5.2,72L188,177.6C189.6,178.5,191.4,179,193.3,179z"/>
	<path class="st25" d="M289.2,116L104.2,9.2c-3.4-1.8-7.5-1.8-10.9,0L3.1,61.3c-2.6,1.2-3.8,4.3-2.6,6.9c0.5,1.2,1.4,2.1,2.6,2.6
		L5.2,72L188,177.6c0.4,0.2,0.8,0.4,1.2,0.6l0,0c0.2,0.1,0.3,0.1,0.5,0.2h0.1c0.1,0,0.1,0,0.2,0c0.1,0.1,0.3,0.1,0.5,0.1l0.3,0.1
		h0.1l0.4,0.1l0.6,0.1l0.7,0.1h0h0.5h0.4c1.9,0,3.8-0.4,5.4-1.3l88.2-50.9l2.1-1.2c2.6-1.2,3.8-4.3,2.6-6.9
		c-0.5-1.2-1.4-2.1-2.6-2.6L289.2,116z M76.3,77c0,0,0,0.1,0,0.2c-0.1,0.3-0.2,0.7-0.3,1l0,0c0,0,0,0.1-0.1,0.1
		c-0.5,0.8-1.2,1.5-2.1,2l-3,1.8c-3.8,1.9-8.3,1.9-12.1,0l-22-12.7c-0.3-0.2-0.5-0.3-0.7-0.5c-0.1-0.1-0.2-0.2-0.3-0.3
		c-0.1-0.1-0.2-0.1-0.3-0.2c-0.3-0.3-0.6-0.6-0.8-1l-0.1-0.1l0,0c-0.2-0.3-0.3-0.6-0.3-1c0-0.1,0-0.1,0-0.2
		c-0.1-0.6,0.1-1.2,0.3-1.7c0.1-0.2,0.2-0.3,0.3-0.5c0.5-0.7,1.1-1.2,1.9-1.6l3-1.8c3.8-1.9,8.3-1.9,12.1,0l22,12.7
		C75.6,74.3,76.5,75.7,76.3,77z"/>
	<path class="st26" d="M199,175.7c-3.5,2-7.8,2-11.4,0L5.2,72L188,177.6c0.4,0.2,0.8,0.4,1.2,0.6l0,0c0.2,0.1,0.3,0.1,0.5,0.2h0.1
		c0.1,0,0.1,0,0.2,0c0.1,0.1,0.3,0.1,0.5,0.1l0.3,0.1h0.1l0.4,0.1l0.6,0.1l0.7,0.1h0h0.5h0.4c1.9,0,3.8-0.4,5.4-1.3l88.2-50.9
		L199,175.7z"/>
	<path class="st27" d="M212.1,151.4l36.3-20.9c1.4-0.7,3-0.7,4.3,0l2.2,1.3c0.7,0.2,1.1,1,0.8,1.7c-0.1,0.4-0.4,0.7-0.8,0.8
		l-36.3,21c-1.4,0.7-3,0.7-4.3,0l-2.2-1.3c-0.7-0.2-1.1-0.9-0.9-1.6C211.3,151.8,211.7,151.5,212.1,151.4z"/>
	<path class="st24" d="M76.3,77c0,0,0,0.1,0,0.2c-0.1,0.3-0.2,0.7-0.3,1c-0.3-0.6-0.8-1.1-1.3-1.5l-0.2-0.2
		c-0.2-0.1-0.4-0.3-0.6-0.4L51.9,63.4c-3.8-1.9-8.3-1.9-12.1,0l-3,1.8c-0.9,0.5-1.6,1.2-2.1,2.1c-0.2-0.3-0.3-0.6-0.3-1
		c0-0.1,0-0.1,0-0.2c-0.1-0.6,0.1-1.2,0.3-1.7c0.1-0.2,0.2-0.3,0.3-0.5c0.5-0.7,1.1-1.2,1.9-1.6l3-1.8c3.8-1.9,8.3-1.9,12.1,0
		l22,12.7C75.6,74.3,76.5,75.7,76.3,77z"/>
	<path class="st23" d="M45.8,59.1c-2.1,0-4.2,0.5-6,1.4l-3,1.8c-0.8,0.4-1.4,1-2,1.6c-0.1,0.1-0.2,0.3-0.3,0.5
		c-0.3,0.5-0.4,1.1-0.3,1.7c0,0.1,0,0.1,0,0.2c0.1,0.4,0.2,0.7,0.3,1c0.5-0.9,1.3-1.6,2.1-2.1l3-1.8c1.8-1,3.9-1.5,6-1.4L45.8,59.1z
		"/>
</g>
</svg>
