<svg id="Character" xmlns="http://www.w3.org/2000/svg" viewBox="0 0 58.58 34.77"><defs><style>.cls-1{fill:#27debf;}.cls-2{fill:#fff;opacity:0.7;}.cls-3{opacity:0.2;}.cls-4{fill:#37474f;}.cls-5{fill:#455a64;}.cls-6{fill:#263238;}</style></defs><title>porta sim</title><path class="cls-1" d="M138.65,247.7,121.75,238a2.18,2.18,0,0,0-2,0L84.8,258.12v1.12l18.92,10.93L138.65,250a.68.68,0,0,0,.42-.57v-1.13A.73.73,0,0,0,138.65,247.7Zm-49.06,11,9.33-5.4a2.33,2.33,0,0,1,2,0l1.77,1a2.22,2.22,0,0,0,2,0l5.55-3.21a2.25,2.25,0,0,1,2,0l9.34,5.39,0,0,0,0-16.91,9.75a2.16,2.16,0,0,1-2,0L89.59,258.7l0,0Zm20.81-12,9.35-5.39a2.22,2.22,0,0,1,2,0l13.12,7.57,0,0,0,0-9.34,5.38a2.16,2.16,0,0,1-2,0l-13.13-7.57,0,0Z" transform="translate(-80.49 -237.7)"/><path class="cls-1" d="M138.65,247.7,121.75,238a2.18,2.18,0,0,0-2,0L84.8,258.12,103.72,269l34.93-20.17a.71.71,0,0,0,.42-.58A.73.73,0,0,0,138.65,247.7Zm-3.77,1.17-9.34,5.38a2.16,2.16,0,0,1-2,0l-13.13-7.57,0,0,0,0,9.35-5.39a2.22,2.22,0,0,1,2,0l13.12,7.57,0,0Zm-13.24,7.65-16.91,9.75a2.16,2.16,0,0,1-2,0L89.59,258.7l0,0,0,0,9.33-5.4a2.33,2.33,0,0,1,2,0l1.77,1a2.22,2.22,0,0,0,2,0l5.55-3.21a2.25,2.25,0,0,1,2,0l9.34,5.39,0,0Z" transform="translate(-80.49 -237.7)"/><path class="cls-2" d="M138.65,247.7,121.75,238a2.18,2.18,0,0,0-2,0L84.8,258.12,103.72,269l34.93-20.17a.71.71,0,0,0,.42-.58A.73.73,0,0,0,138.65,247.7Zm-3.77,1.17-9.34,5.38a2.16,2.16,0,0,1-2,0l-13.13-7.57,0,0,0,0,9.35-5.39a2.22,2.22,0,0,1,2,0l13.12,7.57,0,0Zm-13.24,7.65-16.91,9.75a2.16,2.16,0,0,1-2,0L89.59,258.7l0,0,0,0,9.33-5.4a2.33,2.33,0,0,1,2,0l1.77,1a2.22,2.22,0,0,0,2,0l5.55-3.21a2.25,2.25,0,0,1,2,0l9.34,5.39,0,0Z" transform="translate(-80.49 -237.7)"/><path class="cls-1" d="M121.67,256.5l0,0-9.34-5.39a2.25,2.25,0,0,0-2,0l-5.55,3.21a2.22,2.22,0,0,1-2,0l-1.77-1a2.33,2.33,0,0,0-2,0l-9.33,5.4,0,0c-.52-.32-.51-.83,0-1.15l9.33-5.38a2.21,2.21,0,0,1,2,0l1.77,1a2.16,2.16,0,0,0,2,0l5.55-3.2a2.25,2.25,0,0,1,2,0l9.34,5.39A.61.61,0,0,1,121.67,256.5Z" transform="translate(-80.49 -237.7)"/><path class="cls-1" d="M134.92,248.85l0,0-13.12-7.57a2.22,2.22,0,0,0-2,0l-9.35,5.39,0,0a.61.61,0,0,1,0-1.15l9.35-5.38a2.16,2.16,0,0,1,2,0l13.12,7.57A.62.62,0,0,1,134.92,248.85Z" transform="translate(-80.49 -237.7)"/><path class="cls-3" d="M103.72,253.41a1.93,1.93,0,0,1-1-.25l-1.77-1a2,2,0,0,0-1-.25V253a2.21,2.21,0,0,1,1,.23l1.77,1a2,2,0,0,0,1,.24Z" transform="translate(-80.49 -237.7)"/><path class="cls-3" d="M111.29,250.84a2.07,2.07,0,0,1,1,.24l9.34,5.39,0,0a.61.61,0,0,0,0-1.15L112.3,250a2.07,2.07,0,0,0-1-.24Z" transform="translate(-80.49 -237.7)"/><path class="cls-3" d="M134.88,247.7l-13.12-7.57a2.1,2.1,0,0,0-1.1-.24V241a2,2,0,0,1,1.1.23l13.12,7.57,0,0A.62.62,0,0,0,134.88,247.7Z" transform="translate(-80.49 -237.7)"/><path class="cls-4" d="M105,270.11a.71.71,0,0,0-.4-.56L83.92,257.61a2.18,2.18,0,0,0-2,0l-1,.57a.67.67,0,0,0-.41.56v1a.67.67,0,0,0,.41.55l20.69,12a2.22,2.22,0,0,0,2,0l1-.57a.68.68,0,0,0,.4-.56Z" transform="translate(-80.49 -237.7)"/><path class="cls-5" d="M104.61,269.55,83.92,257.61a2.18,2.18,0,0,0-2,0l-1,.57a.61.61,0,0,0,0,1.16l20.69,12a2.22,2.22,0,0,0,2,0l1-.57A.62.62,0,0,0,104.61,269.55Z" transform="translate(-80.49 -237.7)"/><path class="cls-6" d="M102.61,271.53v.94a2,2,0,0,1-1-.24L80.91,260.29a.7.7,0,0,1-.4-.56c0-.15,0-.63,0-.88a.71.71,0,0,0,.4.49l20.69,12A2,2,0,0,0,102.61,271.53Z" transform="translate(-80.49 -237.7)"/></svg>