<svg xmlns="http://www.w3.org/2000/svg" xmlns:xlink="http://www.w3.org/1999/xlink" viewBox="0 0 2823.48 2254.42"><defs><style>.cls-1{fill:none;}.cls-2{fill:#e1e5f0;}.cls-3{fill:#e83665;}.cls-4{fill:#b0b8cf;}.cls-5{fill:#9ea9c9;}.cls-6{fill:#f96080;}.cls-7{fill:#a5aab6;}.cls-8{fill:#c8cde1;}.cls-9{fill:#8fabfd;}.cls-10{fill:#60c365;}.cls-11{fill:#f7f8fd;}.cls-12{fill:#dcddfa;}.cls-13{fill:#7ae65d;}.cls-14{fill:#6f93f0;}.cls-15{fill:#fefefe;}.cls-16{fill:#cc134c;}.cls-17{fill:#9398ad;}.cls-18{isolation:isolate;}.cls-19{fill:#4e344e;}.cls-20{clip-path:url(#clip-path);}.cls-21{fill:#1b3550;}.cls-22{fill:#865986;}.cls-23{clip-path:url(#clip-path-2);}.cls-24{fill:#593b59;}.cls-25{fill:#563956;}.cls-26{fill:#533753;}.cls-27{fill:#503550;}.cls-28{fill:#1a4e68;}.cls-29{fill:#246c90;}.cls-30{fill:#1e5b7a;}.cls-31{clip-path:url(#clip-path-3);}.cls-32{fill:#1a4d66;}.cls-33{clip-path:url(#clip-path-4);}.cls-34{fill:#1b506a;}.cls-35{clip-path:url(#clip-path-5);}.cls-36{fill:#224365;}.cls-37{fill:#214162;}.cls-38{fill:#203f5f;}.cls-39{fill:#2d86b2;}.cls-40{clip-path:url(#clip-path-6);}.cls-41{fill:#2d5986;}.cls-42{clip-path:url(#clip-path-7);}.cls-43{fill:#1c3753;}.cls-44{fill:#1d3956;}.cls-45{fill:#1e3b59;}.cls-46{fill:#1f3d5c;}.cls-47{clip-path:url(#clip-path-8);}</style><clipPath id="clip-path"><path class="cls-1" d="M1784.88,607.92l-22.79-12.4c5.32-29.13,10.62-52.58,10.67-81l22.8,12.4C1795.5,555.34,1790.2,578.79,1784.88,607.92Z"/></clipPath><clipPath id="clip-path-2"><path class="cls-1" d="M1747.94,681.22l-22.79-12.4c100.13-116.24,132-274,84.88-403.57l22.8,12.4C1879.91,407.26,1848.07,565,1747.94,681.22Z"/></clipPath><clipPath id="clip-path-3"><path class="cls-1" d="M1638.16,265.4,1661,277.8C1744,323,1799.21,414.71,1795.56,527l-22.8-12.4C1776.42,402.31,1721.17,310.56,1638.16,265.4Z"/></clipPath><clipPath id="clip-path-4"><path class="cls-1" d="M1322.82,867.45l-22.8-12.4a155.32,155.32,0,0,1-16.93-10.59l22.79,12.4A155.46,155.46,0,0,0,1322.82,867.45Z"/></clipPath><clipPath id="clip-path-5"><path class="cls-1" d="M1653.25,203.47l22.79,12.4c-48.66-26.47-106.87-37.54-169.55-28.73l-22.79-12.4C1546.38,165.93,1604.58,177,1653.25,203.47Z"/></clipPath><clipPath id="clip-path-6"><path class="cls-1" d="M1227.32,686.28l-22.8-12.4c-15.69-43.21-26.12-87.14-26-138.24l22.79,12.4C1201.19,599.13,1211.62,643.07,1227.32,686.28Z"/></clipPath><clipPath id="clip-path-7"><path class="cls-1" d="M1201.28,548l-22.79-12.4c5.58-171.06,137.34-331.48,295.15-359.33,3.37-.58,6.71-1.1,10.06-1.57l22.79,12.4c-3.35.47-6.69,1-10.06,1.57C1338.63,216.56,1206.86,377,1201.28,548Z"/></clipPath><clipPath id="clip-path-8"><path class="cls-1" d="M1269.11,833.65l-22.79-12.4c-126-101.48-162.47-295-83.27-465.07l22.79,12.4C1106.64,538.64,1143.1,732.16,1269.11,833.65Z"/></clipPath></defs><g id="Capa_2" data-name="Capa 2"><g id="Capa_1-2" data-name="Capa 1"><path class="cls-2" d="M1.42,2012.23c-6-37.56,7.84-70.68,23.92-103,82-164.61,164.46-329,246.26-493.65q55.86-112.45,109.62-226c18.56-39.39,46.17-61,90.44-69.75,173.9-34.39,347.13-72.18,520.62-108.6,4.22-.89,8.68-.64,13-.92,38.46,60.21,90.13,109.53,135.89,163.65q92.94,109.92,191,215.43c30.76,33,55.14,72.36,93.38,98.31l-.24-.19,6.18,7.24-.19-.28c-.32,6.26,1.93,10.84,8.3,12.73l31.25,46-13.42.19Q1213,1468.2,968.56,1382.93c-73.25-25.51-73.3-25.36-100,46.88a28.69,28.69,0,0,1-2.54,6c-15.42,23.22-7,33.15,18.07,41,100.51,31.43,200.46,64.65,300.52,97.47,88.53,29,176.4,60.2,266.65,83.8q-3.3,35.45-6.61,70.89c-4,41.87-8.29,83.71-11.9,125.61-5,58.09-9.07,116.28-14.43,174.34-2.17,23.49,6.61,27.59,27.67,21.33,53.89-16,108.26-30.41,162.29-46Q1807.7,1946.87,2007,1889l91.1-22c23.2,5.08,46.59,9.47,69.57,15.37,108.37,27.85,216.83,55.34,324.74,84.85,22.67,6.19,26.4-4.28,30.15-20.68,7.95-34.71,6.71-69.23-7.94-101.49-28.09-61.87-36.54-126.4-31.38-193.4,44.48-1.75,88.18,6.69,132.25,10.21,7.39.59,19,4.21,15.18-7.82-11.17-34.93-23-69.89-42.07-101.57-2.11-3.5-9.74-5.57-14.58-5.21-28.41,2.12-56-4.49-83.91-7,3.54-39-9.9-75-20.68-111.13-12.52-42-16.29-82.7,6.8-122.41,4.36-7.51,6.62-14.75,3.61-24.48-11.37-36.77-25.86-67.91-71-73.72-28.76-3.7-56.76-13.67-84.93-21.44q-153.19-42.21-306.27-84.84c7.93-14.61,25.94-21.67,29.59-39.49,135.73,36.63,271.56,72.88,407.11,110.16,33.44,9.2,48.95,37.15,61.29,67q147.28,356,294.57,712c7.84,19,14.82,38.45,12.93,59.68-39.58,58.18-68.74,73.92-115.26,62-104.81-27-209.32-55.22-314.49-80.72-98.58-23.9-195.57-54.27-295.43-73-7.56.47-15.48-.38-22.61,1.63-144.69,40.7-289.21,82-433.94,122.58-71.93,20.15-142.18,46.54-216.2,59-9.58-1.64-19.44-2.33-28.7-5.07-182-53.81-363.78-108.72-546.19-161.3-47.59-13.72-93.3-36.24-144.43-36.26-5.36.48-10.94.19-16.06,1.56-188.11,50.35-376.35,100.2-564.12,151.77-46.18,12.69-83.08,5.61-111.12-34.57C11.14,2014.21,7.49,2011.41,1.42,2012.23Zm775.87-340c11.84-60,42.3-113.5,60.21-171.37,3-9.64,16.06-19.56,6.8-28.95-8.4-8.5-20.69,1.54-30.46,4q-246.9,62.43-493.26,126.92c-30.87,8.13-64.53,8.44-91.62,28.88-12.62-1.21-15.59,7.83-20.1,17.07q-72.31,148.14-145.55,295.84c-9.05,18.26-17.61,36.4-1.88,54.48,14.4,16.55,32.72,12.44,51.38,7.43q294-78.91,588.12-157.2c24.73,3.13,49.47,5.53,73.61,12.79q165.3,49.71,330.88,98.49c54.42,16.13,108.92,32,165.5,48.56-3.32-36.48-10.62-67-22.74-96.13-21.79-52.41-43.32-66.11-99.86-65.43-40.67.48-79,14-118.39,21.3-89.43,16.67-133-3.44-176.6-83.72C831.56,1745.15,811.61,1703.86,777.29,1672.24Zm229.48-614.32c-174,36.54-342.87,73.44-512.45,106.5-38.21,7.44-58.87,25.77-74.56,58.72-33.69,70.75-70,140.28-104.54,210.63-9,18.32-30.8,42.34-20.27,55.35,13.49,16.68,39.32-4,60.07-6.89,2.16-.3,4.35-.42,6.46-.92q248.12-58.75,496.14-117.88c16.68-4,35.93-3,44.34-26.16C935.21,1245.55,970.34,1154.51,1006.77,1057.92Z"/><path class="cls-3" d="M1470.89,1553.3q-15.62-23-31.26-46c-1-5.38-2.35-10.56-8.29-12.73l.19.28c-.27-3.94-1.73-6.87-6.18-7.24l.24.19c-1.1-5.19-.94-11.11-3.48-15.45q-126.91-217.42-254.3-434.57c-28.13-50-54.1-101.39-84.82-149.74-69.13-108.82-92.36-227.32-81.5-354.11,5.73-4.3,5.77-8.72.28-13.26l0-12.53c9.68-1.56,10.19-9,12-16.76,34.12-143.87,117.27-252.82,242.71-327.9,145.85-87.31,302.44-93.92,457-32.55,160.17,63.61,260,187.08,304.61,354.19,2.33,8.73-.59,20.87,13.37,23q.11,6.3.22,12.61c-5.8,4.56-5.61,9,.33,13.25,11.57,123.51-7.85,239.65-75.81,346.37-36.71,57.65-68.1,118.7-101.87,178.19l-31,56.74c-43.36,73.9-87.44,147.39-129.85,221.83-31.06,54.5-67.32,106.12-92.1,164.15l.13-.17c-6.24,2.16-7.37,7.19-7.25,12.92l.34-.3-6.45,7.65L1576,1540.59C1536,1581.6,1520.57,1583.46,1470.89,1553.3Zm328-986.43c.64-14.83,4-28.79.17-44.59-36.88-151.1-188.29-247.49-341-215.81-124.4,25.81-222.38,137-223.54,253.77-19.4,85.71,9.29,160.16,64.62,221.33,78.73,87,179.88,120.07,294.91,88.26,113.49-31.38,183-109.5,206.81-223.85C1805.78,622.25,1825.88,592.15,1798.85,566.87ZM1130,483.61c-46.68,97.13-11.14,275.8,68.27,345.46C1143.1,720.35,1112.75,606.91,1130,483.61Zm605.92-256c78.86,49.32,134,111.71,178.08,192.68C1908.41,337,1809.21,229.78,1735.87,227.62Z"/><path class="cls-4" d="M2098,1919.83c99.86,18.69,196.85,49.06,295.43,73,105.17,25.5,209.68,53.74,314.49,80.72,46.52,12,75.68-3.77,115.26-62,0,41.35.53,82.7,0,124-.89,65.84-47.67,106.19-111.48,90.55-156.62-38.38-312.47-79.89-468.66-120-48.24-12.39-96.59-24.35-144.89-36.51Z"/><path class="cls-4" d="M705.92,1900.44c51.13,0,96.84,22.54,144.43,36.26,182.41,52.58,364.14,107.49,546.19,161.3,9.26,2.74,19.12,3.43,28.7,5.06q0,75.53.11,151.05c-37.73,2.87-70.81-14.87-105.39-24.9-190.25-55.19-380.12-111.67-570.19-167.47-14.44-4.24-29.43-6.62-44.16-9.84Q705.76,1976.2,705.92,1900.44Z"/><path class="cls-5" d="M705.92,1900.44q-.15,75.74-.31,151.46-293.55,78-587.13,155.83C54.58,2224.56,12.83,2193.85,5,2129.26c-4.72-39.09-2.31-78.05-3.63-117,6.08-.81,9.73,2,13.21,7,28,40.18,64.94,47.26,111.12,34.57,187.77-51.57,376-101.42,564.12-151.77C695,1900.63,700.56,1900.92,705.92,1900.44Z"/><path class="cls-5" d="M1425.35,2254.11q-.06-75.53-.11-151.05c74-12.48,144.27-38.87,216.2-59,144.73-40.56,289.25-81.88,433.94-122.58,7.13-2,15-1.16,22.61-1.63l.12,149.8q-303.14,85.24-606.28,170.51C1470,2246.29,1448.48,2254.05,1425.35,2254.11Z"/><path class="cls-6" d="M2031.48,508c-14-2.1-11-14.24-13.37-23C1973.52,318,1873.67,194.49,1713.5,130.88c-154.53-61.37-311.12-54.76-457,32.55-125.44,75.08-208.59,184-242.71,327.9-1.83,7.75-2.34,15.2-12,16.76.07-149.24,58.86-273.4,168.12-371.81,300.51-270.69,768.41-117.56,852.85,278C2029.32,445,2036,476.12,2031.48,508Z"/><path class="cls-7" d="M1167.81,1037.73q127.25,217.23,254.3,434.57c2.54,4.34,2.38,10.26,3.48,15.45-38.24-26-62.62-65.27-93.38-98.31q-98.07-105.33-191-215.43c-45.76-54.12-97.43-103.44-135.89-163.65C1061.28,1008.75,1113,1032.46,1167.81,1037.73Z"/><path class="cls-7" d="M1823.34,1115.2l31-56.74c30.26,12.51,59.17-2.46,88.43-5.52,35.94-3.75,70.76-5.73,104.48,9.81-3.64,17.81-21.65,24.87-29.55,39.48l-10.7,1.41c-31-10.78-60.71.12-90.72,5.63C1885,1106.12,1855,1123.73,1823.34,1115.2Z"/><path class="cls-6" d="M1001.77,520.62c5.49,4.54,5.45,9-.28,13.26Q1001.63,527.25,1001.77,520.62Z"/><path class="cls-6" d="M2032,533.9c-5.94-4.27-6.13-8.69-.33-13.25Z"/><path class="cls-8" d="M1006.77,1057.92c-36.43,96.59-71.56,187.63-104.81,279.35-8.41,23.19-27.66,22.15-44.34,26.16Q609.7,1423,361.48,1481.31c-2.11.5-4.3.62-6.46.92-20.75,2.88-46.58,23.57-60.07,6.89-10.53-13,11.27-37,20.27-55.35,34.56-70.35,70.85-139.88,104.54-210.63,15.69-33,36.35-51.28,74.56-58.72C663.9,1131.36,832.73,1094.46,1006.77,1057.92Z"/><path class="cls-9" d="M2007,1103.65l10.7-1.42q153.09,42.45,306.24,84.84c28.17,7.77,56.17,17.74,84.93,21.44,45.11,5.81,59.6,37,71,73.72,3,9.73.75,17-3.61,24.48-23.09,39.71-19.32,80.41-6.8,122.41,10.78,36.18,24.22,72.16,20.68,111.13l-437.39-28.17-6.88-4.55c-5.38-97.19-25.58-192.54-35.73-289.08C2006.14,1180.6,1989.1,1142.33,2007,1103.65Z"/><path class="cls-8" d="M2007,1889q-199.38,57.64-398.77,115.24c-54,15.55-108.4,30-162.29,46-21.06,6.26-29.84,2.16-27.67-21.33,5.36-58.06,9.42-116.25,14.43-174.34,3.61-41.9,7.94-83.74,11.9-125.61q3.36-35.43,6.61-70.89l0,0c48.86,3.94,97.1-5.2,145.59-8,93.47-5.38,186.65-15.83,280-24.18-5,13.11-10.41,26.08-15,39.34-27.48,79.78-14.51,119.68,54.91,166.21C1946.38,1851.31,1976.89,1869.87,2007,1889Z"/><path class="cls-10" d="M701,1849.31q-294.09,78.54-588.14,157.24c-18.66,5-37,9.12-51.38-7.43-15.73-18.08-7.17-36.22,1.88-54.48q73.22-147.71,145.55-295.84c4.51-9.24,7.48-18.28,20.1-17.07l85.73,98.49,6,6,.05,0c2.88,5,7.3,7.13,12.91,7.19l-.47-.26c11.69,12.14,18.44,22.61-6.48,26.2-12.39,1.78-24.5,5.56-38.41,8.83,2.07,1.1,101.9,93.35,104.33,98.25-8.74-84.38,37-116.11,107.7-127.54H451.67c27.41-25.94,53.37-53.64,82.5-77.48,67.6-55.31,170.51-54.24,237.08.36C750.2,1731.93,730.93,1792.74,701,1849.31Z"/><path class="cls-9" d="M2483.25,1651.69c-5.16,67,3.29,131.53,31.38,193.4,14.65,32.26,15.89,66.78,7.94,101.49-3.75,16.4-7.48,26.87-30.15,20.68-107.91-29.51-216.37-57-324.74-84.85-23-5.9-46.37-10.29-69.57-15.37-1-8.57-2-17.15-3.12-25.71q-14.68-114-29.39-228l-.24-3.19c74.63,11.53,150,15.19,225.1,22C2354.79,1638,2419,1645.13,2483.25,1651.69Z"/><path class="cls-8" d="M314.69,1730.22,229,1631.73c27.09-20.44,60.75-20.75,91.62-28.88q246.29-64.8,493.26-126.92c9.77-2.47,22.06-12.51,30.46-4,9.26,9.39-3.82,19.31-6.8,28.95-17.91,57.87-48.37,111.34-60.21,171.37a40.6,40.6,0,0,0-6-.41c-66.57-54.6-169.48-55.67-237.08-.36C505,1695.31,479.08,1723,451.67,1749c-56,1.53-58.43-41.78-63-86.86-21.36,31.44,9.27,89.42-55.49,81.12l.46.26c-2.15-6.26-7.75-6.31-12.9-7.19l-.05,0Z"/><path class="cls-11" d="M1451.22,1658.05c-90.25-23.6-178.12-54.75-266.65-83.8-100.06-32.82-200-66-300.52-97.47C859,1469,850.56,1459,866,1435.8a28.69,28.69,0,0,0,2.54-6c26.74-72.24,26.79-72.39,100-46.88q244.5,85.14,488.91,170.56c-1.86,34.87-9.68,69.39-6.2,104.58Z"/><path class="cls-12" d="M1451.27,1658.07c-3.48-35.19,4.34-69.71,6.2-104.58l13.42-.19c49.68,30.16,65.07,28.3,105.11-12.71,27.11-.34,54.34.83,81.31-1.27,98.78-7.7,197.49-16.49,296.23-24.87l92.31-6.92c2.29,1.51,4.59,3,6.88,4.57,4.83,32.61,13,64.77,12.63,98l.24,3.19c-63.33-1.81-125.79,9.35-188.78,12.58-93.31,8.35-186.49,18.8-280,24.18C1548.37,1652.87,1500.13,1662,1451.27,1658.07Z"/><path class="cls-11" d="M2065.36,1610.13c.34-33.26-7.8-65.42-12.63-98q218.7,14.06,437.39,28.15c27.94,2.56,55.5,9.17,83.91,7,4.84-.36,12.47,1.71,14.58,5.21,19.07,31.68,30.9,66.64,42.07,101.57,3.85,12-7.79,8.41-15.18,7.82-44.07-3.52-87.77-12-132.25-10.21-64.26-6.56-128.46-13.7-192.79-19.55C2215.38,1625.32,2140,1621.66,2065.36,1610.13Z"/><path class="cls-13" d="M771.25,1671.83a40.6,40.6,0,0,1,6,.41c34.32,31.62,54.27,72.91,76,113,43.64,80.28,87.17,100.39,176.6,83.72,39.4-7.34,77.72-20.82,118.39-21.3,56.54-.68,78.07,13,99.86,65.43,12.12,29.17,19.42,59.65,22.74,96.13-56.58-16.59-111.08-32.43-165.5-48.56q-165.51-49-330.88-98.49c-24.14-7.26-48.88-9.66-73.6-12.81C730.93,1792.74,750.2,1731.93,771.25,1671.83Z"/><path class="cls-14" d="M1876.82,1625.9c63-3.23,125.45-14.39,188.78-12.58q14.7,114,29.39,228c1.1,8.56,2.08,17.14,3.12,25.71l-91.1,22c-30.12-19.14-60.63-37.7-90.26-57.56-69.42-46.53-82.39-86.43-54.91-166.21C1866.41,1652,1871.81,1639,1876.82,1625.9Z"/><path class="cls-7" d="M1431.34,1494.52c5.94,2.17,7.26,7.35,8.29,12.73C1433.27,1505.36,1431,1500.78,1431.34,1494.52Z"/><path class="cls-7" d="M1425.35,1487.56c4.45.37,5.91,3.3,6.18,7.24Z"/><path class="cls-15" d="M1058.19,541.24c1.87-188.67,160.24-368.47,361.32-410.19,246.81-51.21,491.54,104.6,551.15,348.83,6.24,25.54.76,48.11-.27,72.07C1898.21,782.26,1718,920.09,1496.76,909.86,1286.12,900.11,1110.5,758.24,1058.19,541.24Z"/><path class="cls-8" d="M1953.53,1514.45c-98.73,8.38-197.44,17.17-296.22,24.87-27,2.1-54.2.93-81.31,1.27l12.17-19.31,6.44-7.65-.34.3c6.36-2.09,8.16-6.75,7.25-12.92l-.13.17c15.6.72,22.11-12.44,31-21.17q138-135.66,275.48-271.88c3.93,49.28,21,95.22,36.21,141.6C1961.79,1403.86,1976,1458.07,1953.53,1514.45Z"/><path class="cls-16" d="M1058.19,541.24c52.31,217,227.93,358.87,438.57,368.62C1718,920.09,1898.21,782.26,1970.39,552c43.68,40.86,11.2,89.52,3.21,127.87-38.51,184.84-150.84,311.11-334.28,361.83-185.94,51.41-349.43-2-476.69-142.66C1073.2,800.12,1026.83,679.77,1058.19,541.24Z"/><path class="cls-17" d="M1907.86,1208.13q-137.67,136-275.48,271.88c-8.88,8.73-15.39,21.89-31,21.17,24.78-58,61-109.65,92.1-164.15,42.41-74.44,86.49-147.93,129.85-221.83,31.65,8.53,61.64-9.08,92.94-5.93C1908.74,1141.82,1909,1175,1907.86,1208.13Z"/><path class="cls-17" d="M1601.52,1501c.91,6.17-.89,10.83-7.25,12.92C1594.15,1508.2,1595.28,1503.17,1601.52,1501Z"/><path class="cls-17" d="M1594.61,1513.63l-6.44,7.65Z"/><path class="cls-14" d="M1907.86,1208.13c1.1-33.1.88-66.31,8.42-98.86,30-5.51,59.7-16.41,90.73-5.63-17.91,38.69-.87,77,3.11,114.81,10.15,96.54,30.35,191.89,35.73,289.08l-92.31,6.92c22.44-56.38,8.25-110.59-9.47-164.72C1928.88,1303.35,1911.79,1257.41,1907.86,1208.13Z"/><path class="cls-11" d="M333.14,1743.21c64.76,8.3,34.13-49.68,55.49-81.12,4.61,45.08,7.06,88.39,63,86.86h48.61c-70.68,11.43-116.44,43.16-107.7,127.54-2.43-4.9-102.26-97.15-104.33-98.25,13.91-3.27,26-7,38.41-8.83C351.58,1765.82,344.83,1755.35,333.14,1743.21Z"/><path class="cls-11" d="M320.7,1736.28c5.15.88,10.75.93,12.9,7.19C328,1743.41,323.58,1741.24,320.7,1736.28Z"/><path class="cls-11" d="M314.69,1730.22l6,6Z"/></g><g id="Capa_3" data-name="Capa 3"><g class="cls-18"><polygon class="cls-19" points="1747.78 766.38 1724.99 753.98 1725.15 668.82 1747.94 681.22 1747.78 766.38"/><g class="cls-18"><g class="cls-20"><g class="cls-18"><path class="cls-21" d="M1784.88,607.92l-22.79-12.4c5.32-29.13,10.62-52.58,10.67-81l22.8,12.4c-.06,28.39-5.36,51.84-10.68,81"/></g></g></g><path class="cls-22" d="M1832.83,277.65c78.59,153.56,41.41,351.76-85,488.73l.16-85.16C1848.07,565,1879.91,407.26,1832.83,277.65Z"/><g class="cls-18"><g class="cls-23"><g class="cls-18"><path class="cls-24" d="M1747.94,681.22l-22.79-12.4q14.61-17,27.28-35.05l22.8,12.39q-12.68,18.06-27.29,35.06"/><path class="cls-25" d="M1775.23,646.16l-22.8-12.39A443.86,443.86,0,0,0,1780.06,589l22.8,12.4a446.24,446.24,0,0,1-27.63,44.81"/><path class="cls-26" d="M1802.86,601.35l-22.8-12.4a438,438,0,0,0,25.43-56.49l22.79,12.4a439.27,439.27,0,0,1-25.42,56.49"/><path class="cls-27" d="M1828.28,544.86l-22.79-12.4c32.45-88.31,34.92-183.61,4.54-267.21l22.8,12.4c30.37,83.6,27.9,178.9-4.55,267.21"/></g></g></g><polygon class="cls-28" points="1616.13 864.34 1593.34 851.94 1593.71 647.56 1616.51 659.96 1616.13 864.34"/><polygon class="cls-29" points="1643.19 451.88 1620.4 439.48 1688.78 429.87 1711.57 442.26 1643.19 451.88"/><polygon class="cls-30" points="1511.29 686.1 1488.49 673.7 1620.4 439.48 1643.19 451.88 1511.29 686.1"/><g class="cls-18"><g class="cls-31"><g class="cls-18"><path class="cls-21" d="M1795.56,527l-22.8-12.4c3.66-112.24-51.59-204-134.6-249.15L1661,277.8C1744,323,1799.21,414.71,1795.56,527"/></g></g></g><polygon class="cls-32" points="1479.48 821.11 1456.69 808.71 1378.06 677.87 1400.85 690.27 1479.48 821.11"/><g class="cls-18"><g class="cls-33"><g class="cls-18"><path class="cls-34" d="M1322.82,867.45l-22.8-12.4a155.32,155.32,0,0,1-16.93-10.59l22.79,12.4a155.46,155.46,0,0,0,16.94,10.59"/></g></g></g><g class="cls-18"><g class="cls-35"><g class="cls-18"><path class="cls-36" d="M1506.49,187.14l-22.79-12.4c39-5.49,76.27-3.27,110.59,5.57l22.79,12.4c-34.32-8.84-71.59-11.06-110.59-5.57"/><path class="cls-37" d="M1617.08,192.71l-22.79-12.4A257.45,257.45,0,0,1,1644,198.67l22.8,12.4a257.79,257.79,0,0,0-49.68-18.36"/><path class="cls-38" d="M1666.76,211.07l-22.8-12.4q4.71,2.31,9.29,4.8l22.79,12.4q-4.57-2.49-9.28-4.8"/></g></g></g><path class="cls-39" d="M1711.57,442.27l-.66,357.67c-31.61,27.15-57.94,47.87-94.78,64.4l.38-204.38-84.42,153.76-52.61,7.39-78.63-130.84-.38,204.38c-31.54-6.92-68.33-18.77-94.59-37.79l.67-357.67,73.64-10.35,131.1,197.26,131.9-234.23Z"/><polygon class="cls-28" points="1305.88 856.86 1283.09 844.46 1283.76 486.79 1306.55 499.19 1305.88 856.86"/><polygon class="cls-29" points="1306.55 499.19 1283.76 486.79 1357.39 476.44 1380.19 488.84 1306.55 499.19"/><g class="cls-18"><g class="cls-40"><g class="cls-18"><path class="cls-21" d="M1227.32,686.28l-22.8-12.4c-15.69-43.21-26.12-87.14-26-138.24l22.79,12.4c-.09,51.09,10.34,95,26,138.24"/></g></g></g><path class="cls-41" d="M1506.49,187.14c169-23.75,305.39,97,310.22,274.4-.09,45.42-10.7,98-31.83,146.38,5.32-29.13,10.62-52.58,10.68-81,5.57-171.05-125.67-294.5-283.46-278q-4.59.48-9.15,1.13c-153.7,21.6-280.52,179.11-286,346.85,0,28.38,5.14,61.71,10.35,89.36-15.7-43.21-26.13-87.15-26-138.24,5.58-171.06,137.35-331.48,295.15-359.33C1499.8,188.13,1503.14,187.61,1506.49,187.14Z"/><g class="cls-18"><g class="cls-42"><g class="cls-18"><path class="cls-21" d="M1201.28,548l-22.79-12.4a370.76,370.76,0,0,1,22.8-115.26l22.8,12.4A370.48,370.48,0,0,0,1201.28,548"/><path class="cls-43" d="M1224.09,432.78l-22.8-12.4a401.65,401.65,0,0,1,23.42-52l22.79,12.4a400.25,400.25,0,0,0-23.41,52"/><path class="cls-44" d="M1247.5,380.74l-22.79-12.4a407.91,407.91,0,0,1,25.45-41.28l22.79,12.4a409.72,409.72,0,0,0-25.45,41.28"/><path class="cls-45" d="M1273,339.46l-22.79-12.4a405.2,405.2,0,0,1,28.21-35.81l22.8,12.39A408.8,408.8,0,0,0,1273,339.46"/><path class="cls-46" d="M1301.17,303.64l-22.8-12.39A393.33,393.33,0,0,1,1310.29,259l22.79,12.39a396.4,396.4,0,0,0-31.91,32.24"/><path class="cls-38" d="M1333.08,271.4,1310.29,259a373.46,373.46,0,0,1,37.59-29.75l22.8,12.4a373.77,373.77,0,0,0-37.6,29.74"/><path class="cls-37" d="M1370.68,241.66l-22.8-12.4a344.18,344.18,0,0,1,49.32-28.46L1420,213.2a344.08,344.08,0,0,0-49.31,28.46"/><path class="cls-36" d="M1420,213.2l-22.79-12.4a304.63,304.63,0,0,1,76.44-24.49c3.37-.58,6.71-1.1,10.06-1.57l22.79,12.4c-3.35.47-6.69,1-10.06,1.57A304.76,304.76,0,0,0,1420,213.2"/></g></g></g><path class="cls-22" d="M1185.84,368.58c-47.59,142.91-16.32,291.77,83.43,379.91l-.16,85.16C1143.1,732.16,1106.64,538.64,1185.84,368.58Z"/><g class="cls-18"><g class="cls-47"><g class="cls-18"><path class="cls-27" d="M1269.11,833.65l-22.79-12.4c-117.29-94.45-157-268.64-98.08-429.43l22.8,12.4c-58.92,160.79-19.21,335,98.07,429.43"/><path class="cls-26" d="M1171,404.22l-22.8-12.4q6.59-17.94,14.81-35.64l22.79,12.4q-8.23,17.67-14.8,35.64"/></g></g></g></g></g></g></svg>