<svg xmlns="http://www.w3.org/2000/svg" xmlns:xlink="http://www.w3.org/1999/xlink" viewBox="0 0 1290.63 1870.9"><defs><style>.cls-1{fill:#3b3939;stroke-miterlimit:10;stroke:url(#Degradado_sin_nombre);}.cls-2{fill:#fa2233;}.cls-3{fill:#030201;}.cls-4{fill:#fff;}</style><linearGradient id="Degradado_sin_nombre" y1="1703.9" x2="1283" y2="1703.9" gradientUnits="userSpaceOnUse"><stop offset="0" stop-color="#fff"/><stop offset="1"/></linearGradient></defs><g id="Capa_2" data-name="Capa 2"><g id="Capa_1-2" data-name="Capa 1"><rect class="cls-1" x="0.5" y="1537.4" width="1282" height="333" rx="166.5"/><path class="cls-2" d="M687.66,0c1.75.72,3.45,1.92,5.25,2.08,7,.66,14,1.08,21,1.42a175.8,175.8,0,0,1,26.66,2.85c8.75,1.78,17.81,1.84,26.43,4.47,37.8,6.17,84.29,20.49,117.41,34.1,74.56,30.65,142.11,72.5,202,126.36,68.12,61.23,119.18,134.53,153.71,219.27a674.15,674.15,0,0,1,35.43,117c3.92,18.76,7.41,37.59,9.79,56.55,2.53,20.25,5.23,40.53,5.19,61,0,17.88.15,35.75-.06,53.62a305.11,305.11,0,0,1-2.76,38.17c-1.56,11.37-2.58,22.81-4.58,34.14-4.07,23-6.44,36.23-14,63.47-18,64.52-46.68,124.06-84.26,179.4a720.92,720.92,0,0,1-105.73,123.47q-100.47,93.42-231.43,134.77A511.23,511.23,0,0,1,779,1269.12c-11.09,3.22-22.73,3.43-33.93,6.09a71.64,71.64,0,0,1-9.52,1.06c-3.82.37-7.71.37-11.45,1.11-12,2.34-24.14,2.61-36.28,3s-24.28,1-36.43,1.2c-21.75.4-43.46-1-65.18-2-3.82-.17-7.63-.74-11.43-1.23s-7.58-1.32-11.39-1.62c-19.16-1.5-37.82-6-56.72-9.15-55.24-13-96.95-27.54-147.27-53.06a645.33,645.33,0,0,1-104.73-67,673.49,673.49,0,0,1-91-84.89A609.28,609.28,0,0,1,46.83,866.38a637.42,637.42,0,0,1-28-101.3C16,750,13.4,735,11.26,719.79c-2-14.57-3.14-29.18-4-43.84a68.56,68.56,0,0,0-1.16-9.48A9.58,9.58,0,0,0,.5,659.22V617.06c1-.8,2-1.57,3-2.41a8.26,8.26,0,0,0,2.78-4.89,91.84,91.84,0,0,0,1-9.5c.89-14.64,2-29.23,4-43.8,2.55-18.33,5.66-36.55,9.76-54.56a633.25,633.25,0,0,1,37.8-114.17c23-52.19,51.32-101.18,86.8-146a563.77,563.77,0,0,1,100.73-99.15c10.15-7.73,20.32-15.43,30.17-23.57,12.31-10.18,25.4-19.35,39.73-26.51C325.38,88,334.27,83,343.17,78c35.71-20,73-36.43,112.19-48.35a573.88,573.88,0,0,1,59.2-15.36c6.88-1.44,13.83-2.42,20.67-3.9A153,153,0,0,1,556,7.2a36.42,36.42,0,0,0,5.69-.8c8.75-2.12,17.69-2.45,26.63-2.85,7.66-.33,15.31-.84,23-1.3A16.59,16.59,0,0,0,618.56,0Zm-41,984.15v-.26H815.48c7.67,0,15.36.17,23-.2,10.9-.52,21.62-2.16,31.74-6.58a49.88,49.88,0,0,0,21.67-18.28A37.67,37.67,0,0,0,898.34,943c1.49-10.83,1.38-21.58-2.07-32.19-9.75-30-23.47-57.92-42-83.46a243.53,243.53,0,0,0-18.21-22.22c-26.11-28.21-57.48-48.5-93.46-61.78-22.26-8.22-45.09-14.16-68.84-16.11-10.75-2.11-21.62-1.92-32.5-1.92-7.72,0-15.24,1.73-22.88,2.3-16,1.22-31.6,5-46.77,10-54.5,17.86-99,49.77-132.91,96.08A239.6,239.6,0,0,0,402,906.94a59.53,59.53,0,0,0-2.14,9.29,86.45,86.45,0,0,0-.11,21,30.45,30.45,0,0,0,1,5.64C406.53,962,419.07,974.72,438,981a72,72,0,0,0,24.53,3.64c21.74-.47,43.48-.8,65.22-.84,30-.05,60.11.21,90.17.32C627.47,984.18,637.06,984.15,646.65,984.15ZM478.88,539.77a19.54,19.54,0,0,0,0-2.49,35.52,35.52,0,0,0-4.28-12.61,49.73,49.73,0,0,0-8.14-10.61c-5.95-5.8-12-11.52-17.92-17.32-2.28-2.22-4.46-4.55-6.64-6.87-1.58-1.68-1.8-4.92-.86-7.17a24.21,24.21,0,0,1,5.29-7.91c5.44-5.4,11.05-10.64,16.46-16.07a133.83,133.83,0,0,0,9-9.92,36.17,36.17,0,0,0,6.72-13.66,13.8,13.8,0,0,0,.07-7.54c-3.26-11.23-10.66-18.64-21.35-23a21.53,21.53,0,0,0-15-.5,33.24,33.24,0,0,0-11.84,6.18c-4.35,3.75-8.6,7.62-12.79,11.55-4.66,4.37-9,9.09-13.83,13.25-6.44,5.54-13.67,4.13-19.3-.22a50,50,0,0,1-4.28-3.83c-3.66-3.57-7.23-7.22-10.92-10.77-2.76-2.65-5.58-5.25-8.49-7.75a41.5,41.5,0,0,0-18.84-8.95,19,19,0,0,0-9.47.55A32.68,32.68,0,0,0,313.19,419c-3.42,5.65-4.68,11.69-2.54,18.32a40.33,40.33,0,0,0,8.58,14.79c3.84,4.27,8.07,8.18,12.15,12.23,4.54,4.49,9.28,8.78,13.2,13.87a10.49,10.49,0,0,1,.68,12.46,32.77,32.77,0,0,1-4.61,6.08c-3.2,3.11-6.76,5.85-10.09,8.83a94.05,94.05,0,0,0-16.39,18.66,35.64,35.64,0,0,0-4.43,10.54,13.72,13.72,0,0,0,.24,7.54c2.87,9.88,9.64,16.33,18.56,20.76a32.07,32.07,0,0,0,7.28,2.34,16.55,16.55,0,0,0,5.69.34c6.43-.87,12.54-2.81,17.6-7,5.41-4.47,10.62-9.19,15.78-13.95,3.76-3.46,7.16-7.32,11-10.68,1.87-1.64,4.34-2.63,6.61-3.75a6.42,6.42,0,0,1,5.58.05,26.11,26.11,0,0,1,6.53,3.88c3.78,3.42,7.17,7.28,10.84,10.83,4.14,4,8.3,8,12.66,11.71a39.37,39.37,0,0,0,19,8.68,14,14,0,0,0,3.81.26c6.48-.63,12.5-2.47,17.57-6.81A30,30,0,0,0,478.88,539.77Zm339.64-.63c-.27,4.73,1.47,8.83,3.83,12.67,3.82,6.24,9.11,10.58,16.4,12.22,3.12.7,6.21,1.52,9.45,1.15,7.79-.91,14.93-3.42,20.87-8.68,4.3-3.8,8.49-7.72,12.62-11.71,3.21-3.11,6.17-6.46,9.37-9.57a27.1,27.1,0,0,1,4.63-3.36c4.08-2.53,8.28-3,12.7-.7a31.15,31.15,0,0,1,7.86,5.38c4.1,4,8.08,8.17,12.29,12.06s8.51,7.71,13,11.27,10.25,5,16,5.77a10.07,10.07,0,0,0,3.79-.23,58.83,58.83,0,0,0,9.13-2.8c12.55-5.62,18.31-21,14.67-32-1.83-5.55-4.36-10.6-8.62-14.68s-8.33-7.9-12.46-11.89c-3.2-3.11-6.4-6.22-9.48-9.45a20.39,20.39,0,0,1-4.69-8.22,5.36,5.36,0,0,1,.16-3.72,24.25,24.25,0,0,1,5.12-8c4-4.11,8.12-8.11,12.14-12.2,3.58-3.64,7.34-7.14,10.57-11.06a37.25,37.25,0,0,0,8.21-21.06,13.88,13.88,0,0,0-.24-3.8,30.15,30.15,0,0,0-5.22-12.19c-5.94-7.93-19.22-14-30.83-9.44-4.2,1.66-8.26,3.44-11.76,6.28-3,2.42-5.84,4.95-8.61,7.59-3.7,3.51-7.25,7.18-10.88,10.77-1.81,1.8-3.62,3.61-5.51,5.32a19,19,0,0,1-3.11,2.21c-5.25,3.06-8.85,3.57-14.15-.46a113.41,113.41,0,0,1-9.87-9C880,421.9,874.09,416,867.51,411a44.11,44.11,0,0,0-13.6-6.86,21.81,21.81,0,0,0-11.35-.65c-9.19,2-16.39,6.79-21,15.16a22.7,22.7,0,0,0-1.21,20.24,45.4,45.4,0,0,0,10.53,15.81c5.88,5.84,11.91,11.54,17.73,17.45,2.67,2.71,5,5.74,7.47,8.66,1.52,1.81,1.49,5.43,0,7.08-2.57,2.82-5.12,5.67-7.76,8.44C841.7,503.21,835,510.05,828.45,517a42,42,0,0,0-8.13,12.88A23.16,23.16,0,0,0,818.52,539.14Z"/><path class="cls-3" d="M829.26,1679.16c-7.77-.19-13.48.09-18.51,3.53-.53.36-1,.75-1.57,1.08-1.39.85-2.11,3.41-1.57,5a24.42,24.42,0,0,0,9.07,12c4.09,3,8.6,5.46,12.89,8.21a111.63,111.63,0,0,1,9.51,6.36,19,19,0,0,1,7.31,18.63,67.61,67.61,0,0,1-2.8,11.08c-1.19,3.62-2.77,7.12-4.29,10.63a48.51,48.51,0,0,0-3.48,16.72,20.46,20.46,0,0,0,.42,3.79c.51,3.83,3.35,5.79,6.52,4.6A60.63,60.63,0,0,0,858,1773c4.1-3,8-6.35,12.11-9.36a126.92,126.92,0,0,1,11.09-7.44c4.12-2.38,8.63-2.63,12.73,0,4.81,3.1,9.37,6.6,14,9.92,4.16,3,8.22,6,12.48,8.83a48,48,0,0,0,15.71,6.72c1.5.34,4.2-1.53,4.12-3a37.27,37.27,0,0,0-.39-5.71,214.84,214.84,0,0,0-7.88-27.51,119.13,119.13,0,0,1-3.83-14.77c-1.12-4.91.65-8.73,4.35-11.8,3.43-2.85,6.9-5.65,10.45-8.34s7.29-5.15,10.84-7.84a58.74,58.74,0,0,0,13.1-13.83,33.73,33.73,0,0,0,1.73-3.39c1.18-2.25-.56-5.43-3-5.52-12.76-.5-25.5-1-38.24.5-2.46.3-5.07-.29-7.57-.68-6.26-1-10.31-5-12.73-10.45a90.92,90.92,0,0,1-4.08-12.71,188.14,188.14,0,0,0-8.9-25.18c-1.09-2.5-3.62-3.33-6.19-3.79-1.73-.32-6.1,1.73-6.68,3.09-3.73,8.79-7.59,17.55-9.35,27a46.7,46.7,0,0,1-3.36,10.92c-2.5,5.53-6.61,9.26-12.65,10.62a44.17,44.17,0,0,1-15.2,1.07C836.21,1679.79,831.76,1679.42,829.26,1679.16Zm-234.89.3c-5.9.27-11.65.4-17.37.87a16.65,16.65,0,0,0-5.38,1.86c-3.1,1.43-4.38,7.5-2.15,9.91a33.77,33.77,0,0,0,4,4c7.6,5.8,15.34,11.43,22.92,17.25,3,2.32,5.82,4.95,8.66,7.49,2,1.82,2.66,4.38,2.87,6.89a34.38,34.38,0,0,1-1.82,13.19c-1.52,4.85-3.52,9.55-5.19,14.36-1.45,4.21-3,8.43-4,12.74a16.24,16.24,0,0,0,1.63,11.13c1,1.93,3,3,4.53,2.42a62.94,62.94,0,0,0,16.62-9.29c5.13-3.79,10.08-7.83,15.27-11.53a44.15,44.15,0,0,1,9.88-5.77,9.44,9.44,0,0,1,7.41.18,30,30,0,0,1,5,2.67c5.23,3.64,10.4,7.37,15.54,11.14,5.67,4.16,11.38,8.22,17.77,11.21,1.15.54,2.33,1,3.49,1.55,2.39,1.1,5.55-.55,5.81-2.94a49.49,49.49,0,0,0-2.75-22.53c-2.81-7.78-6-15.44-8.09-23.47-1.44-5.48.43-10.08,4.32-13.87a36.6,36.6,0,0,1,6.12-4.56c8.67-5.43,16.53-12,24.61-18.18a14.81,14.81,0,0,0,4.56-6c.9-2.08-.25-5.75-2-6.79a27.23,27.23,0,0,0-14.58-4c-7,0-14,.37-21.05.62a54.8,54.8,0,0,1-11.44-.67,14.3,14.3,0,0,1-10.41-7.63A64,64,0,0,1,665,1661.1c-1.56-4.84-2.66-9.84-4.26-14.67-1.4-4.22-3.12-8.34-4.9-12.42a37.47,37.47,0,0,0-3.05-4.85c-1.25-2-4.36-2.13-6.71-.5a22.1,22.1,0,0,0-8.05,10.43c-1.83,4.75-3.6,9.55-4.09,14.69s-2.45,9.94-4.55,14.55c-3.46,7.56-9.67,11.63-18,12.23a40.72,40.72,0,0,1-5.73-.16C601.85,1680.13,598,1679.77,594.37,1679.46Zm-233.88.75c-8.52-.35-13.63-.86-18.71-.7a16.65,16.65,0,0,0-13,6.9,2.62,2.62,0,0,0-.09,3.46,51.53,51.53,0,0,0,5,5.71c5.62,5.23,12.1,9.35,18.4,13.69,5.26,3.62,10.56,7.15,15.15,11.65,2,1.93,2.51,4.34,2.61,6.91a14.26,14.26,0,0,1-.41,3.79,87.79,87.79,0,0,1-2.38,9.22c-2.75,7.81-5.84,15.5-7.83,23.56-1.23,5-1.73,10-.47,15.1.34,1.37,3,2.85,4.51,2.36a25.63,25.63,0,0,0,3.59-1.2,94.15,94.15,0,0,0,14.65-9c5.08-3.85,10.12-7.76,15.32-11.44a73.55,73.55,0,0,1,8.27-4.76,9.15,9.15,0,0,1,9.14.24c3.85,2.23,7.57,4.7,11.21,7.26,5.22,3.66,10.2,7.68,15.51,11.22,4.75,3.17,9.67,6.16,15.35,7.58,1.53.39,4.12-1,4.36-2.47a35.06,35.06,0,0,0-1.2-17c-2.16-6.67-4.54-13.26-6.79-19.89-1-3-2.06-6-2.84-9.1a20.9,20.9,0,0,1-.59-5.69,9.14,9.14,0,0,1,2.65-6.88c5.13-4.86,11.07-8.6,16.87-12.54s11.67-7.83,16.58-12.91c1.75-1.81,3.18-3.93,4.78-5.9.92-1.14.24-4.05-1.12-5.12-3.6-2.79-7.5-5-12.19-4.82-10.21.34-20.42.81-30.63.22-3.17-.18-6.33-.65-9.48-1.12-2-.3-3.37-1.73-4.58-3.2a11.61,11.61,0,0,1-1.92-3.25c-3.08-8.36-6.59-16.55-8.37-25.36a120.85,120.85,0,0,0-3.71-12.82,7.79,7.79,0,0,0-3.8-4.12c-5.11-3-12.85-.4-14.37,5-1.39,4.9-2.46,9.89-3.66,14.84-1.81,7.45-4.1,14.73-7.89,21.43-2.29,4-5.5,7.13-10.33,7.65C371.09,1679.46,364.08,1679.91,360.49,1680.21Zm719.65,0c-6.8-.37-11.26-.64-15.72-.84-6-.25-11.27,1.66-16.25,4.75a4.78,4.78,0,0,0-1.48,6.5,49.15,49.15,0,0,0,11,10.57c4.64,3.37,9.49,6.46,14.17,9.78a82.8,82.8,0,0,1,11.86,9.61,10.14,10.14,0,0,1,3.1,8.62,41,41,0,0,1-1.53,7.46q-3.76,11.82-7.83,23.55a44.61,44.61,0,0,0-2,17c0,.62.25,1.24.27,1.87,0,1.51,2.72,3.15,4.19,2.74,6.24-1.75,11.62-5.18,16.89-8.74s10.32-7.49,15.53-11.16a107.1,107.1,0,0,1,9.6-6.23,9.11,9.11,0,0,1,9.13-.3,82.32,82.32,0,0,1,8.24,4.8c4.16,2.94,8,6.27,12.18,9.24a115.59,115.59,0,0,0,11.19,7.32,30.47,30.47,0,0,0,12.56,4.23,2.36,2.36,0,0,0,2.83-1.86c1.45-4.42,1-8.89-.08-13.18-1.28-4.92-3.16-9.68-4.9-14.46-1.52-4.19-3.65-8.2-4.73-12.49-2.84-11.3-.89-18.28,8.54-25.09a33.71,33.71,0,0,1,3.29-1.93c7.27-4.07,13.73-9.27,20.25-14.39a24.57,24.57,0,0,0,4.06-4,8.6,8.6,0,0,0,1.48-3.45c1.09-5-1.47-8.68-6.65-9.5a58.78,58.78,0,0,0-9.49-1.06c-7.65,0-15.3.37-22.95.63a39.9,39.9,0,0,1-9.5-.88,12.48,12.48,0,0,1-7.8-5.11,32.46,32.46,0,0,1-4.54-8.3c-1.8-5.43-3.17-11-4.44-16.59a54.55,54.55,0,0,0-5.47-14.21,18.92,18.92,0,0,0-6.18-7.14,2.76,2.76,0,0,0-3.4-.22,16.16,16.16,0,0,0-6.65,6.66,50.2,50.2,0,0,0-5.26,14.28,99.94,99.94,0,0,1-7.28,21.67c-2.24,5-5.66,8.4-11.37,8.85S1083.54,1680,1080.14,1680.23Zm-961,1.94v-.34c-3.83-.17-7.66-.58-11.47-.44a55.16,55.16,0,0,0-9.45,1.34,14.31,14.31,0,0,0-6.52,3.81,4.84,4.84,0,0,0-.74,5.17,23.93,23.93,0,0,0,6.25,7.16c6.93,5.61,14,11,21,16.59,3,2.37,6,4.79,8.76,7.38a8.79,8.79,0,0,1,2.91,8.64c-1.29,5.58-2.91,11.08-4.54,16.57-1.45,4.88-3.3,9.65-4.6,14.57a31.77,31.77,0,0,0-.64,15.14c.28,1.32,2.91,3.31,4.35,3.15a23.31,23.31,0,0,0,3.76-.51,35.53,35.53,0,0,0,13.41-7.15c5.37-4.53,10.74-9.12,17-12.3,7.88-4,16-4.12,23.8.31a55.93,55.93,0,0,1,7.73,5.58c3.46,2.81,6.63,6,10.17,8.69a25.44,25.44,0,0,0,14,5.54c3,.19,6.59-2.28,7.08-5.24a16.89,16.89,0,0,0,.37-5.64,86.87,86.87,0,0,0-4.66-16.51,101.5,101.5,0,0,1-4.8-14.48c-2.07-9.12-.31-17,8.58-23.53,3.6-2.63,7.47-4.88,11.17-7.36,3.18-2.14,6.33-4.31,9.41-6.57a30.59,30.59,0,0,0,7.56-8.54c2-3.16.37-8.2-3-9.72a19.89,19.89,0,0,0-7.36-1.86c-3.18-.11-6.37.13-9.55.17-5.74.06-11.49.28-17.22,0a44.25,44.25,0,0,1-9.37-1.7,15.8,15.8,0,0,1-10.15-8.13,97.67,97.67,0,0,1-8.1-19.35c-1.22-4.29-2.39-8.6-3.79-12.83a18.82,18.82,0,0,0-6.79-9,10.34,10.34,0,0,0-1.7-.84,5.32,5.32,0,0,0-5.22,1.16c-4.4,4.84-6.66,10.81-8.71,16.83-1.64,4.82-2.9,9.76-4.34,14.65a34.43,34.43,0,0,1-5,10.24,17.73,17.73,0,0,1-4,4.1,25.06,25.06,0,0,1-14.14,5.23C126.84,1682.27,123,1682.17,119.18,1682.17Z"/><path class="cls-3" d="M646.65,984.15c-9.59,0-19.18,0-28.77,0-30.06-.11-60.12-.37-90.17-.32-21.74,0-43.48.37-65.22.84A72,72,0,0,1,438,981c-18.89-6.3-31.43-19-37.22-38.13a30.45,30.45,0,0,1-1-5.64,86.45,86.45,0,0,1,.11-21,59.53,59.53,0,0,1,2.14-9.29,239.6,239.6,0,0,1,36.72-73.27c33.9-46.31,78.41-78.22,132.91-96.08,15.17-5,30.72-8.76,46.77-10,7.64-.57,15.16-2.3,22.88-2.3,10.88,0,21.75-.19,32.5,1.92,23.75,1.95,46.58,7.89,68.84,16.11,36,13.28,67.35,33.57,93.46,61.78a243.53,243.53,0,0,1,18.21,22.22c18.54,25.54,32.26,53.49,42,83.46,3.45,10.61,3.56,21.36,2.07,32.19a37.67,37.67,0,0,1-6.44,15.84,49.88,49.88,0,0,1-21.67,18.28c-10.12,4.42-20.84,6.06-31.74,6.58-7.65.37-15.34.2-23,.2H646.65Z"/><path class="cls-3" d="M478.88,539.77A30,30,0,0,1,468.44,559c-5.07,4.34-11.09,6.18-17.57,6.81a14,14,0,0,1-3.81-.26,39.37,39.37,0,0,1-19-8.68c-4.36-3.74-8.52-7.72-12.66-11.71-3.67-3.55-7.06-7.41-10.84-10.83a26.11,26.11,0,0,0-6.53-3.88,6.42,6.42,0,0,0-5.58-.05c-2.27,1.12-4.74,2.11-6.61,3.75-3.83,3.36-7.23,7.22-11,10.68-5.16,4.76-10.37,9.48-15.78,13.95-5.06,4.19-11.17,6.13-17.6,7a16.55,16.55,0,0,1-5.69-.34,32.07,32.07,0,0,1-7.28-2.34c-8.92-4.43-15.69-10.88-18.56-20.76a13.72,13.72,0,0,1-.24-7.54,35.64,35.64,0,0,1,4.43-10.54,94.05,94.05,0,0,1,16.39-18.66c3.33-3,6.89-5.72,10.09-8.83a32.77,32.77,0,0,0,4.61-6.08,10.49,10.49,0,0,0-.68-12.46c-3.92-5.09-8.66-9.38-13.2-13.87-4.08-4.05-8.31-8-12.15-12.23a40.33,40.33,0,0,1-8.58-14.79c-2.14-6.63-.88-12.67,2.54-18.32a32.68,32.68,0,0,1,19.24-14.91,19,19,0,0,1,9.47-.55,41.5,41.5,0,0,1,18.84,8.95c2.91,2.5,5.73,5.1,8.49,7.75,3.69,3.55,7.26,7.2,10.92,10.77a50,50,0,0,0,4.28,3.83c5.63,4.35,12.86,5.76,19.3.22,4.83-4.16,9.17-8.88,13.83-13.25,4.19-3.93,8.44-7.8,12.79-11.55a33.24,33.24,0,0,1,11.84-6.18,21.53,21.53,0,0,1,15,.5c10.69,4.35,18.09,11.76,21.35,23a13.8,13.8,0,0,1-.07,7.54,36.17,36.17,0,0,1-6.72,13.66,133.83,133.83,0,0,1-9,9.92c-5.41,5.43-11,10.67-16.46,16.07A24.21,24.21,0,0,0,441,482.7c-.94,2.25-.72,5.49.86,7.17,2.18,2.32,4.36,4.65,6.64,6.87,6,5.8,12,11.52,17.92,17.32a49.73,49.73,0,0,1,8.14,10.61,35.52,35.52,0,0,1,4.28,12.61A19.54,19.54,0,0,1,478.88,539.77Z"/><path class="cls-3" d="M818.52,539.14a23.16,23.16,0,0,1,1.8-9.24A42,42,0,0,1,828.45,517c6.55-7,13.25-13.81,19.84-20.74,2.64-2.77,5.19-5.62,7.76-8.44,1.5-1.65,1.53-5.27,0-7.08-2.45-2.92-4.8-5.95-7.47-8.66-5.82-5.91-11.85-11.61-17.73-17.45a45.4,45.4,0,0,1-10.53-15.81,22.7,22.7,0,0,1,1.21-20.24c4.63-8.37,11.83-13.19,21-15.16a21.81,21.81,0,0,1,11.35.65,44.11,44.11,0,0,1,13.6,6.86c6.58,5.09,12.45,10.95,18.41,16.71a113.41,113.41,0,0,0,9.87,9c5.3,4,8.9,3.52,14.15.46a19,19,0,0,0,3.11-2.21c1.89-1.71,3.7-3.52,5.51-5.32,3.63-3.59,7.18-7.26,10.88-10.77,2.77-2.64,5.65-5.17,8.61-7.59,3.5-2.84,7.56-4.62,11.76-6.28,11.61-4.6,24.89,1.51,30.83,9.44a30.15,30.15,0,0,1,5.22,12.19,13.88,13.88,0,0,1,.24,3.8,37.25,37.25,0,0,1-8.21,21.06c-3.23,3.92-7,7.42-10.57,11.06-4,4.09-8.13,8.09-12.14,12.2a24.25,24.25,0,0,0-5.12,8,5.36,5.36,0,0,0-.16,3.72,20.39,20.39,0,0,0,4.69,8.22c3.08,3.23,6.28,6.34,9.48,9.45,4.13,4,8.31,7.92,12.46,11.89s6.79,9.13,8.62,14.68c3.64,11-2.12,26.33-14.67,32a58.83,58.83,0,0,1-9.13,2.8,10.07,10.07,0,0,1-3.79.23c-5.76-.73-11.38-2.11-16-5.77s-8.8-7.37-13-11.27-8.19-8-12.29-12.06a31.15,31.15,0,0,0-7.86-5.38c-4.42-2.27-8.62-1.83-12.7.7a27.1,27.1,0,0,0-4.63,3.36c-3.2,3.11-6.16,6.46-9.37,9.57-4.13,4-8.32,7.91-12.62,11.71-5.94,5.26-13.08,7.77-20.87,8.68-3.24.37-6.33-.45-9.45-1.15-7.29-1.64-12.58-6-16.4-12.22C820,548,818.25,543.87,818.52,539.14Z"/><path class="cls-4" d="M829.26,1679.16c2.5.26,7,.63,11.38,1.18a44.17,44.17,0,0,0,15.2-1.07c6-1.36,10.15-5.09,12.65-10.62a46.7,46.7,0,0,0,3.36-10.92c1.76-9.45,5.62-18.21,9.35-27,.58-1.36,4.95-3.41,6.68-3.09,2.57.46,5.1,1.29,6.19,3.79a188.14,188.14,0,0,1,8.9,25.18,90.92,90.92,0,0,0,4.08,12.71c2.42,5.47,6.47,9.46,12.73,10.45,2.5.39,5.11,1,7.57.68,12.74-1.54,25.48-1,38.24-.5,2.48.09,4.22,3.27,3,5.52a33.73,33.73,0,0,1-1.73,3.39,58.74,58.74,0,0,1-13.1,13.83c-3.55,2.69-7.28,5.15-10.84,7.84s-7,5.49-10.45,8.34c-3.7,3.07-5.47,6.89-4.35,11.8a119.13,119.13,0,0,0,3.83,14.77,214.84,214.84,0,0,1,7.88,27.51,37.27,37.27,0,0,1,.39,5.71c.08,1.44-2.62,3.31-4.12,3a48,48,0,0,1-15.71-6.72c-4.26-2.8-8.32-5.88-12.48-8.83-4.67-3.32-9.23-6.82-14-9.92-4.1-2.64-8.61-2.39-12.73,0a126.92,126.92,0,0,0-11.09,7.44c-4.12,3-8,6.32-12.11,9.36a60.63,60.63,0,0,1-15.22,7.89c-3.17,1.19-6-.77-6.52-4.6a20.46,20.46,0,0,1-.42-3.79,48.51,48.51,0,0,1,3.48-16.72c1.52-3.51,3.1-7,4.29-10.63a67.61,67.61,0,0,0,2.8-11.08,19,19,0,0,0-7.31-18.63,111.63,111.63,0,0,0-9.51-6.36c-4.29-2.75-8.8-5.19-12.89-8.21a24.42,24.42,0,0,1-9.07-12c-.54-1.63.18-4.19,1.57-5,.54-.33,1-.72,1.57-1.08C815.78,1679.25,821.49,1679,829.26,1679.16Z"/><path class="cls-4" d="M594.37,1679.46c3.67.31,7.48.67,11.29.94a40.72,40.72,0,0,0,5.73.16c8.35-.6,14.56-4.67,18-12.23,2.1-4.61,4.06-9.39,4.55-14.55s2.26-9.94,4.09-14.69a22.1,22.1,0,0,1,8.05-10.43c2.35-1.63,5.46-1.49,6.71.5a37.47,37.47,0,0,1,3.05,4.85c1.78,4.08,3.5,8.2,4.9,12.42,1.6,4.83,2.7,9.83,4.26,14.67a64,64,0,0,0,4.19,10.65,14.3,14.3,0,0,0,10.41,7.63,54.8,54.8,0,0,0,11.44.67c7-.25,14-.59,21.05-.62a27.23,27.23,0,0,1,14.58,4c1.71,1,2.86,4.71,2,6.79a14.81,14.81,0,0,1-4.56,6c-8.08,6.22-15.94,12.75-24.61,18.18a36.6,36.6,0,0,0-6.12,4.56c-3.89,3.79-5.76,8.39-4.32,13.87,2.09,8,5.28,15.69,8.09,23.47a49.49,49.49,0,0,1,2.75,22.53c-.26,2.39-3.42,4-5.81,2.94-1.16-.53-2.34-1-3.49-1.55-6.39-3-12.1-7-17.77-11.21-5.14-3.77-10.31-7.5-15.54-11.14a30,30,0,0,0-5-2.67,9.44,9.44,0,0,0-7.41-.18,44.15,44.15,0,0,0-9.88,5.77c-5.19,3.7-10.14,7.74-15.27,11.53a62.94,62.94,0,0,1-16.62,9.29c-1.57.55-3.58-.49-4.53-2.42a16.24,16.24,0,0,1-1.63-11.13c1-4.31,2.55-8.53,4-12.74,1.67-4.81,3.67-9.51,5.19-14.36a34.38,34.38,0,0,0,1.82-13.19c-.21-2.51-.84-5.07-2.87-6.89-2.84-2.54-5.63-5.17-8.66-7.49-7.58-5.82-15.32-11.45-22.92-17.25a33.77,33.77,0,0,1-4-4c-2.23-2.41-1-8.48,2.15-9.91a16.65,16.65,0,0,1,5.38-1.86C582.72,1679.86,588.47,1679.73,594.37,1679.46Z"/><path class="cls-4" d="M360.49,1680.21c3.59-.3,10.6-.75,17.57-1.49,4.83-.52,8-3.62,10.33-7.65,3.79-6.7,6.08-14,7.89-21.43,1.2-5,2.27-9.94,3.66-14.84,1.52-5.38,9.26-8,14.37-5a7.79,7.79,0,0,1,3.8,4.12,120.85,120.85,0,0,1,3.71,12.82c1.78,8.81,5.29,17,8.37,25.36a11.61,11.61,0,0,0,1.92,3.25c1.21,1.47,2.59,2.9,4.58,3.2,3.15.47,6.31.94,9.48,1.12,10.21.59,20.42.12,30.63-.22,4.69-.15,8.59,2,12.19,4.82,1.36,1.07,2,4,1.12,5.12-1.6,2-3,4.09-4.78,5.9-4.91,5.08-10.78,9-16.58,12.91s-11.74,7.68-16.87,12.54a9.14,9.14,0,0,0-2.65,6.88,20.9,20.9,0,0,0,.59,5.69c.78,3.08,1.82,6.09,2.84,9.1,2.25,6.63,4.63,13.22,6.79,19.89a35.06,35.06,0,0,1,1.2,17c-.24,1.42-2.83,2.86-4.36,2.47-5.68-1.42-10.6-4.41-15.35-7.58-5.31-3.54-10.29-7.56-15.51-11.22-3.64-2.56-7.36-5-11.21-7.26a9.15,9.15,0,0,0-9.14-.24,73.55,73.55,0,0,0-8.27,4.76c-5.2,3.68-10.24,7.59-15.32,11.44a94.15,94.15,0,0,1-14.65,9,25.63,25.63,0,0,1-3.59,1.2c-1.54.49-4.17-1-4.51-2.36-1.26-5.08-.76-10.1.47-15.1,2-8.06,5.08-15.75,7.83-23.56a87.79,87.79,0,0,0,2.38-9.22,14.26,14.26,0,0,0,.41-3.79c-.1-2.57-.64-5-2.61-6.91-4.59-4.5-9.89-8-15.15-11.65-6.3-4.34-12.78-8.46-18.4-13.69a51.53,51.53,0,0,1-5-5.71,2.62,2.62,0,0,1,.09-3.46,16.65,16.65,0,0,1,13-6.9C346.86,1679.35,352,1679.86,360.49,1680.21Z"/><path class="cls-4" d="M1080.14,1680.23c3.4-.24,9.13-.6,14.85-1.06s9.13-3.85,11.37-8.85a99.94,99.94,0,0,0,7.28-21.67,50.2,50.2,0,0,1,5.26-14.28,16.16,16.16,0,0,1,6.65-6.66,2.76,2.76,0,0,1,3.4.22,18.92,18.92,0,0,1,6.18,7.14,54.55,54.55,0,0,1,5.47,14.21c1.27,5.58,2.64,11.16,4.44,16.59a32.46,32.46,0,0,0,4.54,8.3,12.48,12.48,0,0,0,7.8,5.11,39.9,39.9,0,0,0,9.5.88c7.65-.26,15.3-.6,22.95-.63a58.78,58.78,0,0,1,9.49,1.06c5.18.82,7.74,4.48,6.65,9.5a8.6,8.6,0,0,1-1.48,3.45,24.57,24.57,0,0,1-4.06,4c-6.52,5.12-13,10.32-20.25,14.39a33.71,33.71,0,0,0-3.29,1.93c-9.43,6.81-11.38,13.79-8.54,25.09,1.08,4.29,3.21,8.3,4.73,12.49,1.74,4.78,3.62,9.54,4.9,14.46,1.11,4.29,1.53,8.76.08,13.18a2.36,2.36,0,0,1-2.83,1.86,30.47,30.47,0,0,1-12.56-4.23,115.59,115.59,0,0,1-11.19-7.32c-4.14-3-8-6.3-12.18-9.24a82.32,82.32,0,0,0-8.24-4.8,9.11,9.11,0,0,0-9.13.3,107.1,107.1,0,0,0-9.6,6.23c-5.21,3.67-10.25,7.6-15.53,11.16s-10.65,7-16.89,8.74c-1.47.41-4.14-1.23-4.19-2.74,0-.63-.25-1.25-.27-1.87a44.61,44.61,0,0,1,2-17q4.07-11.73,7.83-23.55a41,41,0,0,0,1.53-7.46,10.14,10.14,0,0,0-3.1-8.62,82.8,82.8,0,0,0-11.86-9.61c-4.68-3.32-9.53-6.41-14.17-9.78a49.15,49.15,0,0,1-11-10.57,4.78,4.78,0,0,1,1.48-6.5c5-3.09,10.3-5,16.25-4.75C1068.88,1679.59,1073.34,1679.86,1080.14,1680.23Z"/><path class="cls-2" d="M119.18,1682.17c3.83,0,7.66.1,11.48,0a25.06,25.06,0,0,0,14.14-5.23,17.73,17.73,0,0,0,4-4.1,34.43,34.43,0,0,0,5-10.24c1.44-4.89,2.7-9.83,4.34-14.65,2.05-6,4.31-12,8.71-16.83a5.32,5.32,0,0,1,5.22-1.16,10.34,10.34,0,0,1,1.7.84,18.82,18.82,0,0,1,6.79,9c1.4,4.23,2.57,8.54,3.79,12.83a97.67,97.67,0,0,0,8.1,19.35,15.8,15.8,0,0,0,10.15,8.13,44.25,44.25,0,0,0,9.37,1.7c5.73.25,11.48,0,17.22,0,3.18,0,6.37-.28,9.55-.17a19.89,19.89,0,0,1,7.36,1.86c3.4,1.52,5,6.56,3,9.72a30.59,30.59,0,0,1-7.56,8.54c-3.08,2.26-6.23,4.43-9.41,6.57-3.7,2.48-7.57,4.73-11.17,7.36-8.89,6.52-10.65,14.41-8.58,23.53a101.5,101.5,0,0,0,4.8,14.48,86.87,86.87,0,0,1,4.66,16.51,16.89,16.89,0,0,1-.37,5.64c-.49,3-4.06,5.43-7.08,5.24a25.44,25.44,0,0,1-14-5.54c-3.54-2.69-6.71-5.88-10.17-8.69a55.93,55.93,0,0,0-7.73-5.58c-7.82-4.43-15.92-4.3-23.8-.31-6.29,3.18-11.66,7.77-17,12.3a35.53,35.53,0,0,1-13.41,7.15,23.31,23.31,0,0,1-3.76.51c-1.44.16-4.07-1.83-4.35-3.15a31.77,31.77,0,0,1,.64-15.14c1.3-4.92,3.15-9.69,4.6-14.57,1.63-5.49,3.25-11,4.54-16.57a8.79,8.79,0,0,0-2.91-8.64c-2.8-2.59-5.77-5-8.76-7.38-7-5.56-14.09-11-21-16.59a23.93,23.93,0,0,1-6.25-7.16,4.84,4.84,0,0,1,.74-5.17,14.31,14.31,0,0,1,6.52-3.81,55.16,55.16,0,0,1,9.45-1.34c3.81-.14,7.64.27,11.47.44Z"/></g></g></svg>