<svg xmlns="http://www.w3.org/2000/svg" viewBox="0 0 1288.86 1870.4"><defs><style>.cls-1{fill:#3b3939;}.cls-2{fill:#f47710;}.cls-3{fill:#030201;}.cls-4{fill:#fff;}</style></defs><g id="Capa_2" data-name="Capa 2"><g id="Capa_1-2" data-name="Capa 1"><rect class="cls-1" y="1537.4" width="1282" height="333" rx="166.5"/><path class="cls-2" d="M690.69,0c1,.73,2,2,3.06,2.12,5.07.61,10.17,1,15.27,1.3,9.58.48,19.19.62,28.55,3.1,10.87.8,21.52,3,32.17,5.08,20.06,3.89,40,8.15,59.55,14.35,2.43.78,5.17,1.09,7.22,2.44,6.56,4.31,14.08,6,21.31,8.46,74.94,24.9,142.06,63.5,202.12,114.56,48.51,41.25,90.75,88.06,125.78,141.26a599.74,599.74,0,0,1,81.48,184.85c6.78,27,6.77,27.3,11.74,56.17,3.68,21.42,6.6,42.9,7.58,64.61.09,1.92.15,3.84.38,5.74,2.22,18.44,2.06,37,1.84,55.48a219.7,219.7,0,0,1-1.42,24.85,127.35,127.35,0,0,0-1,13.37c-.37,16-3.68,31.69-5.28,47.57-4.63,24.45-9.58,48.8-16.51,72.76-14.45,49.94-35.32,97.09-61,142.18a652.67,652.67,0,0,1-65.22,94.52A608.7,608.7,0,0,1,986.83,1186c-46.54,28.44-96.05,50.37-147.9,67.16-23.11,7.49-46.69,13.18-70.37,18.45-10.83,1-21.25,4.69-32.18,5-13.83,2.82-27.94,3-41.91,4.6-18.5,2-37,2.28-55.56,2.14-10.88-.08-21.75-.28-32.54-1.89a53.13,53.13,0,0,0-7.65-.66c-16.05-.08-31.79-3.18-47.64-5.15-8.85-1.1-17.69-2.72-26.42-4.59-14.35-3.09-28.71-6.15-42.93-9.86-76.9-20-147.74-52.81-211.91-99.75a660,660,0,0,1-163-171.29c-36.47-55.41-62.91-115.32-80.2-179.29-5.89-21.82-7.65-31.37-12.42-56-2.3-11.92-3.3-24-5.73-35.91-.77-3.74-.77-7.62-1.14-11.44-.72-7.62-1.49-15.24-2.15-22.88-.44-5.08-.89-10.18-1.07-15.28-.72-20.43-.78-40.87,0-61.29.25-6.37,1-12.73,1.55-19.08.28-3.18.87-6.35,1-9.53.37-14.74,3.16-29.21,5.46-43.69a533.82,533.82,0,0,1,12.15-56.1c20.58-75.9,53.26-146.15,98.91-210.3,31.29-44,67.91-83,109.14-117.85A629.84,629.84,0,0,1,361.94,66.81a679.29,679.29,0,0,1,107-41.59,44.05,44.05,0,0,1,9.31-2.12,30.91,30.91,0,0,0,9.17-2.54,158.24,158.24,0,0,1,37-9.67c10.13-1.38,20.2-3.22,30.43-3.79a29.34,29.34,0,0,0,5.69-.81c7.49-2,15.17-2.26,22.81-2.81,2.27-.17,3.14-1.64,3.76-3.48ZM627.64,797.42c-8.14-.12-22.09,1-36,3a272,272,0,0,0-66.26,18.24c-30.32,12.74-57.46,30.5-82.18,52-6.73,5.86-13.24,12-19.45,18.43a46.38,46.38,0,0,0-13.5,34.69c0,1.28.08,2.55.12,3.83a35.94,35.94,0,0,0,6.75,19.63,49.78,49.78,0,0,0,32.76,21.45,38.49,38.49,0,0,0,17.1-.71,58.59,58.59,0,0,0,25-13.62c2.82-2.59,5.52-5.31,8.35-7.9a227.16,227.16,0,0,1,45.12-32.15,177.28,177.28,0,0,1,63.4-20.61A214.41,214.41,0,0,1,688.61,899a297.1,297.1,0,0,1,60.78,22.92,372.84,372.84,0,0,1,47.32,29c4.67,3.34,9.36,6.67,14.11,9.9a57.72,57.72,0,0,0,15.64,7.1A31.11,31.11,0,0,0,839.73,969a57.21,57.21,0,0,0,21.62-7.33,44,44,0,0,0,16.71-18c4-7.54,5.23-15.6,5.2-24a40.12,40.12,0,0,0-8.75-24.78,73.85,73.85,0,0,0-7.7-8.5,124.33,124.33,0,0,0-10.23-8.65c-10.69-8.09-21.59-15.89-33-23-47.19-29.63-98-49-153.75-54.74C657.87,797.69,645.73,797.53,627.64,797.42ZM502.53,522.7c.06-11.09-.33-14.24-3.25-24.77q-9.5-34.15-41-50.53c-8.05-4.17-16.61-6.47-25.42-8.29C418,436,403.6,438,389.49,443s-25.87,13.8-35.51,25.28c-16.16,19.21-26.26,50.16-14.93,81,11.57,31.56,35,49.39,67.7,55.58,12.18,1.11,24.19.92,36.13-2.51,23.51-6.77,40.76-20.93,51.35-42.82A79.8,79.8,0,0,0,502.53,522.7Zm371.3,82.68c7.44.52,16.21-1.21,24.81-3.75a78.61,78.61,0,0,0,30-16.41c19.4-17.05,28-39,29-64.3,0-.64,0-1.28,0-1.92-.88-12.19-3.45-23.87-9.24-34.82a89.45,89.45,0,0,0-21.22-26.85c-16.22-13.77-34.91-20.77-56.36-19.94-5.14.2-10.08,1.44-15.09,2.43a84.61,84.61,0,0,0-29.82,12.5c-21.62,14-35.11,39.67-35.84,62.37-.15,4.46-.17,8.93-.08,13.38a71.84,71.84,0,0,0,3.79,20.59C804.27,581.13,835.33,605,873.83,605.38Z"/><path class="cls-3" d="M1073.12,1680.21c-6.93-.29-11.39-.56-15.85-.64-4.7-.08-8.61,2-12.12,4.92-1,.87-1.7,4.21-.93,5.28a42.36,42.36,0,0,0,3.37,4.54c4.38,4.68,9.65,8.3,14.81,12,4.65,3.35,9.33,6.67,13.84,10.19a65.73,65.73,0,0,1,7,6.5,6.76,6.76,0,0,1,1.66,7c-4.46,13.93-9,27.83-13.45,41.75-.93,2.9.35,6.2,3.22,8.34,2.17,1.61,4.68,2.2,7.15,1a58.26,58.26,0,0,0,8.23-4.79c5.19-3.68,10.12-7.74,15.34-11.39,4.68-3.28,9.5-6.39,14.45-9.26,3.46-2,7.21-2.52,10.67.3,9.39,7.65,20.06,13.53,29.29,21.41,1.89,1.61,4.39,2.54,6.69,3.61,2.49,1.16,6.4,0,8.69-2.29a7.26,7.26,0,0,0,1.84-7c-1-4.33-2.4-8.57-3.7-12.83-1.85-6.08-3.86-12.11-5.6-18.23a33.09,33.09,0,0,1-1.07-11.35,14.4,14.4,0,0,1,3.33-8.76,60.28,60.28,0,0,1,6.55-6.9A150.82,150.82,0,0,1,1195,1700a44.79,44.79,0,0,0,6.17-4.43,9.68,9.68,0,0,0,3.49-6.54,6.42,6.42,0,0,0-2.86-6.52,16.05,16.05,0,0,0-9-2.83c-9.57,0-19.13.2-28.7.13a92.84,92.84,0,0,1-11.41-.92,8,8,0,0,1-5.88-4.38,19.84,19.84,0,0,1-1.87-3.31c-3.11-9.68-6.85-19.16-9.39-29a83,83,0,0,0-3.12-9c-1.27-3.3-4-4.67-7.3-5.35-1.85-.37-5.9,1.46-6.55,3.13q-3.1,8-6.1,16c-2.44,6.56-4.75,13.16-7.24,19.69a22.89,22.89,0,0,1-2.76,5c-2.65,3.77-6,6.62-10.82,7.07C1084.66,1679.42,1077.66,1679.86,1073.12,1680.21Zm-234.48,0c0-.15,0-.29,0-.44-3.19,0-6.39.06-9.58,0a68.41,68.41,0,0,0-22.62,3.42c-1.61.52-2.29,2.42-1.36,4.73a25.08,25.08,0,0,0,2.57,5.06,39.25,39.25,0,0,0,11.11,10.41c4.84,3.1,9.71,6.13,14.5,9.31a32.39,32.39,0,0,1,8.2,7.94,15.61,15.61,0,0,1,2.92,7c.68,4.49.55,9-1.5,13.11-4.33,8.63-6.51,18-9.26,27.1a27.89,27.89,0,0,0-.81,5.65,7.44,7.44,0,0,0,3.09,6.59,6.83,6.83,0,0,0,7.18.81c2.75-1.61,5.54-3.16,8.16-5,5.79-4,11.45-8.13,17.23-12.12a114.38,114.38,0,0,1,11.23-7.27,12.87,12.87,0,0,1,12.87.34A114.81,114.81,0,0,1,909.71,1769c2.91,2.48,5.87,4.92,9,7.18A25.46,25.46,0,0,0,931,1780.9c2.09.24,5.21-1.89,5.83-4.11a15.28,15.28,0,0,0,.39-7.56,34.58,34.58,0,0,0-2.09-7.34c-2.54-5.24-3.23-11-5.12-16.43a38.74,38.74,0,0,1-2-17,16.44,16.44,0,0,1,3.52-8.7,59.52,59.52,0,0,1,11.16-10.42c6.13-4.59,12.51-8.84,18.69-13.35a11.49,11.49,0,0,0,4.11-6.28,5.25,5.25,0,0,0-.24-3.74,7.67,7.67,0,0,0-5.72-4.54c-6.28-1.39-12.69-1.3-19.07-1.56-7-.29-14-.6-21-1.17-4.74-.38-8.25-3.19-11.08-6.81a26.88,26.88,0,0,1-3-4.86,126.06,126.06,0,0,1-8-21.44c-1-3.7-2.16-7.35-3.34-11-1.06-3.27-3.54-5.14-6.58-6.49-2.05-.91-5.83,0-6.88,1.65-.67,1.08-1.38,2.13-2,3.23-3.5,6.14-5.65,12.8-7.45,19.6a111.72,111.72,0,0,1-7.77,21.54,8.76,8.76,0,0,1-7.5,5.09C850.12,1679.71,844.37,1679.92,838.64,1680.23Zm-241.6,0c-3.57-.23-6.74-.49-9.93-.63a70.9,70.9,0,0,0-9.55-.17,14.79,14.79,0,0,0-11.29,6.28,3.07,3.07,0,0,0-.24,3.56c2,4.15,5.43,7.07,8.87,9.86,4,3.21,8.18,6.08,12.3,9.08s8.31,5.91,12.39,9a53.13,53.13,0,0,1,4.21,3.89,8.34,8.34,0,0,1,2.64,6.88,44.26,44.26,0,0,1-1.71,9.35c-2.58,8.53-5.48,17-8.12,25.46a36.3,36.3,0,0,0-1.37,16.94c.11.62.32,1.61.68,1.72a9.63,9.63,0,0,0,3.72.43,11.76,11.76,0,0,0,3.57-1.24,107.71,107.71,0,0,0,16.33-9.89c5.68-4.11,11.37-8.21,17-12.38a34.51,34.51,0,0,1,8.41-4.48,4.67,4.67,0,0,1,3.61.27,42.43,42.43,0,0,1,9.85,5.83c5.17,3.72,10.22,7.61,15.32,11.42a66.49,66.49,0,0,0,16.71,9.16,13.2,13.2,0,0,0,3.71.59,2.79,2.79,0,0,0,3-1.76,21.1,21.1,0,0,0-.1-16.75,185.14,185.14,0,0,1-9.38-29c-1.29-5.35.39-10.08,4.07-14.08a48.53,48.53,0,0,1,4.15-4,153.22,153.22,0,0,1,18.56-13.44,47.1,47.1,0,0,0,7.46-5.92,13.55,13.55,0,0,0,4.3-10.25,3,3,0,0,0-1.83-3,34.28,34.28,0,0,0-14.71-3.67,144.93,144.93,0,0,0-19.09,1.14,39.07,39.07,0,0,1-11.41-.71c-6.18-1.12-10.23-4.81-13-10.18a28.39,28.39,0,0,1-2.28-5.23c-1.51-5.53-2.69-11.14-4.25-16.65-2.08-7.4-4.76-14.52-11-19.65a4,4,0,0,0-5-.19,18.26,18.26,0,0,0-5.64,7.56c-1.73,4.1-3,8.38-4.48,12.58-2.7,7.82-5.36,15.65-8.1,23.45a15.51,15.51,0,0,1-1.77,3.34c-1.43,2.18-3.3,4.09-6,4.31C610.68,1679.61,603.67,1679.89,597,1680.27Zm-242.81,1.26v0c-5.75,0-11.5-.09-17.24.06a26.53,26.53,0,0,0-5.57,1.15c-2.27.56-3.8,4-3,6.19a28.36,28.36,0,0,0,9.07,12.09c5,4,10.23,7.64,15.27,11.56,3,2.34,6,4.77,8.76,7.38a13.69,13.69,0,0,1,4.35,12.14,121.81,121.81,0,0,1-3,15c-1.76,6.77-4,13.43-5.82,20.18a18.14,18.14,0,0,0,0,9.45c.8,3.08,4.42,5.26,7.31,4.38a39,39,0,0,0,11.95-5.91c6.17-4.53,12.25-9.2,18.52-13.59a58.41,58.41,0,0,1,8.41-4.5,9,9,0,0,1,7.44,0,50.06,50.06,0,0,1,8.51,4.33c5.83,3.9,11.41,8.18,17.21,12.12a110.24,110.24,0,0,0,11.44,6.94,7.9,7.9,0,0,0,8.93-1.09,7.12,7.12,0,0,0,2.71-6.75,91.87,91.87,0,0,0-5.31-20.27c-1.56-4.18-3.54-8.24-4.73-12.52-2.83-10.19-.73-17.62,7.27-23.87,2-1.56,4.14-3,6.28-4.37,3.2-2.11,6.5-4.05,9.66-6.21a43.11,43.11,0,0,0,9.87-9,52.72,52.72,0,0,0,4-6.45c1.15-2-.38-5.77-2.42-6.43-8-2.56-16.09-3.72-24.51-2.5a71.16,71.16,0,0,1-13.36.72c-8.47-.42-17.06-5.06-20.44-14.76-1.47-4.21-2.53-8.56-4-12.78-2.45-7.23-4.35-14.69-8.13-21.41a7.13,7.13,0,0,0-6.21-3.76,7.54,7.54,0,0,0-6.52,3.33,19.21,19.21,0,0,0-2.57,5.07c-2.55,7.21-4.94,14.47-7.46,21.69-1.68,4.81-3.3,9.65-5.27,14.34a12.1,12.1,0,0,1-8.56,7,24.79,24.79,0,0,1-5.65.93C365.73,1681.61,360,1681.53,354.23,1681.53Zm-238.95.28,0-.57c-5.73.21-11.48.22-17.18.71-2.47.21-4.9,1.3-7.28,2.16-2,.71-3.37,4.72-2.41,6.48a22.61,22.61,0,0,0,1.94,3.26,57.4,57.4,0,0,0,12.81,11.42c4.73,3.25,9.5,6.46,14.15,9.83a36.72,36.72,0,0,1,9.4,9.45c1.44,2.22,2.26,4.66,1.46,7.23-3.41,11-6.23,22.08-10.36,32.8a28.25,28.25,0,0,0-1.91,7.35,8.67,8.67,0,0,0,2.23,7.08c1.35,1.37,2.84,2.5,5,2,6.37-1.35,12-4.39,17.16-8.14,4.66-3.35,9.08-7,13.78-10.34a82.7,82.7,0,0,1,9.83-5.89,8,8,0,0,1,7.39-.21,98.47,98.47,0,0,1,9.94,5.68c4.79,3.17,9.38,6.64,14.09,9.93a64.26,64.26,0,0,0,19,8.86,18.86,18.86,0,0,0,3.78.33c1.71.15,3.71-2,3.42-3.69-1.78-10.06-5.25-19.66-8.28-29.37a113.65,113.65,0,0,1-3.39-12.92c-1.29-6.85.47-12.62,5.89-17.13a165,165,0,0,1,18.69-13.33,71.73,71.73,0,0,0,7.72-5.62,17.57,17.57,0,0,0,5.24-7.86c1.23-3.4-1.68-8.1-5.35-8.47-2.54-.26-5.08-.61-7.62-.69-8.94-.28-17.88-.45-26.82-.67a33.75,33.75,0,0,1-11.24-2.09,11.78,11.78,0,0,1-5.79-4.75,16.53,16.53,0,0,1-1.89-3.31c-3-8.38-6.46-16.65-8.6-25.33a41.69,41.69,0,0,0-4.14-10.66,21.68,21.68,0,0,0-3.65-4.37,5.72,5.72,0,0,0-8.37.27,35.21,35.21,0,0,0-2.34,3,40.35,40.35,0,0,0-4.81,10.38c-1.54,5.52-3.1,11-4.79,16.51a94.24,94.24,0,0,1-3.79,10.82c-1.59,3.57-4.15,6.46-8.21,7.42a62,62,0,0,1-9.38,1.84C125.5,1681.68,120.38,1681.65,115.28,1681.81Z"/><path class="cls-3" d="M627.64,797.42c18.09.11,30.23.27,42.23,2.49,55.72,5.71,106.56,25.11,153.75,54.74,11.37,7.13,22.27,14.93,33,23a124.33,124.33,0,0,1,10.23,8.65,73.85,73.85,0,0,1,7.7,8.5,40.12,40.12,0,0,1,8.75,24.78c0,8.45-1.25,16.51-5.2,24a44,44,0,0,1-16.71,18A57.21,57.21,0,0,1,839.73,969a31.11,31.11,0,0,1-13.27-1.09,57.72,57.72,0,0,1-15.64-7.1c-4.75-3.23-9.44-6.56-14.11-9.9a372.84,372.84,0,0,0-47.32-29A297.1,297.1,0,0,0,688.61,899a214.41,214.41,0,0,0-79.84-5.23,177.28,177.28,0,0,0-63.4,20.61,227.16,227.16,0,0,0-45.12,32.15c-2.83,2.59-5.53,5.31-8.35,7.9a58.59,58.59,0,0,1-25,13.62,38.49,38.49,0,0,1-17.1.71,49.78,49.78,0,0,1-32.76-21.45,35.94,35.94,0,0,1-6.75-19.63c0-1.28-.09-2.55-.12-3.83a46.38,46.38,0,0,1,13.5-34.69c6.21-6.41,12.72-12.57,19.45-18.43,24.72-21.52,51.86-39.28,82.18-52a272,272,0,0,1,66.26-18.24C605.55,798.41,619.5,797.3,627.64,797.42Z"/><path class="cls-3" d="M502.53,522.7a79.8,79.8,0,0,1-8.3,36.85c-10.59,21.89-27.84,36.05-51.35,42.82-11.94,3.43-23.95,3.62-36.13,2.51-32.73-6.19-56.13-24-67.7-55.58-11.33-30.88-1.23-61.83,14.93-81,9.64-11.48,21.27-20.28,35.51-25.28s28.48-7,43.38-3.87c8.81,1.82,17.37,4.12,25.42,8.29q31.54,16.39,41,50.53C502.2,508.46,502.59,511.61,502.53,522.7Z"/><path class="cls-3" d="M873.83,605.38c-38.5-.36-69.56-24.25-80-56.72A71.84,71.84,0,0,1,790,528.07c-.09-4.45-.07-8.92.08-13.38.73-22.7,14.22-48.39,35.84-62.37a84.61,84.61,0,0,1,29.82-12.5c5-1,10-2.23,15.09-2.43,21.45-.83,40.14,6.17,56.36,19.94a89.45,89.45,0,0,1,21.22,26.85c5.79,10.95,8.36,22.63,9.24,34.82,0,.64,0,1.28,0,1.92-1,25.32-9.65,47.25-29,64.3a78.61,78.61,0,0,1-30,16.41C890,604.17,881.27,605.9,873.83,605.38Z"/><path class="cls-4" d="M1073.12,1680.21c4.54-.35,11.54-.79,18.51-1.43,4.78-.45,8.17-3.3,10.82-7.07a22.89,22.89,0,0,0,2.76-5c2.49-6.53,4.8-13.13,7.24-19.69q3-8,6.1-16c.65-1.67,4.7-3.5,6.55-3.13,3.28.68,6,2,7.3,5.35a83,83,0,0,1,3.12,9c2.54,9.86,6.28,19.34,9.39,29a19.84,19.84,0,0,0,1.87,3.31,8,8,0,0,0,5.88,4.38,92.84,92.84,0,0,0,11.41.92c9.57.07,19.13-.12,28.7-.13a16.05,16.05,0,0,1,9,2.83,6.42,6.42,0,0,1,2.86,6.52,9.68,9.68,0,0,1-3.49,6.54A44.79,44.79,0,0,1,1195,1700a150.82,150.82,0,0,0-18.46,13.57,60.28,60.28,0,0,0-6.55,6.9,14.4,14.4,0,0,0-3.33,8.76,33.09,33.09,0,0,0,1.07,11.35c1.74,6.12,3.75,12.15,5.6,18.23,1.3,4.26,2.72,8.5,3.7,12.83a7.26,7.26,0,0,1-1.84,7c-2.29,2.31-6.2,3.45-8.69,2.29-2.3-1.07-4.8-2-6.69-3.61-9.23-7.88-19.9-13.76-29.29-21.41-3.46-2.82-7.21-2.3-10.67-.3-5,2.87-9.77,6-14.45,9.26-5.22,3.65-10.15,7.71-15.34,11.39a58.26,58.26,0,0,1-8.23,4.79c-2.47,1.21-5,.62-7.15-1-2.87-2.14-4.15-5.44-3.22-8.34,4.47-13.92,9-27.82,13.45-41.75a6.76,6.76,0,0,0-1.66-7,65.73,65.73,0,0,0-7-6.5c-4.51-3.52-9.19-6.84-13.84-10.19-5.16-3.73-10.43-7.35-14.81-12a42.36,42.36,0,0,1-3.37-4.54c-.77-1.07-.11-4.41.93-5.28,3.51-3,7.42-5,12.12-4.92C1061.73,1679.65,1066.19,1679.92,1073.12,1680.21Z"/><path class="cls-4" d="M838.64,1680.23c5.73-.31,11.48-.52,17.2-1a8.76,8.76,0,0,0,7.5-5.09,111.72,111.72,0,0,0,7.77-21.54c1.8-6.8,3.95-13.46,7.45-19.6.62-1.1,1.33-2.15,2-3.23,1.05-1.69,4.83-2.56,6.88-1.65,3,1.35,5.52,3.22,6.58,6.49,1.18,3.63,2.34,7.28,3.34,11a126.06,126.06,0,0,0,8,21.44,26.88,26.88,0,0,0,3,4.86c2.83,3.62,6.34,6.43,11.08,6.81,7,.57,14,.88,21,1.17,6.38.26,12.79.17,19.07,1.56a7.67,7.67,0,0,1,5.72,4.54,5.25,5.25,0,0,1,.24,3.74,11.49,11.49,0,0,1-4.11,6.28c-6.18,4.51-12.56,8.76-18.69,13.35a59.52,59.52,0,0,0-11.16,10.42,16.44,16.44,0,0,0-3.52,8.7,38.74,38.74,0,0,0,2,17c1.89,5.43,2.58,11.19,5.12,16.43a34.58,34.58,0,0,1,2.09,7.34,15.28,15.28,0,0,1-.39,7.56c-.62,2.22-3.74,4.35-5.83,4.11a25.46,25.46,0,0,1-12.36-4.69c-3.09-2.26-6-4.7-9-7.18a114.81,114.81,0,0,0-17.16-12.16,12.87,12.87,0,0,0-12.87-.34,114.38,114.38,0,0,0-11.23,7.27c-5.78,4-11.44,8.15-17.23,12.12-2.62,1.8-5.41,3.35-8.16,5a6.83,6.83,0,0,1-7.18-.81,7.44,7.44,0,0,1-3.09-6.59,27.89,27.89,0,0,1,.81-5.65c2.75-9.14,4.93-18.47,9.26-27.1,2-4.09,2.18-8.62,1.5-13.11a15.61,15.61,0,0,0-2.92-7,32.39,32.39,0,0,0-8.2-7.94c-4.79-3.18-9.66-6.21-14.5-9.31A39.25,39.25,0,0,1,807.63,1693a25.08,25.08,0,0,1-2.57-5.06c-.93-2.31-.25-4.21,1.36-4.73a68.41,68.41,0,0,1,22.62-3.42c3.19.07,6.39,0,9.58,0C838.63,1679.94,838.63,1680.08,838.64,1680.23Z"/><path class="cls-4" d="M597,1680.27c6.63-.38,13.64-.66,20.63-1.23,2.67-.22,4.54-2.13,6-4.31a15.51,15.51,0,0,0,1.77-3.34c2.74-7.8,5.4-15.63,8.1-23.45,1.45-4.2,2.75-8.48,4.48-12.58a18.26,18.26,0,0,1,5.64-7.56,4,4,0,0,1,5,.19c6.25,5.13,8.93,12.25,11,19.65,1.56,5.51,2.74,11.12,4.25,16.65a28.39,28.39,0,0,0,2.28,5.23c2.76,5.37,6.81,9.06,13,10.18a39.07,39.07,0,0,0,11.41.71,144.93,144.93,0,0,1,19.09-1.14,34.28,34.28,0,0,1,14.71,3.67,3,3,0,0,1,1.83,3,13.55,13.55,0,0,1-4.3,10.25,47.1,47.1,0,0,1-7.46,5.92,153.22,153.22,0,0,0-18.56,13.44,48.53,48.53,0,0,0-4.15,4c-3.68,4-5.36,8.73-4.07,14.08a185.14,185.14,0,0,0,9.38,29,21.1,21.1,0,0,1,.1,16.75,2.79,2.79,0,0,1-3,1.76,13.2,13.2,0,0,1-3.71-.59,66.49,66.49,0,0,1-16.71-9.16c-5.1-3.81-10.15-7.7-15.32-11.42a42.43,42.43,0,0,0-9.85-5.83,4.67,4.67,0,0,0-3.61-.27,34.51,34.51,0,0,0-8.41,4.48c-5.62,4.17-11.31,8.27-17,12.38a107.71,107.71,0,0,1-16.33,9.89,11.76,11.76,0,0,1-3.57,1.24,9.63,9.63,0,0,1-3.72-.43c-.36-.11-.57-1.1-.68-1.72a36.3,36.3,0,0,1,1.37-16.94c2.64-8.51,5.54-16.93,8.12-25.46a44.26,44.26,0,0,0,1.71-9.35,8.34,8.34,0,0,0-2.64-6.88,53.13,53.13,0,0,0-4.21-3.89c-4.08-3-8.26-6-12.39-9s-8.34-5.87-12.3-9.08c-3.44-2.79-6.85-5.71-8.87-9.86a3.07,3.07,0,0,1,.24-3.56,14.79,14.79,0,0,1,11.29-6.28,70.9,70.9,0,0,1,9.55.17C590.3,1679.78,593.47,1680,597,1680.27Z"/><path class="cls-2" d="M354.23,1681.53c5.75,0,11.5.08,17.24,0a24.79,24.79,0,0,0,5.65-.93,12.1,12.1,0,0,0,8.56-7c2-4.69,3.59-9.53,5.27-14.34,2.52-7.22,4.91-14.48,7.46-21.69a19.21,19.21,0,0,1,2.57-5.07,7.54,7.54,0,0,1,6.52-3.33,7.13,7.13,0,0,1,6.21,3.76c3.78,6.72,5.68,14.18,8.13,21.41,1.44,4.22,2.5,8.57,4,12.78,3.38,9.7,12,14.34,20.44,14.76a71.16,71.16,0,0,0,13.36-.72c8.42-1.22,16.51-.06,24.51,2.5,2,.66,3.57,4.4,2.42,6.43a52.72,52.72,0,0,1-4,6.45,43.11,43.11,0,0,1-9.87,9c-3.16,2.16-6.46,4.1-9.66,6.21-2.14,1.39-4.27,2.81-6.28,4.37-8,6.25-10.1,13.68-7.27,23.87,1.19,4.28,3.17,8.34,4.73,12.52a91.87,91.87,0,0,1,5.31,20.27,7.12,7.12,0,0,1-2.71,6.75,7.9,7.9,0,0,1-8.93,1.09,110.24,110.24,0,0,1-11.44-6.94c-5.8-3.94-11.38-8.22-17.21-12.12a50.06,50.06,0,0,0-8.51-4.33,9,9,0,0,0-7.44,0,58.41,58.41,0,0,0-8.41,4.5c-6.27,4.39-12.35,9.06-18.52,13.59a39,39,0,0,1-11.95,5.91c-2.89.88-6.51-1.3-7.31-4.38a18.14,18.14,0,0,1,0-9.45c1.84-6.75,4.06-13.41,5.82-20.18a121.81,121.81,0,0,0,3-15,13.69,13.69,0,0,0-4.35-12.14c-2.78-2.61-5.74-5-8.76-7.38-5-3.92-10.28-7.58-15.27-11.56a28.36,28.36,0,0,1-9.07-12.09c-.82-2.14.71-5.63,3-6.19a26.53,26.53,0,0,1,5.57-1.15c5.74-.15,11.49-.06,17.24-.06Z"/><path class="cls-2" d="M115.28,1681.81c5.1-.16,10.22-.13,15.3-.55a62,62,0,0,0,9.38-1.84c4.06-1,6.62-3.85,8.21-7.42a94.24,94.24,0,0,0,3.79-10.82c1.69-5.48,3.25-11,4.79-16.51a40.35,40.35,0,0,1,4.81-10.38,35.21,35.21,0,0,1,2.34-3,5.72,5.72,0,0,1,8.37-.27,21.68,21.68,0,0,1,3.65,4.37,41.69,41.69,0,0,1,4.14,10.66c2.14,8.68,5.55,17,8.6,25.33a16.53,16.53,0,0,0,1.89,3.31,11.78,11.78,0,0,0,5.79,4.75,33.75,33.75,0,0,0,11.24,2.09c8.94.22,17.88.39,26.82.67,2.54.08,5.08.43,7.62.69,3.67.37,6.58,5.07,5.35,8.47a17.57,17.57,0,0,1-5.24,7.86,71.73,71.73,0,0,1-7.72,5.62,165,165,0,0,0-18.69,13.33c-5.42,4.51-7.18,10.28-5.89,17.13a113.65,113.65,0,0,0,3.39,12.92c3,9.71,6.5,19.31,8.28,29.37.29,1.66-1.71,3.84-3.42,3.69a18.86,18.86,0,0,1-3.78-.33,64.26,64.26,0,0,1-19-8.86c-4.71-3.29-9.3-6.76-14.09-9.93a98.47,98.47,0,0,0-9.94-5.68,8,8,0,0,0-7.39.21,82.7,82.7,0,0,0-9.83,5.89c-4.7,3.3-9.12,7-13.78,10.34-5.21,3.75-10.79,6.79-17.16,8.14-2.16.46-3.65-.67-5-2a8.67,8.67,0,0,1-2.23-7.08,28.25,28.25,0,0,1,1.91-7.35c4.13-10.72,6.95-21.85,10.36-32.8.8-2.57,0-5-1.46-7.23a36.72,36.72,0,0,0-9.4-9.45c-4.65-3.37-9.42-6.58-14.15-9.83a57.4,57.4,0,0,1-12.81-11.42,22.61,22.61,0,0,1-1.94-3.26c-1-1.76.45-5.77,2.41-6.48,2.38-.86,4.81-1.95,7.28-2.16,5.7-.49,11.45-.5,17.18-.71Z"/></g></g></svg>