<svg xmlns="http://www.w3.org/2000/svg" viewBox="0 0 1285.28 1870.4"><defs><style>.cls-1{fill:#3b3939;}.cls-2{fill:#f47710;}.cls-3{fill:#030201;}.cls-4{fill:#fff;}</style></defs><g id="Capa_2" data-name="Capa 2"><g id="Capa_1-2" data-name="Capa 1"><rect class="cls-1" y="1537.4" width="1282" height="333" rx="166.5"/><path class="cls-2" d="M682.71,0c1.28,1.43,2.68,2.74,4.73,2.85,7.66.4,15.32.82,23,1.13s15.35.57,22.86,2.45a46.62,46.62,0,0,0,5.67,1C785.22,13.3,833.71,26.51,877.49,44A673.07,673.07,0,0,1,1050.65,145.1a616.55,616.55,0,0,1,147.71,172.18,646.78,646.78,0,0,1,61.39,142.05c5.8,19.59,11,39.33,14.38,59.51,3.19,11.09,3.42,22.71,5.92,33.94.83,3.71.88,7.6,1.24,11.42s.38,7.68,1,11.44c2.25,12.64,2.61,25.41,2.77,38.18q.3,24.9.05,49.82c-.16,14-.4,28.11-2.87,42a36.51,36.51,0,0,0-.5,5.72c-.29,12.18-2.72,24.1-4.54,36.08-1.73,11.35-4,22.61-6.35,33.86A594,594,0,0,1,1247,864a588,588,0,0,1-52.73,108.3,695,695,0,0,1-103.68,130.15c-63.86,62.68-137.82,109.41-222.25,139.55-23.48,8.39-47.47,15-71.51,21.41-16.35,2.92-32.37,7.48-48.93,9.24-13,3.47-26.62,3.37-39.81,5.89-5.62,1.08-11.46,1-17.2,1.36-10.22.55-20.43,1.14-30.64,1.95a320.85,320.85,0,0,1-47.93-.06c-8.94-.61-17.86-1.31-26.8-1.81-7.67-.44-15.34-.67-22.87-2.42a36.31,36.31,0,0,0-5.68-.9c-14.07-1-27.81-4-41.6-6.65a571.07,571.07,0,0,1-66.66-17.5q-27.33-8.88-53.71-20.37c-60.24-26.09-115.39-60.5-166.09-102-55.52-45.44-100.74-99.65-136.14-162-2.84-5-5.55-10.06-8.36-15.08a49,49,0,0,0-3.94-6.55c-4-5.06-7.77-10.17-8.56-16.83-1.5-2.81-2.84-5.73-4.54-8.42a190,190,0,0,1-18.84-39.71c-2.3-6.63-4.5-13.31-6.19-20.11a99.28,99.28,0,0,0-5.46-16.32c-8.82-20-14.75-40.74-18.9-62.13-2.8-14.41-5.67-28.8-7.2-43.41-3.52-15.64-3.41-31.73-5.88-47.5a144.82,144.82,0,0,1-1.12-17.2q-1.28-36.39,0-72.8c.29-8.3.61-16.6,2.19-24.79a49.29,49.29,0,0,0,.7-5.7c2-26.81,7.22-53.12,13.46-79.19A589.38,589.38,0,0,1,45,414c18.53-47.12,41.44-91.93,69.7-134a602.72,602.72,0,0,1,91.89-107.69,626.46,626.46,0,0,1,109.3-80.71A706.87,706.87,0,0,1,455.51,29.19a439.6,439.6,0,0,1,53.68-14.11c10.41-3.28,21.4-3.75,31.91-6.51,15.3-1.14,30.28-5.08,45.71-5,2.29,0,3.08-1.75,3.76-3.54ZM644.27,835.92v-.07H483.17c-5.75,0-11.5.08-17.26.06a49.28,49.28,0,0,0-16.84,3.28,47.78,47.78,0,0,0-24.85,20.07,37.72,37.72,0,0,0-6.28,19.83c0,2.55-.07,5.11-.07,7.66a40,40,0,0,0,3.92,16.64c5.95,13.13,16.17,21.05,30.09,24.34a82,82,0,0,0,19,2.13c16.62,0,33.24.23,49.86.24q118.9,0,237.81,0c17.89,0,35.79-.16,53.69-.25,3.84,0,7.67-.09,11.51-.13a69.74,69.74,0,0,0,17-2.64c15.13-4,28-18.77,29.86-34.17a77.75,77.75,0,0,0,.15-19.1,32.31,32.31,0,0,0-1-5.63c-3.16-10.1-8.91-18.37-18-24a52.36,52.36,0,0,0-25.3-8.09c-4.46-.21-8.94-.19-13.42-.19ZM421.56,605.23c1.92,0,3.84-.13,5.74,0,7.92.66,15.14-1.66,22-5.15,4.55-2.3,9-4.76,13.42-7.36a45.19,45.19,0,0,0,12.93-11.21,77.1,77.1,0,0,1,7.76-8.41,45.09,45.09,0,0,0,7.92-10.64c3.83-6.72,7.16-13.47,7.77-21.3a25.7,25.7,0,0,1,.8-3.74c3.39-14.76,1.58-29.28-3.22-43.29C489.12,472,474.19,456,453,445.82c-9.3-4.46-19.29-6.68-29.47-7.78a72.07,72.07,0,0,0-26.56,2A83.11,83.11,0,0,0,374.29,450c-5.4,3.38-10.5,7.22-15.67,11a43.22,43.22,0,0,0-10.3,11.17c-6.16,9.11-10.78,18.74-12.1,29.76-3.67,10.51-3.09,21.34-2.42,32.17a31.09,31.09,0,0,0,.87,5.67c2.38,9.29,5.47,18.33,10.72,26.46C361,590.33,383.31,603.22,412,605.2,415.17,605.42,418.37,605.23,421.56,605.23Zm533.81-83.49c0-11-.66-14.67-3.39-24.48-9.4-33.73-40.44-59.5-79.83-59.77a85.17,85.17,0,0,0-22.68,3.06,80.86,80.86,0,0,0-38.93,23.15c-15.15,16.13-21.67,35.68-22.58,57.39a47.5,47.5,0,0,0,.42,7.62c.37,3.16.94,6.3,1.5,9.44,3.48,19.63,13,35.93,28.49,48.31,21.81,17.41,46.46,22.57,73.79,16.08C930.69,593.38,956.64,557.84,955.37,521.74Z"/><path class="cls-3" d="M1074.62,1680v-.4c-3.83,0-7.66,0-11.49,0a43.22,43.22,0,0,0-18.54,3.87,3.2,3.2,0,0,0-1.77,3.17,10.7,10.7,0,0,0,3.36,8.58,83.73,83.73,0,0,0,7.38,6c8.22,6,16.52,12,24.74,18,4,3,5.17,7.07,4.4,11.82a25.35,25.35,0,0,1-1.25,5.59c-4.13,10-6.47,20.63-10.37,30.72a19,19,0,0,0-1.22,5.56c-.21,3.48,1.59,5.93,4.5,7.79,2.45,1.58,4.94,1.15,7.31.27a21.13,21.13,0,0,0,4.85-3c8.23-6,16.42-12.12,24.66-18.13a50,50,0,0,1,6.44-4.1,10.37,10.37,0,0,1,9.23-.3,27.6,27.6,0,0,1,5,2.73c8.29,5.93,16.5,12,24.79,17.93a64.24,64.24,0,0,0,6.51,4,9.12,9.12,0,0,0,10.61-1.31,3.63,3.63,0,0,0,1.61-3.29c-.82-4.37-1.73-8.73-2.89-13-1.34-4.91-3-9.74-4.51-14.59a52.41,52.41,0,0,1-2.33-15.06c-.1-5.3,1.33-10.12,5.11-14a110.66,110.66,0,0,1,9.77-9.12c6-4.74,12.28-9.11,18.38-13.73a12.2,12.2,0,0,0,4-6.32,6.71,6.71,0,0,0-3.78-7.84,22.12,22.12,0,0,0-5.45-1.63c-5.08-.43-10.18-.74-15.28-.75s-10.21.37-15.31.61a39,39,0,0,1-11.39-1.18,12.62,12.62,0,0,1-7.44-5.66,28.13,28.13,0,0,1-3.83-8.69,172.15,172.15,0,0,0-7.64-23.59c-1.14-3-1.3-6.26-3.19-9-1.53-2.17-3.4-3.79-6.19-3.91a7.51,7.51,0,0,0-7.64,4.53c-1.23,2.92-2.43,5.88-3.41,8.89-2.77,8.47-5,17.17-8.23,25.44-4.6,11.63-4.3,12.11-18.07,13C1082.29,1680.18,1078.45,1680,1074.62,1680Zm-717.15.82c-6.56-.29-10.39-.53-14.22-.61a35.13,35.13,0,0,0-14.91,2.95c-1.22.54-3,3.22-2.86,4.63a14.25,14.25,0,0,0,2.53,7.1,34,34,0,0,0,9.76,9.07c4.85,3.09,9.8,6,14.62,9.13a29.82,29.82,0,0,1,8.21,7.94,19,19,0,0,1,3.66,10.69,25.94,25.94,0,0,1-1.89,11.23c-3.33,7.61-6.54,15.26-8.65,23.3a24.43,24.43,0,0,0-.41,9.49c.5,3.62,4.87,6.83,8.43,6a17.87,17.87,0,0,0,3.64-1.12,33.07,33.07,0,0,0,5-2.83c7.3-5.17,14.51-10.46,21.8-15.63a74,74,0,0,1,8.05-5.13,10.45,10.45,0,0,1,9.28-.28,51,51,0,0,1,8.24,4.8c7.85,5.48,15.56,11.17,23.43,16.64a47.08,47.08,0,0,0,6.77,3.5c2.33,1.12,6.73-.31,8.59-2.61a7.85,7.85,0,0,0,1.83-7.11c-2.33-8.61-4.36-17.31-7.76-25.62a100.23,100.23,0,0,1-3.5-10.9,15.65,15.65,0,0,1,.14-7.57,17.73,17.73,0,0,1,5.54-9.85,59.17,59.17,0,0,1,7.61-5.76,200.76,200.76,0,0,0,20.25-14.48,16.81,16.81,0,0,0,4.61-6c1.62-3.47-.37-8.3-3.79-9.51a35.2,35.2,0,0,0-11.28-1.87c-7-.09-14.06.06-21.09.11a66.28,66.28,0,0,1-15.27-1.17,9.69,9.69,0,0,1-5.93-4.46c-2.52-3.76-3.84-8-5.33-12.24-1.7-4.81-3.08-9.73-4.46-14.64a64.34,64.34,0,0,0-6.14-14,32.4,32.4,0,0,0-3.5-4.48c-1.53-1.86-5-1.59-6.79.27a28.49,28.49,0,0,0-6.28,9.53,112.1,112.1,0,0,0-4.71,14.54,74.51,74.51,0,0,1-7.65,19.55,11.41,11.41,0,0,1-7.34,5.71,45.25,45.25,0,0,1-7.54,1.31C363.69,1680.71,359.21,1680.73,357.47,1680.78Zm477.72-1v.34l-19.16-.46a17,17,0,0,0-10.65,3.63c-1.89,1.38-2.91,4.75-1.86,6.83a14.75,14.75,0,0,0,1.91,3.27,23.8,23.8,0,0,0,4.16,3.93c5.77,4,11.67,7.81,17.47,11.77a87.13,87.13,0,0,1,9.25,6.78c7.28,6.57,9,14,6.51,22.51a75.42,75.42,0,0,1-2.64,7.18c-1.18,3-2.61,5.83-3.67,8.83-1.92,5.41-4.07,10.76-5,16.47a34,34,0,0,0-.3,3.78c-.22,4.47,5.36,8.42,9.32,6.76a63,63,0,0,0,13.19-7.7c5.63-4.2,11.24-8.44,17-12.47a49.77,49.77,0,0,1,8.35-4.66,11.27,11.27,0,0,1,9.32-.16,51.94,51.94,0,0,1,8.37,4.6c6.32,4.33,12.45,9,18.74,13.33,3.14,2.19,6.43,4.17,9.7,6.17,2.46,1.5,5.77.81,8.74-1.49a4.57,4.57,0,0,0,1.89-3.19,20.62,20.62,0,0,0-.91-9.44q-4.18-12.72-8.7-25.33a44.5,44.5,0,0,1-2.55-13.11,8.52,8.52,0,0,1,2.73-6.88c2.85-2.56,5.63-5.21,8.67-7.52,4.06-3.1,8.35-5.89,12.51-8.87a80.87,80.87,0,0,0,13.08-11.2,74.39,74.39,0,0,0,4.65-6.07c1.18-1.62.52-4.18-1-4.65a72.89,72.89,0,0,0-20.82-2.67c-5.12,0-10.24.21-15.35.06s-10.21-.55-15.29-1c-3.47-.33-5.76-2.59-7.25-5.55a68,68,0,0,1-3.83-8.76c-1.62-4.83-2.83-9.8-4.36-14.67-2.1-6.7-4.43-13.34-8.59-19.11a27.53,27.53,0,0,0-3.94-4.14,2.64,2.64,0,0,0-3.44.1c-3.1,2.45-4.92,5.87-6.23,9.46-2.84,7.79-5.39,15.68-8.09,23.52-1.45,4.22-2.77,8.5-4.51,12.6-1.84,4.35-4.78,7.41-10.1,7.26C846.71,1679.64,841,1679.76,835.19,1679.76Zm-239.12.75c-9.32-.73-17.61-.58-25.73,1.62a23.12,23.12,0,0,0-3.47,1.52,4,4,0,0,0-2.19,3,8.54,8.54,0,0,0,1.43,7.22,18.91,18.91,0,0,0,3.85,4.22c6.64,5,13.41,9.79,20.12,14.68,2.57,1.87,5.23,3.66,7.63,5.74,4.13,3.57,5.77,8.3,5.62,13.67a36.8,36.8,0,0,1-2.32,11.21c-1.49,4.21-3.22,8.33-4.8,12.5a77.46,77.46,0,0,0-4.32,18.58c-.46,3.9,3.55,7.35,7.41,6.46a45,45,0,0,0,17.37-7.74c5.1-3.85,10-8,15.14-11.74,10.72-7.85,14.59-7.8,25.64.3,5.15,3.77,10,7.88,15.19,11.66a43.26,43.26,0,0,0,17.3,7.87c2,.4,5.7-1.22,6.32-3.27a18.77,18.77,0,0,0,1-5.57,18.31,18.31,0,0,0-1-5.6c-2.84-8.47-5.3-17-7.94-25.58-3.25-10.47-.47-18.8,8-25.44,5.51-4.35,11.16-8.54,16.76-12.77,2.54-1.92,5.25-3.64,7.64-5.73a17.32,17.32,0,0,0,3.39-4.56c2.39-4.22-.22-9.72-4.8-10.34-1.89-.25-3.78-.64-5.69-.74-7.65-.38-15.31-.74-23-1a77.85,77.85,0,0,1-15.23-1.56,13.19,13.19,0,0,1-7.77-5.22,22,22,0,0,1-2.92-4.93c-2.25-6-4.65-11.87-6.16-18.1a96.2,96.2,0,0,0-4-12.76,16.72,16.72,0,0,0-7.2-8.66,6.56,6.56,0,0,0-7.06.86,27.86,27.86,0,0,0-6,9.69c-2,5.35-3.5,10.92-5.23,16.39-1.34,4.25-2.44,8.61-4.15,12.71a17.43,17.43,0,0,1-14.42,11.17,43.88,43.88,0,0,1-5.71.51C601.46,1680.77,598.27,1680.58,596.07,1680.51Zm-478.18.23c-5.9-.36-9.72-.65-13.55-.8a29.13,29.13,0,0,0-13,2.72,18.41,18.41,0,0,0-3.17,2.08c-1.27.92-2.05,3.76-1.66,5.11a17.81,17.81,0,0,0,3.61,6.65,40.22,40.22,0,0,0,8.72,7.43c4.28,2.78,8.72,5.33,13,8.18a51.79,51.79,0,0,1,7.49,5.93c5.95,5.86,8,12.93,5.46,21-1.14,3.64-2.69,7.16-4,10.74-1.56,4.18-3.14,8.35-4.61,12.57a32,32,0,0,0-1.67,11.29,21,21,0,0,0,.58,3.76c.57,2.67,5.18,5.28,7.56,4.26a43.47,43.47,0,0,0,5.17-2.42,281.38,281.38,0,0,0,25.39-17.13,48,48,0,0,1,8.21-4.85,11.88,11.88,0,0,1,11.07.28,51.7,51.7,0,0,1,8,5.16,249.83,249.83,0,0,0,23.4,16.64,28,28,0,0,0,5.2,2.34c4.14,1.55,9.6-2.06,9.88-6.37a25.64,25.64,0,0,0-1.19-9.43c-2.69-8.51-5.55-17-8.3-25.45a57.65,57.65,0,0,1-2.1-7.33,12.27,12.27,0,0,1,2.63-10.75,52,52,0,0,1,5.37-5.43,130.6,130.6,0,0,1,15.43-11.32,93,93,0,0,0,9.33-6.67,22.3,22.3,0,0,0,6.6-9.23,5.2,5.2,0,0,0-2.67-6.35,53.6,53.6,0,0,0-24.5-3c-3.81.44-7.63.86-11.45,1a27.81,27.81,0,0,1-14.72-3.52,16.23,16.23,0,0,1-4.37-3.64,21.92,21.92,0,0,1-4.56-8.33c-1.26-4.28-2.24-8.64-3.6-12.88-1.93-6.07-4-12.11-6.23-18.06a15.11,15.11,0,0,0-3.33-4.57c-2.33-2.49-8.44-2.16-10.37.63a28.3,28.3,0,0,0-3.64,6.67c-2.92,8.43-5.49,17-8.4,25.41a67.3,67.3,0,0,1-4.55,10.49,11.07,11.07,0,0,1-7.49,5.5A82.79,82.79,0,0,1,117.89,1680.74Z"/><path class="cls-3" d="M644.27,835.92H813c4.48,0,9,0,13.42.19a52.36,52.36,0,0,1,25.3,8.09c9.07,5.62,14.82,13.89,18,24a32.31,32.31,0,0,1,1,5.63,77.75,77.75,0,0,1-.15,19.1c-1.89,15.4-14.73,30.21-29.86,34.17a69.74,69.74,0,0,1-17,2.64c-3.84,0-7.67.11-11.51.13-17.9.09-35.8.24-53.69.25q-118.9,0-237.81,0c-16.62,0-33.24-.25-49.86-.24a82,82,0,0,1-19-2.13c-13.92-3.29-24.14-11.21-30.09-24.34a40,40,0,0,1-3.92-16.64c0-2.55,0-5.11.07-7.66a37.72,37.72,0,0,1,6.28-19.83,47.78,47.78,0,0,1,24.85-20.07,49.28,49.28,0,0,1,16.84-3.28c5.76,0,11.51-.06,17.26-.06h161.1Z"/><path class="cls-3" d="M421.56,605.23c-3.19,0-6.39.19-9.57,0-28.68-2-51-14.87-66.6-39.06-5.25-8.13-8.34-17.17-10.72-26.46a31.09,31.09,0,0,1-.87-5.67c-.67-10.83-1.25-21.66,2.42-32.17,1.32-11,5.94-20.65,12.1-29.76a43.22,43.22,0,0,1,10.3-11.17c5.17-3.73,10.27-7.57,15.67-11A83.11,83.11,0,0,1,397,440.08a72.07,72.07,0,0,1,26.56-2c10.18,1.1,20.17,3.32,29.47,7.78C474.19,456,489.12,472,496.72,494.15c4.8,14,6.61,28.53,3.22,43.29a25.7,25.7,0,0,0-.8,3.74c-.61,7.83-3.94,14.58-7.77,21.3a45.09,45.09,0,0,1-7.92,10.64,77.1,77.1,0,0,0-7.76,8.41,45.19,45.19,0,0,1-12.93,11.21c-4.38,2.6-8.87,5.06-13.42,7.36-6.9,3.49-14.12,5.81-22,5.15C425.4,605.1,423.48,605.23,421.56,605.23Z"/><path class="cls-3" d="M955.37,521.74c1.27,36.1-24.68,71.64-63.21,80.8-27.33,6.49-52,1.33-73.79-16.08-15.51-12.38-25-28.68-28.49-48.31-.56-3.14-1.13-6.28-1.5-9.44a47.5,47.5,0,0,1-.42-7.62c.91-21.71,7.43-41.26,22.58-57.39a80.86,80.86,0,0,1,38.93-23.15,85.17,85.17,0,0,1,22.68-3.06c39.39.27,70.43,26,79.83,59.77C954.71,507.07,955.34,510.7,955.37,521.74Z"/><path class="cls-4" d="M1074.62,1680c3.83,0,7.67.22,11.49,0,13.77-.92,13.47-1.4,18.07-13,3.27-8.27,5.46-17,8.23-25.44,1-3,2.18-6,3.41-8.89a7.51,7.51,0,0,1,7.64-4.53c2.79.12,4.66,1.74,6.19,3.91,1.89,2.7,2,6,3.19,9a172.15,172.15,0,0,1,7.64,23.59,28.13,28.13,0,0,0,3.83,8.69,12.62,12.62,0,0,0,7.44,5.66,39,39,0,0,0,11.39,1.18c5.1-.24,10.21-.63,15.31-.61s10.2.32,15.28.75a22.12,22.12,0,0,1,5.45,1.63,6.71,6.71,0,0,1,3.78,7.84,12.2,12.2,0,0,1-4,6.32c-6.1,4.62-12.39,9-18.38,13.73a110.66,110.66,0,0,0-9.77,9.12c-3.78,3.83-5.21,8.65-5.11,14a52.41,52.41,0,0,0,2.33,15.06c1.55,4.85,3.17,9.68,4.51,14.59,1.16,4.29,2.07,8.65,2.89,13a3.63,3.63,0,0,1-1.61,3.29,9.12,9.12,0,0,1-10.61,1.31,64.24,64.24,0,0,1-6.51-4c-8.29-5.94-16.5-12-24.79-17.93a27.6,27.6,0,0,0-5-2.73,10.37,10.37,0,0,0-9.23.3,50,50,0,0,0-6.44,4.1c-8.24,6-16.43,12.1-24.66,18.13a21.13,21.13,0,0,1-4.85,3c-2.37.88-4.86,1.31-7.31-.27-2.91-1.86-4.71-4.31-4.5-7.79a19,19,0,0,1,1.22-5.56c3.9-10.09,6.24-20.7,10.37-30.72a25.35,25.35,0,0,0,1.25-5.59c.77-4.75-.37-8.87-4.4-11.82-8.22-6-16.52-12-24.74-18a83.73,83.73,0,0,1-7.38-6,10.7,10.7,0,0,1-3.36-8.58,3.2,3.2,0,0,1,1.77-3.17,43.22,43.22,0,0,1,18.54-3.87c3.83,0,7.66,0,11.49,0Z"/><path class="cls-2" d="M357.47,1680.78c1.74,0,6.22-.07,10.68-.38a45.25,45.25,0,0,0,7.54-1.31,11.41,11.41,0,0,0,7.34-5.71,74.51,74.51,0,0,0,7.65-19.55,112.1,112.1,0,0,1,4.71-14.54,28.49,28.49,0,0,1,6.28-9.53c1.83-1.86,5.26-2.13,6.79-.27A32.4,32.4,0,0,1,412,1634a64.34,64.34,0,0,1,6.14,14c1.38,4.91,2.76,9.83,4.46,14.64,1.49,4.19,2.81,8.48,5.33,12.24a9.69,9.69,0,0,0,5.93,4.46,66.28,66.28,0,0,0,15.27,1.17c7,0,14.06-.2,21.09-.11a35.2,35.2,0,0,1,11.28,1.87c3.42,1.21,5.41,6,3.79,9.51a16.81,16.81,0,0,1-4.61,6,200.76,200.76,0,0,1-20.25,14.48,59.17,59.17,0,0,0-7.61,5.76,17.73,17.73,0,0,0-5.54,9.85,15.65,15.65,0,0,0-.14,7.57,100.23,100.23,0,0,0,3.5,10.9c3.4,8.31,5.43,17,7.76,25.62a7.85,7.85,0,0,1-1.83,7.11c-1.86,2.3-6.26,3.73-8.59,2.61a47.08,47.08,0,0,1-6.77-3.5c-7.87-5.47-15.58-11.16-23.43-16.64a51,51,0,0,0-8.24-4.8,10.45,10.45,0,0,0-9.28.28,74,74,0,0,0-8.05,5.13c-7.29,5.17-14.5,10.46-21.8,15.63a33.07,33.07,0,0,1-5,2.83,17.87,17.87,0,0,1-3.64,1.12c-3.56.83-7.93-2.38-8.43-6a24.43,24.43,0,0,1,.41-9.49c2.11-8,5.32-15.69,8.65-23.3a25.94,25.94,0,0,0,1.89-11.23A19,19,0,0,0,360.6,1721a29.82,29.82,0,0,0-8.21-7.94c-4.82-3.13-9.77-6-14.62-9.13a34,34,0,0,1-9.76-9.07,14.25,14.25,0,0,1-2.53-7.1c-.13-1.41,1.64-4.09,2.86-4.63a35.13,35.13,0,0,1,14.91-2.95C347.08,1680.25,350.91,1680.49,357.47,1680.78Z"/><path class="cls-4" d="M835.19,1679.76c5.76,0,11.52-.12,17.27,0,5.32.15,8.26-2.91,10.1-7.26,1.74-4.1,3.06-8.38,4.51-12.6,2.7-7.84,5.25-15.73,8.09-23.52,1.31-3.59,3.13-7,6.23-9.46a2.64,2.64,0,0,1,3.44-.1,27.53,27.53,0,0,1,3.94,4.14c4.16,5.77,6.49,12.41,8.59,19.11,1.53,4.87,2.74,9.84,4.36,14.67a68,68,0,0,0,3.83,8.76c1.49,3,3.78,5.22,7.25,5.55,5.08.49,10.18.88,15.29,1s10.23-.07,15.35-.06a72.89,72.89,0,0,1,20.82,2.67c1.57.47,2.23,3,1,4.65a74.39,74.39,0,0,1-4.65,6.07,80.87,80.87,0,0,1-13.08,11.2c-4.16,3-8.45,5.77-12.51,8.87-3,2.31-5.82,5-8.67,7.52a8.52,8.52,0,0,0-2.73,6.88,44.5,44.5,0,0,0,2.55,13.11q4.5,12.62,8.7,25.33a20.62,20.62,0,0,1,.91,9.44,4.57,4.57,0,0,1-1.89,3.19c-3,2.3-6.28,3-8.74,1.49-3.27-2-6.56-4-9.7-6.17-6.29-4.38-12.42-9-18.74-13.33a51.94,51.94,0,0,0-8.37-4.6,11.27,11.27,0,0,0-9.32.16,49.77,49.77,0,0,0-8.35,4.66c-5.75,4-11.36,8.27-17,12.47a63,63,0,0,1-13.19,7.7c-4,1.66-9.54-2.29-9.32-6.76a34,34,0,0,1,.3-3.78c.91-5.71,3.06-11.06,5-16.47,1.06-3,2.49-5.87,3.67-8.83a75.42,75.42,0,0,0,2.64-7.18c2.45-8.5.77-15.94-6.51-22.51a87.13,87.13,0,0,0-9.25-6.78c-5.8-4-11.7-7.77-17.47-11.77a23.8,23.8,0,0,1-4.16-3.93,14.75,14.75,0,0,1-1.91-3.27c-1-2.08,0-5.45,1.86-6.83a17,17,0,0,1,10.65-3.63l19.16.46Z"/><path class="cls-2" d="M596.07,1680.51c2.2.07,5.39.26,8.59.25a43.88,43.88,0,0,0,5.71-.51,17.43,17.43,0,0,0,14.42-11.17c1.71-4.1,2.81-8.46,4.15-12.71,1.73-5.47,3.19-11,5.23-16.39a27.86,27.86,0,0,1,6-9.69,6.56,6.56,0,0,1,7.06-.86,16.72,16.72,0,0,1,7.2,8.66,96.2,96.2,0,0,1,4,12.76c1.51,6.23,3.91,12.14,6.16,18.1a22,22,0,0,0,2.92,4.93,13.19,13.19,0,0,0,7.77,5.22,77.85,77.85,0,0,0,15.23,1.56c7.67.25,15.33.61,23,1,1.91.1,3.8.49,5.69.74,4.58.62,7.19,6.12,4.8,10.34a17.32,17.32,0,0,1-3.39,4.56c-2.39,2.09-5.1,3.81-7.64,5.73-5.6,4.23-11.25,8.42-16.76,12.77-8.42,6.64-11.2,15-8,25.44,2.64,8.53,5.1,17.11,7.94,25.58a18.31,18.31,0,0,1,1,5.6,18.77,18.77,0,0,1-1,5.57c-.62,2-4.27,3.67-6.32,3.27a43.26,43.26,0,0,1-17.3-7.87c-5.14-3.78-10-7.89-15.19-11.66-11.05-8.1-14.92-8.15-25.64-.3-5.15,3.77-10,7.89-15.14,11.74a45,45,0,0,1-17.37,7.74c-3.86.89-7.87-2.56-7.41-6.46a77.46,77.46,0,0,1,4.32-18.58c1.58-4.17,3.31-8.29,4.8-12.5a36.8,36.8,0,0,0,2.32-11.21c.15-5.37-1.49-10.1-5.62-13.67-2.4-2.08-5.06-3.87-7.63-5.74-6.71-4.89-13.48-9.71-20.12-14.68a18.91,18.91,0,0,1-3.85-4.22,8.54,8.54,0,0,1-1.43-7.22,4,4,0,0,1,2.19-3,23.12,23.12,0,0,1,3.47-1.52C578.46,1679.93,586.75,1679.78,596.07,1680.51Z"/><path class="cls-2" d="M117.89,1680.74a82.79,82.79,0,0,0,18.89-1.67,11.07,11.07,0,0,0,7.49-5.5,67.3,67.3,0,0,0,4.55-10.49c2.91-8.44,5.48-17,8.4-25.41a28.3,28.3,0,0,1,3.64-6.67c1.93-2.79,8-3.12,10.37-.63a15.11,15.11,0,0,1,3.33,4.57c2.26,6,4.3,12,6.23,18.06,1.36,4.24,2.34,8.6,3.6,12.88a21.92,21.92,0,0,0,4.56,8.33,16.23,16.23,0,0,0,4.37,3.64,27.81,27.81,0,0,0,14.72,3.52c3.82-.19,7.64-.61,11.45-1a53.6,53.6,0,0,1,24.5,3,5.2,5.2,0,0,1,2.67,6.35,22.3,22.3,0,0,1-6.6,9.23,93,93,0,0,1-9.33,6.67,130.6,130.6,0,0,0-15.43,11.32,52,52,0,0,0-5.37,5.43,12.27,12.27,0,0,0-2.63,10.75,57.65,57.65,0,0,0,2.1,7.33c2.75,8.49,5.61,16.94,8.3,25.45a25.64,25.64,0,0,1,1.19,9.43c-.28,4.31-5.74,7.92-9.88,6.37a28,28,0,0,1-5.2-2.34,249.83,249.83,0,0,1-23.4-16.64,51.7,51.7,0,0,0-8-5.16,11.88,11.88,0,0,0-11.07-.28,48,48,0,0,0-8.21,4.85,281.38,281.38,0,0,1-25.39,17.13,43.47,43.47,0,0,1-5.17,2.42c-2.38,1-7-1.59-7.56-4.26a21,21,0,0,1-.58-3.76,32,32,0,0,1,1.67-11.29c1.47-4.22,3-8.39,4.61-12.57,1.34-3.58,2.89-7.1,4-10.74,2.51-8.07.49-15.14-5.46-21a51.79,51.79,0,0,0-7.49-5.93c-4.23-2.85-8.67-5.4-13-8.18a40.22,40.22,0,0,1-8.72-7.43,17.81,17.81,0,0,1-3.61-6.65c-.39-1.35.39-4.19,1.66-5.11a18.41,18.41,0,0,1,3.17-2.08,29.13,29.13,0,0,1,13-2.72C108.17,1680.09,112,1680.38,117.89,1680.74Z"/></g></g></svg>