<svg xmlns="http://www.w3.org/2000/svg" viewBox="0 0 1285.52 1870.4"><defs><style>.cls-1{fill:#3b3939;}.cls-2{fill:#0bbd50;}.cls-3{fill:#030201;}.cls-4{fill:#fff;}</style></defs><g id="Capa_2" data-name="Capa 2"><g id="Capa_1-2" data-name="Capa 1"><rect class="cls-1" x="0.39" y="1537.4" width="1282" height="333" rx="166.5"/><path class="cls-2" d="M698.15,0c.44,1.86,1,3.48,3.4,3.68a576.57,576.57,0,0,1,64.55,9,628.47,628.47,0,0,1,133.22,42A716.92,716.92,0,0,1,1002,110.45c13.94,9.11,27.39,18.83,39.64,30.15a79.21,79.21,0,0,0,8.95,7.2c19.14,13,35.87,28.79,51.61,45.64,6.11,6.54,12.09,13.2,18,19.89,8.07,9.08,16,18.23,24,27.38,8.42,9.64,16.31,19.65,22.55,30.9a139.57,139.57,0,0,0,8.36,12.83c39.67,55.76,67.77,117,86.17,182.72a592.11,592.11,0,0,1,13.42,59.74c3.23,18.89,5.72,37.84,7.86,56.88,2.8,24.84,3,49.71,2.86,74.62-.1,14.69-.42,29.38-2.66,44-.29,1.89-.39,3.81-.54,5.72-1.81,23.6-6.08,46.8-11.07,69.91-15.11,69.9-41.71,135.26-78.1,196.69a604.08,604.08,0,0,1-103.48,130.15,632.84,632.84,0,0,1-104.74,80.48c-47,29-96.39,52.74-148.87,70a627.55,627.55,0,0,1-87.34,21.8c-41.15,7.26-82.55,9.43-124.22,7.91-7-.26-14.06-.6-21.09-1a213,213,0,0,1-24.81-2.43c-10.08-1.7-20.41-1.74-30.36-4.42-29.16-4.28-57.66-11.48-85.77-20.16a737.91,737.91,0,0,1-157.64-69.24A614.16,614.16,0,0,1,203,1113,578.42,578.42,0,0,1,84,961.37,659.38,659.38,0,0,1,30.25,830.56a775.86,775.86,0,0,1-18.2-76.32c-2.22-11.9-4.8-23.8-5.5-36-3.83-20.16-4.16-40.66-5.61-61A355.93,355.93,0,0,1,1.75,596c.26-2.54.5-5.09.63-7.64C4.49,548,12,508.58,22.87,469.75a594.59,594.59,0,0,1,43.4-110.3,693,693,0,0,1,74.78-115.69,664,664,0,0,1,84.39-88.86A602.45,602.45,0,0,1,426.74,38.59a634.92,634.92,0,0,1,90.72-24.05c15.72-2.93,31.41-5.87,47.34-7.47,8.9-.9,17.76-2.22,26.65-3.25,2.43-.29,2.8-1.94,3-3.82ZM879.37,841.54c-.06-1.14-.18-3-.26-5a36.64,36.64,0,0,0-5.81-18c-4.47-7.2-10.31-13.11-18-16.79-6.34-3-13-5.29-20.3-4.87-2.55.14-5.11.12-7.67.17a27.29,27.29,0,0,0-12.82,3.48c-2.78,1.54-5.55,3.13-8.18,4.92-6.37,4.32-11.81,9.76-17.57,14.8a219.29,219.29,0,0,1-50.91,33.81c-17.37,8.21-35.31,14.8-54.66,16.72a62.64,62.64,0,0,0-7.53,1.38,61.65,61.65,0,0,1-13.33,1.33c-11.5.06-23,.63-34.32-2.36a18,18,0,0,0-3.8-.53c-9.69-.32-18.92-3.14-28.1-5.7a301.84,301.84,0,0,1-86.75-39.59c-8-5.3-15.7-11-23.52-16.5-2.09-1.48-4-3.19-6.2-4.5-7.2-4.33-14.82-7.45-23.42-7.45-1.92,0-3.83,0-5.75,0a34.51,34.51,0,0,0-19.91,6c-10.34,6.83-18.52,15.5-22.12,27.88-4,13.8-2.07,26.51,6.27,38.15a52,52,0,0,0,7.7,8.48c5.24,4.67,10.6,9.25,16.21,13.46a407.52,407.52,0,0,0,107.54,57.88C559.7,953.51,584,959.62,598,962.25c11.31,2.13,22.63,4,34.16,4.31a51.42,51.42,0,0,1,7.6,1c10.18,1.84,20.35,1.51,30.53.09,3.17-.44,6.33-1,9.51-1.2a206.63,206.63,0,0,0,28.42-3.83,279.45,279.45,0,0,0,51.41-14.78c39.09-15.66,73.24-38.77,103-68.39,1.81-1.8,3.64-3.6,5.28-5.55,7.22-8.55,11.88-18.11,11.44-29.63C879.35,843.59,879.37,843,879.37,841.54ZM954.75,520c0-3.18.12-6.37,0-9.55a44,44,0,0,0-4-16.64c-4.61-9.8-9.62-19.45-16.16-28.15-8.69-11.56-20.32-19.14-33.8-24.06-6.92-1.15-13.52-3.72-20.58-4.3a53.5,53.5,0,0,1-9.36-1.79,12.75,12.75,0,0,0-5.63-.5c-4.39.8-8.8,1.55-13.11,2.69-6.14,1.62-12.24,3.37-17.68,6.94-5.86,3.84-11.93,7.37-17.86,11.12-5.47,3.45-9.53,8.37-13.56,13.31-1.93,4.8-5.46,8.57-8.24,12.82a93.12,93.12,0,0,0-5.55,10,13.64,13.64,0,0,0-1.48,5.45c-.21,8.91-.23,17.83-.23,26.75a47.86,47.86,0,0,0,.58,5.7c.79,6.32,1.58,12.64,2.42,19a70.29,70.29,0,0,0,1.29,7.52c1.24,5,3.31,9.65,7.72,12.81,5.21,3.74,9.67,8.3,14.2,12.79,2.27,2.24,4.49,4.54,6.89,6.64a46.66,46.66,0,0,0,18.33,9.84c9.24,2.64,18.7,4,28.07,5.84a33.82,33.82,0,0,0,13.33-.22c3.12-.62,6.23-1.39,9.37-1.91,7.68-1.25,14.63-4.34,21.29-8.21a91.15,91.15,0,0,0,24.49-21.16A82.07,82.07,0,0,0,954.75,520ZM499.4,521.28c-.2-3.8-.35-8.26-.71-12.7a44.34,44.34,0,0,0-1.16-7.53c-4.24-16.37-11.8-30.8-24.44-42.41A79.67,79.67,0,0,0,419.46,437c-2.55-.06-5.11,0-7.66,0-9.68.2-18.87,2.81-27.85,6.1a74.7,74.7,0,0,0-28.32,19,78.75,78.75,0,0,0-22.55,53.2c-.14,3.82,0,7.64,0,11.46a66.14,66.14,0,0,0,5.46,26c7.28,17.6,19,31.43,35.87,40.77,13.28,7.35,31.22,11.11,46,10.92a69.73,69.73,0,0,0,29.54-7c22.29-10.76,37.92-27.46,45.89-51.12A57.39,57.39,0,0,0,499,531.47C499.14,528.3,499.23,525.11,499.4,521.28Z"/><path class="cls-3" d="M1070.54,1679.54v-.35c-4.47,0-9,0-13.42,0a25.77,25.77,0,0,0-14.37,4.65c-1.38.92-2,3.21-1.47,5.12a15.17,15.17,0,0,0,5.27,7.81,132.63,132.63,0,0,0,19,12.91,47.14,47.14,0,0,1,9.36,6.64c6.13,5.76,8.25,12.76,6.17,20.87a77.42,77.42,0,0,1-3.23,9c-1.62,4.16-3.33,8.29-5,12.41a50.35,50.35,0,0,0-3.2,13A13.65,13.65,0,0,0,1071,1779c.87,1.91,4.47,3.33,6.49,2.49a76.19,76.19,0,0,0,16.39-9.8c6.15-4.58,12.28-9.18,18.48-13.68a30.11,30.11,0,0,1,5-2.8,8.43,8.43,0,0,1,7.38-.21,46.68,46.68,0,0,1,6.72,3.63q7.88,5.44,15.53,11.21a91,91,0,0,0,19.93,11.34c1.13.46,2.5.29,3.75.49,1.6.27,2.3-.42,2.69-2a20.38,20.38,0,0,0-.23-9.45,157.21,157.21,0,0,0-7.31-23.76,101.86,101.86,0,0,1-4.75-16.53,8.87,8.87,0,0,1,2.73-8.68,125.71,125.71,0,0,1,10.34-8.49c3.58-2.68,7.44-5,11-7.65,4.08-3.06,8-6.29,11.95-9.58a38.69,38.69,0,0,0,3.82-4.25c2.11-2.4,1.36-6.89-1.36-8.22-4.64-2.28-9.39-4.06-14.71-3.65-3.18.25-6.38.48-9.57.6a178.38,178.38,0,0,1-23-.58,11.37,11.37,0,0,1-10.13-7.51c-.74-1.76-1.55-3.5-2.17-5.3-3.12-9-6-18.16-8.29-27.48-.77-3.18-2.78-5.71-4.67-8.29a11.24,11.24,0,0,0-1.38-1.28c-2.31-2.28-6.59-2.19-8.45.08a43.61,43.61,0,0,0-7.84,15.22c-1.68,5.48-2.91,11.11-4.55,16.61a56.49,56.49,0,0,1-3.5,8.88c-2.39,4.81-6.14,8.14-11.64,8.94a70.84,70.84,0,0,1-9.53.82C1076.92,1680.16,1073.73,1679.75,1070.54,1679.54ZM881.15,1755a12.61,12.61,0,0,1,8.25,1.83c4.82,3.12,9.5,6.47,14.14,9.85a106.5,106.5,0,0,0,16.26,10.1,18.33,18.33,0,0,0,7.43,1.55c2.4.09,4.74-2.18,5.09-4.68a36.94,36.94,0,0,0-1.45-17c-1.41-4.24-3.11-8.38-4.46-12.63-1.54-4.86-2.95-9.76-4.18-14.7-.65-2.63.47-5.06,2.11-7.07a31.25,31.25,0,0,1,4.17-4,258.62,258.62,0,0,1,27.42-20.87,20.2,20.2,0,0,0,5.4-5.35,7.09,7.09,0,0,0-2-10,14.2,14.2,0,0,0-7.16-2.45c-8.94-.06-17.89,0-26.84-.11-3.82,0-7.66-.39-11.46-.82a11.69,11.69,0,0,1-8-4.8,24.45,24.45,0,0,1-3.76-6.6c-3-8.41-5.63-16.94-8.52-25.39a87.93,87.93,0,0,0-3.64-8.82,12.92,12.92,0,0,0-2.41-2.91c-1-1.06-4.16-1.41-5.38-.79a22,22,0,0,0-10.15,11.07c-2,4.66-3.43,9.61-5.34,14.34a89.64,89.64,0,0,1-5.6,12.14c-4.12,7-10.08,11.46-18.55,11.82-3.83.16-7.66.41-11.49.52-5.75.17-11.51.15-17.25.4a16.07,16.07,0,0,0-8.77,3.47,7.1,7.1,0,0,0-2.29,6.83,13.41,13.41,0,0,0,5.41,7.65c6.35,4.29,12.85,8.34,18.86,13.11a71.11,71.11,0,0,1,9.76,9.16,16.26,16.26,0,0,1,3.86,10.55,31.41,31.41,0,0,1-1.58,11.31c-1.85,5.43-3.92,10.79-5.72,16.24-1.4,4.23-2.6,8.53-3.76,12.84-.91,3.36,1.34,7.89,4.8,9.59a5.17,5.17,0,0,0,3.62.54,41.25,41.25,0,0,0,8.59-4.14c5.8-3.95,11.42-8.19,17-12.44a70.23,70.23,0,0,1,13-8.13A24.36,24.36,0,0,1,881.15,1755Zm-287.9-75.39a1.21,1.21,0,0,0,0-.19c-5.73,0-11.47-.09-17.2,0a16.67,16.67,0,0,0-9,2.87,6.54,6.54,0,0,0-2.41,2.81,7.69,7.69,0,0,0,.64,7.3,24.47,24.47,0,0,0,5.15,5.54c7.14,5.34,14.49,10.41,21.69,15.66a50.54,50.54,0,0,1,5.81,4.92,14.12,14.12,0,0,1,4.34,10.26,24.06,24.06,0,0,1-1.51,9.36,190.9,190.9,0,0,0-8.26,23.39,34,34,0,0,0-1.07,11.32,6.69,6.69,0,0,0,6.25,6,16.15,16.15,0,0,0,11-2.49c6.28-4.35,12.44-8.88,18.63-13.35,2.07-1.49,4-3.15,6.14-4.54,6.45-4.23,13.14-4.58,19.79-.59a89.11,89.11,0,0,1,9.36,6.59,172.37,172.37,0,0,0,18.83,13,10.84,10.84,0,0,0,9.2.93,4.73,4.73,0,0,0,2.91-2.3,8.88,8.88,0,0,0,1.29-5.43,83.62,83.62,0,0,0-1.82-11.28c-1.44-5.53-3.4-10.93-5-16.42a67.69,67.69,0,0,1-2.27-9.24c-.89-6,.49-11.46,5-15.74a74.71,74.71,0,0,1,8.78-7.32,145.71,145.71,0,0,0,16.65-12.8,65.09,65.09,0,0,0,5.07-5.67c1.94-2.3,1.48-6.24-.82-8.63a12.39,12.39,0,0,0-8.39-4.06c-4.45-.23-8.92-.08-13.38-.14-7-.1-14-.14-21-.41-6.41-.26-10.61-4-13.27-9.48a82.5,82.5,0,0,1-4.17-10.65c-2-6-3.51-12.23-5.51-18.26a51.1,51.1,0,0,0-4-8.64c-2.12-3.8-8.78-4.51-11.71-1.28a31.45,31.45,0,0,0-4.61,6,45.72,45.72,0,0,0-5.27,14.26,69,69,0,0,1-5.41,18.24c-2.54,5.45-6.88,9.26-13.18,9.77C604.72,1679.39,599,1679.38,593.25,1679.57ZM116,1679.49c-9,0-14.77-.16-20.5.07a12.72,12.72,0,0,0-8.44,4.07,5.3,5.3,0,0,0-1.42,5.21,10.45,10.45,0,0,0,2.72,4.94c4,4.15,8.91,7.23,13.52,10.65,5.12,3.8,10.27,7.55,15.34,11.42a20.68,20.68,0,0,1,4.09,4c2.32,3.14,4.17,6.75,3.22,10.67-1.79,7.41-3,15-6.25,22a45.14,45.14,0,0,0-2.77,7.13c-1.34,4.94-2.22,10-1.18,15.11.27,1.34,2.63,3.29,4.08,3.46a19.59,19.59,0,0,0,11.1-2,64.66,64.66,0,0,0,14.12-9.79,71,71,0,0,1,12.34-9,15.79,15.79,0,0,1,14.7-.72,54.6,54.6,0,0,1,13,8,97.15,97.15,0,0,0,17.37,11.83,18.78,18.78,0,0,0,13,1.64c1.72-.38,3.5-2.42,3.36-4.05a29.08,29.08,0,0,0-.59-5.64c-2.87-9.78-6-19.5-8.82-29.28a85.58,85.58,0,0,1-2.51-11.18,7.37,7.37,0,0,1,1.57-5.38,25.77,25.77,0,0,1,3.76-4.3q5.12-4.3,10.5-8.28c4.62-3.4,9.44-6.54,14-10a29.44,29.44,0,0,0,8.31-10.37c.89-1.74,1.34-4,.33-5.47a9,9,0,0,0-4.66-3.07,29.45,29.45,0,0,0-7.54-1.13c-7.66-.26-15.32-.27-23-.49-3.82-.11-7.65-.36-11.46-.72a12.79,12.79,0,0,1-6.86-3.1,19.52,19.52,0,0,1-6.61-9.18c-2.74-8.49-5.31-17-8.12-25.5a74.76,74.76,0,0,0-3.77-8.74c-1.22-2.56-4.95-4.29-8.13-3.87-2.67.36-5,1.61-6,4.09-1.74,4.1-3.13,8.35-4.66,12.53-2.85,7.78-5.41,15.68-8.63,23.31-2.64,6.24-7.42,10.32-14.61,10.65C124.25,1679.25,118.5,1679.41,116,1679.49Zm239,.23c0-.11,0-.23,0-.35-6.38,0-12.77-.08-19.15,0a12.9,12.9,0,0,0-8.59,3.67,5.09,5.09,0,0,0-1.76,3.27,9.29,9.29,0,0,0,1.72,7.2,29.1,29.1,0,0,0,5.41,5.34c4.59,3.44,10,5.76,14,10s9.14,6.86,13.74,10.25c2.73,2,3.77,5.1,3.74,8.42a17.86,17.86,0,0,1-.72,5.66c-3.39,9.61-6.19,19.4-8.87,29.22-.67,2.45-1.75,4.82-2.12,7.3a10,10,0,0,0,3.92,10.12c1.27,1,4.18,1.45,5.4.8.56-.3,1.3-.34,1.76-.73,7.71-6.68,17.07-11.16,24.44-18.32,1.33-1.29,3.23-2,4.84-3a22,22,0,0,1,14.68-3.11,14.15,14.15,0,0,1,7.16,2.46c2.55,1.9,5.12,3.79,7.57,5.82a158.1,158.1,0,0,0,18.66,13.37,47.09,47.09,0,0,0,5.16,2.48,7.08,7.08,0,0,0,5.55,0,7,7,0,0,0,4.83-7.36,26,26,0,0,0-.72-5.66c-1.29-4.27-2.91-8.43-4.29-12.67-2-6.05-4.08-12.08-5.69-18.24-1.75-6.74.51-12.56,5.32-17.43a40.92,40.92,0,0,1,4.35-3.75q7.62-5.79,15.32-11.47c3.61-2.65,7.23-5.31,9.91-8.94a21.45,21.45,0,0,0,2.53-5c.91-2.38-.54-5.63-2.56-6.46a34.7,34.7,0,0,0-13-3c-6.39-.1-12.78,0-19.16-.12-4.46-.11-8.93-.42-13.36-.87a10.3,10.3,0,0,1-7.77-5,55.62,55.62,0,0,1-5-10.26c-3.19-9-6-18.16-9.1-27.19a15.44,15.44,0,0,0-3-4.86,8,8,0,0,0-13,1,24.56,24.56,0,0,0-2.51,5.12c-2.68,7.84-5.12,15.76-7.87,23.57a100.78,100.78,0,0,1-5.21,12.3,9.33,9.33,0,0,1-7.46,5.38C367.82,1679.14,361.44,1679.36,355.08,1679.72Z"/><path class="cls-3" d="M879.37,841.54c0,1.41,0,2.05,0,2.68.44,11.52-4.22,21.08-11.44,29.63-1.64,1.95-3.47,3.75-5.28,5.55-29.8,29.62-63.95,52.73-103,68.39a279.45,279.45,0,0,1-51.41,14.78,206.63,206.63,0,0,1-28.42,3.83c-3.18.16-6.34.76-9.51,1.2-10.18,1.42-20.35,1.75-30.53-.09a51.42,51.42,0,0,0-7.6-1c-11.53-.35-22.85-2.18-34.16-4.31-14-2.63-38.28-8.74-51.79-13.56a407.52,407.52,0,0,1-107.54-57.88c-5.61-4.21-11-8.79-16.21-13.46a52,52,0,0,1-7.7-8.48c-8.34-11.64-10.28-24.35-6.27-38.15,3.6-12.38,11.78-21.05,22.12-27.88a34.51,34.51,0,0,1,19.91-6c1.92,0,3.83,0,5.75,0,8.6,0,16.22,3.12,23.42,7.45,2.18,1.31,4.11,3,6.2,4.5,7.82,5.52,15.54,11.2,23.52,16.5a301.84,301.84,0,0,0,86.75,39.59c9.18,2.56,18.41,5.38,28.1,5.7a18,18,0,0,1,3.8.53c11.29,3,22.82,2.42,34.32,2.36a61.65,61.65,0,0,0,13.33-1.33,62.64,62.64,0,0,1,7.53-1.38c19.35-1.92,37.29-8.51,54.66-16.72a219.29,219.29,0,0,0,50.91-33.81c5.76-5,11.2-10.48,17.57-14.8,2.63-1.79,5.4-3.38,8.18-4.92a27.29,27.29,0,0,1,12.82-3.48c2.56-.05,5.12,0,7.67-.17,7.26-.42,14,1.82,20.3,4.87,7.66,3.68,13.5,9.59,18,16.79a36.64,36.64,0,0,1,5.81,18C879.19,838.49,879.31,840.4,879.37,841.54Z"/><path class="cls-3" d="M954.75,520a82.07,82.07,0,0,1-19.29,52.7A91.15,91.15,0,0,1,911,593.85c-6.66,3.87-13.61,7-21.29,8.21-3.14.52-6.25,1.29-9.37,1.91a33.82,33.82,0,0,1-13.33.22c-9.37-1.88-18.83-3.2-28.07-5.84a46.66,46.66,0,0,1-18.33-9.84c-2.4-2.1-4.62-4.4-6.89-6.64-4.53-4.49-9-9-14.2-12.79-4.41-3.16-6.48-7.77-7.72-12.81a70.29,70.29,0,0,1-1.29-7.52c-.84-6.31-1.63-12.63-2.42-19a47.86,47.86,0,0,1-.58-5.7c0-8.92,0-17.84.23-26.75a13.64,13.64,0,0,1,1.48-5.45,93.12,93.12,0,0,1,5.55-10c2.78-4.25,6.31-8,8.24-12.82,4-4.94,8.09-9.86,13.56-13.31,5.93-3.75,12-7.28,17.86-11.12,5.44-3.57,11.54-5.32,17.68-6.94,4.31-1.14,8.72-1.89,13.11-2.69a12.75,12.75,0,0,1,5.63.5,53.5,53.5,0,0,0,9.36,1.79c7.06.58,13.66,3.15,20.58,4.3,13.48,4.92,25.11,12.5,33.8,24.06,6.54,8.7,11.55,18.35,16.16,28.15a44,44,0,0,1,4,16.64C954.87,513.62,954.75,516.81,954.75,520Z"/><path class="cls-3" d="M499.4,521.28c-.17,3.83-.26,7-.44,10.19a57.39,57.39,0,0,1-3.13,14.88c-8,23.66-23.6,40.36-45.89,51.12a69.73,69.73,0,0,1-29.54,7c-14.77.19-32.71-3.57-46-10.92-16.91-9.34-28.59-23.17-35.87-40.77a66.14,66.14,0,0,1-5.46-26c0-3.82-.14-7.64,0-11.46a78.75,78.75,0,0,1,22.55-53.2,74.7,74.7,0,0,1,28.32-19c9-3.29,18.17-5.9,27.85-6.1,2.55-.05,5.11-.1,7.66,0a79.67,79.67,0,0,1,53.63,21.69c12.64,11.61,20.2,26,24.44,42.41a44.34,44.34,0,0,1,1.16,7.53C499.05,513,499.2,517.48,499.4,521.28Z"/><path class="cls-4" d="M1070.54,1679.54c3.19.21,6.38.62,9.57.58a70.84,70.84,0,0,0,9.53-.82c5.5-.8,9.25-4.13,11.64-8.94a56.49,56.49,0,0,0,3.5-8.88c1.64-5.5,2.87-11.13,4.55-16.61a43.61,43.61,0,0,1,7.84-15.22c1.86-2.27,6.14-2.36,8.45-.08a11.24,11.24,0,0,1,1.38,1.28c1.89,2.58,3.9,5.11,4.67,8.29,2.24,9.32,5.17,18.43,8.29,27.48.62,1.8,1.43,3.54,2.17,5.3a11.37,11.37,0,0,0,10.13,7.51,178.38,178.38,0,0,0,23,.58c3.19-.12,6.39-.35,9.57-.6,5.32-.41,10.07,1.37,14.71,3.65,2.72,1.33,3.47,5.82,1.36,8.22a38.69,38.69,0,0,1-3.82,4.25c-3.91,3.29-7.87,6.52-11.95,9.58-3.58,2.67-7.44,5-11,7.65a125.71,125.71,0,0,0-10.34,8.49,8.87,8.87,0,0,0-2.73,8.68,101.86,101.86,0,0,0,4.75,16.53,157.21,157.21,0,0,1,7.31,23.76,20.38,20.38,0,0,1,.23,9.45c-.39,1.6-1.09,2.29-2.69,2-1.25-.2-2.62,0-3.75-.49a91,91,0,0,1-19.93-11.34q-7.67-5.74-15.53-11.21a46.68,46.68,0,0,0-6.72-3.63,8.43,8.43,0,0,0-7.38.21,30.11,30.11,0,0,0-5,2.8c-6.2,4.5-12.33,9.1-18.48,13.68a76.19,76.19,0,0,1-16.39,9.8c-2,.84-5.62-.58-6.49-2.49a13.65,13.65,0,0,1-1.37-7.42,50.35,50.35,0,0,1,3.2-13c1.71-4.12,3.42-8.25,5-12.41a77.42,77.42,0,0,0,3.23-9c2.08-8.11,0-15.11-6.17-20.87a47.14,47.14,0,0,0-9.36-6.64,132.63,132.63,0,0,1-19-12.91,15.17,15.17,0,0,1-5.27-7.81c-.52-1.91.09-4.2,1.47-5.12a25.77,25.77,0,0,1,14.37-4.65c4.47,0,9,0,13.42,0Z"/><path class="cls-2" d="M881.15,1755a24.36,24.36,0,0,0-4.58,1.3,70.23,70.23,0,0,0-13,8.13c-5.59,4.25-11.21,8.49-17,12.44A41.25,41.25,0,0,1,838,1781a5.17,5.17,0,0,1-3.62-.54c-3.46-1.7-5.71-6.23-4.8-9.59,1.16-4.31,2.36-8.61,3.76-12.84,1.8-5.45,3.87-10.81,5.72-16.24a31.41,31.41,0,0,0,1.58-11.31,16.26,16.26,0,0,0-3.86-10.55,71.11,71.11,0,0,0-9.76-9.16c-6-4.77-12.51-8.82-18.86-13.11a13.41,13.41,0,0,1-5.41-7.65,7.1,7.1,0,0,1,2.29-6.83,16.07,16.07,0,0,1,8.77-3.47c5.74-.25,11.5-.23,17.25-.4,3.83-.11,7.66-.36,11.49-.52,8.47-.36,14.43-4.86,18.55-11.82a89.64,89.64,0,0,0,5.6-12.14c1.91-4.73,3.29-9.68,5.34-14.34a22,22,0,0,1,10.15-11.07c1.22-.62,4.39-.27,5.38.79a12.92,12.92,0,0,1,2.41,2.91,87.93,87.93,0,0,1,3.64,8.82c2.89,8.45,5.54,17,8.52,25.39a24.45,24.45,0,0,0,3.76,6.6,11.69,11.69,0,0,0,8,4.8c3.8.43,7.64.77,11.46.82,9,.13,17.9,0,26.84.11a14.2,14.2,0,0,1,7.16,2.45,7.09,7.09,0,0,1,2,10,20.2,20.2,0,0,1-5.4,5.35,258.62,258.62,0,0,0-27.42,20.87,31.25,31.25,0,0,0-4.17,4c-1.64,2-2.76,4.44-2.11,7.07,1.23,4.94,2.64,9.84,4.18,14.7,1.35,4.25,3.05,8.39,4.46,12.63a36.94,36.94,0,0,1,1.45,17c-.35,2.5-2.69,4.77-5.09,4.68a18.33,18.33,0,0,1-7.43-1.55,106.5,106.5,0,0,1-16.26-10.1c-4.64-3.38-9.32-6.73-14.14-9.85A12.61,12.61,0,0,0,881.15,1755Z"/><path class="cls-2" d="M593.25,1679.57c5.73-.19,11.47-.18,17.18-.63,6.3-.51,10.64-4.32,13.18-9.77a69,69,0,0,0,5.41-18.24,45.72,45.72,0,0,1,5.27-14.26,31.45,31.45,0,0,1,4.61-6c2.93-3.23,9.59-2.52,11.71,1.28a51.1,51.1,0,0,1,4,8.64c2,6,3.56,12.21,5.51,18.26a82.5,82.5,0,0,0,4.17,10.65c2.66,5.48,6.86,9.22,13.27,9.48,7,.27,14,.31,21,.41,4.46.06,8.93-.09,13.38.14a12.39,12.39,0,0,1,8.39,4.06c2.3,2.39,2.76,6.33.82,8.63a65.09,65.09,0,0,1-5.07,5.67,145.71,145.71,0,0,1-16.65,12.8,74.71,74.71,0,0,0-8.78,7.32c-4.5,4.28-5.88,9.76-5,15.74a67.69,67.69,0,0,0,2.27,9.24c1.62,5.49,3.58,10.89,5,16.42a83.62,83.62,0,0,1,1.82,11.28,8.88,8.88,0,0,1-1.29,5.43,4.73,4.73,0,0,1-2.91,2.3,10.84,10.84,0,0,1-9.2-.93,172.37,172.37,0,0,1-18.83-13,89.11,89.11,0,0,0-9.36-6.59c-6.65-4-13.34-3.64-19.79.59-2.12,1.39-4.07,3-6.14,4.54-6.19,4.47-12.35,9-18.63,13.35a16.15,16.15,0,0,1-11,2.49,6.69,6.69,0,0,1-6.25-6,34,34,0,0,1,1.07-11.32,190.9,190.9,0,0,1,8.26-23.39,24.06,24.06,0,0,0,1.51-9.36,14.12,14.12,0,0,0-4.34-10.26,50.54,50.54,0,0,0-5.81-4.92c-7.2-5.25-14.55-10.32-21.69-15.66a24.47,24.47,0,0,1-5.15-5.54,7.69,7.69,0,0,1-.64-7.3,6.54,6.54,0,0,1,2.41-2.81,16.67,16.67,0,0,1,9-2.87c5.73-.12,11.47,0,17.2,0A1.21,1.21,0,0,1,593.25,1679.57Z"/><path class="cls-2" d="M116,1679.49c2.46-.08,8.21-.24,14-.51,7.19-.33,12-4.41,14.61-10.65,3.22-7.63,5.78-15.53,8.63-23.31,1.53-4.18,2.92-8.43,4.66-12.53,1.06-2.48,3.35-3.73,6-4.09,3.18-.42,6.91,1.31,8.13,3.87a74.76,74.76,0,0,1,3.77,8.74c2.81,8.47,5.38,17,8.12,25.5a19.52,19.52,0,0,0,6.61,9.18,12.79,12.79,0,0,0,6.86,3.1c3.81.36,7.64.61,11.46.72,7.66.22,15.32.23,23,.49a29.45,29.45,0,0,1,7.54,1.13,9,9,0,0,1,4.66,3.07c1,1.49.56,3.73-.33,5.47A29.44,29.44,0,0,1,235.4,1700c-4.59,3.45-9.41,6.59-14,10q-5.38,4-10.5,8.28a25.77,25.77,0,0,0-3.76,4.3,7.37,7.37,0,0,0-1.57,5.38,85.58,85.58,0,0,0,2.51,11.18c2.86,9.78,5.95,19.5,8.82,29.28a29.08,29.08,0,0,1,.59,5.64c.14,1.63-1.64,3.67-3.36,4.05a18.78,18.78,0,0,1-13-1.64,97.15,97.15,0,0,1-17.37-11.83,54.6,54.6,0,0,0-13-8,15.79,15.79,0,0,0-14.7.72,71,71,0,0,0-12.34,9,64.66,64.66,0,0,1-14.12,9.79,19.59,19.59,0,0,1-11.1,2c-1.45-.17-3.81-2.12-4.08-3.46-1-5.16-.16-10.17,1.18-15.11a45.14,45.14,0,0,1,2.77-7.13c3.23-7,4.46-14.62,6.25-22,1-3.92-.9-7.53-3.22-10.67a20.68,20.68,0,0,0-4.09-4c-5.07-3.87-10.22-7.62-15.34-11.42-4.61-3.42-9.48-6.5-13.52-10.65a10.45,10.45,0,0,1-2.72-4.94,5.3,5.3,0,0,1,1.42-5.21,12.72,12.72,0,0,1,8.44-4.07C101.27,1679.33,107,1679.49,116,1679.49Z"/><path class="cls-2" d="M355.08,1679.72c6.36-.36,12.74-.58,19.09-1.15a9.33,9.33,0,0,0,7.46-5.38,100.78,100.78,0,0,0,5.21-12.3c2.75-7.81,5.19-15.73,7.87-23.57a24.56,24.56,0,0,1,2.51-5.12,8,8,0,0,1,13-1,15.44,15.44,0,0,1,3,4.86c3.11,9,5.91,18.18,9.1,27.19a55.62,55.62,0,0,0,5,10.26,10.3,10.3,0,0,0,7.77,5c4.43.45,8.9.76,13.36.87,6.38.16,12.77,0,19.16.12a34.7,34.7,0,0,1,13,3c2,.83,3.47,4.08,2.56,6.46a21.45,21.45,0,0,1-2.53,5c-2.68,3.63-6.3,6.29-9.91,8.94q-7.71,5.67-15.32,11.47a40.92,40.92,0,0,0-4.35,3.75c-4.81,4.87-7.07,10.69-5.32,17.43,1.61,6.16,3.72,12.19,5.69,18.24,1.38,4.24,3,8.4,4.29,12.67a26,26,0,0,1,.72,5.66,7,7,0,0,1-4.83,7.36,7.08,7.08,0,0,1-5.55,0,47.09,47.09,0,0,1-5.16-2.48,158.1,158.1,0,0,1-18.66-13.37c-2.45-2-5-3.92-7.57-5.82a14.15,14.15,0,0,0-7.16-2.46,22,22,0,0,0-14.68,3.11c-1.61,1-3.51,1.75-4.84,3-7.37,7.16-16.73,11.64-24.44,18.32-.46.39-1.2.43-1.76.73-1.22.65-4.13.16-5.4-.8a10,10,0,0,1-3.92-10.12c.37-2.48,1.45-4.85,2.12-7.3,2.68-9.82,5.48-19.61,8.87-29.22a17.86,17.86,0,0,0,.72-5.66c0-3.32-1-6.4-3.74-8.42-4.6-3.39-9.73-6-13.74-10.25s-9.4-6.54-14-10a29.1,29.1,0,0,1-5.41-5.34,9.29,9.29,0,0,1-1.72-7.2,5.09,5.09,0,0,1,1.76-3.27,12.9,12.9,0,0,1,8.59-3.67c6.38-.11,12.77,0,19.15,0C355.07,1679.49,355.07,1679.61,355.08,1679.72Z"/></g></g></svg>