<svg xmlns="http://www.w3.org/2000/svg" viewBox="0 0 1282.84 1870.4"><defs><style>.cls-1{fill:#3b3939;}.cls-2{fill:#0bbd50;}.cls-3{fill:#030201;}</style></defs><g id="Capa_2" data-name="Capa 2"><g id="Capa_1-2" data-name="Capa 1"><rect class="cls-1" x="0.84" y="1537.4" width="1282" height="333" rx="166.5"/><path class="cls-2" d="M1281.8,701.38c-.06,1.91.48,4.13-.3,5.68a27.39,27.39,0,0,0-2.51,11c-.15,2.55-.28,5.1-.42,7.65-1.39,25.41-1.55,25.38-7.33,53a591.34,591.34,0,0,1-37.69,116.34A649.35,649.35,0,0,1,1176,998.8a685,685,0,0,1-86.7,104.65A608.88,608.88,0,0,1,881.55,1238,684.17,684.17,0,0,1,777,1269.3c-18.77,4.08-37.71,6.93-56.66,9.85-.64.1-1.27.18-1.91.24-38.28,3.21-76.57,5.54-115,2.51-6.38-.51-12.77-.82-19.16-1.12-7.67-.35-15.31-.7-22.75-3-3-1-6.3-1-9.48-1.28a424.38,424.38,0,0,1-124.43-29.9c-7.68-3.14-15.23-6.69-23.41-8.48a18.7,18.7,0,0,1-5.41-1.89c-7.23-4.24-15.3-6.41-22.92-9.66-5.87-2.5-11.57-5.43-17.23-8.38-6.23-3.25-12.24-6.91-18.5-10.1a583,583,0,0,1-134.39-94.67,670.76,670.76,0,0,1-131-169A598.88,598.88,0,0,1,19.81,803.92,591.4,591.4,0,0,1,6.4,732.46C2,696.91-.54,661.29.1,625.46c.18-10.22.37-20.43,1.65-30.6.48-3.8.82-7.63.93-11.45.44-16,3-31.81,5.47-47.56A584.69,584.69,0,0,1,24.4,463,608.83,608.83,0,0,1,97.13,303.21c37.51-58.49,82.52-110.51,135.75-155.33Q334.13,62.63,461.68,27a643.81,643.81,0,0,1,73-16.12c22.76-3.64,45.53-6.8,68.58-7.74a41.23,41.23,0,0,0,7.6-.93c1.11-.25,2-1.43,3-2.19h69.1a7.39,7.39,0,0,0,4.83,2.67C703,4,718.31,4.61,733.51,7c14.51,2.26,29,4.67,43.35,7.65A588.81,588.81,0,0,1,903.8,56.56C978.25,90.8,1044.23,137.24,1102.17,195c71.91,71.65,122.4,156.28,152.37,253.12A643.08,643.08,0,0,1,1272,518.56c3.09,16.29,6.32,32.54,6.4,49.21,0,2.55.22,5.1.37,7.65.35,5.69.44,11.39,2.92,16.79.73,1.58.11,3.77.12,5.68ZM643.34,766.17v-.1q-78.69,0-157.37,0-20.14,0-40.3.16a56.21,56.21,0,0,0-29.08,8.59c-10.7,6.48-18.41,15.71-22,28-.53,1.83-1,3.71-1.54,5.53-2.18,6.88-2,13.85-.77,20.84.45,2.51,1.35,4.93,1.86,7.43,3.32,16.41,9.71,31.77,17.32,46.51a256.25,256.25,0,0,0,27.16,41.68A286.48,286.48,0,0,0,509.21,989a224.53,224.53,0,0,0,28.59,15.57c9.92,4.46,20.23,7.84,30.56,11.2s21.19,4.66,31.74,7.17a35.1,35.1,0,0,0,5.72.58,489.6,489.6,0,0,0,63.29-.07,31.09,31.09,0,0,0,5.72-.6,167.86,167.86,0,0,1,20.74-3.74c7.18-2.82,14.94-3.25,22.32-5.43,17.23-5.09,33.59-12.12,49.65-20.1C789,982.9,807.33,968.14,824.71,952c1.4-1.3,2.75-2.67,4-4.1,16.16-18.25,30.47-37.77,41.4-59.65,4.58-9.15,8.41-18.61,12.43-28,5.33-12.43,8.41-25.41,10.39-38.7a18.91,18.91,0,0,0,0-5.72c-.73-4.41-1.59-8.8-2.68-13.13a36.86,36.86,0,0,0-2.74-7.12c-5.55-11.45-14.52-19.37-26.2-24.05-8.32-3.33-16.94-5.71-26.11-5.36-5.11.19-10.23,0-15.35,0ZM888.83,390.61c-15.41-.27-26.26,0-36.75,3.51-28.4,6.6-51.84,20.87-69.57,44.29-11.4,15.06-18.52,32-22.68,50.2-1.42,6.21-2.3,12.54-3.22,18.85a29.5,29.5,0,0,0,.22,11.43,89.53,89.53,0,0,0,4,12.76,34.08,34.08,0,0,0,10.32,13.61,36.62,36.62,0,0,0,13.4,7.18c9.38,2.5,10.77,2.62,20.61-.33a40,40,0,0,0,7-3.11c7.72-4.09,12.68-10.71,15.79-18.59a94.39,94.39,0,0,0,5.39-20.29c2.13-13.7,8.42-25.32,19.38-34.16a43.3,43.3,0,0,1,15.16-8c11.61-3.37,11.68-3.06,24.42-.84a49,49,0,0,1,20.81,9.16,42.56,42.56,0,0,1,15.58,21.27,68.09,68.09,0,0,1,3.88,16.72c.43,5.8,2.36,11.31,4.66,16.52,6.22,14.07,16.92,22.11,32.69,22.36a90.12,90.12,0,0,0,11.44-1,12.76,12.76,0,0,0,3.67-1.06c6.54-3,12.23-7,16-13.29,7.11-11.94,10-24.8,7.57-38.61-.66-3.76-1.81-7.43-2.57-11.18-3.9-19.19-12.64-36.1-24.9-51.15-13.1-16.08-28.95-28.78-48.29-36.8-1.18-.48-2.32-1.09-3.51-1.53-12-4.41-24.27-8-37.25-8ZM401,391v0c-4.47,0-8.94-.08-13.41,0a34.42,34.42,0,0,0-7.61.76c-9.86,2.53-19.8,4.61-29.25,8.78a125.11,125.11,0,0,0-38,25.27,129.53,129.53,0,0,0-33.19,55.1c-4,13-5.06,26.22-4.25,39.68a24,24,0,0,0,1.06,5.62c4.35,14.06,18.42,26.13,33.87,26.94,11.6.6,21.29-2.6,29.12-11.36,5.68-6.35,9.89-13.34,10.6-22a102.65,102.65,0,0,1,2.2-13.16c1.63-7.65,5.08-14.4,9.33-20.81a35.32,35.32,0,0,1,9.33-9.51c2.62-1.82,5.33-3.51,8.05-5.17a26,26,0,0,1,8.87-3.45c3.13-.58,6.21-1.45,9.33-2.13a17.87,17.87,0,0,1,7.6,0c3.74.8,7.49,1.59,11.2,2.55a20.46,20.46,0,0,1,5.32,2.06,94,94,0,0,1,11.2,7.3,42.34,42.34,0,0,1,7.79,8.36,53.5,53.5,0,0,1,9,18.88c1,4.34,2.43,8.6,3.14,13,.83,5.1,2.76,9.81,4.45,14.61a27.88,27.88,0,0,0,3.76,6.61,38.4,38.4,0,0,0,9.42,9.44,37.17,37.17,0,0,0,6.72,3.55c1.74.74,3.71.94,5.53,1.53a17.06,17.06,0,0,0,9.42.45c3.1-.74,6.3-1.15,9.33-2.11a24.25,24.25,0,0,0,6.82-3.32,61.87,61.87,0,0,0,8.64-7.52c6.31-6.76,9.95-14.75,10-24.14,0-4.46,0-8.92,0-13.38,0-10.35-2.66-20.25-6-29.85-6-17.08-15.94-31.84-28.28-45-7.48-8-16.35-14.16-25.52-20-14.23-9.13-30.05-13.74-46.4-17a32,32,0,0,0-5.71-.5C409.92,391,405.45,391,401,391Z"/><path class="cls-3" d="M352.46,1680.07c-5.86-.19-10.33-.38-14.79-.48a19.84,19.84,0,0,0-12.49,4.08c-1.79,1.32-2.78,5-1.53,6.82a22.56,22.56,0,0,0,3.51,4.49c3.41,2.88,7,5.51,10.59,8.2,5.1,3.83,10.27,7.57,15.35,11.42,7.38,5.6,9.86,13,7.88,21.94a74.26,74.26,0,0,1-1.89,7.4c-1.62,4.83-3.53,9.56-5.1,14.4a114.32,114.32,0,0,0-3,11.07,8,8,0,0,0,.49,3.71,7.48,7.48,0,0,0,7.1,5.33,16.24,16.24,0,0,0,9.19-2.08,88.1,88.1,0,0,0,12.21-9.2,132.68,132.68,0,0,1,10.45-8.35c8.08-5.62,16.82-5.35,24.94.49a49.64,49.64,0,0,1,4.49,3.55c2.37,2.13,4.64,4.38,6.95,6.58a44.56,44.56,0,0,0,9.5,6.39,19.29,19.29,0,0,0,13,2,5.45,5.45,0,0,0,4-3.66,7.73,7.73,0,0,0,.67-3.7c-.86-6.3-1.58-12.63-3.91-18.65-1.6-4.16-3-8.41-4.4-12.63a41.62,41.62,0,0,1-2.09-11.25,11,11,0,0,1,3.42-8.6,84.3,84.3,0,0,1,13.49-10.65c4.78-3.17,9.48-6.51,13.92-10.13a21,21,0,0,0,7.44-10.88,3.89,3.89,0,0,0-.95-3.38,23.41,23.41,0,0,0-14.29-4.66c-6.39.08-12.78.35-19.16.27-4.46-.05-8.93-.4-13.37-.86a11.59,11.59,0,0,1-8-4.77,25.5,25.5,0,0,1-3.91-6.51c-2.59-7.19-4.86-14.49-7.26-21.75-1-3-1.83-6.11-3.08-9a17.25,17.25,0,0,0-4.36-6.2c-2.71-2.42-8-2.21-10.41.45a22.11,22.11,0,0,0-4.77,8.18c-1.57,4.85-2.83,9.8-4.38,14.65a132.21,132.21,0,0,1-5.08,14.41c-2.79,6.12-7.41,10.38-14.57,10.84C362.56,1679.67,356.82,1679.86,352.46,1680.07Zm715.73-.2c-4.47-.11-9-.31-13.42-.3a20.38,20.38,0,0,0-12.34,4.57,5.28,5.28,0,0,0-1.5,5.16,16.44,16.44,0,0,0,1.55,3.44,25.38,25.38,0,0,0,6.79,6.68c5.29,3.57,10.66,7,15.9,10.69a50.37,50.37,0,0,1,11.23,10.34,13.18,13.18,0,0,1,2.65,7,34.7,34.7,0,0,1-1.3,13.26c-1.68,5.48-3.73,10.85-5.63,16.26-1.06,3-2.3,6-3.17,9a11.05,11.05,0,0,0,1.33,9.16,6.18,6.18,0,0,0,4.64,2.92,17.3,17.3,0,0,0,11.12-2,48.79,48.79,0,0,0,9.48-6.45,112.56,112.56,0,0,1,8.59-7.63,50.44,50.44,0,0,1,9.77-5.95c4.89-2.13,10.14-2.22,14.68.9,6.31,4.34,12.27,9.18,18.47,13.7a70.55,70.55,0,0,0,9.58,6.29,12.53,12.53,0,0,0,11.12.22,4.69,4.69,0,0,0,2.2-2.91c1.25-5.75.47-11.44-1.22-17-1.48-4.88-3.16-9.7-4.83-14.52a57.9,57.9,0,0,1-2.84-15,9.55,9.55,0,0,1,2.42-7.07,45.16,45.16,0,0,1,5.38-5.42c3.51-2.76,7.19-5.3,10.86-7.84,6.33-4.38,12.35-9.12,17.17-15.17a13.84,13.84,0,0,0,2.56-5,3.75,3.75,0,0,0-1.21-3.27,22.6,22.6,0,0,0-12.53-4.21c-6.39,0-12.78.23-19.17.09-5.09-.12-10.2-.54-15.27-1.07a10.34,10.34,0,0,1-6.59-3.6,28.62,28.62,0,0,1-4.52-6.1,118.2,118.2,0,0,1-8.06-23.48,73.2,73.2,0,0,0-2-7.35,18.32,18.32,0,0,0-5.32-7.83c-2.75-2.34-8.42-1.89-10.32,1a47.53,47.53,0,0,0-4.69,8.29,115.07,115.07,0,0,0-3.93,12.78,72.33,72.33,0,0,1-8.88,21.06,11.45,11.45,0,0,1-7.69,5.27C1082.26,1680.11,1075.22,1680,1068.19,1679.87Zm-230.46,98.49c4-.09,6.91-.72,9.13-2.33,6.2-4.48,12.32-9.07,18.53-13.53a70.6,70.6,0,0,1,8-5.21c6.11-3.25,12.25-3.24,18,.83,2.6,1.82,5,4,7.44,6,4.43,3.64,8.78,7.38,13.29,10.92a31.56,31.56,0,0,0,12,5.7,4.43,4.43,0,0,0,3.59-.82,9,9,0,0,0,4.12-6.13,20.87,20.87,0,0,0-.51-9.46,281.66,281.66,0,0,0-9.58-27c-2.24-5.56-1.45-11.23,2.06-16.39a24.06,24.06,0,0,1,6.63-6.78c4.27-2.79,8.72-5.3,13-8.06a59.26,59.26,0,0,0,15.52-14c3.64-4.81,2.06-8-3.32-10.31a18.8,18.8,0,0,0-7.39-1.75q-14.35-.09-28.72-.15c-14.22,0-15.86-2.38-20.28-15.37-2.88-8.43-5.66-16.9-8.49-25.35a27.2,27.2,0,0,0-3.43-6.78c-2.53-3.68-8.63-4.44-11.69-1.15a13.5,13.5,0,0,0-3.25,4.64c-1.77,5.44-3.21,11-4.67,16.53a76.07,76.07,0,0,1-8,19.34c-2.77,4.69-6.8,7.51-12.39,7.69-6.37.2-12.75.34-19.12.47-5.74.13-11.49.06-17.22.4a14.45,14.45,0,0,0-5.32,2c-3.4,1.73-4.47,6.94-2.35,9.84a51.45,51.45,0,0,0,12.49,11.7c5.23,3.64,10.63,7,15.84,10.71a42,42,0,0,1,5.7,5.06,12.79,12.79,0,0,1,3.58,8.61,25.52,25.52,0,0,1-1.11,9.44c-1.63,4.83-3.53,9.56-5.08,14.41-1.74,5.45-3.34,11-4.72,16.5-.44,1.78,0,3.78.1,5.68.11,1.55,2.18,3.47,3.87,3.68C835.22,1778,836.47,1778.19,837.73,1778.36Zm-252.31-98.92c-.25,0-4.71-.11-9.18,0a21.78,21.78,0,0,0-12.35,4.6c-1.37,1-2.24,3.76-1.38,5.09,1,1.59,1.86,3.43,3.24,4.62q6.53,5.63,13.4,10.81c4.08,3.07,8.38,5.84,12.51,8.83a25.09,25.09,0,0,1,4.33,3.75c3.86,4.48,6.52,9.29,4.92,15.65-2,8-4.15,16-6.88,23.86-.84,2.4-1.86,4.75-2.5,7.21a21.16,21.16,0,0,0-.3,9.47,5.18,5.18,0,0,0,3.37,4.2,14.29,14.29,0,0,0,12.85-1.4,103.43,103.43,0,0,0,9.06-7A110.71,110.71,0,0,1,634,1757.5c6.25-3.4,12.28-3.11,18.07.77s11.5,8,17.23,12.07c2.6,1.84,5.09,3.86,7.76,5.58,3.36,2.17,7.18,2.46,11.07,2.14,2.3-.2,4.73-2.72,5.05-5a27.47,27.47,0,0,0-.8-11.34,154.42,154.42,0,0,0-8.21-21.41,24.75,24.75,0,0,1-1.83-11.23,16.25,16.25,0,0,1,4.07-10.45,43.6,43.6,0,0,1,10.11-8.72c3.8-2.34,7.78-4.38,11.6-6.69a35.12,35.12,0,0,0,9.94-8.87,27.62,27.62,0,0,0,2-3.23c1.67-2.94.59-6.87-2.18-8.23a27.46,27.46,0,0,0-12.84-3.31c-7.66.15-15.32.23-23,.2a84.46,84.46,0,0,1-9.54-.66,10.41,10.41,0,0,1-7.79-5,35.11,35.11,0,0,1-3.5-6.78c-2.15-6-4-12.07-6-18.12-1.39-4.24-2.57-8.56-4.22-12.7a13.61,13.61,0,0,0-6.22-7c-1.94-1-5.65-.52-7,1.18a33.74,33.74,0,0,0-2.4,3,47.05,47.05,0,0,0-5.67,12.07c-1.63,5.5-3.61,10.87-4.61,16.57-.9,5.16-4,9.3-7.88,12.79a17.39,17.39,0,0,1-8.44,4.22C602.39,1680.57,596,1680.3,585.42,1679.44Zm-472.06.57c0-.2,0-.41,0-.61-5.72.16-11.46.15-17.17.56a11.85,11.85,0,0,0-6.8,3.19,4.17,4.17,0,0,0-1.56,3.3,15.28,15.28,0,0,0,6.13,13.31c5,4,10.17,7.68,15.24,11.53a68.78,68.78,0,0,1,5.93,4.81c5.92,5.71,8.42,12.6,6.64,20.79-.27,1.24-.71,2.44-1.09,3.66-2.46,7.89-5,15.78-7.38,23.69a49.89,49.89,0,0,0-1.26,5.54c-.68,3.65,2.38,7.92,5.94,8.48,6,.94,11.46.07,16.11-4,2.87-2.53,5.53-5.29,8.43-7.77a137.62,137.62,0,0,1,11.9-9.57c5.13-3.47,10.93-3.92,16.28-.67a177.79,177.79,0,0,1,20.43,14.09,61.54,61.54,0,0,0,9.57,6.26,13.73,13.73,0,0,0,9.27,1.24c1.47-.28,3.7-2.28,4-3.67a31.37,31.37,0,0,0-1.5-16.89c-2.47-6.55-5.55-12.86-7.39-19.65-.5-1.84-1.15-3.64-1.49-5.51-1-5.38.11-10.18,4.63-13.68,5.54-4.28,11.19-8.43,16.81-12.6,2.56-1.9,5.33-3.53,7.72-5.62,3.82-3.33,7.74-6.62,10.25-11.2.81-1.48.39-4.24-1-5.1-3.84-2.41-7.93-4.11-12.53-4.13-8.92,0-17.85.11-26.78,0a75.58,75.58,0,0,1-9.5-.78,10.64,10.64,0,0,1-7.56-5.28,9.73,9.73,0,0,1-1-1.63c-3.29-9-6.78-17.85-8.93-27.18a37,37,0,0,0-1.59-5.48,18.7,18.7,0,0,0-8.49-10c-2.08-1.1-5.88-.31-6.88,1.47-.61,1.1-1.35,2.14-1.91,3.26a142.49,142.49,0,0,0-11.29,32.36c-1.4,6-7.61,12.43-15,12.9C124.82,1679.84,119.08,1679.85,113.36,1680Z"/><path class="cls-1" d="M129.9,1541.2c-2.66,3.68-6.21,4.64-10.47,3.37C122.08,1540.82,125.76,1540.3,129.9,1541.2Z"/><path class="cls-3" d="M643.34,766.17H819.9c5.12,0,10.24.19,15.35,0,9.17-.35,17.79,2,26.11,5.36,11.68,4.68,20.65,12.6,26.2,24.05a36.86,36.86,0,0,1,2.74,7.12c1.09,4.33,2,8.72,2.68,13.13a18.91,18.91,0,0,1,0,5.72c-2,13.29-5.06,26.27-10.39,38.7-4,9.38-7.85,18.84-12.43,28-10.93,21.88-25.24,41.4-41.4,59.65-1.27,1.43-2.62,2.8-4,4.1-17.38,16.15-35.72,30.91-57.17,41.55-16.06,8-32.42,15-49.65,20.1-7.38,2.18-15.14,2.61-22.32,5.43a167.86,167.86,0,0,0-20.74,3.74,31.09,31.09,0,0,1-5.72.6,489.6,489.6,0,0,1-63.29.07,35.1,35.1,0,0,1-5.72-.58c-10.55-2.51-21.38-3.8-31.74-7.17s-20.64-6.74-30.56-11.2A224.53,224.53,0,0,1,509.21,989a286.48,286.48,0,0,1-70.58-64.17,256.25,256.25,0,0,1-27.16-41.68c-7.61-14.74-14-30.1-17.32-46.51-.51-2.5-1.41-4.92-1.86-7.43-1.26-7-1.41-14,.77-20.84.58-1.82,1-3.7,1.54-5.53,3.58-12.26,11.29-21.49,22-28a56.21,56.21,0,0,1,29.08-8.59q20.15-.12,40.3-.16,78.69,0,157.37,0Z"/><path class="cls-3" d="M888.83,390.61H892c13,0,25.21,3.55,37.25,8,1.19.44,2.33,1.05,3.51,1.53,19.34,8,35.19,20.72,48.29,36.8,12.26,15.05,21,32,24.9,51.15.76,3.75,1.91,7.42,2.57,11.18,2.4,13.81-.46,26.67-7.57,38.61-3.72,6.24-9.41,10.34-16,13.29a12.76,12.76,0,0,1-3.67,1.06,90.12,90.12,0,0,1-11.44,1c-15.77-.25-26.47-8.29-32.69-22.36-2.3-5.21-4.23-10.72-4.66-16.52a68.09,68.09,0,0,0-3.88-16.72,42.56,42.56,0,0,0-15.58-21.27,49,49,0,0,0-20.81-9.16c-12.74-2.22-12.81-2.53-24.42.84a43.3,43.3,0,0,0-15.16,8c-11,8.84-17.25,20.46-19.38,34.16a94.39,94.39,0,0,1-5.39,20.29c-3.11,7.88-8.07,14.5-15.79,18.59a40,40,0,0,1-7,3.11c-9.84,2.95-11.23,2.83-20.61.33a36.62,36.62,0,0,1-13.4-7.18,34.08,34.08,0,0,1-10.32-13.61,89.53,89.53,0,0,1-4-12.76,29.5,29.5,0,0,1-.22-11.43c.92-6.31,1.8-12.64,3.22-18.85,4.16-18.24,11.28-35.14,22.68-50.2,17.73-23.42,41.17-37.69,69.57-44.29C862.57,390.63,873.42,390.34,888.83,390.61Z"/><path class="cls-3" d="M401,391c4.47,0,8.94-.05,13.41,0a32,32,0,0,1,5.71.5c16.35,3.25,32.17,7.86,46.4,17,9.17,5.87,18,12,25.52,20,12.34,13.19,22.3,27.95,28.28,45,3.37,9.6,6,19.5,6,29.85,0,4.46.08,8.92,0,13.38-.09,9.39-3.73,17.38-10,24.14a61.87,61.87,0,0,1-8.64,7.52,24.25,24.25,0,0,1-6.82,3.32c-3,1-6.23,1.37-9.33,2.11a17.06,17.06,0,0,1-9.42-.45c-1.82-.59-3.79-.79-5.53-1.53a37.17,37.17,0,0,1-6.72-3.55,38.4,38.4,0,0,1-9.42-9.44,27.88,27.88,0,0,1-3.76-6.61c-1.69-4.8-3.62-9.51-4.45-14.61-.71-4.39-2.14-8.65-3.14-13a53.5,53.5,0,0,0-9-18.88,42.34,42.34,0,0,0-7.79-8.36,94,94,0,0,0-11.2-7.3,20.46,20.46,0,0,0-5.32-2.06c-3.71-1-7.46-1.75-11.2-2.55a17.87,17.87,0,0,0-7.6,0c-3.12.68-6.2,1.55-9.33,2.13a26,26,0,0,0-8.87,3.45c-2.72,1.66-5.43,3.35-8.05,5.17a35.32,35.32,0,0,0-9.33,9.51c-4.25,6.41-7.7,13.16-9.33,20.81a102.65,102.65,0,0,0-2.2,13.16c-.71,8.63-4.92,15.62-10.6,22-7.83,8.76-17.52,12-29.12,11.36-15.45-.81-29.52-12.88-33.87-26.94a24,24,0,0,1-1.06-5.62c-.81-13.46.25-26.65,4.25-39.68a129.53,129.53,0,0,1,33.19-55.1,125.11,125.11,0,0,1,38-25.27c9.45-4.17,19.39-6.25,29.25-8.78a34.42,34.42,0,0,1,7.61-.76c4.47-.12,8.94,0,13.41,0Z"/><path class="cls-2" d="M352.46,1680.07c4.36-.21,10.1-.4,15.83-.77,7.16-.46,11.78-4.72,14.57-10.84a132.21,132.21,0,0,0,5.08-14.41c1.55-4.85,2.81-9.8,4.38-14.65a22.11,22.11,0,0,1,4.77-8.18c2.42-2.66,7.7-2.87,10.41-.45a17.25,17.25,0,0,1,4.36,6.2c1.25,2.92,2.08,6,3.08,9,2.4,7.26,4.67,14.56,7.26,21.75a25.5,25.5,0,0,0,3.91,6.51,11.59,11.59,0,0,0,8,4.77c4.44.46,8.91.81,13.37.86,6.38.08,12.77-.19,19.16-.27a23.41,23.41,0,0,1,14.29,4.66,3.89,3.89,0,0,1,.95,3.38,21,21,0,0,1-7.44,10.88c-4.44,3.62-9.14,7-13.92,10.13A84.3,84.3,0,0,0,447,1719.32a11,11,0,0,0-3.42,8.6,41.62,41.62,0,0,0,2.09,11.25c1.44,4.22,2.8,8.47,4.4,12.63,2.33,6,3,12.35,3.91,18.65a7.73,7.73,0,0,1-.67,3.7,5.45,5.45,0,0,1-4,3.66,19.29,19.29,0,0,1-13-2,44.56,44.56,0,0,1-9.5-6.39c-2.31-2.2-4.58-4.45-6.95-6.58a49.64,49.64,0,0,0-4.49-3.55c-8.12-5.84-16.86-6.11-24.94-.49a132.68,132.68,0,0,0-10.45,8.35,88.1,88.1,0,0,1-12.21,9.2,16.24,16.24,0,0,1-9.19,2.08,7.48,7.48,0,0,1-7.1-5.33,8,8,0,0,1-.49-3.71,114.32,114.32,0,0,1,3-11.07c1.57-4.84,3.48-9.57,5.1-14.4a74.26,74.26,0,0,0,1.89-7.4c2-8.94-.5-16.34-7.88-21.94-5.08-3.85-10.25-7.59-15.35-11.42-3.57-2.69-7.18-5.32-10.59-8.2a22.56,22.56,0,0,1-3.51-4.49c-1.25-1.81-.26-5.5,1.53-6.82a19.84,19.84,0,0,1,12.49-4.08C342.13,1679.69,346.6,1679.88,352.46,1680.07Z"/><path class="cls-2" d="M1068.19,1679.87c7,.16,14.07.24,21-1a11.45,11.45,0,0,0,7.69-5.27,72.33,72.33,0,0,0,8.88-21.06,115.07,115.07,0,0,1,3.93-12.78,47.53,47.53,0,0,1,4.69-8.29c1.9-2.92,7.57-3.37,10.32-1a18.32,18.32,0,0,1,5.32,7.83,73.2,73.2,0,0,1,2,7.35,118.2,118.2,0,0,0,8.06,23.48,28.62,28.62,0,0,0,4.52,6.1,10.34,10.34,0,0,0,6.59,3.6c5.07.53,10.18,1,15.27,1.07,6.39.14,12.78-.13,19.17-.09a22.6,22.6,0,0,1,12.53,4.21,3.75,3.75,0,0,1,1.21,3.27,13.84,13.84,0,0,1-2.56,5c-4.82,6-10.84,10.79-17.17,15.17-3.67,2.54-7.35,5.08-10.86,7.84a45.16,45.16,0,0,0-5.38,5.42,9.55,9.55,0,0,0-2.42,7.07,57.9,57.9,0,0,0,2.84,15c1.67,4.82,3.35,9.64,4.83,14.52,1.69,5.55,2.47,11.24,1.22,17a4.69,4.69,0,0,1-2.2,2.91,12.53,12.53,0,0,1-11.12-.22,70.55,70.55,0,0,1-9.58-6.29c-6.2-4.52-12.16-9.36-18.47-13.7-4.54-3.12-9.79-3-14.68-.9a50.44,50.44,0,0,0-9.77,5.95,112.56,112.56,0,0,0-8.59,7.63,48.79,48.79,0,0,1-9.48,6.45,17.3,17.3,0,0,1-11.12,2,6.18,6.18,0,0,1-4.64-2.92,11.05,11.05,0,0,1-1.33-9.16c.87-3.07,2.11-6,3.17-9,1.9-5.41,4-10.78,5.63-16.26a34.7,34.7,0,0,0,1.3-13.26,13.18,13.18,0,0,0-2.65-7,50.37,50.37,0,0,0-11.23-10.34c-5.24-3.65-10.61-7.12-15.9-10.69a25.38,25.38,0,0,1-6.79-6.68,16.44,16.44,0,0,1-1.55-3.44,5.28,5.28,0,0,1,1.5-5.16,20.38,20.38,0,0,1,12.34-4.57C1059.24,1679.56,1063.72,1679.76,1068.19,1679.87Z"/><path class="cls-2" d="M837.73,1778.36c-1.26-.17-2.51-.35-3.77-.51-1.69-.21-3.76-2.13-3.87-3.68-.14-1.9-.54-3.9-.1-5.68,1.38-5.55,3-11,4.72-16.5,1.55-4.85,3.45-9.58,5.08-14.41a25.52,25.52,0,0,0,1.11-9.44,12.79,12.79,0,0,0-3.58-8.61,42,42,0,0,0-5.7-5.06c-5.21-3.67-10.61-7.07-15.84-10.71a51.45,51.45,0,0,1-12.49-11.7c-2.12-2.9-1-8.11,2.35-9.84a14.45,14.45,0,0,1,5.32-2c5.73-.34,11.48-.27,17.22-.4,6.37-.13,12.75-.27,19.12-.47,5.59-.18,9.62-3,12.39-7.69a76.07,76.07,0,0,0,8-19.34c1.46-5.54,2.9-11.09,4.67-16.53a13.5,13.5,0,0,1,3.25-4.64c3.06-3.29,9.16-2.53,11.69,1.15a27.2,27.2,0,0,1,3.43,6.78c2.83,8.45,5.61,16.92,8.49,25.35,4.42,13,6.06,15.34,20.28,15.37q14.37,0,28.72.15a18.8,18.8,0,0,1,7.39,1.75c5.38,2.33,7,5.5,3.32,10.31a59.26,59.26,0,0,1-15.52,14c-4.28,2.76-8.73,5.27-13,8.06a24.06,24.06,0,0,0-6.63,6.78c-3.51,5.16-4.3,10.83-2.06,16.39a281.66,281.66,0,0,1,9.58,27,20.87,20.87,0,0,1,.51,9.46,9,9,0,0,1-4.12,6.13,4.43,4.43,0,0,1-3.59.82,31.56,31.56,0,0,1-12-5.7c-4.51-3.54-8.86-7.28-13.29-10.92-2.46-2-4.84-4.16-7.44-6-5.79-4.07-11.93-4.08-18-.83a70.6,70.6,0,0,0-8,5.21c-6.21,4.46-12.33,9-18.53,13.53C844.64,1777.64,841.78,1778.27,837.73,1778.36Z"/><path class="cls-2" d="M585.42,1679.44c10.6.86,17,1.13,23.31-.07a17.39,17.39,0,0,0,8.44-4.22c3.9-3.49,7-7.63,7.88-12.79,1-5.7,3-11.07,4.61-16.57a47.05,47.05,0,0,1,5.67-12.07,33.74,33.74,0,0,1,2.4-3c1.4-1.7,5.11-2.23,7-1.18a13.61,13.61,0,0,1,6.22,7c1.65,4.14,2.83,8.46,4.22,12.7,2,6,3.89,12.13,6,18.12a35.11,35.11,0,0,0,3.5,6.78,10.41,10.41,0,0,0,7.79,5,84.46,84.46,0,0,0,9.54.66c7.66,0,15.32,0,23-.2a27.46,27.46,0,0,1,12.84,3.31c2.77,1.36,3.85,5.29,2.18,8.23a27.62,27.62,0,0,1-2,3.23,35.12,35.12,0,0,1-9.94,8.87c-3.82,2.31-7.8,4.35-11.6,6.69a43.6,43.6,0,0,0-10.11,8.72,16.25,16.25,0,0,0-4.07,10.45,24.75,24.75,0,0,0,1.83,11.23,154.42,154.42,0,0,1,8.21,21.41,27.47,27.47,0,0,1,.8,11.34c-.32,2.26-2.75,4.78-5.05,5-3.89.32-7.71,0-11.07-2.14-2.67-1.72-5.16-3.74-7.76-5.58-5.73-4-11.4-8.17-17.23-12.07s-11.82-4.17-18.07-.77a110.71,110.71,0,0,0-17.51,11.64,103.43,103.43,0,0,1-9.06,7,14.29,14.29,0,0,1-12.85,1.4,5.18,5.18,0,0,1-3.37-4.2,21.16,21.16,0,0,1,.3-9.47c.64-2.46,1.66-4.81,2.5-7.21,2.73-7.83,4.86-15.82,6.88-23.86,1.6-6.36-1.06-11.17-4.92-15.65a25.09,25.09,0,0,0-4.33-3.75c-4.13-3-8.43-5.76-12.51-8.83q-6.85-5.19-13.4-10.81c-1.38-1.19-2.21-3-3.24-4.62-.86-1.33,0-4.08,1.38-5.09a21.78,21.78,0,0,1,12.35-4.6C580.71,1679.33,585.17,1679.44,585.42,1679.44Z"/><path class="cls-2" d="M113.36,1680c5.72-.16,11.46-.17,17.17-.53,7.39-.47,13.6-6.88,15-12.9a142.49,142.49,0,0,1,11.29-32.36c.56-1.12,1.3-2.16,1.91-3.26,1-1.78,4.8-2.57,6.88-1.47a18.7,18.7,0,0,1,8.49,10,37,37,0,0,1,1.59,5.48c2.15,9.33,5.64,18.22,8.93,27.18a9.73,9.73,0,0,0,1,1.63,10.64,10.64,0,0,0,7.56,5.28,75.58,75.58,0,0,0,9.5.78c8.93.08,17.86-.06,26.78,0,4.6,0,8.69,1.72,12.53,4.13,1.36.86,1.78,3.62,1,5.1-2.51,4.58-6.43,7.87-10.25,11.2-2.39,2.09-5.16,3.72-7.72,5.62-5.62,4.17-11.27,8.32-16.81,12.6-4.52,3.5-5.6,8.3-4.63,13.68.34,1.87,1,3.67,1.49,5.51,1.84,6.79,4.92,13.1,7.39,19.65a31.37,31.37,0,0,1,1.5,16.89c-.25,1.39-2.48,3.39-4,3.67a13.73,13.73,0,0,1-9.27-1.24,61.54,61.54,0,0,1-9.57-6.26,177.79,177.79,0,0,0-20.43-14.09c-5.35-3.25-11.15-2.8-16.28.67a137.62,137.62,0,0,0-11.9,9.57c-2.9,2.48-5.56,5.24-8.43,7.77-4.65,4.09-10.16,5-16.11,4-3.56-.56-6.62-4.83-5.94-8.48a49.89,49.89,0,0,1,1.26-5.54c2.42-7.91,4.92-15.8,7.38-23.69.38-1.22.82-2.42,1.09-3.66,1.78-8.19-.72-15.08-6.64-20.79a68.78,68.78,0,0,0-5.93-4.81c-5.07-3.85-10.25-7.57-15.24-11.53a15.28,15.28,0,0,1-6.13-13.31,4.17,4.17,0,0,1,1.56-3.3,11.85,11.85,0,0,1,6.8-3.19c5.71-.41,11.45-.4,17.17-.56C113.35,1679.6,113.36,1679.81,113.36,1680Z"/></g></g></svg>